<svg width="56" height="56" viewBox="0 0 56 56" fill="none" xmlns="http://www.w3.org/2000/svg">
<path d="M42.7005 13.3239C42.4847 13.1075 42.2282 12.9359 41.946 12.8188C41.6637 12.7018 41.3611 12.6415 41.0555 12.6415C40.7499 12.6415 40.4473 12.7018 40.1651 12.8188C39.8828 12.9359 39.6264 13.1075 39.4105 13.3239L28.0005 24.7105L16.5905 13.3005C16.3745 13.0845 16.118 12.9131 15.8358 12.7962C15.5535 12.6793 15.251 12.6191 14.9455 12.6191C14.64 12.6191 14.3375 12.6793 14.0553 12.7962C13.773 12.9131 13.5165 13.0845 13.3005 13.3005C13.0845 13.5165 12.9131 13.773 12.7962 14.0553C12.6793 14.3375 12.6191 14.64 12.6191 14.9455C12.6191 15.251 12.6793 15.5535 12.7962 15.8358C12.9131 16.118 13.0845 16.3745 13.3005 16.5905L24.7105 28.0005L13.3005 39.4105C13.0845 39.6265 12.9131 39.883 12.7962 40.1653C12.6793 40.4475 12.6191 40.75 12.6191 41.0555C12.6191 41.361 12.6793 41.6635 12.7962 41.9458C12.9131 42.228 13.0845 42.4845 13.3005 42.7005C13.5165 42.9165 13.773 43.0879 14.0553 43.2048C14.3375 43.3217 14.64 43.3819 14.9455 43.3819C15.251 43.3819 15.5535 43.3217 15.8358 43.2048C16.118 43.0879 16.3745 42.9165 16.5905 42.7005L28.0005 31.2905L39.4105 42.7005C39.6265 42.9165 39.883 43.0879 40.1653 43.2048C40.4475 43.3217 40.75 43.3819 41.0555 43.3819C41.361 43.3819 41.6635 43.3217 41.9458 43.2048C42.228 43.0879 42.4845 42.9165 42.7005 42.7005C42.9165 42.4845 43.0879 42.228 43.2048 41.9458C43.3217 41.6635 43.3819 41.361 43.3819 41.0555C43.3819 40.75 43.3217 40.4475 43.2048 40.1653C43.0879 39.883 42.9165 39.6265 42.7005 39.4105L31.2905 28.0005L42.7005 16.5905C43.5872 15.7039 43.5872 14.2105 42.7005 13.3239Z" fill="white"/>
</svg>
