<svg width="593" height="387" viewBox="0 0 593 387" fill="none" xmlns="http://www.w3.org/2000/svg">
<path d="M28.1279 68.6581C27.534 67.771 27.1098 67.1359 26.6385 66.4369C26.6431 65.5126 26.5293 64.5273 26.6814 63.5635C26.956 61.8301 26.3085 60.2561 25.2345 58.5393C25.7842 57.8053 26.1212 56.8826 25.96 55.8971C25.7573 54.6469 26.1005 53.4429 26.7615 52.3008C27.2884 51.3858 27.5352 50.4627 27.5259 49.478C27.5185 49.0593 27.7866 48.6387 27.9746 48.0736C27.6722 47.7774 27.2469 47.3566 26.7319 46.8449C26.9585 46.1629 27.2804 45.4143 27.4409 44.6515C27.5966 43.9087 26.7314 43.1509 27.4475 42.3942C25.9727 41.0371 25.0732 39.5489 25.2102 37.7947C25.2811 36.9109 25.2285 36.0231 25.2332 35.0954C25.6865 34.6623 26.1255 34.2391 26.6456 33.7394C26.7763 33.231 26.8886 32.6253 27.1052 32.037C27.2882 31.5355 27.5898 31.0514 27.9398 30.3632C28.2544 30.1304 28.8166 29.7681 29.2745 29.3551C29.7277 28.9455 30.0861 28.4817 30.4634 28.0616C32.5873 26.8465 35.2428 26.6522 37.6816 26.0783C39.1433 26.2597 40.2115 25.3642 41.4597 25.4977C42.4528 24.4109 43.2745 23.4303 44.2098 22.5073C45.0784 21.6509 46.0653 20.8588 47.0335 20.0063C46.9205 19.8181 46.784 19.583 46.5438 19.1766C47.141 18.4562 47.8194 17.639 48.751 16.515C48.7545 15.8151 48.7598 14.7601 48.7642 13.8827C49.4381 13.0119 50.1855 12.6305 51.4376 12.9349C52.0276 13.6478 52.5888 14.4377 53.3022 15.1479C53.8031 15.6461 54.5229 16.0349 55.157 16.4801C56.4486 16.4866 57.8576 16.7549 58.8944 16.4352C60.402 15.9705 62.1151 16.1868 63.5194 15.4938C65.157 14.6815 67.2233 14.5579 69.0634 14.0681C70.2664 13.7459 71.7941 14.0215 72.9622 14.0273C74.0896 13.6344 74.9839 13.3208 76.0494 12.951C77.0086 12.9558 78.1388 12.9615 79.3686 12.9676C80.35 12.3228 81.3553 11.6647 82.17 11.1296C83.2312 10.6828 83.7742 11.2883 84.4956 11.3623C86.3229 11.5489 87.9399 11.0547 89.5565 10.6408C90.8355 10.3156 91.9917 9.85253 93.431 9.75927C94.4808 9.69084 95.4711 9.15659 96.6222 8.78391C97.4864 8.78824 98.4883 8.79326 99.4665 8.79816C100.49 9.15829 101.491 9.50491 102.486 9.85486C103.085 9.65022 103.637 9.46208 104.222 9.26741C105.702 7.65385 107.911 6.51282 110.084 5.1673C111.746 5.13544 113.58 4.93698 115.4 5.59248C116.097 5.84381 117.119 5.64128 117.703 5.64421C120.507 6.90078 121.562 8.73804 122.051 10.6327C122.428 12.0882 123.41 13.2452 124.32 14.5458C127.333 14.9963 129.774 15.943 130.512 18.3145C132.871 18.5708 135.028 19.3787 137.37 19.1024C138.071 19.4777 138.668 19.7988 139.345 20.1606C140.922 20.1685 142.555 20.1566 144.188 20.1915C145.551 20.2218 146.919 20.1114 148.232 20.617C148.834 20.8478 149.704 20.755 150.454 20.7621C153.099 20.7888 155.744 20.7618 158.384 20.8219C159.789 20.8558 161.054 20.5707 162.384 20.3396C163.758 20.102 164.914 19.592 166.104 19.1626C167.302 18.7299 168.68 18.6832 169.809 17.9956C170.995 17.2781 172.644 16.9381 174.119 16.423C175.276 15.6518 176.463 14.864 177.716 14.033C178.832 14.0386 179.952 14.0442 180.745 14.0482C183.318 13.3778 185.312 12.5103 187.037 11.3066C187.611 11.42 188.119 11.4661 188.545 11.6189C189.498 11.9653 190.67 12.152 191.455 11.8411C193.077 11.1995 194.913 11.6341 196.535 11.0795C197.786 10.6538 199.262 10.7248 200.552 11.1198C201.586 11.4364 202.412 11.3535 203.411 11.0671C204.043 10.8861 205.055 10.8376 205.576 11.078C206.803 11.6434 208.272 11.3359 209.533 11.8547C210.3 12.1733 211.488 12.0051 212.49 12.0135C216.892 12.0456 221.299 12.061 225.852 12.0838C228.308 13.908 231.893 14.7967 234.172 16.7875C237.228 17.2214 240.338 16.4365 243.238 17.5228C244.037 17.3493 244.859 17.1726 245.686 16.9925C246.398 17.1635 247.085 17.3981 247.807 17.4854C248.537 17.5728 249.302 17.5096 250.005 17.5132C250.697 16.7999 251.422 16.2174 252.601 15.9688C253.982 15.9757 255.364 15.9827 256.637 15.989C257.641 15.6324 258.53 15.3186 259.605 14.9355C261.39 15.1521 263.073 14.5979 264.853 13.8633C266.472 13.8714 268.244 13.7966 269.991 13.9125C271.804 14.0321 273.567 13.7797 275.08 13.2648C276.968 12.6245 278.767 12.724 280.532 13.0979C281.661 13.338 282.715 13.4203 283.883 13.3993C284.858 13.076 285.871 12.7395 286.765 12.4459C289.454 12.178 291.841 12.612 294.254 13.4345C294.848 13.2935 295.542 13.1329 296.189 12.9787C298.457 13.2078 299.794 14.6043 302.166 15.1119C303.837 15.1203 305.851 15.1304 307.864 15.1404C308.893 15.4972 309.898 15.8472 311.016 16.238C313.116 16.071 315.402 16.6384 317.567 15.8287C318.071 15.6404 318.797 15.7277 319.424 15.7074C320.911 15.6579 322.396 15.8295 323.851 15.3411C324.465 15.1365 325.453 15.1381 326.069 15.3455C327.885 15.9507 329.771 15.6956 331.627 15.7685C332.506 15.8031 333.389 15.7841 334.272 15.7851C335.887 15.7865 337.482 15.9184 339.056 15.3972C339.789 15.153 340.776 15.2886 341.493 15.262C342.145 14.927 342.65 14.6683 343.297 14.3333C344.646 14.3702 346.147 14.1064 347.674 14.6332C350.217 14.0565 352.355 12.8481 354.417 11.8336C355.923 11.59 357.24 11.3755 358.547 11.1644C358.788 11.2259 359.097 11.2408 359.239 11.3521C360.696 12.5215 362.563 13.1337 364.646 13.5829C366.652 14.0149 368.591 14.6241 370.55 15.1698C372.513 15.7188 374.462 16.2879 376.387 16.9171C377.924 17.2262 379.664 16.7929 381.198 17.6244C384.143 16.5708 386.921 17.4488 389.904 18.2542C391.625 17.9078 393.528 17.2073 395.498 18.2252C396.511 17.9155 397.529 17.6091 398.689 17.2566C400.054 17.7189 401.51 18.2118 403.174 18.7761C405.082 18.7857 407.219 18.7964 409.555 18.8081C410.451 18.2365 411.47 17.5885 412.647 16.8409C413.222 16.8036 413.958 16.7537 414.766 16.6974C415.323 16.4055 415.923 16.087 416.618 15.7221C419.168 15.7349 421.808 15.7481 424.439 15.7613C425.072 15.4195 425.667 15.1009 426 14.9184C427.478 14.6445 428.657 14.3825 429.86 14.221C430.948 14.0758 432.03 14.1247 433.148 13.8122C434.484 13.4404 436.125 13.7601 437.467 13.1673C439.838 13.0352 441.829 13.6915 443.747 14.6958C445.612 14.953 447.684 14.5816 449.551 15.2842C449.855 15.3963 450.297 15.3348 450.672 15.3367C452.286 15.3381 453.892 15.1887 455.437 15.8127C456.006 16.0433 456.914 15.857 457.811 15.8615C459.22 15.1484 460.673 14.3419 462.696 14.2716C464.192 14.2222 465.421 13.4848 466.861 13.1739C468.23 12.8793 469.466 12.7047 471.003 12.9167C471.457 13.3443 471.972 13.8291 472.511 14.3376C472.857 14.3393 473.261 14.4049 473.603 14.3296C474.425 14.1495 475.215 13.9023 476.38 13.5833C476.937 13.2679 477.761 12.7194 478.699 12.2887C479.679 11.8415 479.912 10.9786 480.878 10.5414C481.187 10.4023 481.388 10.1387 481.697 9.99621C482.721 9.51907 483.777 9.06888 484.748 8.63835C485.574 8.68268 485.966 9.0631 486.249 9.43962C486.82 10.2128 487.038 11.1282 488.36 11.7276C490.331 11.7375 492.458 11.7481 494.609 11.7589C496.064 12.4695 497.489 13.1666 499.015 13.9144C499.77 13.9516 500.643 13.9929 501.607 14.0379C502.147 14.3253 502.743 14.6464 503.387 14.9879C505.537 15.2532 507.881 14.719 510.018 15.6775C512.795 14.8944 515.642 14.2924 519.026 14.7079C520.784 15.4234 522.994 16.0205 524.969 16.9883C526.021 17.506 527.516 17.6039 528.835 17.8014C529.556 17.9088 530.317 17.8523 531.026 17.5679C532.106 17.1345 533.434 17.4393 534.59 16.9025C535.323 16.5612 536.51 16.7313 537.501 17.0209C538.288 17.2526 539.171 17.3273 540.409 17.5378C540.854 17.818 541.602 18.284 542.402 18.7904C542.933 18.8968 543.526 19.017 544.261 19.1647C545.908 20.3686 547.982 21.4306 548.971 23.2274C549.121 24.551 548.757 25.996 549.757 27.3105C550.635 28.4637 551.522 29.6169 552.475 30.8675C553.501 31.6162 554.661 32.322 556.36 32.6553C557.622 32.9028 558.701 33.6249 559.895 34.1534C560.702 35.1019 561.537 36.084 562.505 37.2208C562.501 38.0179 562.501 38.9892 562.491 39.9637C562.49 40.3187 562.644 40.7448 562.42 41.015C561.326 42.3424 561.769 43.7848 561.734 45.1812C561.657 48.1984 561.685 51.2161 561.669 54.3173C561 55.2685 560.277 56.2897 559.464 57.4377C559.457 58.9983 559.434 60.6828 559.445 62.3675C559.45 63.1546 559.218 63.9773 559.984 64.6811C560.01 66.0075 560.037 67.3339 560.059 68.6569C558.931 70.0545 559.417 71.5942 559.324 73.0808C559.278 73.7872 559.341 74.5009 559.361 75.211C559.381 76.0015 559.353 76.7616 559.929 77.5314C560.306 78.0357 560.137 78.7449 560.228 79.4687C560.665 80.3484 561.829 81.1748 561.619 82.3258C562.417 83.2944 562.487 84.3765 562.287 85.417C562.073 86.5346 563.16 87.4577 562.989 88.5219C562.822 89.5593 562.266 90.5947 562.351 91.6099C562.481 93.1579 561.563 94.5364 561.37 96.0158C560.325 97.0488 560.742 98.2432 560.722 99.3717C560.702 100.41 560.507 101.437 561.219 102.492C561.836 103.41 561.769 104.535 562.082 105.561C562.47 106.832 562.164 108.207 562.156 109.661C561.721 110.278 561.229 110.986 560.693 111.743C560.69 112.4 560.696 113.11 560.683 113.82C560.663 114.972 560.785 116.141 560.561 117.275C560.337 118.386 559.728 119.455 559.343 120.555C559.194 120.976 559.177 121.425 559.137 121.863C559.037 122.911 559.221 123.957 558.499 124.978C558.136 125.489 558.446 126.163 558.714 126.781C558.995 127.432 559.271 128.277 558.917 128.835C558.151 130.044 558.411 131.267 558.324 132.483C558.242 133.628 558.298 134.78 558.293 135.912C558.974 136.421 559.637 136.84 560.166 137.328C560.771 137.884 561.618 138.474 561.729 139.104C562.029 140.8 563.68 142.095 564.17 143.695C563.906 144.373 563.651 145.038 563.405 145.667C564.246 146.656 565.011 147.554 565.733 148.401C565.949 149.722 565.701 150.936 564.983 152.078C564.538 152.789 563.965 153.466 563.354 154.116C562.676 154.84 562.544 155.552 562.948 156.378C563.7 157.913 563.887 159.458 562.939 161.003C562.748 161.314 562.741 161.689 562.716 162.037C562.64 163.001 562.673 163.936 562.127 164.891C561.729 165.582 561.976 166.464 561.968 167.261C561.952 168.41 561.8 169.515 561.153 170.61C560.119 172.363 560.186 174.148 560.87 176.024C561.277 177.138 561.609 178.231 562.543 179.338C562.537 180.631 562.682 182.058 563.473 183.352C564.326 184.746 564.214 186.088 563.628 187.462C563.253 188.337 563.154 189.201 563.639 190.051C564.18 191.004 564.128 191.912 563.611 192.864C563.352 193.345 563.268 193.894 563.256 194.416C563.214 196.197 562.593 197.872 561.526 199.471C561.368 199.708 561.044 199.958 561.076 200.182C561.292 201.717 559.846 203.06 560.176 204.481C559.181 205.923 558.433 207.353 556.71 208.185C555.876 209.792 555.45 211.323 555.561 212.932C555.587 213.344 555.21 213.764 555.137 214.189C555.019 214.885 554.654 215.697 555.012 216.265C555.677 217.309 555.562 218.327 555.562 219.395C553.469 221.907 552.63 224.575 553.74 227.649C553.434 228.116 553.027 228.743 552.481 229.581C552.473 231.226 552.35 233.091 552.488 234.95C552.639 237.001 552.358 239.005 551.437 240.926C551.187 241.444 551.745 241.909 551.216 242.375C550.743 242.795 551.288 243.2 551.523 243.596C551.617 243.754 551.654 243.938 551.649 244.112C551.544 246.972 552.846 249.661 554.048 252.306C554.941 254.27 555.639 256.173 555.396 258.224C555.351 258.576 555.388 258.934 555.386 259.283C555.843 259.935 556.291 260.563 556.852 261.36C556.724 262.23 557.175 263.287 556.382 264.298C555.908 264.902 556.281 265.496 556.814 266.102C556.502 266.871 555.786 267.637 556.583 268.562C556.928 268.966 556.773 269.588 556.823 270.111C556.976 271.679 556.389 273.297 557.53 274.793C557.411 276.752 558 278.617 558.931 280.457C559.171 280.934 559.026 281.509 559.028 282.041C559.029 283.816 559.015 285.591 559.006 287.356C559.496 288.109 559.967 288.828 560.467 289.598C560.594 290.67 560.261 291.851 561.22 292.89C561.162 294.022 561.489 295.132 560.766 296.274C560.1 297.322 560.199 298.555 560.82 299.637C561.173 300.251 561.213 300.828 561.215 301.44C561.214 302.596 561.16 303.751 561.231 304.9C561.27 305.497 561.533 306.084 561.771 306.939C561.499 307.219 561.017 307.716 560.535 308.212C560.191 309.5 560.849 310.89 559.589 312.146C560.579 313.712 560.485 315.386 560.443 317.057C560.425 317.767 560.308 318.486 560.437 319.184C560.567 319.867 560.796 320.592 561.268 321.184C561.872 321.94 561.84 322.711 561.84 323.501C561.842 325.008 561.83 326.515 561.824 327.801C562.414 329.335 564.353 329.967 564.945 331.263C565.513 332.512 566.291 333.711 567.1 335.156C567.09 337.215 567.102 339.523 567.048 341.827C567.036 342.249 566.711 342.662 566.628 343.091C566.487 343.786 566.379 344.486 566.343 345.186C566.29 346.16 566.323 347.138 566.32 347.838C565.946 349.514 563.705 350.33 563.958 351.905C562.893 353.116 563.442 354.488 563.184 355.78C562.471 356.805 561.754 357.826 561.036 358.857C562.262 360.645 561.545 362.51 561.678 364.477C560.41 365.361 559 366.248 557.765 367.237C556.612 368.162 555.212 368.895 553.921 369.693C552.844 370.357 551.319 370.658 549.973 371.1C549.416 371.281 548.822 371.405 547.89 371.648C545.298 371.579 542.252 371.902 539.376 370.635C538.871 370.91 538.352 371.276 537.733 371.514C536.392 372.03 535.037 372.374 533.477 371.781C532.165 371.278 530.433 371.839 529.198 371.026C527.688 371.018 526.178 371.011 524.753 371.003C523.653 370.64 522.639 370.306 521.624 369.97C521.254 370.072 520.906 370.164 520.431 370.292C519.759 369.883 519.015 369.431 518.414 369.063C517.217 369.207 516.138 369.336 515.297 369.439C511.869 368.373 508.478 367.66 506.204 365.656C505.102 365.65 504.124 365.645 503.108 365.64C502.897 366.098 502.709 366.496 502.488 366.967C502.189 366.979 501.862 366.99 501.377 367.008C501.275 366.445 501.183 365.932 501.091 365.416C500.214 364.963 499.343 364.509 498.642 364.141C498.005 364.258 497.558 364.343 496.969 364.451C496.797 363.746 496.648 363.156 496.522 362.647C495.808 362.121 495.312 362.587 494.741 362.691C494.501 362.392 494.308 362.059 494.005 361.79C493.381 361.234 492.69 360.715 492.09 360.23C491.514 360.421 491.186 360.533 490.763 360.675C489.552 360.519 489.76 358.982 488.087 359.192C487.216 359.609 488.339 360.09 487.999 360.635C487.112 360.459 486.206 360.281 485.371 360.116C485.09 360.292 484.757 360.407 484.761 360.515C484.822 361.587 483.846 362.077 482.534 362.506C482.499 362.797 482.454 363.135 482.415 363.45C482.84 363.837 483.223 364.188 483.672 364.598C483.5 364.778 483.357 365.019 483.104 365.158C482.823 365.314 482.457 365.416 482.101 365.471C479.535 365.877 477.209 366.679 474.939 367.576C474.192 367.87 473.473 368.238 472.858 368.657C471.944 369.279 470.916 369.712 469.738 369.82C469.555 370.278 469.42 370.612 469.228 371.094C468.762 371.185 468.182 371.296 467.607 371.41C467.311 371.687 467.015 371.96 466.658 372.297C465.945 372.249 465.181 372.279 464.484 372.138C462.942 371.829 461.434 371.43 459.911 371.074C459.456 370.968 458.773 370.686 458.583 370.799C457.716 371.327 456.946 370.543 456.109 370.807C455.443 371.018 454.668 371.215 453.965 371.178C451.217 371.027 448.867 371.816 446.442 372.557C446.143 372.475 445.801 372.383 445.45 372.284C444.458 372.266 444.056 372.977 443.029 373.243C441.558 372.998 439.902 372.722 438.18 372.435C437.512 372.917 436.958 373.534 435.907 373.891C434.804 374.267 433.855 374.925 433.855 375.95C432.458 377.005 430.595 377.458 428.74 377.921C428.275 378.036 427.752 378.056 427.314 378.205C426.653 378.433 426.062 378.935 425.411 378.966C423.673 379.041 422.117 379.686 420.294 379.54C418.557 379.4 416.771 379.488 415.014 379.543C414.292 379.566 413.583 379.757 412.704 379.9C411.357 379.619 409.815 379.31 408.288 378.974C407.41 378.782 406.752 379.351 405.789 379.206C405.082 379.098 404.206 379.539 403.255 379.772C402.377 379.698 402.252 378.997 401.676 378.411C401.286 378.52 400.858 378.642 400.425 378.757C399.569 378.984 398.715 378.976 397.885 378.694C396.648 378.269 395.42 377.834 393.946 377.318C391.272 377.495 388.421 375.877 385.598 377.219C384.996 377.032 384.546 376.896 384.053 376.742C383.059 377.076 381.989 377.251 380.84 377.229C379.33 377.198 377.815 377.264 376.31 377.209C375.261 377.171 374.348 377.387 373.449 377.674C372.348 377.508 371.267 377.241 370.18 377.215C369.121 377.19 368.051 377.419 366.944 377.537C366.728 377.094 366.531 376.691 366.343 376.305C365.471 375.989 364.592 375.982 363.802 376.286C363.089 376.56 362.367 376.557 361.617 376.556C360.61 376.558 359.589 376.493 358.601 376.591C357.774 376.674 356.985 376.952 356.077 377.168C355.5 376.629 355.123 376.015 354.465 375.73C353.702 375.398 353.11 375.027 352.539 374.391C351.029 374.383 349.405 374.375 347.781 374.367C346.271 374.359 344.761 374.352 343.217 374.344C342.794 374.493 342.352 374.645 341.819 374.829C341.544 374.758 341.146 374.545 340.87 374.604C339.677 374.856 338.471 374.92 337.246 374.9C335.537 375.726 333.583 375.267 331.597 375.411C331.3 375.915 331.079 376.507 330.63 376.991C330.239 377.411 329.582 377.709 328.991 378.094C327.274 377.697 325.647 377.321 324.053 376.951C323.719 377.297 323.442 377.584 323.065 377.974C322.544 377.811 321.994 377.641 321.354 377.443C319.939 377.436 318.424 377.405 316.919 377.428C315.442 377.45 313.876 377.134 312.552 377.885C311.152 377.888 309.901 378.216 308.617 378.602C307.271 379.007 305.803 379.224 304.363 379.454C303.526 379.588 300.904 378.931 299.842 378.43C299.43 378.234 299.023 378.028 298.592 377.855C298.16 377.682 297.705 377.546 297.302 377.41C296.784 377.491 296.333 377.562 295.896 377.627C295.66 377.378 295.456 377.163 295.249 376.944C295.016 376.899 294.751 376.777 294.551 376.816C293.135 377.101 291.727 377.419 290.14 377.766C289.661 377.509 289.084 377.194 288.402 376.826C286.892 376.768 285.26 376.468 283.765 377.184C281.04 377.161 278.278 377.679 275.609 376.802C274.96 376.588 274.148 376.624 273.008 376.504C272.417 375.996 271.623 375.305 270.701 374.51C270.655 374.339 270.561 374 270.482 373.705C270.164 373.61 269.946 373.488 269.723 373.487C267.587 373.463 265.445 373.455 263.161 373.444C262.076 372.986 260.901 372.495 259.413 371.868C257.931 371.944 256.124 371.53 254.259 372.217C253.35 372.554 252.036 372.347 250.877 372.388C249.925 372.748 248.941 373.071 248.017 373.556C246.632 374.282 245.057 374.783 243.152 374.05C242.11 373.647 240.78 373.62 239.508 373.409C238.8 373.597 238.019 374.025 237.153 373.381C236.554 373.629 235.94 373.88 235.35 374.125C235.425 374.347 235.4 374.578 235.547 374.662C236.025 374.939 236.608 375.126 237.062 375.417C237.294 375.568 237.34 375.863 237.467 376.092C236.44 376.465 236.44 376.465 235.229 376.496C234.395 376.11 233.471 375.683 232.419 375.199C232.136 374.856 231.768 374.412 231.334 373.891C229.791 373.883 228.295 373.876 227.345 373.871C225.676 373.373 224.572 372.916 223.381 372.719C222.133 372.515 221.578 371.41 220.086 371.58C219.82 371.609 219.48 371.316 219.167 371.181C218.433 370.859 217.747 370.4 216.945 370.255C214.407 369.794 212.422 368.792 210.815 367.354C210.007 367.35 209.252 367.417 208.536 367.323C207.819 367.229 207.141 366.978 206.425 366.79C203.274 367.246 200.161 367.783 197.698 369.378C195.386 369.367 193.121 369.356 191.017 369.345C188.713 369.662 187.414 371.082 185.309 371.433C183.208 371.784 181.683 372.939 179.125 373.509C178.812 373.517 177.938 373.543 176.945 373.575C175.59 374.037 174.134 374.535 172.555 375.077C171.495 375.262 170.242 375.065 169.015 375.474C168.183 375.751 167.034 375.652 166.047 375.583C164.755 375.493 163.605 375.752 162.601 376.072C162.122 375.942 161.791 375.85 161.378 375.737C161.103 376.513 161.123 377.394 159.535 377.721C158.805 377.577 157.87 377.337 156.907 377.219C155.929 377.1 154.971 376.941 154.012 376.789C151.953 376.464 149.741 376.315 147.706 376.818C145.795 377.29 144.053 377.184 142.208 376.633C140.766 377.252 139.11 377.163 137.505 377.075C135.843 376.983 134.247 377.065 132.759 377.577C131.236 378.098 129.641 378.12 128.012 378.102C126.127 378.083 124.247 378.08 122.157 378.07C121.823 378.44 121.465 378.887 121.026 379.293C120.663 379.626 120.201 379.905 119.92 380.108C118.334 380.107 118.391 379.139 117.676 378.717C117.404 379.007 117.132 379.294 116.769 379.674C114.568 379.137 112.2 379.008 110.181 378.13C109.824 378.252 109.487 378.368 109.063 378.513C108.215 378.217 107.328 377.908 106.546 377.636C105.752 377.77 105.049 377.887 104.331 378.004C103.517 377.49 102.769 377.018 102.13 376.616C100.603 376.247 99.1466 375.992 97.824 375.543C96.582 375.121 95.2967 374.81 94.0018 374.512C92.5931 374.187 91.1507 373.942 89.571 373.629C88.8956 373.85 88.1204 374.101 87.2262 374.395C87.4278 374.908 87.6153 375.391 87.8216 375.928C87.4981 376.037 87.1937 376.143 86.7656 376.288C86.222 375.783 85.7068 375.301 85.1538 374.79C84.9925 374.755 84.7603 374.667 84.5276 374.662C83.0177 374.642 81.5078 374.604 80.0023 374.643C78.7343 374.677 77.5383 374.54 76.3444 374.005C76.0242 374.412 75.8185 374.709 75.556 374.983C75.3507 375.199 75.0696 375.379 74.7693 375.618C74.3132 375.656 73.8239 375.694 73.3156 375.735C72.939 376.035 72.548 376.351 72.1905 376.63C71.0696 376.675 70.7601 375.883 69.7783 375.66C68.4202 375.653 66.915 375.646 65.329 375.638C64.3619 375.308 63.357 374.962 62.1387 374.547C61.2412 374.542 60.1111 374.537 59.1661 374.532C58.0949 374.152 57.2037 373.832 56.341 373.527C55.4248 373.478 54.5465 373.43 54.1667 373.412C51.9949 372.808 50.2736 372.331 48.6518 371.88C47.9291 372.058 47.3491 372.199 46.5836 372.386C44.1296 371.235 41.0142 371.32 38.4775 370.557C35.7476 369.492 35.1255 367.613 34.3697 365.878C33.9894 364.998 34.0615 363.877 34.498 363.008C34.9441 362.123 34.9008 361.285 34.9576 360.361C34.537 359.974 34.0784 359.556 33.5443 359.068C33.5466 358.609 33.5492 358.08 33.5524 357.454C33.8586 356.99 34.1749 356.415 34.6097 355.888C35.1591 355.225 35.2766 354.515 34.8334 353.87C33.702 352.233 33.4446 350.524 33.596 348.746C33.6513 348.127 33.6117 347.504 33.6163 346.58C33.7167 346.456 34.0177 346.083 34.3378 345.689C34.3404 345.177 34.3431 344.644 34.3467 343.931C33.439 343.116 33.3652 341.739 31.4883 341.036C31.2213 340.301 31.316 339.394 30.6267 338.614C30.0459 337.951 29.6032 337.229 29.0844 336.513C29.6368 336.191 30.0845 335.928 30.5274 335.669C30.7212 334.903 29.5875 334.667 29.2113 333.928C29.3261 332.807 28.5874 331.46 29.7663 330.25C29.5647 329.737 29.23 329.239 29.2088 328.737C29.1833 328.154 29.7279 327.49 29.4787 327C29.1589 326.375 29.5787 325.996 29.7947 325.525C29.5781 324.211 27.5646 323.293 28.4882 321.871C27.6214 321.434 27.0246 321.13 26.3046 320.768C26.3069 320.319 26.134 319.762 26.3594 319.305C26.6041 318.804 27.1719 318.271 26.8038 317.807C26.2376 317.087 26.6108 316.526 26.771 315.83C27.0234 314.726 27.2288 313.542 26.4705 312.299C26.815 311.778 27.2218 311.154 27.7242 310.383C27.7205 309.237 27.428 307.9 28.3934 306.662C28.5559 306.455 28.5006 306.127 28.4211 305.875C28.2855 305.456 28.0501 305.049 27.8059 304.519C28.2505 303.905 28.7526 303.207 29.3599 302.363C29.2583 301.803 29.1383 301.109 29.0041 300.415C28.9716 300.255 28.7921 300.069 28.8639 299.946C29.8745 298.223 29.0667 296.434 29.2322 294.68C29.3878 293.002 29.2823 291.314 29.2907 289.639C28.6243 289.016 27.3191 288.889 27.0674 287.94C26.867 287.176 26.3151 286.456 25.8869 285.657C26.103 285.179 26.5984 284.867 27.4721 284.881C27.9612 284.89 28.4505 284.846 29.0109 284.822C28.8808 284.262 28.7265 283.779 28.6672 283.293C28.6124 282.861 28.6573 282.422 28.6593 282.037C27.874 281.427 27.1976 280.901 26.3746 280.261C26.3762 279.929 26.2219 279.456 26.4138 279.072C26.7831 278.334 27.3517 277.643 27.8826 276.872C27.8877 275.861 27.893 274.799 27.8984 273.727C28.6348 272.696 29.3665 271.675 30.0933 270.657C30.1383 270.215 30.188 269.774 30.2378 269.308C30.6909 268.912 31.1583 268.502 31.6782 268.046C31.6865 266.392 31.6949 264.711 31.7028 263.126C32.5815 262.15 33.3742 261.269 34.2003 260.352C33.9081 259.892 33.6442 259.506 33.4087 259.109C33.2157 258.783 33.0511 258.451 32.8347 258.051C32.8842 257.643 33.5277 257.157 32.9176 256.669C32.2602 256.143 33.2932 255.622 32.9581 255.225C32.4199 254.586 32.7429 253.63 31.3724 253.258C30.9409 253.142 30.7825 252.522 30.5278 252.176C31.1917 251.419 31.8269 250.692 32.4382 249.995C31.194 249.064 30.0728 248.225 28.8853 247.335C28.8914 246.119 28.8976 244.893 28.9038 243.647C29.3227 243.445 29.7273 243.253 30.2509 242.998C30.0537 242.541 29.7759 242.067 29.6597 241.571C29.5389 241.052 29.5748 240.516 29.5442 239.986C29.1084 239.77 28.7105 239.57 28.1421 239.286C28.2853 238.195 27.312 237.219 26.9232 236.152C26.4876 234.954 24.6377 234.533 24.2781 233.342C24.2829 232.368 24.3068 231.393 24.2832 230.422C24.2759 229.986 24.3353 229.498 24.0903 229.125C23.4022 228.086 23.3548 227.112 24.1007 226.084C24.5837 225.416 24.421 224.712 23.9447 224.047C23.61 223.576 23.2657 223.102 22.8601 222.538C22.8887 220.622 22.5191 218.581 23.7681 216.651C23.2245 216.159 22.7707 215.745 22.3074 215.324C22.2513 215.163 22.1382 214.992 22.139 214.824C22.1448 213.672 22.1648 212.52 22.1991 211.365C22.2164 210.742 22.129 210.182 21.6951 209.587C21.0349 208.676 21.225 207.699 22.0081 206.833C21.8099 206.59 21.6163 206.362 21.4747 206.19C21.4906 203.025 21.5061 199.921 21.5217 196.81C22.213 196.264 22.8804 195.738 23.6241 195.152C23.2035 194.755 22.7734 194.351 22.2394 193.842C22.3032 193.417 22.1496 192.797 22.503 192.407C23.2765 191.55 22.57 190.411 23.7038 189.67C23.7328 188.625 24.156 187.572 23.2208 186.57C22.9185 186.243 23.0541 185.718 22.9851 185.259C23.5148 184.753 24.0301 184.263 24.5215 183.793C24.095 182.679 23.6825 181.602 23.2138 180.384C24.2407 179.19 24.0812 177.85 23.0335 176.552C23.326 175.997 23.5801 175.509 23.8917 174.918C23.7695 174.66 23.586 174.337 23.4737 174.002C23.3333 173.579 22.9987 173.078 23.1904 172.734C24.2781 170.771 23.6758 168.714 23.9708 166.713C23.9855 166.626 24.0191 166.543 24.0529 166.432C24.4728 166.022 24.9119 165.593 25.3079 165.209C25.7114 163.336 24.814 161.429 26.2237 159.661C25.2489 158.983 23.6549 158.674 23.87 157.446C23.8895 157.339 23.5961 157.139 23.397 157.085C22.2825 156.785 22.2104 156.027 21.8288 155.423C22.0636 154.995 22.284 154.594 22.4758 154.237C22.2208 153.934 22.0273 153.705 21.7441 153.366C22.1173 152.805 22.5383 152.181 23.055 151.406C22.2388 150.354 21.3565 149.211 20.2856 147.822C20.2207 147.501 20.1951 146.918 20.635 146.32C21.3043 145.416 21.2764 144.358 20.8106 143.485C20.3872 142.695 20.3435 141.952 20.2857 141.164C20.2236 140.29 20.2041 139.446 19.7478 138.569C18.9717 137.089 19.9382 135.643 20.5579 134.226C20.6635 133.982 21.0683 133.747 21.0314 133.532C20.7637 132.007 21.7489 130.612 21.8608 129.115C21.9575 127.823 22.5005 126.546 22.8678 125.266C22.9886 124.841 23.347 124.411 23.292 124.005C23.1041 122.641 24.2592 121.458 24.2279 120.128C25.3596 118.868 25.0478 117.604 24.123 116.417C24.6943 115.174 24.938 113.932 26.4145 113.049C26.1515 111.514 26.8518 110.117 27.5189 108.701C27.9461 107.798 28.1551 106.842 28.3782 105.902C28.5625 105.126 28.6092 104.332 28.7603 103.553C28.9114 102.776 29.5795 102.116 29.5316 101.266C29.4526 99.9624 29.2314 98.6283 30.1969 97.3772C30.4645 97.0302 30.2962 96.5069 30.2937 96.0648C30.2944 94.0252 30.1859 91.9784 30.3101 89.9427C30.4081 88.3792 29.856 86.7454 31.0411 85.2643C30.9846 84.209 31.104 83.1245 30.8052 82.1049C30.6278 81.5012 30.4408 80.9074 30.4154 80.2944C30.3694 79.0516 30.3519 77.8124 30.3201 76.5697C29.1857 75.5191 30.1426 74.0904 29.0082 73.0398C29.2769 71.5341 27.7689 70.1802 28.1279 68.6581Z" fill="white"/>
<g clip-path="url(#clip0_226_36709)">
<path d="M232.051 176.42H223.302V141.278H188.16V132.54H232.051V176.42Z" fill="#0886C5"/>
<path d="M214.596 185.168V208.911C214.596 226.811 214.596 236.673 210.281 240.925C205.965 245.177 196.75 245.252 178.256 245.252H155.712C137.801 245.252 127.939 245.252 123.687 240.936C119.435 236.62 119.371 227.394 119.371 208.901V186.367C119.371 168.467 119.371 158.605 123.676 154.353C127.982 150.1 137.218 150.026 155.712 150.026H179.454V141.278H155.712C112.722 141.278 110.623 143.399 110.623 186.367V208.911C110.623 251.9 112.744 254 155.712 254H178.256C221.224 254 223.345 251.879 223.345 208.932V185.168H214.596Z" fill="#1E1E1C"/>
<path d="M245.497 155.243C245.402 152.868 245.645 150.482 246.218 148.17C247.554 144.067 251.054 141.893 255.656 141.893C260.258 141.893 263.757 144.067 265.093 148.17C265.666 150.482 265.91 152.868 265.815 155.243C265.91 157.629 265.666 160.015 265.093 162.327C263.757 166.431 260.258 168.605 255.656 168.605C251.054 168.605 247.554 166.431 246.218 162.327C245.645 160.015 245.402 157.629 245.497 155.243ZM260.141 155.243C260.226 153.388 260.088 151.521 259.728 149.697C258.901 147.449 256.409 146.294 254.161 147.121C252.962 147.555 252.019 148.499 251.584 149.697C251.223 151.521 251.085 153.388 251.17 155.243C251.075 157.099 251.202 158.955 251.541 160.779C252.368 163.027 254.86 164.183 257.109 163.356C258.307 162.921 259.251 161.977 259.685 160.779C260.046 158.955 260.184 157.099 260.099 155.243H260.141Z" fill="#1E1E1C"/>
<path d="M275.941 168.202C275.676 168.202 275.56 168.096 275.56 167.82V147.524C275.57 147.418 275.496 147.312 275.379 147.301C275.369 147.301 275.348 147.301 275.337 147.301H268.826C268.561 147.301 268.455 147.184 268.455 146.919V142.752C268.455 142.487 268.561 142.37 268.826 142.37H287.914C288.179 142.37 288.295 142.487 288.295 142.752V146.994C288.295 147.259 288.179 147.375 287.914 147.375H281.371C281.265 147.354 281.159 147.428 281.138 147.545C281.138 147.566 281.138 147.587 281.138 147.598V167.799C281.138 168.075 281.031 168.181 280.756 168.181L275.941 168.202Z" fill="#1E1E1C"/>
<path d="M292.77 168.202C292.495 168.202 292.389 168.096 292.389 167.82V142.752C292.389 142.487 292.495 142.37 292.77 142.37H297.595C297.86 142.37 297.977 142.487 297.977 142.752V152.412C297.977 152.56 298.051 152.635 298.21 152.635H300.034C301.434 152.667 302.685 151.744 303.078 150.397L304.711 146.357C305.93 143.282 307.606 142.221 310.649 142.221H312.24C312.505 142.221 312.621 142.327 312.621 142.593V146.707C312.621 146.93 312.505 147.046 312.24 147.046H311.9C310.744 146.908 309.663 147.661 309.387 148.796L308.136 151.977C307.86 153.154 307.086 154.151 306.015 154.713V154.872C307.245 155.286 308.189 156.283 308.528 157.534L310.087 161.68C310.278 162.815 311.338 163.599 312.483 163.43H312.908C313.173 163.43 313.289 163.546 313.289 163.769V168.011C313.289 168.276 313.173 168.392 312.908 168.392H311.073C307.998 168.392 306.248 167.247 305.071 164.151L303.427 159.909C302.982 158.414 301.54 157.449 299.992 157.597H298.21C298.094 157.587 297.988 157.672 297.977 157.788C297.977 157.799 297.977 157.82 297.977 157.831V167.83C297.977 168.106 297.86 168.212 297.595 168.212H292.77V168.202Z" fill="#1E1E1C"/>
<path d="M318.273 168.202C317.998 168.202 317.891 168.096 317.891 167.82V142.752C317.891 142.487 317.998 142.37 318.273 142.37H328.315C330.722 142.232 333.087 143.059 334.89 144.65C336.534 146.219 337.424 148.425 337.329 150.694C337.414 152.953 336.523 155.148 334.89 156.707C333.087 158.298 330.722 159.125 328.315 158.997H323.713C323.554 158.997 323.48 159.072 323.48 159.22V167.852C323.48 168.128 323.363 168.234 323.098 168.234L318.273 168.202ZM327.965 154.13C330.288 154.13 331.741 152.794 331.741 150.663C331.741 148.531 330.288 147.174 327.965 147.174H323.724C323.565 147.174 323.49 147.248 323.49 147.396V153.897C323.469 154.003 323.543 154.109 323.65 154.13C323.671 154.13 323.692 154.13 323.724 154.13H327.965Z" fill="#1E1E1C"/>
<path d="M342.249 168.202C341.984 168.202 341.868 168.096 341.868 167.82V142.752C341.868 142.487 341.984 142.37 342.249 142.37H347.074C347.339 142.37 347.456 142.487 347.456 142.752V151.426C347.456 151.575 347.53 151.649 347.689 151.649H352.292C358.071 151.649 361.454 154.925 361.454 159.909C361.454 164.893 358.113 168.202 352.292 168.202H342.249ZM351.984 163.377C354.455 163.377 355.865 162.115 355.865 159.878C355.865 157.64 354.455 156.41 351.984 156.41H347.742C347.636 156.389 347.53 156.463 347.509 156.569C347.509 156.59 347.509 156.611 347.509 156.643V163.144C347.488 163.25 347.562 163.356 347.668 163.377C347.689 163.377 347.711 163.377 347.742 163.377H351.984ZM364.709 168.202C364.433 168.202 364.327 168.096 364.327 167.82V142.752C364.327 142.487 364.433 142.37 364.709 142.37H369.534C369.799 142.37 369.916 142.487 369.916 142.752V167.799C369.916 168.075 369.799 168.181 369.534 168.181L364.709 168.202Z" fill="#1E1E1C"/>
<path d="M381.485 168.202C381.22 168.202 381.103 168.096 381.103 167.82V147.524C381.113 147.418 381.039 147.312 380.923 147.301C380.912 147.301 380.891 147.301 380.88 147.301H374.337C374.072 147.301 373.956 147.184 373.956 146.919V142.752C373.956 142.487 374.072 142.37 374.337 142.37H393.425C393.69 142.37 393.807 142.487 393.807 142.752V146.994C393.807 147.259 393.69 147.375 393.425 147.375H386.882C386.776 147.354 386.67 147.428 386.649 147.545C386.649 147.566 386.649 147.587 386.649 147.598V167.799C386.649 168.075 386.543 168.181 386.278 168.181L381.485 168.202Z" fill="#1E1E1C"/>
<path d="M402.725 142.752C402.767 142.518 402.979 142.349 403.223 142.37H408.016C408.25 142.349 408.462 142.518 408.504 142.752L417.284 167.799C417.369 168.074 417.284 168.18 417.019 168.18H412.078C411.834 168.202 411.622 168.043 411.579 167.799L410.095 163.281H401.049L399.597 167.799C399.565 168.032 399.353 168.202 399.109 168.18H394.125C393.86 168.18 393.785 168.074 393.86 167.799L402.725 142.752ZM402.576 158.573H408.546L405.62 149.464H405.503L402.576 158.573Z" fill="#1E1E1C"/>
<path d="M420.084 168.34C419.819 168.34 419.702 168.223 419.702 167.958V163.716C419.702 163.494 419.819 163.377 420.084 163.377H420.614C421.611 163.462 422.544 162.868 422.894 161.924L423.954 159.422C424.304 158.499 424.94 157.725 425.768 157.195V157.036C422.724 156.315 420.519 154.067 420.519 150.111C420.455 148.022 421.282 146.007 422.798 144.565C424.474 143.038 426.68 142.232 428.949 142.317H439.606C439.776 142.296 439.924 142.423 439.945 142.593C439.945 142.614 439.945 142.635 439.945 142.656V167.799C439.945 168.075 439.829 168.181 439.606 168.181H434.739C434.463 168.181 434.357 168.075 434.357 167.799V158.785C434.357 158.637 434.283 158.563 434.124 158.563H432.183C430.699 158.563 429.946 158.86 429.225 160.577L427.772 164.151C426.552 167.194 424.845 168.393 421.759 168.393L420.084 168.34ZM434.155 153.801C434.315 153.801 434.389 153.727 434.389 153.579V147.418C434.41 147.312 434.336 147.206 434.23 147.184C434.209 147.184 434.187 147.184 434.155 147.184H429.553C427.846 146.983 426.308 148.213 426.107 149.91C426.086 150.101 426.075 150.291 426.096 150.493C425.969 152.2 427.242 153.685 428.949 153.812C429.15 153.823 429.352 153.823 429.553 153.801H434.155Z" fill="#1E1E1C"/>
<path d="M246.557 202.443C246.282 202.443 246.176 202.326 246.176 202.061V176.95C246.176 176.685 246.282 176.568 246.557 176.568H251.085C251.35 176.547 251.594 176.706 251.69 176.95L258.222 191.711H258.37L264.807 176.95C264.892 176.696 265.146 176.537 265.411 176.568H269.886C270.152 176.568 270.268 176.685 270.268 176.95V202.061C270.268 202.326 270.152 202.443 269.886 202.443H265.539C265.274 202.443 265.157 202.326 265.157 202.061V187.491H265.009L260.215 198.402C260.12 198.71 259.823 198.911 259.494 198.901H256.865C256.536 198.911 256.249 198.71 256.143 198.402L251.35 187.491H251.202V202.061C251.202 202.326 251.085 202.443 250.82 202.443H246.557Z" fill="#1E1E1C"/>
<path d="M275.454 189.505C275.348 187.13 275.592 184.744 276.175 182.432C277.5 178.318 281 176.155 285.612 176.155C290.225 176.155 293.714 178.276 295.04 182.432C295.623 184.744 295.867 187.13 295.761 189.505C295.867 191.881 295.623 194.267 295.04 196.578C293.714 200.693 290.215 202.856 285.612 202.856C281.01 202.856 277.5 200.735 276.175 196.578C275.592 194.267 275.348 191.881 275.454 189.505ZM290.098 189.505C290.183 187.639 290.034 185.773 289.674 183.949C288.857 181.701 286.376 180.545 284.128 181.361C282.919 181.796 281.975 182.751 281.54 183.949C281.18 185.773 281.031 187.639 281.116 189.505C281.031 191.372 281.18 193.238 281.54 195.062C282.357 197.31 284.838 198.466 287.086 197.649C288.295 197.215 289.239 196.26 289.674 195.062C290.034 193.238 290.183 191.372 290.098 189.505Z" fill="#1E1E1C"/>
<path d="M301.328 202.442C301.105 202.442 300.989 202.326 300.989 202.061V176.918C300.967 176.749 301.084 176.59 301.254 176.568C301.275 176.568 301.307 176.568 301.328 176.568H318.295C318.56 176.568 318.676 176.685 318.676 176.918V181.065C318.676 181.33 318.56 181.446 318.295 181.446H306.81C306.651 181.446 306.577 181.521 306.577 181.669V186.229C306.566 186.345 306.651 186.451 306.768 186.462C306.778 186.462 306.8 186.462 306.81 186.462H311.868C314.117 186.345 316.322 187.141 317.987 188.668C319.535 190.163 320.373 192.252 320.278 194.405C320.362 196.568 319.535 198.678 317.987 200.194C316.322 201.721 314.117 202.517 311.868 202.4L301.328 202.442ZM311.338 197.681C313.109 197.681 314.551 196.239 314.551 194.468C314.551 192.697 313.109 191.255 311.338 191.255H306.81C306.704 191.234 306.598 191.308 306.577 191.414C306.577 191.435 306.577 191.457 306.577 191.488V197.459C306.577 197.607 306.651 197.681 306.81 197.681H311.338Z" fill="#1E1E1C"/>
<path d="M325.537 202.443C325.314 202.443 325.198 202.326 325.198 202.061V176.918C325.177 176.749 325.293 176.59 325.463 176.568C325.484 176.568 325.516 176.568 325.537 176.568H330.447C330.617 176.547 330.765 176.675 330.786 176.844C330.786 176.865 330.786 176.897 330.786 176.918V192.825H330.903L340.341 176.918C340.447 176.728 340.648 176.611 340.871 176.611H345.324C345.494 176.59 345.643 176.717 345.664 176.887C345.664 176.908 345.664 176.94 345.664 176.961V202.061C345.664 202.326 345.547 202.443 345.324 202.443H340.457C340.181 202.443 340.075 202.326 340.075 202.061V186.155H339.959L330.521 202.135C330.415 202.326 330.214 202.443 329.991 202.443H325.537Z" fill="#1E1E1C"/>
<path d="M349.863 202.591C349.598 202.591 349.481 202.474 349.481 202.209V197.968C349.481 197.734 349.598 197.618 349.863 197.618H350.351C351.655 197.639 352.853 196.918 353.468 195.772C354.232 194.521 354.614 192.199 354.614 188.774V176.918C354.614 176.685 354.73 176.568 354.995 176.568H371.962C372.195 176.568 372.301 176.685 372.301 176.918V202.061C372.301 202.326 372.195 202.442 372.005 202.442H367.052C366.83 202.442 366.713 202.326 366.713 202.061V181.786C366.724 181.669 366.639 181.563 366.522 181.552C366.512 181.552 366.49 181.552 366.48 181.552H360.319C360.213 181.542 360.107 181.616 360.096 181.733C360.096 181.754 360.096 181.775 360.096 181.786V189.124C360.096 194.033 359.407 197.49 357.975 199.548C356.544 201.615 354.126 202.782 351.613 202.591H349.863Z" fill="#1E1E1C"/>
<path d="M378.6 202.442C378.325 202.442 378.219 202.326 378.219 202.061V176.95C378.219 176.685 378.325 176.568 378.6 176.568H383.425C383.69 176.568 383.807 176.685 383.807 176.95V185.624C383.786 185.73 383.86 185.836 383.966 185.858C383.987 185.858 384.008 185.858 384.04 185.858H388.653C394.432 185.858 397.815 189.124 397.815 194.108C397.815 199.092 394.475 202.442 388.653 202.442H378.6ZM388.335 197.607C390.774 197.607 392.216 196.281 392.216 194.033C392.216 191.785 390.806 190.651 388.335 190.651H384.04C383.881 190.651 383.807 190.725 383.807 190.873V197.384C383.807 197.533 383.881 197.607 384.04 197.607H388.335Z" fill="#1E1E1C"/>
<path d="M402.81 202.442C402.544 202.442 402.428 202.326 402.428 202.061V176.95C402.428 176.685 402.544 176.568 402.81 176.568H407.634C407.899 176.568 408.016 176.685 408.016 176.95V186.653C408.006 186.77 408.09 186.876 408.207 186.886C408.218 186.886 408.239 186.886 408.249 186.886H416.733C416.839 186.897 416.945 186.823 416.955 186.706C416.955 186.685 416.955 186.664 416.955 186.653V176.95C416.955 176.685 417.072 176.568 417.337 176.568H422.173C422.438 176.568 422.554 176.685 422.554 176.95V202.061C422.554 202.326 422.438 202.442 422.173 202.442H417.284C417.019 202.442 416.902 202.326 416.902 202.061V192.093C416.913 191.987 416.839 191.881 416.722 191.87C416.712 191.87 416.69 191.87 416.68 191.87H408.196C408.037 191.87 407.963 191.944 407.963 192.093V202.061C407.963 202.326 407.846 202.442 407.581 202.442H402.81Z" fill="#1E1E1C"/>
<path d="M435.492 176.95C435.534 176.717 435.746 176.547 435.99 176.568H440.783C441.016 176.547 441.228 176.717 441.271 176.95L450.03 202.061C450.104 202.326 450.03 202.443 449.765 202.443H444.855C444.611 202.464 444.399 202.294 444.357 202.061L442.883 197.533H433.827L432.374 202.061C432.332 202.294 432.119 202.464 431.886 202.443H426.828C426.563 202.443 426.489 202.326 426.563 202.061L435.492 176.95ZM435.311 192.782H441.281L438.355 183.726H438.238L435.311 192.782Z" fill="#1E1E1C"/>
<path d="M452.851 202.591C452.586 202.591 452.469 202.474 452.469 202.209V197.968C452.469 197.734 452.586 197.618 452.851 197.618H453.391C454.388 197.703 455.321 197.119 455.671 196.176L456.732 193.662C457.082 192.772 457.686 191.998 458.481 191.457V191.308C455.438 190.587 453.179 188.339 453.179 184.384C453.126 182.274 453.975 180.248 455.512 178.806C457.209 177.258 459.457 176.452 461.758 176.558H472.362C472.532 176.537 472.691 176.653 472.712 176.812C472.712 176.844 472.712 176.876 472.712 176.908V202.061C472.712 202.326 472.596 202.443 472.362 202.443H467.495C467.23 202.443 467.113 202.326 467.113 202.061V193.047C467.113 192.888 467.039 192.814 466.891 192.814H465.003C463.646 192.623 462.363 193.493 462.034 194.829L460.592 198.402C459.372 201.446 457.665 202.644 454.579 202.644L452.851 202.591ZM466.933 188.063C467.081 188.063 467.156 187.989 467.156 187.83V181.669C467.166 181.563 467.092 181.457 466.975 181.446C466.965 181.446 466.944 181.446 466.933 181.446H462.331C460.21 181.446 458.863 182.581 458.863 184.755C458.736 186.462 460.03 187.957 461.737 188.074C461.938 188.085 462.129 188.074 462.331 188.063H466.933Z" fill="#1E1E1C"/>
<path d="M246.483 236.694C246.25 236.694 246.144 236.577 246.144 236.312V211.17C246.123 211.011 246.229 210.852 246.388 210.831C246.42 210.831 246.451 210.831 246.483 210.831H265.571C265.836 210.831 265.952 210.937 265.952 211.17V236.312C265.952 236.577 265.836 236.694 265.613 236.694H260.703C260.481 236.694 260.364 236.577 260.364 236.312V216.037C260.364 215.889 260.29 215.815 260.131 215.815H251.965C251.806 215.815 251.732 215.889 251.732 216.037V236.312C251.732 236.577 251.616 236.694 251.393 236.694H246.483Z" fill="#1E1E1C"/>
<path d="M270.12 236.843C269.855 236.843 269.738 236.737 269.738 236.471V232.23C269.738 231.996 269.855 231.88 270.12 231.88H270.618C271.912 231.901 273.11 231.191 273.736 230.056C274.499 228.805 274.871 226.482 274.871 223.057V211.17C274.871 210.937 274.987 210.831 275.252 210.831H292.219C292.452 210.831 292.569 210.937 292.569 211.17V236.312C292.569 236.577 292.452 236.694 292.261 236.694H287.32C287.087 236.694 286.97 236.577 286.97 236.312V216.037C286.981 215.931 286.906 215.825 286.79 215.815C286.779 215.815 286.758 215.815 286.747 215.815H280.586C280.427 215.815 280.353 215.889 280.353 216.037V223.343C280.353 228.243 279.674 231.71 278.232 233.757C276.801 235.825 274.383 236.991 271.87 236.8L270.12 236.843Z" fill="#1E1E1C"/>
<path d="M305.548 211.212C305.591 210.968 305.803 210.809 306.047 210.831H310.84C311.084 210.809 311.296 210.979 311.328 211.212L320.076 236.312C320.161 236.577 320.076 236.694 319.811 236.694H314.869C314.625 236.715 314.413 236.546 314.371 236.312L312.886 231.827H303.82L302.367 236.355C302.325 236.588 302.113 236.758 301.879 236.736H296.895C296.63 236.736 296.556 236.62 296.63 236.355L305.548 211.212ZM305.4 227.034H311.37L308.443 217.978H308.327L305.4 227.034Z" fill="#1E1E1C"/>
<path d="M327.361 236.694C327.096 236.694 326.979 236.577 326.979 236.312V216.037C326.99 215.931 326.916 215.825 326.799 215.814C326.788 215.814 326.767 215.814 326.757 215.814H320.203C319.949 215.814 319.832 215.698 319.832 215.433V211.191C319.832 210.915 319.949 210.809 320.203 210.809H339.344C339.609 210.809 339.726 210.915 339.726 211.191V215.433C339.726 215.698 339.609 215.814 339.344 215.814H332.801C332.695 215.793 332.589 215.868 332.568 215.984C332.568 216.005 332.568 216.027 332.568 216.037V236.312C332.568 236.577 332.462 236.694 332.186 236.694H327.361Z" fill="#1E1E1C"/>
<path d="M353.32 237.129C353.087 237.129 352.97 237.012 352.97 236.747V233.948C352.97 233.788 352.896 233.714 352.747 233.714C345.134 233.258 341.751 229.759 341.751 223.184C341.751 216.61 345.409 213.439 352.747 213.1C352.896 213.1 352.97 213.026 352.97 212.866V210.746C352.97 210.523 353.087 210.406 353.352 210.406H358.219C358.389 210.385 358.548 210.502 358.569 210.671C358.569 210.693 358.569 210.724 358.569 210.746V212.866C358.569 213.026 358.643 213.1 358.792 213.1C366.14 213.439 369.831 216.822 369.831 223.184C369.831 229.547 366.437 233.258 358.792 233.714C358.643 233.714 358.569 233.788 358.569 233.948V236.726C358.569 236.991 358.452 237.108 358.219 237.108L353.32 237.129ZM352.97 228.645V218.126C352.97 218.02 352.896 217.935 352.747 217.935C349.057 218.094 347.35 219.653 347.35 223.418C347.35 226.959 349.057 228.635 352.747 228.9C352.853 228.921 352.959 228.836 352.981 228.73C352.981 228.698 352.981 228.677 352.981 228.645H352.97ZM364.232 223.343C364.232 219.579 362.524 218.041 358.834 217.861C358.643 217.861 358.569 217.946 358.569 218.052V228.645C358.569 228.794 358.643 228.879 358.834 228.879C362.524 228.645 364.263 226.959 364.263 223.418L364.232 223.343Z" fill="#1E1E1C"/>
<path d="M373.807 223.757C373.701 221.382 373.945 218.996 374.528 216.684C375.854 212.58 379.353 210.406 383.955 210.406C388.558 210.406 392.068 212.527 393.393 216.684C393.976 218.996 394.22 221.382 394.114 223.757C394.22 226.143 393.976 228.529 393.393 230.84C392.068 234.944 388.558 237.118 383.955 237.118C379.353 237.118 375.854 234.997 374.528 230.84C373.945 228.529 373.701 226.143 373.807 223.757ZM388.452 223.757C388.536 221.901 388.388 220.035 388.027 218.211C387.211 215.963 384.729 214.807 382.481 215.623C381.273 216.058 380.329 217.013 379.894 218.211C379.523 220.035 379.385 221.901 379.47 223.757C379.385 225.623 379.523 227.49 379.894 229.313C380.711 231.562 383.192 232.717 385.44 231.901C386.649 231.466 387.593 230.512 388.027 229.313C388.377 227.479 388.505 225.613 388.409 223.757H388.452Z" fill="#1E1E1C"/>
<path d="M399.681 236.694C399.416 236.694 399.3 236.577 399.3 236.312V211.212C399.3 210.937 399.416 210.831 399.681 210.831H409.723C412.131 210.703 414.495 211.52 416.309 213.11C419.543 216.472 419.543 221.806 416.309 225.167C414.495 226.758 412.131 227.575 409.723 227.447H405.121C405.015 227.437 404.909 227.511 404.899 227.628C404.899 227.649 404.899 227.67 404.899 227.681V236.312C404.899 236.577 404.782 236.694 404.517 236.694H399.681ZM409.384 222.622C411.706 222.622 413.149 221.286 413.149 219.155C413.149 217.023 411.706 215.655 409.384 215.655H405.142C404.994 215.655 404.92 215.73 404.92 215.889V222.389C404.92 222.548 404.994 222.622 405.142 222.622H409.384Z" fill="#1E1E1C"/>
<path d="M423.647 236.694C423.382 236.694 423.265 236.577 423.265 236.312V211.212C423.265 210.936 423.382 210.83 423.647 210.83H428.175C428.44 210.799 428.694 210.958 428.79 211.212L435.311 225.963H435.47L441.897 211.212C441.992 210.958 442.246 210.799 442.512 210.83H446.976C447.241 210.83 447.358 210.936 447.358 211.212V236.312C447.358 236.577 447.241 236.694 446.976 236.694H442.734C442.469 236.694 442.352 236.577 442.352 236.312V221.742H442.204L437.411 232.664C437.305 232.972 437.008 233.163 436.69 233.152H434.06C433.742 233.173 433.445 232.972 433.339 232.664L428.546 221.742H428.387V236.312C428.387 236.577 428.281 236.694 428.016 236.694H423.647Z" fill="#1E1E1C"/>
<path d="M460.348 211.212C460.38 210.968 460.602 210.799 460.846 210.83H465.629C465.873 210.799 466.095 210.968 466.127 211.212L474.875 236.312C474.95 236.577 474.875 236.694 474.61 236.694H469.669C469.425 236.715 469.213 236.546 469.17 236.312L467.686 231.827H458.641L457.198 236.355C457.156 236.599 456.944 236.758 456.7 236.736H451.727C451.451 236.736 451.377 236.62 451.451 236.355L460.348 211.212ZM460.199 227.034H466.169L463.243 217.978H463.126L460.199 227.034Z" fill="#1E1E1C"/>
</g>
<defs>
<clipPath id="clip0_226_36709">
<rect width="364.285" height="121.46" fill="white" transform="translate(110.623 132.54)"/>
</clipPath>
</defs>
</svg>
