<svg width="200" height="35" viewBox="0 0 200 35" fill="none" xmlns="http://www.w3.org/2000/svg">
<g clip-path="url(#clip0_444_45108)">
<path d="M17.1945 25.1895L13.52 27.181L12.3651 24.6305C11.1402 26.1328 9.32045 27.216 7.01072 27.216C2.53125 27.181 0.186523 23.5124 0.186523 17.7824C0.186523 11.5982 2.9512 8.24408 7.32569 8.24408C9.39043 8.24408 11.0003 9.01276 12.0501 10.4452V1.32617H15.8297V22.4293L17.1945 25.1895ZM12.0501 22.7088V12.9958C11.0702 12.1922 9.84539 11.703 8.55053 11.703C5.75085 11.703 4.10607 13.8343 4.10607 17.8173C4.10607 21.6606 5.64588 23.757 8.48055 23.757C9.74039 23.7919 11.0352 23.3727 12.0501 22.7088Z" fill="white"/>
<path d="M35.8824 18.1319H23.5641C23.809 21.3113 26.2937 23.4077 30.1783 23.4077C32.173 23.4077 34.3428 22.9884 35.7777 22.2197L34.5878 26.098C33.3629 26.7618 31.2981 27.1811 28.9534 27.1811C23.3541 27.1811 19.6445 23.3727 19.6445 17.6078C19.6445 11.8079 23.1791 8.24414 28.7784 8.24414C33.4329 8.24414 36.3375 10.8995 36.3375 15.1621C36.3375 16.1404 36.1627 17.2934 35.8824 18.1319ZM23.774 15.5115H32.663C32.488 12.7862 31.1931 11.4935 28.7784 11.4935C26.1537 11.5284 24.334 13.0308 23.774 15.5115Z" fill="white"/>
<path d="M45.0515 26.7277L37.9473 8.69922H42.1118L46.7313 21.3122L47.2563 22.8844H47.3963L47.9213 21.3122L52.5405 8.69922H56.635L49.5311 26.7277H45.0515Z" fill="white"/>
<path d="M68.9528 8.73234H77.1071L76.5821 11.6323H68.4278L65.5584 27.844C64.7535 32.386 61.7086 34.0631 57.4741 34.0631C55.5144 34.0631 54.6047 33.7836 53.6247 33.574L53.5547 30.6391C54.5347 30.8138 55.6895 30.9186 57.2993 30.9186C59.854 30.9186 61.5338 29.9054 61.9189 27.7741L64.7883 11.5973H59.1191L59.6441 8.69743H65.2785L65.5584 7.02036C66.3633 2.5831 69.373 0.871094 73.5723 0.871094C75.5672 0.871094 76.5821 1.15061 77.457 1.36024L77.5269 4.365C76.5469 4.12042 75.3921 4.0156 73.7823 4.0156C71.2628 4.0156 69.583 5.02882 69.1979 7.1601L68.9528 8.73234Z" fill="white"/>
<path d="M93.94 18.1319H81.5864C81.8315 21.3113 84.3162 23.4077 88.2008 23.4077C90.1953 23.4077 92.3653 22.9884 93.8 22.2197L92.6101 26.098C91.3853 26.7618 89.3205 27.1811 86.9757 27.1811C81.3765 27.1811 77.667 23.3727 77.667 17.6078C77.667 11.8079 81.2017 8.24414 86.8009 8.24414C91.4553 8.24414 94.3599 10.8995 94.3599 15.1621C94.395 16.1404 94.2199 17.2934 93.94 18.1319ZM81.7963 15.5115H90.6855C90.5104 12.7862 89.2157 11.4935 86.8009 11.4935C84.2111 11.5284 82.3913 13.0308 81.7963 15.5115Z" fill="white"/>
<path d="M98 25.6431L97.7549 21.5902C99.3647 22.7082 102.304 23.6865 105.349 23.6865C107.694 23.6865 109.374 22.9528 109.374 21.3107C109.374 17.8866 98.1399 21.0661 98.1399 14.1132C98.1399 10.8639 100.589 8.13867 106.399 8.13867C109.969 8.13867 112.663 9.01214 112.663 11.1784C112.663 11.8422 112.383 12.4012 112.103 12.9253C110.564 12.1916 108.149 11.6675 106.154 11.6675C103.354 11.6675 101.885 12.7157 101.885 13.8686C101.885 16.9083 113.258 14.253 113.258 21.0312C113.258 24.8395 109.899 27.1804 104.929 27.1804C101.534 27.1804 99.0148 26.0973 98 25.6431Z" fill="white"/>
<path d="M132.681 22.918L131.91 26.4469C131.001 26.8312 129.181 27.2155 127.501 27.2155C122.986 27.2155 121.097 24.8746 121.097 21.5904V11.8773H115.987V8.69789H121.097V3.77148H124.877V8.69789H132.156V11.8773H124.877V20.4024C124.877 22.7434 126.101 23.7915 128.236 23.7915C129.426 23.7915 131.666 23.512 132.681 22.918Z" fill="white"/>
<path d="M151.315 26.0608C155.169 26.0608 157.133 23.1267 157.133 17.0597C157.133 10.9927 155.169 8.05859 151.315 8.05859C147.436 8.05859 145.472 10.9927 145.472 17.0597C145.472 23.1267 147.436 26.0608 151.315 26.0608ZM151.315 24.2208C148.828 24.2208 147.535 21.9083 147.535 17.0597C147.535 12.211 148.828 9.87373 151.315 9.87373C153.752 9.87373 155.045 12.1862 155.045 17.0348C155.045 21.9083 153.752 24.2208 151.315 24.2208ZM161.651 25.7375V12.2359H161.75L162.422 14.3743L164.784 20.6651H165.406L167.693 14.3743L168.34 12.2359H168.439V25.7375H170.378V8.38184H168.24L165.555 16.1397L165.207 17.5073H165.132L164.759 16.1397L161.949 8.38184H159.811V25.7375H161.651ZM178.7 26.0608C182.927 26.0608 184.618 23.6986 184.618 21.0629C184.618 17.6564 182.107 16.7116 179.77 15.891C177.88 15.2694 176.065 14.6478 176.065 12.7829C176.065 10.7937 177.979 9.99806 179.993 9.99806C181.237 9.99806 182.48 10.2467 183.673 10.9181C183.847 10.6445 184.046 10.3213 184.046 9.8986C184.046 8.75481 182.007 8.05859 179.844 8.05859C176.015 8.08346 174.076 10.197 174.076 12.8824C174.076 15.9905 176.537 16.8608 178.825 17.6813C180.764 18.4273 182.579 19.1732 182.579 21.2867C182.579 22.9278 181.311 24.2208 178.601 24.2208C176.736 24.1959 175.02 23.624 173.479 22.53L173.653 24.7181C174.399 25.1408 176.015 26.0608 178.7 26.0608ZM191.846 16.7613L198.236 8.38184H195.999L189.832 16.5873V8.38184H187.843V25.7375H189.832V17.2337L196.471 25.7375H198.883L191.846 16.7613Z" fill="white"/>
</g>
<defs>
<clipPath id="clip0_444_45108">
<rect width="199.985" height="33.39" fill="white" transform="translate(0.0078125 0.804688)"/>
</clipPath>
</defs>
</svg>
