<svg width="403" height="403" viewBox="0 0 403 403" fill="none" xmlns="http://www.w3.org/2000/svg">
<path d="M201.321 201.356L400.643 201.356V2.00006L201.321 2.00006L201.321 201.356Z" stroke="#62A1FB" stroke-width="3.31985" stroke-miterlimit="10"/>
<path d="M300.982 201.356C356.023 201.356 400.642 156.729 400.642 101.678C400.642 46.6274 356.023 2 300.982 2C245.941 2 201.321 46.6274 201.321 101.678C201.321 156.729 245.941 201.356 300.982 201.356Z" stroke="#62A1FB" stroke-width="3.31985" stroke-miterlimit="10"/>
<path d="M400.642 101.678H201.321" stroke="#62A1FB" stroke-width="3.31985" stroke-miterlimit="10"/>
<path d="M300.981 2V201.356" stroke="#62A1FB" stroke-width="3.31985" stroke-miterlimit="10"/>
<path d="M2.00012 400.713H201.321L201.321 201.357L2.00012 201.357L2.00012 400.713Z" stroke="#62A1FB" stroke-width="3.31985" stroke-miterlimit="10"/>
<path d="M101.66 400.713C156.702 400.713 201.321 356.085 201.321 301.035C201.321 245.984 156.702 201.356 101.66 201.356C46.6194 201.356 2 245.984 2 301.035C2 356.085 46.6194 400.713 101.66 400.713Z" stroke="#62A1FB" stroke-width="3.31985" stroke-miterlimit="10"/>
<path d="M201.321 301.034H2" stroke="#62A1FB" stroke-width="3.31985" stroke-miterlimit="10"/>
<path d="M101.66 201.356V400.713" stroke="#62A1FB" stroke-width="3.31985" stroke-miterlimit="10"/>
<path d="M201.321 400.713H400.643V201.357L201.321 201.357L201.321 400.713Z" stroke="#62A1FB" stroke-width="3.31985" stroke-miterlimit="10"/>
<path d="M300.982 400.713C356.023 400.713 400.642 356.085 400.642 301.035C400.642 245.984 356.023 201.356 300.982 201.356C245.941 201.356 201.321 245.984 201.321 301.035C201.321 356.085 245.941 400.713 300.982 400.713Z" stroke="#62A1FB" stroke-width="3.31985" stroke-miterlimit="10"/>
<path d="M400.642 301.034H201.321" stroke="#62A1FB" stroke-width="3.31985" stroke-miterlimit="10"/>
<path d="M300.981 201.356V400.713" stroke="#62A1FB" stroke-width="3.31985" stroke-miterlimit="10"/>
</svg>
