<svg width="166" height="31" viewBox="0 0 166 31" fill="none" xmlns="http://www.w3.org/2000/svg">
<path d="M4.58476 15.3398L21.9059 8.16525C25.0945 6.84447 26.6087 3.18887 25.2879 0.000138469L7.96689 7.17473C4.77816 8.49551 3.26397 12.1512 4.58476 15.3398Z" fill="#C11718"/>
<path d="M17.7954 20.0139C20.984 18.6931 22.4983 15.0375 21.1775 11.8488L3.85642 19.0234C0.667809 20.3441 -0.846376 23.9999 0.474406 27.1885L17.7954 20.0139Z" fill="#E03713"/>
<path d="M32.4629 17.3205L9.36816 26.8866C10.6891 30.0754 14.3447 31.5895 17.5333 30.2688L29.0808 25.4857C32.2695 24.1649 33.7836 20.5093 32.4629 17.3205Z" fill="#ED6A25"/>
<path d="M52.6988 16.7772C52.5877 13.6314 50.6276 11.9461 48.2977 11.9461C45.5608 11.9461 43.3417 13.6314 42.787 16.7772H52.6988ZM48.3347 9.06256C53.5864 9.06256 56.3974 13.0323 56.3974 17.9382C56.3974 18.4252 56.2863 19.4361 56.2863 19.4361H42.639C42.8609 23.4809 45.7457 25.7653 49.0743 25.7653C52.292 25.7653 54.5481 23.5557 54.5481 23.5557L56.1014 26.1398C56.1014 26.1398 53.3276 28.9111 48.8894 28.9111C42.9719 28.9111 38.9404 24.6043 38.9404 18.9868C38.9404 12.9573 43.0088 9.06256 48.3347 9.06256" fill="#1B1B1B"/>
<path d="M59.0968 12.4333H56.7666V9.5121H59.0968V8.87562C59.0968 2.62142 63.7937 1.83511 66.1608 1.83511C66.9746 1.83511 67.5293 1.94729 67.5293 1.94729V5.05569C67.5293 5.05569 67.1595 4.98091 66.6048 4.98091C65.1994 4.98091 62.6843 5.43015 62.6843 8.9504V9.5121H67.1226V12.4333H62.6843V28.4619H59.0968V12.4333Z" fill="#1B1B1B"/>
<path d="M68.2686 12.4333H65.9385V9.5121H68.2686V8.87562C68.2686 2.62142 72.9656 1.83511 75.3327 1.83511C76.1464 1.83511 76.7012 1.94729 76.7012 1.94729V5.05569C76.7012 5.05569 76.3314 4.98091 75.7766 4.98091C74.3713 4.98091 71.8562 5.43015 71.8562 8.9504V9.5121H76.2944V12.4333H71.8562V28.4619H68.2686V12.4333Z" fill="#1B1B1B"/>
<path d="M89.6079 16.7772C89.4969 13.6314 87.5368 11.9461 85.2067 11.9461C82.4698 11.9461 80.2509 13.6314 79.6959 16.7772H89.6079ZM85.2436 9.06256C90.4955 9.06256 93.3063 13.0323 93.3063 17.9382C93.3063 18.4252 93.1955 19.4361 93.1955 19.4361H79.548C79.7701 23.4809 82.6549 25.7653 85.9835 25.7653C89.2009 25.7653 91.4573 23.5557 91.4573 23.5557L93.0103 26.1398C93.0103 26.1398 90.2368 28.9111 85.7986 28.9111C79.8808 28.9111 75.8496 24.6043 75.8496 18.9868C75.8496 12.9573 79.918 9.06256 85.2436 9.06256" fill="#1B1B1B"/>
<path d="M104.365 9.06283C106.621 9.06283 111.096 9.99898 111.096 13.2198V15.1672H107.841V14.1186C107.841 12.7703 105.733 12.1712 104.365 12.1712C100.703 12.1712 97.9661 14.9423 97.9661 18.9495C97.9661 23.2563 101.073 25.6906 104.549 25.6906C108.063 25.6906 110.356 23.0691 110.356 23.0691L111.909 25.6532C111.909 25.6532 109.247 28.9111 104.291 28.9111C98.41 28.9111 94.3047 24.6793 94.3047 18.9868C94.3047 13.4071 98.3362 9.06283 104.365 9.06283Z" fill="#1B1B1B"/>
<path d="M114.202 12.4331H111.761V9.51195H114.276V4.30662H117.789V9.51195H122.264V12.4331H117.789V21.1216C117.789 24.9038 120.378 25.3908 121.747 25.3908C122.264 25.3908 122.597 25.316 122.597 25.316V28.5365C122.597 28.5365 122.116 28.6113 121.34 28.6113C118.973 28.6113 114.202 27.8624 114.202 21.5334V12.4331Z" fill="#1B1B1B"/>
<path d="M125.444 2.02234H128.662V5.80461H125.444V2.02234ZM125.37 13.4445C125.37 12.8828 125.074 12.6208 124.556 12.6208H123.04V9.51209H126.554C128.218 9.51209 128.921 10.2239 128.921 11.909V24.5295C128.921 25.0915 129.217 25.3535 129.734 25.3535H131.25V28.4619H127.737C126.073 28.4619 125.37 27.7504 125.37 26.065V13.4445V13.4445Z" fill="#1B1B1B"/>
<path d="M131.695 13.3687C131.473 12.807 131.14 12.6198 130.549 12.6198H130.179V9.51139H132.028C133.692 9.51139 134.321 9.92324 134.876 11.4214L138.907 22.3192C139.277 23.3678 139.573 24.7908 139.573 24.7908H139.647C139.647 24.7908 139.942 23.3678 140.312 22.3192L144.307 11.4214C144.862 9.92324 145.527 9.51139 147.155 9.51139H148.893V12.6198H148.523C147.894 12.6198 147.524 12.807 147.303 13.3687L141.607 28.4609H137.465L131.695 13.3687Z" fill="#1B1B1B"/>
<path d="M161.467 16.7772C161.356 13.6314 159.396 11.9461 157.066 11.9461C154.329 11.9461 152.11 13.6314 151.555 16.7772H161.467ZM157.103 9.06256C162.355 9.06256 165.166 13.0323 165.166 17.9382C165.166 18.4252 165.055 19.4361 165.055 19.4361H151.407C151.629 23.4809 154.514 25.7653 157.843 25.7653C161.06 25.7653 163.316 23.5557 163.316 23.5557L164.87 26.1398C164.87 26.1398 162.096 28.9111 157.658 28.9111C151.74 28.9111 147.709 24.6043 147.709 18.9868C147.709 12.9573 151.777 9.06256 157.103 9.06256" fill="#1B1B1B"/>
</svg>
