<svg width="1014" height="171" viewBox="0 0 1014 171" fill="none" xmlns="http://www.w3.org/2000/svg">
<path d="M87.1049 124.41L68.4815 134.504L62.6284 121.577C56.4207 129.191 47.1977 134.681 35.4915 134.681C12.7888 134.504 0.905273 115.911 0.905273 86.8701C0.905273 55.5273 14.9171 38.528 37.0878 38.528C47.5523 38.528 55.7112 42.4238 61.0321 49.6838V3.4668H80.1877V110.421L87.1049 124.41ZM61.0321 111.838V62.6106C56.0659 58.5378 49.8581 56.0586 43.2956 56.0586C29.1063 56.0586 20.7703 66.8603 20.7703 87.0471C20.7703 106.526 28.5743 117.15 42.9409 117.15C49.326 117.327 55.8886 115.202 61.0321 111.838Z" fill="white"/>
<path d="M181.819 88.6421H119.387C120.629 104.756 133.222 115.381 152.909 115.381C163.019 115.381 174.016 113.256 181.288 109.36L175.257 129.016C169.05 132.38 158.585 134.505 146.702 134.505C118.323 134.505 99.5225 115.204 99.5225 85.986C99.5225 56.5912 117.436 38.5293 145.815 38.5293C169.404 38.5293 184.125 51.9873 184.125 73.5907C184.125 78.5489 183.24 84.3924 181.819 88.6421ZM120.451 75.3615H165.502C164.615 61.5493 158.053 54.9976 145.815 54.9976C132.512 55.1745 123.289 62.789 120.451 75.3615Z" fill="white"/>
<path d="M228.29 132.208L192.284 40.8359H213.391L236.803 104.761L239.464 112.729H240.174L242.834 104.761L266.245 40.8359H286.997L250.993 132.208H228.29Z" fill="white"/>
<path d="M349.425 41.0024H390.753L388.092 55.6999H346.764L332.222 137.864C328.142 160.884 312.71 169.383 291.249 169.383C281.317 169.383 276.706 167.967 271.739 166.904L271.385 152.03C276.352 152.915 282.204 153.446 290.363 153.446C303.311 153.446 311.825 148.311 313.776 137.509L328.319 55.5228H299.586L302.247 40.8254H330.803L332.222 32.3258C336.301 9.83693 351.555 1.16016 372.838 1.16016C382.948 1.16016 388.092 2.57677 392.526 3.63924L392.88 18.8679C387.913 17.6283 382.061 17.0971 373.902 17.0971C361.132 17.0971 352.619 22.2323 350.667 33.034L349.425 41.0024Z" fill="white"/>
<path d="M476.065 88.6421H413.455C414.697 104.756 427.29 115.381 446.978 115.381C457.087 115.381 468.085 113.256 475.356 109.36L469.325 129.016C463.118 132.38 452.653 134.505 440.769 134.505C412.391 134.505 393.591 115.204 393.591 85.986C393.591 56.5912 411.505 38.5293 439.883 38.5293C463.472 38.5293 478.193 51.9873 478.193 73.5907C478.372 78.5489 477.484 84.3924 476.065 88.6421ZM414.519 75.3615H459.571C458.684 61.5493 452.122 54.9976 439.883 54.9976C426.757 55.1745 417.535 62.789 414.519 75.3615Z" fill="white"/>
<path d="M496.642 126.71L495.399 106.169C503.558 111.835 518.457 116.793 533.888 116.793C545.771 116.793 554.285 113.075 554.285 104.752C554.285 87.3986 497.351 103.513 497.351 68.2744C497.351 51.8061 509.766 37.9941 539.209 37.9941C557.3 37.9941 570.957 42.421 570.957 53.3999C570.957 56.7642 569.539 59.5975 568.12 62.2537C560.316 58.535 548.078 55.8789 537.967 55.8789C523.779 55.8789 516.33 61.1911 516.33 67.0347C516.33 82.4404 573.973 68.9826 573.973 103.336C573.973 122.637 556.946 134.501 531.76 134.501C514.554 134.501 501.785 129.012 496.642 126.71Z" fill="white"/>
<path d="M672.409 112.9L668.506 130.784C663.895 132.732 654.673 134.68 646.159 134.68C623.277 134.68 613.7 122.816 613.7 106.171V56.9432H587.805V40.8292H613.7V15.8613H632.857V40.8292H669.748V56.9432H632.857V100.15C632.857 112.014 639.064 117.326 649.884 117.326C655.913 117.326 667.266 115.91 672.409 112.9Z" fill="white"/>
<path d="M766.852 128.826C786.385 128.826 796.341 113.956 796.341 83.2071C796.341 52.4582 786.385 37.5879 766.852 37.5879C747.193 37.5879 737.237 52.4582 737.237 83.2071C737.237 113.956 747.193 128.826 766.852 128.826ZM766.852 119.501C754.25 119.501 747.697 107.781 747.697 83.2071C747.697 58.6332 754.25 46.7873 766.852 46.7873C779.202 46.7873 785.755 58.5072 785.755 83.081C785.755 107.781 779.202 119.501 766.852 119.501ZM819.237 127.188V58.7592H819.741L823.143 69.5969L835.115 101.48H838.266L849.859 69.5969L853.136 58.7592H853.64V127.188H863.47V39.2261H852.632L839.022 78.5443L837.257 85.4754H836.879L834.989 78.5443L820.749 39.2261H809.911V127.188H819.237ZM905.647 128.826C927.07 128.826 935.639 116.854 935.639 103.496C935.639 86.2315 922.911 81.4428 911.065 77.2841C901.488 74.1336 892.288 70.9831 892.288 61.5316C892.288 51.4501 901.992 47.4174 912.2 47.4174C918.501 47.4174 924.802 48.6776 930.851 52.0802C931.733 50.6939 932.741 49.0557 932.741 46.9134C932.741 41.1164 922.407 37.5879 911.443 37.5879C892.036 37.7139 882.207 48.4256 882.207 62.0357C882.207 77.7882 894.683 82.1989 906.277 86.3575C916.106 90.1381 925.306 93.9187 925.306 104.63C925.306 112.948 918.879 119.501 905.142 119.501C895.691 119.375 886.996 116.476 879.182 110.931L880.065 122.021C883.845 124.163 892.036 128.826 905.647 128.826ZM972.271 81.6948L1004.66 39.2261H993.317L962.064 80.8127V39.2261H951.982V127.188H962.064V84.0892L995.711 127.188H1007.94L972.271 81.6948Z" fill="#A7CAFD"/>
</svg>
