<svg width="137" height="46" viewBox="0 0 137 46" fill="none" xmlns="http://www.w3.org/2000/svg">
<g clip-path="url(#clip0_604_69504)">
<path d="M45.5997 16.6185H42.3337V3.30924H29.2139V0H45.5997V16.6185Z" fill="#0886C5"/>
<path d="M39.0836 19.9321V28.924C39.0836 35.7031 39.0836 39.4381 37.4723 41.0485C35.861 42.659 32.4208 42.6871 25.5164 42.6871H17.0998C10.4133 42.6871 6.73148 42.6871 5.14396 41.0525C3.55645 39.418 3.53269 35.924 3.53269 28.92V20.3859C3.53269 13.6068 3.53269 9.87182 5.14 8.26138C6.74732 6.65094 10.1955 6.62282 17.0998 6.62282H25.9638V3.30957H17.0998C1.05046 3.30957 0.266602 4.11278 0.266602 20.3859V28.924C0.266602 45.2052 1.05838 46.0003 17.0998 46.0003H25.5164C41.5579 46.0003 42.3497 45.1971 42.3497 28.9321V19.9321H39.0836Z" fill="#1E1E1C"/>
<path d="M50.6198 8.59822C50.5842 7.69862 50.6753 6.795 50.889 5.9195C51.3879 4.36529 52.6943 3.54199 54.4125 3.54199C56.1306 3.54199 57.4371 4.36529 57.9359 5.9195C58.1497 6.795 58.2407 7.69862 58.2051 8.59822C58.2407 9.50183 58.1497 10.4054 57.9359 11.2809C57.4371 12.8352 56.1306 13.6585 54.4125 13.6585C52.6943 13.6585 51.3879 12.8352 50.889 11.2809C50.6753 10.4054 50.5842 9.50183 50.6198 8.59822ZM56.0871 8.59822C56.1187 7.89541 56.0673 7.18858 55.9327 6.49782C55.6239 5.64641 54.6935 5.20866 53.8542 5.52191C53.4069 5.68657 53.0545 6.044 52.8922 6.49782C52.7576 7.18858 52.7062 7.89541 52.7378 8.59822C52.7022 9.30103 52.7497 10.0038 52.8764 10.6946C53.1852 11.546 54.1155 11.9838 54.9548 11.6705C55.4022 11.5058 55.7545 11.1484 55.9168 10.6946C56.0514 10.0038 56.1029 9.30103 56.0712 8.59822H56.0871Z" fill="#1E1E1C"/>
<path d="M61.9854 13.5058C61.8864 13.5058 61.8429 13.4656 61.8429 13.3612V5.67446C61.8468 5.6343 61.8191 5.59414 61.7756 5.59013C61.7716 5.59013 61.7637 5.59013 61.7598 5.59013H59.329C59.23 5.59013 59.1904 5.54595 59.1904 5.44555V3.86723C59.1904 3.76683 59.23 3.72266 59.329 3.72266H66.455C66.554 3.72266 66.5975 3.76683 66.5975 3.86723V5.47366C66.5975 5.57406 66.554 5.61824 66.455 5.61824H64.0124C63.9728 5.61021 63.9332 5.63832 63.9253 5.6825C63.9253 5.69053 63.9253 5.69856 63.9253 5.70258V13.3532C63.9253 13.4576 63.8857 13.4978 63.7828 13.4978L61.9854 13.5058Z" fill="#1E1E1C"/>
<path d="M68.2685 13.5063C68.1656 13.5063 68.126 13.4662 68.126 13.3618V3.8678C68.126 3.76739 68.1656 3.72322 68.2685 3.72322H70.0698C70.1688 3.72322 70.2123 3.76739 70.2123 3.8678V7.52643C70.2123 7.58265 70.24 7.61077 70.2994 7.61077H70.9803C71.5029 7.62282 71.9701 7.27342 72.1165 6.76338L72.7262 5.23326C73.1815 4.0686 73.807 3.66699 74.9432 3.66699H75.537C75.636 3.66699 75.6796 3.70715 75.6796 3.80755V5.36579C75.6796 5.45012 75.636 5.4943 75.537 5.4943H75.4103C74.9788 5.44209 74.575 5.72723 74.4721 6.15695L74.0049 7.36177C73.902 7.80755 73.613 8.18506 73.2132 8.39792V8.45816C73.6724 8.61478 74.0247 8.99229 74.1514 9.46619L74.7334 11.0365C74.8046 11.4662 75.2005 11.7634 75.6281 11.6991H75.7864C75.8854 11.6991 75.929 11.7433 75.929 11.8276V13.4341C75.929 13.5345 75.8854 13.5786 75.7864 13.5786H75.1016C73.9535 13.5786 73.3003 13.1449 72.8608 11.9722L72.2472 10.3658C72.0809 9.79952 71.5425 9.43406 70.9645 9.49029H70.2994C70.2559 9.48627 70.2163 9.5184 70.2123 9.56257C70.2123 9.56659 70.2123 9.57462 70.2123 9.57864V13.3658C70.2123 13.4702 70.1688 13.5104 70.0698 13.5104H68.2685V13.5063Z" fill="#1E1E1C"/>
<path d="M77.79 13.5065C77.6871 13.5065 77.6475 13.4664 77.6475 13.3619V3.86797C77.6475 3.76757 77.6871 3.7234 77.79 3.7234H81.5391C82.4377 3.67119 83.3206 3.98444 83.9936 4.58685C84.6072 5.18123 84.9397 6.01657 84.9041 6.87601C84.9358 7.73143 84.6032 8.56275 83.9936 9.15311C83.3206 9.75552 82.4377 10.0688 81.5391 10.0206H79.8209C79.7615 10.0206 79.7338 10.0487 79.7338 10.1049V13.374C79.7338 13.4784 79.6902 13.5186 79.5913 13.5186L77.79 13.5065ZM81.4084 8.17721C82.2754 8.17721 82.8178 7.67119 82.8178 6.86396C82.8178 6.05673 82.2754 5.54267 81.4084 5.54267H79.8249C79.7655 5.54267 79.7378 5.57078 79.7378 5.62701V8.08886C79.7298 8.12902 79.7576 8.16918 79.7971 8.17721C79.8051 8.17721 79.813 8.17721 79.8249 8.17721H81.4084Z" fill="#1E1E1C"/>
<path d="M86.7411 13.5058C86.6422 13.5058 86.5986 13.4656 86.5986 13.3612V3.86723C86.5986 3.76683 86.6422 3.72266 86.7411 3.72266H88.5424C88.6414 3.72266 88.685 3.76683 88.685 3.86723V7.15237C88.685 7.2086 88.7127 7.23671 88.7721 7.23671H90.4902C92.6478 7.23671 93.9107 8.47768 93.9107 10.3652C93.9107 12.2528 92.6637 13.5058 90.4902 13.5058H86.7411ZM90.3754 11.6785C91.2978 11.6785 91.8244 11.2006 91.8244 10.3532C91.8244 9.50579 91.2978 9.03993 90.3754 9.03993H88.7919C88.7523 9.03189 88.7127 9.06001 88.7048 9.10017C88.7048 9.1082 88.7048 9.11623 88.7048 9.12828V11.5901C88.6968 11.6303 88.7246 11.6704 88.7641 11.6785C88.7721 11.6785 88.78 11.6785 88.7919 11.6785H90.3754ZM95.1261 13.5058C95.0232 13.5058 94.9836 13.4656 94.9836 13.3612V3.86723C94.9836 3.76683 95.0232 3.72266 95.1261 3.72266H96.9274C97.0264 3.72266 97.0699 3.76683 97.0699 3.86723V13.3532C97.0699 13.4576 97.0264 13.4978 96.9274 13.4978L95.1261 13.5058Z" fill="#1E1E1C"/>
<path d="M101.389 13.5058C101.29 13.5058 101.246 13.4656 101.246 13.3612V5.67446C101.25 5.6343 101.223 5.59414 101.179 5.59013C101.175 5.59013 101.167 5.59013 101.163 5.59013H98.7206C98.6217 5.59013 98.5781 5.54595 98.5781 5.44555V3.86723C98.5781 3.76683 98.6217 3.72266 98.7206 3.72266H105.847C105.946 3.72266 105.989 3.76683 105.989 3.86723V5.47366C105.989 5.57406 105.946 5.61824 105.847 5.61824H103.404C103.364 5.61021 103.325 5.63832 103.317 5.6825C103.317 5.69053 103.317 5.69856 103.317 5.70258V13.3532C103.317 13.4576 103.277 13.4978 103.178 13.4978L101.389 13.5058Z" fill="#1E1E1C"/>
<path d="M109.319 3.86791C109.335 3.77956 109.414 3.7153 109.505 3.72333H111.294C111.381 3.7153 111.461 3.77956 111.476 3.86791L114.754 13.3539C114.786 13.4583 114.754 13.4984 114.655 13.4984H112.811C112.72 13.5065 112.64 13.4462 112.624 13.3539L112.07 11.643H108.693L108.151 13.3539C108.139 13.4422 108.06 13.5065 107.969 13.4984H106.108C106.009 13.4984 105.981 13.4583 106.009 13.3539L109.319 3.86791ZM109.263 9.85988H111.492L110.4 6.41008H110.356L109.263 9.85988Z" fill="#1E1E1C"/>
<path d="M115.799 13.5579C115.7 13.5579 115.656 13.5137 115.656 13.4133V11.8069C115.656 11.7226 115.7 11.6784 115.799 11.6784H115.997C116.369 11.7105 116.717 11.4856 116.848 11.1282L117.244 10.1804C117.374 9.83101 117.612 9.53784 117.921 9.33704V9.27679C116.785 9.0037 115.961 8.1523 115.961 6.6543C115.937 5.86314 116.246 5.10009 116.812 4.5539C117.438 3.97559 118.261 3.67037 119.108 3.7025H123.087C123.15 3.69447 123.206 3.74266 123.214 3.80691C123.214 3.81495 123.214 3.82298 123.214 3.83101V13.3531C123.214 13.4575 123.17 13.4977 123.087 13.4977H121.27C121.167 13.4977 121.127 13.4575 121.127 13.3531V9.93945C121.127 9.88322 121.1 9.85511 121.04 9.85511H120.316C119.762 9.85511 119.481 9.96756 119.211 10.6182L118.669 11.9716C118.214 13.1242 117.576 13.578 116.424 13.578L115.799 13.5579ZM121.052 8.05189C121.112 8.05189 121.139 8.02378 121.139 7.96756V5.63422C121.147 5.59406 121.12 5.5539 121.08 5.54587C121.072 5.54587 121.064 5.54587 121.052 5.54587H119.334C118.697 5.46957 118.123 5.93543 118.047 6.578C118.04 6.65029 118.036 6.72258 118.043 6.79888C117.996 7.44547 118.471 8.00772 119.108 8.05591C119.184 8.05993 119.259 8.05993 119.334 8.05189H121.052Z" fill="#1E1E1C"/>
<path d="M51.0156 26.4736C50.9126 26.4736 50.873 26.4294 50.873 26.329V16.819C50.873 16.7186 50.9126 16.6744 51.0156 16.6744H52.706C52.805 16.6663 52.896 16.7266 52.9317 16.819L55.3704 22.4093H55.4258L57.8288 16.819C57.8605 16.7226 57.9555 16.6623 58.0545 16.6744H59.7251C59.8241 16.6744 59.8677 16.7186 59.8677 16.819V26.329C59.8677 26.4294 59.8241 26.4736 59.7251 26.4736H58.102C58.003 26.4736 57.9595 26.4294 57.9595 26.329V20.8109H57.904L56.1146 24.9435C56.079 25.0599 55.9681 25.1362 55.8454 25.1322H54.8636C54.7409 25.1362 54.634 25.0599 54.5944 24.9435L52.805 20.8109H52.7496V26.329C52.7496 26.4294 52.706 26.4736 52.607 26.4736H51.0156Z" fill="#1E1E1C"/>
<path d="M61.8039 21.5738C61.7643 20.6742 61.8554 19.7706 62.0731 18.8951C62.568 17.3369 63.8744 16.5176 65.5966 16.5176C67.3187 16.5176 68.6212 17.3208 69.116 18.8951C69.3338 19.7706 69.4248 20.6742 69.3852 21.5738C69.4248 22.4734 69.3338 23.377 69.116 24.2525C68.6212 25.8107 67.3147 26.63 65.5966 26.63C63.8784 26.63 62.568 25.8268 62.0731 24.2525C61.8554 23.377 61.7643 22.4734 61.8039 21.5738ZM67.2712 21.5738C67.3028 20.867 67.2474 20.1601 67.1128 19.4694C66.808 18.618 65.8816 18.1802 65.0423 18.4895C64.591 18.6541 64.2387 19.0156 64.0763 19.4694C63.9417 20.1601 63.8863 20.867 63.918 21.5738C63.8863 22.2806 63.9417 22.9875 64.0763 23.6782C64.3812 24.5296 65.3076 24.9674 66.1468 24.6581C66.5982 24.4935 66.9505 24.132 67.1128 23.6782C67.2474 22.9875 67.3028 22.2806 67.2712 21.5738Z" fill="#1E1E1C"/>
<path d="M71.4635 26.474C71.3804 26.474 71.3369 26.4298 71.3369 26.3294V16.8073C71.3289 16.7431 71.3725 16.6828 71.4358 16.6748C71.4438 16.6748 71.4556 16.6748 71.4635 16.6748H77.7978C77.8968 16.6748 77.9403 16.719 77.9403 16.8073V18.3776C77.9403 18.478 77.8968 18.5222 77.7978 18.5222H73.5103C73.4509 18.5222 73.4232 18.5503 73.4232 18.6065V20.3334C73.4192 20.3776 73.4509 20.4178 73.4945 20.4218C73.4984 20.4218 73.5063 20.4218 73.5103 20.4218H75.3987C76.238 20.3776 77.0614 20.6788 77.683 21.2571C78.261 21.8234 78.5737 22.6146 78.5381 23.4298C78.5698 24.2491 78.261 25.0483 77.683 25.6226C77.0614 26.2009 76.238 26.5021 75.3987 26.4579L71.4635 26.474ZM75.2007 24.6708C75.8619 24.6708 76.4003 24.1246 76.4003 23.4539C76.4003 22.7832 75.8619 22.2371 75.2007 22.2371H73.5103C73.4707 22.229 73.4311 22.2571 73.4232 22.2973C73.4232 22.3053 73.4232 22.3134 73.4232 22.3254V24.5865C73.4232 24.6427 73.4509 24.6708 73.5103 24.6708H75.2007Z" fill="#1E1E1C"/>
<path d="M80.5016 26.4739C80.4185 26.4739 80.375 26.4297 80.375 26.3293V16.8072C80.367 16.743 80.4106 16.6827 80.4739 16.6747C80.4818 16.6747 80.4937 16.6747 80.5016 16.6747H82.3346C82.3979 16.6667 82.4534 16.7149 82.4613 16.7791C82.4613 16.7872 82.4613 16.7992 82.4613 16.8072V22.8313H82.5048L86.0283 16.8072C86.0678 16.7349 86.1431 16.6908 86.2262 16.6908H87.8889C87.9523 16.6827 88.0077 16.7309 88.0156 16.7952C88.0156 16.8032 88.0156 16.8153 88.0156 16.8233V26.3293C88.0156 26.4297 87.9721 26.4739 87.8889 26.4739H86.0718C85.9689 26.4739 85.9293 26.4297 85.9293 26.3293V20.3052H85.8857L82.3623 26.3574C82.3227 26.4297 82.2475 26.4739 82.1644 26.4739H80.5016Z" fill="#1E1E1C"/>
<path d="M89.583 26.5302C89.484 26.5302 89.4404 26.486 89.4404 26.3856V24.7792C89.4404 24.6909 89.484 24.6467 89.583 24.6467H89.7651C90.252 24.6547 90.6994 24.3816 90.929 23.9479C91.214 23.474 91.3565 22.5945 91.3565 21.2973V16.8073C91.3565 16.719 91.4001 16.6748 91.4991 16.6748H97.8333C97.9204 16.6748 97.96 16.719 97.96 16.8073V26.3294C97.96 26.4298 97.9204 26.474 97.8491 26.474H96.0003C95.9172 26.474 95.8736 26.4298 95.8736 26.3294V18.6507C95.8776 18.6065 95.8459 18.5664 95.8024 18.5624C95.7984 18.5624 95.7905 18.5624 95.7865 18.5624H93.4864C93.4468 18.5583 93.4072 18.5865 93.4033 18.6306C93.4033 18.6387 93.4033 18.6467 93.4033 18.6507V21.4298C93.4033 23.2893 93.146 24.5985 92.6115 25.3776C92.0771 26.1607 91.1744 26.6025 90.2362 26.5302H89.583Z" fill="#1E1E1C"/>
<path d="M100.311 26.474C100.209 26.474 100.169 26.4298 100.169 26.3294V16.8194C100.169 16.719 100.209 16.6748 100.311 16.6748H102.113C102.212 16.6748 102.255 16.719 102.255 16.8194V20.1045C102.247 20.1447 102.275 20.1848 102.315 20.1929C102.323 20.1929 102.33 20.1929 102.342 20.1929H104.064C106.222 20.1929 107.485 21.4298 107.485 23.3174C107.485 25.2049 106.238 26.474 104.064 26.474H100.311ZM103.946 24.6427C104.856 24.6427 105.395 24.1407 105.395 23.2893C105.395 22.4379 104.868 22.0081 103.946 22.0081H102.342C102.283 22.0081 102.255 22.0362 102.255 22.0925V24.5583C102.255 24.6146 102.283 24.6427 102.342 24.6427H103.946Z" fill="#1E1E1C"/>
<path d="M109.351 26.474C109.252 26.474 109.208 26.4298 109.208 26.3294V16.8194C109.208 16.719 109.252 16.6748 109.351 16.6748H111.152C111.251 16.6748 111.294 16.719 111.294 16.8194V20.4941C111.29 20.5383 111.322 20.5784 111.366 20.5824C111.37 20.5824 111.377 20.5824 111.381 20.5824H114.549C114.588 20.5865 114.628 20.5583 114.632 20.5142C114.632 20.5061 114.632 20.4981 114.632 20.4941V16.8194C114.632 16.719 114.675 16.6748 114.774 16.6748H116.579C116.678 16.6748 116.722 16.719 116.722 16.8194V26.3294C116.722 26.4298 116.678 26.474 116.579 26.474H114.754C114.655 26.474 114.612 26.4298 114.612 26.3294V22.5543C114.616 22.5142 114.588 22.474 114.545 22.47C114.541 22.47 114.533 22.47 114.529 22.47H111.362C111.302 22.47 111.275 22.4981 111.275 22.5543V26.3294C111.275 26.4298 111.231 26.474 111.132 26.474H109.351Z" fill="#1E1E1C"/>
<path d="M121.552 16.8191C121.567 16.7307 121.647 16.6665 121.738 16.6745H123.527C123.614 16.6665 123.693 16.7307 123.709 16.8191L126.979 26.3291C127.007 26.4295 126.979 26.4737 126.88 26.4737H125.047C124.956 26.4817 124.877 26.4175 124.861 26.3291L124.311 24.6143H120.93L120.388 26.3291C120.372 26.4175 120.293 26.4817 120.206 26.4737H118.317C118.218 26.4737 118.19 26.4295 118.218 26.3291L121.552 16.8191ZM121.484 22.8151H123.713L122.62 19.3853H122.577L121.484 22.8151Z" fill="#1E1E1C"/>
<path d="M128.032 26.5299C127.933 26.5299 127.89 26.4858 127.89 26.3854V24.7789C127.89 24.6906 127.933 24.6464 128.032 24.6464H128.234C128.606 24.6785 128.955 24.4577 129.085 24.1002L129.481 23.1484C129.612 22.8111 129.837 22.5179 130.134 22.3131V22.2569C128.998 21.9838 128.155 21.1324 128.155 19.6344C128.135 18.8352 128.452 18.0681 129.026 17.5219C129.659 16.9356 130.499 16.6303 131.358 16.6705H135.317C135.38 16.6625 135.439 16.7067 135.447 16.7669C135.447 16.7789 135.447 16.791 135.447 16.803V26.3291C135.447 26.4295 135.404 26.4737 135.317 26.4737H133.499C133.4 26.4737 133.357 26.4295 133.357 26.3291V22.9155C133.357 22.8552 133.329 22.8271 133.274 22.8271H132.569C132.062 22.7548 131.583 23.0842 131.461 23.5902L130.922 24.9436C130.467 26.0962 129.83 26.55 128.677 26.55L128.032 26.5299ZM133.29 21.0279C133.345 21.0279 133.373 20.9998 133.373 20.9396V18.6063C133.377 18.5661 133.349 18.5259 133.305 18.5219C133.301 18.5219 133.294 18.5219 133.29 18.5219H131.571C130.78 18.5219 130.277 18.9516 130.277 19.7749C130.229 20.4215 130.712 20.9878 131.35 21.032C131.425 21.036 131.496 21.032 131.571 21.0279H133.29Z" fill="#1E1E1C"/>
<path d="M50.988 39.4456C50.9009 39.4456 50.8614 39.4014 50.8614 39.301V29.7789C50.8534 29.7187 50.893 29.6584 50.9524 29.6504C50.9643 29.6504 50.9762 29.6504 50.988 29.6504H58.1141C58.213 29.6504 58.2566 29.6906 58.2566 29.7789V39.301C58.2566 39.4014 58.213 39.4456 58.1299 39.4456H56.2969C56.2138 39.4456 56.1702 39.4014 56.1702 39.301V31.6223C56.1702 31.5661 56.1425 31.5379 56.0831 31.5379H53.0348C52.9754 31.5379 52.9477 31.5661 52.9477 31.6223V39.301C52.9477 39.4014 52.9041 39.4456 52.821 39.4456H50.988Z" fill="#1E1E1C"/>
<path d="M59.8124 39.5018C59.7135 39.5018 59.6699 39.4616 59.6699 39.3612V37.7548C59.6699 37.6665 59.7135 37.6223 59.8124 37.6223H59.9985C60.4815 37.6303 60.9289 37.3612 61.1624 36.9315C61.4475 36.4576 61.586 35.5781 61.586 34.2809V29.7789C61.586 29.6906 61.6296 29.6504 61.7285 29.6504H68.0628C68.1499 29.6504 68.1934 29.6906 68.1934 29.7789V39.301C68.1934 39.4014 68.1499 39.4456 68.0786 39.4456H66.2338C66.1467 39.4456 66.1031 39.4014 66.1031 39.301V31.6223C66.1071 31.5821 66.0794 31.542 66.0358 31.5379C66.0319 31.5379 66.0239 31.5379 66.02 31.5379H63.7199C63.6605 31.5379 63.6328 31.5661 63.6328 31.6223V34.3893C63.6328 36.2448 63.3794 37.558 62.841 38.3331C62.3065 39.1163 61.4039 39.558 60.4657 39.4857L59.8124 39.5018Z" fill="#1E1E1C"/>
<path d="M73.0388 29.7947C73.0546 29.7023 73.1338 29.6421 73.2249 29.6501H75.0143C75.1054 29.6421 75.1845 29.7064 75.1964 29.7947L78.4625 39.3007C78.4942 39.4011 78.4625 39.4453 78.3635 39.4453H76.5187C76.4276 39.4533 76.3484 39.3891 76.3326 39.3007L75.7784 37.6019H72.3935L71.8511 39.3168C71.8353 39.4052 71.7561 39.4694 71.669 39.4614H69.8083C69.7094 39.4614 69.6817 39.4172 69.7094 39.3168L73.0388 29.7947ZM72.9834 35.7867H75.2122L74.1196 32.357H74.076L72.9834 35.7867Z" fill="#1E1E1C"/>
<path d="M81.1829 39.4458C81.0839 39.4458 81.0404 39.4016 81.0404 39.3012V31.6225C81.0443 31.5823 81.0166 31.5422 80.9731 31.5382C80.9691 31.5382 80.9612 31.5382 80.9572 31.5382H78.5106C78.4156 31.5382 78.3721 31.494 78.3721 31.3936V29.7872C78.3721 29.6827 78.4156 29.6426 78.5106 29.6426H85.6564C85.7554 29.6426 85.799 29.6827 85.799 29.7872V31.3936C85.799 31.494 85.7554 31.5382 85.6564 31.5382H83.2138C83.1742 31.5301 83.1346 31.5582 83.1267 31.6024C83.1267 31.6105 83.1267 31.6185 83.1267 31.6225V39.3012C83.1267 39.4016 83.0871 39.4458 82.9842 39.4458H81.1829Z" fill="#1E1E1C"/>
<path d="M90.8738 39.6107C90.7867 39.6107 90.7432 39.5665 90.7432 39.4661V38.4059C90.7432 38.3456 90.7155 38.3175 90.6601 38.3175C87.8176 38.1448 86.5547 36.8195 86.5547 34.3296C86.5547 31.8396 87.9205 30.6388 90.6601 30.5103C90.7155 30.5103 90.7432 30.4822 90.7432 30.4219V29.6187C90.7432 29.5344 90.7867 29.4902 90.8857 29.4902H92.7029C92.7662 29.4822 92.8256 29.5263 92.8335 29.5906C92.8335 29.5986 92.8335 29.6107 92.8335 29.6187V30.4219C92.8335 30.4822 92.8612 30.5103 92.9166 30.5103C95.6601 30.6388 97.0378 31.9199 97.0378 34.3296C97.0378 36.7392 95.771 38.1448 92.9166 38.3175C92.8612 38.3175 92.8335 38.3456 92.8335 38.4059V39.4581C92.8335 39.5585 92.79 39.6026 92.7029 39.6026L90.8738 39.6107ZM90.7432 36.3978V32.4139C90.7432 32.3737 90.7155 32.3416 90.6601 32.3416C89.2824 32.4018 88.645 32.9922 88.645 34.4179C88.645 35.7593 89.2824 36.3938 90.6601 36.4942C90.6997 36.5022 90.7392 36.4701 90.7472 36.43C90.7472 36.4179 90.7472 36.4099 90.7472 36.3978H90.7432ZM94.9475 34.3898C94.9475 32.9641 94.3102 32.3818 92.9325 32.3135C92.8612 32.3135 92.8335 32.3456 92.8335 32.3858V36.3978C92.8335 36.4541 92.8612 36.4862 92.9325 36.4862C94.3102 36.3978 94.9594 35.7593 94.9594 34.4179L94.9475 34.3898Z" fill="#1E1E1C"/>
<path d="M98.5227 34.5465C98.4831 33.6469 98.5741 32.7432 98.7919 31.8677C99.2867 30.3135 100.593 29.4902 102.311 29.4902C104.03 29.4902 105.34 30.2934 105.835 31.8677C106.053 32.7432 106.144 33.6469 106.104 34.5465C106.144 35.4501 106.053 36.3537 105.835 37.2292C105.34 38.7834 104.03 39.6067 102.311 39.6067C100.593 39.6067 99.2867 38.8035 98.7919 37.2292C98.5741 36.3537 98.4831 35.4501 98.5227 34.5465ZM103.99 34.5465C104.022 33.8436 103.966 33.1368 103.832 32.4461C103.527 31.5947 102.6 31.1569 101.761 31.4661C101.31 31.6308 100.957 31.9922 100.795 32.4461C100.657 33.1368 100.605 33.8436 100.637 34.5465C100.605 35.2533 100.657 35.9601 100.795 36.6509C101.1 37.5023 102.026 37.94 102.866 37.6308C103.317 37.4661 103.669 37.1047 103.832 36.6509C103.962 35.9561 104.01 35.2493 103.974 34.5465H103.99Z" fill="#1E1E1C"/>
<path d="M108.183 39.4456C108.084 39.4456 108.04 39.4014 108.04 39.301V29.795C108.04 29.6906 108.084 29.6504 108.183 29.6504H111.932C112.83 29.6022 113.713 29.9114 114.39 30.5139C115.598 31.7869 115.598 33.807 114.39 35.0801C113.713 35.6825 112.83 35.9918 111.932 35.9436H110.213C110.174 35.9396 110.134 35.9677 110.13 36.0118C110.13 36.0199 110.13 36.0279 110.13 36.0319V39.301C110.13 39.4014 110.087 39.4456 109.988 39.4456H108.183ZM111.805 34.1163C112.672 34.1163 113.21 33.6102 113.21 32.803C113.21 31.9958 112.672 31.4777 111.805 31.4777H110.221C110.166 31.4777 110.138 31.5058 110.138 31.5661V34.0279C110.138 34.0882 110.166 34.1163 110.221 34.1163H111.805Z" fill="#1E1E1C"/>
<path d="M117.129 39.4461C117.03 39.4461 116.986 39.4019 116.986 39.3015V29.7955C116.986 29.6911 117.03 29.6509 117.129 29.6509H118.819C118.918 29.6389 119.013 29.6991 119.049 29.7955L121.484 35.3819H121.543L123.942 29.7955C123.978 29.6991 124.073 29.6389 124.172 29.6509H125.838C125.937 29.6509 125.981 29.6911 125.981 29.7955V39.3015C125.981 39.4019 125.937 39.4461 125.838 39.4461H124.255C124.156 39.4461 124.112 39.4019 124.112 39.3015V33.7835H124.057L122.268 37.92C122.228 38.0365 122.117 38.1088 121.998 38.1048H121.016C120.898 38.1128 120.787 38.0365 120.747 37.92L118.958 33.7835H118.898V39.3015C118.898 39.4019 118.859 39.4461 118.76 39.4461H117.129Z" fill="#1E1E1C"/>
<path d="M130.831 29.7954C130.843 29.7031 130.926 29.6388 131.017 29.6509H132.802C132.893 29.6388 132.976 29.7031 132.988 29.7954L136.254 39.3015C136.282 39.4019 136.254 39.446 136.155 39.446H134.311C134.219 39.4541 134.14 39.3898 134.124 39.3015L133.57 37.6027H130.193L129.655 39.3175C129.639 39.4099 129.56 39.4701 129.469 39.4621H127.612C127.509 39.4621 127.481 39.4179 127.509 39.3175L130.831 29.7954ZM130.775 35.7874H133.004L131.911 32.3577H131.868L130.775 35.7874Z" fill="#1E1E1C"/>
</g>
<defs>
<clipPath id="clip0_604_69504">
<rect width="136" height="46" fill="white" transform="translate(0.266602)"/>
</clipPath>
</defs>
</svg>
