<svg width="678" height="114" viewBox="0 0 678 114" fill="none" xmlns="http://www.w3.org/2000/svg">
<path d="M58.2482 82.644L45.7945 89.3936L41.8805 80.7494C37.7293 85.8412 31.5618 89.5121 23.7337 89.5121C8.5521 89.3936 0.605469 76.9601 0.605469 57.5404C0.605469 36.5811 9.97538 25.2134 24.8012 25.2134C31.7989 25.2134 37.2549 27.8186 40.813 32.6735V1.76758H53.6226V73.2893L58.2482 82.644ZM40.813 74.2366V41.3177C37.492 38.5942 33.3408 36.9364 28.9524 36.9364C19.4638 36.9364 13.8894 44.1596 13.8894 57.6587C13.8894 70.6842 19.1081 77.789 28.7152 77.789C32.985 77.9075 37.3735 76.4865 40.813 74.2366Z" fill="white"/>
<path d="M121.586 58.7259H79.8366C80.6668 69.5015 89.0879 76.6064 102.253 76.6064C109.014 76.6064 116.367 75.1854 121.23 72.5803L117.198 85.7242C113.046 87.9741 106.049 89.395 98.102 89.395C79.125 89.395 66.5527 76.488 66.5527 56.9497C66.5527 37.293 78.532 25.2148 97.5089 25.2148C113.284 25.2148 123.128 34.2144 123.128 48.6608C123.128 51.9764 122.535 55.8841 121.586 58.7259ZM80.5482 49.845H110.674C110.081 40.6086 105.693 36.2274 97.5089 36.2274C88.6134 36.3457 82.446 41.4376 80.5482 49.845Z" fill="white"/>
<path d="M152.659 87.8572L128.582 26.7559H142.696L158.353 69.5031L160.132 74.8317H160.606L162.386 69.5031L178.041 26.7559H191.918L167.841 87.8572H152.659Z" fill="white"/>
<path d="M233.665 26.8676H261.301L259.522 36.696H231.886L222.161 91.6398C219.433 107.034 209.113 112.717 194.762 112.717C188.12 112.717 185.037 111.77 181.716 111.06L181.479 101.113C184.8 101.705 188.714 102.06 194.17 102.06C202.828 102.06 208.521 98.6262 209.826 91.403L219.551 36.5775H200.337L202.116 26.7493H221.212L222.161 21.0654C224.889 6.02687 235.089 0.224609 249.321 0.224609C256.082 0.224609 259.522 1.17192 262.487 1.8824L262.724 12.066C259.403 11.2371 255.489 10.8818 250.033 10.8818C241.494 10.8818 235.801 14.3158 234.496 21.539L233.665 26.8676Z" fill="white"/>
<path d="M318.351 58.7259H276.483C277.313 69.5015 285.734 76.6064 298.9 76.6064C305.66 76.6064 313.014 75.1854 317.877 72.5803L313.844 85.7242C309.693 87.9741 302.695 89.395 294.748 89.395C275.771 89.395 263.199 76.488 263.199 56.9497C263.199 37.293 275.179 25.2148 294.156 25.2148C309.93 25.2148 319.774 34.2144 319.774 48.6608C319.893 51.9764 319.3 55.8841 318.351 58.7259ZM277.194 49.845H307.321C306.728 40.6086 302.339 36.2274 294.156 36.2274C285.378 36.3457 279.211 41.4376 277.194 49.845Z" fill="white"/>
<path d="M332.11 84.1807L331.279 70.4446C336.735 74.2339 346.699 77.5495 357.017 77.5495C364.964 77.5495 370.657 75.0628 370.657 69.4974C370.657 57.8928 332.584 68.6684 332.584 45.1042C332.584 34.0917 340.886 24.8555 360.576 24.8555C372.673 24.8555 381.806 27.8158 381.806 35.1575C381.806 37.4073 380.857 39.3019 379.908 41.0781C374.69 38.5914 366.506 36.8152 359.745 36.8152C350.257 36.8152 345.276 40.3676 345.276 44.2752C345.276 54.5772 383.822 45.5778 383.822 68.5501C383.822 81.4571 372.436 89.3908 355.594 89.3908C344.089 89.3908 335.549 85.72 332.11 84.1807Z" fill="white"/>
<path d="M449.648 74.9454L447.038 86.9051C443.955 88.2077 437.788 89.5101 432.095 89.5101C416.793 89.5101 410.389 81.5765 410.389 70.4456V37.5266H393.072V26.751H410.389V10.0547H423.199V26.751H447.869V37.5266H423.199V66.4195C423.199 74.3533 427.35 77.9057 434.585 77.9057C438.617 77.9057 446.209 76.9583 449.648 74.9454Z" fill="white"/>
<path d="M512.804 85.5962C525.866 85.5962 532.523 75.6522 532.523 55.0901C532.523 34.528 525.866 24.584 512.804 24.584C499.657 24.584 493 34.528 493 55.0901C493 75.6522 499.657 85.5962 512.804 85.5962ZM512.804 79.3601C504.377 79.3601 499.994 71.5229 499.994 55.0901C499.994 38.6572 504.377 30.7358 512.804 30.7358C521.062 30.7358 525.444 38.573 525.444 55.0058C525.444 71.5229 521.062 79.3601 512.804 79.3601ZM547.834 84.5006V38.7415H548.171L550.446 45.9888L558.452 67.3094H560.559L568.312 45.9888L570.503 38.7415H570.84V84.5006H577.413V25.6795H570.166L561.064 51.972L559.885 56.607H559.632L558.368 51.972L548.845 25.6795H541.598V84.5006H547.834ZM605.617 85.5962C619.943 85.5962 625.674 77.5904 625.674 68.6577C625.674 57.1126 617.162 53.9103 609.241 51.1293C602.836 49.0226 596.685 46.9158 596.685 40.5955C596.685 33.8538 603.173 31.1571 609.999 31.1571C614.213 31.1571 618.427 31.9998 622.472 34.2751C623.061 33.3482 623.736 32.2526 623.736 30.82C623.736 26.9436 616.825 24.584 609.494 24.584C596.516 24.6683 589.943 31.8313 589.943 40.9326C589.943 51.4664 598.286 54.4159 606.039 57.1969C612.612 59.725 618.764 62.2531 618.764 69.4161C618.764 74.978 614.466 79.3601 605.28 79.3601C598.96 79.2758 593.145 77.3376 587.92 73.6297L588.51 81.0455C591.038 82.4781 596.516 85.5962 605.617 85.5962ZM650.17 54.0788L671.828 25.6795H664.243L643.344 53.4889V25.6795H636.603V84.5006H643.344V55.68L665.845 84.5006H674.019L650.17 54.0788Z" fill="#A7CAFD"/>
</svg>
