<svg width="452" height="226" viewBox="0 0 452 226" fill="none" xmlns="http://www.w3.org/2000/svg">
<g opacity="0.5">
<path d="M1.00006 225.371L225.987 225.371L225.987 0.999512L1.00006 0.999512L1.00006 225.371Z" stroke="#E5F0FF" stroke-miterlimit="10"/>
<path d="M113.562 225.438C175.691 225.438 226.056 175.211 226.056 113.252C226.056 51.2937 175.691 1.06641 113.562 1.06641C51.4335 1.06641 1.06836 51.2937 1.06836 113.252C1.06836 175.211 51.4335 225.438 113.562 225.438Z" stroke="#E5F0FF" stroke-miterlimit="10"/>
<path d="M226.056 113.252H1.06836" stroke="#E5F0FF" stroke-miterlimit="10"/>
<path d="M113.561 1.06641V225.438" stroke="#E5F0FF" stroke-miterlimit="10"/>
<path d="M225.755 225.371L450.742 225.371V0.999512L225.755 0.999512L225.755 225.371Z" stroke="#E5F0FF" stroke-miterlimit="10"/>
<path d="M338.317 225.438C400.445 225.438 450.81 175.211 450.81 113.252C450.81 51.2937 400.445 1.06641 338.317 1.06641C276.188 1.06641 225.823 51.2937 225.823 113.252C225.823 175.211 276.188 225.438 338.317 225.438Z" stroke="#E5F0FF" stroke-miterlimit="10"/>
<path d="M450.81 113.252H225.823" stroke="#E5F0FF" stroke-miterlimit="10"/>
<path d="M338.315 1.06641V225.438" stroke="#E5F0FF" stroke-miterlimit="10"/>
</g>
</svg>
