<svg width="452" height="451" viewBox="0 0 452 451" fill="none" xmlns="http://www.w3.org/2000/svg">
<g opacity="0.5">
<path d="M225.755 225.371L450.742 225.371V0.999512L225.755 0.999512L225.755 225.371Z" stroke="#E5F0FF" stroke-miterlimit="10"/>
<path d="M338.317 225.438C400.445 225.438 450.81 175.211 450.81 113.252C450.81 51.2937 400.445 1.06641 338.317 1.06641C276.188 1.06641 225.823 51.2937 225.823 113.252C225.823 175.211 276.188 225.438 338.317 225.438Z" stroke="#E5F0FF" stroke-miterlimit="10"/>
<path d="M450.81 113.252H225.823" stroke="#E5F0FF" stroke-miterlimit="10"/>
<path d="M338.315 1.06641V225.438" stroke="#E5F0FF" stroke-miterlimit="10"/>
<path d="M1.00006 449.609H225.987L225.987 225.238L1.00006 225.238L1.00006 449.609Z" stroke="#E5F0FF" stroke-miterlimit="10"/>
<path d="M113.562 449.676C175.691 449.676 226.056 399.449 226.056 337.49C226.056 275.532 175.691 225.305 113.562 225.305C51.4335 225.305 1.06836 275.532 1.06836 337.49C1.06836 399.449 51.4335 449.676 113.562 449.676Z" stroke="#E5F0FF" stroke-miterlimit="10"/>
<path d="M226.056 337.49H1.06836" stroke="#E5F0FF" stroke-miterlimit="10"/>
<path d="M113.561 225.305V449.676" stroke="#E5F0FF" stroke-miterlimit="10"/>
<path d="M225.755 449.609H450.742V225.238L225.755 225.238L225.755 449.609Z" stroke="#E5F0FF" stroke-miterlimit="10"/>
<path d="M338.317 449.676C400.445 449.676 450.81 399.449 450.81 337.49C450.81 275.532 400.445 225.305 338.317 225.305C276.188 225.305 225.823 275.532 225.823 337.49C225.823 399.449 276.188 449.676 338.317 449.676Z" stroke="#E5F0FF" stroke-miterlimit="10"/>
<path d="M450.81 337.49H225.823" stroke="#E5F0FF" stroke-miterlimit="10"/>
<path d="M338.315 225.305V449.676" stroke="#E5F0FF" stroke-miterlimit="10"/>
</g>
</svg>
