<svg width="80" height="80" viewBox="0 0 80 80" fill="none" xmlns="http://www.w3.org/2000/svg">
<path d="M21.255 28.3437C14.8188 28.3437 9.60083 33.5684 9.60083 40.0002C9.60083 46.4349 14.8183 51.6599 21.255 51.6599C24.5632 51.6599 27.5486 50.2718 29.6713 48.0566L47.2472 56.8439C47.1488 57.4784 47.0951 58.109 47.0951 58.7435C47.0951 65.1743 52.3108 70.4 58.7451 70.4C65.1813 70.4 70.3993 65.1753 70.3993 58.7435C70.3993 52.313 65.1822 47.0881 58.746 47.0881C55.4396 47.0881 52.4526 48.4724 50.3319 50.688L32.7529 41.9002C32.8529 41.2878 32.9068 40.6534 32.9068 40.0002C32.9068 39.347 32.8529 38.7164 32.7507 38.1001L50.331 29.3128C52.4515 31.5319 55.439 32.9162 58.7451 32.9162C65.1813 32.9162 70.3993 27.6911 70.3993 21.2597C70.3993 14.825 65.1818 9.59998 58.7451 9.59998C52.3102 9.59998 47.0951 14.8251 47.0951 21.2597C47.0951 21.9128 47.1488 22.5252 47.2472 23.1597L29.6713 31.947C27.5486 29.728 24.5632 28.3437 21.255 28.3437Z" fill="#2B80F9"/>
</svg>
