<svg width="80" height="80" viewBox="0 0 80 80" fill="none" xmlns="http://www.w3.org/2000/svg">
<path d="M71.2396 56.1617C69.4176 54.3396 63.6735 50.0984 57.9705 46.8146C57.9088 46.9072 57.847 46.9999 57.7851 47.1028C64.219 36.7367 62.9528 22.9322 53.9454 13.9249C43.4454 3.43519 26.4292 3.43519 15.9292 13.9249C5.42925 24.4352 5.43954 41.4411 15.9292 51.9412C24.8542 60.8559 38.4734 62.2044 48.8087 55.9662C51.7837 61.1338 56.1175 67.1971 58.166 69.2456C61.769 72.8485 67.6366 72.8382 71.2395 69.2353C74.8426 65.622 74.8426 59.7749 71.2396 56.1617ZM46.8632 44.8587C40.2749 51.4367 29.6102 51.4367 23.022 44.8484C16.4441 38.2705 16.4338 27.6058 23.022 21.0175C29.5999 14.4396 40.2749 14.4396 46.8529 21.0175C53.4411 27.6058 53.4411 38.2808 46.8632 44.8587Z" fill="#2B80F9"/>
</svg>
