<svg width="80" height="80" viewBox="0 0 80 80" fill="none" xmlns="http://www.w3.org/2000/svg">
<g clip-path="url(#clip0_799_5733)">
<path d="M55 9C46.7275 9 40 15.9517 40 24.5V36.125H17.5C13.375 36.125 10 39.6125 10 43.875V63.25C10 67.5125 13.375 71 17.5 71H47.5C51.625 71 55 67.5125 55 63.25V43.875C55 39.6125 51.625 36.125 47.5 36.125V24.5C47.5 20.2259 50.8637 16.75 55 16.75C59.1363 16.75 62.5 20.2259 62.5 24.5V36.125H70V24.5C70 15.9517 63.2725 9 55 9Z" fill="#2B80F9"/>
</g>
<defs>
<clipPath id="clip0_799_5733">
<rect width="60" height="62" fill="white" transform="translate(10 9)"/>
</clipPath>
</defs>
</svg>
