<svg width="80" height="80" viewBox="0 0 80 80" fill="none" xmlns="http://www.w3.org/2000/svg">
<g clip-path="url(#clip0_875_5944)">
<path d="M35.7921 30.5563C24.9655 30.5563 16.0641 38.0014 16.0641 47.1531C16.0641 50.8113 17.483 54.5292 20.0852 57.4108L16.4106 61.6099C16.049 62.0236 15.9613 62.6111 16.1901 63.1124C16.4175 63.6136 16.916 63.9356 17.4666 63.9356H37.1946C45.1884 63.9356 55.5202 57.0521 55.5202 47.1531C55.5202 38.0014 46.6188 30.5563 35.7921 30.5563ZM27.2838 49.7238C25.7375 49.7238 24.4789 48.4651 24.4789 46.9189C24.4789 45.3726 25.7376 44.114 27.2838 44.114C28.83 44.114 30.0887 45.3727 30.0887 46.9189C30.0888 48.4651 28.8301 49.7238 27.2838 49.7238ZM35.7921 49.7238C34.2458 49.7238 32.9872 48.4651 32.9872 46.9189C32.9872 45.3726 34.2459 44.114 35.7921 44.114C37.3383 44.114 38.597 45.3727 38.597 46.9189C38.597 48.4651 37.3384 49.7238 35.7921 49.7238ZM44.3004 49.7238C42.7541 49.7238 41.4955 48.4651 41.4955 46.9189C41.4955 45.3726 42.7542 44.114 44.3004 44.114C45.8467 44.114 47.1054 45.3727 47.1054 46.9189C47.1054 48.4651 45.8468 49.7238 44.3004 49.7238Z" fill="#2B80F9"/>
<path d="M63.5967 44.6028L60.2947 40.7501C62.6517 38.0904 63.9351 34.8471 63.9351 31.4917C63.935 22.9851 55.7558 16.0645 45.703 16.0645C36.6124 16.0645 28.8892 21.7296 27.5255 29.1031C30.062 28.2412 32.9065 27.7513 35.7922 27.7513C48.0738 27.7513 58.1641 36.3294 58.3116 46.9188H62.5326C63.7306 46.9189 64.374 45.5082 63.5967 44.6028Z" fill="#2B80F9"/>
</g>
<defs>
<clipPath id="clip0_875_5944">
<rect width="47.8721" height="47.8721" fill="white" transform="translate(16.064 16.064)"/>
</clipPath>
</defs>
</svg>
