<svg width="80" height="80" viewBox="0 0 80 80" fill="none" xmlns="http://www.w3.org/2000/svg">
<path d="M65.0777 33.6908C65.0753 34.248 64.8969 34.7904 64.5676 35.242C64.2383 35.6936 63.7746 36.0317 63.2415 36.2087L58.5128 37.7544C57.0281 38.2464 55.6798 39.075 54.5751 40.1743C53.4703 41.2736 52.6396 42.6132 52.149 44.0866L50.5141 48.7485C50.3277 49.2695 49.9855 49.7217 49.5331 50.0449C49.1911 50.2891 48.7956 50.4494 48.379 50.5127C47.9624 50.576 47.5365 50.5405 47.1364 50.4091C46.7363 50.2777 46.3734 50.0542 46.0773 49.7569C45.7812 49.4596 45.5605 49.0969 45.4332 48.6987L43.8485 44.0118C43.3348 42.5353 42.4724 41.2019 41.3332 40.1227C40.2293 39 38.8775 38.1466 37.3842 37.6297L32.6554 36.0591C32.12 35.8921 31.6521 35.5602 31.3198 35.1118C30.9938 34.6565 30.8187 34.112 30.8187 33.5537C30.8187 32.9954 30.9938 32.4509 31.3198 31.9955C31.6541 31.5339 32.1309 31.1927 32.6781 31.0233L37.3817 29.4527C38.8955 28.948 40.2664 28.0934 41.381 26.9597C42.5129 25.8553 43.3757 24.5065 43.8963 23.0207L45.4558 18.4087C45.6033 17.8817 45.9215 17.4174 46.3613 17.0874C46.8039 16.7354 47.3535 16.5422 47.9208 16.5389C48.4828 16.5255 49.0355 16.682 49.5055 16.9876C49.9834 17.2848 50.3466 17.7326 50.5367 18.2591L52.1214 23.0207C52.642 24.5065 53.5048 25.8553 54.6367 26.9597C55.7441 28.0902 57.106 28.9445 58.6109 29.4527L63.3145 31.0981C63.8439 31.2622 64.3038 31.5953 64.6224 32.0454C64.9494 32.529 65.1129 33.1049 65.0777 33.6908ZM40.2517 50.9673C40.2505 51.4757 40.0925 51.9715 39.7989 52.3883C39.4949 52.7937 39.0739 53.098 38.5916 53.2609L35.1959 54.3827C34.2457 54.7176 33.3854 55.2634 32.6806 55.9783C31.9647 56.6812 31.415 57.5326 31.0708 58.4713L29.8886 61.8119C29.7242 62.29 29.4172 62.7073 29.0083 63.0085C28.5847 63.3036 28.0796 63.4619 27.562 63.4619C27.0443 63.4619 26.5392 63.3036 26.1157 63.0085C25.7067 62.7073 25.3997 62.29 25.2353 61.8119L24.1286 58.4713C23.7868 57.5308 23.2357 56.6787 22.5163 55.9783C21.8071 55.2687 20.9481 54.7238 20.001 54.3827L16.6053 53.2858C16.1196 53.1162 15.6982 52.8029 15.398 52.3883C15.0954 51.9744 14.9286 51.4784 14.92 50.9673C14.9291 50.4532 15.0983 49.9545 15.4045 49.5394C15.7107 49.1244 16.1389 48.8133 16.6305 48.6488L20.001 47.5519C20.945 47.2049 21.8023 46.66 22.5142 45.9544C23.2262 45.2487 23.776 44.399 24.1261 43.4634L25.2579 40.1726C25.4087 39.7009 25.6976 39.2844 26.088 38.976C26.4961 38.6678 26.9895 38.4908 27.502 38.4685C28.0145 38.4462 28.5217 38.5798 28.9554 38.8513C29.3856 39.1455 29.7176 39.5618 29.9113 40.048L31.0431 43.4634C31.3932 44.399 31.943 45.2487 32.655 45.9544C33.3669 46.66 34.2242 47.2049 35.1682 47.5519L38.5387 48.7236C39.0209 48.8739 39.4375 49.1814 39.7209 49.5962C40.0406 49.9854 40.2258 50.466 40.2491 50.9673" fill="#2B80F9"/>
</svg>
