<svg width="80" height="80" viewBox="0 0 80 80" fill="none" xmlns="http://www.w3.org/2000/svg">
<path fill-rule="evenodd" clip-rule="evenodd" d="M56.1683 21.5261C56.923 20.3831 56.6083 18.8446 55.4652 18.0899C54.322 17.3351 52.7836 17.65 52.0289 18.793L50.9026 20.499C50.1479 21.6421 50.4627 23.1805 51.6058 23.9352C52.7489 24.69 54.2873 24.3752 55.042 23.2321L56.1683 21.5261ZM55.2732 28.9823C54.5884 27.796 54.9949 26.2792 56.1809 25.5943L58.5562 24.223C59.7424 23.5381 61.2593 23.9446 61.9441 25.1308C62.6291 26.317 62.2226 27.8339 61.0364 28.5188L58.6611 29.8901C57.4751 30.575 55.9582 30.1685 55.2732 28.9823ZM44.9051 50.0002L55.8583 47.5426C57.491 47.1763 58.2997 45.3315 57.4632 43.8824L43.4755 19.6551C42.639 18.2061 40.637 17.9842 39.5033 19.215L16.9835 43.6658C14.9842 45.8365 14.6277 49.0545 16.1032 51.6101C17.552 54.1195 20.4371 55.4186 23.267 54.8531C23.4935 55.4977 23.7828 56.1304 24.1368 56.7435C27.2187 62.0818 34.0445 63.9107 39.3828 60.8288C43.3193 58.5558 45.3476 54.247 44.9051 50.0002ZM40.0035 51.0999C40.0236 53.2628 38.9095 55.3742 36.9026 56.5329C33.9369 58.2452 30.1447 57.2291 28.4326 54.2633C28.3361 54.0964 28.2484 53.9268 28.1691 53.7551L40.0035 51.0999ZM57.8104 34.6817C57.7283 33.3144 58.7702 32.1395 60.1375 32.0574L62.178 31.9349C63.5453 31.8529 64.7201 32.8948 64.8022 34.2621C64.8843 35.6294 63.8424 36.8042 62.4753 36.8863L60.4347 37.0088C59.0673 37.0909 57.8925 36.049 57.8104 34.6817Z" fill="#2B80F9"/>
</svg>
