<svg width="80" height="80" viewBox="0 0 80 80" fill="none" xmlns="http://www.w3.org/2000/svg">
<path d="M25.1862 54.4331C25.8158 55.1342 26.7187 55.5362 27.663 55.5362C28.487 55.5362 29.2785 55.2319 29.8909 54.6804C31.2558 53.4521 31.3665 51.3405 30.1382 49.974L21.1606 39.9999L30.1382 30.0243C31.3665 28.6594 31.2558 26.5477 29.8909 25.3195C29.2297 24.7241 28.3707 24.4149 27.4873 24.4687C26.5974 24.5158 25.7807 24.9047 25.1862 25.5651L14.2018 37.7712C13.059 39.0417 13.059 40.9581 14.2018 42.2303L25.1862 54.4331Z" fill="#2B80F9"/>
<path d="M54.8139 25.5651C53.5857 24.2019 51.4765 24.0897 50.1091 25.3195C48.7442 26.5478 48.6336 28.6594 49.8618 30.0259L58.8395 39.9999L49.8618 49.9756C48.6336 51.3405 48.7442 53.4521 50.1091 54.6821C50.7216 55.2319 51.5131 55.5362 52.3371 55.5362C53.2814 55.5362 54.1843 55.1343 54.8139 54.4348L65.7982 42.2287C66.941 40.9581 66.941 39.0417 65.7982 37.7713L54.8139 25.5651Z" fill="#2B80F9"/>
<path d="M45.837 16.2272L45.8337 16.2256C44.0483 15.7928 42.2433 16.8909 41.8074 18.669L31.7226 59.743C31.2842 61.5261 32.379 63.3335 34.1644 63.7727C34.424 63.8361 34.6916 63.8687 34.9592 63.8687C36.4966 63.8687 37.8265 62.8259 38.1925 61.3309L48.2772 20.2569C48.7156 18.4738 47.6208 16.6664 45.837 16.2272Z" fill="#2B80F9"/>
</svg>
