<svg width="164" height="50" viewBox="0 0 164 50" fill="none" xmlns="http://www.w3.org/2000/svg">
<rect x="0.5" width="163" height="50" rx="12" fill="#2B80F9"/>
<path d="M25.976 18.112H27.992V24.358H28.1L33.194 18.112H35.732V18.22L30.35 24.664L36.038 30.892V31H33.374L28.1 25.096H27.992V31H25.976V18.112ZM39.2312 30.496L35.4152 21.82H37.6292L40.2212 28.066H40.2932L42.8132 21.82H44.9912L39.3212 34.888H37.2332L39.2312 30.496ZM46.1045 21.82H54.2405V31H52.2605V23.656H48.0845V31H46.1045V21.82ZM56.3659 21.82H58.3459V26.302L58.2559 28.03H58.3459L62.6659 21.82H64.6459V31H62.6659V26.518L62.7559 24.79H62.6659L58.3459 31H56.3659V21.82ZM69.0359 23.656H66.1199V21.82H73.9499V23.656H71.0159V31H69.0359V23.656ZM75.4297 21.82H77.3557V24.934H79.9117C80.5357 24.934 81.0997 25.06 81.6037 25.312C82.1077 25.564 82.5037 25.924 82.7917 26.392C83.0797 26.848 83.2237 27.376 83.2237 27.976C83.2237 28.576 83.0797 29.104 82.7917 29.56C82.5037 30.016 82.1077 30.37 81.6037 30.622C81.0997 30.874 80.5357 31 79.9117 31H75.4297V21.82ZM79.8397 29.326C80.2597 29.326 80.6077 29.206 80.8837 28.966C81.1717 28.714 81.3157 28.384 81.3157 27.976C81.3157 27.568 81.1717 27.238 80.8837 26.986C80.6077 26.734 80.2597 26.608 79.8397 26.608H77.3557V29.326H79.8397ZM93.4255 31.288C92.5015 31.288 91.6735 31.078 90.9415 30.658C90.2215 30.226 89.6515 29.56 89.2315 28.66C88.8115 27.76 88.6015 26.626 88.6015 25.258C88.6015 23.818 88.7635 22.654 89.0875 21.766C89.4115 20.878 89.8615 20.17 90.4375 19.642C90.8695 19.246 91.3915 18.94 92.0035 18.724C92.6155 18.496 93.2755 18.382 93.9835 18.382C94.4275 18.382 94.7635 18.364 94.9915 18.328C95.2195 18.28 95.3815 18.22 95.4775 18.148C95.5735 18.064 95.6455 17.95 95.6935 17.806H97.5295C97.3855 18.67 97.0495 19.264 96.5215 19.588C95.9935 19.912 95.1955 20.074 94.1275 20.074C93.5395 20.074 93.0595 20.146 92.6875 20.29C92.3275 20.422 92.0095 20.608 91.7335 20.848C91.0735 21.448 90.6895 22.21 90.5815 23.134H90.6895C91.0015 22.678 91.4275 22.3 91.9675 22C92.5195 21.688 93.1735 21.532 93.9295 21.532C94.7335 21.532 95.4655 21.754 96.1255 22.198C96.7855 22.63 97.3015 23.224 97.6735 23.98C98.0455 24.724 98.2315 25.534 98.2315 26.41C98.2315 27.322 98.0275 28.15 97.6195 28.894C97.2115 29.638 96.6415 30.226 95.9095 30.658C95.1775 31.078 94.3495 31.288 93.4255 31.288ZM93.4255 29.47C93.9295 29.47 94.3975 29.35 94.8295 29.11C95.2615 28.858 95.6035 28.504 95.8555 28.048C96.1195 27.58 96.2515 27.034 96.2515 26.41C96.2515 25.786 96.1195 25.246 95.8555 24.79C95.6035 24.334 95.2615 23.986 94.8295 23.746C94.3975 23.494 93.9295 23.368 93.4255 23.368C92.9215 23.368 92.4535 23.494 92.0215 23.746C91.6015 23.986 91.2595 24.334 90.9955 24.79C90.7435 25.246 90.6175 25.786 90.6175 26.41C90.6175 27.034 90.7435 27.58 90.9955 28.048C91.2595 28.504 91.6015 28.858 92.0215 29.11C92.4535 29.35 92.9215 29.47 93.4255 29.47ZM99.71 21.82H101.69V26.302L101.6 28.03H101.69L106.01 21.82H107.99V31H106.01V26.518L106.1 24.79H106.01L101.69 31H99.71V21.82ZM110.62 31.144C110.224 31.144 109.906 31.096 109.666 31L109.684 29.236C109.876 29.296 110.074 29.326 110.278 29.326C110.542 29.326 110.746 29.242 110.89 29.074C111.034 28.894 111.136 28.6 111.196 28.192C111.256 27.784 111.286 27.208 111.286 26.464V21.82H119.17V31H117.244V23.62H113.194V27.022C113.194 29.77 112.336 31.144 110.62 31.144ZM125.411 31.288C124.511 31.288 123.701 31.078 122.981 30.658C122.273 30.238 121.715 29.662 121.307 28.93C120.911 28.186 120.713 27.352 120.713 26.428C120.713 25.552 120.905 24.742 121.289 23.998C121.685 23.242 122.231 22.642 122.927 22.198C123.623 21.754 124.415 21.532 125.303 21.532C126.227 21.532 127.025 21.736 127.697 22.144C128.381 22.552 128.897 23.11 129.245 23.818C129.605 24.526 129.785 25.324 129.785 26.212C129.785 26.38 129.767 26.59 129.731 26.842H122.693C122.765 27.694 123.065 28.354 123.593 28.822C124.133 29.278 124.757 29.506 125.465 29.506C126.029 29.506 126.515 29.38 126.923 29.128C127.343 28.864 127.679 28.51 127.931 28.066L129.605 28.858C129.173 29.614 128.609 30.208 127.913 30.64C127.217 31.072 126.383 31.288 125.411 31.288ZM127.769 25.33C127.745 25.006 127.643 24.688 127.463 24.376C127.283 24.052 127.007 23.782 126.635 23.566C126.275 23.35 125.831 23.242 125.303 23.242C124.667 23.242 124.127 23.434 123.683 23.818C123.251 24.19 122.951 24.694 122.783 25.33H127.769ZM133.501 23.656H130.585V21.82H138.415V23.656H135.481V31H133.501V23.656Z" fill="white"/>
</svg>
