<?xml version="1.0" encoding="UTF-8"?>
<svg id="Layer_1" data-name="Layer 1" xmlns="http://www.w3.org/2000/svg" viewBox="0 0 1920 300">
  <defs>
    <style>
      .cls-1 {
        fill: #f5b335;
      }

      .cls-2 {
        fill: #ee7623;
      }

      .cls-3 {
        fill: #e1251b;
      }

      .cls-4 {
        fill: #1d1d1b;
      }
    </style>
  </defs>
  <rect class="cls-1" width="299.98" height="59.99"/>
  <rect class="cls-2" y="119.99" width="299.98" height="59.99"/>
  <rect class="cls-3" y="239.97" width="299.98" height="59.99"/>
  <path class="cls-4" d="m1513.08,179.92h-94.9l47.52-119.87,47.38,119.87ZM1419.72.03l-115.16,299.97h68.78l22.52-60.13,139.67.06,22.52,60.07h68.41L1504.6.03h-84.88Z"/>
  <polygon class="cls-4" points="419.94 .03 419.94 300 666.06 300 666.06 240.04 480.1 239.94 480.1 179.98 666.06 179.98 666.06 119.87 480.1 119.87 480.1 60.07 666.06 59.87 666.06 .03 419.94 .03"/>
  <path class="cls-4" d="m1668.03,299.76h162.48c48.45,0,89.49-32.93,89.49-89.04,0-23.12-8.87-45.81-36.56-60.83,32.05-18.65,36.56-37.71,36.56-60.83C1920,40.27,1878.96.03,1830.51.03h-162.48v61h159.68c16.3,0,29.51,13.21,29.51,29.51s-13.21,29.51-29.51,29.51h-129.77v59.69h129.77c16.3,0,29.51,13.21,29.51,29.51s-13.21,29.51-29.51,29.51h-159.68v61Z"/>
  <path class="cls-4" d="m1221.6.03h-165.48v299.97h60.03v-120.26h105.45c49.63,0,89.86-40.23,89.86-89.85S1271.23.03,1221.6.03Zm-2.79,120.02h-102.74v-59.02h102.74c16.3,0,29.51,13.21,29.51,29.51s-13.21,29.51-29.51,29.51Z"/>
  <path class="cls-4" d="m955.2,149.9c32.05-18.65,36.56-37.71,36.56-60.83C991.76,40.27,950.72.03,902.27.03h0s-.02,0-.04,0h-163.98v299.73h166.98c48.45,0,89.49-32.93,89.49-89.04,0-23.12-11.84-45.81-39.52-60.83Zm-157-88.86h101.24c16.3,0,29.51,13.21,29.51,29.51s-13.21,29.51-29.51,29.51h-101.24v-59.02Zm104.24,177.72h-104.24v-59.02h104.24c16.3,0,29.51,13.21,29.51,29.51s-13.21,29.51-29.51,29.51Z"/>
</svg>