<?xml version="1.0" encoding="utf-8"?>
<!-- Generator: Adobe Illustrator 27.5.0, SVG Export Plug-In . SVG Version: 6.00 Build 0)  -->
<svg version="1.1" id="Слой_1" xmlns="http://www.w3.org/2000/svg" xmlns:xlink="http://www.w3.org/1999/xlink" x="0px" y="0px"
	 viewBox="0 0 841.9 327.9" style="enable-background:new 0 0 841.9 327.9;" xml:space="preserve">
<style type="text/css">
	.st0{fill:#1086C6;}
	.st1{fill:#1F1F1D;}
</style>
<g>
	<polygon class="st0" points="298,126.6 279.6,126.6 279.6,52.5 205.5,52.5 205.5,34.1 298,34.1 	"/>
	<path class="st1" d="M261.2,145v50.1l0,0c0,37.7,0,58.5-9.1,67.5c-9.1,9-28.5,9.1-67.5,9.1h-47.5c-37.8,0-58.6,0-67.5-9.1
		c-9-9.1-9.1-28.6-9.1-67.5v-47.5l0,0c0-37.7,0-58.5,9.1-67.5s28.6-9.1,67.5-9.1h50.1V52.5h-50.1c-90.6,0-95.1,4.5-95.1,95.1v47.5
		c0,90.6,4.5,95.1,95.1,95.1h47.5c90.6,0,95.1-4.5,95.1-95V145H261.2z"/>
	<path class="st1" d="M326.4,81.9c-0.2-5,0.3-10,1.5-14.9c2.8-8.7,10.2-13.2,19.9-13.2c9.7,0,17.1,4.6,19.9,13.2
		c1.2,4.9,1.7,9.9,1.5,14.9c0.2,5-0.3,10.1-1.5,14.9c-2.8,8.7-10.2,13.2-19.9,13.2c-9.7,0-17.1-4.6-19.9-13.2
		C326.7,92,326.2,86.9,326.4,81.9z M357.3,81.9c0.2-3.9-0.1-7.8-0.9-11.7c-1.7-4.7-7-7.2-11.7-5.4c-2.5,0.9-4.5,2.9-5.4,5.4
		c-0.8,3.8-1.1,7.8-0.9,11.7c-0.2,3.9,0.1,7.8,0.8,11.7c1.7,4.7,7,7.2,11.7,5.4c2.5-0.9,4.5-2.9,5.4-5.4
		C357.1,89.7,357.4,85.8,357.3,81.9L357.3,81.9z"/>
	<path class="st1" d="M390.6,109.2c-0.6,0-0.8-0.2-0.8-0.8V65.6c0-0.2-0.1-0.4-0.4-0.5c0,0-0.1,0-0.1,0h-13.7
		c-0.6,0-0.8-0.2-0.8-0.8v-8.8c0-0.6,0.2-0.8,0.8-0.8h40.2c0.6,0,0.8,0.2,0.8,0.8v8.9c0,0.6-0.2,0.8-0.8,0.8H402
		c-0.2,0-0.5,0.1-0.5,0.3c0,0,0,0.1,0,0.1v42.6c0,0.6-0.2,0.8-0.8,0.8L390.6,109.2z"/>
	<path class="st1" d="M426.1,109.2c-0.6,0-0.8-0.2-0.8-0.8V55.6c0-0.6,0.2-0.8,0.8-0.8h10.2c0.6,0,0.8,0.2,0.8,0.8v20.4
		c0,0.3,0.2,0.5,0.5,0.5h3.8c3,0.1,5.6-1.9,6.4-4.7l3.4-8.5c2.6-6.5,6.1-8.7,12.5-8.7h3.4c0.6,0,0.8,0.2,0.8,0.8v8.7
		c0,0.5-0.2,0.7-0.8,0.7h-0.7c-2.4-0.3-4.7,1.3-5.3,3.7l-2.6,6.7c-0.6,2.5-2.2,4.6-4.5,5.8v0.3c2.6,0.9,4.6,3,5.3,5.6l3.3,8.7
		c0.4,2.4,2.6,4,5.1,3.7h0.9c0.6,0,0.8,0.2,0.8,0.7v8.9c0,0.6-0.2,0.8-0.8,0.8h-3.9c-6.5,0-10.2-2.4-12.7-8.9l-3.5-8.9
		c-0.9-3.1-4-5.2-7.2-4.9h-3.8c-0.2,0-0.5,0.2-0.5,0.4c0,0,0,0.1,0,0.1v21.1c0,0.6-0.2,0.8-0.8,0.8L426.1,109.2z"/>
	<path class="st1" d="M479.8,109.2c-0.6,0-0.8-0.2-0.8-0.8V55.6c0-0.6,0.2-0.8,0.8-0.8H501c5.1-0.3,10.1,1.4,13.9,4.8
		c3.5,3.3,5.3,8,5.1,12.7c0.2,4.8-1.7,9.4-5.1,12.7c-3.8,3.4-8.8,5.1-13.9,4.8h-9.7c-0.3,0-0.5,0.2-0.5,0.5v18.2
		c0,0.6-0.2,0.8-0.8,0.8L479.8,109.2z M500.3,79.6c4.9,0,8-2.8,8-7.3c0-4.5-3.1-7.4-8-7.4h-8.9c-0.3,0-0.5,0.2-0.5,0.5v13.7
		c0,0.2,0.1,0.5,0.3,0.5c0,0,0.1,0,0.1,0H500.3z"/>
	<path class="st1" d="M530.4,109.2c-0.6,0-0.8-0.2-0.8-0.8V55.6c0-0.6,0.2-0.8,0.8-0.8h10.2c0.6,0,0.8,0.2,0.8,0.8v18.3
		c0,0.3,0.2,0.5,0.5,0.5h9.7c12.2,0,19.3,6.9,19.3,17.4s-7,17.5-19.3,17.5H530.4z M550.9,99.1c5.2,0,8.2-2.7,8.2-7.4s-3-7.3-8.2-7.3
		H542c-0.2,0-0.5,0.1-0.5,0.3c0,0,0,0.1,0,0.1v13.7c0,0.2,0.1,0.5,0.3,0.5c0,0,0.1,0,0.1,0H550.9z M577.7,109.2
		c-0.6,0-0.8-0.2-0.8-0.8V55.6c0-0.6,0.2-0.8,0.8-0.8h10.2c0.6,0,0.8,0.2,0.8,0.8v52.8c0,0.6-0.2,0.8-0.8,0.8L577.7,109.2z"/>
	<path class="st1" d="M613.1,109.2c-0.6,0-0.8-0.2-0.8-0.8V65.6c0-0.2-0.1-0.4-0.4-0.5c0,0-0.1,0-0.1,0H598c-0.6,0-0.8-0.2-0.8-0.8
		v-8.8c0-0.6,0.2-0.8,0.8-0.8h40.2c0.6,0,0.8,0.2,0.8,0.8v8.9c0,0.6-0.2,0.8-0.8,0.8h-13.8c-0.2,0-0.5,0.1-0.5,0.3c0,0,0,0.1,0,0.1
		v42.6c0,0.6-0.2,0.8-0.8,0.8L613.1,109.2z"/>
	<path class="st1" d="M657.9,55.6c0.1-0.5,0.5-0.8,1.1-0.8H669c0.5,0,0.9,0.3,1,0.8l18.5,52.8c0.2,0.6,0,0.8-0.6,0.8h-10.4
		c-0.5,0.1-1-0.3-1.1-0.8l-3.1-9.5h-19.1l-3.1,9.5c-0.1,0.5-0.5,0.9-1,0.8h-10.5c-0.6,0-0.7-0.2-0.6-0.8L657.9,55.6z M657.6,88.9
		h12.6L664,69.7h-0.2L657.6,88.9z"/>
	<path class="st1" d="M694.5,109.5c-0.6,0-0.8-0.2-0.8-0.8v-8.9c0-0.5,0.2-0.7,0.8-0.7h1.1c2.1,0.2,4.1-1.1,4.8-3.1l2.2-5.3
		c0.7-1.9,2.1-3.6,3.8-4.7v-0.3c-6.4-1.5-11.1-6.3-11.1-14.6c-0.1-4.4,1.6-8.7,4.8-11.7c3.5-3.2,8.2-4.9,13-4.7h22.5
		c0.4,0,0.7,0.2,0.7,0.6c0,0,0,0.1,0,0.1v53c0,0.6-0.2,0.8-0.7,0.8h-10.3c-0.6,0-0.8-0.2-0.8-0.8v-19c0-0.3-0.2-0.5-0.5-0.5H720
		c-3.1,0-4.7,0.6-6.2,4.2l-3.1,7.5c-2.6,6.4-6.2,8.9-12.7,8.9L694.5,109.5z M724.1,78.9c0.3,0,0.5-0.2,0.5-0.5v-13
		c0-0.2-0.1-0.5-0.3-0.5c0,0-0.1,0-0.1,0h-9.7c-3.6-0.4-6.8,2.2-7.3,5.8c0,0.4-0.1,0.8,0,1.2c-0.3,3.6,2.4,6.7,6,7
		c0.4,0,0.9,0,1.3,0L724.1,78.9z"/>
	<path class="st1" d="M328.6,181.4c-0.6,0-0.8-0.2-0.8-0.8v-52.9c0-0.6,0.2-0.8,0.8-0.8h9.5c0.6,0,1.1,0.3,1.3,0.8l13.8,31.1h0.3
		l13.6-31.1c0.2-0.5,0.7-0.9,1.3-0.8h9.4c0.6,0,0.8,0.2,0.8,0.8v52.9c0,0.6-0.2,0.8-0.8,0.8h-9.2c-0.6,0-0.8-0.2-0.8-0.8v-30.7h-0.3
		l-10.1,23c-0.2,0.7-0.8,1.1-1.5,1.1h-5.5c-0.7,0-1.3-0.4-1.5-1.1l-10.1-23h-0.3v30.7c0,0.6-0.2,0.8-0.8,0.8H328.6z"/>
	<path class="st1" d="M389.5,154.2c-0.2-5,0.3-10,1.5-14.9c2.8-8.7,10.2-13.2,19.9-13.2c9.7,0,17.1,4.5,19.9,13.2
		c1.2,4.9,1.7,9.9,1.5,14.9c0.2,5-0.3,10-1.5,14.9c-2.8,8.7-10.2,13.2-19.9,13.2c-9.7,0-17.1-4.5-19.9-13.2
		C389.8,164.2,389.3,159.2,389.5,154.2z M420.4,154.2c0.2-3.9-0.1-7.9-0.9-11.7c-1.7-4.7-7-7.2-11.7-5.5c-2.5,0.9-4.5,2.9-5.5,5.5
		c-0.8,3.9-1.1,7.8-0.9,11.7c-0.2,3.9,0.1,7.9,0.9,11.7c1.7,4.7,7,7.2,11.7,5.5c2.5-0.9,4.5-2.9,5.5-5.5
		C420.3,162,420.6,158.1,420.4,154.2z"/>
	<path class="st1" d="M444.1,181.4c-0.5,0-0.7-0.2-0.7-0.8v-53c-0.1-0.4,0.2-0.7,0.5-0.7c0.1,0,0.1,0,0.2,0h35.8
		c0.6,0,0.8,0.2,0.8,0.7v8.7c0,0.6-0.2,0.8-0.8,0.8h-24.2c-0.3,0-0.5,0.2-0.5,0.5v9.6c0,0.2,0.2,0.5,0.4,0.5c0,0,0.1,0,0.1,0h10.7
		c4.8-0.2,9.4,1.4,12.9,4.7c3.3,3.2,5,7.6,4.8,12.1c0.2,4.6-1.6,9-4.8,12.2c-3.5,3.2-8.1,4.9-12.9,4.7L444.1,181.4z M465.2,171.4
		c3.7,0,6.8-3,6.8-6.8s-3-6.8-6.8-6.8h-9.5c-0.2,0-0.5,0.1-0.5,0.3c0,0,0,0.1,0,0.1v12.6c0,0.3,0.2,0.5,0.5,0.5H465.2z"/>
	<path class="st1" d="M495.1,181.4c-0.5,0-0.7-0.2-0.7-0.8v-53c-0.1-0.4,0.2-0.7,0.5-0.7c0.1,0,0.1,0,0.2,0h10.4
		c0.4,0,0.7,0.2,0.7,0.6c0,0.1,0,0.1,0,0.2v33.5h0.2l19.9-33.5c0.2-0.4,0.7-0.7,1.1-0.6h9.4c0.4,0,0.7,0.2,0.7,0.6
		c0,0.1,0,0.1,0,0.2v52.9c0,0.6-0.2,0.8-0.7,0.8h-10.3c-0.6,0-0.8-0.2-0.8-0.8v-33.5h-0.2l-19.9,33.7c-0.2,0.4-0.7,0.6-1.1,0.6
		H495.1z"/>
	<path class="st1" d="M546.4,181.7c-0.6,0-0.8-0.2-0.8-0.8V172c0-0.5,0.2-0.7,0.8-0.7h1c2.7,0,5.3-1.5,6.6-3.9
		c1.6-2.6,2.4-7.5,2.4-14.8v-25c0-0.5,0.2-0.7,0.8-0.7H593c0.5,0,0.7,0.2,0.7,0.7v53c0,0.6-0.2,0.8-0.6,0.8h-10.4
		c-0.5,0-0.7-0.2-0.7-0.8v-42.7c0-0.2-0.2-0.5-0.4-0.5c0,0-0.1,0-0.1,0h-13c-0.2,0-0.4,0.1-0.5,0.4c0,0,0,0.1,0,0.1v15.5
		c0,10.4-1.5,17.6-4.5,22c-3,4.4-8.1,6.8-13.4,6.4L546.4,181.7z"/>
	<path class="st1" d="M607,181.4c-0.6,0-0.8-0.2-0.8-0.8v-52.9c0-0.6,0.2-0.8,0.8-0.8h10.2c0.6,0,0.8,0.2,0.8,0.8V146
		c0,0.2,0.1,0.5,0.3,0.5c0,0,0.1,0,0.1,0h9.7c12.2,0,19.3,6.9,19.3,17.4s-7,17.6-19.3,17.6H607z M627.5,171.2c5.1,0,8.2-2.8,8.2-7.5
		s-3-7.1-8.2-7.1h-9.1c-0.3,0-0.5,0.2-0.5,0.5v13.7c0,0.3,0.2,0.5,0.5,0.5H627.5z"/>
	<path class="st1" d="M658.1,181.4c-0.6,0-0.8-0.2-0.8-0.8v-52.9c0-0.6,0.2-0.8,0.8-0.8h10.2c0.6,0,0.8,0.2,0.8,0.8v20.5
		c0,0.2,0.2,0.5,0.4,0.5c0,0,0.1,0,0.1,0h17.9c0.2,0,0.4-0.1,0.5-0.4c0,0,0-0.1,0-0.1v-20.5c0-0.6,0.2-0.8,0.8-0.8h10.2
		c0.6,0,0.8,0.2,0.8,0.8v52.9c0,0.6-0.2,0.8-0.8,0.8h-10.3c-0.6,0-0.8-0.2-0.8-0.8v-21c0-0.2-0.1-0.4-0.4-0.5c0,0-0.1,0-0.1,0h-17.9
		c-0.3,0-0.5,0.2-0.5,0.5v21c0,0.6-0.2,0.8-0.8,0.8H658.1z"/>
	<path class="st1" d="M727,127.7c0.1-0.5,0.5-0.8,1.1-0.8h10.1c0.5,0,0.9,0.3,1,0.8l18.5,52.9c0.2,0.6,0,0.8-0.6,0.8h-10.4
		c-0.5,0-1-0.3-1.1-0.8l-3.1-9.5h-19.1l-3.1,9.5c-0.1,0.5-0.5,0.8-1,0.8h-10.7c-0.6,0-0.7-0.2-0.6-0.8L727,127.7z M726.6,161.1h12.6
		L733,142h-0.2L726.6,161.1z"/>
	<path class="st1" d="M763.6,181.7c-0.6,0-0.8-0.2-0.8-0.8V172c0-0.5,0.2-0.7,0.8-0.7h1.1c2.1,0.2,4.1-1.1,4.8-3l2.2-5.3
		c0.7-1.9,2-3.5,3.7-4.7V158c-6.4-1.5-11.2-6.3-11.2-14.6c-0.1-4.4,1.7-8.7,4.9-11.8c3.6-3.3,8.3-5,13.2-4.7h22.4
		c0.4-0.1,0.7,0.2,0.7,0.5c0,0.1,0,0.1,0,0.2v53c0,0.6-0.2,0.8-0.7,0.8h-10.3c-0.6,0-0.8-0.2-0.8-0.8v-19c0-0.3-0.2-0.5-0.5-0.5h-4
		c-2.9-0.4-5.6,1.4-6.3,4.2l-3,7.5c-2.6,6.4-6.2,8.9-12.7,8.9L763.6,181.7z M793.3,151.1c0.3,0,0.5-0.2,0.5-0.5v-13
		c0-0.2-0.1-0.4-0.4-0.5c0,0-0.1,0-0.1,0h-9.7c-4.5,0-7.3,2.4-7.3,7c-0.3,3.6,2.5,6.7,6.1,7c0.4,0,0.8,0,1.2,0H793.3z"/>
	<path class="st1" d="M328.5,253.6c-0.5,0-0.7-0.2-0.7-0.8v-53c-0.1-0.3,0.2-0.7,0.5-0.7c0.1,0,0.1,0,0.2,0h40.2
		c0.6,0,0.8,0.2,0.8,0.7v53c0,0.6-0.2,0.8-0.7,0.8h-10.4c-0.5,0-0.7-0.2-0.7-0.8v-42.7c0-0.3-0.2-0.5-0.5-0.5H340
		c-0.3,0-0.5,0.2-0.5,0.5v42.7c0,0.6-0.2,0.8-0.7,0.8L328.5,253.6z"/>
	<path class="st1" d="M378.3,254c-0.6,0-0.8-0.2-0.8-0.8v-8.9c0-0.5,0.2-0.7,0.8-0.7h1.1c2.7,0,5.3-1.4,6.6-3.8
		c1.6-2.6,2.4-7.5,2.4-14.8v-25.1c0-0.5,0.2-0.7,0.8-0.7h35.8c0.5,0,0.7,0.2,0.7,0.7v53c0,0.6-0.2,0.8-0.6,0.8h-10.4
		c-0.5,0-0.7-0.2-0.7-0.8v-42.7c0-0.2-0.1-0.4-0.4-0.5c0,0-0.1,0-0.1,0h-13c-0.3,0-0.5,0.2-0.5,0.5v15.4c0,10.3-1.4,17.6-4.5,22
		c-3,4.4-8.1,6.8-13.4,6.4L378.3,254z"/>
	<path class="st1" d="M453,199.9c0.1-0.5,0.5-0.9,1.1-0.8h10.1c0.5-0.1,1,0.3,1,0.8l18.4,52.9c0.2,0.6,0,0.8-0.6,0.8h-10.4
		c-0.5,0-1-0.3-1.1-0.8l-3.1-9.5h-19.1l-3.1,9.5c-0.1,0.5-0.5,0.8-1,0.8h-10.5c-0.6,0-0.7-0.2-0.6-0.8L453,199.9z M452.7,233.3h12.6
		l-6.2-19.1h-0.2L452.7,233.3z"/>
	<path class="st1" d="M499,253.6c-0.6,0-0.8-0.2-0.8-0.8v-42.7c0-0.2-0.1-0.4-0.4-0.5c0,0-0.1,0-0.1,0h-13.8c-0.5,0-0.8-0.2-0.8-0.8
		v-8.9c0-0.6,0.2-0.8,0.8-0.8h40.4c0.6,0,0.8,0.2,0.8,0.8v8.9c0,0.6-0.2,0.8-0.8,0.8h-13.8c-0.2,0-0.5,0.1-0.5,0.3c0,0,0,0.1,0,0.1
		v42.7c0,0.6-0.2,0.8-0.8,0.8L499,253.6z"/>
	<path class="st1" d="M553.7,254.6c-0.5,0-0.7-0.2-0.7-0.8v-5.9c0-0.3-0.2-0.5-0.5-0.5c-16.1-1-23.2-8.3-23.2-22.2
		c0-13.4,7.7-20.5,23.2-21.3c0.3,0,0.5-0.2,0.5-0.5v-4.5c0-0.5,0.2-0.7,0.8-0.7H564c0.4-0.1,0.7,0.2,0.7,0.5c0,0.1,0,0.1,0,0.2v4.5
		c0,0.3,0.2,0.5,0.5,0.5c15.5,0.7,23.3,7.8,23.3,21.3c0,14-7.2,21.2-23.3,22.2c-0.3,0-0.5,0.2-0.5,0.5v5.9c0,0.6-0.2,0.8-0.7,0.8
		L553.7,254.6z M553,236.7v-22.2c0-0.2-0.2-0.4-0.5-0.4c-7.8,0.3-11.4,3.6-11.4,11.6c0,7.5,3.6,11,11.4,11.6c0.2,0,0.4-0.1,0.5-0.4
		C553,236.8,553,236.7,553,236.7L553,236.7z M576.7,225.5c0-7.9-3.6-11.2-11.4-11.6c-0.4,0-0.6,0.2-0.6,0.4v22.3
		c0,0.3,0.2,0.5,0.6,0.5c7.8-0.5,11.4-4,11.4-11.5L576.7,225.5z"/>
	<path class="st1" d="M596.9,226.4c-0.2-5,0.3-10,1.5-14.9c2.8-8.7,10.2-13.2,19.9-13.2c9.7,0,17.1,4.5,19.9,13.2
		c1.2,4.9,1.7,9.9,1.5,14.9c0.2,5-0.3,10.1-1.5,14.9c-2.8,8.7-10.2,13.2-19.9,13.2s-17.1-4.5-19.9-13.2
		C597.2,236.4,596.7,231.4,596.9,226.4z M627.8,226.4c0.2-3.9-0.1-7.8-0.9-11.7c-1.7-4.7-7-7.2-11.7-5.5c-2.5,0.9-4.5,2.9-5.5,5.5
		c-0.8,3.8-1.1,7.8-0.9,11.7c-0.2,3.9,0.1,7.9,0.9,11.7c1.7,4.7,7,7.2,11.7,5.5c2.5-0.9,4.5-2.9,5.5-5.5
		C627.6,234.2,627.9,230.3,627.8,226.4L627.8,226.4z"/>
	<path class="st1" d="M651.5,253.6c-0.6,0-0.8-0.2-0.8-0.8v-52.9c0-0.6,0.2-0.8,0.8-0.8h21.2c5.1-0.3,10.1,1.4,13.9,4.8
		c6.8,7.1,6.8,18.3,0,25.4c-3.8,3.4-8.8,5.1-13.9,4.8h-9.7c-0.2,0-0.4,0.1-0.5,0.4c0,0,0,0.1,0,0.1v18.2c0,0.6-0.2,0.8-0.8,0.8
		L651.5,253.6z M671.9,224c4.9,0,7.9-2.8,7.9-7.3s-3-7.4-7.9-7.4H663c-0.3,0-0.5,0.2-0.5,0.5v13.7c0,0.3,0.2,0.5,0.5,0.5L671.9,224z
		"/>
	<path class="st1" d="M702,253.6c-0.6,0-0.8-0.2-0.8-0.8v-52.9c0-0.6,0.2-0.8,0.8-0.8h9.5c0.6-0.1,1.1,0.3,1.3,0.8l13.7,31.1h0.3
		l13.5-31.1c0.2-0.5,0.7-0.9,1.3-0.8h9.4c0.6,0,0.8,0.2,0.8,0.8v52.9c0,0.6-0.2,0.8-0.8,0.8h-8.9c-0.6,0-0.8-0.2-0.8-0.8v-30.7h-0.3
		l-10.1,23c-0.2,0.6-0.8,1.1-1.5,1h-5.5c-0.7,0-1.3-0.4-1.5-1l-10.1-23H712v30.7c0,0.6-0.2,0.8-0.8,0.8H702z"/>
	<path class="st1" d="M779.4,199.9c0.1-0.5,0.5-0.9,1.1-0.8h10.1c0.5-0.1,1,0.3,1.1,0.8l18.4,52.9c0.2,0.6,0,0.8-0.6,0.8H799
		c-0.5,0-1-0.3-1.1-0.8l-3.1-9.5h-19.1l-3,9.5c-0.1,0.5-0.5,0.9-1.1,0.8h-10.5c-0.6,0-0.7-0.2-0.6-0.8L779.4,199.9z M779.1,233.3
		h12.6l-6.2-19.1h-0.2L779.1,233.3z"/>
</g>
</svg>
