<?xml version="1.0" encoding="UTF-8"?>
<svg id="Layer_1" data-name="Layer 1" xmlns="http://www.w3.org/2000/svg" xmlns:xlink="http://www.w3.org/1999/xlink" viewBox="0 0 853.13 295.97">
  <defs>
    <style>
      .cls-1, .cls-2 {
        fill: none;
      }

      .cls-3 {
        fill: #0f0f0f;
      }

      .cls-4 {
        fill: #43cd72;
      }

      .cls-2 {
        clip-path: url(#clippath);
      }
    </style>
    <clipPath id="clippath">
      <rect class="cls-1" width="853.13" height="295.97"/>
    </clipPath>
  </defs>
  <g class="cls-2">
    <g>
      <path class="cls-4" d="m712.21,7.08c5.05,0,7.19,4.76,6.93,7.34-.16,1.62-1.61,18.16-1.61,18.16h-25.16l.99-11.69h-6.35l-2.76,31.26h6.35l1.09-12.6h25.16s-1.35,16.29-1.67,18.97c-.47,4.5-2.6,7.44-8.12,7.44h-41.67c-4.69,0-7.24-4.2-6.88-7.89.21-2.33,3.7-42.34,3.85-44.27.31-3.29,2.76-6.73,7.86-6.73h41.98Zm0-7.08h-41.93c-4.32,0-8.07,1.47-10.89,4.25-2.4,2.33-3.91,5.51-4.22,8.9-.1.96-3.75,43.1-3.85,44.27-.42,4.05,1.04,8.3,3.8,11.23,2.66,2.83,6.3,4.4,10.31,4.4h41.67c8.75,0,14.48-5.16,15.42-13.81.31-2.73,3.75-42.65,3.91-44.27.31-3.69-1.2-7.79-3.91-10.67-2.71-2.78-6.35-4.3-10.31-4.3Z"/>
      <path class="cls-3" d="m487.67,46.52c27.51,0,39.43,15.86,39.43,39.3s-11.92,39.16-39.43,39.16c-11.52,0-20.19-2.17-26.29-6.37v30.35h-24.39V49.64h20.73l.27,8.27c6.5-6.91,16.13-11.38,29.68-11.38Zm-6.37,59.22c12.87,0,21.41-5.01,21.41-19.92s-8.54-19.92-21.41-19.92c-14.64,0-21.95,7.72-21.95,19.92s7.32,19.92,21.95,19.92Z"/>
      <path class="cls-3" d="m397.33,49.64h26.15l-22.49,66.4c-10.57,31.3-15.45,33.06-42.55,33.06h-16.53v-18.16h17.21c11.93,0,14.64-2.44,16.67-8.94h-20.06l-26.29-72.36h26.97l18.43,58.41h4.88l17.62-58.41Z"/>
      <path class="cls-3" d="m277.59,124.44c-27.51,0-45.53-10.57-45.53-39.84v-10.43c0-42.01,18.7-48.92,50-48.92h1.76c9.21,0,14.36-.54,14.36-3.52h23.31c0,15.72-9.35,21.82-35.37,21.82h-4.88c-21.95,0-27.51,4.88-28.59,21.41h.68c4.74-9.35,12.87-14.36,29.68-14.36,26.02,0,40.52,11.38,40.52,36.32s-17.21,37.54-45.94,37.54Zm-.14-19.11c11.79,0,20.87-4.88,20.87-18.57,0-12.6-7.72-18.02-20.87-18.02s-20.87,5.42-20.87,18.02c0,13.69,9.08,18.57,20.87,18.57Z"/>
      <path class="cls-3" d="m125.34,122V49.64h23.85v60.57h2.17c7.59-21.95,12.87-38.49,21.82-60.57h40.25v72.36h-23.85v-60.57h-2.17c-7.72,21.95-13.28,38.49-21.82,60.57h-40.25Z"/>
      <path class="cls-3" d="m55.56,123.9C20.6,123.9,0,108.99,0,74.84S20.6,25.79,55.56,25.79c30.08,0,49.06,10.98,54.07,35.23l-28.32-.14c-3.39-8.4-10.98-13.28-25.75-13.28-21.68,0-27.78,10.98-27.78,27.1s6.1,27.24,27.78,27.24c14.91,0,22.5-5.42,25.88-13.96h28.32c-4.74,24.8-23.85,35.91-54.21,35.91Z"/>
      <path class="cls-3" d="m809.36,185.8c-19.92,0-33.88-4.47-33.88-21.01h22.9c0,6.23,1.76,9.89,10.98,9.89s10.84-3.66,10.84-9.89h23.17c0,16.53-13.96,21.01-34.01,21.01Zm-44.31,83.21v-72.36h23.85v60.57h2.17c7.59-21.95,12.87-38.49,21.82-60.57h40.25v72.36h-23.85v-60.58h-2.17c-7.73,21.95-13.28,38.49-21.82,60.58h-40.25Z"/>
      <path class="cls-3" d="m701.84,272.12c-29.14,0-46.48-12.06-46.48-39.3s17.35-39.3,46.48-39.3,46.48,12.06,46.48,39.3-17.34,39.3-46.48,39.3Zm0-19.38c16.8,0,22.09-7.32,22.09-19.92s-5.29-19.92-22.09-19.92-22.09,7.18-22.09,19.92,5.28,19.92,22.09,19.92Z"/>
      <path class="cls-3" d="m631.77,230.79c6.91,1.63,12.6,8.27,12.6,16.67,0,15.18-9.21,21.55-28.19,21.55h-51.36v-72.36h50.82c16.8,0,26.97,4.74,26.97,18.57,0,7.32-4.47,12.2-10.84,14.91v.68Zm-20.73-18.97h-21.82v13.01h21.82c5.15,0,7.05-2.71,7.05-6.37,0-3.93-1.9-6.64-7.05-6.64Zm.54,41.2c5.29,0,7.59-2.98,7.59-6.64,0-4.07-2.03-6.91-7.45-6.91h-22.49v13.55h22.36Z"/>
      <path class="cls-3" d="m501.61,272.12c-29.14,0-46.48-12.06-46.48-39.3s17.35-39.3,46.48-39.3,46.48,12.06,46.48,39.3-17.35,39.3-46.48,39.3Zm0-19.38c16.8,0,22.09-7.32,22.09-19.92s-5.29-19.92-22.09-19.92-22.09,7.18-22.09,19.92,5.29,19.92,22.09,19.92Z"/>
      <path class="cls-3" d="m404.03,193.52c27.51,0,39.43,15.85,39.43,39.3s-11.92,39.16-39.43,39.16c-11.52,0-20.19-2.17-26.29-6.37v30.36h-24.39v-99.33h20.73l.27,8.27c6.51-6.91,16.13-11.38,29.68-11.38Zm-6.37,59.22c12.87,0,21.41-5.01,21.41-19.92s-8.54-19.92-21.41-19.92c-14.64,0-21.95,7.72-21.95,19.92s7.32,19.92,21.95,19.92Z"/>
      <path class="cls-3" d="m271.77,295.7v-23.99c-27.64-.27-42.96-13.14-42.96-39.03s15.45-38.49,42.96-39.3v-26.29h23.04v26.29c27.51.81,42.96,13.28,42.96,39.3s-15.04,38.76-42.96,39.03v23.99h-23.04Zm.27-41.74v-42.55c-15.99.41-19.92,8.27-19.92,21.28,0,13.69,3.93,20.87,19.92,21.28Zm22.5,0c15.99-.41,19.92-7.59,19.92-21.28s-3.93-20.87-19.92-21.28v42.55Z"/>
      <path class="cls-3" d="m125.2,269v-72.36h23.85v60.57h2.17c7.59-21.95,12.87-38.49,21.82-60.57h40.25v72.36h-23.85v-60.58h-2.17c-7.72,21.95-13.28,38.49-21.82,60.58h-40.25Z"/>
      <path class="cls-3" d="m96.76,247.32h14.5c-.27,3.52-.54,9.76-.68,15.45l-.54,28.05h-23.31v-21.82H6.1v-94.59h26.56v72.91h37.54v-72.91h26.56v72.91Z"/>
    </g>
  </g>
</svg>