<svg width="512" height="225" viewBox="0 0 512 225" fill="none" xmlns="http://www.w3.org/2000/svg">
<path d="M204.081 153.913C195.853 153.913 188.392 152.028 181.702 148.26C175.01 144.493 169.742 139.418 165.896 133.036C162.128 126.576 160.244 119.503 160.244 111.814C160.244 104.124 162.128 97.0501 165.896 90.5912C169.742 84.1322 175.01 79.0574 181.702 75.3666C199.791 65.1806 226.756 66.9914 238.206 87.1711L224.004 95.391C216.635 84.5926 201.772 82.7106 190.699 88.9765C186.7 91.2833 183.547 94.4743 181.24 98.5496C178.932 102.548 177.779 106.969 177.779 111.814C177.779 116.658 178.932 121.079 181.24 125.078C183.624 129.076 186.816 132.229 190.815 134.536C194.815 136.841 199.237 137.995 204.081 137.995C208.005 137.995 211.658 137.303 215.041 135.919C218.425 134.536 220.925 133.036 222.54 131.421V121.848H206.042V108.353H238.206V137.995C233.656 144.999 226.845 148.86 219.079 151.49C214.311 153.105 209.312 153.913 204.081 153.913Z" fill="#0762C8"/>
<path d="M278.163 153.87C272.626 153.87 267.488 152.028 262.874 149.414C258.336 146.799 254.721 143.263 252.03 138.802C249.415 134.343 248.108 129.46 248.108 124.155C248.108 118.849 249.415 113.967 252.03 109.507C254.645 105.047 258.182 101.548 262.644 99.011C267.104 96.3966 271.987 95.0895 277.295 95.0895C282.601 95.0895 287.408 96.3198 291.715 98.7803C296.022 101.241 299.405 104.586 301.867 108.815C304.328 113.044 305.559 117.773 305.559 123.001C305.559 125.155 305.366 127.191 304.982 129.114H264.259C264.72 132.036 266.335 134.612 269.103 136.841C271.949 138.995 275.395 140.606 279.318 140.606C284.701 140.606 289.485 138.149 293.791 134.305L305.176 140.856C301.306 144.852 297.379 148.297 292.176 150.567C287.947 152.413 283.317 153.87 278.163 153.87ZM289.754 118.388C289.062 115.312 287.601 112.813 285.369 110.891C283.216 108.969 280.525 108.007 277.295 108.007C273.911 108.007 271.103 108.969 268.873 110.891C266.643 112.813 265.066 115.312 264.143 118.388H289.754Z" fill="#0762C8"/>
<path d="M315.461 152.182V96.2429H331.036V104.201H331.382C332.459 101.894 334.381 99.8184 337.15 97.9729C339.918 96.0506 343.188 95.0895 346.956 95.0895C350.801 95.0895 354.146 96.0891 356.993 98.0883C359.838 100.011 361.838 102.164 362.991 104.547H363.453C364.76 102.164 367.106 100.011 370.49 98.0883C373.951 96.0891 377.911 95.0895 382.373 95.0895C385.987 95.0895 389.256 96.0506 392.178 97.9729C395.178 99.8953 397.562 102.663 399.331 106.277C401.1 109.891 401.984 114.12 401.984 118.964V152.182H386.41V120.464C386.41 117.081 385.526 114.466 383.757 112.621C382.065 110.699 379.872 109.737 377.181 109.737C374.105 109.737 371.567 110.852 369.568 113.082C367.567 115.312 366.567 118.349 366.567 122.194V152.182H350.993V120.464C350.993 117.081 350.109 114.466 348.34 112.621C346.648 110.699 344.457 109.737 341.764 109.737C338.611 109.737 336.035 110.852 334.035 113.082C332.036 115.312 331.036 118.349 331.036 122.194V152.182H315.461Z" fill="#0762C8"/>
<path d="M433.296 153.828C428.22 153.828 423.528 152.79 419.222 150.714C414.053 148.132 410.51 145.193 406.869 140.856L418.299 134.221C419.837 135.913 421.836 137.451 424.297 138.835C426.759 140.142 429.412 140.796 432.258 140.796C434.642 140.796 436.449 140.373 437.679 139.527C438.987 138.604 439.641 137.412 439.641 135.951C439.641 134.567 438.871 133.49 437.333 132.721C435.872 131.875 433.527 130.954 430.297 129.954C426.528 128.723 423.413 127.038 420.952 125.885C418.568 124.732 416.453 123.04 414.607 120.81C412.837 118.503 411.953 115.543 411.953 111.929C411.953 108.853 412.799 106.047 414.492 103.509C416.261 100.895 418.76 98.8572 421.99 97.3962C425.297 95.8584 429.182 95.0895 433.642 95.0895C442.736 95.0895 449.624 99.1163 456.138 105.265L444.588 111.988C442.073 109.63 438.796 108.007 435.372 108.007C433.219 108.007 431.527 108.43 430.297 109.276C429.066 110.045 428.451 111.006 428.451 112.16C428.451 113.467 429.143 114.505 430.527 115.274C431.988 116.043 434.372 116.965 437.679 118.042C441.449 119.272 444.563 120.502 447.024 121.733C449.485 122.886 451.6 124.616 453.37 126.922C455.215 129.229 456.138 132.683 456.138 136.297C456.138 139.527 455.254 142.487 453.485 145.178C451.716 147.793 449.1 149.908 445.64 151.521C442.179 153.059 438.064 153.828 433.296 153.828Z" fill="#0762C8"/>
<path d="M130.665 142.145L130.713 55.76L55.9253 98.9939L84.1487 115.289L102.449 104.716L102.442 125.85L130.665 142.145Z" fill="#0762C8"/>
<path d="M94.6987 132.994L81.8285 140.431L81.8332 125.567L65.5303 116.154L65.5336 168.654L111.002 142.407L94.6987 132.994Z" fill="#0762C8"/>
</svg>
