<svg width="24" height="24" viewBox="0 0 24 24" fill="none" xmlns="http://www.w3.org/2000/svg">
<path d="M6.45996 17.5427C7.48896 18.5717 8.67796 19.3617 9.95296 19.8737L5.16996 21.7458C4.89696 21.8528 4.61496 21.9047 4.33796 21.9047C3.75696 21.9047 3.19296 21.6757 2.75896 21.2417C2.11696 20.5997 1.92396 19.6767 2.25496 18.8307L4.13596 14.0247C4.66996 15.3407 5.45696 16.5397 6.45996 17.5427ZM6.16996 8.82075L5.00996 11.8007L5.15996 12.3607C5.56996 13.9307 6.38996 15.3507 7.51996 16.4807C8.69996 17.6607 10.11 18.4707 11.61 18.8307L12.23 18.9807L15.17 17.8307C13.07 16.8907 10.98 14.9607 10.01 13.9907C9.01996 13.0007 7.10996 10.9207 6.16996 8.82075ZM9.05796 5.11875C8.26996 4.99375 7.48896 5.45275 7.18996 6.21775C7.18796 6.22375 7.18596 6.22875 7.18396 6.23475C7.15396 6.30675 7.13596 6.38375 7.12896 6.46575C7.00096 8.19575 9.17296 11.0277 11.073 12.9277C12.919 14.7737 15.645 16.8767 17.385 16.8767C17.436 16.8767 17.486 16.8747 17.535 16.8717C17.61 16.8657 17.712 16.8377 17.782 16.8107C18.547 16.5117 19.009 15.7257 18.881 14.9417C18.641 13.4787 17.14 11.2168 14.962 9.03875C12.784 6.86075 10.521 5.35675 9.05796 5.11875ZM21.733 11.1327C21.024 10.2767 20.023 9.74775 18.915 9.64375C18.509 9.60375 18.137 9.90775 18.099 10.3207C18.06 10.7327 18.363 11.0987 18.776 11.1367C19.484 11.2027 20.125 11.5417 20.579 12.0897C20.727 12.2687 20.941 12.3607 21.157 12.3607C21.325 12.3607 21.495 12.3037 21.635 12.1887C21.954 11.9247 21.997 11.4517 21.733 11.1327ZM13.25 5.41475C13.25 5.82875 13.586 6.16475 14 6.16475C14.414 6.16475 14.75 5.82875 14.75 5.41475C14.75 4.30275 14.317 3.25675 13.53 2.47075C13.237 2.17775 12.762 2.17775 12.469 2.47075C12.176 2.76375 12.176 3.23875 12.469 3.53175C12.965 4.02775 13.249 4.71475 13.249 5.41575L13.25 5.41475ZM18 6.75075C18.192 6.75075 18.384 6.67775 18.53 6.53075L21.53 3.53075C21.823 3.23775 21.823 2.76275 21.53 2.46975C21.237 2.17675 20.762 2.17675 20.469 2.46975L17.469 5.46975C17.176 5.76275 17.176 6.23775 17.469 6.53075C17.615 6.67675 17.808 6.75075 18 6.75075Z" fill="#1A2025"/>
</svg>
