<?xml version="1.0" encoding="utf-8"?>
<!-- Generator: Adobe Illustrator 24.3.0, SVG Export Plug-In . SVG Version: 6.00 Build 0)  -->
<svg version="1.1" id="Layer_1" xmlns="http://www.w3.org/2000/svg" xmlns:xlink="http://www.w3.org/1999/xlink" x="0px" y="0px"
	 viewBox="0 0 514.66 161.37" style="enable-background:new 0 0 514.66 161.37;" xml:space="preserve">
<style type="text/css">
	.st0{clip-path:url(#SVGID_2_);fill:#282727;}
	.st1{clip-path:url(#SVGID_2_);fill:#CA9E67;}
</style>
<g>
	<defs>
		<rect id="SVGID_1_" width="514.66" height="161.37"/>
	</defs>
	<clipPath id="SVGID_2_">
		<use xlink:href="#SVGID_1_"  style="overflow:visible;"/>
	</clipPath>
	<path class="st0" d="M103.72,20.68V0.14H13.58L6.1,46.62l19.64,15.52c3.22-2.86,7.74-5.3,13.44-7.26
		c6.38-2.18,12.52-3.28,18.24-3.28c22.64,0,22.64,9.6,22.64,12.76c0,3.88-2.14,6.84-6.54,9.08c-4.8,2.44-11.56,3.68-20.08,3.68
		c-21.3,0-37.9-6.42-47.9-13.36l-1.98-1.38L0,84.44l1.16,0.7c10.36,6.3,29.2,12.48,53.42,12.48c15.16,0,27.18-2.86,35.74-8.5
		c8.84-5.82,13.34-13.78,13.34-23.64S99.94,47.6,92.62,41.64c-7.2-5.84-17.96-8.82-32-8.82c-6.66,0-13.7,1.04-20.92,3.1
		c-5.08,1.44-9.82,3.62-14.18,6.38l4.64-21.66h73.56V20.68z M498.56,13.26C488,4.46,473.56,0,455.7,0
		c-17.8,0-32.18,4.46-42.74,13.26c-10.68,8.88-16.1,20.86-16.1,35.56c0,14.72,5.42,26.68,16.1,35.56
		c10.56,8.8,24.94,13.26,42.74,13.26c17.88,0,32.3-4.46,42.86-13.26c10.68-8.88,16.1-20.86,16.1-35.56S509.24,22.16,498.56,13.26z
		 M429.76,28.08c6.3-5.06,15.02-7.64,25.92-7.64c11,0,19.78,2.56,26.12,7.64c6.28,5.02,9.34,11.82,9.34,20.76
		s-3.06,15.72-9.34,20.76c-6.34,5.06-15.12,7.64-26.12,7.64c-10.92,0-19.64-2.56-25.92-7.64c-6.24-5.02-9.28-11.82-9.28-20.76
		S423.52,33.1,429.76,28.08z M378.72,41.68c-7.2-5.84-17.96-8.82-32-8.82c-6.66,0-13.7,1.04-20.92,3.1
		c-5.78,1.64-11.12,4.16-15.94,7.5c0.84-6.54,3.62-11.66,8.44-15.56c5.9-4.8,14.3-7.22,24.96-7.22c13.84,0,26.1,2.98,36.42,8.84
		l3.16,1.8V8.4l-1.18-0.58c-10.34-5.08-22.88-7.66-37.24-7.66c-17.94,0-32.28,4.14-42.62,12.32c-10.5,8.3-15.82,20.1-15.82,35.08
		c0,16.48,5,29.12,14.86,37.54c9.76,8.34,23.18,12.56,39.86,12.56c15.16,0,27.18-2.86,35.74-8.5c8.84-5.82,13.34-13.78,13.34-23.64
		C389.78,55.64,386.06,47.62,378.72,41.68z M366.16,64.36c0,3.88-2.14,6.84-6.54,9.08c-4.8,2.44-11.56,3.68-20.08,3.68
		c-7.36,0-13.6-1.5-18.54-4.44c-4.48-2.68-7.48-6.12-9.16-10.54c3.22-2.86,7.74-5.3,13.44-7.26c6.38-2.18,12.52-3.28,18.24-3.28
		C366.16,51.6,366.16,61.2,366.16,64.36z M212.52,13.26C201.96,4.46,187.52,0,169.66,0c-17.8,0-32.18,4.46-42.74,13.26
		c-10.68,8.88-16.08,20.86-16.08,35.56c0,14.72,5.42,26.68,16.08,35.56c10.56,8.8,24.94,13.26,42.74,13.26
		c17.88,0,32.3-4.46,42.86-13.26c10.68-8.88,16.1-20.86,16.1-35.56C228.6,34.12,223.2,22.16,212.52,13.26z M143.72,28.08
		c6.3-5.06,15.02-7.64,25.92-7.64c11,0,19.78,2.56,26.12,7.64c6.28,5.02,9.34,11.82,9.34,20.76s-3.06,15.72-9.34,20.76
		c-6.34,5.06-15.12,7.64-26.12,7.64c-10.9,0-19.64-2.56-25.92-7.64c-6.24-5.02-9.28-11.82-9.28-20.76S137.48,33.1,143.72,28.08z"/>
	<rect x="253.46" y="29.92" class="st1" width="7.68" height="37.94"/>
	<path class="st0" d="M390.95,144.47c-6.13-6.19-21.47,0.06-23.65-4.57c-0.36-0.76-0.21-1.52-0.04-1.95
		c1.4-3.53,11.93-3.88,19.91-1.42c1.21,0.37,2.14,0.75,2.6,0.93v-5.78c-13.79-4.35-25.22-2.14-28.2,3.35
		c-1.41,2.61-1.42,6.86,1.01,9.48c5.58,6.02,20.85-0.11,23.33,4.72c0.64,1.25,0.07,2.55-0.02,2.76c-1.08,2.33-5.1,3.21-8.55,3.24
		c-5.5,0.06-10.59-1.44-15.56-3.81c-0.02,2.12,0.02,4.23,0,6.35c1.7,0.95,4.29,2.18,7.62,2.9c8.24,1.79,20.68,0.42,23.26-6.59
		C393.68,151.27,393.45,146.98,390.95,144.47z M433.63,129.62l-20.61,15.7l21.44,16.04h-9.44l-16.43-11.39v11.39h-6.23v-31.75h6.23
		v11.57l15.6-11.57H433.63z M352.12,129.62v31.75h-6.23v-19.88l-7.81,11.24h-4.03l-7.8-11.24v19.88h-6.24v-31.75h6.72l9.33,14.81
		l9.35-14.81H352.12z M295.88,161.37c-2.2,0-4.26-0.41-6.19-1.23c-1.92-0.83-3.61-1.98-5.07-3.42c-1.45-1.45-2.59-3.14-3.42-5.05
		c-0.82-1.92-1.23-3.98-1.23-6.17c0-2.19,0.41-4.25,1.23-6.17c0.83-1.92,1.97-3.6,3.42-5.05c1.46-1.45,3.15-2.59,5.07-3.4
		c1.93-0.83,3.99-1.24,6.19-1.24s4.25,0.41,6.17,1.24c1.93,0.82,3.62,1.96,5.07,3.4c1.46,1.45,2.6,3.14,3.42,5.05
		c0.83,1.92,1.25,3.98,1.25,6.17c0,2.19-0.42,4.24-1.25,6.17c-0.82,1.92-1.96,3.6-3.42,5.05c-1.45,1.45-3.14,2.59-5.07,3.42
		C300.14,160.96,298.07,161.37,295.88,161.37z M295.88,135.95c-1.76,0-3.35,0.43-4.8,1.29c-1.45,0.86-2.6,2.01-3.47,3.45
		c-0.86,1.44-1.28,3.03-1.28,4.79s0.42,3.35,1.28,4.81c0.87,1.44,2.02,2.59,3.47,3.45c1.45,0.86,3.05,1.28,4.8,1.28
		s3.35-0.43,4.8-1.28c1.45-0.87,2.6-2.02,3.45-3.45c0.87-1.45,1.3-3.05,1.3-4.81s-0.43-3.35-1.3-4.79
		c-0.86-1.45-2.01-2.61-3.45-3.45C299.24,136.39,297.64,135.95,295.88,135.95z M236.29,154.82v-25.45h-6.37v31.89h31.59v-6.44
		H236.29z M98.94,142.1H80.1v-12.73h-6.37v31.92h6.37v-12.74h18.84v12.74h6.39v-31.92h-6.39V142.1z M190.24,161.26h31.61v-6.44
		h-25.23v-6.52h19.64v-6.44h-19.64v-6.03h25.23v-6.45h-31.61V161.26z M150.56,135.83h12.62v25.43h6.37v-25.43h12.62v-6.45h-31.61
		V135.83z M129.19,129.37c-8.72,0-15.79,7.16-15.79,15.95s7.09,15.95,15.79,15.95c8.72,0,15.79-7.16,15.79-15.95
		S137.9,129.37,129.19,129.37z M138.61,145.33c0,5.24-4.23,9.51-9.42,9.51s-9.42-4.27-9.42-9.51s4.23-9.51,9.42-9.51
		S138.61,140.08,138.61,145.33z"/>
</g>
</svg>
