<svg width="36" height="24" viewBox="0 0 36 24" fill="none" xmlns="http://www.w3.org/2000/svg">
<path d="M33.5879 10.2738C33.3807 9.92842 33.0353 9.7212 32.6899 9.65212C30.7559 9.37583 28.2001 7.78714 27.0259 7.51084C24.4702 6.88918 18.0463 5.784 15.6288 6.68196C11.6916 8.27065 10.7245 9.37583 10.0338 9.65212C7.54714 9.92842 5.33679 10.4119 3.33365 11.0336C3.05736 11.1717 2.85014 11.3099 2.64292 11.5171C1.67589 12.5532 1.33052 13.7965 1.46867 15.2471C1.60681 16.2832 2.50477 17.043 3.54087 17.043C3.40273 16.6286 3.33365 16.2141 3.33365 15.7997C3.33365 13.4512 5.26771 11.5171 7.61622 11.5171C9.96472 11.5171 11.8988 13.4512 11.8988 15.7997C11.8988 16.2141 11.8297 16.6976 11.6916 17.043H23.9176C23.7794 16.6286 23.7104 16.2141 23.7104 15.7997C23.7104 13.4512 25.6444 11.5171 27.9929 11.5171C30.3414 11.5171 32.2755 13.4512 32.2755 15.7997C32.2755 16.2141 32.2064 16.5595 32.1373 16.9049C32.6209 16.7667 33.1734 16.6286 33.7951 16.2832C34.1405 16.076 34.3477 15.7306 34.4168 15.3162C34.7621 13.5893 34.4858 11.8625 33.5879 10.2738ZM18.7371 9.92842L12.5895 10.1356L12.106 9.99749C13.2803 9.23768 14.5927 8.61602 16.1123 7.99436C16.1813 7.99436 16.2504 7.92528 16.3195 7.92528C17.0793 7.78713 17.9082 7.78714 18.7371 7.78714V9.92842ZM26.0589 9.65212L20.1185 9.85934V7.85621C22.0526 7.92528 24.1248 8.27065 26.4733 8.82324L26.0589 9.65212Z" fill="white"/>
<path d="M4.78418 15.7995C4.78418 14.2108 6.09658 12.8984 7.68527 12.8984C9.27396 12.8984 10.5864 14.2108 10.5864 15.7995C10.5864 17.3882 9.27396 18.7006 7.68527 18.7006C6.09658 18.7006 4.78418 17.3882 4.78418 15.7995Z" fill="white"/>
<path d="M31.0317 15.7995C31.0317 17.3882 29.7193 18.7006 28.1306 18.7006C26.5419 18.7006 25.2295 17.3882 25.2295 15.7995C25.2295 14.2108 26.5419 12.8984 28.1306 12.8984C29.7193 12.8984 31.0317 14.2108 31.0317 15.7995Z" fill="white"/>
</svg>
