<?xml version="1.0" encoding="utf-8"?>
<!-- Generator: Adobe Illustrator 27.6.1, SVG Export Plug-In . SVG Version: 6.00 Build 0)  -->
<svg version="1.1" id="Layer_1" xmlns="http://www.w3.org/2000/svg" xmlns:xlink="http://www.w3.org/1999/xlink" x="0px" y="0px"
	 viewBox="0 0 1391.28 451.05" style="enable-background:new 0 0 1391.28 451.05;" xml:space="preserve">
<style type="text/css">
	.st0{display:none;}
</style>
<rect class="st0" width="1391.28" height="451.05"/>
<g>
	<g>
		<path d="M54.82,321.48H0v59.45c0,8.81,7.16,15.97,15.97,15.97h107.92l48.91,54.15l48.9-54.15h107.92
			c8.81,0,15.97-7.16,15.97-15.97v-59.45h-54.82v61.86H54.82V321.48z"/>
		<path d="M329.62,0H15.97C7.16,0,0,7.16,0,15.97v59.45h54.82V13.56h235.95v61.86h54.82V15.97C345.59,7.16,338.43,0,329.62,0z"/>
		<path d="M141.54,322.52c10.49,0.58,21,0.88,31.23,0.88c10.23,0,20.74-0.3,31.23-0.88c53.26-3.09,95.86-46.35,99.1-100.63
			c0.02-0.29,2.22-27.17,0-55.03l0-0.02c-3.23-54.34-45.84-97.64-99.1-100.72c-10.46-0.58-20.97-0.88-31.23-0.88
			c-10.27,0-20.78,0.3-31.23,0.88c-53.26,3.08-95.86,46.38-99.1,100.72c-2.22,27.88-0.02,54.76,0,55.03
			C45.67,276.17,88.28,319.43,141.54,322.52z M74.14,102.4H271.4v183.91H74.14V102.4z"/>
	</g>
	<polygon points="1089.35,290.71 1119.98,290.71 1119.98,143.9 1185.61,143.9 1185.61,108.56 1023.71,108.56 1023.71,143.9 
		1089.35,143.9 	"/>
	<polygon points="999.76,108.56 874.54,108.56 874.54,290.71 905.18,290.71 905.18,143.9 999.76,143.9 	"/>
	<path d="M628.07,108.57c-0.15,0-1.12,0-2.28,0.01c-0.02,1.65-0.02,3.16-0.02,3.45v179.42h30.61V146.49l4.85,10.49l55.29,120.22
		h36.37c11.71-26.12,58.43-130.29,58.43-130.29l1.91-4.26v148.81h30.74V108.57h-44.14c-14.57,30.93-63.48,134.74-63.48,134.74
		l-0.9,1.9l-65.5-136.65H628.07z"/>
	<path d="M1207.75,109.65l77.99,140.14l-0.58,0.53c-3.81,3.52-8.77,5.46-13.98,5.46h-35.61v34.58h33.01
		c19.94,0,40.79-13.02,49.58-30.96l73.11-149.75h-36.14l-51.5,105.41l-58.69-105.41H1207.75z"/>
	<path d="M503.24,101.19c-13.59,0-49.68,0-71.81,22.13c-22.81,22.81-22.81,62.16-22.81,75.09c0,52.27,17.17,69.45,22.81,75.09
		c22.13,22.13,58.22,22.13,71.81,22.13c13.59,0,49.68,0,71.81-22.13c22.81-22.81,22.81-62.16,22.81-75.09
		c0-52.27-17.17-69.45-22.81-75.09C552.92,101.19,516.83,101.19,503.24,101.19z M555.08,244.17
		c-14.77,15.96-39.81,15.96-51.84,15.96c-12.03,0-37.06,0-51.83-15.96c-12.21-13.19-12.21-35.18-12.21-45.75
		c0-10.58,0-32.57,12.21-45.76c14.77-15.96,39.8-15.96,51.83-15.96c12.03,0,37.06,0,51.84,15.96
		c12.21,13.19,12.21,35.18,12.21,45.75C567.29,208.98,567.29,230.97,555.08,244.17z"/>
</g>
</svg>
