<svg width="315" height="121" viewBox="0 0 315 121" fill="none" xmlns="http://www.w3.org/2000/svg">
<g clip-path="url(#clip0_1112_2450)">
<path d="M208.3 0.0996094C202 0.0996094 196.9 5.19961 196.9 11.4996V23.3996C196.9 29.6996 191.8 34.7996 185.5 34.7996H11.8004C5.50039 34.7996 0.400391 39.8996 0.400391 46.1996V109.2C0.400391 115.5 5.50039 120.6 11.8004 120.6H218C224.3 120.6 229.4 115.5 229.4 109.2V96.8996C229.4 90.5996 234.5 85.4996 240.8 85.4996H304C310.3 85.4996 315.4 80.3996 315.4 74.0996V11.4996C315.4 5.19961 310.3 0.0996094 304 0.0996094H208.3Z" fill="url(#paint0_linear_1112_2450)"/>
<mask id="mask0_1112_2450" style="mask-type:luminance" maskUnits="userSpaceOnUse" x="-42" y="-43" width="400" height="207">
<path d="M358 -43H-42V163.5H358V-43Z" fill="white"/>
</mask>
<g mask="url(#mask0_1112_2450)">
<path d="M54.4 83.0998C54.4 88.4998 49.2 92.6998 39 92.6998C31.7 92.6998 25.3 90.3998 21.5 87.0998L25.3 82.3998C28.2 84.8998 33.1 86.5998 39.2 86.5998C43.7 86.5998 47.1 85.7998 47.1 83.5998C47.1 81.5998 44 80.7998 38 80.3998C30.1 79.7998 22.5 77.8998 22.5 71.5998C22.5 66.0998 27.6 62.2998 38.2 62.2998C44.1 62.2998 49.6 64.1998 53 66.4998L49.4 71.4998C46.5 69.5998 42.8 68.2998 37.8 68.2998C34.5 68.2998 29.9 68.7998 29.9 71.0998C29.9 73.1998 33.7 73.5998 39 73.8998C47.9 74.4998 54.4 77.0998 54.4 83.0998Z" fill="white"/>
</g>
<mask id="mask1_1112_2450" style="mask-type:luminance" maskUnits="userSpaceOnUse" x="-42" y="-43" width="400" height="207">
<path d="M358 -43H-42V163.5H358V-43Z" fill="white"/>
</mask>
<g mask="url(#mask1_1112_2450)">
<path d="M114.401 75.3V91.6H106.501V75.7C106.501 71.3 104.301 68.8 99.7008 68.8C95.7008 68.8 92.7008 70.9 90.7008 74.7V75.3V86L90.8008 91.6H82.9008V75.7C82.9008 71.3 80.7008 68.8 76.1008 68.8C72.1008 68.8 69.2008 70.8 67.2008 74.6V91.7H59.3008V63.6H67.2008V68.6C69.4008 64.8 73.6008 62.6 78.7008 62.6C84.8008 62.6 88.4008 65.6 89.9008 70.1C91.8008 65.7 96.4008 62.6 102.301 62.6C110.601 62.5 114.401 68 114.401 75.3Z" fill="white"/>
</g>
<mask id="mask2_1112_2450" style="mask-type:luminance" maskUnits="userSpaceOnUse" x="-42" y="-43" width="400" height="207">
<path d="M358 -43H-42V163.5H358V-43Z" fill="white"/>
</mask>
<g mask="url(#mask2_1112_2450)">
<path d="M152.4 75.8998V86.2998C152.4 88.2998 152.8 89.9998 153.7 91.6998H145.6C145 90.6998 144.6 89.3998 144.6 88.3998V88.2998C142.5 90.5998 138.3 92.6998 132.9 92.6998C126.9 92.6998 119.1 90.2998 119.1 82.9998C119.1 75.6998 126.9 73.3998 132.9 73.3998C138.3 73.3998 142.4 75.3998 144.6 77.7998V75.9998C144.6 70.7998 141.2 68.5998 134.4 68.5998C130.6 68.5998 127.5 69.0998 124.1 70.8998L121.8 65.6998C125.5 63.7998 131 62.5998 136 62.5998C146.2 62.3998 152.4 67.1998 152.4 75.8998ZM144.7 82.5998C142.6 79.2998 138.4 78.4998 134.8 78.4998C131.5 78.4998 126.7 79.2998 126.7 82.9998C126.7 86.6998 131.5 87.4998 134.8 87.4998C138.4 87.4998 142.6 86.5998 144.7 83.2998V82.5998Z" fill="white"/>
</g>
<mask id="mask3_1112_2450" style="mask-type:luminance" maskUnits="userSpaceOnUse" x="-42" y="-43" width="400" height="207">
<path d="M358 -43H-42V163.5H358V-43Z" fill="white"/>
</mask>
<g mask="url(#mask3_1112_2450)">
<path d="M159.1 91.6004V63.5004H167V69.3004C169.3 65.1004 174.1 62.9004 179.6 62.9004V69.7004C173.5 69.7004 168.7 72.1004 167 77.0004V91.6004H159.1Z" fill="white"/>
</g>
<mask id="mask4_1112_2450" style="mask-type:luminance" maskUnits="userSpaceOnUse" x="-42" y="-43" width="400" height="207">
<path d="M358 -43H-42V163.5H358V-43Z" fill="white"/>
</mask>
<g mask="url(#mask4_1112_2450)">
<path d="M206.8 89.9996C204.4 91.5996 200.9 92.6996 197.6 92.6996C191.7 92.6996 187.1 89.4996 187.1 83.1996V69.4996H181.9V63.5996H187.1V57.0996H195V63.5996H206.6V69.4996H195V81.7996C195 84.6996 197.1 86.0996 200 86.0996C201.9 86.0996 203.7 85.3996 205.3 84.5996L206.8 89.9996Z" fill="white"/>
</g>
<mask id="mask5_1112_2450" style="mask-type:luminance" maskUnits="userSpaceOnUse" x="-42" y="-43" width="400" height="207">
<path d="M358 -43H-42V163.5H358V-43Z" fill="white"/>
</mask>
<g mask="url(#mask5_1112_2450)">
<path d="M251.5 28.5996V56.6996H243.6V51.7996C241.3 55.4996 236.8 57.7996 231.4 57.7996C223 57.7996 218.6 52.3996 218.6 44.8996V28.5996H226.5V44.3996C226.5 48.9996 228.9 51.4996 233.6 51.4996C237.8 51.4996 241.3 49.5996 243.5 45.4996V28.5996H251.5Z" fill="white"/>
</g>
<mask id="mask6_1112_2450" style="mask-type:luminance" maskUnits="userSpaceOnUse" x="-42" y="-43" width="400" height="207">
<path d="M358 -43H-42V163.5H358V-43Z" fill="white"/>
</mask>
<g mask="url(#mask6_1112_2450)">
<path d="M266.4 52.1V66.9H258.5V28.6H266.4V33.1C268.7 30 272.9 27.5 278.6 27.5C287.5 27.5 293.8 33.4 293.8 42.6C293.8 51.8 287.6 57.7 278.6 57.7C272.9 57.7 268.7 55.2 266.4 52.1ZM266.4 38.7V46.6C268.8 49.8 272.5 51.2 276.6 51.2C282.7 51.2 286.2 48.2 286.2 42.7C286.2 37.2 282.7 34.2 276.6 34.2C272.5 34.1 268.9 35.5 266.4 38.7Z" fill="white"/>
</g>
</g>
<defs>
<linearGradient id="paint0_linear_1112_2450" x1="0.417591" y1="60.3274" x2="315.329" y2="60.3274" gradientUnits="userSpaceOnUse">
<stop stop-color="#725AA5"/>
<stop offset="0.0622035" stop-color="#736BAA"/>
<stop offset="0.2636" stop-color="#769EB7"/>
<stop offset="0.4157" stop-color="#77BEC0"/>
<stop offset="0.5" stop-color="#78CAC3"/>
<stop offset="0.579" stop-color="#81CCBF"/>
<stop offset="0.7065" stop-color="#99D3B3"/>
<stop offset="0.8657" stop-color="#BFDEA0"/>
<stop offset="1" stop-color="#E5E98E"/>
</linearGradient>
<clipPath id="clip0_1112_2450">
<rect width="315" height="121" fill="white"/>
</clipPath>
</defs>
</svg>
