<svg width="24" height="24" viewBox="0 0 24 24" fill="none" xmlns="http://www.w3.org/2000/svg">
<path fill-rule="evenodd" clip-rule="evenodd" d="M5.221 2.66797H14.5932L19.9992 7.94734V20.0592C20.0046 20.3893 19.8795 20.7082 19.6511 20.9466C19.4227 21.185 19.1094 21.3237 18.7794 21.3324H5.221C4.89095 21.3237 4.57769 21.185 4.34928 20.9466C4.12087 20.7082 3.99576 20.3893 4.00114 20.0592V3.94115C3.99576 3.61103 4.12087 3.29213 4.34928 3.05373C4.57769 2.81533 4.89095 2.67671 5.221 2.66797ZM13.9999 3.89449V8.66725H18.866L13.9999 3.89449ZM10.6777 15.7516C10.9803 16.0542 11.3907 16.2242 11.8186 16.2242C12.2465 16.2242 12.6569 16.0542 12.9595 15.7516C13.2621 15.449 13.4321 15.0386 13.4321 14.6107C13.4321 14.1828 13.2621 13.7724 12.9595 13.4698C12.6569 13.1672 12.2465 12.9972 11.8186 12.9972C11.3907 12.9972 10.9803 13.1672 10.6777 13.4698C10.3751 13.7724 10.2051 14.1828 10.2051 14.6107C10.2051 15.0386 10.3751 15.449 10.6777 15.7516ZM15.2761 14.6107C15.2761 14.7628 15.2623 14.9103 15.2439 15.0579L16.2166 15.8231C16.3042 15.8923 16.3272 16.0167 16.2719 16.1182L15.3499 17.7132C15.2946 17.8147 15.1701 17.8515 15.0687 17.8147L13.9208 17.349C13.6811 17.5334 13.4321 17.6856 13.1417 17.8054L12.9711 19.0271C12.9527 19.1377 12.8559 19.2207 12.7406 19.2207H10.8966C10.7814 19.2207 10.6846 19.1377 10.6661 19.0271L10.4955 17.8054C10.2051 17.6902 9.95618 17.5334 9.71646 17.349L8.56856 17.8147C8.46714 17.8515 8.34267 17.8147 8.28735 17.7132L7.36535 16.1182C7.30542 16.0167 7.33308 15.8923 7.42067 15.8231L8.39338 15.0579C8.37494 14.9103 8.36111 14.7628 8.36111 14.6107C8.36111 14.4586 8.37494 14.3064 8.39338 14.1497L7.42067 13.3983C7.33308 13.3291 7.30542 13.2046 7.36535 13.1032L8.28735 11.5082C8.34267 11.4067 8.46714 11.3653 8.56856 11.4067L9.71646 11.8677C9.95618 11.688 10.2051 11.5312 10.4955 11.416L10.6661 10.1943C10.6846 10.0837 10.7814 10.0007 10.8966 10.0007H12.7406C12.7957 10.0005 12.8491 10.0199 12.8913 10.0553C12.9335 10.0908 12.9618 10.14 12.9711 10.1943L13.1417 11.416C13.4321 11.5312 13.6811 11.688 13.9208 11.8677L15.0687 11.4067C15.1701 11.3653 15.2946 11.4067 15.3499 11.5082L16.2719 13.1032C16.3272 13.2046 16.3042 13.3291 16.2166 13.3983L15.2439 14.1497C15.2623 14.3064 15.2761 14.4586 15.2761 14.6107Z" fill="#1A2025"/>
</svg>
