<svg width="110" height="38" viewBox="0 0 110 38" fill="none" xmlns="http://www.w3.org/2000/svg">
<g clip-path="url(#clip0_1132_38)">
<path d="M11.3505 0.533203C15.1097 0.533203 16.2856 2.36599 16.2856 6.21306V9.15392C16.2856 13.1622 14.6085 14.6325 10.8492 14.6325H5.83701C2.07782 14.6325 0.419922 13.1622 0.419922 9.15392V6.21306C0.419922 2.36599 1.59587 0.533203 5.35506 0.533203H11.3505ZM12.5843 9.35541V6.01189C12.5843 4.54147 12.1216 3.61492 10.7915 3.61492H5.91412C4.58395 3.61492 4.12128 4.54147 4.12128 6.01189V9.35541C4.12128 11.1682 4.68031 11.5508 5.93341 11.5508H10.7721C12.0252 11.5508 12.5843 11.1682 12.5843 9.35541Z" fill="black"/>
<path d="M32.443 0.533203H38.2271V14.634H34.641V3.79644L29.1846 14.634H28.1243L22.6681 3.79644V14.634H19.082V0.533203H24.866L28.6448 8.18783L32.443 0.533203Z" fill="black"/>
<path d="M45.9666 0.512695H56.6658V5.5887H53.0606V3.59441H46.5256C45.1955 3.59441 44.7327 4.52096 44.7327 6.01168V9.33484C44.7327 11.168 45.2918 11.5303 46.5448 11.5303H53.0606V9.53633H56.6658V14.612H46.4483C42.6893 14.612 41.0312 13.142 41.0312 9.15371V6.19287C41.0312 2.34579 42.2074 0.512695 45.9666 0.512695Z" fill="black"/>
<path d="M70.7454 14.6325L67.1212 9.21454H63.1502V14.6325H59.5645V0.533203H63.1502V5.95128H66.9091L70.4563 0.533203H74.813L70.0709 7.44168L75.1987 14.6325H70.7454Z" fill="black"/>
<path d="M88.4117 0.533203L92.4989 14.6325H88.8361L87.8912 11.3493H80.6426L79.6982 14.6325H76.0352L80.122 0.533203H88.4117ZM85.6549 3.61492H82.8788L81.6065 8.08645H86.9273L85.6549 3.61492Z" fill="black"/>
<path d="M96.0908 11.1074C94.9926 10.6241 94.4523 9.69756 94.2403 8.24745C94.1445 7.64297 94.125 6.61583 94.125 5.93107C94.125 5.24601 94.1631 4.13828 94.2598 3.59441C94.6839 1.35864 96.0331 0.512695 98.7131 0.512695H109.759V14.612H106.174V11.5303H99.908L98.1923 14.612H94.125L96.0908 11.1074ZM106.174 8.26743V3.59441H99.0404C98.3662 3.59441 97.826 4.15858 97.826 4.86333V6.99851C97.826 7.70357 98.3662 8.26743 99.0404 8.26743H106.174Z" fill="black"/>
<path d="M16.2297 32.3986H18.0805V37.3945H14.4945V35.521H5.18235C2.50245 35.521 1.15287 34.6749 0.728709 32.4389C0.632309 31.895 0.59375 30.7871 0.59375 30.1023C0.59375 29.4375 0.59375 21.3799 0.59375 21.3799H4.29547V31.1096C4.29547 31.8144 4.83529 32.3986 5.51011 32.3986H12.6436V21.3799H16.2297V32.3986Z" fill="black"/>
<path d="M30.0823 21.4209H35.9235V35.5003H32.299V24.6837L26.1881 35.5003H20.2891V21.4209H23.9133V32.2371L30.0823 21.4209Z" fill="black"/>
<path d="M55.2952 21.4211C59.0549 21.4211 60.7128 22.8917 60.7128 26.9004V29.8415C60.7128 33.689 59.5369 35.5219 55.7772 35.5219H51.4971V37.4558H47.911V35.5219H43.6311C39.8715 35.5219 38.6953 33.689 38.6953 29.8415V26.9004C38.6953 22.8917 40.3536 21.4211 44.1129 21.4211H47.911V19.4873H51.4971V21.4211H55.2952ZM44.1902 32.4399H47.911V24.5032H44.2094C42.9562 24.5032 42.3972 24.8859 42.3972 26.6989V30.0427C42.3972 31.5133 42.86 32.4399 44.1902 32.4399ZM57.0112 30.0427V26.6989C57.0112 24.8859 56.4522 24.5032 55.1989 24.5032H51.4971V32.4399H55.2182C56.5485 32.4399 57.0112 31.5133 57.0112 30.0427Z" fill="black"/>
<path d="M78.9975 24.4831C79.0938 25.0269 79.1323 26.1347 79.1323 26.8194C79.1323 27.5042 79.1131 28.5516 79.0167 29.1358C78.6695 31.4522 77.5324 32.439 74.5442 32.439H67.0837V35.5007H63.498V21.4014H74.5442C77.2239 21.4014 78.5733 22.2473 78.9975 24.4831ZM75.4311 27.8869V25.772C75.4311 25.0673 74.8914 24.4831 74.2165 24.4831H67.0837V29.1558H74.2165C74.8914 29.1558 75.4311 28.592 75.4311 27.8869Z" fill="black"/>
<path d="M92.1926 21.4209L96.2795 35.5203H92.6176L91.6728 32.2371H84.4241L83.4794 35.5203H79.8164L83.9034 21.4209H92.1926ZM89.4364 24.5026H86.6601L85.3877 28.9741H90.7085L89.4364 24.5026Z" fill="black"/>
<path d="M6.31246 13.935L12.5562 4.19219V1.25293H10.2911L3.98828 10.9957V13.935H6.31246Z" fill="black"/>
</g>
<defs>
<clipPath id="clip0_1132_38">
<rect width="110" height="38" fill="white"/>
</clipPath>
</defs>
</svg>
