<svg width="38" height="24" viewBox="0 0 38 24" fill="none" xmlns="http://www.w3.org/2000/svg">
<path fill-rule="evenodd" clip-rule="evenodd" d="M24.1917 16.8109C24.329 16.4429 24.4847 16.0805 24.6009 15.7054C25.2569 13.5855 25.9067 11.4638 26.5522 9.34032C26.8002 8.52456 27.072 7.72135 27.5601 7.02029C28.332 5.91241 29.4073 5.33203 30.6799 5.12921C31.1791 5.04975 31.6886 5.01301 32.1939 5.00793C33.7042 4.993 35.215 5.00345 36.7256 5.00495C36.8059 5.00495 36.8862 5.01361 37 5.02048C36.963 5.11129 36.9429 5.1773 36.9108 5.23674C36.3502 6.28041 35.8005 7.33035 35.2233 8.36356C34.2183 10.1623 33.2115 11.9605 32.1749 13.7396C31.51 14.8804 30.7888 15.9859 29.9707 17.0176C29.3671 17.7787 28.7317 18.5063 27.9217 19.0398C27.3697 19.4033 26.7801 19.616 26.1109 19.6124C23.7372 19.599 21.3635 19.6088 18.9898 19.6052C18.2842 19.604 17.68 19.3241 17.1673 18.8277C16.4324 18.1165 15.9937 17.2111 15.6346 16.2565C14.9797 14.5135 14.613 12.6867 14.192 10.8756C13.9948 10.0279 13.7705 9.18678 13.5569 8.34325C13.5431 8.28858 13.5162 8.23751 13.4852 8.15895L13.3198 8.32084C12.3941 9.27878 11.5789 10.3344 10.8495 11.4566C10.6507 11.7625 10.5839 12.1657 10.473 12.5293C10.0646 13.8645 9.69244 15.2125 9.25028 16.5352C8.82675 17.8023 8.06745 18.8101 6.88062 19.4057C6.1867 19.7537 5.44575 19.9419 4.67584 19.9598C3.53459 19.9861 2.39278 19.9891 1.25125 19.9998C0.978264 20.0025 0.965648 19.9792 1.03676 19.7041C1.52623 17.8109 2.14646 15.9661 2.92354 14.1805C3.72471 12.3384 4.66838 10.5817 5.85723 8.97739C6.66671 7.88504 7.56078 6.87722 8.67965 6.11522C9.24712 5.729 9.85043 5.42373 10.5369 5.34338C10.6499 5.32994 10.7643 5.32157 10.8778 5.32157C13.3089 5.32038 15.7399 5.34607 18.1706 5.30992C19.4744 5.29051 20.4184 5.86402 21.1252 6.95727C21.5648 7.63711 21.8794 8.37939 22.144 9.14616C22.6777 10.6928 23.0094 12.2966 23.3842 13.889C23.5987 14.8003 23.8376 15.7054 24.0664 16.6131C24.0836 16.6812 24.1114 16.7463 24.1346 16.8127L24.1917 16.8109Z" fill="white"/>
</svg>
