<svg width="24" height="24" viewBox="0 0 24 24" fill="none" xmlns="http://www.w3.org/2000/svg">
<path fill-rule="evenodd" clip-rule="evenodd" d="M3 2C2.73478 2 2.48043 2.10536 2.29289 2.29289C2.10536 2.48043 2 2.73478 2 3C2 3.26522 2.10536 3.51957 2.29289 3.70711C2.48043 3.89464 2.73478 4 3 4V15C3 15.2652 3.10536 15.5196 3.29289 15.7071C3.48043 15.8946 3.73478 16 4 16H8.613L7.05 20.684C6.96619 20.9357 6.9858 21.2104 7.10451 21.4476C7.22322 21.6848 7.43131 21.8652 7.683 21.949C7.93469 22.0328 8.20937 22.0132 8.4466 21.8945C8.68383 21.7758 8.86419 21.5677 8.948 21.316L10.72 16H13.278L15.05 21.316C15.1338 21.5677 15.3142 21.7758 15.5514 21.8945C15.6689 21.9533 15.7968 21.9883 15.9278 21.9977C16.0588 22.007 16.1904 21.9905 16.315 21.949C16.4396 21.9075 16.5549 21.8419 16.6541 21.7558C16.7534 21.6698 16.8347 21.5651 16.8935 21.4476C16.9523 21.3301 16.9873 21.2022 16.9967 21.0712C17.006 20.9402 16.9895 20.8086 16.948 20.684L15.387 16H20C20.2652 16 20.5196 15.8946 20.7071 15.7071C20.8946 15.5196 21 15.2652 21 15V4C21.2652 4 21.5196 3.89464 21.7071 3.70711C21.8946 3.51957 22 3.26522 22 3C22 2.73478 21.8946 2.48043 21.7071 2.29289C21.5196 2.10536 21.2652 2 21 2H3Z" fill="white"/>
</svg>
