<svg width="24" height="24" viewBox="0 0 24 24" fill="none" xmlns="http://www.w3.org/2000/svg">
<rect width="24" height="24" rx="12" fill="#F4F2F2"/>
<g clip-path="url(#clip0_910_3557)">
<path d="M12.4024 12.375H6.8506V10.1507H12.4024C12.7267 10.1507 12.9522 10.2079 13.0654 10.3078C13.1785 10.4078 13.2486 10.5931 13.2486 10.8639V11.6626C13.2486 11.9479 13.1785 12.1333 13.0654 12.2332C12.9522 12.3332 12.7267 12.3759 12.4024 12.3759V12.375ZM12.7833 8.05359H4.49609V17.566H6.8506V14.4712H11.1897L13.2486 17.566H15.8852L13.6152 14.4567C14.4521 14.3311 14.8279 14.0715 15.1378 13.6435C15.4477 13.2155 15.6031 12.5313 15.6031 11.6182V10.9049C15.6031 10.3634 15.5466 9.9354 15.4477 9.60739C15.3489 9.27937 15.18 8.99406 14.9402 8.73781C14.6868 8.49521 14.4048 8.32437 14.0661 8.2099C13.7275 8.10996 13.3044 8.05273 12.7833 8.05273V8.05359Z" fill="#100943"/>
<path d="M17.6936 8.05229C18.6927 8.05229 19.5025 7.24243 19.5025 6.24343C19.5025 5.24442 18.6927 4.43457 17.6936 4.43457C16.6946 4.43457 15.8848 5.24442 15.8848 6.24343C15.8848 7.24243 16.6946 8.05229 17.6936 8.05229Z" fill="#ED143B"/>
</g>
<defs>
<clipPath id="clip0_910_3557">
<rect width="15.0068" height="13.131" fill="white" transform="translate(4.49609 4.43457)"/>
</clipPath>
</defs>
</svg>
