<svg width="40" height="40" viewBox="0 0 40 40" fill="none" xmlns="http://www.w3.org/2000/svg">
<path d="M12.3113 6.54486C10.7819 6.54486 9.31519 7.1524 8.23377 8.23383C7.15234 9.31525 6.5448 10.782 6.5448 12.3113V27.6887C6.5448 29.218 7.15234 30.6847 8.23377 31.7662C9.31519 32.8476 10.7819 33.4551 12.3113 33.4551H27.6886C29.218 33.4551 30.6847 32.8476 31.7661 31.7662C32.8475 30.6847 33.4551 29.218 33.4551 27.6887V12.3113C33.4551 10.782 32.8475 9.31525 31.7661 8.23383C30.6847 7.1524 29.218 6.54486 27.6886 6.54486H12.3113ZM17.7971 15.875L13.6703 20L17.7971 24.125C17.9776 24.3054 18.079 24.5502 18.079 24.8054C18.079 25.0606 17.9776 25.3054 17.7971 25.4859C17.6167 25.6663 17.3719 25.7677 17.1167 25.7677C16.8615 25.7677 16.6167 25.6663 16.4362 25.4859L11.6308 20.6804C11.5413 20.5912 11.4703 20.4851 11.4219 20.3684C11.3734 20.2516 11.3485 20.1264 11.3485 20C11.3485 19.8736 11.3734 19.7484 11.4219 19.6316C11.4703 19.5149 11.5413 19.4088 11.6308 19.3196L16.4362 14.5141C16.6167 14.3337 16.8615 14.2323 17.1167 14.2323C17.3719 14.2323 17.6167 14.3337 17.7971 14.5141C17.9776 14.6946 18.079 14.9394 18.079 15.1946C18.079 15.4498 17.9776 15.6946 17.7971 15.875ZM23.5636 14.5141L28.369 19.3196C28.4585 19.4088 28.5295 19.5149 28.578 19.6316C28.6264 19.7484 28.6514 19.8736 28.6514 20C28.6514 20.1264 28.6264 20.2516 28.578 20.3684C28.5295 20.4851 28.4585 20.5912 28.369 20.6804L23.5636 25.4859C23.3832 25.6663 23.1384 25.7677 22.8832 25.7677C22.628 25.7677 22.3832 25.6663 22.2027 25.4859C22.0223 25.3054 21.9209 25.0606 21.9209 24.8054C21.9209 24.5502 22.0223 24.3054 22.2027 24.125L26.3296 20L22.2027 15.875C22.1134 15.7857 22.0425 15.6796 21.9941 15.5628C21.9458 15.4461 21.9209 15.321 21.9209 15.1946C21.9209 15.0682 21.9458 14.9431 21.9941 14.8263C22.0425 14.7096 22.1134 14.6035 22.2027 14.5141C22.3832 14.3337 22.628 14.2323 22.8832 14.2323C23.0096 14.2323 23.1347 14.2572 23.2514 14.3055C23.3682 14.3539 23.4743 14.4248 23.5636 14.5141Z" fill="#2B80F9"/>
</svg>
