<?xml version="1.0" encoding="utf-8"?>
<!-- Generator: Adobe Illustrator 27.6.1, SVG Export Plug-In . SVG Version: 6.00 Build 0)  -->
<svg version="1.1" id="Layer_1" xmlns="http://www.w3.org/2000/svg" xmlns:xlink="http://www.w3.org/1999/xlink" x="0px" y="0px"
	 viewBox="0 0 822.09 357.5" style="enable-background:new 0 0 822.09 357.5;" xml:space="preserve">
<style type="text/css">
	.st0{fill:#181716;}
</style>
<g>
	<path class="st0" d="M27.53,61.01c-2.71-2.17-4.81-5.17-6.32-8.99c-1.5-3.82-2.26-8.08-2.26-12.8s0.75-8.99,2.26-12.8
		c1.5-3.82,3.61-6.81,6.32-8.99c2.71-2.17,5.82-3.26,9.33-3.26c3.33,0,6.15,0.87,8.47,2.6c2.31,1.74,4.11,3.97,5.38,6.7
		c1.27,2.73,2.12,5.65,2.53,8.75h-9.16c-1.16-6.2-3.56-9.3-7.22-9.3c-2.55,0-4.59,1.46-6.14,4.37c-1.55,2.91-2.32,6.89-2.32,11.94
		c0,5.04,0.77,9.02,2.32,11.94c1.55,2.92,3.6,4.37,6.14,4.37c3.61,0,6.04-3.08,7.29-9.23h9.16c-0.37,3.05-1.2,5.95-2.5,8.68
		c-1.3,2.73-3.11,4.96-5.45,6.7c-2.34,1.73-5.17,2.6-8.5,2.6C33.35,64.27,30.23,63.19,27.53,61.01z"/>
	<path class="st0" d="M65.55,61.01c-2.71-2.17-4.81-5.17-6.32-8.99c-1.5-3.82-2.26-8.08-2.26-12.8s0.75-8.99,2.26-12.8
		c1.5-3.82,3.61-6.81,6.32-8.99c2.71-2.17,5.82-3.26,9.33-3.26c3.52,0,6.63,1.09,9.33,3.26c2.71,2.18,4.81,5.17,6.31,8.99
		c1.5,3.82,2.26,8.08,2.26,12.8s-0.75,8.99-2.26,12.8c-1.5,3.82-3.61,6.81-6.31,8.99c-2.71,2.17-5.82,3.26-9.33,3.26
		C71.36,64.27,68.25,63.19,65.55,61.01z M81.02,51.16c1.55-2.91,2.32-6.89,2.32-11.94c0-5.04-0.77-9.02-2.32-11.94
		c-1.55-2.91-3.6-4.37-6.14-4.37c-2.55,0-4.59,1.46-6.14,4.37c-1.55,2.91-2.32,6.89-2.32,11.94c0,5.04,0.77,9.02,2.32,11.94
		c1.55,2.92,3.6,4.37,6.14,4.37C77.42,55.53,79.47,54.07,81.02,51.16z"/>
	<path class="st0" d="M123.13,14.93v8.74h-14.92v12.91h12.28v8.33h-12.28v18.6h-9.44V14.93H123.13z"/>
	<path class="st0" d="M151.93,14.93v8.74h-14.92v12.91h12.28v8.33h-12.28v18.6h-9.44V14.93H151.93z"/>
	<path class="st0" d="M165.81,42.83v12.08h15.96v8.61h-25.4V14.93h24.92v8.61h-15.48V34.5h13.26v8.33H165.81z"/>
	<path class="st0" d="M197.27,42.83v12.08h15.96v8.61h-25.4V14.93h24.91v8.61h-15.48V34.5h13.26v8.33H197.27z"/>
	<path class="st0" d="M50.53,127.1h-9.86l-6.87-17.49h-0.42H30.2v17.49h-9.44V78.52h12.56c3.1,0,5.84,0.68,8.22,2.05
		c2.38,1.37,4.23,3.23,5.55,5.59c1.32,2.36,1.98,5.02,1.98,7.98c0,2.64-0.6,5.07-1.8,7.29c-1.2,2.22-2.85,4.05-4.93,5.48
		L50.53,127.1z M29.85,86.71v15.2h3.05c1.85,0,3.44-0.73,4.76-2.19c1.32-1.46,1.98-3.25,1.98-5.38c0-2.17-0.66-3.99-1.98-5.45
		c-1.32-1.46-2.9-2.19-4.76-2.19H29.85z"/>
	<path class="st0" d="M61.84,124.6c-2.71-2.17-4.81-5.17-6.32-8.99c-1.5-3.82-2.26-8.08-2.26-12.8s0.75-8.99,2.26-12.8
		c1.5-3.82,3.61-6.81,6.32-8.99c2.71-2.17,5.82-3.26,9.33-3.26c3.52,0,6.63,1.09,9.33,3.26c2.71,2.18,4.81,5.17,6.31,8.99
		c1.5,3.82,2.26,8.08,2.26,12.8s-0.75,8.99-2.26,12.8c-1.5,3.82-3.61,6.81-6.31,8.99c-2.71,2.18-5.82,3.26-9.33,3.26
		C67.66,127.87,64.55,126.78,61.84,124.6z M77.32,114.75c1.55-2.91,2.32-6.89,2.32-11.94c0-5.04-0.77-9.02-2.32-11.94
		c-1.55-2.91-3.6-4.37-6.14-4.37c-2.55,0-4.59,1.46-6.14,4.37c-1.55,2.91-2.32,6.89-2.32,11.94c0,5.04,0.77,9.02,2.32,11.94
		c1.55,2.92,3.6,4.37,6.14,4.37C73.72,119.12,75.76,117.66,77.32,114.75z"/>
	<path class="st0" d="M124.76,127.1h-9.58l-2.36-10.48h-11.59l-2.36,10.48h-9.3l12.98-48.58h9.23L124.76,127.1z M102.76,108.29h8.54
		l-4.3-18.67L102.76,108.29z"/>
	<path class="st0" d="M129.77,123.25c-2.48-3.08-3.78-6.91-3.92-11.49h8.68c0.37,2.64,1.02,4.64,1.94,6
		c0.92,1.37,2.27,2.05,4.03,2.05c1.48,0,2.58-0.43,3.3-1.28c0.72-0.86,1.08-1.98,1.08-3.37c0-1.39-0.32-2.6-0.97-3.64
		c-0.65-1.04-1.46-1.94-2.43-2.71c-0.97-0.76-2.32-1.68-4.03-2.74c-2.27-1.43-4.09-2.74-5.48-3.92c-1.39-1.18-2.58-2.73-3.57-4.65
		c-0.99-1.92-1.49-4.24-1.49-6.97c0-2.41,0.53-4.58,1.6-6.52c1.06-1.94,2.6-3.47,4.62-4.58c2.01-1.11,4.36-1.67,7.04-1.67
		c4.35,0,7.67,1.49,9.96,4.48c2.29,2.98,3.57,6.72,3.85,11.21h-8.67c-0.51-5.09-2.22-7.63-5.14-7.63c-1.3,0-2.28,0.44-2.95,1.32
		c-0.67,0.88-1.01,2.01-1.01,3.4c0,1.43,0.34,2.7,1.01,3.78c0.67,1.09,1.5,2.01,2.5,2.78c0.99,0.76,2.35,1.68,4.06,2.74
		c2.22,1.34,4.02,2.58,5.41,3.71c1.39,1.13,2.57,2.64,3.54,4.51c0.97,1.87,1.46,4.15,1.46,6.84c0,2.45-0.53,4.66-1.6,6.63
		c-1.06,1.97-2.63,3.52-4.69,4.65c-2.06,1.13-4.48,1.7-7.25,1.7C135.87,127.87,132.25,126.33,129.77,123.25z"/>
	<path class="st0" d="M176.39,127.1h-9.44V87.27h-10.2v-8.74h29.84v8.74h-10.2V127.1z"/>
	<path class="st0" d="M200.08,106.42v12.08h15.96v8.61h-25.4V78.52h24.92v8.61h-15.48v10.97h13.26v8.33H200.08z"/>
	<path class="st0" d="M251.88,127.1h-9.86l-6.87-17.49h-0.42h-3.19v17.49h-9.44V78.52h12.56c3.1,0,5.84,0.68,8.22,2.05
		c2.38,1.37,4.23,3.23,5.55,5.59c1.32,2.36,1.98,5.02,1.98,7.98c0,2.64-0.6,5.07-1.8,7.29c-1.2,2.22-2.85,4.05-4.93,5.48
		L251.88,127.1z M231.2,86.71v15.2h3.05c1.85,0,3.44-0.73,4.76-2.19c1.32-1.46,1.98-3.25,1.98-5.38c0-2.17-0.66-3.99-1.98-5.45
		c-1.32-1.46-2.9-2.19-4.76-2.19H231.2z"/>
	<path class="st0" d="M258.39,123.25c-2.48-3.08-3.78-6.91-3.92-11.49h8.68c0.37,2.64,1.02,4.64,1.94,6
		c0.92,1.37,2.27,2.05,4.03,2.05c1.48,0,2.58-0.43,3.3-1.28c0.72-0.86,1.08-1.98,1.08-3.37c0-1.39-0.32-2.6-0.97-3.64
		c-0.65-1.04-1.46-1.94-2.43-2.71c-0.97-0.76-2.32-1.68-4.03-2.74c-2.27-1.43-4.09-2.74-5.48-3.92c-1.39-1.18-2.58-2.73-3.57-4.65
		c-0.99-1.92-1.49-4.24-1.49-6.97c0-2.41,0.53-4.58,1.6-6.52c1.06-1.94,2.6-3.47,4.61-4.58c2.01-1.11,4.36-1.67,7.04-1.67
		c4.35,0,7.67,1.49,9.96,4.48c2.29,2.98,3.57,6.72,3.85,11.21h-8.68c-0.51-5.09-2.22-7.63-5.14-7.63c-1.3,0-2.28,0.44-2.95,1.32
		c-0.67,0.88-1.01,2.01-1.01,3.4c0,1.43,0.34,2.7,1.01,3.78c0.67,1.09,1.5,2.01,2.5,2.78c0.99,0.76,2.35,1.68,4.06,2.74
		c2.22,1.34,4.02,2.58,5.41,3.71c1.39,1.13,2.57,2.64,3.54,4.51c0.97,1.87,1.46,4.15,1.46,6.84c0,2.45-0.53,4.66-1.6,6.63
		c-1.06,1.97-2.63,3.52-4.69,4.65c-2.06,1.13-4.48,1.7-7.25,1.7C264.48,127.87,260.86,126.33,258.39,123.25z"/>
</g>
<g>
	<g>
		<path class="st0" d="M723.52,120.98c-8.08-5.08-14.53-12.04-19.34-20.87c-4.82-8.83-7.22-18.65-7.22-29.46
			c0-10.81,2.41-20.63,7.22-29.46c4.82-8.83,11.26-15.79,19.34-20.87c8.08-5.08,16.78-7.63,26.09-7.63c7.71,0,14.85,1.77,21.43,5.3
			c6.58,3.53,12.12,8.32,16.61,14.37c4.5,6.05,7.65,12.76,9.47,20.15h-13.49c-2.46-7.92-6.66-14.45-12.6-19.59
			c-5.94-5.14-13.08-7.71-21.43-7.71c-6.96,0-13.46,1.93-19.5,5.78c-6.05,3.85-10.86,9.23-14.45,16.13
			c-3.59,6.9-5.38,14.74-5.38,23.52c0,8.78,1.79,16.62,5.38,23.52c3.58,6.9,8.4,12.28,14.45,16.13c6.05,3.85,12.55,5.78,19.5,5.78
			c8.67,0,16-2.54,21.99-7.63c5.99-5.08,10.27-11.58,12.84-19.51h13.48c-1.82,7.38-5,14.07-9.55,20.07
			c-4.55,6-10.17,10.76-16.86,14.29c-6.69,3.53-13.99,5.3-21.91,5.3C740.3,128.61,731.6,126.07,723.52,120.98z"/>
	</g>
	<g>
		<path class="st0" d="M736.96,101.3c-3.66-1.87-6.51-4.44-8.57-7.69c-2.06-3.26-3.18-6.94-3.36-11.06h13.18
			c0.37,2.89,1.53,5.24,3.5,7.05c1.97,1.81,4.67,2.72,8.11,2.72c3.26,0,5.73-0.65,7.42-1.94c1.69-1.29,2.53-2.89,2.53-4.79
			c0-1.6-0.55-2.95-1.66-4.06c-1.11-1.11-2.49-2.01-4.15-2.72c-1.66-0.71-3.96-1.55-6.91-2.53c-4.3-1.41-7.82-2.81-10.55-4.19
			c-2.73-1.38-5.08-3.38-7.05-5.99c-1.97-2.61-2.95-6-2.95-10.18c0-3.56,0.89-6.76,2.67-9.58c1.78-2.83,4.38-5.05,7.79-6.68
			c3.41-1.63,7.42-2.44,12.03-2.44c4.42,0,8.35,0.92,11.8,2.76c3.44,1.84,6.14,4.36,8.11,7.56c1.96,3.2,3.04,6.76,3.22,10.69h-13.18
			c-0.18-2.7-1.17-4.91-2.95-6.63c-1.78-1.72-4.12-2.58-7-2.58c-2.95,0-5.24,0.66-6.86,1.98c-1.63,1.32-2.44,3.03-2.44,5.11
			c0,1.6,0.55,2.95,1.66,4.05c1.11,1.11,2.47,2,4.1,2.67c1.63,0.68,3.95,1.51,6.96,2.49c4.24,1.35,7.74,2.69,10.51,4.01
			c2.76,1.32,5.13,3.26,7.1,5.81c1.96,2.55,2.95,5.88,2.95,10c0,3.63-0.91,6.87-2.72,9.72c-1.81,2.86-4.47,5.11-7.97,6.77
			c-3.5,1.66-7.65,2.49-12.44,2.49C744.9,104.11,740.61,103.17,736.96,101.3z"/>
	</g>
</g>
<g>
	<path class="st0" d="M39.74,354.69c-6.37-3.26-11.34-7.73-14.93-13.4c-3.59-5.67-5.54-12.09-5.86-19.26h22.96
		c0.64,5.03,2.67,9.12,6.1,12.28c3.42,3.16,8.13,4.74,14.12,4.74c5.67,0,9.98-1.12,12.92-3.37c2.94-2.25,4.41-5.03,4.41-8.35
		c0-2.78-0.96-5.14-2.89-7.06c-1.93-1.93-4.33-3.5-7.22-4.74c-2.89-1.23-6.9-2.7-12.04-4.41c-7.49-2.46-13.62-4.9-18.38-7.3
		c-4.76-2.41-8.86-5.88-12.28-10.43c-3.43-4.55-5.14-10.46-5.14-17.74c0-6.2,1.55-11.77,4.65-16.69c3.1-4.92,7.63-8.8,13.56-11.64
		c5.94-2.83,12.92-4.25,20.95-4.25c7.71,0,14.55,1.61,20.55,4.82c5.99,3.21,10.7,7.6,14.12,13.16c3.42,5.57,5.3,11.77,5.62,18.62
		H78.03c-0.32-4.71-2.03-8.56-5.14-11.56c-3.1-2.99-7.17-4.49-12.2-4.49c-5.14,0-9.12,1.15-11.96,3.45
		c-2.84,2.3-4.25,5.27-4.25,8.91c0,2.78,0.96,5.14,2.89,7.06c1.93,1.93,4.31,3.48,7.14,4.65c2.83,1.18,6.87,2.62,12.12,4.33
		c7.38,2.35,13.48,4.68,18.3,6.98c4.81,2.3,8.93,5.67,12.36,10.11c3.42,4.44,5.14,10.25,5.14,17.42c0,6.32-1.58,11.96-4.74,16.93
		c-3.16,4.98-7.78,8.91-13.88,11.8c-6.1,2.89-13.32,4.33-21.67,4.33C53.57,359.59,46.11,357.96,39.74,354.69z"/>
	<path class="st0" d="M159.89,299.72l43.5,57.79h-28.57l-36.92-50.4v50.4h-22.95V245.14h22.95v48.64l35.15-48.64h27.13
		L159.89,299.72z"/>
	<path class="st0" d="M230.19,353.65c-6.9-3.96-12.23-9.39-15.97-16.29c-3.75-6.9-5.62-14.58-5.62-23.03v-69.18h22.95v69.18
		c0,6.74,1.98,12.28,5.94,16.61c3.96,4.33,9.42,6.5,16.37,6.5c6.96,0,12.41-2.17,16.37-6.5c3.96-4.33,5.94-9.87,5.94-16.61v-69.18
		h22.96v69.18c0,8.45-1.87,16.13-5.62,23.03c-3.75,6.9-9.07,12.34-15.97,16.29c-6.9,3.96-14.8,5.94-23.68,5.94
		C244.98,359.59,237.09,357.61,230.19,353.65z"/>
	<path class="st0" d="M379.16,357.5l-22.47-40.45h-14.93v40.45h-22.95V245.14h45.59c7.17,0,13.64,1.55,19.42,4.65
		c5.78,3.1,10.33,7.41,13.64,12.92c3.31,5.51,4.98,11.75,4.98,18.7c0,7.17-2.09,13.62-6.26,19.34c-4.17,5.73-9.85,9.98-17.01,12.76
		l26.49,43.98H379.16z M341.76,266.97v29.21h21.99c4.49,0,8.24-1.36,11.24-4.09c2.99-2.73,4.49-6.23,4.49-10.51
		c0-4.28-1.5-7.78-4.49-10.51c-3-2.73-6.74-4.09-11.24-4.09H341.76z"/>
	<path class="st0" d="M513.45,357.5h-24.08l-8.19-23.11h-42.38l-8.19,23.11h-23.27l41.9-112.36h22.47L513.45,357.5z M473.64,313.2
		L460,273.71l-13.64,39.49H473.64z"/>
	<path class="st0" d="M555.42,357.5h-22.96v-90.21h-32.58v-22.15h88.12v22.15h-32.58V357.5z"/>
	<path class="st0" d="M613.75,351.81c-8.46-5.19-15.2-12.25-20.23-21.19c-5.03-8.93-7.54-18.7-7.54-29.29
		c0-10.59,2.51-20.36,7.54-29.29c5.03-8.93,11.77-16,20.23-21.19c8.45-5.19,17.6-7.78,27.45-7.78c9.84,0,18.99,2.6,27.45,7.78
		c8.45,5.19,15.19,12.25,20.23,21.19c5.03,8.94,7.54,18.7,7.54,29.29c0,10.59-2.51,20.36-7.54,29.29
		c-5.03,8.94-11.77,16-20.23,21.19c-8.45,5.19-17.6,7.79-27.45,7.79C631.36,359.59,622.21,357,613.75,351.81z M657.25,332.7
		c4.92-3.15,8.85-7.49,11.8-13c2.94-5.51,4.41-11.64,4.41-18.38s-1.47-12.87-4.41-18.38c-2.95-5.51-6.88-9.84-11.8-13
		c-4.92-3.15-10.27-4.74-16.05-4.74c-5.78,0-11.13,1.58-16.05,4.74c-4.92,3.16-8.86,7.49-11.8,13c-2.95,5.51-4.42,11.64-4.42,18.38
		s1.47,12.87,4.42,18.38c2.94,5.51,6.87,9.85,11.8,13c4.92,3.16,10.27,4.74,16.05,4.74C646.98,337.44,652.33,335.86,657.25,332.7z"
		/>
	<path class="st0" d="M746.89,326.04l27.61-80.9h23.44L757.96,357.5h-23.27l-39.81-112.36h24.4L746.89,326.04z"/>
</g>
</svg>
