<svg width="1925" height="722" viewBox="0 0 1925 722" fill="none" xmlns="http://www.w3.org/2000/svg">
<path d="M2.00008 241.438L242.096 241.438L242.096 1.99983" stroke="#FFB8A2" stroke-width="2.1343" stroke-miterlimit="10"/>
<path d="M122.118 241.51C188.419 241.51 242.166 187.91 242.166 121.791C242.166 55.6719 188.419 2.07178 122.118 2.07178C55.8175 2.07178 2.07031 55.6719 2.07031 121.791C2.07031 187.91 55.8175 241.51 122.118 241.51Z" stroke="#FFB8A2" stroke-width="2.1343" stroke-miterlimit="10"/>
<path d="M242.166 241.438L482.262 241.438L482.262 1.99983" stroke="#FFB8A2" stroke-width="2.1343" stroke-miterlimit="10"/>
<path d="M362.284 241.51C428.585 241.51 482.332 187.91 482.332 121.791C482.332 55.6719 428.585 2.07178 362.284 2.07178C295.984 2.07178 242.236 55.6719 242.236 121.791C242.236 187.91 295.984 241.51 362.284 241.51Z" stroke="#FFB8A2" stroke-width="2.1343" stroke-miterlimit="10"/>
<path d="M482.33 241.438L722.426 241.438V1.99983" stroke="#FFB8A2" stroke-width="2.1343" stroke-miterlimit="10"/>
<path d="M602.45 241.51C668.751 241.51 722.498 187.91 722.498 121.791C722.498 55.6715 668.751 2.07129 602.45 2.07129C536.15 2.07129 482.402 55.6715 482.402 121.791C482.402 187.91 536.15 241.51 602.45 241.51Z" stroke="#FFB8A2" stroke-width="2.1343" stroke-miterlimit="10"/>
<path d="M722.498 241.438L962.594 241.438V1.99983" stroke="#FFB8A2" stroke-width="2.1343" stroke-miterlimit="10"/>
<path d="M842.616 241.51C908.917 241.51 962.664 187.91 962.664 121.791C962.664 55.6719 908.917 2.07178 842.616 2.07178C776.316 2.07178 722.568 55.6719 722.568 121.791C722.568 187.91 776.316 241.51 842.616 241.51Z" stroke="#FFB8A2" stroke-width="2.1343" stroke-miterlimit="10"/>
<path d="M962.664 241.438L1202.76 241.438V1.99983" stroke="#FFB8A2" stroke-width="2.1343" stroke-miterlimit="10"/>
<path d="M1082.78 241.51C1149.08 241.51 1202.83 187.91 1202.83 121.791C1202.83 55.6715 1149.08 2.07129 1082.78 2.07129C1016.48 2.07129 962.734 55.6715 962.734 121.791C962.734 187.91 1016.48 241.51 1082.78 241.51Z" stroke="#FFB8A2" stroke-width="2.1343" stroke-miterlimit="10"/>
<path d="M1202.83 241.438L1442.92 241.438V1.99983" stroke="#FFB8A2" stroke-width="2.1343" stroke-miterlimit="10"/>
<path d="M1322.95 241.51C1389.25 241.51 1442.99 187.91 1442.99 121.791C1442.99 55.6715 1389.25 2.07129 1322.95 2.07129C1256.65 2.07129 1202.9 55.6715 1202.9 121.791C1202.9 187.91 1256.65 241.51 1322.95 241.51Z" stroke="#FFB8A2" stroke-width="2.1343" stroke-miterlimit="10"/>
<path d="M1443 241.438L1683.1 241.438V1.99983" stroke="#FFB8A2" stroke-width="2.1343" stroke-miterlimit="10"/>
<path d="M1563.12 241.51C1629.42 241.51 1683.17 187.91 1683.17 121.791C1683.17 55.6715 1629.42 2.07129 1563.12 2.07129C1496.82 2.07129 1443.07 55.6715 1443.07 121.791C1443.07 187.91 1496.82 241.51 1563.12 241.51Z" stroke="#FFB8A2" stroke-width="2.1343" stroke-miterlimit="10"/>
<path d="M1683.16 241.403L1923.26 241.403V241.438" stroke="#FFB8A2" stroke-width="2.1343" stroke-miterlimit="10"/>
<path d="M1803.28 241.474C1869.58 241.474 1923.33 187.874 1923.33 121.755C1923.33 55.6358 1869.58 2.03564 1803.28 2.03564C1736.98 2.03564 1683.23 55.6358 1683.23 121.755C1683.23 187.874 1736.98 241.474 1803.28 241.474Z" stroke="#FFB8A2" stroke-width="2.1343" stroke-miterlimit="10"/>
<path d="M2.00008 480.949L242.096 480.949L242.096 241.511" stroke="#FFB8A2" stroke-width="2.1343" stroke-miterlimit="10"/>
<path d="M122.118 481.021C188.419 481.021 242.166 427.421 242.166 361.302C242.166 295.183 188.419 241.583 122.118 241.583C55.8175 241.583 2.07031 295.183 2.07031 361.302C2.07031 427.421 55.8175 481.021 122.118 481.021Z" stroke="#FFB8A2" stroke-width="2.1343" stroke-miterlimit="10"/>
<path d="M722.426 480.949L482.33 480.949" stroke="#FFB8A2" stroke-width="2.1343" stroke-miterlimit="10"/>
<path d="M962.594 480.949L722.498 480.949" stroke="#FFB8A2" stroke-width="2.1343" stroke-miterlimit="10"/>
<path d="M1202.76 480.949L962.664 480.949" stroke="#FFB8A2" stroke-width="2.1343" stroke-miterlimit="10"/>
<path d="M1442.92 480.949L1202.83 480.949" stroke="#FFB8A2" stroke-width="2.1343" stroke-miterlimit="10"/>
<path d="M1442.99 480.949L1683.09 480.949V241.511" stroke="#FFB8A2" stroke-width="2.1343" stroke-miterlimit="10"/>
<path d="M1683.16 480.913L1923.26 480.913V480.949" stroke="#FFB8A2" stroke-width="2.1343" stroke-miterlimit="10"/>
<path d="M1803.28 480.985C1869.58 480.985 1923.33 427.385 1923.33 361.266C1923.33 295.147 1869.58 241.546 1803.28 241.546C1736.98 241.546 1683.23 295.147 1683.23 361.266C1683.23 427.385 1736.98 480.985 1803.28 480.985Z" stroke="#FFB8A2" stroke-width="2.1343" stroke-miterlimit="10"/>
<path d="M242.094 720.459H242.025L242.025 481.021" stroke="#FFB8A2" stroke-width="2.1343" stroke-miterlimit="10"/>
<path d="M122.048 720.531C188.348 720.531 242.096 666.931 242.096 600.812C242.096 534.692 188.348 481.092 122.048 481.092C55.7472 481.092 2 534.692 2 600.812C2 666.931 55.7472 720.531 122.048 720.531Z" stroke="#FFB8A2" stroke-width="2.1343" stroke-miterlimit="10"/>
<path d="M722.285 720.459H722.217V481.021" stroke="#FFB8A2" stroke-width="2.1343" stroke-miterlimit="10"/>
<path d="M602.239 720.531C668.54 720.531 722.287 666.931 722.287 600.812C722.287 534.692 668.54 481.092 602.239 481.092C535.939 481.092 482.191 534.692 482.191 600.812C482.191 666.931 535.939 720.531 602.239 720.531Z" stroke="#FFB8A2" stroke-width="2.1343" stroke-miterlimit="10"/>
<path d="M722.285 720.459H722.217V481.021" stroke="#FFB8A2" stroke-width="2.1343" stroke-miterlimit="10"/>
<path d="M602.239 720.531C668.54 720.531 722.287 666.931 722.287 600.812C722.287 534.692 668.54 481.092 602.239 481.092C535.939 481.092 482.191 534.692 482.191 600.812C482.191 666.931 535.939 720.531 602.239 720.531Z" stroke="#FFB8A2" stroke-width="2.1343" stroke-miterlimit="10"/>
<path d="M482.234 481L242.139 481" stroke="#FFB8A2" stroke-width="2.1343" stroke-miterlimit="10"/>
<path d="M482.094 720.51H482.025L482.025 481.072" stroke="#FFB8A2" stroke-width="2.1343" stroke-miterlimit="10"/>
<path d="M362.048 720.582C428.348 720.582 482.096 666.982 482.096 600.862C482.096 534.743 428.348 481.143 362.048 481.143C295.747 481.143 242 534.743 242 600.862C242 666.982 295.747 720.582 362.048 720.582Z" stroke="#FFB8A2" stroke-width="2.1343" stroke-miterlimit="10"/>
<path d="M962.381 720.459H962.313V481.021" stroke="#FFB8A2" stroke-width="2.1343" stroke-miterlimit="10"/>
<path d="M842.335 720.531C908.636 720.531 962.383 666.931 962.383 600.812C962.383 534.692 908.636 481.092 842.335 481.092C776.034 481.092 722.287 534.692 722.287 600.812C722.287 666.931 776.034 720.531 842.335 720.531Z" stroke="#FFB8A2" stroke-width="2.1343" stroke-miterlimit="10"/>
<path d="M962.381 720.459H962.313V481.021" stroke="#FFB8A2" stroke-width="2.1343" stroke-miterlimit="10"/>
<path d="M842.335 720.531C908.636 720.531 962.383 666.931 962.383 600.812C962.383 534.692 908.636 481.092 842.335 481.092C776.034 481.092 722.287 534.692 722.287 600.812C722.287 666.931 776.034 720.531 842.335 720.531Z" stroke="#FFB8A2" stroke-width="2.1343" stroke-miterlimit="10"/>
<path d="M1202.48 720.459H1202.41V481.021" stroke="#FFB8A2" stroke-width="2.1343" stroke-miterlimit="10"/>
<path d="M1082.43 720.531C1148.73 720.531 1202.48 666.931 1202.48 600.812C1202.48 534.692 1148.73 481.092 1082.43 481.092C1016.13 481.092 962.383 534.692 962.383 600.812C962.383 666.931 1016.13 720.531 1082.43 720.531Z" stroke="#FFB8A2" stroke-width="2.1343" stroke-miterlimit="10"/>
<path d="M1442.57 720.459H1442.5V481.021" stroke="#FFB8A2" stroke-width="2.1343" stroke-miterlimit="10"/>
<path d="M1322.53 720.531C1388.83 720.531 1442.57 666.931 1442.57 600.812C1442.57 534.692 1388.83 481.092 1322.53 481.092C1256.23 481.092 1202.48 534.692 1202.48 600.812C1202.48 666.931 1256.23 720.531 1322.53 720.531Z" stroke="#FFB8A2" stroke-width="2.1343" stroke-miterlimit="10"/>
<path d="M1682.67 720.459H1682.6V481.021" stroke="#FFB8A2" stroke-width="2.1343" stroke-miterlimit="10"/>
<path d="M1562.62 720.531C1628.92 720.531 1682.67 666.931 1682.67 600.812C1682.67 534.692 1628.92 481.092 1562.62 481.092C1496.32 481.092 1442.57 534.692 1442.57 600.812C1442.57 666.931 1496.32 720.531 1562.62 720.531Z" stroke="#FFB8A2" stroke-width="2.1343" stroke-miterlimit="10"/>
<path d="M1802.72 720.495C1869.02 720.495 1922.77 666.895 1922.77 600.776C1922.77 534.657 1869.02 481.057 1802.72 481.057C1736.42 481.057 1682.67 534.657 1682.67 600.776C1682.67 666.895 1736.42 720.495 1802.72 720.495Z" stroke="#FFB8A2" stroke-width="2.1343" stroke-miterlimit="10"/>
</svg>
