<svg width="1070" height="370" viewBox="0 0 1070 370" fill="none" xmlns="http://www.w3.org/2000/svg">
<g clip-path="url(#clip0_396_405)">
<path d="M-0.000165737 59.7939L178.281 59.7939L178.281 -118" stroke="#FFB8A2" stroke-width="1.58481" stroke-miterlimit="10"/>
<path d="M178.281 -118L0 -118L0 59.7936" stroke="#FFB8A2" stroke-width="1.58481" stroke-miterlimit="10"/>
<path d="M89.1934 59.8468C138.424 59.8468 178.334 20.0464 178.334 -29.05C178.334 -78.1463 138.424 -117.947 89.1934 -117.947C39.9624 -117.947 0.0527344 -78.1463 0.0527344 -29.05C0.0527344 20.0464 39.9624 59.8468 89.1934 59.8468Z" stroke="#FFB8A2" stroke-width="1.58481" stroke-miterlimit="10"/>
</g>
<g clip-path="url(#clip1_396_405)">
<path d="M178.336 59.7939L356.617 59.7939V-118" stroke="#FFB8A2" stroke-width="1.58481" stroke-miterlimit="10"/>
<path d="M356.615 -118L178.334 -118L178.334 59.7936" stroke="#FFB8A2" stroke-width="1.58481" stroke-miterlimit="10"/>
<path d="M267.525 59.8468C316.757 59.8468 356.666 20.0464 356.666 -29.05C356.666 -78.1463 316.757 -117.947 267.525 -117.947C218.294 -117.947 178.385 -78.1463 178.385 -29.05C178.385 20.0464 218.294 59.8468 267.525 59.8468Z" stroke="#FFB8A2" stroke-width="1.58481" stroke-miterlimit="10"/>
</g>
<g clip-path="url(#clip2_396_405)">
<path d="M356.668 59.7939L534.949 59.7939V-118" stroke="#FFB8A2" stroke-width="1.58481" stroke-miterlimit="10"/>
<path d="M534.947 -118L356.666 -118V59.7936" stroke="#FFB8A2" stroke-width="1.58481" stroke-miterlimit="10"/>
<path d="M445.858 59.8468C495.089 59.8468 534.998 20.0464 534.998 -29.05C534.998 -78.1463 495.089 -117.947 445.858 -117.947C396.626 -117.947 356.717 -78.1463 356.717 -29.05C356.717 20.0464 396.626 59.8468 445.858 59.8468Z" stroke="#FFB8A2" stroke-width="1.58481" stroke-miterlimit="10"/>
</g>
<g clip-path="url(#clip3_396_405)">
<path d="M534.998 59.7939L713.279 59.7939V-118" stroke="#FFB8A2" stroke-width="1.58481" stroke-miterlimit="10"/>
<path d="M713.279 -118L534.998 -118V59.7936" stroke="#FFB8A2" stroke-width="1.58481" stroke-miterlimit="10"/>
<path d="M624.191 59.8468C673.423 59.8468 713.332 20.0464 713.332 -29.05C713.332 -78.1463 673.423 -117.947 624.191 -117.947C574.96 -117.947 535.051 -78.1463 535.051 -29.05C535.051 20.0464 574.96 59.8468 624.191 59.8468Z" stroke="#FFB8A2" stroke-width="1.58481" stroke-miterlimit="10"/>
</g>
<g clip-path="url(#clip4_396_405)">
<path d="M713.332 59.7939L891.613 59.7939V-118" stroke="#FFB8A2" stroke-width="1.58481" stroke-miterlimit="10"/>
<path d="M891.613 -118L713.332 -118V59.7936" stroke="#FFB8A2" stroke-width="1.58481" stroke-miterlimit="10"/>
<path d="M802.525 59.8468C851.757 59.8468 891.666 20.0464 891.666 -29.05C891.666 -78.1463 851.757 -117.947 802.525 -117.947C753.294 -117.947 713.385 -78.1463 713.385 -29.05C713.385 20.0464 753.294 59.8468 802.525 59.8468Z" stroke="#FFB8A2" stroke-width="1.58481" stroke-miterlimit="10"/>
</g>
<g clip-path="url(#clip5_396_405)">
<path d="M891.666 59.7939L1069.95 59.7939V-118" stroke="#FFB8A2" stroke-width="1.58481" stroke-miterlimit="10"/>
<path d="M1069.95 -118L891.666 -118V59.7936" stroke="#FFB8A2" stroke-width="1.58481" stroke-miterlimit="10"/>
<path d="M980.859 59.8468C1030.09 59.8468 1070 20.0464 1070 -29.05C1070 -78.1463 1030.09 -117.947 980.859 -117.947C931.628 -117.947 891.719 -78.1463 891.719 -29.05C891.719 20.0464 931.628 59.8468 980.859 59.8468Z" stroke="#FFB8A2" stroke-width="1.58481" stroke-miterlimit="10"/>
</g>
<g clip-path="url(#clip6_396_405)">
<path d="M1070 309.9H891.717V487.694" stroke="#FFB8A2" stroke-width="1.58481" stroke-miterlimit="10"/>
<path d="M891.717 487.694H1070V309.901" stroke="#FFB8A2" stroke-width="1.58481" stroke-miterlimit="10"/>
<path d="M980.805 309.847C931.574 309.847 891.664 349.647 891.664 398.744C891.664 447.84 931.574 487.641 980.805 487.641C1030.04 487.641 1069.95 447.84 1069.95 398.744C1069.95 349.647 1030.04 309.847 980.805 309.847Z" stroke="#FFB8A2" stroke-width="1.58481" stroke-miterlimit="10"/>
</g>
<g clip-path="url(#clip7_396_405)">
<path d="M891.662 309.9H713.381V487.694" stroke="#FFB8A2" stroke-width="1.58481" stroke-miterlimit="10"/>
<path d="M713.383 487.694H891.664V309.901" stroke="#FFB8A2" stroke-width="1.58481" stroke-miterlimit="10"/>
<path d="M802.473 309.847C753.242 309.847 713.332 349.647 713.332 398.744C713.332 447.84 753.242 487.641 802.473 487.641C851.704 487.641 891.613 447.84 891.613 398.744C891.613 349.647 851.704 309.847 802.473 309.847Z" stroke="#FFB8A2" stroke-width="1.58481" stroke-miterlimit="10"/>
</g>
<g clip-path="url(#clip8_396_405)">
<path d="M713.33 309.9H535.049V487.694" stroke="#FFB8A2" stroke-width="1.58481" stroke-miterlimit="10"/>
<path d="M535.051 487.694H713.332V309.901" stroke="#FFB8A2" stroke-width="1.58481" stroke-miterlimit="10"/>
<path d="M624.141 309.847C574.909 309.847 535 349.647 535 398.744C535 447.84 574.909 487.641 624.141 487.641C673.372 487.641 713.281 447.84 713.281 398.744C713.281 349.647 673.372 309.847 624.141 309.847Z" stroke="#FFB8A2" stroke-width="1.58481" stroke-miterlimit="10"/>
</g>
<g clip-path="url(#clip9_396_405)">
<path d="M535 309.9H356.719V487.694" stroke="#FFB8A2" stroke-width="1.58481" stroke-miterlimit="10"/>
<path d="M356.719 487.694H535V309.901" stroke="#FFB8A2" stroke-width="1.58481" stroke-miterlimit="10"/>
<path d="M445.807 309.847C396.576 309.847 356.666 349.647 356.666 398.744C356.666 447.84 396.576 487.641 445.807 487.641C495.038 487.641 534.947 447.84 534.947 398.744C534.947 349.647 495.038 309.847 445.807 309.847Z" stroke="#FFB8A2" stroke-width="1.58481" stroke-miterlimit="10"/>
</g>
<g clip-path="url(#clip10_396_405)">
<path d="M356.666 309.9H178.385L178.385 487.694" stroke="#FFB8A2" stroke-width="1.58481" stroke-miterlimit="10"/>
<path d="M178.385 487.694H356.666V309.901" stroke="#FFB8A2" stroke-width="1.58481" stroke-miterlimit="10"/>
<path d="M267.473 309.847C218.242 309.847 178.332 349.647 178.332 398.744C178.332 447.84 218.242 487.641 267.473 487.641C316.704 487.641 356.613 447.84 356.613 398.744C356.613 349.647 316.704 309.847 267.473 309.847Z" stroke="#FFB8A2" stroke-width="1.58481" stroke-miterlimit="10"/>
</g>
<g clip-path="url(#clip11_396_405)">
<path d="M178.332 309.9H0.0507812L0.0507813 487.694" stroke="#FFB8A2" stroke-width="1.58481" stroke-miterlimit="10"/>
<path d="M0.0506155 487.694H178.332L178.332 309.901" stroke="#FFB8A2" stroke-width="1.58481" stroke-miterlimit="10"/>
<path d="M89.1386 309.847C39.9075 309.847 -0.00212097 349.647 -0.00212097 398.744C-0.00212097 447.84 39.9075 487.641 89.1386 487.641C138.37 487.641 178.279 447.84 178.279 398.744C178.279 349.647 138.37 309.847 89.1386 309.847Z" stroke="#FFB8A2" stroke-width="1.58481" stroke-miterlimit="10"/>
</g>
<defs>
<clipPath id="clip0_396_405">
<rect width="178.333" height="177.847" fill="white" transform="translate(0 -118)"/>
</clipPath>
<clipPath id="clip1_396_405">
<rect width="178.333" height="177.847" fill="white" transform="translate(178.334 -118)"/>
</clipPath>
<clipPath id="clip2_396_405">
<rect width="178.333" height="177.847" fill="white" transform="translate(356.666 -118)"/>
</clipPath>
<clipPath id="clip3_396_405">
<rect width="178.333" height="177.847" fill="white" transform="translate(534.998 -118)"/>
</clipPath>
<clipPath id="clip4_396_405">
<rect width="178.333" height="177.847" fill="white" transform="translate(713.332 -118)"/>
</clipPath>
<clipPath id="clip5_396_405">
<rect width="178.333" height="177.847" fill="white" transform="translate(891.666 -118)"/>
</clipPath>
<clipPath id="clip6_396_405">
<rect width="178.333" height="177.847" fill="white" transform="matrix(-1 0 0 -1 1070 487.694)"/>
</clipPath>
<clipPath id="clip7_396_405">
<rect width="178.333" height="177.847" fill="white" transform="matrix(-1 0 0 -1 891.664 487.694)"/>
</clipPath>
<clipPath id="clip8_396_405">
<rect width="178.333" height="177.847" fill="white" transform="matrix(-1 0 0 -1 713.332 487.694)"/>
</clipPath>
<clipPath id="clip9_396_405">
<rect width="178.333" height="177.847" fill="white" transform="matrix(-1 0 0 -1 535 487.694)"/>
</clipPath>
<clipPath id="clip10_396_405">
<rect width="178.333" height="177.847" fill="white" transform="matrix(-1 0 0 -1 356.666 487.694)"/>
</clipPath>
<clipPath id="clip11_396_405">
<rect width="178.333" height="177.847" fill="white" transform="matrix(-1 0 0 -1 178.332 487.694)"/>
</clipPath>
</defs>
</svg>
