<svg width="1925" height="723" viewBox="0 0 1925 723" fill="none" xmlns="http://www.w3.org/2000/svg">
<path d="M350.278 330.308L293.517 330L242 561.671L287.347 561.362L295.985 517.249H347.501L356.139 561.362H400.869M350.278 330.308L400.869 561.362M350.278 330.308L369.712 338.946L416.602 541.003M400.869 561.362H416.602M331.866 440.746L338.247 470.051H325.907M331.866 440.746L321.589 393.548L305.856 470.051H325.907M331.866 440.746L325.907 470.051M463.491 331.234H416.602V541.003M463.491 331.234V561.362M463.491 331.234L482 342.339V561.362H463.491M463.491 561.362H416.602M416.602 541.003V561.362" stroke="#FFB8A2" stroke-width="2.22279"/>
<path d="M2.00008 241.731L242.096 241.731L242.096 2.2928" stroke="#FFB8A2" stroke-width="2.1343" stroke-miterlimit="10"/>
<path d="M122.118 241.803C188.419 241.803 242.166 188.203 242.166 122.084C242.166 55.9647 188.419 2.3645 122.118 2.3645C55.8175 2.3645 2.07031 55.9647 2.07031 122.084C2.07031 188.203 55.8175 241.803 122.118 241.803Z" stroke="#FFB8A2" stroke-width="2.1343" stroke-miterlimit="10"/>
<path d="M242.166 241.731L482.262 241.731L482.262 2.2928" stroke="#FFB8A2" stroke-width="2.1343" stroke-miterlimit="10"/>
<path d="M362.284 241.803C428.585 241.803 482.332 188.203 482.332 122.084C482.332 55.9647 428.585 2.3645 362.284 2.3645C295.984 2.3645 242.236 55.9647 242.236 122.084C242.236 188.203 295.984 241.803 362.284 241.803Z" stroke="#FFB8A2" stroke-width="2.1343" stroke-miterlimit="10"/>
<path d="M482.33 241.731L722.426 241.731V2.2928" stroke="#FFB8A2" stroke-width="2.1343" stroke-miterlimit="10"/>
<path d="M602.448 241.803C668.749 241.803 722.496 188.203 722.496 122.084C722.496 55.9647 668.749 2.3645 602.448 2.3645C536.148 2.3645 482.4 55.9647 482.4 122.084C482.4 188.203 536.148 241.803 602.448 241.803Z" stroke="#FFB8A2" stroke-width="2.1343" stroke-miterlimit="10"/>
<path d="M722.496 241.731L962.592 241.731V2.2928" stroke="#FFB8A2" stroke-width="2.1343" stroke-miterlimit="10"/>
<path d="M842.614 241.803C908.915 241.803 962.662 188.203 962.662 122.084C962.662 55.9647 908.915 2.3645 842.614 2.3645C776.314 2.3645 722.566 55.9647 722.566 122.084C722.566 188.203 776.314 241.803 842.614 241.803Z" stroke="#FFB8A2" stroke-width="2.1343" stroke-miterlimit="10"/>
<path d="M962.662 241.732L1202.76 241.732V2.29304" stroke="#FFB8A2" stroke-width="2.1343" stroke-miterlimit="10"/>
<path d="M1082.78 241.803C1149.08 241.803 1202.83 188.203 1202.83 122.084C1202.83 55.9644 1149.08 2.36426 1082.78 2.36426C1016.48 2.36426 962.734 55.9644 962.734 122.084C962.734 188.203 1016.48 241.803 1082.78 241.803Z" stroke="#FFB8A2" stroke-width="2.1343" stroke-miterlimit="10"/>
<path d="M1202.83 241.731L1442.92 241.731V2.2928" stroke="#FFB8A2" stroke-width="2.1343" stroke-miterlimit="10"/>
<path d="M1322.95 241.803C1389.25 241.803 1442.99 188.203 1442.99 122.084C1442.99 55.9647 1389.25 2.3645 1322.95 2.3645C1256.65 2.3645 1202.9 55.9647 1202.9 122.084C1202.9 188.203 1256.65 241.803 1322.95 241.803Z" stroke="#FFB8A2" stroke-width="2.1343" stroke-miterlimit="10"/>
<path d="M1683.36 241.367L1923.45 241.367V241.403" stroke="#FFB8A2" stroke-width="2.1343" stroke-miterlimit="10"/>
<path d="M1683.16 242.096L1683.16 2L1683.2 2" stroke="#FFB8A2" stroke-width="2.1343" stroke-miterlimit="10"/>
<path d="M1803.47 241.439C1869.77 241.439 1923.52 187.838 1923.52 121.719C1923.52 55.6002 1869.77 2 1803.47 2C1737.17 2 1683.43 55.6002 1683.43 121.719C1683.43 187.838 1737.17 241.439 1803.47 241.439Z" stroke="#FFB8A2" stroke-width="2.1343" stroke-miterlimit="10"/>
<path d="M1498.23 238.123L1498.99 238.876L1499.3 238.564V238.123H1498.23ZM1458.08 278.28L1457.33 277.527L1457.01 277.839V278.28H1458.08ZM1452.4 302.076C1452.4 305.213 1454.94 307.756 1458.08 307.756C1461.22 307.756 1463.76 305.213 1463.76 302.076C1463.76 298.939 1461.22 296.396 1458.08 296.396C1454.94 296.396 1452.4 298.939 1452.4 302.076ZM1497.17 140.706V238.123H1499.3V140.706H1497.17ZM1497.48 237.37L1457.33 277.527L1458.83 279.033L1498.99 238.876L1497.48 237.37ZM1457.01 278.28V302.076H1459.14V278.28H1457.01Z" fill="#FFB8A2"/>
<path d="M1463.95 287.123C1467.23 288.481 1469.95 290.937 1471.63 294.072C1473.31 297.207 1473.85 300.827 1473.16 304.315C1472.47 307.804 1470.59 310.945 1467.84 313.204C1465.09 315.463 1461.65 316.699 1458.09 316.703C1454.53 316.706 1451.09 315.476 1448.34 313.222C1445.58 310.969 1443.7 307.831 1443 304.344C1442.31 300.856 1442.84 297.235 1444.51 294.097C1446.19 290.959 1448.9 288.498 1452.18 287.134" stroke="#FFB8A2" stroke-width="2.13"/>
<path d="M1512.63 287.203C1512.63 290.34 1515.18 292.883 1518.31 292.883C1521.45 292.883 1523.99 290.34 1523.99 287.203C1523.99 284.066 1521.45 281.523 1518.31 281.523C1515.18 281.523 1512.63 284.066 1512.63 287.203ZM1517.25 155.579V287.203H1519.38V155.579H1517.25Z" fill="#FFB8A2"/>
<path d="M1524.18 272.251C1527.47 273.608 1530.18 276.064 1531.86 279.199C1533.54 282.334 1534.08 285.954 1533.39 289.443C1532.7 292.931 1530.82 296.073 1528.07 298.331C1525.33 300.59 1521.88 301.826 1518.33 301.83C1514.77 301.833 1511.32 300.603 1508.57 298.35C1505.82 296.096 1503.93 292.958 1503.24 289.471C1502.54 285.984 1503.07 282.362 1504.75 279.224C1506.42 276.086 1509.13 273.626 1512.42 272.262" stroke="#FFB8A2" stroke-width="2.13"/>
<path d="M1538.39 254.009H1537.33V254.45L1537.64 254.762L1538.39 254.009ZM1569.89 291.191C1569.89 294.328 1572.44 296.871 1575.57 296.871C1578.71 296.871 1581.25 294.328 1581.25 291.191C1581.25 288.054 1578.71 285.511 1575.57 285.511C1572.44 285.511 1569.89 288.054 1569.89 291.191ZM1537.33 150.642V254.009H1539.46V150.642H1537.33ZM1537.64 254.762L1574.82 291.944L1576.33 290.438L1539.14 253.256L1537.64 254.762Z" fill="#FFB8A2"/>
<path d="M1568.57 277.1C1571.77 275.543 1575.41 275.142 1578.87 275.966C1582.33 276.791 1585.39 278.789 1587.54 281.621C1589.69 284.453 1590.8 287.943 1590.66 291.497C1590.53 295.051 1589.17 298.449 1586.81 301.111C1584.45 303.773 1581.24 305.536 1577.73 306.098C1574.22 306.66 1570.62 305.988 1567.55 304.194C1564.48 302.401 1562.13 299.599 1560.89 296.264C1559.65 292.93 1559.61 289.27 1560.77 285.908" stroke="#FFB8A2" stroke-width="2.13"/>
<path d="M1595.85 215.775H1594.79V216.216L1595.1 216.528L1595.85 215.775ZM1648.65 268.574H1649.72V268.133L1649.4 267.821L1648.65 268.574ZM1642.97 310.961C1642.97 314.098 1645.51 316.641 1648.65 316.641C1651.79 316.641 1654.33 314.098 1654.33 310.961C1654.33 307.824 1651.79 305.281 1648.65 305.281C1645.51 305.281 1642.97 307.824 1642.97 310.961ZM1594.79 131V215.775H1596.92V131H1594.79ZM1647.59 268.574V310.961H1649.72V268.574H1647.59ZM1649.4 267.821L1596.6 215.022L1595.1 216.528L1647.9 269.327L1649.4 267.821Z" fill="#FFB8A2"/>
<path d="M1654.89 296.792C1658.16 298.205 1660.83 300.706 1662.46 303.869C1664.08 307.031 1664.56 310.66 1663.81 314.137C1663.06 317.613 1661.13 320.723 1658.35 322.935C1655.56 325.147 1652.1 326.325 1648.54 326.269C1644.99 326.213 1641.56 324.925 1638.85 322.626C1636.13 320.326 1634.3 317.157 1633.66 313.658C1633.03 310.16 1633.62 306.548 1635.35 303.439C1637.07 300.329 1639.82 297.914 1643.13 296.606" stroke="#FFB8A2" stroke-width="2.13"/>
<path d="M242.025 481.534L242.025 242.096" stroke="#FFB8A2" stroke-width="2.1343" stroke-miterlimit="10"/>
<path d="M122.048 481.606C188.348 481.606 242.096 428.006 242.096 361.887C242.096 295.768 188.348 242.167 122.048 242.167C55.7472 242.167 2 295.768 2 361.887C2 428.006 55.7472 481.606 122.048 481.606Z" stroke="#FFB8A2" stroke-width="2.1343" stroke-miterlimit="10"/>
<path d="M1682.97 481.534V242.096" stroke="#FFB8A2" stroke-width="2.1343" stroke-miterlimit="10"/>
<path d="M1802.95 481.606C1736.65 481.606 1682.9 428.006 1682.9 361.887C1682.9 295.768 1736.65 242.167 1802.95 242.167C1869.25 242.167 1923 295.768 1923 361.887C1923 428.006 1869.25 481.606 1802.95 481.606Z" stroke="#FFB8A2" stroke-width="2.1343" stroke-miterlimit="10"/>
<path d="M2.00008 481.678L242.096 481.678L242.096 721.116" stroke="#FFB8A2" stroke-width="2.1343" stroke-miterlimit="10"/>
<path d="M122.118 481.606C188.419 481.606 242.166 535.206 242.166 601.325C242.166 667.445 188.419 721.045 122.118 721.045C55.8175 721.045 2.07031 667.445 2.07031 601.325C2.07031 535.206 55.8175 481.606 122.118 481.606Z" stroke="#FFB8A2" stroke-width="2.1343" stroke-miterlimit="10"/>
<path d="M482.33 481.678L722.426 481.678V721.116" stroke="#FFB8A2" stroke-width="2.1343" stroke-miterlimit="10"/>
<path d="M722.426 481.678L482.33 481.678L482.33 721.116" stroke="#FFB8A2" stroke-width="2.1343" stroke-miterlimit="10"/>
<path d="M602.448 481.606C668.749 481.606 722.496 535.206 722.496 601.325C722.496 667.445 668.749 721.045 602.448 721.045C536.148 721.045 482.4 667.445 482.4 601.325C482.4 535.206 536.148 481.606 602.448 481.606Z" stroke="#FFB8A2" stroke-width="2.1343" stroke-miterlimit="10"/>
<path d="M722.496 481.678L962.592 481.678V721.116" stroke="#FFB8A2" stroke-width="2.1343" stroke-miterlimit="10"/>
<path d="M842.614 481.606C908.915 481.606 962.662 535.206 962.662 601.325C962.662 667.445 908.915 721.045 842.614 721.045C776.314 721.045 722.566 667.445 722.566 601.325C722.566 535.206 776.314 481.606 842.614 481.606Z" stroke="#FFB8A2" stroke-width="2.1343" stroke-miterlimit="10"/>
<path d="M962.662 481.677L1202.76 481.677V721.116" stroke="#FFB8A2" stroke-width="2.1343" stroke-miterlimit="10"/>
<path d="M1082.78 481.606C1149.08 481.606 1202.83 535.206 1202.83 601.326C1202.83 667.445 1149.08 721.045 1082.78 721.045C1016.48 721.045 962.734 667.445 962.734 601.326C962.734 535.206 1016.48 481.606 1082.78 481.606Z" stroke="#FFB8A2" stroke-width="2.1343" stroke-miterlimit="10"/>
<path d="M1202.83 481.678L1442.92 481.678V721.116" stroke="#FFB8A2" stroke-width="2.1343" stroke-miterlimit="10"/>
<path d="M1322.95 481.606C1389.25 481.606 1442.99 535.206 1442.99 601.325C1442.99 667.445 1389.25 721.045 1322.95 721.045C1256.65 721.045 1202.9 667.445 1202.9 601.325C1202.9 535.206 1256.65 481.606 1322.95 481.606Z" stroke="#FFB8A2" stroke-width="2.1343" stroke-miterlimit="10"/>
<path d="M1442.99 481.677L1683.09 481.677V721.116" stroke="#FFB8A2" stroke-width="2.1343" stroke-miterlimit="10"/>
<path d="M1563.11 481.606C1629.41 481.606 1683.16 535.206 1683.16 601.325C1683.16 667.445 1629.41 721.045 1563.11 721.045C1496.81 721.045 1443.06 667.445 1443.06 601.325C1443.06 535.206 1496.81 481.606 1563.11 481.606Z" stroke="#FFB8A2" stroke-width="2.1343" stroke-miterlimit="10"/>
<path d="M1683.16 481.713L1923.26 481.713V481.678" stroke="#FFB8A2" stroke-width="2.1343" stroke-miterlimit="10"/>
<path d="M1803.28 481.642C1869.58 481.642 1923.33 535.242 1923.33 601.361C1923.33 667.48 1869.58 721.081 1803.28 721.081C1736.98 721.081 1683.23 667.48 1683.23 601.361C1683.23 535.242 1736.98 481.642 1803.28 481.642Z" stroke="#FFB8A2" stroke-width="2.1343" stroke-miterlimit="10"/>
</svg>
