<svg width="1925" height="724" viewBox="0 0 1925 724" fill="none" xmlns="http://www.w3.org/2000/svg">
<path d="M2.00008 241.712L242.096 241.712L242.096 2.27327" stroke="#FFB8A2" stroke-width="2.1343" stroke-miterlimit="10"/>
<path d="M2 241.823V241.712L2 2.27327" stroke="#FFB8A2" stroke-width="2.1343" stroke-miterlimit="10"/>
<path d="M122.118 241.784C188.419 241.784 242.166 188.183 242.166 122.064C242.166 55.9451 188.419 2.34497 122.118 2.34497C55.8175 2.34497 2.07031 55.9451 2.07031 122.064C2.07031 188.183 55.8175 241.784 122.118 241.784Z" stroke="#FFB8A2" stroke-width="2.1343" stroke-miterlimit="10"/>
<path d="M242.166 241.731L482.262 241.731L482.262 2.2928" stroke="#FFB8A2" stroke-width="2.1343" stroke-miterlimit="10"/>
<path d="M362.284 241.803C428.585 241.803 482.332 188.203 482.332 122.084C482.332 55.9647 428.585 2.3645 362.284 2.3645C295.984 2.3645 242.236 55.9647 242.236 122.084C242.236 188.203 295.984 241.803 362.284 241.803Z" stroke="#FFB8A2" stroke-width="2.1343" stroke-miterlimit="10"/>
<path d="M482.33 241.731L722.426 241.731V2.2928" stroke="#FFB8A2" stroke-width="2.1343" stroke-miterlimit="10"/>
<path d="M602.448 241.803C668.749 241.803 722.496 188.203 722.496 122.084C722.496 55.9647 668.749 2.3645 602.448 2.3645C536.148 2.3645 482.4 55.9647 482.4 122.084C482.4 188.203 536.148 241.803 602.448 241.803Z" stroke="#FFB8A2" stroke-width="2.1343" stroke-miterlimit="10"/>
<path d="M722.496 241.731L962.592 241.731V2.2928" stroke="#FFB8A2" stroke-width="2.1343" stroke-miterlimit="10"/>
<path d="M842.614 241.803C908.915 241.803 962.662 188.203 962.662 122.084C962.662 55.9647 908.915 2.3645 842.614 2.3645C776.314 2.3645 722.566 55.9647 722.566 122.084C722.566 188.203 776.314 241.803 842.614 241.803Z" stroke="#FFB8A2" stroke-width="2.1343" stroke-miterlimit="10"/>
<path d="M962.662 241.731L1202.76 241.731V2.2928" stroke="#FFB8A2" stroke-width="2.1343" stroke-miterlimit="10"/>
<path d="M1082.78 241.803C1149.08 241.803 1202.83 188.203 1202.83 122.084C1202.83 55.9647 1149.08 2.3645 1082.78 2.3645C1016.48 2.3645 962.732 55.9647 962.732 122.084C962.732 188.203 1016.48 241.803 1082.78 241.803Z" stroke="#FFB8A2" stroke-width="2.1343" stroke-miterlimit="10"/>
<path d="M1443.19 241.367L1683.28 241.367V241.403" stroke="#FFB8A2" stroke-width="2.1343" stroke-miterlimit="10"/>
<path d="M1442.99 242.096L1442.99 2L1443.03 2" stroke="#FFB8A2" stroke-width="2.1343" stroke-miterlimit="10"/>
<path d="M1563.31 241.439C1629.61 241.439 1683.35 187.838 1683.35 121.719C1683.35 55.6002 1629.61 2 1563.31 2C1497.01 2 1443.26 55.6002 1443.26 121.719C1443.26 187.838 1497.01 241.439 1563.31 241.439Z" stroke="#FFB8A2" stroke-width="2.1343" stroke-miterlimit="10"/>
<path d="M1683.2 2.00008L1683.2 242.096L1683.17 242.096" stroke="#FFB8A2" stroke-width="2.1343" stroke-miterlimit="10"/>
<path d="M1683.55 241.367L1923.64 241.367V241.403" stroke="#FFB8A2" stroke-width="2.1343" stroke-miterlimit="10"/>
<path d="M1683.35 242.096L1683.35 2L1683.39 2" stroke="#FFB8A2" stroke-width="2.1343" stroke-miterlimit="10"/>
<path d="M1803.67 241.439C1869.97 241.439 1923.71 187.838 1923.71 121.719C1923.71 55.6002 1869.97 2 1803.67 2C1737.37 2 1683.62 55.6002 1683.62 121.719C1683.62 187.838 1737.37 241.439 1803.67 241.439Z" stroke="#FFB8A2" stroke-width="2.1343" stroke-miterlimit="10"/>
<path d="M1923.56 2.00008L1923.56 242.096L1923.53 242.096" stroke="#FFB8A2" stroke-width="2.1343" stroke-miterlimit="10"/>
<path d="M1268.23 178.123L1268.99 178.876L1269.3 178.564V178.123H1268.23ZM1228.08 218.28L1227.33 217.527L1227.01 217.839V218.28H1228.08ZM1222.4 242.076C1222.4 245.213 1224.94 247.756 1228.08 247.756C1231.22 247.756 1233.76 245.213 1233.76 242.076C1233.76 238.939 1231.22 236.396 1228.08 236.396C1224.94 236.396 1222.4 238.939 1222.4 242.076ZM1267.17 80.7058V178.123H1269.3V80.7058H1267.17ZM1267.48 177.37L1227.33 217.527L1228.83 219.033L1268.99 178.876L1267.48 177.37ZM1227.01 218.28V242.076H1229.14V218.28H1227.01Z" fill="#FFB8A2"/>
<path d="M1233.95 227.123C1237.23 228.481 1239.95 230.937 1241.63 234.072C1243.31 237.207 1243.85 240.827 1243.16 244.315C1242.47 247.804 1240.59 250.945 1237.84 253.204C1235.09 255.463 1231.65 256.699 1228.09 256.703C1224.53 256.706 1221.09 255.476 1218.34 253.222C1215.58 250.969 1213.7 247.831 1213 244.344C1212.31 240.856 1212.84 237.235 1214.51 234.097C1216.19 230.959 1218.9 228.498 1222.18 227.134" stroke="#FFB8A2" stroke-width="2.13"/>
<path d="M1282.63 227.203C1282.63 230.34 1285.18 232.883 1288.31 232.883C1291.45 232.883 1293.99 230.34 1293.99 227.203C1293.99 224.066 1291.45 221.523 1288.31 221.523C1285.18 221.523 1282.63 224.066 1282.63 227.203ZM1287.25 95.5786V227.203H1289.38V95.5786H1287.25Z" fill="#FFB8A2"/>
<path d="M1294.18 212.251C1297.47 213.608 1300.18 216.064 1301.86 219.199C1303.54 222.334 1304.08 225.954 1303.39 229.443C1302.7 232.931 1300.82 236.073 1298.07 238.331C1295.33 240.59 1291.88 241.826 1288.33 241.83C1284.77 241.833 1281.32 240.603 1278.57 238.35C1275.82 236.096 1273.93 232.958 1273.24 229.471C1272.54 225.984 1273.07 222.362 1274.75 219.224C1276.42 216.086 1279.13 213.626 1282.42 212.262" stroke="#FFB8A2" stroke-width="2.13"/>
<path d="M1308.39 194.009H1307.33V194.45L1307.64 194.762L1308.39 194.009ZM1339.89 231.191C1339.89 234.328 1342.44 236.871 1345.57 236.871C1348.71 236.871 1351.25 234.328 1351.25 231.191C1351.25 228.054 1348.71 225.511 1345.57 225.511C1342.44 225.511 1339.89 228.054 1339.89 231.191ZM1307.33 90.6423V194.009H1309.46V90.6423H1307.33ZM1307.64 194.762L1344.82 231.944L1346.33 230.438L1309.14 193.256L1307.64 194.762Z" fill="#FFB8A2"/>
<path d="M1338.57 217.1C1341.77 215.543 1345.41 215.142 1348.87 215.966C1352.33 216.791 1355.39 218.789 1357.54 221.621C1359.69 224.453 1360.8 227.943 1360.66 231.497C1360.53 235.051 1359.17 238.449 1356.81 241.111C1354.45 243.773 1351.24 245.536 1347.73 246.098C1344.22 246.66 1340.62 245.988 1337.55 244.194C1334.48 242.401 1332.13 239.599 1330.89 236.264C1329.65 232.93 1329.61 229.27 1330.77 225.908" stroke="#FFB8A2" stroke-width="2.13"/>
<path d="M1365.85 155.775H1364.79V156.216L1365.1 156.528L1365.85 155.775ZM1418.65 208.574H1419.72V208.133L1419.4 207.821L1418.65 208.574ZM1412.97 250.961C1412.97 254.098 1415.51 256.641 1418.65 256.641C1421.79 256.641 1424.33 254.098 1424.33 250.961C1424.33 247.824 1421.79 245.281 1418.65 245.281C1415.51 245.281 1412.97 247.824 1412.97 250.961ZM1364.79 71V155.775H1366.92V71H1364.79ZM1417.59 208.574V250.961H1419.72V208.574H1417.59ZM1419.4 207.821L1366.6 155.022L1365.1 156.528L1417.9 209.327L1419.4 207.821Z" fill="#FFB8A2"/>
<path d="M1424.89 236.792C1428.16 238.205 1430.83 240.706 1432.46 243.869C1434.08 247.031 1434.56 250.66 1433.81 254.137C1433.06 257.613 1431.13 260.723 1428.35 262.935C1425.56 265.147 1422.1 266.325 1418.54 266.269C1414.99 266.213 1411.56 264.925 1408.85 262.626C1406.13 260.326 1404.3 257.157 1403.66 253.658C1403.03 250.16 1403.62 246.548 1405.35 243.439C1407.07 240.329 1409.82 237.914 1413.13 236.606" stroke="#FFB8A2" stroke-width="2.13"/>
<path d="M242.025 481.63L242.025 242.191" stroke="#FFB8A2" stroke-width="2.1343" stroke-miterlimit="10"/>
<path d="M122.048 481.702C188.348 481.702 242.096 428.102 242.096 361.983C242.096 295.863 188.348 242.263 122.048 242.263C55.7472 242.263 2 295.863 2 361.983C2 428.102 55.7472 481.702 122.048 481.702Z" stroke="#FFB8A2" stroke-width="2.1343" stroke-miterlimit="10"/>
<path d="M2 482.096V481.985L2 242.546" stroke="#FFB8A2" stroke-width="2.1343" stroke-miterlimit="10"/>
<path d="M242.166 482.018L242.166 242.58" stroke="#FFB8A2" stroke-width="2.1343" stroke-miterlimit="10"/>
<path d="M362.144 482.09C295.843 482.09 242.096 428.49 242.096 362.371C242.096 296.252 295.843 242.652 362.144 242.652C428.444 242.652 482.191 296.252 482.191 362.371C482.191 428.49 428.444 482.09 362.144 482.09Z" stroke="#FFB8A2" stroke-width="2.1343" stroke-miterlimit="10"/>
<path d="M482.038 242.096L482.038 482.191L482.002 482.191" stroke="#FFB8A2" stroke-width="2.1343" stroke-miterlimit="10"/>
<path d="M1443.53 482.388V481.338V241.899" stroke="#FFB8A2" stroke-width="2.1343" stroke-miterlimit="10"/>
<path d="M1683.62 481.338V241.899" stroke="#FFB8A2" stroke-width="2.1343" stroke-miterlimit="10"/>
<path d="M1563.5 481.409C1497.2 481.409 1443.46 427.809 1443.46 361.69C1443.46 295.571 1497.2 241.971 1563.5 241.971C1629.81 241.971 1683.55 295.571 1683.55 361.69C1683.55 427.809 1629.81 481.409 1563.5 481.409Z" stroke="#FFB8A2" stroke-width="2.1343" stroke-miterlimit="10"/>
<path d="M1923.65 481.827V242.389" stroke="#FFB8A2" stroke-width="2.1343" stroke-miterlimit="10"/>
<path d="M1803.67 481.899C1869.97 481.899 1923.72 428.299 1923.72 362.18C1923.72 296.06 1869.97 242.46 1803.67 242.46C1737.37 242.46 1683.62 296.06 1683.62 362.18C1683.62 428.299 1737.37 481.899 1803.67 481.899Z" stroke="#FFB8A2" stroke-width="2.1343" stroke-miterlimit="10"/>
<path d="M1923.72 483.32L1683.62 483.32V722.759" stroke="#FFB8A2" stroke-width="2.1343" stroke-miterlimit="10"/>
<path d="M1803.6 483.249C1737.3 483.249 1683.55 536.849 1683.55 602.968C1683.55 669.087 1737.3 722.687 1803.6 722.687C1869.9 722.687 1923.65 669.087 1923.65 602.968C1923.65 536.849 1869.9 483.249 1803.6 483.249Z" stroke="#FFB8A2" stroke-width="2.1343" stroke-miterlimit="10"/>
<path d="M1923.56 482.191L1923.56 722.287L1923.53 722.287" stroke="#FFB8A2" stroke-width="2.1343" stroke-miterlimit="10"/>
<path d="M1683.55 482.792L1443.46 482.792V722.23" stroke="#FFB8A2" stroke-width="2.1343" stroke-miterlimit="10"/>
<path d="M1563.43 482.72C1497.13 482.72 1443.39 536.32 1443.39 602.439C1443.39 668.558 1497.13 722.158 1563.43 722.158C1629.74 722.158 1683.48 668.558 1683.48 602.439C1683.48 536.32 1629.74 482.72 1563.43 482.72Z" stroke="#FFB8A2" stroke-width="2.1343" stroke-miterlimit="10"/>
<path d="M1443.39 482.792L1203.29 482.792V722.23" stroke="#FFB8A2" stroke-width="2.1343" stroke-miterlimit="10"/>
<path d="M1323.27 482.72C1256.97 482.72 1203.22 536.32 1203.22 602.439C1203.22 668.558 1256.97 722.158 1323.27 722.158C1389.57 722.158 1443.32 668.558 1443.32 602.439C1443.32 536.32 1389.57 482.72 1323.27 482.72Z" stroke="#FFB8A2" stroke-width="2.1343" stroke-miterlimit="10"/>
<path d="M1203.22 482.792L963.127 482.792V722.23" stroke="#FFB8A2" stroke-width="2.1343" stroke-miterlimit="10"/>
<path d="M1083.1 482.72C1016.8 482.72 963.057 536.32 963.057 602.439C963.057 668.558 1016.8 722.158 1083.1 722.158C1149.41 722.158 1203.15 668.558 1203.15 602.439C1203.15 536.32 1149.41 482.72 1083.1 482.72Z" stroke="#FFB8A2" stroke-width="2.1343" stroke-miterlimit="10"/>
<path d="M963.057 482.792L722.961 482.792V722.23" stroke="#FFB8A2" stroke-width="2.1343" stroke-miterlimit="10"/>
<path d="M842.939 482.72C776.638 482.72 722.891 536.32 722.891 602.439C722.891 668.558 776.638 722.158 842.939 722.158C909.239 722.158 962.986 668.558 962.986 602.439C962.986 536.32 909.239 482.72 842.939 482.72Z" stroke="#FFB8A2" stroke-width="2.1343" stroke-miterlimit="10"/>
<path d="M482.531 483.156L242.436 483.156V483.12" stroke="#FFB8A2" stroke-width="2.1343" stroke-miterlimit="10"/>
<path d="M482.727 482.427L482.727 722.523L482.691 722.523" stroke="#FFB8A2" stroke-width="2.1343" stroke-miterlimit="10"/>
<path d="M242.399 482.427L242.399 722.523L242.363 722.523" stroke="#FFB8A2" stroke-width="2.1343" stroke-miterlimit="10"/>
<path d="M362.413 483.084C296.113 483.084 242.365 536.684 242.365 602.804C242.365 668.923 296.113 722.523 362.413 722.523C428.714 722.523 482.461 668.923 482.461 602.804C482.461 536.684 428.714 483.084 362.413 483.084Z" stroke="#FFB8A2" stroke-width="2.1343" stroke-miterlimit="10"/>
<path d="M242.168 483.156L2.07227 483.156V483.12" stroke="#FFB8A2" stroke-width="2.1343" stroke-miterlimit="10"/>
<path d="M242.364 482.427L242.364 722.523L242.328 722.523" stroke="#FFB8A2" stroke-width="2.1343" stroke-miterlimit="10"/>
<path d="M2.03563 482.427L2.03562 722.523L2 722.523" stroke="#FFB8A2" stroke-width="2.1343" stroke-miterlimit="10"/>
<path d="M122.05 483.084C55.7493 483.084 2.00203 536.684 2.00203 602.804C2.00203 668.923 55.7493 722.523 122.05 722.523C188.35 722.523 242.098 668.923 242.098 602.804C242.098 536.684 188.35 483.084 122.05 483.084Z" stroke="#FFB8A2" stroke-width="2.1343" stroke-miterlimit="10"/>
<path d="M658.765 539.636L658.012 538.883L657.7 539.195V539.636H658.765ZM698.922 499.479L699.675 500.232L699.987 499.921V499.479H698.922ZM704.602 475.683C704.602 472.546 702.059 470.003 698.922 470.003C695.785 470.003 693.242 472.546 693.242 475.683C693.242 478.82 695.785 481.363 698.922 481.363C702.059 481.363 704.602 478.82 704.602 475.683ZM659.83 637.053V539.636H657.7V637.053H659.83ZM659.518 540.389L699.675 500.232L698.169 498.726L658.012 538.883L659.518 540.389ZM699.987 499.479V475.683H697.857V499.479H699.987Z" fill="#FFB8A2"/>
<path d="M693.054 490.636C689.767 489.278 687.053 486.822 685.373 483.687C683.694 480.552 683.154 476.932 683.844 473.444C684.535 469.955 686.414 466.814 689.161 464.555C691.908 462.296 695.353 461.06 698.909 461.056C702.465 461.053 705.913 462.283 708.664 464.537C711.415 466.79 713.3 469.928 713.997 473.415C714.694 476.903 714.161 480.524 712.487 483.662C710.813 486.8 708.104 489.261 704.819 490.625" stroke="#FFB8A2" stroke-width="2.13"/>
<path d="M644.368 490.556C644.368 487.419 641.824 484.876 638.688 484.876C635.551 484.876 633.007 487.419 633.007 490.556C633.007 493.693 635.551 496.236 638.688 496.236C641.824 496.236 644.368 493.693 644.368 490.556ZM639.753 622.18V490.556H637.622V622.18H639.753Z" fill="#FFB8A2"/>
<path d="M632.82 505.508C629.533 504.151 626.818 501.695 625.139 498.56C623.46 495.425 622.919 491.805 623.61 488.316C624.3 484.828 626.179 481.686 628.926 479.428C631.673 477.169 635.118 475.933 638.675 475.929C642.231 475.926 645.679 477.156 648.43 479.409C651.181 481.663 653.066 484.801 653.763 488.288C654.46 491.775 653.926 495.397 652.253 498.535C650.579 501.673 647.869 504.133 644.585 505.497" stroke="#FFB8A2" stroke-width="2.13"/>
<path d="M618.609 523.75H619.674V523.309L619.362 522.997L618.609 523.75ZM587.107 486.568C587.107 483.431 584.564 480.888 581.427 480.888C578.29 480.888 575.747 483.431 575.747 486.568C575.747 489.705 578.29 492.248 581.427 492.248C584.564 492.248 587.107 489.705 587.107 486.568ZM619.674 627.117V523.75H617.544V627.117H619.674ZM619.362 522.997L582.18 485.815L580.674 487.321L617.856 524.503L619.362 522.997Z" fill="#FFB8A2"/>
<path d="M588.429 500.659C585.232 502.216 581.593 502.617 578.134 501.793C574.674 500.968 571.608 498.97 569.456 496.138C567.305 493.306 566.203 489.816 566.336 486.262C566.47 482.708 567.832 479.31 570.189 476.648C572.547 473.986 575.755 472.223 579.267 471.661C582.779 471.099 586.377 471.771 589.448 473.565C592.519 475.358 594.873 478.16 596.11 481.495C597.347 484.829 597.389 488.489 596.229 491.851" stroke="#FFB8A2" stroke-width="2.13"/>
<path d="M561.148 561.984H562.213V561.543L561.902 561.231L561.148 561.984ZM508.35 509.185H507.285V509.626L507.597 509.938L508.35 509.185ZM514.03 466.798C514.03 463.661 511.487 461.118 508.35 461.118C505.213 461.118 502.67 463.661 502.67 466.798C502.67 469.935 505.213 472.478 508.35 472.478C511.487 472.478 514.03 469.935 514.03 466.798ZM562.213 646.759V561.984H560.083V646.759H562.213ZM509.415 509.185V466.798H507.285V509.185H509.415ZM507.597 509.938L560.395 562.737L561.902 561.231L509.103 508.432L507.597 509.938Z" fill="#FFB8A2"/>
<path d="M502.107 480.967C498.843 479.554 496.17 477.053 494.544 473.89C492.917 470.728 492.438 467.099 493.187 463.622C493.936 460.146 495.867 457.036 498.652 454.824C501.436 452.612 504.902 451.434 508.458 451.49C512.014 451.546 515.44 452.834 518.153 455.133C520.866 457.433 522.698 460.602 523.336 464.101C523.975 467.599 523.38 471.211 521.654 474.32C519.928 477.43 517.177 479.845 513.871 481.153" stroke="#FFB8A2" stroke-width="2.13"/>
</svg>
