<svg width="41" height="41" viewBox="0 0 41 41" fill="none" xmlns="http://www.w3.org/2000/svg">
<g clip-path="url(#clip0_402_497)">
<g clip-path="url(#clip1_402_497)">
<mask id="mask0_402_497" style="mask-type:luminance" maskUnits="userSpaceOnUse" x="0" y="0" width="41" height="41">
<path d="M40.1416 0.609375H0.271484V40.4795H40.1416V0.609375Z" fill="white"/>
</mask>
<g mask="url(#mask0_402_497)">
<mask id="mask1_402_497" style="mask-type:luminance" maskUnits="userSpaceOnUse" x="0" y="0" width="41" height="41">
<path d="M40.1397 0.609375H0.269531V40.4795H40.1397V0.609375Z" fill="white"/>
</mask>
<g mask="url(#mask1_402_497)">
<path d="M20.2046 0.609375C9.19546 0.609375 0.269531 9.5353 0.269531 20.5444C0.269531 31.5536 9.19546 40.4795 20.2046 40.4795C31.2137 40.4795 40.1397 31.5536 40.1397 20.5444C40.1397 9.5353 31.2137 0.609375 20.2046 0.609375ZM30.7436 27.4602H27.642C25.8894 27.4602 25.5954 26.4618 24.1501 25.0199C22.846 23.7158 22.1233 24.7159 22.1532 26.5731C22.1632 27.0665 21.919 27.4602 21.3309 27.4602C19.4952 27.4602 16.8555 27.7194 14.1809 24.8355C11.4448 21.8801 8.57581 15.9511 8.57581 15.368C8.57581 15.0224 8.86154 14.8679 9.33832 14.8679H12.4914C13.327 14.8679 13.3968 15.2816 13.631 15.8115C14.6012 18.0227 16.922 22.4599 17.5416 19.9829C17.8971 18.5609 18.0416 15.2666 16.5199 14.9826C15.6561 14.8231 17.1778 13.8994 19.3806 13.8994C19.9288 13.8994 20.5236 13.9576 21.1316 14.0988C22.2496 14.3579 22.2546 14.8596 22.238 15.5906C22.1815 18.3582 21.8476 20.2188 22.5769 20.689C23.2729 21.1392 25.1036 18.1938 26.0721 15.9195C26.3363 15.2915 26.3894 14.8696 27.1403 14.8696H30.9978C33.0179 14.8696 30.7336 17.7735 28.9877 20.0394C27.5806 21.8651 27.6553 21.9 29.2917 23.4184C30.4562 24.4999 31.8334 25.9767 31.8334 26.8124C31.8334 27.2077 31.5244 27.4602 30.7436 27.4602Z" fill="#2B80F9"/>
</g>
</g>
</g>
</g>
<defs>
<clipPath id="clip0_402_497">
<rect width="39.8701" height="39.8701" fill="white" transform="translate(0.273438 0.609375)"/>
</clipPath>
<clipPath id="clip1_402_497">
<rect width="39.8701" height="39.8701" fill="white" transform="translate(0.273438 0.609375)"/>
</clipPath>
</defs>
</svg>
