<svg width="41" height="41" viewBox="0 0 41 41" fill="none" xmlns="http://www.w3.org/2000/svg">
<g clip-path="url(#clip0_402_498)">
<g clip-path="url(#clip1_402_498)">
<mask id="mask0_402_498" style="mask-type:luminance" maskUnits="userSpaceOnUse" x="0" y="0" width="41" height="41">
<path d="M40.583 0.609375H0.712891V40.4795H40.583V0.609375Z" fill="white"/>
</mask>
<g mask="url(#mask0_402_498)">
<mask id="mask1_402_498" style="mask-type:luminance" maskUnits="userSpaceOnUse" x="0" y="0" width="41" height="41">
<path d="M40.585 0.609375H0.714844V40.4795H40.585V0.609375Z" fill="white"/>
</mask>
<g mask="url(#mask1_402_498)">
<path d="M20.6499 0.609375C9.64077 0.609375 0.714844 9.5353 0.714844 20.5444C0.714844 31.5536 9.64077 40.4795 20.6499 40.4795C31.659 40.4795 40.585 31.5536 40.585 20.5444C40.585 9.5353 31.659 0.609375 20.6499 0.609375ZM28.0275 28.6713C24.5356 28.9105 16.7576 28.9105 13.2706 28.6713C9.48959 28.4121 9.04936 26.5615 9.02112 20.5444C9.04936 14.5157 9.49458 12.6767 13.2706 12.4176C16.7576 12.1784 24.5372 12.1784 28.0275 12.4176C31.8102 12.6767 32.2488 14.5274 32.2787 20.5444C32.2488 26.5731 31.8052 28.4121 28.0275 28.6713ZM17.3274 16.6538L25.4958 20.5378L17.3274 24.4351V16.6538Z" fill="#2B80F9"/>
</g>
</g>
</g>
</g>
<defs>
<clipPath id="clip0_402_498">
<rect width="39.8701" height="39.8701" fill="white" transform="translate(0.710938 0.609375)"/>
</clipPath>
<clipPath id="clip1_402_498">
<rect width="39.8701" height="39.8701" fill="white" transform="translate(0.710938 0.609375)"/>
</clipPath>
</defs>
</svg>
