<svg width="41" height="41" viewBox="0 0 41 41" fill="none" xmlns="http://www.w3.org/2000/svg">
<g clip-path="url(#clip0_402_499)">
<g clip-path="url(#clip1_402_499)">
<path d="M40.0205 20.5444C40.0205 9.53461 31.0953 0.609375 20.0855 0.609375C9.07562 0.609375 0.150391 9.53461 0.150391 20.5444C0.150391 31.5543 9.07562 40.4795 20.0855 40.4795C31.0953 40.4795 40.0205 31.5543 40.0205 20.5444Z" fill="#2B80F9"/>
<mask id="mask0_402_499" style="mask-type:luminance" maskUnits="userSpaceOnUse" x="7" y="7" width="26" height="23">
<path d="M32.5473 7.97607H7.61719V29.79H32.5473V7.97607Z" fill="white"/>
</mask>
<g mask="url(#mask0_402_499)">
<path d="M20.7516 21.1672H11.5286V17.4721H20.7516C21.2903 17.4721 21.6649 17.5671 21.853 17.7331C22.0409 17.8992 22.1573 18.207 22.1573 18.6569V19.9837C22.1573 20.4577 22.0409 20.7657 21.853 20.9316C21.6649 21.0978 21.2903 21.1672 20.7516 21.1672ZM21.3844 13.9882H7.61719V29.7908H11.5286V24.6495H18.737L22.1573 29.7908H26.5374L22.7664 24.6254C24.1567 24.4168 24.781 23.9855 25.2958 23.2745C25.8106 22.5635 26.0688 21.4269 26.0688 19.91V18.725C26.0688 17.8254 25.9749 17.1144 25.8106 16.5695C25.6465 16.0246 25.3659 15.5506 24.9675 15.1249C24.5466 14.7219 24.0781 14.4381 23.5154 14.2479C22.9529 14.0819 22.25 13.9882 21.3844 13.9882Z" fill="white"/>
<path d="M29.54 13.986C31.1998 13.986 32.5451 12.6406 32.5451 10.9811C32.5451 9.32144 31.1998 7.97607 29.54 7.97607C27.8804 7.97607 26.5352 9.32144 26.5352 10.9811C26.5352 12.6406 27.8804 13.986 29.54 13.986Z" fill="white"/>
</g>
</g>
</g>
<defs>
<clipPath id="clip0_402_499">
<rect width="39.8701" height="39.8701" fill="white" transform="translate(0.150391 0.609375)"/>
</clipPath>
<clipPath id="clip1_402_499">
<rect width="39.8701" height="39.8701" fill="white" transform="translate(0.150391 0.609375)"/>
</clipPath>
</defs>
</svg>
