<svg width="40" height="40" viewBox="0 0 40 40" fill="none" xmlns="http://www.w3.org/2000/svg">
<path d="M34.9103 16.208C34.7075 15.5806 34.1511 15.1351 33.4928 15.0757L24.5505 14.2638L21.0144 5.98734C20.7537 5.38079 20.1599 4.98816 19.5002 4.98816C18.8404 4.98816 18.2466 5.38079 17.9859 5.98876L14.4499 14.2638L5.50615 15.0757C4.84901 15.1365 4.29398 15.5806 4.08999 16.208C3.88599 16.8354 4.07438 17.5235 4.5715 17.9572L11.3308 23.8852L9.33765 32.6651C9.19181 33.3107 9.44237 33.978 9.97801 34.3652C10.2659 34.5732 10.6028 34.6791 10.9424 34.6791C11.2353 34.6791 11.5258 34.6001 11.7866 34.4441L19.5002 29.834L27.2109 34.4441C27.7752 34.7836 28.4864 34.7526 29.0209 34.3652C29.5568 33.9768 29.8071 33.3093 29.6613 32.6651L27.6681 23.8852L34.4274 17.9584C34.9245 17.5235 35.1143 16.8365 34.9103 16.208Z" fill="#34A853"/>
</svg>
