<svg width="40" height="40" viewBox="0 0 40 40" fill="none" xmlns="http://www.w3.org/2000/svg">
<path d="M22.1152 19.3794C25.8056 19.3794 28.8044 16.3806 28.8044 12.6967C28.8044 9.00628 25.8056 6.00745 22.1152 6.00745C18.4249 6.00745 15.426 9.00628 15.426 12.6967C15.426 16.3806 18.4249 19.3794 22.1152 19.3794Z" fill="#34A853"/>
<path d="M14.1787 25.7713C14.6052 26.1655 14.8508 26.7343 14.8508 27.3289V33.3395C14.8508 33.6949 15.1416 33.9858 15.4971 33.9858H29.3409V29.048C29.3409 28.6861 29.6317 28.4017 29.9872 28.4017C30.3426 28.4017 30.6335 28.6861 30.6335 29.048V33.9858H33.865C34.2204 33.9858 34.5113 33.6949 34.5113 33.3395V28.5698C34.5113 23.8906 30.7046 20.0839 26.0189 20.0839H20.1052C18.5994 20.0839 17.2033 19.4117 16.2727 18.2484C13.9137 15.3142 11.7421 11.9663 9.80321 8.29535C9.3508 7.43577 8.54939 6.81532 7.60579 6.59558C6.65573 6.37584 5.66042 6.57619 4.87194 7.14493C3.5341 8.12085 3.10107 9.9628 3.87663 11.4234C7.19862 17.7249 10.5658 22.417 14.1787 25.7713Z" fill="#34A853"/>
</svg>
