<svg width="53" height="53" viewBox="0 0 53 53" fill="none" xmlns="http://www.w3.org/2000/svg">
<rect width="53" height="53" rx="26.5" fill="#FFCCBD"/>
<path d="M18.9491 36V32.5836L26.1177 26.3074C26.6551 25.8212 27.1126 25.3766 27.49 24.9735C27.8675 24.5641 28.1554 24.1546 28.3537 23.7452C28.5521 23.3293 28.6512 22.8783 28.6512 22.392C28.6512 21.8482 28.5329 21.3844 28.2962 21.0005C28.0594 20.6103 27.7332 20.3096 27.3173 20.0985C26.9015 19.8873 26.4248 19.7818 25.8874 19.7818C25.3436 19.7818 24.867 19.8937 24.4575 20.1176C24.0481 20.3352 23.7282 20.6519 23.4979 21.0677C23.2739 21.4836 23.162 21.989 23.162 22.584H18.6612C18.6612 21.2468 18.9619 20.0921 19.5633 19.1196C20.1647 18.1472 21.0092 17.3986 22.0968 16.874C23.1908 16.343 24.4607 16.0775 25.9066 16.0775C27.3973 16.0775 28.6928 16.327 29.7932 16.826C30.8936 17.325 31.7445 18.0224 32.3459 18.9181C32.9537 19.8074 33.2576 20.8406 33.2576 22.0178C33.2576 22.7663 33.1072 23.5084 32.8066 24.2442C32.5059 24.9799 31.9653 25.7924 31.1847 26.6817C30.4106 27.571 29.3102 28.6362 27.8835 29.8774L25.5323 32.0462V32.171H33.4975V36H18.9491Z" fill="#EE6030"/>
</svg>
