<svg width="53" height="53" viewBox="0 0 53 53" fill="none" xmlns="http://www.w3.org/2000/svg">
<rect width="53" height="53" rx="26.5" fill="#FFCCBD"/>
<path d="M25.9248 36.2687C24.4278 36.2687 23.1002 36.0128 21.9422 35.501C20.7907 34.9828 19.8822 34.2694 19.2168 33.3609C18.5514 32.4525 18.2124 31.4064 18.1996 30.2229H22.9787C22.9979 30.6515 23.1354 31.0322 23.3913 31.3648C23.6472 31.6911 23.9959 31.947 24.4374 32.1326C24.8788 32.3181 25.381 32.4109 25.944 32.4109C26.507 32.4109 27.0028 32.3117 27.4315 32.1134C27.8665 31.9087 28.2056 31.6304 28.4487 31.2785C28.6918 30.9202 28.8102 30.5108 28.8038 30.0501C28.8102 29.5895 28.679 29.18 28.4103 28.8218C28.1416 28.4635 27.761 28.1852 27.2683 27.9868C26.7821 27.7885 26.2063 27.6894 25.541 27.6894H23.6312V24.3114H25.541C26.1232 24.3114 26.635 24.2154 27.0764 24.0235C27.5243 23.8315 27.8729 23.5628 28.1224 23.2173C28.372 22.8655 28.4935 22.4624 28.4871 22.0082C28.4935 21.5667 28.3879 21.1797 28.1704 20.847C27.9593 20.5079 27.6618 20.2456 27.2779 20.0601C26.9005 19.8745 26.4622 19.7818 25.9632 19.7818C25.4386 19.7818 24.962 19.8745 24.5333 20.0601C24.1111 20.2456 23.7752 20.5079 23.5257 20.847C23.2762 21.1861 23.145 21.5795 23.1322 22.0274H18.593C18.6058 20.8566 18.9321 19.8266 19.5719 18.9373C20.2117 18.0416 21.0817 17.341 22.1822 16.8356C23.289 16.3302 24.5493 16.0775 25.9632 16.0775C27.3707 16.0775 28.6087 16.3238 29.6771 16.8164C30.7455 17.309 31.5772 17.9808 32.1722 18.8317C32.7672 19.6762 33.0647 20.6327 33.0647 21.7011C33.0711 22.8079 32.7096 23.7196 31.9803 24.4361C31.2573 25.1527 30.3265 25.5941 29.1877 25.7604V25.914C30.7103 26.0931 31.8587 26.5857 32.6328 27.3919C33.4134 28.198 33.8004 29.2056 33.794 30.4148C33.794 31.5536 33.4581 32.5644 32.7864 33.4473C32.121 34.3238 31.1934 35.0148 30.0034 35.5202C28.8198 36.0192 27.4603 36.2687 25.9248 36.2687Z" fill="#EE6030"/>
</svg>
