<svg width="80" height="80" viewBox="0 0 80 80" fill="none" xmlns="http://www.w3.org/2000/svg">
<g clip-path="url(#clip0_799_5711)">
<path d="M34.7261 28.1638C21.1566 28.1638 10.0001 37.4951 10.0001 48.9653C10.0001 53.5503 11.7786 58.21 15.04 61.8216L10.4344 67.0846C9.98126 67.603 9.87133 68.3394 10.1581 68.9677C10.4431 69.5959 11.0679 69.9994 11.7579 69.9994H36.4839C46.5029 69.9994 59.4521 61.3721 59.4521 48.9653C59.4521 37.4951 48.2956 28.1638 34.7261 28.1638ZM24.0623 52.1873C22.1242 52.1873 20.5468 50.6097 20.5468 48.6717C20.5468 46.7337 22.1243 45.1562 24.0623 45.1562C26.0002 45.1562 27.5778 46.7338 27.5778 48.6717C27.5779 50.6097 26.0003 52.1873 24.0623 52.1873ZM34.7261 52.1873C32.7881 52.1873 31.2106 50.6097 31.2106 48.6717C31.2106 46.7337 32.7882 45.1562 34.7261 45.1562C36.664 45.1562 38.2416 46.7338 38.2416 48.6717C38.2416 50.6097 36.6641 52.1873 34.7261 52.1873ZM45.3899 52.1873C43.4519 52.1873 41.8744 50.6097 41.8744 48.6717C41.8744 46.7337 43.452 45.1562 45.3899 45.1562C47.3279 45.1562 48.9054 46.7338 48.9054 48.6717C48.9054 50.6097 47.328 52.1873 45.3899 52.1873Z" fill="#2B80F9"/>
<path d="M69.5748 45.7689L65.4362 40.9402C68.3904 37.6067 69.9989 33.5417 69.9989 29.3362C69.9988 18.6746 59.7474 10.0007 47.1478 10.0007C35.7542 10.0007 26.0744 17.101 24.3652 26.3425C27.5443 25.2623 31.1095 24.6482 34.7262 24.6482C50.1192 24.6482 62.7658 35.3996 62.9506 48.6717H68.2411C69.7426 48.6718 70.5489 46.9037 69.5748 45.7689Z" fill="#2B80F9"/>
</g>
<defs>
<clipPath id="clip0_799_5711">
<rect width="60" height="60" fill="white" transform="translate(10 10)"/>
</clipPath>
</defs>
</svg>
