<svg width="80" height="80" viewBox="0 0 80 80" fill="none" xmlns="http://www.w3.org/2000/svg">
<path d="M35.0025 39.9165C40.7535 39.9165 45.4156 35.2544 45.4156 29.5034C45.4156 23.7524 40.7535 19.0903 35.0025 19.0903C29.2515 19.0903 24.5894 23.7524 24.5894 29.5034C24.5894 35.2544 29.2515 39.9165 35.0025 39.9165Z" fill="#2B80F9"/>
<path fill-rule="evenodd" clip-rule="evenodd" d="M44.5928 38.2504C48.6255 41.2824 51.247 46.1752 51.247 51.6884C51.247 54.0456 49.7975 56.1001 47.1317 57.5132C44.1883 59.0746 39.6006 59.9097 35.004 59.9097C30.4045 59.9097 25.8168 59.0746 22.8734 57.5132C20.2076 56.1001 18.7581 54.0456 18.7581 51.6884C18.7581 46.1752 21.3796 41.2824 25.4123 38.2504C27.7859 40.9253 31.2045 42.6017 35.004 42.6017C38.8006 42.6017 42.2222 40.9253 44.5928 38.2504Z" fill="#2B80F9"/>
<path d="M59.7614 29.7161L58.2872 25.179C58.0379 24.4115 56.9521 24.4115 56.7027 25.179L55.2285 29.7161L50.458 29.7161C49.651 29.7161 49.3154 30.7488 49.9683 31.2231L53.8278 34.0271L52.3536 38.5642C52.1042 39.3317 52.9826 39.9699 53.6355 39.4956L57.495 36.6915L61.3544 39.4956C62.0073 39.9699 62.8857 39.3317 62.6363 38.5642L61.1622 34.0271L65.0216 31.2231C65.6745 30.7487 65.3389 29.7161 64.5319 29.7161L59.7614 29.7161Z" fill="#2B80F9" stroke="#2B80F9" stroke-width="0.833051"/>
</svg>
