<svg width="80" height="80" viewBox="0 0 80 80" fill="none" xmlns="http://www.w3.org/2000/svg">
<g clip-path="url(#clip0_799_5730)">
<path d="M45.6667 40C45.6667 43.1167 43.1167 45.6667 40 45.6667C36.8833 45.6667 34.3333 43.1167 34.3333 40C34.3333 36.8834 36.8833 34.3334 40 34.3334C43.1167 34.3334 45.6667 36.8834 45.6667 40ZM31.9817 25.975C30.31 24.3034 27.6183 24.3034 25.975 25.975C18.24 33.71 18.24 46.29 25.975 54.025C26.7967 54.8467 27.9017 55.2717 28.9783 55.2717C30.055 55.2717 31.16 54.8467 31.9817 54.025C33.6533 52.3534 33.6533 49.6617 31.9817 48.0184C27.5617 43.5984 27.5617 36.4017 31.9817 31.9817C33.6533 30.31 33.6533 27.6184 31.9817 25.975ZM54.025 25.975C52.3533 24.3034 49.6617 24.3034 48.0183 25.975C46.375 27.6467 46.3467 30.3384 48.0183 31.9817C50.1717 34.135 51.3333 36.9684 51.3333 40C51.3333 43.0317 50.1433 45.865 48.0183 48.0184C46.3467 49.69 46.3467 52.3817 48.0183 54.025C48.84 54.8467 49.945 55.2717 51.0217 55.2717C52.0983 55.2717 53.2033 54.8467 54.025 54.025C57.765 50.285 59.8333 45.2984 59.8333 40C59.8333 34.7017 57.765 29.715 54.025 25.975ZM21.98 21.98C23.6517 20.3084 23.6517 17.6167 21.98 15.9734C20.3083 14.3017 17.6167 14.3017 15.9733 15.9734C2.71332 29.205 2.71332 50.795 15.945 64.055C16.7667 64.8767 17.8717 65.3017 18.9483 65.3017C20.025 65.3017 21.13 64.8767 21.9517 64.055C23.6233 62.3834 23.6233 59.6917 21.9517 58.0484C12.0067 48.1034 12.0067 31.925 21.9517 21.98H21.98ZM64.055 15.9734C62.3833 14.3017 59.6917 14.3017 58.0483 15.9734C56.3767 17.645 56.3767 20.3367 58.0483 21.98C67.9933 31.925 67.9933 48.1034 58.0483 58.0484C56.3767 59.72 56.3767 62.4117 58.0483 64.055C58.87 64.8767 59.975 65.3017 61.0517 65.3017C62.1283 65.3017 63.2333 64.8767 64.055 64.055C77.315 50.795 77.315 29.2334 64.055 15.9734Z" fill="#2B80F9"/>
</g>
<defs>
<clipPath id="clip0_799_5730">
<rect width="68" height="68" fill="white" transform="translate(6 6)"/>
</clipPath>
</defs>
</svg>
