<svg width="80" height="80" viewBox="0 0 80 80" fill="none" xmlns="http://www.w3.org/2000/svg">
<g clip-path="url(#clip0_799_5726)">
<path d="M56.7269 28.7628C56.3107 28.3584 55.7268 28.1746 55.1554 28.2686C54.583 28.3622 54.0886 28.7216 53.823 29.2373C52.9097 31.0116 51.7497 32.6421 50.3848 34.0835C50.5209 33.0422 50.5894 31.9948 50.5894 30.9446C50.5894 28.9294 50.3193 26.8557 49.7864 24.7802C48.0342 17.9632 43.4396 12.1982 37.181 8.9634C36.6361 8.68186 35.9869 8.69175 35.4508 8.98975C34.9147 9.28789 34.5636 9.83448 34.5155 10.4459C34.0276 16.6409 30.8367 22.2769 25.756 25.9126C25.6887 25.961 25.622 26.0101 25.5552 26.0589C25.417 26.1601 25.2866 26.2558 25.1648 26.3361C25.1458 26.3487 25.1269 26.3617 25.1083 26.375C21.913 28.6628 19.2764 31.7124 17.4833 35.1952C15.6614 38.7377 14.7375 42.5393 14.7375 46.4938C14.7375 48.5084 15.0076 50.5821 15.5403 52.6579C18.3514 63.5992 28.1976 71.2408 39.4847 71.2408C53.1295 71.2408 64.2303 60.1393 64.2303 46.4938C64.2303 39.7648 61.5656 33.4678 56.7269 28.7628Z" fill="#2B80F9"/>
</g>
<defs>
<clipPath id="clip0_799_5726">
<rect width="62.4819" height="62.4819" fill="white" transform="translate(8.24292 8.75903)"/>
</clipPath>
</defs>
</svg>
