<svg width="40" height="40" viewBox="0 0 40 40" fill="none" xmlns="http://www.w3.org/2000/svg">
<path d="M27.6297 14.231C30.3504 14.231 32.556 12.0255 32.556 9.30478C32.556 6.58409 30.3504 4.37854 27.6297 4.37854C24.909 4.37854 22.7035 6.58409 22.7035 9.30478C22.7035 12.0255 24.909 14.231 27.6297 14.231Z" fill="#34A853"/>
<path d="M12.3715 25.8564C15.0922 25.8564 17.2978 23.6508 17.2978 20.9301C17.2978 18.2095 15.0922 16.0039 12.3715 16.0039C9.65086 16.0039 7.44531 18.2095 7.44531 20.9301C7.44531 23.6508 9.65086 25.8564 12.3715 25.8564Z" fill="#34A853"/>
<path fill-rule="evenodd" clip-rule="evenodd" d="M33.4454 25.8128C33.4454 25.2112 33.9336 24.7229 34.5352 24.7229C35.1369 24.7229 35.6251 25.2112 35.6251 25.8128V31.6254C35.6251 33.8328 33.8363 35.6217 31.6289 35.6217H24.3631C23.7615 35.6217 23.2732 35.1334 23.2732 34.5318C23.2732 33.9302 23.7615 33.4419 24.3631 33.4419H31.6289C32.6316 33.4419 33.4454 32.6281 33.4454 31.6254V25.8128Z" fill="#34A853"/>
<path fill-rule="evenodd" clip-rule="evenodd" d="M6.56159 14.1874C6.56159 14.789 6.07332 15.2773 5.47171 15.2773C4.8701 15.2773 4.38184 14.789 4.38184 14.1874V8.37475C4.38184 6.16739 6.17068 4.37854 8.37805 4.37854H17.097C17.6987 4.37854 18.1869 4.8668 18.1869 5.46842C18.1869 6.07003 17.6987 6.55829 17.097 6.55829H8.37805C7.37536 6.55829 6.56159 7.37206 6.56159 8.37475V14.1874Z" fill="#34A853"/>
<path fill-rule="evenodd" clip-rule="evenodd" d="M32.3496 13.5944C34.3346 15.0504 35.625 17.4002 35.625 20.0479C35.625 21.1799 34.9115 22.1666 33.5993 22.8452C32.1505 23.5951 29.8923 23.9961 27.6297 23.9961C25.3657 23.9961 23.1075 23.5951 21.6586 22.8452C20.3464 22.1666 19.6329 21.1799 19.6329 20.0479C19.6329 17.4002 20.9233 15.0504 22.9084 13.5944C24.0767 14.879 25.7595 15.684 27.6297 15.684C29.4985 15.684 31.1827 14.879 32.3496 13.5944Z" fill="#34A853"/>
<path fill-rule="evenodd" clip-rule="evenodd" d="M17.0914 25.2197C19.0764 26.6758 20.3669 29.0256 20.3669 31.6732C20.3669 32.8053 19.6534 33.792 18.3411 34.4706C16.8923 35.2204 14.6341 35.6215 12.3715 35.6215C10.1075 35.6215 7.84928 35.2204 6.40047 34.4706C5.08826 33.792 4.37476 32.8053 4.37476 31.6732C4.37476 29.0256 5.66517 26.6758 7.65019 25.2197C8.81854 26.5043 10.5013 27.3094 12.3715 27.3094C14.2403 27.3094 15.9245 26.5043 17.0914 25.2197Z" fill="#34A853"/>
</svg>
