<svg width="2103" height="1051" viewBox="0 0 2103 1051" fill="none" xmlns="http://www.w3.org/2000/svg">
<g clip-path="url(#clip0_107_81154)">
<rect width="2103" height="1051" fill="white"/>
<path d="M701.011 0H350.505V350.339H701.011V0Z" fill="#4677BB"/>
<path d="M350.505 0V350.339" stroke="#88B0DE" stroke-width="0.3881" stroke-miterlimit="10"/>
<path d="M350.505 31.8447H700.994" stroke="#88B0DE" stroke-width="0.3881" stroke-miterlimit="10"/>
<path d="M350.505 63.6885H700.994" stroke="#88B0DE" stroke-width="0.3881" stroke-miterlimit="10"/>
<path d="M350.505 0H700.994" stroke="#88B0DE" stroke-width="0.3881" stroke-miterlimit="10"/>
<path d="M350.505 95.5498H700.994" stroke="#88B0DE" stroke-width="0.3881" stroke-miterlimit="10"/>
<path d="M350.505 127.395H700.994" stroke="#88B0DE" stroke-width="0.3881" stroke-miterlimit="10"/>
<path d="M350.505 159.239H700.994" stroke="#88B0DE" stroke-width="0.3881" stroke-miterlimit="10"/>
<path d="M350.505 191.083H700.994" stroke="#88B0DE" stroke-width="0.3881" stroke-miterlimit="10"/>
<path d="M382.365 0V350.339" stroke="#88B0DE" stroke-width="0.3881" stroke-miterlimit="10"/>
<path d="M414.225 0V350.339" stroke="#88B0DE" stroke-width="0.3881" stroke-miterlimit="10"/>
<path d="M446.084 0V350.339" stroke="#88B0DE" stroke-width="0.3881" stroke-miterlimit="10"/>
<path d="M477.96 0V350.339" stroke="#88B0DE" stroke-width="0.3881" stroke-miterlimit="10"/>
<path d="M509.82 0V350.339" stroke="#88B0DE" stroke-width="0.3881" stroke-miterlimit="10"/>
<path d="M541.68 0V350.339" stroke="#88B0DE" stroke-width="0.3881" stroke-miterlimit="10"/>
<path d="M573.539 0V350.339" stroke="#88B0DE" stroke-width="0.3881" stroke-miterlimit="10"/>
<path d="M605.399 0V350.339" stroke="#88B0DE" stroke-width="0.3881" stroke-miterlimit="10"/>
<path d="M637.275 0V350.339" stroke="#88B0DE" stroke-width="0.3881" stroke-miterlimit="10"/>
<path d="M669.135 0V350.339" stroke="#88B0DE" stroke-width="0.3881" stroke-miterlimit="10"/>
<path d="M700.994 0V350.339" stroke="#88B0DE" stroke-width="0.3881" stroke-miterlimit="10"/>
<path d="M350.505 222.944H700.994" stroke="#88B0DE" stroke-width="0.3881" stroke-miterlimit="10"/>
<path d="M350.505 254.789H700.994" stroke="#88B0DE" stroke-width="0.3881" stroke-miterlimit="10"/>
<path d="M350.505 286.634H700.994" stroke="#88B0DE" stroke-width="0.3881" stroke-miterlimit="10"/>
<path d="M350.505 318.478H700.994" stroke="#88B0DE" stroke-width="0.3881" stroke-miterlimit="10"/>
<path d="M350.505 350.339H700.994" stroke="#88B0DE" stroke-width="0.3881" stroke-miterlimit="10"/>
<path d="M1051.5 0H700.994V350.339H1051.5V0Z" fill="#4677BB"/>
<path d="M700.994 0V350.339" stroke="#88B0DE" stroke-width="0.3881" stroke-miterlimit="10"/>
<path d="M700.994 31.8447H1051.5" stroke="#88B0DE" stroke-width="0.3881" stroke-miterlimit="10"/>
<path d="M700.994 63.6885H1051.5" stroke="#88B0DE" stroke-width="0.3881" stroke-miterlimit="10"/>
<path d="M700.994 0H1051.5" stroke="#88B0DE" stroke-width="0.3881" stroke-miterlimit="10"/>
<path d="M700.994 95.5498H1051.5" stroke="#88B0DE" stroke-width="0.3881" stroke-miterlimit="10"/>
<path d="M700.994 127.395H1051.5" stroke="#88B0DE" stroke-width="0.3881" stroke-miterlimit="10"/>
<path d="M700.994 159.239H1051.5" stroke="#88B0DE" stroke-width="0.3881" stroke-miterlimit="10"/>
<path d="M700.994 191.083H1051.5" stroke="#88B0DE" stroke-width="0.3881" stroke-miterlimit="10"/>
<path d="M732.854 0V350.339" stroke="#88B0DE" stroke-width="0.3881" stroke-miterlimit="10"/>
<path d="M764.73 0V350.339" stroke="#88B0DE" stroke-width="0.3881" stroke-miterlimit="10"/>
<path d="M796.59 0V350.339" stroke="#88B0DE" stroke-width="0.3881" stroke-miterlimit="10"/>
<path d="M828.45 0V350.339" stroke="#88B0DE" stroke-width="0.3881" stroke-miterlimit="10"/>
<path d="M860.309 0V350.339" stroke="#88B0DE" stroke-width="0.3881" stroke-miterlimit="10"/>
<path d="M892.186 0V350.339" stroke="#88B0DE" stroke-width="0.3881" stroke-miterlimit="10"/>
<path d="M924.045 0V350.339" stroke="#88B0DE" stroke-width="0.3881" stroke-miterlimit="10"/>
<path d="M955.905 0V350.339" stroke="#88B0DE" stroke-width="0.3881" stroke-miterlimit="10"/>
<path d="M987.764 0V350.339" stroke="#88B0DE" stroke-width="0.3881" stroke-miterlimit="10"/>
<path d="M1019.64 0V350.339" stroke="#88B0DE" stroke-width="0.3881" stroke-miterlimit="10"/>
<path d="M1051.5 0V350.339" stroke="#88B0DE" stroke-width="0.3881" stroke-miterlimit="10"/>
<path d="M700.994 222.944H1051.5" stroke="#88B0DE" stroke-width="0.3881" stroke-miterlimit="10"/>
<path d="M700.994 254.789H1051.5" stroke="#88B0DE" stroke-width="0.3881" stroke-miterlimit="10"/>
<path d="M700.994 286.634H1051.5" stroke="#88B0DE" stroke-width="0.3881" stroke-miterlimit="10"/>
<path d="M700.994 318.478H1051.5" stroke="#88B0DE" stroke-width="0.3881" stroke-miterlimit="10"/>
<path d="M700.994 350.339H1051.5" stroke="#88B0DE" stroke-width="0.3881" stroke-miterlimit="10"/>
<path d="M701.011 350.339H350.505V700.678H701.011V350.339Z" fill="#4677BB"/>
<path d="M350.505 350.339V700.661" stroke="#88B0DE" stroke-width="0.3881" stroke-miterlimit="10"/>
<path d="M350.505 382.184H700.994" stroke="#88B0DE" stroke-width="0.3881" stroke-miterlimit="10"/>
<path d="M350.505 414.027H700.994" stroke="#88B0DE" stroke-width="0.3881" stroke-miterlimit="10"/>
<path d="M350.505 350.339H700.994" stroke="#88B0DE" stroke-width="0.3881" stroke-miterlimit="10"/>
<path d="M350.505 445.872H700.994" stroke="#88B0DE" stroke-width="0.3881" stroke-miterlimit="10"/>
<path d="M350.505 477.733H700.994" stroke="#88B0DE" stroke-width="0.3881" stroke-miterlimit="10"/>
<path d="M350.505 509.578H700.994" stroke="#88B0DE" stroke-width="0.3881" stroke-miterlimit="10"/>
<path d="M350.505 541.422H700.994" stroke="#88B0DE" stroke-width="0.3881" stroke-miterlimit="10"/>
<path d="M382.365 350.339V700.661" stroke="#88B0DE" stroke-width="0.3881" stroke-miterlimit="10"/>
<path d="M414.225 350.339V700.661" stroke="#88B0DE" stroke-width="0.3881" stroke-miterlimit="10"/>
<path d="M446.084 350.339V700.661" stroke="#88B0DE" stroke-width="0.3881" stroke-miterlimit="10"/>
<path d="M477.96 350.339V700.661" stroke="#88B0DE" stroke-width="0.3881" stroke-miterlimit="10"/>
<path d="M509.82 350.339V700.661" stroke="#88B0DE" stroke-width="0.3881" stroke-miterlimit="10"/>
<path d="M541.68 350.339V700.661" stroke="#88B0DE" stroke-width="0.3881" stroke-miterlimit="10"/>
<path d="M573.539 350.339V700.661" stroke="#88B0DE" stroke-width="0.3881" stroke-miterlimit="10"/>
<path d="M605.399 350.339V700.661" stroke="#88B0DE" stroke-width="0.3881" stroke-miterlimit="10"/>
<path d="M637.275 350.339V700.661" stroke="#88B0DE" stroke-width="0.3881" stroke-miterlimit="10"/>
<path d="M669.135 350.339V700.661" stroke="#88B0DE" stroke-width="0.3881" stroke-miterlimit="10"/>
<path d="M700.994 350.339V700.661" stroke="#88B0DE" stroke-width="0.3881" stroke-miterlimit="10"/>
<path d="M350.505 573.267H700.994" stroke="#88B0DE" stroke-width="0.3881" stroke-miterlimit="10"/>
<path d="M350.505 605.128H700.994" stroke="#88B0DE" stroke-width="0.3881" stroke-miterlimit="10"/>
<path d="M350.505 636.973H700.994" stroke="#88B0DE" stroke-width="0.3881" stroke-miterlimit="10"/>
<path d="M350.505 668.816H700.994" stroke="#88B0DE" stroke-width="0.3881" stroke-miterlimit="10"/>
<path d="M350.505 700.661H700.994" stroke="#88B0DE" stroke-width="0.3881" stroke-miterlimit="10"/>
<path d="M350.505 0H0V350.339H350.505V0Z" fill="#4677BB"/>
<path d="M0 0V350.339" stroke="#88B0DE" stroke-width="0.3881" stroke-miterlimit="10"/>
<path d="M0 31.8447H350.505" stroke="#88B0DE" stroke-width="0.3881" stroke-miterlimit="10"/>
<path d="M0 63.6885H350.505" stroke="#88B0DE" stroke-width="0.3881" stroke-miterlimit="10"/>
<path d="M0 0H350.505" stroke="#88B0DE" stroke-width="0.3881" stroke-miterlimit="10"/>
<path d="M0 95.5498H350.505" stroke="#88B0DE" stroke-width="0.3881" stroke-miterlimit="10"/>
<path d="M0 127.395H350.505" stroke="#88B0DE" stroke-width="0.3881" stroke-miterlimit="10"/>
<path d="M0 159.239H350.505" stroke="#88B0DE" stroke-width="0.3881" stroke-miterlimit="10"/>
<path d="M0 191.083H350.505" stroke="#88B0DE" stroke-width="0.3881" stroke-miterlimit="10"/>
<path d="M31.8596 0V350.339" stroke="#88B0DE" stroke-width="0.3881" stroke-miterlimit="10"/>
<path d="M63.7192 0V350.339" stroke="#88B0DE" stroke-width="0.3881" stroke-miterlimit="10"/>
<path d="M95.5955 0V350.339" stroke="#88B0DE" stroke-width="0.3881" stroke-miterlimit="10"/>
<path d="M127.455 0V350.339" stroke="#88B0DE" stroke-width="0.3881" stroke-miterlimit="10"/>
<path d="M159.315 0V350.339" stroke="#88B0DE" stroke-width="0.3881" stroke-miterlimit="10"/>
<path d="M191.174 0V350.339" stroke="#88B0DE" stroke-width="0.3881" stroke-miterlimit="10"/>
<path d="M223.051 0V350.339" stroke="#88B0DE" stroke-width="0.3881" stroke-miterlimit="10"/>
<path d="M254.91 0V350.339" stroke="#88B0DE" stroke-width="0.3881" stroke-miterlimit="10"/>
<path d="M286.77 0V350.339" stroke="#88B0DE" stroke-width="0.3881" stroke-miterlimit="10"/>
<path d="M318.629 0V350.339" stroke="#88B0DE" stroke-width="0.3881" stroke-miterlimit="10"/>
<path d="M350.505 0V350.339" stroke="#88B0DE" stroke-width="0.3881" stroke-miterlimit="10"/>
<path d="M0 222.944H350.505" stroke="#88B0DE" stroke-width="0.3881" stroke-miterlimit="10"/>
<path d="M0 254.789H350.505" stroke="#88B0DE" stroke-width="0.3881" stroke-miterlimit="10"/>
<path d="M0 286.634H350.505" stroke="#88B0DE" stroke-width="0.3881" stroke-miterlimit="10"/>
<path d="M0 318.478H350.505" stroke="#88B0DE" stroke-width="0.3881" stroke-miterlimit="10"/>
<path d="M0 350.339H350.505" stroke="#88B0DE" stroke-width="0.3881" stroke-miterlimit="10"/>
<path d="M350.505 350.339H0V700.678H350.505V350.339Z" fill="#4677BB"/>
<path d="M0 350.339V700.661" stroke="#88B0DE" stroke-width="0.3881" stroke-miterlimit="10"/>
<path d="M0 382.184H350.505" stroke="#88B0DE" stroke-width="0.3881" stroke-miterlimit="10"/>
<path d="M0 414.027H350.505" stroke="#88B0DE" stroke-width="0.3881" stroke-miterlimit="10"/>
<path d="M0 350.339H350.505" stroke="#88B0DE" stroke-width="0.3881" stroke-miterlimit="10"/>
<path d="M0 445.872H350.505" stroke="#88B0DE" stroke-width="0.3881" stroke-miterlimit="10"/>
<path d="M0 477.733H350.505" stroke="#88B0DE" stroke-width="0.3881" stroke-miterlimit="10"/>
<path d="M0 509.578H350.505" stroke="#88B0DE" stroke-width="0.3881" stroke-miterlimit="10"/>
<path d="M0 541.422H350.505" stroke="#88B0DE" stroke-width="0.3881" stroke-miterlimit="10"/>
<path d="M31.8596 350.339V700.661" stroke="#88B0DE" stroke-width="0.3881" stroke-miterlimit="10"/>
<path d="M63.7192 350.339V700.661" stroke="#88B0DE" stroke-width="0.3881" stroke-miterlimit="10"/>
<path d="M95.5955 350.339V700.661" stroke="#88B0DE" stroke-width="0.3881" stroke-miterlimit="10"/>
<path d="M127.455 350.339V700.661" stroke="#88B0DE" stroke-width="0.3881" stroke-miterlimit="10"/>
<path d="M159.315 350.339V700.661" stroke="#88B0DE" stroke-width="0.3881" stroke-miterlimit="10"/>
<path d="M191.174 350.339V700.661" stroke="#88B0DE" stroke-width="0.3881" stroke-miterlimit="10"/>
<path d="M223.051 350.339V700.661" stroke="#88B0DE" stroke-width="0.3881" stroke-miterlimit="10"/>
<path d="M254.91 350.339V700.661" stroke="#88B0DE" stroke-width="0.3881" stroke-miterlimit="10"/>
<path d="M286.77 350.339V700.661" stroke="#88B0DE" stroke-width="0.3881" stroke-miterlimit="10"/>
<path d="M318.629 350.339V700.661" stroke="#88B0DE" stroke-width="0.3881" stroke-miterlimit="10"/>
<path d="M350.505 350.339V700.661" stroke="#88B0DE" stroke-width="0.3881" stroke-miterlimit="10"/>
<path d="M0 573.267H350.505" stroke="#88B0DE" stroke-width="0.3881" stroke-miterlimit="10"/>
<path d="M0 605.128H350.505" stroke="#88B0DE" stroke-width="0.3881" stroke-miterlimit="10"/>
<path d="M0 636.973H350.505" stroke="#88B0DE" stroke-width="0.3881" stroke-miterlimit="10"/>
<path d="M0 668.816H350.505" stroke="#88B0DE" stroke-width="0.3881" stroke-miterlimit="10"/>
<path d="M0 700.661H350.505" stroke="#88B0DE" stroke-width="0.3881" stroke-miterlimit="10"/>
<path d="M1051.5 350.339H700.994V700.678H1051.5V350.339Z" fill="#4677BB"/>
<path d="M700.994 350.339V700.661" stroke="#88B0DE" stroke-width="0.3881" stroke-miterlimit="10"/>
<path d="M700.994 382.184H1051.5" stroke="#88B0DE" stroke-width="0.3881" stroke-miterlimit="10"/>
<path d="M700.994 414.027H1051.5" stroke="#88B0DE" stroke-width="0.3881" stroke-miterlimit="10"/>
<path d="M700.994 350.339H1051.5" stroke="#88B0DE" stroke-width="0.3881" stroke-miterlimit="10"/>
<path d="M700.994 445.872H1051.5" stroke="#88B0DE" stroke-width="0.3881" stroke-miterlimit="10"/>
<path d="M700.994 477.733H1051.5" stroke="#88B0DE" stroke-width="0.3881" stroke-miterlimit="10"/>
<path d="M700.994 509.578H1051.5" stroke="#88B0DE" stroke-width="0.3881" stroke-miterlimit="10"/>
<path d="M700.994 541.422H1051.5" stroke="#88B0DE" stroke-width="0.3881" stroke-miterlimit="10"/>
<path d="M732.854 350.339V700.661" stroke="#88B0DE" stroke-width="0.3881" stroke-miterlimit="10"/>
<path d="M764.73 350.339V700.661" stroke="#88B0DE" stroke-width="0.3881" stroke-miterlimit="10"/>
<path d="M796.59 350.339V700.661" stroke="#88B0DE" stroke-width="0.3881" stroke-miterlimit="10"/>
<path d="M828.45 350.339V700.661" stroke="#88B0DE" stroke-width="0.3881" stroke-miterlimit="10"/>
<path d="M860.309 350.339V700.661" stroke="#88B0DE" stroke-width="0.3881" stroke-miterlimit="10"/>
<path d="M892.186 350.339V700.661" stroke="#88B0DE" stroke-width="0.3881" stroke-miterlimit="10"/>
<path d="M924.045 350.339V700.661" stroke="#88B0DE" stroke-width="0.3881" stroke-miterlimit="10"/>
<path d="M955.905 350.339V700.661" stroke="#88B0DE" stroke-width="0.3881" stroke-miterlimit="10"/>
<path d="M987.764 350.339V700.661" stroke="#88B0DE" stroke-width="0.3881" stroke-miterlimit="10"/>
<path d="M1019.64 350.339V700.661" stroke="#88B0DE" stroke-width="0.3881" stroke-miterlimit="10"/>
<path d="M1051.5 350.339V700.661" stroke="#88B0DE" stroke-width="0.3881" stroke-miterlimit="10"/>
<path d="M700.994 573.267H1051.5" stroke="#88B0DE" stroke-width="0.3881" stroke-miterlimit="10"/>
<path d="M700.994 605.128H1051.5" stroke="#88B0DE" stroke-width="0.3881" stroke-miterlimit="10"/>
<path d="M700.994 636.973H1051.5" stroke="#88B0DE" stroke-width="0.3881" stroke-miterlimit="10"/>
<path d="M700.994 668.816H1051.5" stroke="#88B0DE" stroke-width="0.3881" stroke-miterlimit="10"/>
<path d="M700.994 700.661H1051.5" stroke="#88B0DE" stroke-width="0.3881" stroke-miterlimit="10"/>
<path d="M701.011 700.661H350.505V1051H701.011V700.661Z" fill="#4677BB"/>
<path d="M350.505 700.661V1051" stroke="#88B0DE" stroke-width="0.3881" stroke-miterlimit="10"/>
<path d="M350.505 732.522H700.994" stroke="#88B0DE" stroke-width="0.3881" stroke-miterlimit="10"/>
<path d="M350.505 764.366H700.994" stroke="#88B0DE" stroke-width="0.3881" stroke-miterlimit="10"/>
<path d="M350.505 700.661H700.994" stroke="#88B0DE" stroke-width="0.3881" stroke-miterlimit="10"/>
<path d="M350.505 796.211H700.994" stroke="#88B0DE" stroke-width="0.3881" stroke-miterlimit="10"/>
<path d="M350.505 828.056H700.994" stroke="#88B0DE" stroke-width="0.3881" stroke-miterlimit="10"/>
<path d="M350.505 859.917H700.994" stroke="#88B0DE" stroke-width="0.3881" stroke-miterlimit="10"/>
<path d="M350.505 891.761H700.994" stroke="#88B0DE" stroke-width="0.3881" stroke-miterlimit="10"/>
<path d="M382.365 700.661V1051" stroke="#88B0DE" stroke-width="0.3881" stroke-miterlimit="10"/>
<path d="M414.225 700.661V1051" stroke="#88B0DE" stroke-width="0.3881" stroke-miterlimit="10"/>
<path d="M446.084 700.661V1051" stroke="#88B0DE" stroke-width="0.3881" stroke-miterlimit="10"/>
<path d="M477.96 700.661V1051" stroke="#88B0DE" stroke-width="0.3881" stroke-miterlimit="10"/>
<path d="M509.82 700.661V1051" stroke="#88B0DE" stroke-width="0.3881" stroke-miterlimit="10"/>
<path d="M541.68 700.661V1051" stroke="#88B0DE" stroke-width="0.3881" stroke-miterlimit="10"/>
<path d="M573.539 700.661V1051" stroke="#88B0DE" stroke-width="0.3881" stroke-miterlimit="10"/>
<path d="M605.399 700.661V1051" stroke="#88B0DE" stroke-width="0.3881" stroke-miterlimit="10"/>
<path d="M637.275 700.661V1051" stroke="#88B0DE" stroke-width="0.3881" stroke-miterlimit="10"/>
<path d="M669.135 700.661V1051" stroke="#88B0DE" stroke-width="0.3881" stroke-miterlimit="10"/>
<path d="M700.994 700.661V1051" stroke="#88B0DE" stroke-width="0.3881" stroke-miterlimit="10"/>
<path d="M350.505 923.605H700.994" stroke="#88B0DE" stroke-width="0.3881" stroke-miterlimit="10"/>
<path d="M350.505 955.45H700.994" stroke="#88B0DE" stroke-width="0.3881" stroke-miterlimit="10"/>
<path d="M350.505 987.312H700.994" stroke="#88B0DE" stroke-width="0.3881" stroke-miterlimit="10"/>
<path d="M350.505 1019.16H700.994" stroke="#88B0DE" stroke-width="0.3881" stroke-miterlimit="10"/>
<path d="M350.505 1051H700.994" stroke="#88B0DE" stroke-width="0.3881" stroke-miterlimit="10"/>
<path d="M350.505 700.661H0V1051H350.505V700.661Z" fill="#4677BB"/>
<path d="M0 700.661V1051" stroke="#88B0DE" stroke-width="0.3881" stroke-miterlimit="10"/>
<path d="M0 732.522H350.505" stroke="#88B0DE" stroke-width="0.3881" stroke-miterlimit="10"/>
<path d="M0 764.366H350.505" stroke="#88B0DE" stroke-width="0.3881" stroke-miterlimit="10"/>
<path d="M0 700.661H350.505" stroke="#88B0DE" stroke-width="0.3881" stroke-miterlimit="10"/>
<path d="M0 796.211H350.505" stroke="#88B0DE" stroke-width="0.3881" stroke-miterlimit="10"/>
<path d="M0 828.056H350.505" stroke="#88B0DE" stroke-width="0.3881" stroke-miterlimit="10"/>
<path d="M0 859.917H350.505" stroke="#88B0DE" stroke-width="0.3881" stroke-miterlimit="10"/>
<path d="M0 891.761H350.505" stroke="#88B0DE" stroke-width="0.3881" stroke-miterlimit="10"/>
<path d="M31.8596 700.661V1051" stroke="#88B0DE" stroke-width="0.3881" stroke-miterlimit="10"/>
<path d="M63.7192 700.661V1051" stroke="#88B0DE" stroke-width="0.3881" stroke-miterlimit="10"/>
<path d="M95.5955 700.661V1051" stroke="#88B0DE" stroke-width="0.3881" stroke-miterlimit="10"/>
<path d="M127.455 700.661V1051" stroke="#88B0DE" stroke-width="0.3881" stroke-miterlimit="10"/>
<path d="M159.315 700.661V1051" stroke="#88B0DE" stroke-width="0.3881" stroke-miterlimit="10"/>
<path d="M191.174 700.661V1051" stroke="#88B0DE" stroke-width="0.3881" stroke-miterlimit="10"/>
<path d="M223.051 700.661V1051" stroke="#88B0DE" stroke-width="0.3881" stroke-miterlimit="10"/>
<path d="M254.91 700.661V1051" stroke="#88B0DE" stroke-width="0.3881" stroke-miterlimit="10"/>
<path d="M286.77 700.661V1051" stroke="#88B0DE" stroke-width="0.3881" stroke-miterlimit="10"/>
<path d="M318.629 700.661V1051" stroke="#88B0DE" stroke-width="0.3881" stroke-miterlimit="10"/>
<path d="M350.505 700.661V1051" stroke="#88B0DE" stroke-width="0.3881" stroke-miterlimit="10"/>
<path d="M0 923.605H350.505" stroke="#88B0DE" stroke-width="0.3881" stroke-miterlimit="10"/>
<path d="M0 955.45H350.505" stroke="#88B0DE" stroke-width="0.3881" stroke-miterlimit="10"/>
<path d="M0 987.312H350.505" stroke="#88B0DE" stroke-width="0.3881" stroke-miterlimit="10"/>
<path d="M0 1019.16H350.505" stroke="#88B0DE" stroke-width="0.3881" stroke-miterlimit="10"/>
<path d="M0 1051H350.505" stroke="#88B0DE" stroke-width="0.3881" stroke-miterlimit="10"/>
<path d="M1051.5 700.661H700.994V1051H1051.5V700.661Z" fill="#4677BB"/>
<path d="M700.994 700.661V1051" stroke="#88B0DE" stroke-width="0.3881" stroke-miterlimit="10"/>
<path d="M700.994 732.522H1051.5" stroke="#88B0DE" stroke-width="0.3881" stroke-miterlimit="10"/>
<path d="M700.994 764.366H1051.5" stroke="#88B0DE" stroke-width="0.3881" stroke-miterlimit="10"/>
<path d="M700.994 700.661H1051.5" stroke="#88B0DE" stroke-width="0.3881" stroke-miterlimit="10"/>
<path d="M700.994 796.211H1051.5" stroke="#88B0DE" stroke-width="0.3881" stroke-miterlimit="10"/>
<path d="M700.994 828.056H1051.5" stroke="#88B0DE" stroke-width="0.3881" stroke-miterlimit="10"/>
<path d="M700.994 859.917H1051.5" stroke="#88B0DE" stroke-width="0.3881" stroke-miterlimit="10"/>
<path d="M700.994 891.761H1051.5" stroke="#88B0DE" stroke-width="0.3881" stroke-miterlimit="10"/>
<path d="M732.854 700.661V1051" stroke="#88B0DE" stroke-width="0.3881" stroke-miterlimit="10"/>
<path d="M764.73 700.661V1051" stroke="#88B0DE" stroke-width="0.3881" stroke-miterlimit="10"/>
<path d="M796.59 700.661V1051" stroke="#88B0DE" stroke-width="0.3881" stroke-miterlimit="10"/>
<path d="M828.45 700.661V1051" stroke="#88B0DE" stroke-width="0.3881" stroke-miterlimit="10"/>
<path d="M860.309 700.661V1051" stroke="#88B0DE" stroke-width="0.3881" stroke-miterlimit="10"/>
<path d="M892.186 700.661V1051" stroke="#88B0DE" stroke-width="0.3881" stroke-miterlimit="10"/>
<path d="M924.045 700.661V1051" stroke="#88B0DE" stroke-width="0.3881" stroke-miterlimit="10"/>
<path d="M955.905 700.661V1051" stroke="#88B0DE" stroke-width="0.3881" stroke-miterlimit="10"/>
<path d="M987.764 700.661V1051" stroke="#88B0DE" stroke-width="0.3881" stroke-miterlimit="10"/>
<path d="M1019.64 700.661V1051" stroke="#88B0DE" stroke-width="0.3881" stroke-miterlimit="10"/>
<path d="M1051.5 700.661V1051" stroke="#88B0DE" stroke-width="0.3881" stroke-miterlimit="10"/>
<path d="M700.994 923.605H1051.5" stroke="#88B0DE" stroke-width="0.3881" stroke-miterlimit="10"/>
<path d="M700.994 955.45H1051.5" stroke="#88B0DE" stroke-width="0.3881" stroke-miterlimit="10"/>
<path d="M700.994 987.312H1051.5" stroke="#88B0DE" stroke-width="0.3881" stroke-miterlimit="10"/>
<path d="M700.994 1019.16H1051.5" stroke="#88B0DE" stroke-width="0.3881" stroke-miterlimit="10"/>
<path d="M700.994 1051H1051.5" stroke="#88B0DE" stroke-width="0.3881" stroke-miterlimit="10"/>
<path d="M1752.51 0H1402.01V350.339H1752.51V0Z" fill="#4677BB"/>
<path d="M1402.01 0V350.339" stroke="#88B0DE" stroke-width="0.3881" stroke-miterlimit="10"/>
<path d="M1402.01 31.8447H1752.49" stroke="#88B0DE" stroke-width="0.3881" stroke-miterlimit="10"/>
<path d="M1402.01 63.6885H1752.49" stroke="#88B0DE" stroke-width="0.3881" stroke-miterlimit="10"/>
<path d="M1402.01 0H1752.49" stroke="#88B0DE" stroke-width="0.3881" stroke-miterlimit="10"/>
<path d="M1402.01 95.5498H1752.49" stroke="#88B0DE" stroke-width="0.3881" stroke-miterlimit="10"/>
<path d="M1402.01 127.395H1752.49" stroke="#88B0DE" stroke-width="0.3881" stroke-miterlimit="10"/>
<path d="M1402.01 159.239H1752.49" stroke="#88B0DE" stroke-width="0.3881" stroke-miterlimit="10"/>
<path d="M1402.01 191.083H1752.49" stroke="#88B0DE" stroke-width="0.3881" stroke-miterlimit="10"/>
<path d="M1433.87 0V350.339" stroke="#88B0DE" stroke-width="0.3881" stroke-miterlimit="10"/>
<path d="M1465.73 0V350.339" stroke="#88B0DE" stroke-width="0.3881" stroke-miterlimit="10"/>
<path d="M1497.58 0V350.339" stroke="#88B0DE" stroke-width="0.3881" stroke-miterlimit="10"/>
<path d="M1529.46 0V350.339" stroke="#88B0DE" stroke-width="0.3881" stroke-miterlimit="10"/>
<path d="M1561.32 0V350.339" stroke="#88B0DE" stroke-width="0.3881" stroke-miterlimit="10"/>
<path d="M1593.18 0V350.339" stroke="#88B0DE" stroke-width="0.3881" stroke-miterlimit="10"/>
<path d="M1625.04 0V350.339" stroke="#88B0DE" stroke-width="0.3881" stroke-miterlimit="10"/>
<path d="M1656.9 0V350.339" stroke="#88B0DE" stroke-width="0.3881" stroke-miterlimit="10"/>
<path d="M1688.78 0V350.339" stroke="#88B0DE" stroke-width="0.3881" stroke-miterlimit="10"/>
<path d="M1720.63 0V350.339" stroke="#88B0DE" stroke-width="0.3881" stroke-miterlimit="10"/>
<path d="M1752.49 0V350.339" stroke="#88B0DE" stroke-width="0.3881" stroke-miterlimit="10"/>
<path d="M1402.01 222.944H1752.49" stroke="#88B0DE" stroke-width="0.3881" stroke-miterlimit="10"/>
<path d="M1402.01 254.789H1752.49" stroke="#88B0DE" stroke-width="0.3881" stroke-miterlimit="10"/>
<path d="M1402.01 286.634H1752.49" stroke="#88B0DE" stroke-width="0.3881" stroke-miterlimit="10"/>
<path d="M1402.01 318.478H1752.49" stroke="#88B0DE" stroke-width="0.3881" stroke-miterlimit="10"/>
<path d="M1402.01 350.339H1752.49" stroke="#88B0DE" stroke-width="0.3881" stroke-miterlimit="10"/>
<path d="M2103 0H1752.49V350.339H2103V0Z" fill="#4677BB"/>
<path d="M1752.49 0V350.339" stroke="#88B0DE" stroke-width="0.3881" stroke-miterlimit="10"/>
<path d="M1752.49 31.8447H2103" stroke="#88B0DE" stroke-width="0.3881" stroke-miterlimit="10"/>
<path d="M1752.49 63.6885H2103" stroke="#88B0DE" stroke-width="0.3881" stroke-miterlimit="10"/>
<path d="M1752.49 0H2103" stroke="#88B0DE" stroke-width="0.3881" stroke-miterlimit="10"/>
<path d="M1752.49 95.5498H2103" stroke="#88B0DE" stroke-width="0.3881" stroke-miterlimit="10"/>
<path d="M1752.49 127.395H2103" stroke="#88B0DE" stroke-width="0.3881" stroke-miterlimit="10"/>
<path d="M1752.49 159.239H2103" stroke="#88B0DE" stroke-width="0.3881" stroke-miterlimit="10"/>
<path d="M1752.49 191.083H2103" stroke="#88B0DE" stroke-width="0.3881" stroke-miterlimit="10"/>
<path d="M1784.35 0V350.339" stroke="#88B0DE" stroke-width="0.3881" stroke-miterlimit="10"/>
<path d="M1816.23 0V350.339" stroke="#88B0DE" stroke-width="0.3881" stroke-miterlimit="10"/>
<path d="M1848.09 0V350.339" stroke="#88B0DE" stroke-width="0.3881" stroke-miterlimit="10"/>
<path d="M1879.95 0V350.339" stroke="#88B0DE" stroke-width="0.3881" stroke-miterlimit="10"/>
<path d="M1911.81 0V350.339" stroke="#88B0DE" stroke-width="0.3881" stroke-miterlimit="10"/>
<path d="M1943.69 0V350.339" stroke="#88B0DE" stroke-width="0.3881" stroke-miterlimit="10"/>
<path d="M1975.54 0V350.339" stroke="#88B0DE" stroke-width="0.3881" stroke-miterlimit="10"/>
<path d="M2007.4 0V350.339" stroke="#88B0DE" stroke-width="0.3881" stroke-miterlimit="10"/>
<path d="M2039.26 0V350.339" stroke="#88B0DE" stroke-width="0.3881" stroke-miterlimit="10"/>
<path d="M2071.14 0V350.339" stroke="#88B0DE" stroke-width="0.3881" stroke-miterlimit="10"/>
<path d="M1752.49 222.944H2103" stroke="#88B0DE" stroke-width="0.3881" stroke-miterlimit="10"/>
<path d="M1752.49 254.789H2103" stroke="#88B0DE" stroke-width="0.3881" stroke-miterlimit="10"/>
<path d="M1752.49 286.634H2103" stroke="#88B0DE" stroke-width="0.3881" stroke-miterlimit="10"/>
<path d="M1752.49 318.478H2103" stroke="#88B0DE" stroke-width="0.3881" stroke-miterlimit="10"/>
<path d="M1752.49 350.339H2103" stroke="#88B0DE" stroke-width="0.3881" stroke-miterlimit="10"/>
<path d="M1752.51 350.339H1402.01V700.678H1752.51V350.339Z" fill="#4677BB"/>
<path d="M1402.01 350.339V700.661" stroke="#88B0DE" stroke-width="0.3881" stroke-miterlimit="10"/>
<path d="M1402.01 382.184H1752.49" stroke="#88B0DE" stroke-width="0.3881" stroke-miterlimit="10"/>
<path d="M1402.01 414.027H1752.49" stroke="#88B0DE" stroke-width="0.3881" stroke-miterlimit="10"/>
<path d="M1402.01 350.339H1752.49" stroke="#88B0DE" stroke-width="0.3881" stroke-miterlimit="10"/>
<path d="M1402.01 445.872H1752.49" stroke="#88B0DE" stroke-width="0.3881" stroke-miterlimit="10"/>
<path d="M1402.01 477.733H1752.49" stroke="#88B0DE" stroke-width="0.3881" stroke-miterlimit="10"/>
<path d="M1402.01 509.578H1752.49" stroke="#88B0DE" stroke-width="0.3881" stroke-miterlimit="10"/>
<path d="M1402.01 541.422H1752.49" stroke="#88B0DE" stroke-width="0.3881" stroke-miterlimit="10"/>
<path d="M1433.87 350.339V700.661" stroke="#88B0DE" stroke-width="0.3881" stroke-miterlimit="10"/>
<path d="M1465.73 350.339V700.661" stroke="#88B0DE" stroke-width="0.3881" stroke-miterlimit="10"/>
<path d="M1497.58 350.339V700.661" stroke="#88B0DE" stroke-width="0.3881" stroke-miterlimit="10"/>
<path d="M1529.46 350.339V700.661" stroke="#88B0DE" stroke-width="0.3881" stroke-miterlimit="10"/>
<path d="M1561.32 350.339V700.661" stroke="#88B0DE" stroke-width="0.3881" stroke-miterlimit="10"/>
<path d="M1593.18 350.339V700.661" stroke="#88B0DE" stroke-width="0.3881" stroke-miterlimit="10"/>
<path d="M1625.04 350.339V700.661" stroke="#88B0DE" stroke-width="0.3881" stroke-miterlimit="10"/>
<path d="M1656.9 350.339V700.661" stroke="#88B0DE" stroke-width="0.3881" stroke-miterlimit="10"/>
<path d="M1688.78 350.339V700.661" stroke="#88B0DE" stroke-width="0.3881" stroke-miterlimit="10"/>
<path d="M1720.63 350.339V700.661" stroke="#88B0DE" stroke-width="0.3881" stroke-miterlimit="10"/>
<path d="M1752.49 350.339V700.661" stroke="#88B0DE" stroke-width="0.3881" stroke-miterlimit="10"/>
<path d="M1402.01 573.267H1752.49" stroke="#88B0DE" stroke-width="0.3881" stroke-miterlimit="10"/>
<path d="M1402.01 605.128H1752.49" stroke="#88B0DE" stroke-width="0.3881" stroke-miterlimit="10"/>
<path d="M1402.01 636.973H1752.49" stroke="#88B0DE" stroke-width="0.3881" stroke-miterlimit="10"/>
<path d="M1402.01 668.816H1752.49" stroke="#88B0DE" stroke-width="0.3881" stroke-miterlimit="10"/>
<path d="M1402.01 700.661H1752.49" stroke="#88B0DE" stroke-width="0.3881" stroke-miterlimit="10"/>
<path d="M1402.01 0H1051.5V350.339H1402.01V0Z" fill="#4677BB"/>
<path d="M1051.5 0V350.339" stroke="#88B0DE" stroke-width="0.3881" stroke-miterlimit="10"/>
<path d="M1051.5 31.8447H1402.01" stroke="#88B0DE" stroke-width="0.3881" stroke-miterlimit="10"/>
<path d="M1051.5 63.6885H1402.01" stroke="#88B0DE" stroke-width="0.3881" stroke-miterlimit="10"/>
<path d="M1051.5 0H1402.01" stroke="#88B0DE" stroke-width="0.3881" stroke-miterlimit="10"/>
<path d="M1051.5 95.5498H1402.01" stroke="#88B0DE" stroke-width="0.3881" stroke-miterlimit="10"/>
<path d="M1051.5 127.395H1402.01" stroke="#88B0DE" stroke-width="0.3881" stroke-miterlimit="10"/>
<path d="M1051.5 159.239H1402.01" stroke="#88B0DE" stroke-width="0.3881" stroke-miterlimit="10"/>
<path d="M1051.5 191.083H1402.01" stroke="#88B0DE" stroke-width="0.3881" stroke-miterlimit="10"/>
<path d="M1083.36 0V350.339" stroke="#88B0DE" stroke-width="0.3881" stroke-miterlimit="10"/>
<path d="M1115.22 0V350.339" stroke="#88B0DE" stroke-width="0.3881" stroke-miterlimit="10"/>
<path d="M1147.1 0V350.339" stroke="#88B0DE" stroke-width="0.3881" stroke-miterlimit="10"/>
<path d="M1178.96 0V350.339" stroke="#88B0DE" stroke-width="0.3881" stroke-miterlimit="10"/>
<path d="M1210.81 0V350.339" stroke="#88B0DE" stroke-width="0.3881" stroke-miterlimit="10"/>
<path d="M1242.67 0V350.339" stroke="#88B0DE" stroke-width="0.3881" stroke-miterlimit="10"/>
<path d="M1274.55 0V350.339" stroke="#88B0DE" stroke-width="0.3881" stroke-miterlimit="10"/>
<path d="M1306.41 0V350.339" stroke="#88B0DE" stroke-width="0.3881" stroke-miterlimit="10"/>
<path d="M1338.27 0V350.339" stroke="#88B0DE" stroke-width="0.3881" stroke-miterlimit="10"/>
<path d="M1370.13 0V350.339" stroke="#88B0DE" stroke-width="0.3881" stroke-miterlimit="10"/>
<path d="M1402.01 0V350.339" stroke="#88B0DE" stroke-width="0.3881" stroke-miterlimit="10"/>
<path d="M1051.5 222.944H1402.01" stroke="#88B0DE" stroke-width="0.3881" stroke-miterlimit="10"/>
<path d="M1051.5 254.789H1402.01" stroke="#88B0DE" stroke-width="0.3881" stroke-miterlimit="10"/>
<path d="M1051.5 286.634H1402.01" stroke="#88B0DE" stroke-width="0.3881" stroke-miterlimit="10"/>
<path d="M1051.5 318.478H1402.01" stroke="#88B0DE" stroke-width="0.3881" stroke-miterlimit="10"/>
<path d="M1051.5 350.339H1402.01" stroke="#88B0DE" stroke-width="0.3881" stroke-miterlimit="10"/>
<path d="M1402.01 350.339H1051.5V700.678H1402.01V350.339Z" fill="#4677BB"/>
<path d="M1051.5 350.339V700.661" stroke="#88B0DE" stroke-width="0.3881" stroke-miterlimit="10"/>
<path d="M1051.5 382.184H1402.01" stroke="#88B0DE" stroke-width="0.3881" stroke-miterlimit="10"/>
<path d="M1051.5 414.027H1402.01" stroke="#88B0DE" stroke-width="0.3881" stroke-miterlimit="10"/>
<path d="M1051.5 350.339H1402.01" stroke="#88B0DE" stroke-width="0.3881" stroke-miterlimit="10"/>
<path d="M1051.5 445.872H1402.01" stroke="#88B0DE" stroke-width="0.3881" stroke-miterlimit="10"/>
<path d="M1051.5 477.733H1402.01" stroke="#88B0DE" stroke-width="0.3881" stroke-miterlimit="10"/>
<path d="M1051.5 509.578H1402.01" stroke="#88B0DE" stroke-width="0.3881" stroke-miterlimit="10"/>
<path d="M1051.5 541.422H1402.01" stroke="#88B0DE" stroke-width="0.3881" stroke-miterlimit="10"/>
<path d="M1083.36 350.339V700.661" stroke="#88B0DE" stroke-width="0.3881" stroke-miterlimit="10"/>
<path d="M1115.22 350.339V700.661" stroke="#88B0DE" stroke-width="0.3881" stroke-miterlimit="10"/>
<path d="M1147.1 350.339V700.661" stroke="#88B0DE" stroke-width="0.3881" stroke-miterlimit="10"/>
<path d="M1178.96 350.339V700.661" stroke="#88B0DE" stroke-width="0.3881" stroke-miterlimit="10"/>
<path d="M1210.81 350.339V700.661" stroke="#88B0DE" stroke-width="0.3881" stroke-miterlimit="10"/>
<path d="M1242.67 350.339V700.661" stroke="#88B0DE" stroke-width="0.3881" stroke-miterlimit="10"/>
<path d="M1274.55 350.339V700.661" stroke="#88B0DE" stroke-width="0.3881" stroke-miterlimit="10"/>
<path d="M1306.41 350.339V700.661" stroke="#88B0DE" stroke-width="0.3881" stroke-miterlimit="10"/>
<path d="M1338.27 350.339V700.661" stroke="#88B0DE" stroke-width="0.3881" stroke-miterlimit="10"/>
<path d="M1370.13 350.339V700.661" stroke="#88B0DE" stroke-width="0.3881" stroke-miterlimit="10"/>
<path d="M1402.01 350.339V700.661" stroke="#88B0DE" stroke-width="0.3881" stroke-miterlimit="10"/>
<path d="M1051.5 573.267H1402.01" stroke="#88B0DE" stroke-width="0.3881" stroke-miterlimit="10"/>
<path d="M1051.5 605.128H1402.01" stroke="#88B0DE" stroke-width="0.3881" stroke-miterlimit="10"/>
<path d="M1051.5 636.973H1402.01" stroke="#88B0DE" stroke-width="0.3881" stroke-miterlimit="10"/>
<path d="M1051.5 668.816H1402.01" stroke="#88B0DE" stroke-width="0.3881" stroke-miterlimit="10"/>
<path d="M1051.5 700.661H1402.01" stroke="#88B0DE" stroke-width="0.3881" stroke-miterlimit="10"/>
<path d="M2103 350.339H1752.49V700.678H2103V350.339Z" fill="#4677BB"/>
<path d="M1752.49 350.339V700.661" stroke="#88B0DE" stroke-width="0.3881" stroke-miterlimit="10"/>
<path d="M1752.49 382.184H2103" stroke="#88B0DE" stroke-width="0.3881" stroke-miterlimit="10"/>
<path d="M1752.49 414.027H2103" stroke="#88B0DE" stroke-width="0.3881" stroke-miterlimit="10"/>
<path d="M1752.49 350.339H2103" stroke="#88B0DE" stroke-width="0.3881" stroke-miterlimit="10"/>
<path d="M1752.49 445.872H2103" stroke="#88B0DE" stroke-width="0.3881" stroke-miterlimit="10"/>
<path d="M1752.49 477.733H2103" stroke="#88B0DE" stroke-width="0.3881" stroke-miterlimit="10"/>
<path d="M1752.49 509.578H2103" stroke="#88B0DE" stroke-width="0.3881" stroke-miterlimit="10"/>
<path d="M1752.49 541.422H2103" stroke="#88B0DE" stroke-width="0.3881" stroke-miterlimit="10"/>
<path d="M1784.35 350.339V700.661" stroke="#88B0DE" stroke-width="0.3881" stroke-miterlimit="10"/>
<path d="M1816.23 350.339V700.661" stroke="#88B0DE" stroke-width="0.3881" stroke-miterlimit="10"/>
<path d="M1848.09 350.339V700.661" stroke="#88B0DE" stroke-width="0.3881" stroke-miterlimit="10"/>
<path d="M1879.95 350.339V700.661" stroke="#88B0DE" stroke-width="0.3881" stroke-miterlimit="10"/>
<path d="M1911.81 350.339V700.661" stroke="#88B0DE" stroke-width="0.3881" stroke-miterlimit="10"/>
<path d="M1943.69 350.339V700.661" stroke="#88B0DE" stroke-width="0.3881" stroke-miterlimit="10"/>
<path d="M1975.54 350.339V700.661" stroke="#88B0DE" stroke-width="0.3881" stroke-miterlimit="10"/>
<path d="M2007.4 350.339V700.661" stroke="#88B0DE" stroke-width="0.3881" stroke-miterlimit="10"/>
<path d="M2039.26 350.339V700.661" stroke="#88B0DE" stroke-width="0.3881" stroke-miterlimit="10"/>
<path d="M2071.14 350.339V700.661" stroke="#88B0DE" stroke-width="0.3881" stroke-miterlimit="10"/>
<path d="M1752.49 573.267H2103" stroke="#88B0DE" stroke-width="0.3881" stroke-miterlimit="10"/>
<path d="M1752.49 605.128H2103" stroke="#88B0DE" stroke-width="0.3881" stroke-miterlimit="10"/>
<path d="M1752.49 636.973H2103" stroke="#88B0DE" stroke-width="0.3881" stroke-miterlimit="10"/>
<path d="M1752.49 668.816H2103" stroke="#88B0DE" stroke-width="0.3881" stroke-miterlimit="10"/>
<path d="M1752.49 700.661H2103" stroke="#88B0DE" stroke-width="0.3881" stroke-miterlimit="10"/>
<path d="M1752.51 700.661H1402.01V1051H1752.51V700.661Z" fill="#4677BB"/>
<path d="M1402.01 700.661V1051" stroke="#88B0DE" stroke-width="0.3881" stroke-miterlimit="10"/>
<path d="M1402.01 732.522H1752.49" stroke="#88B0DE" stroke-width="0.3881" stroke-miterlimit="10"/>
<path d="M1402.01 764.366H1752.49" stroke="#88B0DE" stroke-width="0.3881" stroke-miterlimit="10"/>
<path d="M1402.01 700.661H1752.49" stroke="#88B0DE" stroke-width="0.3881" stroke-miterlimit="10"/>
<path d="M1402.01 796.211H1752.49" stroke="#88B0DE" stroke-width="0.3881" stroke-miterlimit="10"/>
<path d="M1402.01 828.056H1752.49" stroke="#88B0DE" stroke-width="0.3881" stroke-miterlimit="10"/>
<path d="M1402.01 859.917H1752.49" stroke="#88B0DE" stroke-width="0.3881" stroke-miterlimit="10"/>
<path d="M1402.01 891.761H1752.49" stroke="#88B0DE" stroke-width="0.3881" stroke-miterlimit="10"/>
<path d="M1433.87 700.661V1051" stroke="#88B0DE" stroke-width="0.3881" stroke-miterlimit="10"/>
<path d="M1465.73 700.661V1051" stroke="#88B0DE" stroke-width="0.3881" stroke-miterlimit="10"/>
<path d="M1497.58 700.661V1051" stroke="#88B0DE" stroke-width="0.3881" stroke-miterlimit="10"/>
<path d="M1529.46 700.661V1051" stroke="#88B0DE" stroke-width="0.3881" stroke-miterlimit="10"/>
<path d="M1561.32 700.661V1051" stroke="#88B0DE" stroke-width="0.3881" stroke-miterlimit="10"/>
<path d="M1593.18 700.661V1051" stroke="#88B0DE" stroke-width="0.3881" stroke-miterlimit="10"/>
<path d="M1625.04 700.661V1051" stroke="#88B0DE" stroke-width="0.3881" stroke-miterlimit="10"/>
<path d="M1656.9 700.661V1051" stroke="#88B0DE" stroke-width="0.3881" stroke-miterlimit="10"/>
<path d="M1688.78 700.661V1051" stroke="#88B0DE" stroke-width="0.3881" stroke-miterlimit="10"/>
<path d="M1720.63 700.661V1051" stroke="#88B0DE" stroke-width="0.3881" stroke-miterlimit="10"/>
<path d="M1752.49 700.661V1051" stroke="#88B0DE" stroke-width="0.3881" stroke-miterlimit="10"/>
<path d="M1402.01 923.605H1752.49" stroke="#88B0DE" stroke-width="0.3881" stroke-miterlimit="10"/>
<path d="M1402.01 955.45H1752.49" stroke="#88B0DE" stroke-width="0.3881" stroke-miterlimit="10"/>
<path d="M1402.01 987.312H1752.49" stroke="#88B0DE" stroke-width="0.3881" stroke-miterlimit="10"/>
<path d="M1402.01 1019.16H1752.49" stroke="#88B0DE" stroke-width="0.3881" stroke-miterlimit="10"/>
<path d="M1402.01 1051H1752.49" stroke="#88B0DE" stroke-width="0.3881" stroke-miterlimit="10"/>
<path d="M1402.01 700.661H1051.5V1051H1402.01V700.661Z" fill="#4677BB"/>
<path d="M1051.5 700.661V1051" stroke="#88B0DE" stroke-width="0.3881" stroke-miterlimit="10"/>
<path d="M1051.5 732.522H1402.01" stroke="#88B0DE" stroke-width="0.3881" stroke-miterlimit="10"/>
<path d="M1051.5 764.366H1402.01" stroke="#88B0DE" stroke-width="0.3881" stroke-miterlimit="10"/>
<path d="M1051.5 700.661H1402.01" stroke="#88B0DE" stroke-width="0.3881" stroke-miterlimit="10"/>
<path d="M1051.5 796.211H1402.01" stroke="#88B0DE" stroke-width="0.3881" stroke-miterlimit="10"/>
<path d="M1051.5 828.056H1402.01" stroke="#88B0DE" stroke-width="0.3881" stroke-miterlimit="10"/>
<path d="M1051.5 859.917H1402.01" stroke="#88B0DE" stroke-width="0.3881" stroke-miterlimit="10"/>
<path d="M1051.5 891.761H1402.01" stroke="#88B0DE" stroke-width="0.3881" stroke-miterlimit="10"/>
<path d="M1083.36 700.661V1051" stroke="#88B0DE" stroke-width="0.3881" stroke-miterlimit="10"/>
<path d="M1115.22 700.661V1051" stroke="#88B0DE" stroke-width="0.3881" stroke-miterlimit="10"/>
<path d="M1147.1 700.661V1051" stroke="#88B0DE" stroke-width="0.3881" stroke-miterlimit="10"/>
<path d="M1178.96 700.661V1051" stroke="#88B0DE" stroke-width="0.3881" stroke-miterlimit="10"/>
<path d="M1210.81 700.661V1051" stroke="#88B0DE" stroke-width="0.3881" stroke-miterlimit="10"/>
<path d="M1242.67 700.661V1051" stroke="#88B0DE" stroke-width="0.3881" stroke-miterlimit="10"/>
<path d="M1274.55 700.661V1051" stroke="#88B0DE" stroke-width="0.3881" stroke-miterlimit="10"/>
<path d="M1306.41 700.661V1051" stroke="#88B0DE" stroke-width="0.3881" stroke-miterlimit="10"/>
<path d="M1338.27 700.661V1051" stroke="#88B0DE" stroke-width="0.3881" stroke-miterlimit="10"/>
<path d="M1370.13 700.661V1051" stroke="#88B0DE" stroke-width="0.3881" stroke-miterlimit="10"/>
<path d="M1402.01 700.661V1051" stroke="#88B0DE" stroke-width="0.3881" stroke-miterlimit="10"/>
<path d="M1051.5 923.605H1402.01" stroke="#88B0DE" stroke-width="0.3881" stroke-miterlimit="10"/>
<path d="M1051.5 955.45H1402.01" stroke="#88B0DE" stroke-width="0.3881" stroke-miterlimit="10"/>
<path d="M1051.5 987.312H1402.01" stroke="#88B0DE" stroke-width="0.3881" stroke-miterlimit="10"/>
<path d="M1051.5 1019.16H1402.01" stroke="#88B0DE" stroke-width="0.3881" stroke-miterlimit="10"/>
<path d="M1051.5 1051H1402.01" stroke="#88B0DE" stroke-width="0.3881" stroke-miterlimit="10"/>
<path d="M2103 700.661H1752.49V1051H2103V700.661Z" fill="#4677BB"/>
<path d="M1752.49 700.661V1051" stroke="#88B0DE" stroke-width="0.3881" stroke-miterlimit="10"/>
<path d="M1752.49 732.522H2103" stroke="#88B0DE" stroke-width="0.3881" stroke-miterlimit="10"/>
<path d="M1752.49 764.366H2103" stroke="#88B0DE" stroke-width="0.3881" stroke-miterlimit="10"/>
<path d="M1752.49 700.661H2103" stroke="#88B0DE" stroke-width="0.3881" stroke-miterlimit="10"/>
<path d="M1752.49 796.211H2103" stroke="#88B0DE" stroke-width="0.3881" stroke-miterlimit="10"/>
<path d="M1752.49 828.056H2103" stroke="#88B0DE" stroke-width="0.3881" stroke-miterlimit="10"/>
<path d="M1752.49 859.917H2103" stroke="#88B0DE" stroke-width="0.3881" stroke-miterlimit="10"/>
<path d="M1752.49 891.761H2103" stroke="#88B0DE" stroke-width="0.3881" stroke-miterlimit="10"/>
<path d="M1784.35 700.661V1051" stroke="#88B0DE" stroke-width="0.3881" stroke-miterlimit="10"/>
<path d="M1816.23 700.661V1051" stroke="#88B0DE" stroke-width="0.3881" stroke-miterlimit="10"/>
<path d="M1848.09 700.661V1051" stroke="#88B0DE" stroke-width="0.3881" stroke-miterlimit="10"/>
<path d="M1879.95 700.661V1051" stroke="#88B0DE" stroke-width="0.3881" stroke-miterlimit="10"/>
<path d="M1911.81 700.661V1051" stroke="#88B0DE" stroke-width="0.3881" stroke-miterlimit="10"/>
<path d="M1943.69 700.661V1051" stroke="#88B0DE" stroke-width="0.3881" stroke-miterlimit="10"/>
<path d="M1975.54 700.661V1051" stroke="#88B0DE" stroke-width="0.3881" stroke-miterlimit="10"/>
<path d="M2007.4 700.661V1051" stroke="#88B0DE" stroke-width="0.3881" stroke-miterlimit="10"/>
<path d="M2039.26 700.661V1051" stroke="#88B0DE" stroke-width="0.3881" stroke-miterlimit="10"/>
<path d="M2071.14 700.661V1051" stroke="#88B0DE" stroke-width="0.3881" stroke-miterlimit="10"/>
<path d="M1752.49 923.605H2103" stroke="#88B0DE" stroke-width="0.3881" stroke-miterlimit="10"/>
<path d="M1752.49 955.45H2103" stroke="#88B0DE" stroke-width="0.3881" stroke-miterlimit="10"/>
<path d="M1752.49 987.312H2103" stroke="#88B0DE" stroke-width="0.3881" stroke-miterlimit="10"/>
<path d="M1752.49 1019.16H2103" stroke="#88B0DE" stroke-width="0.3881" stroke-miterlimit="10"/>
<path d="M1752.49 1051H2103" stroke="#88B0DE" stroke-width="0.3881" stroke-miterlimit="10"/>
<path d="M700.995 0V1051" stroke="#88B0DE" stroke-width="1.1759" stroke-miterlimit="10"/>
<path d="M1051.5 0V1051" stroke="#88B0DE" stroke-width="1.1759" stroke-miterlimit="10"/>
<path d="M350.506 0V1051" stroke="#88B0DE" stroke-width="1.1759" stroke-miterlimit="10"/>
<path d="M1402.01 0V1051" stroke="#88B0DE" stroke-width="1.1759" stroke-miterlimit="10"/>
<path d="M1752.49 0V1051" stroke="#88B0DE" stroke-width="1.1759" stroke-miterlimit="10"/>
<path d="M1986.16 700.661H116.824" stroke="#88B0DE" stroke-width="1.1759" stroke-miterlimit="10"/>
<path d="M1986.16 350.339H116.824" stroke="#88B0DE" stroke-width="1.1759" stroke-miterlimit="10"/>
</g>
<defs>
<clipPath id="clip0_107_81154">
<rect width="2103" height="1051" fill="white"/>
</clipPath>
</defs>
</svg>
