<svg width="796" height="202" viewBox="0 0 796 202" fill="none" xmlns="http://www.w3.org/2000/svg">
<path d="M2.00032 200.029L199.994 200.029L199.994 2.0005L2.00032 2.0005L2.00032 200.029Z" stroke="#62A1FB" stroke-width="3.29774" stroke-miterlimit="10"/>
<path d="M100.999 200.029C155.673 200.029 199.996 155.699 199.996 101.014C199.996 46.3302 155.673 2 100.999 2C46.3242 2 2.00195 46.3302 2.00195 101.014C2.00195 155.699 46.3242 200.029 100.999 200.029Z" stroke="#62A1FB" stroke-width="3.29774" stroke-miterlimit="10"/>
<path d="M199.996 101.016H2.00195" stroke="#62A1FB" stroke-width="3.29774" stroke-miterlimit="10"/>
<path d="M100.998 2V200.029" stroke="#62A1FB" stroke-width="3.29774" stroke-miterlimit="10"/>
<path d="M199.995 200.029L397.989 200.029V2.0005L199.995 2.0005L199.995 200.029Z" stroke="#62A1FB" stroke-width="3.29774" stroke-miterlimit="10"/>
<path d="M298.994 200.029C353.668 200.029 397.991 155.699 397.991 101.014C397.991 46.3302 353.668 2 298.994 2C244.319 2 199.997 46.3302 199.997 101.014C199.997 155.699 244.319 200.029 298.994 200.029Z" stroke="#62A1FB" stroke-width="3.29774" stroke-miterlimit="10"/>
<path d="M397.99 101.016H199.996" stroke="#62A1FB" stroke-width="3.29774" stroke-miterlimit="10"/>
<path d="M298.992 2V200.029" stroke="#62A1FB" stroke-width="3.29774" stroke-miterlimit="10"/>
<path d="M397.992 200.029L595.985 200.029V2.0005L397.992 2.0005V200.029Z" stroke="#62A1FB" stroke-width="3.29774" stroke-miterlimit="10"/>
<path d="M496.99 200.029C551.665 200.029 595.987 155.699 595.987 101.014C595.987 46.3302 551.665 2 496.99 2C442.315 2 397.993 46.3302 397.993 101.014C397.993 155.699 442.315 200.029 496.99 200.029Z" stroke="#62A1FB" stroke-width="3.29774" stroke-miterlimit="10"/>
<path d="M595.987 101.016H397.993" stroke="#62A1FB" stroke-width="3.29774" stroke-miterlimit="10"/>
<path d="M496.989 2V200.029" stroke="#62A1FB" stroke-width="3.29774" stroke-miterlimit="10"/>
<path d="M595.987 200.029L793.98 200.029V2.0005L595.987 2.0005V200.029Z" stroke="#62A1FB" stroke-width="3.29774" stroke-miterlimit="10"/>
<path d="M694.985 200.029C749.66 200.029 793.982 155.699 793.982 101.014C793.982 46.3302 749.66 2 694.985 2C640.311 2 595.988 46.3302 595.988 101.014C595.988 155.699 640.311 200.029 694.985 200.029Z" stroke="#62A1FB" stroke-width="3.29774" stroke-miterlimit="10"/>
<path d="M793.982 101.014H595.988" stroke="#62A1FB" stroke-width="3.29774" stroke-miterlimit="10"/>
<path d="M694.984 2V200.029" stroke="#62A1FB" stroke-width="3.29774" stroke-miterlimit="10"/>
</svg>
