<svg width="17" height="17" viewBox="0 0 17 17" fill="none" xmlns="http://www.w3.org/2000/svg">
<path d="M8.48926 16.3988C8.53067 16.6887 8.57209 16.6059 8.57209 16.3574H8.53066L8.48926 16.3988Z" fill="#FBBC04"/>
<path d="M8.44823 16.3987C8.44823 16.3987 8.44823 16.3986 8.44823 16.4401C8.40682 16.8128 8.57247 17.0612 8.44823 16.2744C8.44823 16.2744 8.44823 16.3158 8.44823 16.3987Z" fill="#FBBC04"/>
<path d="M4.01701 14.2461C3.52007 15.1157 4.14125 14.2461 4.01701 14.2461V14.2461Z" fill="#FBBC04"/>
<path d="M2.77406 13.9561H2.73263C2.64981 14.0389 2.6084 14.1631 2.6084 14.1631C2.64981 14.1631 2.81547 13.9561 2.77406 13.9561Z" fill="#FBBC04"/>
<path d="M6.37695 15.8194C6.37695 15.7365 6.37697 15.6951 6.41838 15.6123C6.41838 15.6951 6.37695 15.778 6.37695 15.8194Z" fill="#FBBC04"/>
<path d="M8.28256 13.9966C8.24115 13.7895 8.24114 13.9138 8.24114 14.0794C8.24114 14.2451 8.24115 14.038 8.19974 13.9552C8.19974 13.9966 8.28255 14.9491 8.24114 14.6592C8.19973 14.3693 8.15832 13.9966 8.11691 13.6653C8.0755 13.4168 8.03408 13.0441 8.03408 13.334C8.07549 13.6653 8.11691 13.7481 8.11691 14.1208C8.0755 14.1622 8.03409 13.5411 7.99268 13.5825C7.99268 13.5825 7.99267 13.7895 8.03408 13.9966C7.99267 14.038 7.95128 13.4582 7.95128 13.4582C7.90986 13.4582 7.95126 13.4996 7.90985 13.334C7.86844 13.0855 7.86844 13.4582 7.90985 13.7067C7.90985 13.9966 7.90985 14.0794 7.90985 14.1208C7.90985 13.8724 7.86845 13.6239 7.86845 13.3754C7.86845 13.0441 7.82702 13.4997 7.82702 13.5825C7.82702 13.6653 7.78562 13.6239 7.78562 13.6239L7.74422 13.9138C7.70281 13.8724 7.66139 12.5886 7.66139 13.4997C7.66139 13.7895 7.66137 13.5825 7.61996 13.5411C7.57855 13.334 7.57857 13.4582 7.53716 13.5825C7.49575 13.8724 7.49574 13.5825 7.45433 13.2926C7.41292 13.0027 7.41291 13.7895 7.3715 14.1208C7.3715 13.9552 7.3715 13.9138 7.3715 13.6653C7.3715 13.5411 7.3715 13.4582 7.3715 13.4168C7.33009 13.2098 7.28868 13.334 7.24727 13.2926C7.20586 13.2512 7.16445 13.0855 7.12304 13.1684C7.08163 13.2512 7.08163 13.7895 7.04021 13.9552C7.04021 13.7895 7.04021 13.8309 7.04021 13.7067C7.04021 13.6239 7.0402 13.4997 7.08162 13.3754C7.08162 13.2512 7.04021 13.334 7.04021 13.334C7.08163 13.334 6.99879 13.4997 6.99879 13.4997C6.95738 13.4997 6.9574 13.3754 6.91598 13.4168C6.87457 13.4582 6.79173 14.0794 6.79173 13.8724C6.79173 13.6653 6.83315 13.0855 6.75033 13.2512C6.70892 13.334 6.58468 14.038 6.6675 13.334C6.62609 13.4168 6.62608 13.4996 6.58467 13.6239C6.75032 12.63 6.58469 13.0441 6.50187 13.0855C6.50187 13.0855 6.37763 13.0441 6.29481 13.334C6.2534 13.3754 6.29481 13.2512 6.29481 13.2098C6.29481 13.1684 6.25339 13.1684 6.21198 13.2098C6.17057 13.2512 6.17056 13.0441 6.12915 13.0855C6.12915 13.0855 6.08775 13.0441 6.00492 13.2926C5.96351 13.4582 5.9221 13.5825 5.88069 13.5825C5.83928 13.5825 5.88068 13.4996 5.92209 13.334C5.92209 13.2512 5.83928 13.4168 5.88069 13.2926C5.88069 13.2512 6.00493 12.8371 5.88069 13.1684C5.83928 13.3754 5.75645 13.5411 5.71504 13.5411C5.75645 13.4582 5.88069 13.0441 5.88069 13.0441C5.9221 12.8785 5.71505 13.334 5.67363 13.3754C5.63222 13.4168 5.67363 13.2926 5.67363 13.2098C5.67363 13.1684 5.75645 12.8371 5.59081 13.2098C5.50798 13.4582 5.42514 13.5825 5.34232 13.8309C5.38373 13.6653 5.50797 13.334 5.54938 13.1684C5.6322 12.9199 5.30093 13.7481 5.25952 13.8309C5.21811 13.8309 5.54938 13.0027 5.63221 12.8371C5.71503 12.5886 5.50798 12.9613 5.50798 12.9613C5.46657 12.9613 5.50797 12.7542 5.42515 13.0027L5.30092 13.2512C5.30092 13.2512 5.25951 13.334 5.17669 13.4582C5.13528 13.4997 4.96963 13.9138 4.96963 13.9138C4.92822 13.9138 5.38374 12.9613 5.42515 12.7956C5.46656 12.63 5.34233 12.7956 5.30092 12.7956C5.25951 12.7956 5.30091 12.5058 5.01103 13.0441C5.21809 12.6714 5.01104 12.8785 4.96963 12.8371C4.96963 12.8371 5.05244 12.5472 5.01103 12.7128C4.8868 12.9199 4.76256 13.1684 4.72115 13.2926C4.43126 13.7481 5.01103 12.63 4.9282 12.7128C4.9282 12.7128 4.76256 13.0027 4.59692 13.2512C4.43127 13.4997 4.26562 13.7481 4.30703 13.7067C4.38985 13.5825 5.13527 12.3401 4.8868 12.6714C4.72116 12.8371 4.80397 12.63 4.59692 12.9613C4.51409 13.0441 4.30704 13.2926 4.34846 13.1269C4.55551 12.7957 4.72117 12.4644 4.43128 12.8785C5.05246 12.0088 4.63832 12.3815 4.09997 13.1269C4.22421 12.9199 4.38985 12.7128 4.51409 12.5058C4.67973 12.2573 4.59693 12.3401 4.55551 12.3401C4.5141 12.3401 4.59693 12.1745 4.34846 12.5058C4.47269 12.3401 4.4727 12.2987 4.43128 12.2987C4.34846 12.2987 4.26563 12.4229 3.93434 12.8371C3.89293 12.8371 4.30703 12.3401 4.38986 12.2159C4.26562 12.3815 4.09997 12.5058 4.09997 12.5058C4.59691 11.926 4.43128 12.0502 4.34846 12.0502C4.30704 12.0502 3.72728 12.6714 3.52022 12.8371C3.31316 13.0441 3.1061 13.2926 2.94045 13.4582C2.7748 13.6239 2.94045 13.4168 3.02328 13.334C3.27175 13.0855 3.52021 12.7957 3.76868 12.5472C3.72727 12.5886 4.22422 12.0917 4.1414 12.1331C4.09999 12.1745 4.05857 12.2159 4.05857 12.1745C4.09998 12.1331 4.14139 12.0502 4.1828 12.0502C4.1828 12.0502 4.1828 12.0088 4.05857 12.1331C3.97575 12.2159 3.18892 13.0855 3.14751 13.1269C3.23033 13.0027 3.89293 12.2573 3.31316 12.7542C3.14752 12.9613 2.81622 13.2512 2.60916 13.4997C2.44351 13.7067 3.06468 13.1684 2.85762 13.4168C2.69197 13.5825 2.52635 13.7481 2.3607 13.9552C2.15364 14.1622 2.4435 13.9552 2.4435 13.9966C2.48492 13.9966 2.94046 13.4997 3.18893 13.2512C3.31317 13.0855 3.52023 12.8785 3.60305 12.8371C3.64446 12.8371 3.68587 12.7957 3.60305 12.9199C3.52023 13.0441 3.31316 13.1684 3.23034 13.2512C3.06469 13.4168 2.94045 13.5825 2.73339 13.7895C3.06468 13.4168 2.98188 13.6239 3.18893 13.4168C3.23035 13.4168 3.1061 13.5411 3.02328 13.6653C2.94045 13.7895 3.02327 13.7481 3.06468 13.7481C3.10609 13.7481 2.94044 13.9138 2.85762 14.038C2.73338 14.2451 2.77482 14.2451 2.77482 14.2865C2.77482 14.3279 2.69197 14.6178 2.85762 14.3693C3.1475 13.9552 3.27174 13.8309 3.27174 13.9552C3.27174 14.038 2.89904 14.4935 3.14751 14.2451C3.43739 13.9552 3.02329 14.5764 3.18893 14.3279C3.23035 14.2451 3.4374 13.9966 3.60305 13.7481C3.7687 13.4996 3.93434 13.2512 3.93434 13.2512C3.93434 13.2926 3.56163 13.7895 3.43739 13.9552C3.31316 14.1622 3.35458 14.1622 3.18893 14.4521C3.14752 14.4521 3.06468 14.6178 3.06468 14.6178C3.10609 14.6178 3.18893 14.4935 3.18893 14.4521C3.35458 14.2451 3.35458 14.2865 3.39599 14.2865C3.39599 14.2865 3.68585 13.7481 3.68585 13.8724C3.68585 13.9966 3.23033 14.6178 3.14751 14.742C3.06468 14.9905 3.35458 14.6178 3.52022 14.3279C3.72728 14.038 3.64444 14.1208 3.68585 14.1208C3.68585 14.0794 3.64446 14.2865 3.72728 14.1622C3.89293 13.9138 3.97574 13.7481 3.89291 13.9552C3.72727 14.3279 3.64445 14.2451 3.43739 14.6178C3.56163 14.5349 3.27175 14.9491 3.52022 14.7006C3.64446 14.5349 3.60304 14.7834 3.85151 14.3279C3.72728 14.5349 3.68587 14.6592 3.81011 14.4935C3.93434 14.3279 4.05856 14.1208 4.1828 13.9138C4.43127 13.5411 4.09999 14.1622 4.01717 14.2865C3.93434 14.4521 3.60303 15.0733 3.68585 14.9491C3.76868 14.8662 3.97574 14.6178 3.68585 15.1147C3.89291 14.7834 4.43127 13.7895 4.26563 14.2036C4.1828 14.4107 3.72727 15.1975 3.97574 14.9491C4.01715 14.9076 4.26564 14.4935 4.22423 14.5764C4.18281 14.7006 4.01715 14.9905 3.97574 15.1147C3.93433 15.2389 4.09997 14.9905 4.09997 14.9905C4.14138 14.9905 4.30704 14.6178 4.34846 14.4935C4.47269 14.3279 4.43127 14.4935 4.59692 14.2036C4.63833 14.1622 4.88679 13.7067 4.72115 14.0794C4.63832 14.3279 4.63833 14.4521 4.67974 14.4521C4.72116 14.4521 4.80398 14.2451 4.8868 14.1622C4.96963 14.0794 4.4727 15.0319 4.43128 15.2389C4.38987 15.4046 4.63833 14.7834 4.67974 14.742C4.72116 14.6178 4.8454 14.4521 4.76257 14.6592C4.80398 14.5764 5.05246 13.9552 5.05246 13.9552C5.05246 13.9966 4.63832 15.0319 4.51409 15.2803C4.5555 15.2803 4.76256 14.742 4.80397 14.742C4.5555 15.3632 4.80398 14.9076 4.76257 15.0319C4.72116 15.1561 4.59693 15.4046 4.63834 15.446C4.63834 15.4874 4.67973 15.4046 4.72115 15.3218C4.80397 15.2389 4.76256 15.4046 4.80397 15.4046L4.96963 15.3632C5.01104 15.1975 5.13527 14.8248 5.21809 14.6592C5.30091 14.4935 5.13526 15.0319 5.13526 15.1561C5.05244 15.446 5.05244 15.6116 5.13526 15.4874C5.21809 15.3218 5.25952 15.0733 5.25952 14.9491C5.30093 14.7834 5.50798 14.5349 5.38375 14.9491C5.13528 15.7359 5.67363 14.3693 5.67363 14.3693C5.63222 14.5349 5.46657 14.9905 5.50798 14.9905C5.50798 14.9905 5.71504 14.742 5.59081 15.0733C5.59081 15.1147 5.75646 14.7834 5.67363 15.0319C5.63222 15.1561 5.5908 15.5702 5.63221 15.3632C5.71503 15.0733 5.79786 14.5349 5.79786 14.4521L5.92209 14.1622C5.96351 14.1208 5.88068 14.4935 5.83927 14.6592C5.79785 14.9076 5.75645 15.1561 5.71504 15.4046C5.75645 15.2804 5.79785 15.1561 5.83927 14.9905C6.00491 14.4935 5.88069 14.8248 5.88069 15.1147C5.79787 15.7773 6.17056 14.6592 6.04632 15.4046C6.04632 15.4874 6.21197 14.742 6.17055 15.0319C6.17055 15.0733 6.00492 15.8601 6.12915 15.5702C6.17056 15.4046 6.2534 14.9491 6.29481 14.9491C6.29481 14.9491 6.29481 15.2389 6.29481 15.2803C6.29481 15.2803 6.29479 14.9905 6.25338 15.2803C6.21197 15.4874 6.2534 15.6116 6.29481 15.5702C6.29481 15.5702 6.3362 15.6116 6.37761 15.4046C6.41902 15.1561 6.46045 14.7834 6.41904 14.7834C6.41904 14.6592 6.50187 14.4107 6.50187 14.3279C6.54328 14.1622 6.50187 14.4935 6.50187 14.5764C6.50187 14.8248 6.46045 15.1975 6.41904 15.6116C6.46045 15.446 6.50187 15.2389 6.50187 15.2389C6.50187 15.2389 6.46044 15.6116 6.46044 15.6945C6.46044 15.9429 6.54326 15.6945 6.58467 15.5702C6.62608 15.4046 6.6675 15.3218 6.75033 15.0319C6.75033 14.9491 6.83316 14.5349 6.83316 14.7006C6.83316 14.742 6.79173 14.9905 6.79173 15.2389C6.79173 15.3632 6.75033 15.446 6.75033 15.5288C6.75033 15.6116 6.75034 15.6531 6.70893 15.6531C6.75034 15.6116 6.79174 15.0733 6.83316 15.0733C6.83316 15.0733 6.79174 15.446 6.83316 15.4874C6.83316 15.5702 6.87457 15.5702 6.91598 15.3218C6.9574 15.2389 7.04021 15.1147 7.04021 14.8662C7.12304 14.6592 7.08162 15.1147 7.08162 15.446C7.12303 15.6945 7.16445 14.9905 7.12304 15.0319C7.16445 14.9905 7.24726 14.5764 7.28867 14.1208C7.28867 14.4107 7.24727 14.6592 7.24727 14.9905C7.24727 15.1975 7.24727 15.3218 7.24727 15.4874C7.28868 14.9491 7.33009 14.9076 7.3715 14.9491C7.41291 14.9905 7.41292 15.4046 7.45433 15.6531C7.45433 15.3218 7.57855 15.4046 7.61996 15.3632C7.66137 15.2804 7.66139 14.8662 7.66139 14.8662C7.66139 14.9076 7.86843 16.1086 7.82702 15.2389C7.86843 15.2389 7.95128 15.8601 7.95128 15.5288C7.95128 15.1975 7.95128 15.0319 7.95128 14.742C7.95128 15.1147 7.99268 15.4046 7.99268 15.7359C7.99268 15.4046 8.03408 15.0319 8.03408 14.7006C8.03408 14.7834 8.07551 15.6116 8.07551 15.5702C8.11692 15.4046 8.07549 14.6592 8.03408 14.2865C8.07549 14.2451 8.11692 15.1147 8.15833 15.3218C8.19975 15.6945 8.19973 15.2803 8.24114 15.4874C8.28255 15.5702 8.28256 15.8601 8.28256 15.7359C8.28256 15.6531 8.28255 15.3632 8.32397 15.446C8.36538 15.4874 8.36538 15.5288 8.40679 15.5702C8.44821 15.6531 8.57245 16.1914 8.57245 16.0258C8.57245 15.9843 8.48962 15.4046 8.48962 15.4046C8.44821 14.9076 8.4068 14.7834 8.48962 14.9076C8.53103 14.9491 8.48962 14.6592 8.48962 14.5349C8.44821 14.6178 8.32398 14.1622 8.28256 13.9966Z" fill="#FBBC04"/>
<path d="M7.24688 15.4463C7.24688 15.4877 7.24688 15.5705 7.24688 15.6533C7.20547 15.5705 7.20547 15.4877 7.24688 15.4463Z" fill="#FBBC04"/>
<path d="M2.44345 13.0856C2.48486 13.0028 2.48486 12.9614 2.23639 13.2098C2.02934 13.4169 2.11217 13.4169 2.19499 13.4169L2.44345 13.127C2.44345 13.127 2.44345 13.0856 2.44345 13.0856Z" fill="#FBBC04"/>
<path d="M3.97548 11.8849C4.18254 11.6364 3.76843 12.0091 3.97548 11.8021C4.09972 11.595 3.6442 12.0091 3.51997 12.0505C3.80985 11.7607 3.85126 11.7192 3.72702 11.8021C3.60279 11.8849 3.39574 12.0505 3.18868 12.2162C3.51997 11.9677 4.14114 11.2637 3.51997 11.8849C3.31291 12.1334 3.31289 12.0505 3.47854 11.8849C3.72701 11.6778 3.89267 11.5122 3.85125 11.5122C4.0169 11.3051 3.18867 12.092 3.10585 12.1334C2.9402 12.2576 2.02915 13.003 1.94633 13.0858C1.90492 13.1687 2.27761 12.8788 2.11196 13.0444C2.02914 13.1272 1.69784 13.4585 1.9049 13.3343C2.07055 13.1687 2.31903 12.9202 2.48467 12.7959C2.60891 12.7131 2.65031 12.6717 2.73313 12.5889C2.48466 12.7959 2.15336 13.1272 2.44325 12.9202C2.56748 12.8374 3.06444 12.4232 3.18868 12.299L2.31902 13.0858C2.36043 13.0858 2.69174 12.7545 2.77456 12.7131C2.8988 12.6717 2.77456 12.7959 2.77456 12.8374C2.77456 12.8788 2.89878 12.8374 2.73313 13.0858C2.69172 13.1272 2.44326 13.4171 2.48467 13.4171C2.48467 13.4171 2.89878 13.003 2.94019 12.9202C2.9816 12.9202 2.69173 13.2515 2.48467 13.4171C2.65032 13.2515 2.81597 13.1272 2.89879 13.0858C2.98161 13.0444 3.02303 13.003 3.31291 12.7131C3.51997 12.4232 3.80984 12.092 3.97548 11.8849Z" fill="#FBBC04"/>
<path d="M3.80957 11.4712C3.85098 11.4712 3.93381 11.347 3.80957 11.4712V11.4712Z" fill="#FBBC04"/>
<path d="M3.60304 11.5956C3.89292 11.3057 3.10608 11.9683 2.94044 12.0925C3.02326 12.0097 3.8929 11.2643 3.68584 11.43C3.52019 11.5542 3.23032 11.8027 3.14749 11.8441C3.10608 11.8441 3.02325 11.8441 3.06467 11.8027C3.06467 11.7612 3.23033 11.6784 3.31315 11.5956C3.60303 11.3471 3.5202 11.3885 3.23032 11.5956C3.43738 11.43 2.81621 11.8441 3.02326 11.637C3.1475 11.5128 3.43739 11.3471 3.52021 11.2643C3.4788 11.2643 2.98184 11.5956 2.65055 11.8441C2.89902 11.637 3.10609 11.4714 3.43738 11.2643C3.18891 11.43 2.4021 11.9269 2.36069 11.9269C2.60916 11.7612 3.23032 11.3057 3.02326 11.3885C2.89903 11.43 2.52632 11.8027 2.31926 11.8855C2.02938 12.0097 2.98186 11.43 2.89903 11.43C2.85762 11.43 2.44351 11.7198 2.69198 11.5128L2.94044 11.3471C2.8162 11.3885 2.69198 11.5128 2.56775 11.5956C2.98186 11.3057 3.06467 11.2229 3.27172 11.0987C3.35455 11.0158 3.18891 11.1401 3.02326 11.2229C3.23032 11.0987 3.35455 10.9744 3.35455 10.933C3.35455 10.8916 3.14751 11.0572 2.98186 11.0987C2.85763 11.1401 2.73338 11.2229 2.73338 11.1815C2.73338 11.1815 3.1061 10.933 3.18892 10.8916C3.1061 10.933 2.94045 10.9744 2.7748 11.0572C2.69198 11.0987 2.65055 11.1401 2.65055 11.1401C2.07079 11.4714 1.82232 11.637 1.28397 11.9683C0.704206 12.2996 1.07691 12.1754 1.07691 12.2168C1.07691 12.2582 0.869857 12.5067 1.15974 12.341C1.49103 12.1754 1.65668 12.0097 1.86374 11.8441C1.86374 11.8441 2.73338 11.3885 2.81621 11.3057C2.60915 11.43 2.44349 11.5542 2.23643 11.6784C2.15361 11.7612 1.98797 11.8855 1.98797 11.8855C1.82233 11.9683 1.28398 12.2996 1.3254 12.2996C1.36681 12.341 0.994087 12.7965 1.69809 12.2996C1.61526 12.341 1.6981 12.3824 1.73951 12.3824C1.78092 12.3824 1.49104 12.6309 1.44963 12.6723C1.40821 12.7551 1.44961 12.7965 1.61526 12.7137C1.98796 12.5067 1.44962 12.9208 1.49103 12.9622C1.82232 12.6723 1.82233 12.6723 2.19503 12.3824C2.31927 12.2996 2.81621 11.9683 2.60915 12.134C2.31927 12.4238 1.86375 12.7137 1.53245 12.9622C1.57387 12.9622 1.57385 13.1278 1.82232 12.9208C2.02937 12.7551 2.60916 12.2168 2.7748 12.134C3.06469 12.0925 3.35457 11.8441 3.60304 11.5956Z" fill="#FBBC04"/>
<path d="M1.44895 11.8018C1.2833 11.8432 1.07625 12.0088 1.11766 12.0088C1.20049 12.0502 1.49036 11.8018 1.44895 11.8018Z" fill="#FBBC04"/>
<path d="M2.6913 10.9746C2.44283 11.0574 2.11154 11.2645 2.6913 10.9746V10.9746Z" fill="#FBBC04"/>
<path d="M1.78009 11.4299C2.1942 11.1814 2.69115 10.8915 3.10526 10.643C3.06385 10.643 2.73254 10.7673 2.44266 10.8915C2.06996 11.0571 2.48408 10.9329 2.40126 10.9743C2.1942 11.0571 2.02855 11.0986 2.2356 10.9743C2.44266 10.8501 2.81537 10.6844 2.93961 10.6016C3.39514 10.2703 2.23562 10.9329 2.1528 10.9743C2.02857 10.9743 2.93962 10.5188 2.98103 10.4774C3.06386 10.3946 3.10526 10.3531 2.60832 10.6016C2.56691 10.5602 2.8982 10.436 3.02244 10.3531C3.10526 10.3117 3.06385 10.2703 2.69115 10.436C3.35373 10.1461 2.56692 10.3531 2.77398 10.2289C2.77398 10.2289 2.77397 10.2289 2.81538 10.1875C2.60832 10.2703 1.98714 10.5188 1.57303 10.7258C1.24173 10.8501 1.32455 10.8501 1.20031 10.9329C1.11749 10.9743 0.496314 11.2228 0.786196 11.14C0.951843 11.0986 1.0761 11.0157 1.11751 11.0157L1.15891 11.0571C1.24173 11.0571 1.65586 10.8501 1.86291 10.8087C2.35985 10.643 0.951853 11.2228 0.951853 11.1814C0.869029 11.2228 1.49021 11.0157 1.24174 11.14C0.993269 11.2642 0.579158 11.4713 0.703393 11.4713C0.744805 11.4713 1.07609 11.3884 1.24174 11.3056C1.28315 11.2642 1.03469 11.347 1.11751 11.3056C1.40739 11.1814 1.49019 11.2642 1.40737 11.3056C1.36596 11.347 1.24172 11.3884 1.20031 11.3884C1.03467 11.4298 1.03468 11.4713 0.744794 11.5955C0.951853 11.5127 1.24174 11.3884 1.53163 11.3056C1.40739 11.347 0.620549 11.7611 0.786196 11.7197C0.910431 11.6783 1.24173 11.5127 1.36597 11.4713C1.40738 11.4713 1.20032 11.5955 1.15891 11.5955C0.993264 11.7611 2.06997 11.14 1.15891 11.6783C0.786206 11.9268 0.703378 12.0096 1.07608 11.844C1.4902 11.6783 0.579148 12.1753 0.951853 12.0096C1.36597 11.8026 2.02856 11.4298 2.48409 11.1814C3.6022 10.6016 2.11138 11.3056 1.78009 11.4299Z" fill="#FBBC04"/>
<path d="M2.85683 10.1464C2.85683 10.1464 2.81543 10.1464 2.81543 10.1878C2.81543 10.1878 2.98107 10.1049 2.85683 10.1464Z" fill="#FBBC04"/>
<path d="M0.745789 9.73172C0.704377 9.69031 0.207427 9.77313 0.166016 9.85595C0.207427 9.85595 0.787201 9.77313 0.745789 9.73172Z" fill="#FBBC04"/>
<path d="M0.290125 9.44219C0.16589 9.52501 0.538595 9.4836 0.497183 9.44219C0.455771 9.40078 0.372948 9.40078 0.290125 9.44219Z" fill="#FBBC04"/>
<path d="M1.40812 10.767C1.53235 10.7256 1.73941 10.6428 1.82224 10.6014C2.07071 10.4771 1.44954 10.7256 2.11212 10.4357C2.31918 10.3529 2.81612 10.1044 2.52624 10.1873C2.31918 10.2701 2.02929 10.3529 1.82224 10.4357C2.07071 10.3529 2.56766 10.1458 2.60907 10.1044C2.60907 10.063 2.27777 10.1458 2.7333 9.9802C2.44342 10.063 2.11213 10.1873 2.07072 10.1873C2.19496 10.1458 2.89895 9.89737 2.89895 9.89737C2.89895 9.89737 2.31918 10.0216 2.23635 10.063C1.73941 10.1458 2.73331 9.89737 2.77472 9.85596C2.77472 9.85596 2.48482 9.89737 2.44341 9.89737C2.36059 9.89737 2.02931 10.0216 1.86366 10.063C1.82225 10.0216 2.44343 9.89737 2.56767 9.85596C2.65049 9.81455 2.60908 9.81455 2.77472 9.73173C3.02319 9.6489 2.98178 9.6489 2.77472 9.69031C2.65049 9.69031 2.65049 9.69031 2.77472 9.6489C2.81614 9.60749 3.31307 9.48326 3.02318 9.52467C2.89895 9.56608 2.48482 9.69031 2.44341 9.69031C2.402 9.69031 2.65049 9.60749 2.77472 9.56608C3.3959 9.40043 2.56765 9.56608 2.44341 9.60749C2.48482 9.56608 2.89894 9.48326 2.85753 9.44184C2.81612 9.40043 2.60906 9.48326 2.44341 9.52467C2.27776 9.56608 2.89894 9.35902 2.94036 9.35902C3.02318 9.31761 2.69189 9.40043 2.60907 9.40043C2.40201 9.40043 2.31918 9.40043 1.90506 9.44184C1.73942 9.44184 1.44955 9.48326 1.6566 9.44184C1.82225 9.40043 2.40201 9.2762 2.40201 9.23479C2.3606 9.19337 2.65048 9.15196 2.81613 9.11055C3.27165 8.98632 1.98789 9.15196 2.81613 8.98631C2.40201 9.06914 2.07072 9.11055 2.19495 9.02773C2.31919 8.98632 2.94037 8.86208 2.89895 8.86208C2.85754 8.82067 1.82224 9.06914 1.69801 9.06914C1.11824 9.15196 0.911184 9.15196 0.455655 9.19337C0.0829504 9.23478 0.248597 9.31761 0.248597 9.35902C0.33142 9.40043 0.911199 9.23478 1.11826 9.19337C0.994022 9.19337 0.828371 9.23479 0.621312 9.23479C0.869782 9.19337 1.11826 9.15196 1.32532 9.15196C1.6152 9.15196 1.24249 9.19337 1.03543 9.23479C0.704136 9.2762 0.290009 9.40043 0.869772 9.31761C1.07683 9.2762 1.73941 9.19337 1.61518 9.23479C1.53235 9.2762 0.745542 9.40043 0.538484 9.44184C0.248602 9.48326 0.372842 9.52467 0.414254 9.56608C0.455666 9.6489 0.207185 9.77314 1.07683 9.56608C0.786949 9.6489 1.24248 9.56608 1.28389 9.60749C1.28389 9.60749 0.869772 9.69031 0.869772 9.73173C0.869772 9.73173 1.9879 9.52467 1.53237 9.6489C1.44955 9.69031 1.03543 9.81455 0.828371 9.85596C0.621312 9.89737 0.994007 9.77314 1.07683 9.73173C1.15965 9.69031 0.994002 9.73173 0.786944 9.77314C0.497062 9.85596 0.579885 9.81455 0.579885 9.77314C0.20718 9.85596 0.0829504 9.98019 0.455655 9.89737C0.497067 9.93878 0.207201 10.0216 0.290024 10.063C0.372847 10.1044 0.621297 10.063 0.994002 9.93878C1.15965 9.89737 1.36673 9.81455 1.53237 9.77314C1.65661 9.73173 2.27778 9.6489 2.07072 9.69031C1.78084 9.77313 1.49094 9.85596 1.20106 9.93878C0.911179 10.0216 0.745552 10.1044 0.704141 10.1458C0.704141 10.1873 0.372837 10.3115 0.331425 10.3529C0.372837 10.3115 3.106 9.56608 0.786944 10.2287C0.372827 10.3529 0.248602 10.4357 0.538484 10.3943C0.662719 10.3943 1.53237 10.1458 1.53237 10.1458C1.53237 10.1458 1.44954 10.1873 1.36672 10.1873C1.24248 10.2287 1.11825 10.2701 0.9526 10.3115C0.662719 10.3943 0.372827 10.5185 0.372827 10.5185C0.662709 10.4357 1.61518 10.1044 1.69801 10.1044C1.78083 10.1458 0.82836 10.3943 0.662714 10.4771C0.57989 10.5185 0.662714 10.5185 0.662714 10.56C0.662714 10.6014 0.455666 10.6428 0.414254 10.6842C0.372842 10.7256 0.579895 10.6842 0.745542 10.6428C0.911189 10.6014 1.11826 10.56 1.11826 10.56C0.994022 10.6014 0.704136 10.6842 0.621312 10.767C0.579901 10.8084 0.662719 10.8084 0.745542 10.767C0.828365 10.767 1.53236 10.5185 1.49095 10.56C1.40812 10.6014 0.82836 10.8498 0.662714 10.9327C0.455655 11.0569 0.828371 10.9327 1.03543 10.8498C1.32531 10.8084 1.15965 10.8498 1.40812 10.767Z" fill="#FBBC04"/>
<path d="M1.53192 9.06954C1.82181 9.02813 2.31873 8.94531 2.11167 8.94531C2.11167 8.94531 2.11168 8.94531 2.07027 8.94531L1.15921 9.06954C1.32486 9.02813 1.44908 9.02813 1.61473 9.02813C1.36626 9.02813 0.745102 9.19378 1.53192 9.06954Z" fill="#FBBC04"/>
<path d="M0.579748 8.94531C0.455513 8.94531 0 8.98672 0 9.02813C0 9.06955 0.579748 8.98672 0.579748 8.94531Z" fill="#FBBC04"/>
<path d="M3.10549 8.73792C3.1469 8.73792 2.7742 8.73792 2.7742 8.73792C2.73279 8.73792 2.93983 8.6965 2.857 8.65509C2.81559 8.65509 2.69136 8.61368 2.52572 8.61368C2.44289 8.61368 2.15303 8.65509 2.15303 8.65509C2.15303 8.65509 2.27725 8.61368 2.40149 8.61368C2.52572 8.61368 2.64996 8.57227 2.60854 8.57227C2.40149 8.57227 1.86312 8.65509 1.61465 8.65509L0.248074 8.82074C0.289486 8.86215 1.24196 8.77932 1.15914 8.77932C1.07631 8.82074 0.0824323 8.86215 0.123844 8.90356C0.910666 8.77933 0.455127 8.90356 0.786421 8.90356C1.11771 8.86215 1.78032 8.73791 1.73891 8.82074C1.6975 8.86215 1.24196 8.90356 1.03491 8.90356C0.745024 8.90356 0.248074 9.0278 0.0410156 9.11062C0.0824273 9.15203 1.20054 8.98638 1.4076 8.98638C1.7803 8.94497 2.64996 8.82073 2.69137 8.86215C2.60855 8.82073 2.69137 8.82074 3.10549 8.73792Z" fill="#FBBC04"/>
<path d="M2.93981 8.48961C2.98122 8.4482 2.89839 8.4482 2.64992 8.4482C2.44287 8.4482 2.02876 8.48961 1.86312 8.48961C1.73888 8.48961 2.81559 8.36538 2.89841 8.32397C2.98123 8.28256 2.85699 8.28255 2.81558 8.28255C2.73276 8.24114 2.69134 8.24114 2.73275 8.19973C2.73275 8.15832 3.02263 8.11691 2.52569 8.11691C2.44287 8.11691 0.95205 8.15832 1.28334 8.11691C1.32476 8.11691 1.73888 8.11691 1.86312 8.11691C2.02876 8.11691 2.1944 8.07549 2.31864 8.07549C2.69134 8.03408 2.69135 7.95126 2.69135 7.90985C2.69135 7.90985 2.73275 7.82703 2.52569 7.82703C2.23581 7.78561 2.31865 7.86844 2.36006 7.86844C2.40147 7.86844 1.7803 7.86844 1.73889 7.86844C1.40759 7.86844 0.993462 7.86844 0.662169 7.86844C0.372287 7.86844 0.620757 7.90985 0.45511 7.90985C0.165229 7.90985 0.0409987 7.90985 0.123822 7.95126C0.248057 7.99267 0.372302 8.03408 0.910654 8.03408C1.0763 8.03408 1.49042 7.99267 1.32477 7.99267C1.11771 7.99267 1.69748 7.99267 1.73889 7.99267C1.82171 7.99267 2.40147 7.99267 2.27723 8.03408C2.23582 8.03408 1.86311 8.03408 1.78029 8.03408C1.53182 8.03408 1.24194 8.07549 1.03488 8.07549C1.03488 8.07549 0.910644 8.11691 0.744997 8.11691C0.57935 8.15832 0.413704 8.15832 0.33088 8.15832C0.289469 8.15832 0.496517 8.11691 0.372282 8.11691C0.248047 8.11691 -0.0418298 8.28255 0.662169 8.19973C0.95205 8.19973 0.82782 8.19973 0.952055 8.24114C1.1177 8.28255 1.07629 8.24114 1.28334 8.24114C1.20052 8.24114 0.620762 8.32396 0.537939 8.36537C0.248057 8.40679 0.372297 8.4482 0.413709 8.48961C0.0824154 8.61385 1.15912 8.4482 1.53183 8.40679C1.61465 8.40679 1.61463 8.40679 1.61463 8.4482C1.61463 8.4482 1.28335 8.48961 1.24194 8.48961C0.910649 8.53102 0.496527 8.57243 0.744997 8.57243C0.993467 8.57243 1.44901 8.57243 1.73889 8.57243C1.7803 8.61384 2.153 8.57243 2.27723 8.57243C2.31865 8.57243 1.40759 8.61385 1.32477 8.61385C1.0763 8.61385 0.579345 8.65526 0.45511 8.69667C0.248052 8.77949 0.745002 8.73808 1.03488 8.69667C1.20053 8.65526 1.36617 8.61385 1.57323 8.61385C1.78029 8.57244 1.69747 8.61385 1.65606 8.61385C1.65606 8.69667 2.8984 8.53102 2.93981 8.48961Z" fill="#FBBC04"/>
<path d="M2.23619 7.66098C2.65031 7.66098 1.61502 7.61957 2.23619 7.66098V7.66098Z" fill="#FBBC04"/>
<path d="M1.98796 7.70236C2.02937 7.66095 2.40207 7.70236 2.5263 7.70236C2.69195 7.70236 2.40206 7.66095 2.23642 7.66095C2.02936 7.66095 0.579955 7.53671 0.869836 7.61954C0.579955 7.61954 0.414308 7.61954 0.45572 7.57812C0.0416031 7.57812 0.538553 7.70236 0.621377 7.70236C0.911258 7.78518 1.36677 7.8266 2.02936 7.78518C3.18888 7.78518 1.90513 7.74377 1.98796 7.70236Z" fill="#FBBC04"/>
<path d="M2.65042 7.16406C2.81607 7.20547 2.85749 7.20547 2.81608 7.16406C2.69184 7.16406 2.60901 7.16406 2.65042 7.16406Z" fill="#FBBC04"/>
<path d="M1.65621 6.50123C1.65621 6.50123 1.6148 6.50123 1.57338 6.45982C1.44915 6.4184 1.40774 6.4184 1.36633 6.4184C1.15927 6.33558 0.952199 6.29417 0.993611 6.33558C0.993611 6.37699 1.73902 6.54264 1.82184 6.58405C1.90467 6.54264 1.78045 6.50123 1.65621 6.50123Z" fill="#FBBC04"/>
<path d="M1.65601 6.50177C1.73883 6.54318 1.36611 6.41895 1.40752 6.41895C1.44893 6.41895 1.53176 6.46036 1.61458 6.46036C1.57317 6.46036 1.61459 6.46036 1.65601 6.50177Z" fill="#FBBC04"/>
<path d="M0.455755 6.17023C0.455755 6.12881 0.621412 6.17023 0.621412 6.12882C0.207295 5.96317 0.455755 6.12881 0.455755 6.17023Z" fill="#FBBC04"/>
<path d="M0.621371 7.53744C0.579959 7.49603 1.32537 7.49603 1.24255 7.49603C1.15972 7.45461 0.952664 7.45462 0.828429 7.4132C0.828429 7.4132 0.662767 7.33038 0.787002 7.37179C0.621356 7.33038 0.455714 7.33038 0.248656 7.33038C0.662772 7.37179 0.911243 7.37179 1.28395 7.37179C1.03548 7.33038 0.290067 7.24756 0.455714 7.20615C0.579949 7.16473 1.20112 7.24756 1.40818 7.28897C1.44959 7.28897 1.61524 7.33038 1.61524 7.28897C1.69806 7.28897 1.57383 7.24756 1.49101 7.24756C1.36677 7.20615 1.07689 7.16473 0.869831 7.12332C0.538537 7.08191 0.165832 7.0405 0.248656 6.99909C0.290067 6.95768 0.994071 7.0405 1.15972 7.0405C1.24254 7.0405 1.03548 6.95768 0.869831 6.95768C0.704184 6.95768 0.497131 6.95767 0.331484 6.91626C-0.124044 6.83344 -0.0412309 6.79203 0.372886 6.87485C0.207239 6.83344 0.000200952 6.79203 0.0830243 6.79203C0.165848 6.79203 0.538553 6.83344 0.704199 6.83344C1.28396 6.91626 1.90513 6.99909 2.4849 7.08191C2.07078 7.0405 1.61525 6.87485 1.24255 6.83344C1.0769 6.79203 0.869831 6.79203 0.662772 6.75062C0.414302 6.70921 0.787018 6.7092 0.828429 6.7092C1.11831 6.75062 1.94654 6.87485 1.78089 6.79203C1.69807 6.75062 0.869826 6.66779 0.787002 6.66779C0.0830041 6.62638 0.372886 6.54356 0.372886 6.54356C0.372886 6.50215 0.0415974 6.41932 0.248656 6.41932C0.331479 6.41932 0.745611 6.50215 0.911258 6.54356C1.11832 6.58497 1.94655 6.75062 1.94655 6.7092C1.94655 6.7092 1.86372 6.7092 1.78089 6.66779C1.69807 6.62638 1.53241 6.62638 1.40818 6.58497C1.28394 6.54356 1.15972 6.54356 1.03549 6.50215C0.952664 6.50215 0.869831 6.46073 0.869831 6.46073C0.869831 6.46073 1.1183 6.50215 0.994061 6.46073C0.911237 6.41932 0.538548 6.37791 0.414313 6.3365C-0.206862 6.17085 0.497121 6.29509 0.787002 6.3365C0.497121 6.25368 -0.0412259 6.12944 0.455714 6.21227C0.911243 6.29509 1.86371 6.50215 2.31924 6.62638L2.02935 6.50215C1.78088 6.41932 1.53243 6.3365 1.24255 6.25368C0.538548 6.08803 1.49101 6.25368 1.49101 6.25368C1.49101 6.25368 0.662778 6.04662 0.952659 6.08803C1.03548 6.08803 0.662772 5.9638 0.662772 5.92238C0.662772 5.88097 1.07689 6.00521 1.07689 6.00521C1.07689 6.04662 -0.206873 5.6325 0.248656 5.67391C0.497126 5.71532 1.32536 6.00521 1.69806 6.08803C1.49101 6.00521 1.32537 5.92238 1.11832 5.83956C0.994081 5.79815 0.704189 5.67391 0.538543 5.59109C0.497131 5.59109 0.579964 5.6325 0.497141 5.6325C0.248671 5.59109 0.331484 5.46685 0.331484 5.46685C0.331484 5.42544 0.248651 5.30121 0.579944 5.46685C1.69806 5.96379 0.207259 5.17697 0.497141 5.21838C0.662788 5.2598 1.32537 5.54968 1.53243 5.6325C1.94655 5.79815 2.56771 6.04662 2.81618 6.21227C3.02324 6.3365 2.8576 6.25368 2.4849 6.08803C2.23643 5.96379 1.94654 5.9638 1.86372 5.92238C2.11219 6.04662 2.52629 6.21227 2.85759 6.3365C2.69194 6.25368 1.20113 5.71533 1.65666 5.92238C2.02937 6.08803 2.5263 6.25368 2.73336 6.37791C2.899 6.46074 3.14748 6.62638 2.60913 6.41932C3.06465 6.58497 2.81619 6.50215 2.56772 6.46073C2.4849 6.41932 1.86372 6.29509 2.27784 6.41932C2.56772 6.50215 2.98184 6.66779 2.77478 6.62638C2.52631 6.58497 2.81617 6.66779 2.85759 6.7092C2.36065 6.62638 2.85759 6.83344 2.85759 6.87485C2.85759 6.87485 2.85759 6.91626 2.65053 6.87485C2.60912 6.87485 2.4849 6.83344 2.36067 6.83344C2.23643 6.83344 2.15361 6.79203 2.15361 6.79203C2.15361 6.79203 2.60913 6.91626 2.69195 6.95768C2.8576 6.99909 2.65054 6.99909 2.4849 6.99909C1.86372 6.91626 2.48488 6.99909 2.65053 7.0405C2.73335 7.08191 2.73336 7.08191 2.73336 7.08191C2.69194 7.08191 2.44348 7.0405 2.40207 7.0405C2.36066 7.0405 2.8576 7.16473 2.81618 7.16473C2.73336 7.16473 2.19502 7.12332 1.94655 7.12332C1.53243 7.12332 2.4849 7.20615 2.69195 7.24756C3.14748 7.28897 2.4849 7.28897 2.77478 7.33038C2.1122 7.24756 2.85759 7.4132 2.65053 7.4132C2.31923 7.37179 2.02936 7.33038 1.78089 7.37179L1.4496 7.4132C1.73949 7.4132 2.11219 7.45462 2.40207 7.45462C2.48489 7.45462 2.77477 7.45462 2.81618 7.45462C2.89901 7.45462 2.81617 7.45462 2.65053 7.45462C2.65053 7.45462 2.77477 7.49603 2.60913 7.49603C2.31924 7.49603 2.27784 7.49603 2.27784 7.49603C2.36066 7.49603 2.56771 7.53744 2.31924 7.53744C2.44347 7.57885 2.31925 7.53744 2.77478 7.57885C2.60914 7.57885 2.65054 7.66167 1.98795 7.57885C1.65666 7.57885 1.44959 7.57885 1.20112 7.53744H0.828429C0.828429 7.53744 0.828429 7.53744 0.621371 7.53744ZM1.69806 7.08191C1.8223 7.08191 1.4496 6.99909 1.24255 6.99909C1.11831 6.99909 1.03548 6.95768 0.952659 6.95768C1.20113 6.99909 1.44959 7.08191 1.69806 7.08191Z" fill="#FBBC04"/>
<path d="M2.11169 5.63199C2.27733 5.71482 2.52582 5.83905 2.56723 5.83905C2.56723 5.79764 1.78039 5.46635 2.11169 5.63199Z" fill="#FBBC04"/>
<path d="M2.73352 6.04576C2.60929 5.96294 2.40224 5.88012 2.278 5.79729C2.02953 5.63165 2.40223 5.83871 2.60929 5.96294C2.73353 6.04576 3.3133 6.25282 2.98201 6.08717C2.73354 5.96294 2.31942 5.75588 2.07095 5.63165C1.44977 5.42459 1.69825 5.42459 1.73966 5.42459C1.61542 5.34176 1.40834 5.25894 1.20129 5.17612C1.15987 5.13471 1.11847 5.13471 1.07706 5.0933C0.911409 5.01047 0.662944 4.84482 0.538709 4.80341C0.331651 4.762 0.621537 4.92765 0.828596 5.01047C0.870007 5.05188 1.57401 5.38318 1.32554 5.30035C1.11848 5.21753 0.787169 5.05188 0.580111 4.96906C0.373052 4.88624 0.497287 5.01047 0.580111 5.05188C0.704346 5.17612 0.621527 5.17612 0.662939 5.25894C0.704351 5.34176 1.574 5.71447 1.90529 5.8387C2.36082 6.00435 3.10623 6.29423 2.73352 6.04576Z" fill="#FBBC04"/>
<path d="M1.03541 5.05195C1.07682 5.09336 1.11823 5.09337 1.15964 5.13478C1.32528 5.2176 0.786937 4.88631 1.03541 5.05195Z" fill="#FBBC04"/>
<path d="M1.49094 4.55482C1.32529 4.43058 0.662702 4.01646 0.86976 4.18211C0.993995 4.26493 1.49094 4.59623 1.49094 4.55482Z" fill="#FBBC04"/>
<path d="M1.82228 4.63791C1.61522 4.43086 0.91122 4.01674 0.994044 4.14098C1.11828 4.2238 2.15357 4.88638 1.82228 4.63791Z" fill="#FBBC04"/>
<path d="M1.82198 4.63854C1.98762 4.76277 1.69774 4.47289 1.82198 4.63854V4.63854Z" fill="#FBBC04"/>
<path d="M2.85734 2.60942C2.65028 2.23672 2.319 1.94683 2.60888 2.36095C2.77453 2.60942 3.02299 2.8993 2.85734 2.60942Z" fill="#FBBC04"/>
<path d="M4.84516 4.18251C4.76234 3.93404 4.51387 3.60275 4.84516 4.18251V4.18251Z" fill="#FBBC04"/>
<path d="M3.0233 6.04631C2.94048 6.0049 2.52637 5.71502 2.9819 5.96349C3.31319 6.12913 3.23036 6.04631 3.23036 6.04631C3.23036 6.0049 3.23035 5.96349 3.0647 5.79784C2.89906 5.63219 3.27176 5.83925 3.27176 5.75643C3.23035 5.71502 2.44355 5.17667 2.9819 5.50796C3.31319 5.71502 3.02331 5.42514 3.10613 5.50796C3.39601 5.71502 3.27176 5.50796 3.27176 5.46654C3.27176 5.42513 3.43742 5.50796 3.43742 5.42513C3.39601 5.42513 3.27177 5.34231 3.14753 5.21808C3.0233 5.13525 3.14753 5.13525 3.14753 5.13525C3.14753 5.09384 2.9819 5.01102 2.9819 4.96961C2.9819 4.92819 3.14753 5.05243 3.27176 5.17666V5.21808C3.60305 5.42513 3.60305 5.42514 3.47882 5.3009C3.396 5.17667 3.68589 5.42513 3.64448 5.38372C3.64448 5.34231 3.31319 5.05243 3.18896 4.88678C3.06472 4.76255 3.47884 5.09384 3.60307 5.17666C3.89296 5.38372 3.47884 4.92819 3.60307 5.01102C3.6859 5.05243 3.68589 5.05243 3.43742 4.80396C3.27177 4.63831 3.52024 4.80396 3.56165 4.80396C3.60306 4.76255 3.47882 4.63831 3.89294 5.05243C4.05858 5.17666 3.7687 4.84537 3.68588 4.76255C3.43741 4.47267 3.31319 4.34843 3.31319 4.30702C3.47883 4.43125 3.23035 4.18278 3.0647 4.01714C2.94047 3.8929 2.19507 3.10608 2.19507 3.06467C2.19507 3.02326 2.85765 3.72726 2.94047 3.85149C3.0233 3.93432 3.47883 4.43125 3.43742 4.43125C3.68589 4.72113 4.14142 5.17667 3.7273 4.67973C3.85154 4.80396 4.01719 4.92819 4.01719 4.92819C3.85154 4.72114 3.89294 4.72114 3.89294 4.67973C3.93435 4.63831 4.1 4.80396 3.97576 4.5969C3.93435 4.51408 3.89294 4.43125 3.76871 4.30702C3.97576 4.55549 4.22424 4.80396 4.26565 4.84537C4.26565 4.84537 3.64447 4.05855 3.56165 3.97573C3.85153 4.30702 4.18282 4.72114 4.18282 4.67973C4.22423 4.67973 4.30706 4.67972 4.05859 4.38984C4.22424 4.55549 4.30707 4.63831 4.34848 4.67973C4.38989 4.72114 4.30707 4.5969 4.14142 4.38984C4.14142 4.38984 4.18283 4.43125 4.26565 4.51408C4.34847 4.5969 4.38988 4.63831 4.38988 4.63831C4.38988 4.63831 4.10001 4.18279 4.01719 4.05855C3.97578 3.97573 3.81012 3.68584 3.76871 3.72726C3.76871 3.76867 3.64448 3.60302 3.64448 3.60302C3.64448 3.56161 3.68589 3.56161 3.85153 3.76867C4.01718 3.93431 4.14142 4.2242 4.26565 4.34843C4.38989 4.51408 4.01718 3.93432 3.97576 3.85149C3.89294 3.68585 4.18284 4.05855 4.22425 4.14137C4.47272 4.43125 4.55554 4.47267 4.22425 3.93431C4.18284 3.85149 4.34846 3.97572 4.51411 4.22419C4.43129 4.09996 4.26565 3.81008 4.26565 3.76867C4.26565 3.72726 4.4313 3.93431 4.47271 4.01714C4.59694 4.14137 4.18282 3.5202 4.09999 3.39596C4.18282 3.56161 4.18283 3.47879 4.34848 3.76867C4.38989 3.85149 4.67978 4.30702 4.63837 4.26561C4.63837 4.2242 4.59695 4.14137 4.55554 4.05855V4.01714C4.59695 4.05855 4.55554 3.97573 4.55554 3.97573C4.4313 3.72726 4.26564 3.39596 4.09999 3.06467C4.01717 2.85761 3.81012 2.60914 3.85153 2.56773C4.01718 2.85761 4.18282 3.14749 4.30705 3.43738C4.43129 3.64443 4.3899 3.5202 4.43131 3.64443C4.51413 3.72726 4.63836 4.05855 4.67977 4.09996C4.67977 4.09996 4.72118 4.14137 4.67977 4.01714C4.59694 3.85149 4.38989 3.56161 4.34848 3.39596C4.26566 3.23031 4.4313 3.43737 4.47271 3.56161C4.72118 3.97573 4.72119 4.05855 4.7626 4.01714C4.80401 3.93431 4.47272 3.31314 4.14142 2.73338C3.97577 2.44349 3.76872 2.07079 3.60307 1.69808C3.23037 0.994085 3.68588 2.02938 3.68588 2.02938C3.68588 2.02938 3.60307 1.90514 3.52025 1.73949C3.43742 1.57385 3.35459 1.44961 3.35459 1.4082C3.35459 1.44961 3.52024 1.78091 3.56165 1.90514C3.60306 2.1122 3.52024 2.07079 3.56165 2.19503C3.56165 2.27785 3.64447 2.52632 3.47882 2.19503C3.396 2.07079 3.18896 1.69808 3.18896 1.65667C3.14755 1.69808 3.06472 1.69808 3.10613 1.86373C3.14754 2.02938 3.52023 2.60914 3.68588 2.85761C3.52023 2.56773 3.60307 2.77479 3.60307 2.8162C3.60307 2.85761 3.35459 2.44349 3.35459 2.44349C3.23035 2.23644 2.692 1.49102 2.94047 1.94655C3.10612 2.23643 3.31317 2.48491 3.47882 2.73338C3.60305 2.94043 3.68588 3.14749 3.56165 3.02326C3.52024 2.98185 3.35459 2.69196 3.35459 2.65055C3.31318 2.65055 3.43742 2.85761 3.31319 2.69196C3.23036 2.56773 3.14754 2.48491 3.0233 2.31926C3.18895 2.56773 4.14142 3.97573 3.85153 3.68584C3.76871 3.60302 2.77484 2.02938 2.77484 2.1122C2.81625 2.23644 3.27177 2.89902 3.35459 3.06467C3.31318 2.98185 2.89906 2.4435 2.85764 2.40208C2.65059 2.19503 3.27178 2.94043 3.18896 2.85761C3.27178 2.98185 3.23035 2.98185 3.27176 3.06467C3.43741 3.27173 3.35459 3.23032 3.35459 3.23032C3.23035 3.10608 2.73342 2.44349 2.89907 2.56773C2.73342 2.31926 2.36072 1.90514 2.56778 2.23644C2.69202 2.44349 3.18894 3.10608 3.27176 3.23032C3.27176 3.23032 3.14754 3.06467 3.0233 2.85761C2.89907 2.65055 2.73341 2.48491 2.73341 2.48491C2.65059 2.48491 3.14753 3.14749 3.35459 3.39596C3.35459 3.43737 3.14754 3.14749 3.10613 3.14749C3.06472 3.14749 3.06472 3.14749 2.9819 3.10608C2.89908 3.02326 2.77483 2.94043 2.60918 2.77479C2.48495 2.65055 2.36072 2.48491 2.36072 2.52632C2.36072 2.56773 2.44355 2.69197 2.36072 2.60914C2.2779 2.52632 2.23648 2.48491 2.2779 2.52632C2.2779 2.56773 2.3607 2.73338 2.44353 2.85761C2.48494 2.94043 2.69202 3.23032 2.56778 3.14749C2.52637 3.10608 2.2779 2.77479 2.2779 2.77479C2.31931 2.8162 2.73343 3.39596 2.77484 3.39596C2.60919 3.27173 2.89907 3.60302 2.81624 3.56161C2.6506 3.43737 2.36072 3.06467 2.15367 2.85761C2.2779 3.02326 2.31929 3.06467 2.44353 3.1889C2.27788 2.94043 2.02942 2.85761 1.98801 2.85761C1.90519 2.85761 1.65672 2.69196 2.07084 3.06467C2.52637 3.5202 2.19507 3.27173 2.60918 3.68584C2.6506 3.76867 2.89908 4.01714 2.77484 3.93431C2.65061 3.85149 2.56778 3.72726 2.48495 3.64443C2.2779 3.47879 2.6506 3.8929 2.40213 3.64443C2.19507 3.47879 2.07082 3.31314 2.02941 3.27173C1.988 3.27173 1.73955 3.02326 1.73955 3.06467C1.82237 3.1889 1.86377 3.27173 1.69812 3.14749C1.86377 3.31314 2.56778 4.01714 2.69201 4.05855C2.85766 4.14137 3.43741 4.72114 3.14753 4.47267C2.56777 3.97573 3.43741 4.76255 3.35459 4.76255C3.31318 4.76255 3.14755 4.5969 2.9819 4.47267C2.73343 4.26561 2.94048 4.34843 2.81624 4.22419C2.81624 4.22419 2.56778 4.01714 2.36072 3.81008C2.23649 3.72725 2.15366 3.60302 2.07084 3.56161C1.98801 3.47879 1.94661 3.43738 1.94661 3.43738C1.94661 3.43738 2.52636 4.01714 2.3193 3.85149C2.19506 3.76867 2.11224 3.68584 1.98801 3.60302C2.19507 3.76867 2.19507 3.8929 2.07084 3.76867C1.90519 3.60302 1.61531 3.35455 1.53249 3.31314C1.78096 3.5202 1.57389 3.39596 1.69812 3.5202C1.78095 3.60302 1.98801 3.76867 2.07084 3.81008C2.07084 3.81008 2.11225 3.81008 2.15367 3.85149C2.36072 4.01714 2.85766 4.51408 2.9819 4.67973C2.81625 4.51408 2.52637 4.30702 2.36072 4.18278C2.36072 4.2242 2.07082 3.97573 2.02941 3.97573C1.988 3.97573 3.0233 4.84537 2.94047 4.84537C2.94047 4.76255 2.07082 4.09996 1.82235 3.8929C1.44965 3.60302 1.69814 3.85149 1.94661 4.01714C1.69814 3.85149 0.911296 3.18891 1.40824 3.64443C2.23647 4.34843 1.2426 3.56161 1.44966 3.76867C1.69813 4.05855 2.02941 4.2242 2.02941 4.18278C2.02941 4.14137 2.69201 4.67972 2.81624 4.80396C2.60918 4.67972 2.40213 4.55549 2.19507 4.38984C1.98801 4.2242 1.78095 4.09996 1.57389 3.93431C1.40825 3.85149 1.28401 3.76867 1.15978 3.68584L1.78095 4.14137C1.78095 4.14137 1.28402 3.81008 1.2426 3.76867C1.03555 3.64443 1.28401 3.85149 1.36683 3.93431C1.28401 3.85149 0.99412 3.81008 0.99412 3.81008C1.36682 4.09996 1.86376 4.38984 2.23647 4.67973C2.3607 4.76255 2.3193 4.80396 2.3193 4.80396C2.27789 4.80396 2.11223 4.67972 2.02941 4.63831C1.73953 4.47266 2.3607 4.92819 2.44353 4.96961C2.48494 5.01102 2.52637 5.09384 2.48495 5.05243C2.40213 5.01102 2.15365 4.80396 1.90518 4.5969C1.78095 4.51408 1.11836 4.09996 1.07695 4.09996C1.15977 4.18278 2.02943 4.76255 2.15367 4.84537C2.31931 4.9696 2.15367 4.88678 1.94661 4.76255C1.69814 4.5969 0.994125 4.18279 1.07695 4.26561C1.11836 4.30702 1.2426 4.43125 1.15978 4.38984C1.11836 4.38984 0.952728 4.26561 0.911316 4.26561C0.787081 4.2242 1.49107 4.67972 1.57389 4.76255C1.6153 4.80396 1.2426 4.63831 1.15978 4.63831C1.15978 4.63831 0.74565 4.47267 1.20118 4.72114C1.49106 4.88678 1.86378 5.09384 1.86378 5.13525C1.49107 4.92819 0.538606 4.38984 0.828488 4.63831C0.828488 4.72113 2.02941 5.25949 2.23647 5.42513C2.27788 5.46655 1.11836 4.88678 1.07695 4.84537C1.11836 4.92819 2.15366 5.42513 2.40213 5.54937C2.60918 5.83925 3.35459 6.25337 3.0233 6.04631Z" fill="#FBBC04"/>
<path d="M4.88675 1.36718C4.84533 1.24294 4.7211 0.787412 4.67969 0.828823C4.67969 0.828823 4.88675 1.40859 4.88675 1.36718Z" fill="#FBBC04"/>
<path d="M5.92211 3.51973C5.96352 3.72679 5.8807 3.31268 5.92211 3.51973V3.51973Z" fill="#FBBC04"/>
<path d="M4.01671 1.94639C4.01671 1.9878 4.34799 2.73321 4.3894 2.73321C4.3894 2.73321 4.3894 2.52616 4.51363 2.89886C4.55504 3.0231 4.47223 2.89886 4.55506 3.06451C4.7207 3.3958 4.92775 3.80992 5.01058 3.93415C5.13481 4.0998 5.17623 4.05839 5.0934 3.85133C5.05199 3.76851 4.72069 2.98169 4.92775 3.31298C5.01057 3.43721 5.09341 3.7271 5.17623 3.85133C5.25906 4.01698 5.25906 3.93415 5.25906 3.89274C5.25906 3.85133 5.17622 3.60286 5.13481 3.47863C5.09339 3.35439 5.17622 3.47862 5.21763 3.56145C5.25905 3.64427 5.50752 3.93415 5.30046 3.3958C5.25905 3.31298 5.01057 2.65039 5.13481 2.85745C5.21763 3.06451 5.30047 3.31298 5.38329 3.52004C5.34188 3.3958 5.21763 2.98169 5.42469 3.47863C5.50752 3.7271 5.38329 3.31298 5.38329 3.27157C5.4247 3.23016 5.54894 3.60286 5.59035 3.64427C5.63176 3.68568 5.4661 3.27157 5.54892 3.35439C5.63175 3.52004 5.71457 3.7271 5.75598 3.68568L5.67318 3.35439C5.67318 3.31298 5.756 3.47863 5.79741 3.43721C5.79741 3.3958 5.92163 3.64427 5.83881 3.35439C5.83881 3.31298 5.79741 3.23016 5.79741 3.10592C5.79741 3.06451 5.79739 3.18874 5.75598 3.10592C5.71457 2.94027 5.63175 2.77463 5.54892 2.56757C5.42469 2.27769 5.30047 1.86357 5.17623 1.49086C5.09341 1.24239 5.01059 1.03534 4.96917 0.911101C4.92776 0.786866 5.05199 1.32522 5.0934 1.40804C5.17623 1.78075 4.96917 1.15957 4.96917 1.28381C4.96917 1.32522 5.01059 1.53228 5.052 1.57369C4.96918 1.44945 4.88636 1.11816 4.84494 1.11816C4.84494 1.11816 5.13482 2.23627 5.17623 2.36051C5.25906 2.81604 5.01058 1.94639 5.01058 1.94639C5.01058 1.94639 5.052 2.02922 5.052 2.15345C5.09341 2.23627 5.0934 2.36051 5.0934 2.40192C5.0934 2.44333 5.01059 2.27769 4.96917 2.15345C4.88635 1.90498 4.76211 1.65651 4.67929 1.40804C4.67929 1.49087 4.88635 2.19486 4.88635 2.15345C4.7207 1.86357 4.59647 1.24239 4.55506 1.11816C4.47223 0.911101 4.63787 1.78075 4.3894 1.15957L4.72069 1.94639C4.67928 1.9878 4.47222 1.32522 4.51363 1.57369C4.51363 1.69792 4.55505 1.73934 4.67929 2.07063C4.7207 2.15345 4.63789 2.11204 4.63789 2.15345C4.6793 2.07063 4.34799 1.32522 4.47223 1.73933C4.51364 1.86357 4.34798 1.53228 4.30657 1.49086C4.22375 1.44945 4.30658 1.65651 4.26517 1.69792C4.26517 1.69792 3.93387 1.15957 4.09951 1.6151C4.18234 1.78075 4.34799 2.15345 4.3894 2.23628C4.43081 2.3191 4.26518 2.11204 4.348 2.27769C4.38941 2.3191 4.43082 2.40192 4.47223 2.52616C4.51364 2.60898 4.09953 1.90498 4.01671 1.78075C4.05812 1.73934 4.30658 2.15345 3.97528 1.53228C3.97528 1.49086 3.80965 1.44945 3.80965 1.44945C3.80965 1.49087 3.80963 1.57369 3.6854 1.32522C3.6854 1.36663 3.64399 1.32522 3.6854 1.44945C3.85104 1.82216 4.01671 1.9878 4.01671 1.94639Z" fill="#FBBC04"/>
<path d="M6.75 1.07715C6.79141 1.28421 6.79141 1.07715 6.75 1.07715V1.07715Z" fill="#FBBC04"/>
<path d="M5.25911 1.24276C5.30053 1.24276 5.50758 1.69829 5.46617 1.78112C5.34194 1.44982 5.67321 2.775 5.54898 2.40229C5.46615 2.19523 5.38333 1.86394 5.34192 1.90535C5.34192 1.90535 5.30051 1.94676 5.34192 2.071C5.50756 2.65076 5.5904 2.60935 5.71463 2.89923C5.79746 3.10629 5.92168 3.64464 5.96309 3.64464C6.0045 3.64464 6.00452 3.60323 6.00452 3.56182C6.00452 3.5204 5.9631 3.18911 6.04592 3.39617C6.08733 3.5204 6.12874 3.56182 6.04592 3.31335C6.04592 3.31335 6.08735 3.23052 6.08735 3.35476C6.08735 3.31335 6.00452 2.94064 6.00452 2.94064C6.04593 3.02346 6.12874 3.47899 6.17015 3.56182C6.17015 3.60323 6.17015 3.35476 6.17015 3.31335C6.17015 3.1477 6.04592 2.65076 6.04592 2.81641C5.9631 2.40229 6.08733 2.81641 6.04592 2.60935C6.04592 2.56794 6.0045 2.40229 5.96309 2.23664C5.92168 2.071 5.88029 1.94676 5.88029 1.94676C5.9217 1.90535 6.08734 2.73358 6.12875 2.94064C6.17016 3.1477 6.25299 3.31335 6.29441 3.39617C6.33582 3.47899 6.46004 3.68605 6.46004 3.68605C6.46004 3.64464 6.33582 3.10629 6.29441 2.98205C6.33582 2.94064 6.41863 3.47899 6.46004 3.52041C6.50145 3.56182 6.46004 3.31335 6.46004 3.10629C6.46004 2.89923 6.46005 2.94064 6.50146 3.23053C6.54288 3.479 6.58427 3.39617 6.58427 3.39617C6.58427 3.39617 6.62569 3.43758 6.62569 3.23053C6.62569 3.1477 6.54286 2.69217 6.58427 2.89923C6.7085 3.47899 6.7085 3.43758 6.58427 2.69217C6.62568 2.65076 6.66711 3.1477 6.70852 3.27194C6.70852 3.27194 6.79133 3.56182 6.79133 3.47899C6.79133 3.43758 6.62569 2.48511 6.74992 2.85782C6.79134 3.02347 6.83274 3.39617 6.87415 3.35476C6.91557 3.31335 6.83275 2.94064 6.83275 2.73358C6.83275 2.69217 6.79133 2.11241 6.79133 2.071C6.74991 2.02959 6.66711 1.90535 6.62569 1.49123C6.58428 1.20135 6.70851 1.49123 6.6671 1.11853C6.70851 1.11853 6.62568 0.663 6.58427 0.41453C6.58427 0.580177 6.62569 0.745823 6.62569 0.870058C6.62569 0.621588 6.50146 0.331707 6.50146 0.373119C6.46005 0.455942 6.46004 0.745824 6.46004 1.03571C6.46004 1.28418 6.54286 1.86394 6.46004 1.53264C6.37721 1.11853 6.37722 1.32559 6.41864 1.65688C6.37722 1.44982 6.29441 1.20135 6.29441 1.20135C6.33582 1.20135 6.3358 0.828648 6.25298 0.787236C6.21157 0.787236 6.17016 0.621588 6.12875 0.663C6.08734 0.704411 6.33581 1.98817 6.21158 1.65688C6.12875 1.367 6.00451 0.248884 5.92169 0.621589C5.92169 0.745824 6.00451 1.07712 6.04592 1.367C6.08733 1.65688 6.08734 1.69829 6.12875 1.98817C6.08734 2.02959 6.0045 1.367 5.96309 1.24276C5.92168 0.994294 5.88027 0.745825 5.83886 0.538766C5.79745 0.37312 5.79745 0.580176 5.83886 0.704411C5.88027 1.0357 6.04593 1.49123 6.00452 1.69829C6.00452 1.78111 5.9631 1.65688 5.92169 1.53264C5.9631 1.53264 5.83887 0.91147 5.79746 0.828647C5.79746 0.828647 5.79745 1.0357 5.75603 0.870058C5.71462 0.663 5.71464 0.745824 5.67323 0.787236C5.63182 0.828648 5.5904 0.538766 5.5904 0.538766C5.54899 0.538766 5.46616 0.994295 5.50757 1.15994C5.46616 1.07712 5.46616 0.91147 5.42475 0.828647C5.38333 0.704412 5.34192 0.787236 5.34192 0.787236C5.30051 0.828648 5.2177 0.621587 5.17629 0.704411C5.17629 0.745822 5.30051 1.367 5.21769 1.15994C5.17628 1.03571 5.01063 0.663001 5.09346 0.994294C4.96922 0.663001 4.96922 0.952882 4.8864 0.828647C4.76216 0.621589 5.01062 1.57406 5.13486 1.78112C5.25909 1.57406 5.25911 1.20135 5.25911 1.24276Z" fill="#FBBC04"/>
<path d="M6.66699 0.207031C6.66699 0.248443 6.66701 0.289855 6.70842 0.372679C6.66701 0.331267 6.66699 0.248443 6.66699 0.207031Z" fill="#FBBC04"/>
<path d="M7.2465 1.16005C7.2465 0.994407 7.20508 0.911583 7.20508 0.994406C7.20508 1.16005 7.20509 1.16005 7.2465 1.16005Z" fill="#FBBC04"/>
<path d="M7.41305 0.827822C7.37164 -0.000411146 7.33023 0.869234 7.41305 0.827822V0.827822Z" fill="#FBBC04"/>
<path d="M7.03955 3.39556C7.08096 3.43697 7.08097 3.47838 7.12238 3.35415C7.12238 3.31274 7.12237 2.98145 7.16378 3.27133C7.16378 3.10568 7.20518 2.98145 7.20518 3.06427C7.20518 3.14709 7.20518 3.27133 7.20518 3.22992C7.24659 3.39556 7.28802 3.31274 7.32944 3.31274C7.37085 3.31274 7.45365 3.39556 7.41224 2.89862C7.41224 2.8158 7.45367 3.10568 7.45367 3.22992C7.45367 2.73298 7.5779 3.39556 7.5779 3.31274C7.61931 3.27133 7.5779 2.1118 7.5779 1.65627C7.5779 1.65627 7.5779 1.61486 7.5779 1.53204C7.5779 1.32498 7.5779 0.993687 7.5779 0.745217C7.53648 0.745217 7.57791 1.11792 7.53649 1.24216C7.49508 1.44921 7.49507 0.952274 7.49507 0.828039C7.49507 0.703804 7.45367 1.28357 7.45367 1.32498C7.45367 1.49062 7.41224 1.32498 7.41224 1.4078C7.41224 1.4078 7.41224 1.65627 7.41224 1.86333C7.41224 2.07039 7.41224 2.23604 7.41224 2.07039C7.41224 1.94615 7.32943 1.15933 7.37084 1.11792C7.37084 0.413921 7.32943 0.124042 7.24661 0.3311C7.24661 0.372512 7.08097 0.496745 7.12238 0.662392C7.16379 0.993685 7.2052 0.828039 7.24661 0.828039C7.28802 0.910862 7.32944 1.07651 7.32944 1.4078C7.32944 1.57345 7.41224 1.82192 7.41224 2.07039C7.41224 2.15321 7.32944 1.86333 7.32944 1.86333C7.28802 1.78051 7.28801 1.94615 7.28801 1.90474C7.2466 1.86333 7.24659 1.49063 7.20518 1.44921C7.16377 1.44921 7.20519 1.57345 7.16378 1.49062C7.12237 1.4078 6.99812 0.62098 6.99812 0.662392C6.99812 0.662392 7.03955 1.07651 7.03955 1.11792C7.03955 1.36639 7.03955 1.32498 7.03955 1.57345C7.03955 1.7391 7.08095 2.27745 7.08095 2.36027C7.08095 2.4845 6.99812 2.02898 6.99812 2.07039C6.99812 2.1118 7.08095 2.65015 7.08095 2.77439C7.08095 2.94003 7.08097 3.10568 7.12238 3.27133C7.08097 2.94003 7.03953 2.52592 6.99812 2.27745C6.99812 2.27745 6.95672 2.19462 6.95672 2.07039C6.91531 1.94615 6.91532 1.82192 6.91532 1.78051C6.91532 1.7391 6.95672 1.90474 6.95672 1.78051C6.95672 1.65627 6.95672 1.49062 6.95672 1.28357C6.95672 1.20074 6.87389 0.289688 6.87389 0.3311C6.87389 0.3311 6.91532 1.11792 6.91532 1.24216C6.87391 1.11792 6.74966 0.413922 6.74966 0.413922C6.70825 0.413922 6.83249 1.20074 6.83249 1.28357C6.83249 1.28357 6.87389 1.78051 6.87389 1.86333C6.87389 2.1118 6.99814 3.31274 7.03955 3.39556Z" fill="#FBBC04"/>
<path d="M7.57812 1.53257C7.57812 1.57398 7.57812 1.6154 7.57812 1.65681C7.57812 1.65681 7.61954 1.36692 7.57812 1.53257Z" fill="#FBBC04"/>
<path d="M7.61969 2.31923C7.6611 2.44346 7.66112 2.52629 7.66112 3.06464C7.66112 3.39593 7.70253 3.2717 7.74394 3.23029C7.78536 3.14746 7.90959 3.18887 7.86817 2.31923C7.90959 2.27782 7.86816 2.73334 7.90958 2.89899C7.95099 2.85758 7.951 2.11217 7.951 1.8637C7.951 1.49099 7.86816 1.24252 7.90958 1.82229C7.90958 1.61523 7.82676 0.165821 7.78535 0.414291C7.78535 0.994054 7.82677 2.19499 7.74394 2.2364C7.74394 2.07076 7.74394 1.90511 7.74394 1.73946C7.74394 1.40817 7.74394 1.03547 7.74394 0.66276C7.74394 0.082997 7.70253 1.36676 7.74394 1.69805C7.70253 1.49099 7.66112 1.03547 7.66112 1.36676C7.66112 1.61523 7.66112 1.8637 7.66112 2.07076C7.6197 2.07076 7.57828 2.27782 7.61969 2.31923Z" fill="#FBBC04"/>
<path d="M8.03359 0.496885C7.99218 0.165591 7.99219 0.414061 7.99219 0.703943H8.03359C8.03359 0.62112 8.03359 0.538296 8.03359 0.496885Z" fill="#FBBC04"/>
<path d="M7.20546 12.9202C7.24688 12.6303 7.20547 12.7131 7.16406 12.9616L7.20546 12.9202Z" fill="#FBBC04"/>
<path d="M7.24633 12.9209C7.24633 12.9623 7.24633 12.9623 7.24633 12.9623C7.20492 13.0037 7.28774 12.7552 7.24633 12.9209Z" fill="#FBBC04"/>
<path d="M7.20546 12.9614C7.20546 12.9614 7.20546 12.9614 7.20546 12.92C7.3297 12.5473 7.2883 12.2988 7.16406 13.0442C7.20547 13.0856 7.20546 13.0442 7.20546 12.9614Z" fill="#FBBC04"/>
<path d="M10.8497 13.7073C10.3941 12.7548 10.8083 13.7901 10.8497 13.7073V13.7073Z" fill="#FBBC04"/>
<path d="M11.3883 12.7969C11.3883 12.7969 11.3883 12.7969 11.3883 12.7555C11.3055 12.6727 11.2227 12.5898 11.2227 12.5898C11.2227 12.5898 11.3883 12.7969 11.3883 12.7969Z" fill="#FBBC04"/>
<path d="M6.66699 15.3226C6.66699 15.5296 6.70841 15.4468 6.74982 15.2397C6.79123 15.1155 6.74982 15.2812 6.74982 15.364C6.74982 15.3226 6.95689 14.4115 6.91548 14.66C6.87407 14.9499 6.83264 15.3226 6.74982 15.6539C6.70841 15.9023 6.70841 16.275 6.74982 16.0266C6.79123 15.7367 6.79124 15.6125 6.83265 15.2397C6.87406 15.1983 6.79124 15.8195 6.83265 15.7781C6.87406 15.7781 6.87407 15.571 6.91548 15.364C6.95689 15.364 6.87407 15.9023 6.91548 15.9023C6.95689 15.9437 6.95688 15.8609 6.95688 16.0266C6.95688 16.275 7.0397 15.9023 7.08111 15.6539C7.12252 15.364 7.12253 15.2812 7.16394 15.2812C7.12253 15.5296 7.08111 15.7781 7.08111 16.0266C7.0397 16.3579 7.16394 15.9437 7.16394 15.8609C7.20535 15.7781 7.24677 15.8609 7.24677 15.8195L7.32959 15.5296C7.32959 15.571 7.28816 16.8548 7.4124 15.9437C7.45381 15.6539 7.45382 15.8609 7.45382 15.9023C7.45382 16.1094 7.49524 15.9852 7.53665 15.8609C7.61948 15.571 7.57804 15.8609 7.61946 16.1508C7.66087 16.4407 7.7023 15.6539 7.74371 15.3226C7.74371 15.4882 7.74371 15.5296 7.74371 15.7781C7.74371 15.9023 7.74371 15.9852 7.74371 16.0266C7.78512 16.2336 7.86795 16.1094 7.95077 16.1508C7.99218 16.1922 8.07499 16.3579 8.1164 16.275C8.15781 16.1922 8.1164 15.6539 8.1164 15.4882C8.1164 15.6539 8.15783 15.6124 8.15783 15.7367C8.15783 15.8195 8.15783 15.9437 8.15783 16.068C8.15783 16.1922 8.19923 16.1094 8.19923 16.1094C8.15782 16.1094 8.24063 15.9437 8.24063 15.9437C8.28204 15.9023 8.32347 16.068 8.36489 16.0266C8.4063 15.9852 8.36487 15.364 8.44769 15.5296C8.4891 15.6953 8.61334 16.3164 8.65475 16.1094C8.69616 16.0266 8.65475 15.3226 8.73758 15.9852C8.73758 15.9023 8.73758 15.8195 8.73758 15.6953C8.8204 16.6892 8.98604 16.275 9.06886 16.1922C9.11028 16.1922 9.27593 16.1922 9.23452 15.8609C9.27593 15.8195 9.27594 15.9437 9.31735 15.9437C9.35876 15.9852 9.40017 15.9437 9.44158 15.9023C9.5244 15.8609 9.60723 16.0266 9.64864 15.9437C9.64864 15.9437 9.73145 15.9437 9.69004 15.6953C9.64863 15.5296 9.64864 15.4054 9.64864 15.4054C9.69005 15.4054 9.73146 15.4468 9.77287 15.6539C9.81428 15.6953 9.81428 15.571 9.8557 15.6539C9.8557 15.6953 10.0213 16.1094 9.93852 15.7367C9.89711 15.5296 9.85569 15.3226 9.8971 15.3226C9.93851 15.4054 10.0214 15.8195 10.0214 15.8195C10.0628 15.9852 10.0628 15.4468 10.0628 15.4054C10.0628 15.3226 10.1456 15.4882 10.187 15.5296C10.2284 15.571 10.394 15.8609 10.2698 15.4468C10.2284 15.1983 10.187 15.0327 10.1042 14.7842C10.187 14.9499 10.3112 15.2812 10.3526 15.4054C10.4769 15.6539 10.187 14.7842 10.1456 14.7014C10.187 14.66 10.4354 15.5296 10.5183 15.6953C10.6425 15.9437 10.5597 15.5296 10.5597 15.4882C10.6011 15.4468 10.7254 15.6124 10.6425 15.4054L10.6839 15.3226C10.6839 15.2812 10.6839 15.2397 10.6425 15.1155C10.6425 15.0741 10.4769 14.66 10.4769 14.66C10.4769 14.66 10.8496 15.6539 10.9324 15.7367C11.0566 15.8609 11.0566 15.6539 11.098 15.6124C11.1395 15.571 11.3879 15.7781 11.1809 15.1983C11.3879 15.571 11.3879 15.2812 11.4293 15.2812C11.4293 15.2812 11.6364 15.5296 11.5536 15.364C11.4707 15.1569 11.3051 14.9085 11.2637 14.7842C11.0566 14.2873 11.7192 15.364 11.6778 15.2812C11.6778 15.2812 11.5122 14.9913 11.3879 14.7014C11.2637 14.4115 11.1395 14.163 11.1809 14.2459C11.2637 14.3701 11.9263 15.6539 11.802 15.2397C11.7192 14.9913 11.8849 15.1569 11.7606 14.8256C11.7192 14.7014 11.6364 14.4115 11.7606 14.5357C11.9677 14.867 12.2162 15.1155 11.9677 14.7014C12.506 15.6125 12.4232 15.0327 11.8849 14.2873C12.0091 14.4943 12.1747 14.7014 12.3404 14.9085C12.506 15.1569 12.5061 15.0327 12.5061 14.9913C12.5475 14.9499 12.7131 15.0327 12.4646 14.7014C12.6303 14.867 12.6717 14.867 12.7131 14.8256C12.7545 14.7428 12.6303 14.6186 12.3404 14.2045C12.3404 14.163 12.7545 14.66 12.8373 14.7428C12.7131 14.5772 12.5889 14.4115 12.6303 14.3701C13.0858 14.9913 13.0444 14.7428 13.0858 14.66C13.1272 14.6186 12.5889 13.9146 12.4646 13.7075C12.299 13.5005 12.0919 13.252 11.9263 13.0449C11.802 12.8793 11.9677 13.0863 12.0505 13.1277C12.299 13.3762 12.5061 13.7075 12.7131 13.956C12.6717 13.9146 13.0858 14.4529 13.0858 14.4115C13.0858 14.3701 13.0444 14.2873 13.0444 14.2873C13.0858 14.3701 13.1272 14.4115 13.1686 14.4115C13.21 14.4115 13.2101 14.4115 13.1272 14.2873C13.0444 14.2045 12.2162 13.252 12.2576 13.2934C12.3818 13.3762 13.0858 14.1216 12.5889 13.5005C12.3818 13.3348 12.0919 12.9621 11.8849 12.755C11.7192 12.5894 12.2162 13.252 11.9677 13.0035C11.802 12.8379 11.6778 12.6308 11.5122 12.4652C11.3465 12.2581 11.5122 12.5066 11.5122 12.548C11.5122 12.5894 11.9263 13.1278 12.1333 13.3762C12.2576 13.5419 12.4232 13.7903 12.4646 13.8317C12.4646 13.8732 12.4646 13.956 12.3818 13.8317C12.299 13.7075 12.1747 13.5005 12.1333 13.3762C12.0091 13.1692 11.8849 13.0449 11.6778 12.7965C11.9677 13.1692 11.8434 13.0449 11.9677 13.2934C11.9677 13.3348 11.8849 13.2106 11.7606 13.0863C11.6778 13.0035 11.6778 13.0863 11.6778 13.0863C11.6778 13.0863 11.5536 12.9207 11.4293 12.7965C11.2637 12.6308 11.2637 12.6722 11.2223 12.6308C11.1809 12.6308 10.9738 12.4238 11.1394 12.6722C11.4293 13.0863 11.5122 13.2106 11.4293 13.1692C11.3465 13.1278 11.0152 12.6308 11.2223 12.9621C11.4293 13.3348 10.9738 12.7136 11.1394 12.9621C11.1809 13.0449 11.3465 13.3348 11.5122 13.5833C11.595 13.7075 11.6778 13.8318 11.7192 13.9146C11.7606 13.9974 11.802 14.0802 11.802 14.0802C11.7606 14.0802 11.4293 13.5419 11.3051 13.3762C11.1395 13.1692 11.1395 13.2106 10.9738 12.9207C10.9738 12.9207 10.891 12.755 10.8496 12.755C10.8496 12.755 10.9324 12.9207 10.9324 12.9621C11.0566 13.1692 11.0152 13.1692 11.0152 13.1692C11.0152 13.1692 11.3879 13.6661 11.2637 13.6247C11.1395 13.5419 10.8082 12.8793 10.7253 12.755C10.5597 12.548 10.7667 12.9621 10.9324 13.252C11.098 13.5419 11.0566 13.459 11.0152 13.5005C11.0152 13.5005 10.891 13.3762 10.9738 13.5419C11.0981 13.7903 11.2223 13.956 11.0566 13.7903C10.8496 13.459 10.891 13.4176 10.6839 13.0449C10.6839 13.1692 10.4769 12.7136 10.6011 13.0449C10.6839 13.2106 10.5183 13.0449 10.7668 13.5005C10.6425 13.252 10.6011 13.2106 10.6839 13.3762C10.7668 13.5833 10.891 13.7903 10.9738 13.9974C11.1395 14.4115 10.8082 13.7903 10.7668 13.6247C10.6839 13.459 10.3526 12.8379 10.394 12.9621C10.4355 13.0449 10.5183 13.3762 10.2698 12.8793C10.4355 13.2106 10.891 14.2459 10.6425 13.8732C10.5183 13.6661 10.187 12.8379 10.2698 13.1692C10.2698 13.2106 10.4355 13.7075 10.394 13.5833C10.3112 13.459 10.2284 13.1692 10.1456 13.0449C10.1042 12.9207 10.187 13.2106 10.187 13.2106C10.187 13.252 10.3526 13.5833 10.3526 13.7075C10.3941 13.9146 10.3112 13.7903 10.394 14.0802C10.394 14.1216 10.5597 14.6186 10.394 14.2459C10.2698 14.0388 10.187 13.9146 10.187 13.956C10.1456 13.9974 10.2284 14.2045 10.2284 14.2873C10.2284 14.4115 9.93852 13.3762 9.8557 13.1692C9.77287 13.0035 9.97994 13.6247 10.0214 13.7075C10.0628 13.8318 10.1042 13.9974 10.0214 13.8317C10.0628 13.9146 10.2698 14.5357 10.2698 14.5357C10.2284 14.4943 9.89712 13.459 9.81429 13.1692C9.77288 13.2106 9.97994 13.7489 9.93852 13.7903C9.73147 13.1278 9.85569 13.6661 9.77287 13.5419C9.73146 13.4176 9.64864 13.1692 9.64864 13.1277C9.60723 13.1277 9.64864 13.2106 9.64864 13.252C9.64864 13.3762 9.56581 13.2106 9.56581 13.2106L9.48298 13.2934C9.52439 13.459 9.64864 13.8317 9.64864 13.9974C9.64864 14.2045 9.52439 13.6661 9.48298 13.5419C9.40016 13.252 9.31734 13.0863 9.35875 13.252C9.35875 13.4176 9.483 13.6661 9.52441 13.7903C9.56582 13.956 9.5244 14.2459 9.44158 13.8317C9.27593 13.0449 9.48298 14.4943 9.48298 14.4943C9.44157 14.3287 9.35876 13.8317 9.31735 13.8317C9.31735 13.8317 9.27593 14.1216 9.23452 13.7903C9.19311 13.7489 9.23452 14.1216 9.15169 13.8732C9.11028 13.7489 9.02745 13.3762 9.06886 13.5419C9.11028 13.8317 9.27594 14.3701 9.31735 14.4115L9.35875 14.7428C9.35875 14.7842 9.27593 14.4115 9.23452 14.2873C9.19311 14.0388 9.11028 13.7903 9.06886 13.5419C9.06886 13.6661 9.06888 13.8317 9.11029 13.956C9.1517 14.4943 9.11028 14.1216 9.06886 13.8732C8.94463 13.252 8.98604 14.3701 8.86181 13.6247C8.86181 13.5419 8.90322 14.2873 8.86181 13.9974C8.86181 13.956 8.73759 13.1692 8.779 13.459C8.779 13.6247 8.86182 14.0802 8.8204 14.1216C8.8204 14.1216 8.73758 13.8317 8.73758 13.7903C8.73758 13.7903 8.82041 14.0802 8.779 13.7903C8.73759 13.5833 8.69617 13.5005 8.69617 13.5005C8.69617 13.5005 8.65475 13.459 8.65475 13.6661C8.69616 13.9146 8.73758 14.2873 8.73758 14.2873C8.73758 14.4115 8.779 14.66 8.779 14.7842C8.779 14.9499 8.73759 14.66 8.69617 14.5357C8.65476 14.2873 8.61336 13.9146 8.57194 13.5005C8.57194 13.6661 8.61336 13.8732 8.57194 13.8732C8.57194 13.8732 8.53052 13.5005 8.53052 13.4176C8.48911 13.1692 8.4891 13.459 8.44769 13.5833C8.40628 13.7489 8.40629 13.8318 8.40629 14.1216C8.40629 14.2045 8.4063 14.6186 8.36489 14.4529C8.36489 14.4115 8.36489 14.163 8.36489 13.9146C8.36489 13.6661 8.36489 13.459 8.36489 13.459C8.36489 13.5005 8.36487 14.0388 8.32346 14.0802C8.32346 14.0802 8.28206 13.7075 8.28206 13.6661C8.28206 13.5833 8.24063 13.5833 8.24063 13.8317C8.24063 13.9146 8.15783 14.0802 8.15783 14.2873C8.075 14.4943 8.11641 14.0388 8.075 13.7489C8.03359 13.5005 8.03359 14.2045 8.075 14.163C8.03359 14.2045 7.95077 14.6186 7.95077 15.0741C7.95077 14.7842 7.99217 14.5357 7.99217 14.2045C7.99217 13.9974 7.99217 13.8732 7.99217 13.7075C7.99217 14.2459 7.95076 14.2873 7.86794 14.2459C7.82653 14.2045 7.82651 13.7903 7.82651 13.5419C7.82651 13.8732 7.70228 13.7903 7.70228 13.8317C7.66087 13.9146 7.61946 14.3287 7.61946 14.2873C7.57804 14.2459 7.57805 13.0449 7.49523 13.9146C7.45381 13.9146 7.49524 13.2934 7.45382 13.5833C7.41241 13.9146 7.37099 14.0802 7.28817 14.3701C7.32958 14.0388 7.41241 13.7075 7.45382 13.3762C7.371 13.7075 7.28818 14.0802 7.24677 14.4115C7.24677 14.3701 7.28818 14.163 7.32959 13.956C7.37101 13.7489 7.4124 13.5419 7.4124 13.5419C7.32957 13.6661 7.24675 14.4529 7.20534 14.8256C7.16393 14.8256 7.28818 13.9974 7.32959 13.7903C7.37101 13.4176 7.28817 13.8317 7.28817 13.6247C7.28817 13.5419 7.32958 13.252 7.28817 13.3762C7.24676 13.459 7.20534 13.7489 7.20534 13.6661C7.20534 13.6247 7.16394 13.5833 7.16394 13.5005C7.16394 13.4176 7.20535 12.8379 7.16394 13.0035C7.16394 13.0449 7.03971 13.5833 7.03971 13.6247C6.95688 14.1216 6.91546 14.2045 6.87405 14.0802C6.87405 14.0388 6.79123 14.3287 6.74982 14.4115C6.74982 14.7014 6.7084 15.1155 6.66699 15.3226Z" fill="#FBBC04"/>
<path d="M12.133 12.6307C12.2159 12.6721 12.2573 12.6721 12.0088 12.4236C11.8018 12.2166 11.8018 12.2994 11.8018 12.3408L12.0916 12.5893C12.1331 12.6307 12.133 12.6307 12.133 12.6307Z" fill="#FBBC04"/>
<path d="M13.3338 14.1632C13.5822 14.3703 13.2095 13.9562 13.458 14.1218C13.665 14.2461 13.2923 13.7491 13.2509 13.6249C13.5408 13.9148 13.5822 13.9148 13.5408 13.7905C13.458 13.6663 13.2509 13.4592 13.1267 13.2936C13.4166 13.6249 14.2034 14.1218 13.4994 13.5835C13.2509 13.4178 13.3338 13.3764 13.5408 13.5006C13.7893 13.7077 13.9963 13.8733 13.9963 13.7905C14.2448 13.9148 13.3337 13.2108 13.2509 13.1279C13.0853 13.0037 12.257 12.1755 12.1328 12.1341C12.05 12.0926 12.4227 12.4239 12.2156 12.2583C12.1328 12.1755 11.7601 11.8856 11.9257 12.0512C12.0914 12.2169 12.3813 12.4653 12.5055 12.5896C12.5883 12.6724 12.6712 12.7552 12.754 12.8381C12.5055 12.631 12.1742 12.2997 12.3813 12.5482C12.5055 12.6724 12.9196 13.1279 13.0439 13.2522L12.1742 12.4239C12.1742 12.4653 12.5469 12.7552 12.5883 12.8381C12.6297 12.9623 12.5055 12.8381 12.4641 12.8381C12.4227 12.8381 12.4641 12.9623 12.257 12.7966C12.2156 12.7552 11.9257 12.5068 11.9257 12.5482C11.9257 12.5482 12.0086 12.631 12.1328 12.7552C12.257 12.8795 12.3813 13.0037 12.3813 13.0451C12.3813 13.0865 12.0914 12.7552 11.8843 12.5896C12.05 12.7552 12.1742 12.9209 12.2156 13.0037C12.257 13.0865 12.2984 13.1693 12.5883 13.4178C12.7954 13.7491 13.1267 13.9976 13.3338 14.1632Z" fill="#FBBC04"/>
<path d="M13.9141 13.832C13.9141 13.8734 14.0797 13.8734 13.9141 13.832V13.832Z" fill="#FBBC04"/>
<path d="M13.7903 13.5832C14.163 13.7903 13.3762 13.1691 13.2105 13.0035C13.2934 13.0863 14.2044 13.7903 14.0388 13.6246C13.9145 13.5004 13.5833 13.2519 13.5419 13.1691C13.5419 13.1277 13.5004 13.0449 13.5833 13.0863C13.6247 13.0863 13.7489 13.2105 13.8317 13.2933C14.1216 13.5004 14.0802 13.4176 13.8317 13.2105C14.0802 13.3762 13.5004 12.8792 13.7489 13.0035C13.9146 13.0863 14.163 13.3347 14.2458 13.4176C14.2458 13.3347 13.7903 12.962 13.459 12.7136C13.7489 12.9206 13.9559 13.0449 14.2458 13.2519C14.0388 13.0863 13.2934 12.4651 13.2934 12.4237C13.5418 12.5893 14.2044 13.0449 14.0388 12.8792C13.9559 12.7964 13.459 12.5893 13.2934 12.4237C13.0863 12.2166 13.956 12.8378 13.9145 12.7964C13.9145 12.755 13.5004 12.4651 13.7489 12.6308L13.9974 12.7964C13.9145 12.7136 13.7489 12.6308 13.6247 12.5479C14.0388 12.7964 14.163 12.8792 14.4115 12.962C14.5357 13.0035 14.3701 12.8792 14.2044 12.7964C14.4115 12.9206 14.5771 13.0035 14.6185 12.962C14.66 12.9206 14.4529 12.7964 14.3287 12.7136C14.2458 12.6308 14.1216 12.5479 14.1216 12.5065C14.1216 12.4651 14.5357 12.7136 14.6185 12.755C14.5771 12.6722 14.4115 12.5893 14.2873 12.4651C14.2044 12.4237 14.163 12.3823 14.163 12.3823C13.6247 12.051 13.3348 11.9268 12.755 11.6369C12.1753 11.3056 12.4651 11.5126 12.4237 11.554C12.3823 11.554 12.0924 11.4712 12.3823 11.6369C12.7136 11.8853 12.8793 11.9682 13.1277 12.0924C13.1277 12.0924 13.1691 12.1338 13.252 12.1752C13.3348 12.2166 13.4176 12.2995 13.5419 12.3823C13.7489 12.5479 13.956 12.6722 13.9974 12.7136C13.8317 12.5893 13.6247 12.4651 13.4176 12.3409C13.3348 12.258 13.1277 12.1752 13.1277 12.1752C12.9621 12.0924 12.4651 11.7197 12.4651 11.7611C12.4651 11.8025 11.9268 11.5955 12.6308 12.051C12.548 12.0096 12.548 12.051 12.548 12.0924C12.548 12.1338 12.2581 11.9268 12.2167 11.9268C12.1339 11.9268 12.1338 11.9268 12.2581 12.0924C12.548 12.3823 12.0096 11.9682 12.0096 12.0096C12.3409 12.258 12.3823 12.258 12.7136 12.5893C12.8379 12.6722 13.2934 13.1277 13.0449 12.962C12.6722 12.7136 12.2995 12.3409 12.0096 12.0924C12.0096 12.1338 11.8854 12.0924 12.0924 12.3409C12.2995 12.5479 12.9207 13.0035 13.0035 13.1691C13.2105 13.1691 13.5004 13.3762 13.7903 13.5832Z" fill="#FBBC04"/>
<path d="M12.9202 11.5538C12.7959 11.4709 12.5889 11.3467 12.5889 11.3881C12.5889 11.4295 12.9202 11.5952 12.9202 11.5538Z" fill="#FBBC04"/>
<path d="M14.3277 12.1339C14.1206 11.9269 13.7479 11.844 14.3277 12.1339V12.1339Z" fill="#FBBC04"/>
<path d="M13.4584 11.6364C13.8726 11.8434 14.4109 12.0505 14.8664 12.2576C14.825 12.2162 14.5351 11.9677 14.2867 11.8434C13.914 11.6778 14.2867 11.9263 14.1624 11.8849C13.9554 11.7606 13.8311 11.6364 14.0796 11.7192C14.3281 11.802 14.6594 12.0091 14.825 12.0091C15.4048 12.0919 14.121 11.6778 14.0796 11.6364C13.9968 11.5536 14.9493 11.9263 15.0321 11.9263C15.1563 11.9263 15.2391 11.9263 14.7008 11.6778C14.7008 11.6364 15.0321 11.7606 15.1977 11.7606C15.2806 11.7606 15.322 11.6778 14.9078 11.5536C15.6118 11.802 14.9078 11.3465 15.1563 11.3465C15.1563 11.3465 15.1563 11.3465 15.1977 11.3465C14.9907 11.2637 14.3281 11.098 13.914 10.9738C13.5827 10.8496 13.6241 10.9324 13.4998 10.891C13.417 10.8496 12.7958 10.6425 13.0443 10.7667C13.21 10.8496 13.3756 10.8496 13.3756 10.891C13.3756 10.891 13.3756 10.9324 13.417 10.9324C13.4584 10.9738 13.914 11.1395 14.121 11.2223C14.618 11.4707 13.1685 10.8496 13.2099 10.891C13.1271 10.8496 13.7069 11.1394 13.4584 11.0566C13.1686 10.9738 12.7544 10.8082 12.8373 10.891C12.8373 10.891 13.1686 11.098 13.3342 11.1394C13.3756 11.1394 13.1686 11.0152 13.2514 11.0566C13.5413 11.1809 13.5412 11.2637 13.417 11.2637C13.3756 11.2637 13.2514 11.1809 13.2099 11.1809C13.0443 11.098 13.0443 11.098 12.7544 10.9738C12.9615 11.0566 13.2514 11.2223 13.4998 11.3465C13.3756 11.3051 12.5888 10.9324 12.713 11.0152C12.8373 11.098 13.1686 11.2223 13.2514 11.3051C13.2928 11.3465 13.0857 11.2223 13.0443 11.2223C12.7958 11.1395 13.9554 11.6778 13.0029 11.2637C12.5888 11.098 12.4646 11.0566 12.8373 11.2637C13.21 11.5122 12.2575 11.0152 12.6302 11.2223C13.0443 11.4707 13.6655 11.8434 14.121 12.0919C15.0735 12.7131 13.7069 11.802 13.4584 11.6364Z" fill="#FBBC04"/>
<path d="M15.1566 11.3887H15.1152C15.1152 11.3887 15.2809 11.4301 15.1566 11.3887Z" fill="#FBBC04"/>
<path d="M13.5827 9.81481C13.5827 9.7734 13.0858 9.69058 13.0029 9.73199C13.0029 9.7734 13.5827 9.85622 13.5827 9.81481Z" fill="#FBBC04"/>
<path d="M13.1682 9.44238C13.0026 9.48379 13.4167 9.5252 13.3753 9.48379C13.3339 9.48379 13.251 9.48379 13.1682 9.44238Z" fill="#FBBC04"/>
<path d="M13.6654 10.9331C13.7896 10.9745 13.9966 11.0573 14.0795 11.0573C14.3694 11.0987 13.7068 10.8917 14.4108 11.0987C14.6592 11.1815 15.1976 11.2644 14.9077 11.1401C14.7006 11.0573 14.4108 10.9745 14.2037 10.8917C14.4522 10.9745 14.9905 11.1401 15.0319 11.0987C15.0733 11.0573 14.7421 10.8917 15.1976 11.0159C14.9077 10.9331 14.5764 10.8503 14.535 10.8088C14.6592 10.8503 15.4046 11.0573 15.4046 11.0159C15.4046 11.0159 15.2804 10.9745 15.1148 10.8917C14.9491 10.8503 14.8249 10.7674 14.7835 10.7674C14.2865 10.5604 15.3218 10.8503 15.3632 10.8503C15.4046 10.8503 15.1147 10.726 15.0733 10.6846C14.9905 10.6432 14.6592 10.5604 14.4936 10.5604C14.4936 10.519 15.1148 10.6846 15.1976 10.6846C15.2804 10.6846 15.2804 10.6432 15.446 10.6432C15.6945 10.6846 15.6531 10.6846 15.4875 10.6018C15.3632 10.5604 15.3632 10.519 15.5289 10.519C15.5703 10.519 16.0672 10.5604 15.8188 10.519C15.6945 10.4775 15.239 10.4361 15.1976 10.3947C15.1562 10.3533 15.4046 10.3947 15.5703 10.4361C16.1915 10.519 15.3632 10.3533 15.2804 10.3119C15.3218 10.3119 15.7359 10.3533 15.7359 10.3119C15.7359 10.2705 15.4875 10.2705 15.3218 10.2291C15.1562 10.1877 15.8188 10.2291 15.8602 10.2291C15.943 10.2291 15.6117 10.1463 15.5289 10.1048C15.3632 10.022 15.239 9.98061 14.8663 9.89778C14.7006 9.85637 14.4108 9.81496 14.6178 9.81496C14.8249 9.81496 15.3632 9.85637 15.3632 9.81496C15.3632 9.77355 15.6117 9.81496 15.8188 9.77355C16.2743 9.73214 15.0319 9.56649 15.8602 9.6079C15.446 9.56649 15.0733 9.52508 15.239 9.48367C15.3632 9.44225 15.9844 9.48367 15.9844 9.44226C15.9844 9.40085 14.8663 9.44226 14.7835 9.44226C14.2037 9.40085 13.9967 9.35943 13.5411 9.31802C13.1684 9.27661 13.2927 9.40084 13.3341 9.40084C13.3755 9.44226 13.9966 9.40085 14.2451 9.44226C14.1209 9.44226 13.9552 9.40084 13.7482 9.40084C13.9967 9.40084 14.2865 9.44226 14.4522 9.44226C14.742 9.48367 14.3694 9.48367 14.1623 9.48367C13.831 9.48367 13.3755 9.48367 13.9966 9.52508C14.2037 9.52508 14.8663 9.6079 14.742 9.64932C14.6592 9.69073 13.8724 9.56649 13.6654 9.56649C13.3755 9.52508 13.4997 9.6079 13.4997 9.64932C13.5411 9.73214 13.2512 9.73214 14.1623 9.85637C13.8724 9.85637 14.3279 9.89779 14.3279 9.9392L13.9138 9.89778C13.9138 9.89778 15.0319 10.0634 14.5764 10.0634C14.4936 10.0634 14.0381 10.022 13.8724 9.98061C13.6654 9.9392 14.0795 9.98061 14.1209 9.98061C14.2037 9.98061 14.038 9.93919 13.831 9.89778C13.5411 9.85637 13.6239 9.85637 13.6239 9.81496C13.2512 9.77355 13.0856 9.81496 13.4583 9.85637C13.4583 9.89779 13.1684 9.85637 13.2512 9.89778C13.2926 9.93919 13.5411 10.022 13.9138 10.0634C14.0795 10.1048 14.3279 10.1048 14.4522 10.1048C14.5764 10.1463 15.1562 10.3119 14.9905 10.2705C14.6592 10.2291 14.4108 10.1877 14.0795 10.1463C13.7482 10.1048 13.5825 10.0634 13.5825 10.1048C13.5411 10.1463 13.2098 10.0634 13.1684 10.1048C13.2512 10.0634 15.9844 10.6846 13.6239 10.2291C13.2098 10.1463 13.0856 10.1463 13.3341 10.2291C13.4583 10.2705 14.3279 10.4775 14.3279 10.4775C14.3279 10.4775 14.2451 10.4775 14.1623 10.4361C14.0381 10.3947 13.9138 10.3947 13.7482 10.3533C13.4583 10.2705 13.1684 10.2291 13.1684 10.2291C13.4583 10.3119 14.4522 10.519 14.535 10.5604C14.6178 10.6432 13.6239 10.3533 13.4583 10.3533C13.3755 10.3533 13.4583 10.3947 13.4169 10.3947C13.4169 10.3947 13.2098 10.3533 13.127 10.3533C13.0856 10.3533 13.2512 10.4361 13.4169 10.4775C13.5825 10.5604 13.7896 10.6432 13.7896 10.6432C13.6653 10.6018 13.4169 10.519 13.2512 10.4775C13.1684 10.4775 13.2927 10.519 13.3341 10.5604C13.4169 10.6018 14.1209 10.8503 14.0795 10.8503C13.9966 10.8503 13.3755 10.6432 13.1684 10.6018C12.9199 10.5604 13.2926 10.6846 13.4997 10.7674C13.5411 10.8917 13.3755 10.8503 13.6654 10.9331Z" fill="#FBBC04"/>
<path d="M14.4942 9.4002C14.8255 9.4002 15.281 9.40021 15.0739 9.3588C15.0739 9.3588 15.074 9.3588 15.0325 9.3588L14.0801 9.31738C14.2457 9.31738 14.3699 9.3588 14.5356 9.3588C14.3285 9.31739 13.666 9.35879 14.4942 9.4002Z" fill="#FBBC04"/>
<path d="M13.5417 9.1102C13.4175 9.1102 12.9619 9.06879 12.9619 9.1102C12.9619 9.1102 13.5831 9.15161 13.5417 9.1102Z" fill="#FBBC04"/>
<path d="M16.1084 9.35922C16.1498 9.35922 15.7771 9.31781 15.7771 9.31781C15.7357 9.2764 15.9427 9.2764 15.9013 9.23499C15.8599 9.19357 15.7357 9.15216 15.57 9.15216C15.4872 9.15216 15.1974 9.11075 15.1974 9.11075C15.1974 9.11075 15.3216 9.11075 15.4458 9.11075C15.5701 9.11075 15.6943 9.11075 15.6529 9.11075C15.4458 9.06934 14.9075 9.06934 14.659 9.06934H13.2924C13.2924 9.11075 14.2863 9.11075 14.2035 9.15216C14.1206 9.15216 13.1268 9.11075 13.1682 9.15216C13.955 9.15216 13.4995 9.19357 13.8308 9.23499C14.162 9.2764 14.8247 9.23499 14.7832 9.31781C14.7418 9.35922 14.2863 9.31781 14.0792 9.27639C13.7894 9.23498 13.2924 9.27639 13.0439 9.27639C13.0439 9.31781 14.2035 9.35922 14.4105 9.40063C14.7832 9.44204 15.6529 9.44204 15.6943 9.52487C15.6115 9.35922 15.6529 9.35922 16.1084 9.35922Z" fill="#FBBC04"/>
<path d="M15.9437 8.94524C15.9851 8.90383 15.9022 8.86242 15.6952 8.82101C15.4881 8.77959 15.074 8.821 14.9084 8.77959C14.7841 8.77959 15.8608 8.69677 15.9437 8.69677C16.0265 8.65536 15.9022 8.65536 15.8608 8.61395C15.778 8.57254 15.7366 8.53112 15.778 8.48971C15.778 8.4483 16.1093 8.36547 15.5709 8.36547C15.4881 8.36547 13.9973 8.40689 14.3286 8.36547C14.37 8.36547 14.7841 8.36547 14.9084 8.36547C15.074 8.36547 15.2396 8.32407 15.3639 8.32407C15.6952 8.24124 15.7366 8.15842 15.6952 8.11701C15.6952 8.0756 15.7366 8.03418 15.5295 8.03418C15.2397 8.03418 15.3639 8.07559 15.3639 8.07559C15.4053 8.07559 14.7841 8.11701 14.7427 8.11701C14.4114 8.15842 13.9973 8.15842 13.666 8.19983C13.3761 8.24124 13.666 8.24124 13.459 8.24124C13.1691 8.28265 13.0448 8.28265 13.1691 8.32407C13.2933 8.36548 13.4175 8.36547 13.9559 8.36547C14.1215 8.36547 14.5357 8.32407 14.37 8.32407C14.163 8.32407 14.7427 8.28265 14.7841 8.28265C14.867 8.28265 15.4467 8.28265 15.3225 8.32407C15.2811 8.32407 14.9084 8.32407 14.8255 8.32407C14.5771 8.32407 14.2872 8.36548 14.0801 8.40689C14.0801 8.40689 13.9559 8.4483 13.7902 8.48971C13.6246 8.53112 13.4589 8.53112 13.3761 8.53112C13.3347 8.53112 13.5418 8.48971 13.4175 8.48971C13.2933 8.48971 13.0034 8.61394 13.7074 8.57253C13.9973 8.57253 13.8731 8.57254 13.9973 8.61395C14.1629 8.65536 14.1215 8.61395 14.3286 8.61395C14.2458 8.61395 13.666 8.69677 13.5832 8.69677C13.2933 8.73818 13.4175 8.77959 13.459 8.82101C13.1277 8.90383 14.2458 8.82101 14.5771 8.82101C14.6599 8.82101 14.6599 8.86241 14.6599 8.86241C14.6599 8.86241 14.3286 8.86241 14.2872 8.86241C13.9559 8.86241 13.5418 8.90383 13.7902 8.94524C14.0387 8.98665 14.4942 8.98665 14.7427 9.02806C14.7841 9.06948 15.1568 9.06947 15.281 9.11089C15.3225 9.11089 14.4114 9.06947 14.3286 9.06947C14.0801 9.06947 13.5832 9.06947 13.459 9.06947C13.2519 9.11088 13.7488 9.1523 14.0387 9.11089C14.2043 9.11089 14.37 9.06947 14.5771 9.06947C14.7841 9.06947 14.7013 9.11089 14.6599 9.11089C14.6599 9.02806 15.9022 9.02806 15.9437 8.94524Z" fill="#FBBC04"/>
<path d="M15.2391 7.74399C15.6532 7.70258 14.6179 7.74399 15.2391 7.74399V7.74399Z" fill="#FBBC04"/>
<path d="M14.9909 7.82697C15.0323 7.78555 15.405 7.78555 15.5292 7.78555C15.6949 7.74414 15.405 7.74414 15.2394 7.74414C15.0323 7.74414 13.5829 7.86838 13.8728 7.90979C13.6243 7.9512 13.4172 7.9512 13.4587 7.90979C13.0445 7.9512 13.5415 7.99261 13.6243 7.99261C13.9142 8.03402 14.3697 8.03402 15.0323 7.9512C16.1918 7.86838 14.9081 7.90979 14.9909 7.82697Z" fill="#FBBC04"/>
<path d="M15.5286 6.95685C15.6942 6.91544 15.7356 6.91543 15.6942 6.91543V6.87402C15.5286 6.87402 15.4458 6.91544 15.5286 6.95685Z" fill="#FBBC04"/>
<path d="M14.2871 6.50137C14.2871 6.50137 14.2457 6.50137 14.2042 6.50137C14.08 6.54278 14.0386 6.54279 13.9972 6.54279C13.7901 6.5842 13.5831 6.62561 13.6245 6.66702C13.6659 6.66702 14.3699 6.50137 14.4527 6.45996C14.4941 6.45996 14.3699 6.45996 14.2871 6.50137Z" fill="#FBBC04"/>
<path d="M14.287 6.50183C14.4112 6.46042 13.9971 6.54324 13.9971 6.54324C14.0799 6.54324 14.1213 6.50183 14.2041 6.50183C14.2041 6.50183 14.2455 6.50183 14.287 6.50183Z" fill="#FBBC04"/>
<path d="M13.086 6.83322C13.0446 6.83322 13.2516 6.7504 13.2102 6.70898C12.7547 6.79181 13.0446 6.79181 13.086 6.83322Z" fill="#FBBC04"/>
<path d="M13.6239 7.86849C13.5825 7.82708 14.3279 7.74426 14.2037 7.70284C14.1209 7.70284 13.8724 7.70284 13.7896 7.70284C13.7896 7.70284 13.624 7.66143 13.7482 7.66143C13.5825 7.66143 13.4169 7.70284 13.2098 7.70284C13.6239 7.66143 13.8724 7.62002 14.2451 7.5372C13.9966 7.5372 13.2098 7.62002 13.4169 7.5372C13.5411 7.49579 14.1623 7.37155 14.3694 7.37155C14.4108 7.37155 14.5764 7.37155 14.5764 7.33014C14.6592 7.28873 14.4936 7.28873 14.4522 7.33014C14.3279 7.33014 14.0381 7.33014 13.7896 7.37155C13.4583 7.41297 13.0856 7.45438 13.1684 7.41296C13.2098 7.37155 13.8724 7.28873 14.0795 7.20591C14.1623 7.16449 13.9552 7.16449 13.7896 7.20591C13.6239 7.24732 13.4583 7.28873 13.2512 7.33014C12.7957 7.41296 12.8785 7.37155 13.2926 7.28873C13.127 7.33014 12.9199 7.33014 12.9614 7.33014C13.0442 7.28873 13.4169 7.20591 13.5825 7.20591C14.1623 7.08167 14.7421 6.95744 15.3218 6.8332C14.9077 6.91602 14.4108 6.95744 14.0795 7.04026C13.9138 7.08167 13.7068 7.16449 13.4997 7.20591C13.2512 7.24732 13.6239 7.12308 13.6654 7.12308C13.9552 7.04026 14.7421 6.87461 14.5764 6.8332C14.4936 6.8332 13.6653 7.08167 13.6239 7.08167C12.9613 7.28873 13.2098 7.12308 13.2098 7.12308C13.1684 7.08167 12.8785 7.12308 13.0442 7.08167C13.127 7.04026 13.5411 6.95743 13.6654 6.91602C13.8724 6.87461 14.6592 6.66755 14.6592 6.62614C14.6592 6.62614 14.5764 6.62614 14.4936 6.66755C14.4108 6.70896 14.2451 6.70897 14.1209 6.75038C13.9966 6.79179 13.8724 6.8332 13.7482 6.8332C13.6654 6.87461 13.5825 6.87461 13.5825 6.87461C13.5825 6.87461 13.831 6.79179 13.6654 6.8332C13.5825 6.8332 13.2512 6.95744 13.0856 6.99885C12.4644 7.12308 13.127 6.95743 13.4169 6.87461C13.127 6.95743 12.5886 7.08167 13.0856 6.91602C13.5411 6.79179 14.4522 6.50191 14.9077 6.41908C14.9077 6.41908 14.6178 6.46049 14.5764 6.46049C14.328 6.50191 14.0795 6.54332 13.7896 6.62614C13.127 6.87461 13.9966 6.50191 13.9966 6.50191C13.9966 6.50191 13.1684 6.79179 13.4583 6.66755C13.5411 6.62614 13.127 6.70896 13.127 6.70896L13.4997 6.54332C13.5411 6.54332 12.216 6.95744 12.6301 6.79179C12.8785 6.66755 13.6654 6.41908 14.0795 6.29485C13.8724 6.33626 13.6654 6.37767 13.4997 6.46049C13.3755 6.50191 13.0856 6.58473 12.8785 6.62614C12.8371 6.62614 12.9614 6.62614 12.8785 6.66755C12.6301 6.79179 12.6715 6.66755 12.6715 6.66755C12.6715 6.66755 12.5058 6.62614 12.8785 6.54332C14.0381 6.17062 12.423 6.58473 12.6715 6.46049C12.7957 6.37767 13.4997 6.1292 13.7068 6.04638C14.1209 5.88073 14.7421 5.63226 15.0319 5.59085C15.2804 5.54944 15.0734 5.63226 14.7007 5.7565C14.4522 5.83932 14.2451 6.00497 14.1209 6.04638C14.4108 5.96355 14.8249 5.83932 15.1562 5.71509C14.9905 5.79791 13.4997 6.33626 13.9552 6.17061C14.328 6.04638 14.8249 5.88073 15.0733 5.83932C15.2804 5.79791 15.5703 5.83932 15.0319 6.00497C15.4875 5.83932 15.239 6.00497 15.0319 6.08779C14.9491 6.1292 14.3694 6.33626 14.7835 6.25344C15.1148 6.17061 15.4875 6.04638 15.3218 6.17061C15.1148 6.29485 15.4046 6.17061 15.4461 6.25344C14.9905 6.46049 15.5703 6.4605 15.5703 6.54332C15.5703 6.58473 15.6117 6.62614 15.4047 6.66755C15.3632 6.66755 15.239 6.70897 15.1148 6.75038C14.9905 6.79179 14.9077 6.79179 14.9077 6.79179C14.9077 6.79179 15.4046 6.75038 15.4875 6.75038C15.6531 6.75038 15.4875 6.8332 15.3218 6.91602C14.7007 7.08167 15.3218 6.95743 15.4875 6.91602C15.5703 6.91602 15.6117 6.95744 15.5703 6.95744C15.5289 6.99885 15.2804 6.99885 15.239 7.04026C15.1976 7.04026 15.6945 6.99885 15.6531 7.04026C15.5703 7.12308 15.0319 7.24732 14.8249 7.33014C14.4522 7.45437 15.3632 7.24732 15.5703 7.20591C16.0258 7.12308 15.3632 7.33014 15.6945 7.28873C15.0319 7.41296 15.8188 7.41296 15.6117 7.45438C15.2804 7.49579 14.9905 7.5372 14.7421 7.62002L14.4108 7.74426C14.7006 7.70284 15.0319 7.62002 15.3218 7.57861C15.3632 7.57861 15.6945 7.49579 15.7359 7.49579C15.8188 7.49579 15.7359 7.5372 15.5703 7.5372C15.5703 7.5372 15.6945 7.57861 15.5703 7.62002C15.3218 7.66143 15.239 7.66143 15.2804 7.70284C15.3632 7.70284 15.5703 7.70284 15.3218 7.74426C15.4875 7.78567 15.3218 7.78567 15.7773 7.74426C15.6117 7.74426 15.6945 7.90991 14.9905 7.90991C14.6592 7.95132 14.4522 7.99273 14.2037 7.99273L13.831 8.03414C13.831 7.82708 13.831 7.82708 13.6239 7.86849ZM14.5764 7.12308C14.7007 7.08167 14.3279 7.12308 14.1209 7.1645C13.9966 7.1645 13.9138 7.20591 13.831 7.24732C14.0381 7.20591 14.328 7.2059 14.5764 7.12308Z" fill="#FBBC04"/>
<path d="M13.9967 5.38421C14.2038 5.30139 14.4108 5.21857 14.4523 5.13574C14.4108 5.13574 13.6654 5.50845 13.9967 5.38421Z" fill="#FBBC04"/>
<path d="M14.7418 5.25897C14.6176 5.30039 14.3691 5.38321 14.2448 5.42462C13.955 5.46603 14.3691 5.3418 14.5762 5.25897C14.7004 5.21756 15.2387 4.88627 14.9074 5.05192C14.659 5.13474 14.2449 5.3418 13.9964 5.46603C13.458 5.79733 13.5823 5.59027 13.6237 5.59027C13.4994 5.67309 13.2924 5.75591 13.0853 5.83874C13.0439 5.88015 13.0025 5.88015 12.9611 5.88015C12.7954 5.96297 12.5056 6.0458 12.4227 6.12862C12.2571 6.25286 12.547 6.12862 12.7954 6.00438C12.8368 5.96297 13.5409 5.67309 13.3338 5.79733C13.1682 5.88015 12.7954 6.0458 12.5884 6.12862C12.4227 6.21144 12.547 6.17003 12.6712 6.17003C12.8369 6.12862 12.7954 6.21144 12.8783 6.21144C13.0025 6.21144 13.8308 5.88015 14.162 5.75592C14.4933 5.50745 15.1973 5.13474 14.7418 5.25897Z" fill="#FBBC04"/>
<path d="M12.8785 5.83897C12.9199 5.79756 13.0027 5.79756 13.0027 5.79756C13.1683 5.71474 12.5886 5.96321 12.8785 5.83897Z" fill="#FBBC04"/>
<path d="M12.7543 5.30078C12.5472 5.3836 11.8846 5.79772 12.1331 5.67348C12.2987 5.59066 12.7957 5.30078 12.7543 5.30078Z" fill="#FBBC04"/>
<path d="M12.9619 5.0109C12.7135 5.13514 12.0095 5.59067 12.1337 5.54926C12.2994 5.50785 13.3347 4.84526 12.9619 5.0109Z" fill="#FBBC04"/>
<path d="M12.9611 5.01121C13.1682 4.92839 12.7541 5.09404 12.9611 5.01121V5.01121Z" fill="#FBBC04"/>
<path d="M11.3055 4.0588C11.0156 4.34868 10.7672 4.72139 11.0984 4.34868C11.3055 4.10021 11.554 3.81033 11.3055 4.0588Z" fill="#FBBC04"/>
<path d="M12.0088 1.57324C11.8017 1.7803 11.6361 2.15301 12.0088 1.57324V1.57324Z" fill="#FBBC04"/>
<path d="M14.8666 4.88657C14.7424 4.92799 14.2869 5.01081 14.7838 4.84516C15.1151 4.67951 14.9908 4.67951 14.9494 4.6381C14.8666 4.59669 14.8252 4.51387 14.6181 4.55528C14.3697 4.59669 14.7424 4.34822 14.6595 4.30681C14.5767 4.2654 13.7485 4.76234 14.2869 4.38963C14.6596 4.18257 14.204 4.2654 14.2869 4.22398C14.6181 4.05834 14.3283 4.01693 14.2869 3.97552C14.204 3.9341 14.3697 3.80987 14.2869 3.76846C14.2454 3.80987 14.1212 3.9341 13.997 4.01693C13.8727 4.09975 13.9141 3.97552 13.9141 3.97552C13.8727 3.97552 13.7485 4.09975 13.7071 4.05834C13.6657 4.05834 13.8313 3.9341 13.997 3.80987L14.0384 3.85128C14.3283 3.60281 14.2868 3.5614 14.1212 3.60281C13.9556 3.64422 14.2868 3.43716 14.204 3.39575C14.1212 3.35434 13.7899 3.60281 13.6243 3.68564C13.4586 3.76846 13.8727 3.43716 13.9556 3.31293C14.204 3.02305 13.6657 3.35434 13.7071 3.18869C13.7485 3.10587 13.7485 3.06446 13.5 3.31293C13.3344 3.47858 13.5 3.18869 13.5 3.18869C13.4172 3.14728 13.293 3.27152 13.7485 2.81599C13.9142 2.69176 13.5 2.94022 13.4586 2.98163C13.1687 3.2301 13.0445 3.35434 12.9617 3.35434C13.0445 3.18869 12.8374 3.43716 12.6304 3.60281C12.5062 3.72704 11.7193 4.47246 11.6779 4.47246C11.6365 4.47246 12.3405 3.80987 12.4647 3.72705C12.5476 3.64422 13.0445 3.1887 13.0445 3.23011C13.3344 2.98164 13.7899 2.52611 13.293 2.94022C13.3758 2.77458 13.5414 2.65034 13.5 2.65034C13.293 2.81599 13.2516 2.77458 13.2516 2.73317C13.2102 2.69175 13.3344 2.4847 13.1273 2.60893C13.0445 2.65034 12.9617 2.69176 12.8374 2.81599C13.0445 2.56752 13.293 2.31905 13.293 2.23623C13.293 2.23623 13.2516 2.27764 13.1687 2.36046C13.0859 2.44328 13.0031 2.52611 12.9203 2.60893C12.7546 2.81599 12.5476 3.02305 12.5062 3.06446C12.796 2.73317 13.1273 2.36046 13.0859 2.31905C13.0445 2.27764 13.0445 2.1534 12.796 2.44329C12.9617 2.27764 13.0031 2.1534 13.0031 2.11199C13.0031 2.02917 12.9203 2.1534 12.7546 2.36046C12.7546 2.36046 12.9617 2.02917 12.9203 2.02917C12.9203 1.98776 12.5062 2.40187 12.4233 2.52611C12.3819 2.56752 12.1334 2.8574 12.1748 2.8574C12.2163 2.8574 12.092 3.02305 12.092 3.02305C12.0506 3.02305 12.0092 2.98164 12.1748 2.73317C12.2991 2.52611 12.5476 2.31905 12.6304 2.1534C12.7546 1.94634 12.2991 2.48469 12.2163 2.56752C12.092 2.69175 12.3405 2.31905 12.3819 2.23623C12.589 1.90493 12.5475 1.82211 12.1748 2.27764C12.092 2.36046 12.1334 2.11199 12.3405 1.90493C12.2577 1.98776 12.0506 2.27764 12.0092 2.27764C11.9678 2.27764 12.092 2.07058 12.1334 1.94634C12.1749 1.7807 11.8021 2.40187 11.7193 2.52611C11.8436 2.36046 11.7607 2.40187 11.9264 2.11199C11.9678 2.02917 12.2991 1.61505 12.2163 1.61505C12.1749 1.65646 12.1335 1.69788 12.092 1.7807H12.0506C12.092 1.73929 12.0092 1.7807 12.0092 1.82211C11.8436 2.02917 11.5951 2.36046 11.388 2.60893C11.2638 2.77458 11.0982 3.06446 11.0567 3.06446C11.2224 2.77458 11.4294 2.52611 11.5951 2.23623C11.7193 2.02917 11.6365 2.11199 11.6779 2.02917C11.7193 1.90493 11.9264 1.65646 11.9264 1.57364C11.9264 1.57364 11.885 1.49082 11.8436 1.61505C11.7607 1.7807 11.5951 2.11199 11.4709 2.23623C11.3466 2.36046 11.4709 2.1534 11.5123 2.02917C11.7193 1.61505 11.8021 1.53223 11.7193 1.53223C11.5951 1.53223 11.2638 2.1534 10.9739 2.69175C10.8083 2.98164 10.6012 3.35434 10.3941 3.68564C9.98003 4.38963 10.6012 3.43717 10.6012 3.43717C10.6012 3.43717 10.5184 3.5614 10.4356 3.72705C10.3528 3.85128 10.2699 4.01693 10.2285 4.05834C10.2699 4.05834 10.4356 3.72705 10.5184 3.64422C10.6426 3.51999 10.6426 3.60281 10.7669 3.47858C10.8083 3.43717 11.0153 3.23011 10.8083 3.5614C10.7254 3.68563 10.477 4.05834 10.477 4.05834C10.5184 4.05834 10.5184 4.14116 10.684 4.01693C10.8083 3.89269 11.181 3.35434 11.3466 3.10587C11.1396 3.35434 11.3052 3.2301 11.3466 3.18869C11.388 3.18869 11.0982 3.5614 11.0982 3.5614C10.9739 3.76846 10.4356 4.51387 10.7669 4.09975C10.9739 3.85128 11.1396 3.5614 11.3052 3.31293C11.4294 3.10587 11.6365 2.98164 11.5123 3.10587C11.4709 3.14728 11.2638 3.39575 11.2638 3.43717C11.2638 3.47858 11.4294 3.27152 11.3052 3.47858C11.2224 3.60281 11.1396 3.72705 11.0153 3.85128C11.2224 3.60281 12.2163 2.23623 12.0092 2.65034C11.9678 2.73317 10.8083 4.18257 10.8497 4.18257C10.9325 4.09975 11.4709 3.47858 11.5951 3.31293C11.5123 3.39575 11.1396 3.9341 11.0982 3.97552C10.9325 4.22399 11.5123 3.43716 11.4294 3.51999C11.5537 3.39575 11.5537 3.43716 11.5951 3.39575C11.7607 3.18869 11.7193 3.27152 11.7607 3.27152C11.6365 3.39575 11.1396 4.05834 11.2224 3.89269C11.0153 4.14116 10.684 4.59669 10.9739 4.30681C11.1396 4.09975 11.6365 3.47857 11.7607 3.39575C11.7607 3.39575 11.6365 3.5614 11.4709 3.72705C11.3052 3.89269 11.181 4.09975 11.181 4.09975C11.181 4.14116 11.7193 3.51999 11.9264 3.31293C11.9678 3.31293 11.7193 3.5614 11.7193 3.60281C11.7193 3.64422 11.7607 3.64422 11.6779 3.72705C11.6365 3.80987 11.5537 3.97552 11.388 4.14116C11.2638 4.2654 11.1396 4.43104 11.181 4.38963C11.2224 4.38963 11.3466 4.2654 11.2638 4.38963C11.181 4.47246 11.1396 4.51387 11.181 4.47246C11.2224 4.47246 11.3466 4.34822 11.4709 4.2654C11.5537 4.22399 11.8436 3.97552 11.7193 4.09975C11.6779 4.14116 11.388 4.43104 11.388 4.43104C11.4294 4.38963 11.9678 3.93411 11.9678 3.89269C11.8436 4.05834 12.1749 3.76846 12.092 3.85128C11.9678 4.01693 11.5951 4.34822 11.4294 4.51387C11.5537 4.38963 11.6365 4.30681 11.7607 4.22398C11.5537 4.43104 11.4294 4.6381 11.4294 4.6381C11.4294 4.67951 11.2638 4.92798 11.6365 4.55528C12.092 4.09975 11.8436 4.43105 12.2991 4.05834C12.3819 4.01693 12.6304 3.76846 12.5476 3.89269C12.4647 3.97552 12.2991 4.09975 12.2577 4.14116C12.0506 4.30681 12.5061 3.97551 12.2577 4.22398C12.0506 4.38963 11.885 4.55528 11.885 4.59669C11.885 4.6381 11.5951 4.84516 11.6365 4.84516C11.7607 4.76234 11.8436 4.72092 11.6779 4.84516C11.885 4.67951 12.6304 4.05834 12.7132 3.97552C12.8375 3.85128 13.4586 3.31293 13.1687 3.60281C12.6304 4.14116 13.5 3.35434 13.5 3.43717C13.5 3.47858 13.293 3.64422 13.1687 3.76846C12.9203 3.97552 13.0445 3.80987 12.9203 3.9341C12.9203 3.9341 12.6718 4.14116 12.4647 4.34822C12.3405 4.43104 12.2577 4.55528 12.1748 4.59669C12.092 4.67951 12.0506 4.72093 12.0506 4.72093C12.0506 4.72093 12.7132 4.22399 12.5062 4.38963C12.3819 4.51387 12.2991 4.59669 12.2163 4.67952C12.4233 4.51387 12.5061 4.51387 12.3819 4.6381C12.2163 4.80375 11.885 5.01081 11.8436 5.09363C12.092 4.88657 11.9264 5.05222 12.092 4.92799C12.1749 4.84516 12.3819 4.72093 12.4647 4.6381C12.4647 4.6381 12.5061 4.59669 12.5476 4.55528C12.7546 4.38963 13.3344 4.01693 13.5414 3.89269C13.3344 4.01693 13.0445 4.2654 12.9203 4.38963C12.9617 4.38963 12.6718 4.6381 12.6304 4.6381C12.6304 4.67951 13.7071 3.89269 13.7071 3.97552C13.6243 3.97552 12.7546 4.59669 12.4647 4.80375C12.092 5.05222 12.3819 4.88657 12.6304 4.72093C12.3819 4.88657 11.5537 5.50775 12.1334 5.13504C13.0445 4.51387 12.0092 5.25928 12.2577 5.13504C12.589 4.9694 12.8789 4.72093 12.8374 4.72093C12.796 4.72093 13.5414 4.2654 13.6657 4.18257C13.5 4.34822 13.293 4.47245 13.0859 4.6381C12.8788 4.80375 12.6304 4.92799 12.4647 5.09363C12.2991 5.21787 12.1749 5.30069 12.092 5.38351L12.7132 4.9694C12.7132 4.9694 12.2163 5.30069 12.1748 5.3421C12.0092 5.46634 12.2577 5.3421 12.3819 5.25928C12.2577 5.3421 12.1335 5.50775 12.092 5.50775C12.5062 5.25928 12.9617 4.92799 13.3758 4.72093C13.5 4.6381 13.5 4.67952 13.5 4.67952C13.5 4.67952 13.293 4.80375 13.2101 4.84516C12.9617 5.05222 13.5828 4.67951 13.7071 4.6381C13.7485 4.59669 13.8727 4.6381 13.7899 4.67952C13.7071 4.72093 13.4172 4.84516 13.1273 5.01081C13.0031 5.09363 12.3405 5.50775 12.2991 5.50775C12.4233 5.42493 13.293 4.9694 13.4586 4.88657C13.6657 4.80375 13.5 4.92798 13.293 5.05222C13.0445 5.17645 12.2991 5.63198 12.4647 5.59057C12.5061 5.59057 12.6718 5.50775 12.589 5.59057C12.5475 5.63198 12.3405 5.71481 12.3405 5.71481C12.2577 5.79763 13.0031 5.42492 13.1273 5.38351C13.2102 5.3421 12.8374 5.59057 12.796 5.63198C12.796 5.63198 12.4233 5.88045 12.8788 5.63198C13.2101 5.46634 13.5414 5.30069 13.6243 5.3421C13.2515 5.50775 12.2577 6.00469 12.589 5.88045C12.6304 5.92186 13.8313 5.30069 14.0798 5.21787C14.1212 5.21787 12.9617 5.75622 12.9203 5.75622C13.0031 5.75622 14.0384 5.25928 14.2869 5.17645C14.4939 5.09363 15.2807 4.80375 14.8666 4.88657Z" fill="#FBBC04"/>
<path d="M9.69004 3.23047C9.64863 3.3547 9.44157 3.76882 9.48298 3.76882L9.69004 3.23047Z" fill="#FBBC04"/>
<path d="M10.1872 0.911335C10.3115 0.704277 10.063 1.11839 10.1872 0.911335V0.911335Z" fill="#FBBC04"/>
<path d="M10.4351 3.39606C10.4765 3.39606 10.8906 2.69207 10.8906 2.65065C10.8906 2.65065 10.7249 2.77489 10.9734 2.4436C11.0562 2.31936 10.9734 2.48501 11.0976 2.31936C11.3047 1.98807 11.5117 1.57395 11.5532 1.4083C11.5946 1.20125 11.5118 1.20125 11.3875 1.36689C11.3047 1.44972 10.8906 2.19513 11.0562 1.82242C11.0976 1.69819 11.2633 1.4083 11.3461 1.28407C11.4289 1.11842 11.3461 1.15983 11.3047 1.20125C11.2633 1.20125 11.1391 1.44971 11.0562 1.53254C10.9734 1.61536 11.0148 1.49113 11.0562 1.36689C11.0562 1.28407 11.0562 0.869953 10.8492 1.36689C10.8078 1.44972 10.5179 2.07089 10.6007 1.86383C10.6835 1.65677 10.8078 1.4083 10.8906 1.20125C10.8492 1.32548 10.6007 1.69819 10.8078 1.20125C10.8906 0.952775 10.7249 1.36689 10.6835 1.36689C10.6421 1.36689 10.7663 0.994188 10.7663 0.952776C10.7663 0.911364 10.6007 1.32548 10.6007 1.20125C10.6421 1.0356 10.6835 0.82854 10.6421 0.82854C10.6421 0.82854 10.6007 0.911364 10.5593 0.952776C10.5179 1.0356 10.4765 1.07701 10.4765 1.07701C10.4351 1.07701 10.4765 0.911362 10.3936 0.911362C10.3522 0.911362 10.3936 0.704304 10.2694 0.911362C10.228 0.952774 10.1866 1.0356 10.1452 1.15983C10.1452 1.20125 10.228 1.07701 10.1866 1.20125C10.1452 1.36689 10.1038 1.53254 10.0623 1.7396C9.97952 2.07089 9.85529 2.48501 9.73106 2.8163C9.64823 3.02336 9.56541 3.27183 9.524 3.39606C9.48259 3.5203 9.68965 3.02336 9.73106 2.94053C9.8967 2.60924 9.68965 3.18901 9.73106 3.10618C9.73106 3.06477 9.85529 2.85771 9.85529 2.8163C9.81388 2.94054 9.68963 3.27183 9.68963 3.31324C9.68963 3.31324 10.1866 2.27795 10.228 2.15371C10.4765 1.7396 10.0623 2.56783 10.1037 2.56783C10.1037 2.56783 10.1452 2.48501 10.1866 2.40218C10.228 2.31936 10.2694 2.23654 10.3108 2.19513C10.3522 2.15371 10.2694 2.36077 10.228 2.4436C10.1452 2.69207 10.0209 2.94053 9.93812 3.189C9.97953 3.10618 10.3522 2.48501 10.3108 2.52642C10.1866 2.85771 9.8553 3.35465 9.81389 3.5203C9.73106 3.72736 10.1866 2.98195 9.89669 3.60312L10.2694 2.8163C10.3108 2.8163 9.97953 3.43748 10.1452 3.23042C10.228 3.10618 10.2694 3.06477 10.3936 2.8163C10.435 2.73348 10.4765 2.8163 10.4765 2.8163C10.3936 2.8163 10.0209 3.56171 10.2694 3.23042C10.3522 3.14759 10.1866 3.47889 10.1866 3.47889C10.1866 3.56171 10.3108 3.35465 10.3522 3.35465C10.3522 3.35465 10.1038 3.93442 10.3522 3.5203C10.4351 3.39606 10.6421 2.98195 10.6835 2.89912C10.7249 2.8163 10.6421 3.06477 10.7663 2.89912C10.8078 2.85771 10.8492 2.73348 10.8906 2.65065C10.932 2.56783 10.6007 3.31324 10.5179 3.43748C10.4765 3.43748 10.6835 3.02336 10.3522 3.60312C10.3522 3.64453 10.3522 3.76877 10.3522 3.76877C10.3936 3.76877 10.435 3.68595 10.3108 3.93442C10.3522 3.93442 10.3108 3.93442 10.3936 3.85159C10.435 3.60312 10.4765 3.39606 10.4351 3.39606Z" fill="#FBBC04"/>
<path d="M8.32324 2.73321C8.36465 2.56756 8.32324 2.77462 8.32324 2.73321V2.73321Z" fill="#FBBC04"/>
<path d="M9.40053 3.14744C9.40053 3.10603 9.48334 2.6091 9.52476 2.6091C9.44193 2.94039 9.89747 1.69804 9.81464 2.07074C9.73182 2.2778 9.64898 2.60909 9.69039 2.56768C9.69039 2.56768 9.7318 2.56768 9.77322 2.40204C9.98027 1.82227 9.89745 1.82227 9.98027 1.49098C10.0217 1.28392 10.2287 0.745567 10.1873 0.704156C10.1459 0.662744 10.1045 0.704158 10.0631 0.74557C10.0217 0.786982 9.89745 1.07686 9.89745 0.869803C9.89745 0.745568 9.93888 0.704158 9.81464 0.952628C9.81464 0.952628 9.7318 1.03545 9.77322 0.869803C9.77322 0.911215 9.64899 1.24251 9.64899 1.24251C9.64899 1.15969 9.81464 0.704157 9.81464 0.621334C9.81464 0.579922 9.69039 0.78698 9.69039 0.828392C9.60756 0.952627 9.48333 1.44957 9.56616 1.32533C9.44192 1.73945 9.52474 1.32533 9.48333 1.49098C9.48333 1.53239 9.44194 1.69804 9.40053 1.86368C9.35911 2.02933 9.3177 2.15356 9.3177 2.15356C9.27629 2.15356 9.52475 1.36674 9.56616 1.15969C9.60757 0.952628 9.60757 0.78698 9.64899 0.662745C9.64899 0.579921 9.56616 0.331451 9.56616 0.290039C9.56616 0.331451 9.44193 0.869804 9.44193 0.994039C9.40052 0.994039 9.52474 0.497098 9.48333 0.455686C9.44192 0.372863 9.35911 0.621334 9.3177 0.828392C9.23487 1.03545 9.23487 0.952626 9.3177 0.662745C9.35911 0.414275 9.27627 0.497097 9.27627 0.497097C9.27627 0.497097 9.19345 0.455687 9.15204 0.621334C9.11063 0.704157 9.0278 1.15969 9.06921 0.952628C9.11062 0.372865 9.11064 0.414277 8.98641 1.15969C8.945 1.15969 9.06921 0.704158 9.06921 0.579923C9.0278 0.579923 9.02781 0.290042 9.02781 0.331453C8.9864 0.372865 8.90357 1.32533 8.86215 0.952628C8.86215 0.74557 8.94498 0.414275 8.86215 0.455686C8.82074 0.455686 8.77935 0.869803 8.69652 1.07686C8.69652 1.11827 8.57229 1.65662 8.57229 1.69804C8.57229 1.73945 8.65512 1.86368 8.57229 2.2778C8.53088 2.56768 8.48945 2.2778 8.44804 2.65051C8.44804 2.65051 8.36523 3.10603 8.36523 3.3545C8.36523 3.18886 8.40663 3.02321 8.44804 2.89898C8.40663 3.14745 8.40663 3.43733 8.44804 3.39591C8.48945 3.31309 8.57228 3.02321 8.61369 2.77474C8.65511 2.52627 8.77934 1.94651 8.73792 2.31921C8.69651 2.73333 8.73793 2.52627 8.82075 2.19498C8.77934 2.40204 8.77935 2.65051 8.77935 2.65051C8.73794 2.65051 8.65511 3.02321 8.69652 3.06462C8.69652 3.06462 8.69651 3.23027 8.73792 3.23027C8.77934 3.23027 9.02782 1.9051 8.98641 2.2778C8.945 2.60909 8.69652 3.6858 8.82075 3.31309C8.86216 3.18886 8.945 2.85757 8.98641 2.6091C9.02782 2.31921 9.06922 2.31921 9.15204 1.98792C9.19345 1.98792 9.02782 2.60909 8.98641 2.73333C8.945 2.94039 8.86216 3.23027 8.82075 3.43733C8.77934 3.60298 8.86215 3.39592 8.86215 3.27168C8.94498 2.9818 9.02782 2.48486 9.11064 2.2778C9.15205 2.19498 9.15205 2.31921 9.11064 2.48486C9.06923 2.48486 8.90358 3.10603 8.90358 3.14744C8.90358 3.14744 8.98639 2.94039 8.94498 3.10603C8.90357 3.31309 8.90357 3.23027 8.94498 3.23027C8.98639 3.23027 8.90358 3.47874 8.90358 3.47874C8.90358 3.47874 8.9864 3.39592 9.02781 3.27168C9.11063 3.14745 9.15206 3.02321 9.19347 2.94039C9.19347 3.02321 9.11064 3.18886 9.11064 3.27168C9.06923 3.39592 9.11063 3.3545 9.15204 3.31309C9.19345 3.31309 9.15206 3.52015 9.19347 3.43733C9.23488 3.39592 9.40051 2.81615 9.3591 3.02321C9.31769 3.14745 9.23486 3.52015 9.3591 3.18886C9.23486 3.52015 9.40053 3.27168 9.40053 3.43733C9.35911 3.6858 9.69039 2.77474 9.77322 2.52627C9.56616 2.89897 9.40053 3.14744 9.40053 3.14744Z" fill="#FBBC04"/>
<path d="M8.19922 3.64416C8.19922 3.60275 8.19921 3.51993 8.24062 3.47852C8.24062 3.51993 8.24063 3.56134 8.19922 3.64416Z" fill="#FBBC04"/>
<path d="M7.82641 2.89884C7.785 3.76849 7.86782 2.85743 7.82641 2.89884V2.89884Z" fill="#FBBC04"/>
<path d="M8.57181 0.414657C8.5304 0.373245 8.48897 0.331833 8.44755 0.414657C8.44755 0.456068 8.32334 0.787361 8.36475 0.456068C8.32334 0.621714 8.24051 0.74595 8.28192 0.621715C8.28192 0.538892 8.32332 0.414656 8.32332 0.456068C8.28191 0.290421 8.1991 0.373246 8.15769 0.373246C8.11628 0.373246 7.99205 0.249011 7.95063 0.787362C7.95063 0.870186 7.90922 0.580303 7.95063 0.456068C7.86781 0.953008 7.8264 0.290422 7.74358 0.373246C7.70216 0.414657 7.70215 1.57418 7.70215 2.02971C7.70215 2.02971 7.70215 2.07112 7.70215 2.15395C7.70215 2.361 7.70215 2.6923 7.70215 2.94077C7.70215 2.94077 7.70216 2.56806 7.74358 2.44383C7.78499 2.23677 7.78498 2.73371 7.78498 2.85795C7.78498 2.98218 7.82639 2.40242 7.86781 2.361C7.90922 2.19536 7.90921 2.36101 7.90921 2.27818C7.90921 2.27818 7.90922 2.02971 7.95063 1.82265C7.95063 1.6156 7.99204 1.44995 7.99204 1.6156C7.99204 1.73983 7.95063 2.52665 7.95063 2.56806C7.90922 3.27206 7.90922 3.56194 7.95063 3.35488C7.95063 3.31347 8.07486 3.18924 8.07486 3.02359C8.11628 2.6923 8.03344 2.85795 8.03344 2.81653C7.99203 2.73371 7.99203 2.52665 8.03344 2.23677C8.07485 2.07112 7.99203 1.78124 8.03344 1.57418C8.03344 1.49136 8.07486 1.78124 8.07486 1.82265C8.07486 1.90548 8.11627 1.73983 8.11627 1.78124C8.11627 1.82265 8.07485 2.19536 8.11627 2.23677C8.11627 2.23677 8.15769 2.11254 8.15769 2.19536C8.15769 2.27818 8.15769 3.065 8.15769 3.02359C8.15769 3.02359 8.19909 2.60947 8.19909 2.56806C8.24051 2.361 8.24051 2.361 8.28192 2.11253C8.32333 1.94689 8.36474 1.40854 8.40615 1.32571C8.44756 1.20148 8.40615 1.65701 8.40615 1.6156C8.40615 1.57418 8.44757 1.03583 8.48898 0.911595C8.53039 0.745949 8.5304 0.580303 8.57181 0.414657C8.5304 0.74595 8.48898 1.16007 8.48898 1.40854C8.48898 1.40854 8.48898 1.49136 8.48898 1.6156C8.48898 1.73983 8.48897 1.86406 8.44755 1.90548C8.40614 1.94689 8.44756 1.73983 8.40615 1.90548C8.36474 2.02971 8.32332 2.19536 8.32332 2.40242C8.32332 2.48524 8.19908 3.3963 8.2405 3.35488C8.2405 3.35488 8.2405 3.31347 8.2405 3.23065C8.2405 3.14783 8.28192 3.065 8.28192 2.94077C8.32333 2.73371 8.32332 2.52665 8.32332 2.44383C8.32332 2.60948 8.28192 3.31347 8.28192 3.27206C8.28192 3.27206 8.36474 2.48524 8.40615 2.40242C8.40615 2.40242 8.48898 1.90548 8.48898 1.82265C8.44757 1.69842 8.65463 0.49748 8.57181 0.414657Z" fill="#FBBC04"/>
<path d="M7.70196 1.4079C7.66055 1.28366 7.66056 1.20084 7.66056 0.662485C7.66056 0.331192 7.61914 0.455426 7.57773 0.496838C7.49491 0.579661 7.37066 0.579663 7.41207 1.4079C7.37066 1.44931 7.37067 0.993779 7.37067 0.828132C7.32926 0.869544 7.37066 1.61495 7.41207 1.86342C7.45348 2.23613 7.49491 2.4846 7.4535 1.90483C7.4535 2.11189 7.57773 3.5613 7.57773 3.31283C7.53632 2.73307 7.49491 1.53213 7.57773 1.49072C7.57773 1.65636 7.57773 1.82201 7.57773 1.98766C7.57773 2.31895 7.57773 2.69166 7.57773 3.06436C7.57773 3.64413 7.57773 2.36036 7.57773 2.02907C7.61914 2.23613 7.66056 2.69166 7.66056 2.36036C7.66056 2.11189 7.66056 1.86342 7.66056 1.65637C7.70197 1.69778 7.74337 1.44931 7.70196 1.4079Z" fill="#FBBC04"/>
<path d="M7.41211 3.27151C7.45352 3.6028 7.45352 3.35433 7.41211 3.06445C7.41211 3.10586 7.41211 3.18869 7.41211 3.27151Z" fill="#FBBC04"/>
</svg>
