<svg width="40" height="40" viewBox="0 0 40 40" fill="none" xmlns="http://www.w3.org/2000/svg">
<path d="M25.3919 7.13153H14.6082C9.92405 7.13153 7.13159 9.92399 7.13159 14.6081V25.3919C7.13159 30.076 9.92405 32.8685 14.6082 32.8685H25.3919C30.0761 32.8685 32.8685 30.076 32.8685 25.3919V14.6081C32.8685 9.92399 30.0761 7.13153 25.3919 7.13153ZM17.3878 23.7319L14.4924 26.6273C14.2993 26.8203 14.0548 26.9104 13.8103 26.9104C13.5658 26.9104 13.3085 26.8203 13.1283 26.6273L12.1632 25.6621C11.7771 25.2889 11.7771 24.6712 12.1632 24.2981C12.5363 23.9249 13.1412 23.9249 13.5272 24.2981L13.8103 24.5812L16.0237 22.3678C16.3969 21.9946 17.0017 21.9946 17.3878 22.3678C17.7609 22.741 17.7609 23.3587 17.3878 23.7319ZM17.3878 14.7239L14.4924 17.6193C14.2993 17.8124 14.0548 17.9024 13.8103 17.9024C13.5658 17.9024 13.3085 17.8124 13.1283 17.6193L12.1632 16.6542C11.7771 16.281 11.7771 15.6633 12.1632 15.2901C12.5363 14.917 13.1412 14.917 13.5272 15.2901L13.8103 15.5732L16.0237 13.3599C16.3969 12.9867 17.0017 12.9867 17.3878 13.3599C17.7609 13.7331 17.7609 14.3507 17.3878 14.7239ZM27.1549 25.9452H20.399C19.8714 25.9452 19.4338 25.5077 19.4338 24.9801C19.4338 24.4525 19.8714 24.015 20.399 24.015H27.1549C27.6954 24.015 28.1201 24.4525 28.1201 24.9801C28.1201 25.5077 27.6954 25.9452 27.1549 25.9452ZM27.1549 16.9373H20.399C19.8714 16.9373 19.4338 16.4998 19.4338 15.9722C19.4338 15.4446 19.8714 15.007 20.399 15.007H27.1549C27.6954 15.007 28.1201 15.4446 28.1201 15.9722C28.1201 16.4998 27.6954 16.9373 27.1549 16.9373Z" fill="#2B80F9"/>
</svg>
