<svg width="40" height="40" viewBox="0 0 40 40" fill="none" xmlns="http://www.w3.org/2000/svg">
<path d="M26.8072 16.7898C27.2905 15.8017 28.1281 15.0588 29.1698 14.7003C29.6056 14.5499 30.0549 14.4922 30.502 14.4901V8.62228C30.502 6.91809 29.1152 5.53125 27.411 5.53125H10.9255C9.22132 5.53125 7.83447 6.91809 7.83447 8.62228V29.2292C7.83447 30.9334 9.22132 32.3202 10.9255 32.3202H21.1764L21.0651 31.9967C20.6169 30.6892 20.7045 29.292 21.3093 28.0566L26.8072 16.7898ZM11.9558 11.7133H24.32C24.8898 11.7133 25.3503 12.1749 25.3503 12.7437C25.3503 13.3124 24.8898 13.774 24.32 13.774H11.9558C11.3861 13.774 10.9255 13.3124 10.9255 12.7437C10.9255 12.1749 11.3861 11.7133 11.9558 11.7133ZM11.9558 15.8347H23.2896C23.8594 15.8347 24.32 16.2963 24.32 16.865C24.32 17.4338 23.8594 17.8954 23.2896 17.8954H11.9558C11.3861 17.8954 10.9255 17.4338 10.9255 16.865C10.9255 16.2963 11.3861 15.8347 11.9558 15.8347ZM19.1683 26.1381H11.9558C11.3861 26.1381 10.9255 25.6765 10.9255 25.1078C10.9255 24.539 11.3861 24.0774 11.9558 24.0774H19.1683C19.738 24.0774 20.1986 24.539 20.1986 25.1078C20.1986 25.6765 19.738 26.1381 19.1683 26.1381ZM11.9558 22.0168C11.3861 22.0168 10.9255 21.5552 10.9255 20.9864C10.9255 20.4177 11.3861 19.9561 11.9558 19.9561H21.2289C21.7987 19.9561 22.2593 20.4177 22.2593 20.9864C22.2593 21.5552 21.7987 22.0168 21.2289 22.0168H11.9558ZM34.2154 20.4043L28.7154 31.6752C28.3517 32.4181 27.7222 32.9745 26.9422 33.2424L24.9938 33.9121C24.8836 33.9502 24.7692 33.9688 24.659 33.9688C24.2314 33.9688 23.8316 33.7009 23.6853 33.2733L23.0145 31.3249C22.7456 30.5418 22.7982 29.7031 23.1608 28.9623L28.6608 17.6934C28.9009 17.1989 29.3213 16.8279 29.8416 16.6487C30.3609 16.4694 30.9204 16.5024 31.4149 16.7455L33.2675 17.6491C33.7621 17.8902 34.133 18.3106 34.3123 18.8309C34.4915 19.3513 34.4575 19.9097 34.2154 20.4043Z" fill="#2B80F9"/>
</svg>
