<svg width="85" height="85" viewBox="0 0 85 85" fill="none" xmlns="http://www.w3.org/2000/svg">
<mask id="mask0_297_1777" style="mask-type:luminance" maskUnits="userSpaceOnUse" x="0" y="0" width="85" height="85">
<path d="M84.5878 0.581177H0.830078V84.3389H84.5878V0.581177Z" fill="white"/>
</mask>
<g mask="url(#mask0_297_1777)">
<path d="M62.3236 29.0019C61.8191 28.5132 61.1113 28.2912 60.4187 28.4047C59.7249 28.5178 59.1256 28.9521 58.8036 29.5752C57.6966 31.7191 56.2905 33.6893 54.636 35.4309C54.801 34.1727 54.884 32.9071 54.884 31.6382C54.884 29.2032 54.5566 26.6975 53.9106 24.1897C51.7867 15.9527 46.2173 8.9868 38.6309 5.07817C37.9704 4.73799 37.1834 4.74994 36.5336 5.11001C35.8838 5.47026 35.4582 6.1307 35.3999 6.86948C34.8085 14.3549 30.9406 21.1649 24.782 25.558C24.7004 25.6164 24.6195 25.6758 24.5386 25.7347C24.371 25.857 24.213 25.9727 24.0653 26.0697C24.0423 26.0849 24.0194 26.1006 23.9968 26.1167C20.1236 28.881 16.9276 32.5659 14.7541 36.7742C12.5457 41.0546 11.4258 45.6481 11.4258 50.4263C11.4258 52.8606 11.7532 55.3662 12.3989 57.8744C15.8064 71.0949 27.7416 80.3282 41.4233 80.3282C57.963 80.3282 71.4189 66.9142 71.4189 50.4263C71.4189 42.2956 68.1889 34.687 62.3236 29.0019Z" fill="#EE6030"/>
</g>
</svg>
