<svg width="1535" height="767" viewBox="0 0 1535 767" fill="none" xmlns="http://www.w3.org/2000/svg">
<path d="M2.00002 256.394L257.092 256.394L257.092 2.00016" stroke="#FFB8A2" stroke-width="2.26761" stroke-miterlimit="10"/>
<path d="M129.62 256.47C200.062 256.47 257.166 199.522 257.166 129.273C257.166 59.0242 200.062 2.07617 129.62 2.07617C59.1785 2.07617 2.07422 59.0242 2.07422 129.273C2.07422 199.522 59.1785 256.47 129.62 256.47Z" stroke="#FFB8A2" stroke-width="2.26761" stroke-miterlimit="10"/>
<path d="M257.166 256.394L512.258 256.394V2.00016" stroke="#FFB8A2" stroke-width="2.26761" stroke-miterlimit="10"/>
<path d="M384.786 256.47C455.228 256.47 512.332 199.522 512.332 129.273C512.332 59.0239 455.228 2.07593 384.786 2.07593C314.344 2.07593 257.24 59.0239 257.24 129.273C257.24 199.522 314.344 256.47 384.786 256.47Z" stroke="#FFB8A2" stroke-width="2.26761" stroke-miterlimit="10"/>
<path d="M512.332 256.394L767.424 256.394V2.00028" stroke="#FFB8A2" stroke-width="2.26761" stroke-miterlimit="10"/>
<path d="M639.954 256.47C710.396 256.47 767.5 199.522 767.5 129.273C767.5 59.0239 710.396 2.07593 639.954 2.07593C569.512 2.07593 512.408 59.0239 512.408 129.273C512.408 199.522 569.512 256.47 639.954 256.47Z" stroke="#FFB8A2" stroke-width="2.26761" stroke-miterlimit="10"/>
<path d="M767.5 256.394L1022.59 256.394V2.00004" stroke="#FFB8A2" stroke-width="2.26761" stroke-miterlimit="10"/>
<path d="M895.12 256.47C965.562 256.47 1022.67 199.522 1022.67 129.273C1022.67 59.024 965.562 2.07605 895.12 2.07605C824.678 2.07605 767.574 59.024 767.574 129.273C767.574 199.522 824.678 256.47 895.12 256.47Z" stroke="#FFB8A2" stroke-width="2.26761" stroke-miterlimit="10"/>
<path d="M1278.14 256.432V2.03811" stroke="#FFB8A2" stroke-width="2.26761" stroke-miterlimit="10"/>
<path d="M1278.14 256.394L1533.24 256.394V2.00016" stroke="#FFB8A2" stroke-width="2.26761" stroke-miterlimit="10"/>
<path d="M1405.76 256.47C1476.21 256.47 1533.31 199.522 1533.31 129.273C1533.31 59.0239 1476.21 2.07593 1405.76 2.07593C1335.32 2.07593 1278.22 59.0239 1278.22 129.273C1278.22 199.522 1335.32 256.47 1405.76 256.47Z" stroke="#FFB8A2" stroke-width="2.26761" stroke-miterlimit="10"/>
<path d="M2.00002 510.864L257.092 510.864L257.092 256.47" stroke="#FFB8A2" stroke-width="2.26761" stroke-miterlimit="10"/>
<path d="M129.62 510.94C200.062 510.94 257.166 453.992 257.166 383.743C257.166 313.494 200.062 256.546 129.62 256.546C59.1785 256.546 2.07422 313.494 2.07422 383.743C2.07422 453.992 59.1785 510.94 129.62 510.94Z" stroke="#FFB8A2" stroke-width="2.26761" stroke-miterlimit="10"/>
<path d="M513.152 510.94L768.244 510.94H768.243" stroke="#FFB8A2" stroke-width="2.26761" stroke-miterlimit="10"/>
<path d="M1023.34 510.94L768.244 510.94" stroke="#FFB8A2" stroke-width="2.26761" stroke-miterlimit="10"/>
<path d="M1023.34 510.94L1278.43 510.94V256.546" stroke="#FFB8A2" stroke-width="2.26761" stroke-miterlimit="10"/>
<path d="M1278.43 510.864L1533.52 510.864V256.47" stroke="#FFB8A2" stroke-width="2.26761" stroke-miterlimit="10"/>
<path d="M1406.05 510.94C1476.49 510.94 1533.59 453.992 1533.59 383.743C1533.59 313.494 1476.49 256.546 1406.05 256.546C1335.61 256.546 1278.5 313.494 1278.5 383.743C1278.5 453.992 1335.61 510.94 1406.05 510.94Z" stroke="#FFB8A2" stroke-width="2.26761" stroke-miterlimit="10"/>
<path d="M2.00002 765.334H257.092L257.092 510.94" stroke="#FFB8A2" stroke-width="2.26761" stroke-miterlimit="10"/>
<path d="M129.62 765.41C200.062 765.41 257.166 708.462 257.166 638.213C257.166 567.964 200.062 511.016 129.62 511.016C59.1785 511.016 2.07422 567.964 2.07422 638.213C2.07422 708.462 59.1785 765.41 129.62 765.41Z" stroke="#FFB8A2" stroke-width="2.26761" stroke-miterlimit="10"/>
<path d="M257.166 765.334H512.258V510.94" stroke="#FFB8A2" stroke-width="2.26761" stroke-miterlimit="10"/>
<path d="M512.258 765.334H767.35V510.94" stroke="#FFB8A2" stroke-width="2.26761" stroke-miterlimit="10"/>
<path d="M639.88 765.409C710.322 765.409 767.426 708.461 767.426 638.213C767.426 567.964 710.322 511.016 639.88 511.016C569.438 511.016 512.334 567.964 512.334 638.213C512.334 708.461 569.438 765.409 639.88 765.409Z" stroke="#FFB8A2" stroke-width="2.26761" stroke-miterlimit="10"/>
<path d="M767.426 765.334H1022.52V510.94" stroke="#FFB8A2" stroke-width="2.26761" stroke-miterlimit="10"/>
<path d="M895.046 765.41C965.488 765.41 1022.59 708.462 1022.59 638.213C1022.59 567.964 965.488 511.016 895.046 511.016C824.604 511.016 767.5 567.964 767.5 638.213C767.5 708.462 824.604 765.41 895.046 765.41Z" stroke="#FFB8A2" stroke-width="2.26761" stroke-miterlimit="10"/>
<path d="M1022.59 765.334H1277.68V510.94" stroke="#FFB8A2" stroke-width="2.26761" stroke-miterlimit="10"/>
<path d="M1150.21 765.409C1220.65 765.409 1277.76 708.461 1277.76 638.213C1277.76 567.964 1220.65 511.016 1150.21 511.016C1079.77 511.016 1022.67 567.964 1022.67 638.213C1022.67 708.461 1079.77 765.409 1150.21 765.409Z" stroke="#FFB8A2" stroke-width="2.26761" stroke-miterlimit="10"/>
<path d="M1277.76 765.334H1532.85V510.94" stroke="#FFB8A2" stroke-width="2.26761" stroke-miterlimit="10"/>
<path d="M1405.38 765.41C1475.82 765.41 1532.92 708.462 1532.92 638.213C1532.92 567.964 1475.82 511.016 1405.38 511.016C1334.94 511.016 1277.83 567.964 1277.83 638.213C1277.83 708.462 1334.94 765.41 1405.38 765.41Z" stroke="#FFB8A2" stroke-width="2.26761" stroke-miterlimit="10"/>
<mask id="path-30-inside-1_295_1431" fill="white">
<path d="M492.065 570.865C491.804 569.368 491.835 569.613 492.065 570.865L488.83 565.154C483.198 555.717 475.93 547.097 467.283 539.598C460.968 534.116 453.967 529.271 446.412 525.156C446.457 525.092 446.495 525.021 446.541 524.955C448.913 521.377 451.293 517.803 453.667 514.223L460.628 503.741C462.299 501.233 463.965 498.72 465.625 496.212C466.019 495.616 466.332 495.002 466.565 494.37C467.359 492.216 467.241 489.886 466.234 487.802C466.038 487.395 465.811 487.002 465.551 486.621C464.632 485.279 463.344 484.158 461.802 483.361C460.4 482.636 458.828 482.194 457.203 482.07C456.525 482.02 455.843 482.026 455.165 482.086C454.607 482.136 454.051 482.224 453.498 482.351C452.126 482.668 450.839 483.219 449.711 483.971C448.583 484.724 447.636 485.663 446.925 486.736C445.258 489.244 443.591 491.757 441.928 494.265L434.966 504.747C432.593 508.327 430.213 511.901 427.84 515.48C427.581 515.87 427.319 516.26 427.061 516.657C426.702 516.53 426.343 516.406 425.984 516.286C412.899 511.93 398.704 509.548 383.866 509.548C383.46 509.548 383.059 509.548 382.65 509.553C369.457 509.668 356.781 511.671 344.955 515.264C343.592 515.68 342.238 516.119 340.894 516.581C340.653 516.216 340.405 515.85 340.168 515.485C337.795 511.906 335.415 508.331 333.042 504.752L326.081 494.269C324.411 491.761 322.745 489.251 321.083 486.74C320.055 485.19 318.543 483.927 316.723 483.101C314.902 482.275 312.85 481.919 310.806 482.075C309.179 482.195 307.605 482.637 306.202 483.368C304.662 484.165 303.375 485.285 302.456 486.627C302.198 487.007 301.967 487.402 301.774 487.808C300.767 489.892 300.648 492.222 301.439 494.376C301.677 495.007 301.985 495.623 302.379 496.218C304.049 498.725 305.715 501.235 307.377 503.746C309.7 507.241 312.022 510.735 314.342 514.229C316.714 517.808 319.091 521.383 321.463 524.962C321.482 524.992 321.506 525.022 321.523 525.052C316.748 527.641 312.19 530.523 307.884 533.677C300.18 539.321 293.326 545.793 287.485 552.94C284.301 556.835 281.433 560.92 278.902 565.164C274.533 572.478 275.985 570.865 275.985 570.865H492.065C492.327 572.361 491.877 569.348 492.065 570.865Z"/>
</mask>
<path d="M488.83 565.154L490.801 564.037L490.788 564.015L490.775 563.993L488.83 565.154ZM467.283 539.598L465.798 541.308L465.799 541.309L467.283 539.598ZM446.412 525.156L444.558 523.855L443.101 525.931L445.329 527.145L446.412 525.156ZM446.541 524.955L448.397 526.252L448.413 526.23L448.428 526.207L446.541 524.955ZM453.667 514.223L451.78 512.97L451.779 512.972L453.667 514.223ZM460.628 503.741L458.743 502.485L458.742 502.488L460.628 503.741ZM465.625 496.212L467.513 497.462L467.514 497.46L465.625 496.212ZM466.565 494.37L464.44 493.586L464.44 493.587L466.565 494.37ZM466.234 487.802L464.194 488.786L464.195 488.787L466.234 487.802ZM465.551 486.621L467.424 485.347L467.42 485.342L465.551 486.621ZM461.802 483.361L460.762 485.373L460.762 485.373L461.802 483.361ZM457.203 482.07L457.376 479.812L457.368 479.811L457.203 482.07ZM455.165 482.086L454.965 479.83L454.962 479.83L455.165 482.086ZM453.498 482.351L452.994 480.143L452.988 480.144L453.498 482.351ZM446.925 486.736L448.811 487.989L448.812 487.987L446.925 486.736ZM441.928 494.265L443.814 495.517L443.815 495.516L441.928 494.265ZM434.966 504.747L433.08 503.495L433.079 503.496L434.966 504.747ZM427.84 515.48L429.727 516.732L429.728 516.731L427.84 515.48ZM427.061 516.657L426.307 518.792L427.986 519.385L428.958 517.893L427.061 516.657ZM425.984 516.286L426.704 514.139L426.699 514.137L425.984 516.286ZM382.65 509.553L382.669 511.818L382.676 511.817L382.65 509.553ZM344.955 515.264L344.297 513.097L344.295 513.098L344.955 515.264ZM340.894 516.581L339.004 517.828L339.97 519.294L341.631 518.723L340.894 516.581ZM340.168 515.485L342.068 514.253L342.062 514.243L342.055 514.233L340.168 515.485ZM333.042 504.752L334.93 503.501L334.929 503.5L333.042 504.752ZM326.081 494.269L327.967 493.016L327.966 493.013L326.081 494.269ZM321.083 486.74L322.971 485.49L322.97 485.489L321.083 486.74ZM310.806 482.075L310.973 484.333L310.978 484.333L310.806 482.075ZM306.202 483.368L307.243 485.379L307.249 485.376L306.202 483.368ZM302.456 486.627L300.587 485.348L300.583 485.354L302.456 486.627ZM301.774 487.808L303.813 488.794L303.816 488.787L303.82 488.781L301.774 487.808ZM301.439 494.376L299.313 495.157L299.317 495.166L299.32 495.176L301.439 494.376ZM302.379 496.218L300.491 497.468L300.494 497.473L302.379 496.218ZM307.377 503.746L305.488 504.996L305.491 505L307.377 503.746ZM314.342 514.229L316.229 512.978L316.229 512.977L314.342 514.229ZM321.463 524.962L323.403 523.792L323.378 523.751L323.351 523.71L321.463 524.962ZM321.523 525.052L322.602 527.042L324.664 525.925L323.475 523.903L321.523 525.052ZM307.884 533.677L306.546 531.85L306.546 531.85L307.884 533.677ZM287.485 552.94L285.731 551.506L285.731 551.507L287.485 552.94ZM278.902 565.164L280.847 566.325L280.848 566.324L278.902 565.164ZM275.985 570.865V568.6H274.977L274.302 569.35L275.985 570.865ZM494.292 570.454C494.168 569.779 494.121 569.498 494.128 569.551C494.129 569.562 494.132 569.584 494.135 569.613C494.135 569.621 494.145 569.713 494.145 569.83C494.145 569.83 494.153 570.091 494.073 570.399C493.998 570.636 493.583 571.326 493.164 571.698C492.318 572.054 490.851 571.849 490.371 571.52C490.189 571.337 489.956 571.026 489.89 570.913C489.855 570.844 489.801 570.728 489.781 570.681C489.746 570.593 489.723 570.522 489.716 570.497C489.697 570.437 489.686 570.389 489.682 570.376C489.677 570.356 489.674 570.34 489.672 570.332C489.668 570.314 489.665 570.301 489.664 570.297C489.661 570.282 489.66 570.277 489.664 570.296C489.669 570.324 489.679 570.377 489.694 570.459C489.723 570.622 489.77 570.883 489.834 571.255L494.296 570.475C494.23 570.098 494.182 569.829 494.151 569.655C494.136 569.57 494.124 569.503 494.115 569.458C494.112 569.44 494.106 569.41 494.1 569.381C494.098 569.373 494.095 569.357 494.091 569.337C494.088 569.328 494.085 569.311 494.079 569.29C494.076 569.277 494.064 569.229 494.046 569.168C494.038 569.143 494.016 569.071 493.98 568.983C493.96 568.936 493.907 568.82 493.871 568.752C493.805 568.638 493.572 568.327 493.391 568.144C492.91 567.815 491.443 567.61 490.597 567.966C490.179 568.338 489.763 569.029 489.688 569.265C489.608 569.574 489.616 569.834 489.616 569.835C489.616 569.952 489.626 570.044 489.627 570.053C489.63 570.082 489.632 570.106 489.634 570.117C489.648 570.231 489.732 570.699 489.838 571.275L494.292 570.454ZM494.036 569.749L490.801 564.037L486.86 566.27L490.095 571.981L494.036 569.749ZM490.775 563.993C485.014 554.341 477.588 545.537 468.766 537.887L465.799 541.309C474.272 548.657 481.382 557.093 486.886 566.314L490.775 563.993ZM468.767 537.888C462.326 532.296 455.19 527.358 447.495 523.167L445.329 527.145C452.745 531.184 459.611 535.936 465.798 541.308L468.767 537.888ZM448.266 526.457C448.303 526.403 448.334 526.356 448.357 526.32C448.378 526.287 448.397 526.255 448.406 526.24C448.412 526.231 448.415 526.226 448.418 526.222C448.42 526.218 448.421 526.217 448.42 526.218C448.419 526.219 448.411 526.233 448.397 526.252L444.684 523.658C444.647 523.711 444.617 523.758 444.595 523.793C444.574 523.826 444.554 523.858 444.546 523.872C444.534 523.891 444.532 523.893 444.533 523.893C444.534 523.891 444.543 523.876 444.558 523.855L448.266 526.457ZM448.428 526.207C450.742 522.718 453.236 518.97 455.554 515.474L451.779 512.972C449.35 516.636 447.085 520.036 444.653 523.704L448.428 526.207ZM455.553 515.476L462.515 504.994L458.742 502.488L451.78 512.97L455.553 515.476ZM462.513 504.996C464.185 502.486 465.853 499.97 467.513 497.462L463.736 494.962C462.078 497.469 460.412 499.98 458.743 502.485L462.513 504.996ZM467.514 497.46C467.999 496.727 468.393 495.958 468.69 495.152L464.44 493.587C464.271 494.046 464.039 494.504 463.735 494.964L467.514 497.46ZM468.69 495.153C469.698 492.417 469.545 489.449 468.273 486.816L464.195 488.787C464.938 490.323 465.019 492.015 464.44 493.586L468.69 495.153ZM468.274 486.818C468.028 486.309 467.744 485.818 467.424 485.347L463.679 487.895C463.877 488.185 464.048 488.482 464.194 488.786L468.274 486.818ZM467.42 485.342C466.276 483.67 464.693 482.307 462.843 481.35L460.762 485.373C461.994 486.01 462.989 486.888 463.683 487.901L467.42 485.342ZM462.843 481.35C461.162 480.48 459.294 479.959 457.376 479.812L457.03 484.328C458.362 484.43 459.637 484.791 460.762 485.373L462.843 481.35ZM457.368 479.811C456.568 479.753 455.764 479.759 454.965 479.83L455.366 484.342C455.922 484.292 456.482 484.288 457.038 484.329L457.368 479.811ZM454.962 479.83C454.301 479.89 453.645 479.994 452.994 480.143L454.003 484.558C454.457 484.455 454.912 484.383 455.368 484.341L454.962 479.83ZM452.988 480.144C451.36 480.521 449.818 481.177 448.454 482.087L450.968 485.855C451.86 485.26 452.892 484.815 454.009 484.557L452.988 480.144ZM448.454 482.087C447.09 482.998 445.924 484.148 445.037 485.484L448.812 487.987C449.348 487.179 450.076 486.45 450.968 485.855L448.454 482.087ZM445.039 485.482C443.371 487.992 441.704 490.506 440.041 493.013L443.815 495.516C445.478 493.009 447.145 490.497 448.811 487.989L445.039 485.482ZM440.041 493.012L433.08 503.495L436.853 506L443.814 495.517L440.041 493.012ZM433.079 503.496C430.716 507.059 428.318 510.66 425.953 514.229L429.728 516.731C432.108 513.141 434.469 509.594 436.854 505.999L433.079 503.496ZM425.953 514.228C425.704 514.604 425.428 515.014 425.164 515.42L428.958 517.893C429.21 517.507 429.458 517.137 429.727 516.732L425.953 514.228ZM427.815 514.521C427.445 514.39 427.074 514.263 426.704 514.139L425.264 518.433C425.612 518.55 425.959 518.669 426.307 518.792L427.815 514.521ZM426.699 514.137C413.383 509.705 398.947 507.284 383.866 507.284V511.813C398.462 511.813 412.415 514.156 425.269 518.435L426.699 514.137ZM383.866 507.284C383.462 507.284 383.047 507.284 382.623 507.289L382.676 511.817C383.07 511.813 383.458 511.813 383.866 511.813V507.284ZM382.63 507.288C369.221 507.405 356.33 509.441 344.297 513.097L345.614 517.431C357.233 513.9 369.694 511.93 382.669 511.818L382.63 507.288ZM344.295 513.098C342.906 513.521 341.526 513.969 340.157 514.44L341.631 518.723C342.949 518.269 344.278 517.838 345.616 517.43L344.295 513.098ZM342.784 515.334C342.518 514.93 342.303 514.615 342.068 514.253L338.268 516.716C338.507 517.086 338.789 517.502 339.004 517.828L342.784 515.334ZM342.055 514.233C339.671 510.638 337.309 507.091 334.93 503.501L331.155 506.004C333.52 509.572 335.918 513.173 338.281 516.736L342.055 514.233ZM334.929 503.5L327.967 493.016L324.194 495.521L331.155 506.005L334.929 503.5ZM327.966 493.013C326.297 490.508 324.632 488 322.971 485.49L319.194 487.99C320.857 490.503 322.525 493.014 324.196 495.524L327.966 493.013ZM322.97 485.489C321.691 483.558 319.836 482.027 317.659 481.039L315.786 485.163C317.25 485.828 318.42 486.822 319.195 487.991L322.97 485.489ZM317.659 481.039C315.482 480.051 313.048 479.633 310.634 479.817L310.978 484.333C312.652 484.205 314.322 484.499 315.786 485.163L317.659 481.039ZM310.639 479.816C308.715 479.958 306.84 480.482 305.156 481.359L307.249 485.376C308.369 484.792 309.643 484.431 310.973 484.333L310.639 479.816ZM305.162 481.357C303.312 482.314 301.731 483.677 300.587 485.348L304.325 487.906C305.018 486.893 306.013 486.016 307.243 485.379L305.162 481.357ZM300.583 485.354C300.267 485.819 299.977 486.314 299.729 486.836L303.82 488.781C303.958 488.491 304.129 488.195 304.33 487.899L300.583 485.354ZM299.735 486.823C298.464 489.454 298.309 492.421 299.313 495.157L303.565 493.596C302.988 492.023 303.071 490.331 303.813 488.794L299.735 486.823ZM299.32 495.176C299.615 495.956 299.998 496.724 300.491 497.468L304.267 494.967C303.972 494.521 303.739 494.057 303.558 493.576L299.32 495.176ZM300.494 497.473C302.163 499.979 303.827 502.486 305.488 504.996L309.265 502.497C307.602 499.983 305.935 497.472 304.264 494.963L300.494 497.473ZM305.491 505C307.814 508.494 310.136 511.988 312.455 515.482L316.229 512.977C313.908 509.482 311.586 505.988 309.263 502.493L305.491 505ZM312.454 515.481C313.641 517.271 314.829 519.06 316.016 520.848C317.203 522.636 318.39 524.424 319.576 526.213L323.351 523.71C322.164 521.92 320.976 520.131 319.789 518.343C318.602 516.555 317.415 514.767 316.229 512.978L312.454 515.481ZM319.524 526.131C319.556 526.184 319.584 526.226 319.602 526.253C319.612 526.267 319.62 526.279 319.626 526.288C319.631 526.295 319.636 526.303 319.638 526.305C319.64 526.309 319.64 526.308 319.639 526.306C319.637 526.304 319.633 526.298 319.628 526.29C319.618 526.275 319.596 526.243 319.571 526.2L323.475 523.903C323.441 523.845 323.41 523.798 323.39 523.768C323.371 523.74 323.353 523.715 323.349 523.709C323.341 523.697 323.347 523.705 323.354 523.715C323.362 523.727 323.38 523.755 323.403 523.792L319.524 526.131ZM320.443 523.061C315.58 525.698 310.936 528.635 306.546 531.85L309.222 535.504C313.445 532.411 317.916 529.584 322.602 527.042L320.443 523.061ZM306.546 531.85C298.693 537.603 291.698 544.207 285.731 551.506L289.238 554.373C294.954 547.38 301.668 541.038 309.222 535.504L306.546 531.85ZM285.731 551.507C282.479 555.486 279.546 559.662 276.957 564.004L280.848 566.324C283.32 562.177 286.124 558.183 289.238 554.373L285.731 551.507ZM276.958 564.003C274.815 567.59 273.948 569.228 273.674 569.993C273.631 570.112 273.578 570.276 273.54 570.463C273.515 570.587 273.431 571.013 273.556 571.525C273.627 571.816 273.792 572.244 274.18 572.624C274.592 573.03 275.093 573.22 275.542 573.268C276.275 573.346 276.811 573.045 276.91 572.991C277.229 572.817 277.454 572.597 277.497 572.556C277.543 572.512 277.582 572.473 277.609 572.444C277.623 572.43 277.635 572.417 277.645 572.406C277.65 572.401 277.654 572.396 277.658 572.391C277.66 572.389 277.662 572.387 277.664 572.385C277.665 572.384 277.665 572.383 277.666 572.382C277.667 572.382 277.667 572.381 277.667 572.381C277.668 572.38 277.669 572.38 275.985 570.865C274.302 569.35 274.303 569.349 274.303 569.348C274.304 569.348 274.304 569.348 274.304 569.347C274.305 569.346 274.306 569.346 274.307 569.345C274.308 569.343 274.309 569.342 274.311 569.34C274.313 569.337 274.316 569.335 274.318 569.332C274.323 569.327 274.327 569.322 274.332 569.318C274.34 569.31 274.351 569.298 274.366 569.283C274.379 569.271 274.409 569.243 274.453 569.207C274.487 569.18 274.589 569.098 274.744 569.014C274.809 568.978 275.313 568.688 276.022 568.764C276.459 568.81 276.949 568.996 277.353 569.392C277.732 569.765 277.89 570.18 277.957 570.454C278.073 570.932 277.991 571.306 277.981 571.354C277.969 571.415 277.956 571.459 277.95 571.483C277.942 571.507 277.938 571.52 277.937 571.521C277.937 571.522 277.939 571.515 277.946 571.499C277.952 571.483 277.962 571.461 277.975 571.431C278.002 571.37 278.04 571.286 278.094 571.176C278.203 570.953 278.363 570.645 278.592 570.224C279.05 569.384 279.762 568.141 280.847 566.325L276.958 564.003ZM275.985 573.129H492.065V568.6H275.985V573.129ZM494.313 570.586C494.301 570.495 494.293 570.425 494.287 570.372C494.281 570.317 494.278 570.288 494.277 570.277C494.276 570.271 494.277 570.28 494.278 570.298C494.279 570.308 494.28 570.326 494.281 570.351C494.281 570.364 494.282 570.382 494.282 570.403C494.283 570.423 494.283 570.453 494.282 570.49C494.281 570.509 494.28 570.533 494.279 570.56C494.277 570.587 494.275 570.621 494.27 570.661C494.266 570.7 494.26 570.755 494.248 570.82C494.243 570.847 494.231 570.906 494.224 570.937C494.215 570.974 494.194 571.054 494.181 571.097C494.165 571.148 494.124 571.26 494.099 571.32C494.065 571.394 493.981 571.555 493.929 571.641C493.857 571.747 493.674 571.97 493.56 572.084C493.407 572.214 493.036 572.448 492.818 572.544C492.566 572.622 492.046 572.689 491.785 572.677C491.552 572.641 491.141 572.512 490.965 572.429C490.828 572.351 490.598 572.188 490.504 572.108C490.432 572.04 490.311 571.911 490.26 571.851C490.22 571.801 490.152 571.706 490.123 571.662C490.099 571.625 490.057 571.556 490.039 571.524C489.997 571.448 489.967 571.383 489.947 571.339C489.927 571.293 489.911 571.253 489.9 571.223C489.889 571.193 489.88 571.166 489.873 571.145C489.859 571.104 489.849 571.07 489.843 571.048C489.836 571.025 489.831 571.006 489.828 570.992C489.821 570.965 489.816 570.944 489.814 570.933C489.811 570.921 489.809 570.912 489.808 570.907C489.806 570.899 489.806 570.896 489.807 570.9C489.809 570.91 489.812 570.93 489.817 570.961C489.827 571.023 489.84 571.105 489.853 571.191C489.866 571.278 489.878 571.36 489.886 571.422C489.89 571.454 489.893 571.474 489.894 571.484C489.895 571.49 489.894 571.487 489.893 571.479C489.893 571.474 489.892 571.466 489.891 571.454C489.89 571.443 489.889 571.423 489.887 571.396C489.887 571.383 489.886 571.364 489.885 571.341C489.885 571.32 489.884 571.287 489.885 571.247C489.886 571.227 489.886 571.201 489.888 571.172C489.889 571.143 489.892 571.105 489.897 571.061C489.901 571.018 489.909 570.956 489.922 570.883C489.928 570.852 489.942 570.785 489.951 570.749C489.962 570.707 489.989 570.614 490.005 570.564C490.026 570.505 490.08 570.373 490.113 570.302C490.158 570.215 490.272 570.026 490.344 569.926C490.442 569.806 490.692 569.561 490.846 569.442C491.043 569.318 491.497 569.126 491.75 569.065C492.011 569.034 492.512 569.059 492.746 569.11C492.938 569.172 493.267 569.326 493.406 569.411C493.51 569.485 493.687 569.633 493.761 569.704C493.817 569.763 493.913 569.875 493.953 569.927C493.986 569.971 494.042 570.053 494.066 570.091C494.086 570.123 494.122 570.184 494.137 570.212C494.174 570.28 494.201 570.337 494.219 570.378C494.237 570.419 494.252 570.456 494.262 570.483C494.273 570.511 494.281 570.535 494.288 570.555C494.301 570.593 494.311 570.625 494.317 570.646C494.324 570.667 494.329 570.685 494.332 570.699C494.339 570.724 494.343 570.744 494.346 570.753C494.35 570.772 494.352 570.782 494.351 570.776C494.349 570.767 494.344 570.739 494.334 570.685C494.324 570.633 494.312 570.564 494.296 570.475L489.834 571.255C489.852 571.352 489.866 571.435 489.879 571.504C489.891 571.571 489.903 571.634 489.914 571.688C489.92 571.714 489.927 571.75 489.936 571.788C489.941 571.807 489.947 571.834 489.956 571.867C489.96 571.883 489.966 571.904 489.973 571.929C489.98 571.952 489.991 571.986 490.004 572.026C490.012 572.047 490.021 572.072 490.032 572.101C490.042 572.129 490.057 572.166 490.076 572.208C490.094 572.249 490.121 572.307 490.158 572.375C490.174 572.403 490.209 572.465 490.229 572.497C490.254 572.535 490.31 572.617 490.342 572.661C490.383 572.713 490.48 572.826 490.536 572.885C490.609 572.956 490.786 573.104 490.891 573.178C491.029 573.263 491.359 573.417 491.551 573.479C491.785 573.53 492.286 573.555 492.547 573.524C492.8 573.463 493.254 573.271 493.451 573.147C493.606 573.028 493.855 572.783 493.953 572.663C494.025 572.562 494.14 572.373 494.185 572.287C494.218 572.215 494.271 572.084 494.293 572.024C494.309 571.974 494.336 571.881 494.347 571.839C494.356 571.803 494.37 571.735 494.376 571.704C494.39 571.63 494.397 571.568 494.402 571.525C494.407 571.479 494.409 571.441 494.411 571.411C494.412 571.381 494.413 571.354 494.414 571.333C494.414 571.291 494.414 571.256 494.413 571.232C494.413 571.207 494.412 571.186 494.411 571.169C494.409 571.136 494.407 571.109 494.406 571.09C494.404 571.07 494.403 571.053 494.401 571.038C494.398 571.009 494.395 570.983 494.393 570.96C494.387 570.915 494.381 570.868 494.375 570.822C494.363 570.731 494.348 570.625 494.333 570.523C494.317 570.421 494.301 570.315 494.286 570.224C494.279 570.179 494.271 570.132 494.262 570.087C494.258 570.065 494.253 570.039 494.248 570.01C494.245 569.996 494.241 569.978 494.237 569.958C494.233 569.939 494.226 569.911 494.218 569.878C494.214 569.862 494.208 569.84 494.201 569.814C494.194 569.79 494.183 569.754 494.169 569.711C494.162 569.689 494.152 569.662 494.14 569.631C494.129 569.6 494.113 569.56 494.093 569.513C494.073 569.469 494.042 569.403 494 569.327C493.982 569.295 493.94 569.225 493.916 569.188C493.887 569.144 493.818 569.049 493.779 568.999C493.728 568.938 493.606 568.809 493.534 568.742C493.44 568.661 493.21 568.499 493.074 568.42C492.896 568.337 492.485 568.209 492.253 568.172C491.992 568.16 491.472 568.227 491.22 568.306C491.001 568.401 490.63 568.636 490.477 568.766C490.363 568.88 490.18 569.103 490.108 569.209C490.056 569.295 489.972 569.456 489.938 569.53C489.913 569.59 489.872 569.703 489.855 569.754C489.843 569.797 489.821 569.877 489.812 569.914C489.805 569.945 489.793 570.004 489.788 570.032C489.777 570.097 489.77 570.153 489.766 570.193C489.761 570.234 489.759 570.269 489.757 570.296C489.756 570.324 489.755 570.349 489.754 570.369C489.753 570.408 489.753 570.441 489.753 570.464C489.754 570.488 489.754 570.509 489.755 570.525C489.756 570.557 489.758 570.584 489.759 570.603C489.762 570.642 489.765 570.677 489.767 570.704C489.773 570.759 489.78 570.822 489.787 570.89C489.796 570.96 489.806 571.044 489.818 571.143L494.313 570.586Z" fill="#FFB8A2" mask="url(#path-30-inside-1_295_1431)"/>
<path d="M348.676 556.541L348.676 556.542C345.072 561.274 338.727 562.859 334.63 560.478C330.682 558.183 329.857 552.705 333.434 548.008C337.041 543.277 343.383 541.693 347.481 544.074C351.43 546.369 352.256 551.846 348.676 556.541Z" stroke="#FFB8A2" stroke-width="2.26462"/>
<path d="M433.323 560.478L433.322 560.478C429.228 562.859 422.882 561.274 419.278 556.542L419.278 556.542C415.698 551.846 416.524 546.368 420.473 544.073L420.473 544.073C424.568 541.693 430.913 543.277 434.517 548.01L434.517 548.01C438.097 552.705 437.272 558.183 433.323 560.478Z" stroke="#FFB8A2" stroke-width="2.26462"/>
<mask id="path-34-inside-2_295_1431" fill="white">
<path d="M1258.37 196.25C1258.11 197.746 1258.14 197.501 1258.37 196.25L1255.13 201.961C1249.5 211.397 1242.23 220.017 1233.59 227.516C1227.27 232.999 1220.27 237.843 1212.71 241.959C1212.76 242.023 1212.8 242.093 1212.84 242.159C1215.22 245.737 1217.6 249.312 1219.97 252.891L1226.93 263.374C1228.6 265.881 1230.27 268.395 1231.93 270.902C1232.32 271.499 1232.63 272.113 1232.87 272.745C1233.66 274.898 1233.54 277.228 1232.54 279.312C1232.34 279.719 1232.11 280.112 1231.85 280.493C1230.94 281.836 1229.65 282.956 1228.11 283.753C1226.7 284.479 1225.13 284.92 1223.51 285.044C1222.83 285.094 1222.15 285.089 1221.47 285.028C1220.91 284.978 1220.35 284.89 1219.8 284.764C1218.43 284.446 1217.14 283.896 1216.01 283.143C1214.89 282.391 1213.94 281.451 1213.23 280.379C1211.56 277.87 1209.89 275.357 1208.23 272.85L1201.27 262.367C1198.9 258.788 1196.52 255.214 1194.14 251.635C1193.88 251.244 1193.62 250.854 1193.36 250.458C1193 250.585 1192.65 250.708 1192.29 250.828C1179.2 255.184 1165.01 257.566 1150.17 257.566C1149.76 257.566 1149.36 257.566 1148.95 257.561C1135.76 257.447 1123.08 255.444 1111.26 251.85C1109.89 251.435 1108.54 250.996 1107.2 250.533C1106.96 250.898 1106.71 251.264 1106.47 251.63C1104.1 255.209 1101.72 258.783 1099.34 262.362L1092.38 272.846C1090.71 275.353 1089.05 277.863 1087.39 280.374C1086.36 281.925 1084.85 283.187 1083.03 284.013C1081.21 284.84 1079.15 285.196 1077.11 285.04C1075.48 284.919 1073.91 284.477 1072.51 283.747C1070.97 282.95 1069.68 281.829 1068.76 280.488C1068.5 280.107 1068.27 279.712 1068.08 279.306C1067.07 277.222 1066.95 274.892 1067.74 272.738C1067.98 272.108 1068.29 271.492 1068.68 270.897C1070.35 268.389 1072.02 265.88 1073.68 263.368C1076 259.873 1078.32 256.379 1080.64 252.885C1083.02 249.306 1085.39 245.732 1087.77 242.153C1087.78 242.122 1087.81 242.093 1087.83 242.063C1083.05 239.474 1078.49 236.591 1074.19 233.438C1066.48 227.794 1059.63 221.321 1053.79 214.175C1050.6 210.28 1047.74 206.195 1045.21 201.95C1040.84 194.636 1042.29 196.25 1042.29 196.25H1258.37C1258.63 194.753 1258.18 197.767 1258.37 196.25Z"/>
</mask>
<path d="M1255.13 201.961L1257.1 203.077L1257.09 203.099L1257.08 203.122L1255.13 201.961ZM1233.59 227.516L1232.1 225.806L1232.1 225.806L1233.59 227.516ZM1212.71 241.959L1210.86 243.259L1209.4 241.183L1211.63 239.97L1212.71 241.959ZM1212.84 242.159L1214.7 240.862L1214.72 240.885L1214.73 240.908L1212.84 242.159ZM1219.97 252.891L1218.08 254.144L1218.08 254.143L1219.97 252.891ZM1226.93 263.374L1225.05 264.629L1225.04 264.626L1226.93 263.374ZM1231.93 270.902L1233.82 269.652L1233.82 269.654L1231.93 270.902ZM1232.87 272.745L1230.74 273.528L1230.74 273.527L1232.87 272.745ZM1232.54 279.312L1230.5 278.329L1230.5 278.327L1232.54 279.312ZM1231.85 280.493L1233.73 281.767L1233.72 281.773L1231.85 280.493ZM1228.11 283.753L1227.06 281.742L1227.06 281.741L1228.11 283.753ZM1223.51 285.044L1223.68 287.302L1223.67 287.303L1223.51 285.044ZM1221.47 285.028L1221.27 287.284L1221.27 287.284L1221.47 285.028ZM1219.8 284.764L1219.3 286.971L1219.29 286.97L1219.8 284.764ZM1213.23 280.379L1215.11 279.125L1215.11 279.127L1213.23 280.379ZM1208.23 272.85L1210.12 271.597L1210.12 271.598L1208.23 272.85ZM1201.27 262.367L1199.38 263.62L1199.38 263.618L1201.27 262.367ZM1194.14 251.635L1196.03 250.383L1196.03 250.383L1194.14 251.635ZM1193.36 250.458L1192.61 248.322L1194.29 247.73L1195.26 249.221L1193.36 250.458ZM1192.29 250.828L1193.01 252.976L1193 252.977L1192.29 250.828ZM1148.95 257.561L1148.97 255.297L1148.98 255.297L1148.95 257.561ZM1111.26 251.85L1110.6 254.017L1110.6 254.017L1111.26 251.85ZM1107.2 250.533L1105.31 249.286L1106.27 247.82L1107.93 248.392L1107.2 250.533ZM1106.47 251.63L1108.37 252.861L1108.36 252.871L1108.36 252.881L1106.47 251.63ZM1099.34 262.362L1101.23 263.613L1101.23 263.615L1099.34 262.362ZM1092.38 272.846L1094.27 274.099L1094.27 274.101L1092.38 272.846ZM1087.39 280.374L1089.27 281.624L1089.27 281.626L1087.39 280.374ZM1077.11 285.04L1077.28 282.781L1077.28 282.782L1077.11 285.04ZM1072.51 283.747L1073.55 281.735L1073.55 281.738L1072.51 283.747ZM1068.76 280.488L1066.89 281.767L1066.89 281.76L1068.76 280.488ZM1068.08 279.306L1070.12 278.321L1070.12 278.327L1070.12 278.334L1068.08 279.306ZM1067.74 272.738L1065.62 271.958L1065.62 271.948L1065.62 271.939L1067.74 272.738ZM1068.68 270.897L1066.79 269.646L1066.8 269.641L1068.68 270.897ZM1073.68 263.368L1071.79 262.118L1071.79 262.114L1073.68 263.368ZM1080.64 252.885L1082.53 254.136L1082.53 254.138L1080.64 252.885ZM1087.77 242.153L1089.71 243.322L1089.68 243.364L1089.65 243.404L1087.77 242.153ZM1087.83 242.063L1088.91 240.072L1090.97 241.19L1089.78 243.211L1087.83 242.063ZM1074.19 233.438L1072.85 235.265L1072.85 235.264L1074.19 233.438ZM1053.79 214.175L1052.03 215.608L1052.03 215.608L1053.79 214.175ZM1045.21 201.95L1047.15 200.789L1047.15 200.791L1045.21 201.95ZM1042.29 196.25V198.514H1041.28L1040.6 197.765L1042.29 196.25ZM1260.6 196.66C1260.47 197.336 1260.42 197.616 1260.43 197.563C1260.43 197.553 1260.43 197.53 1260.44 197.501C1260.44 197.493 1260.45 197.401 1260.45 197.284C1260.45 197.284 1260.46 197.024 1260.38 196.715C1260.3 196.479 1259.89 195.788 1259.47 195.416C1258.62 195.06 1257.15 195.265 1256.67 195.594C1256.49 195.777 1256.26 196.088 1256.19 196.202C1256.16 196.27 1256.1 196.386 1256.08 196.433C1256.05 196.521 1256.03 196.592 1256.02 196.618C1256 196.678 1255.99 196.725 1255.99 196.738C1255.98 196.758 1255.98 196.774 1255.97 196.783C1255.97 196.8 1255.97 196.813 1255.97 196.817C1255.96 196.832 1255.96 196.837 1255.97 196.819C1255.97 196.79 1255.98 196.737 1256 196.655C1256.03 196.493 1256.07 196.232 1256.14 195.86L1260.6 196.64C1260.53 197.016 1260.49 197.286 1260.45 197.459C1260.44 197.545 1260.43 197.611 1260.42 197.656C1260.41 197.674 1260.41 197.705 1260.4 197.734C1260.4 197.741 1260.4 197.757 1260.39 197.777C1260.39 197.787 1260.39 197.803 1260.38 197.824C1260.38 197.838 1260.37 197.886 1260.35 197.946C1260.34 197.972 1260.32 198.043 1260.28 198.131C1260.26 198.178 1260.21 198.294 1260.17 198.363C1260.11 198.476 1259.88 198.788 1259.69 198.97C1259.21 199.3 1257.75 199.504 1256.9 199.148C1256.48 198.776 1256.07 198.086 1255.99 197.849C1255.91 197.541 1255.92 197.28 1255.92 197.28C1255.92 197.163 1255.93 197.07 1255.93 197.062C1255.93 197.032 1255.94 197.009 1255.94 196.997C1255.95 196.883 1256.03 196.415 1256.14 195.839L1260.6 196.66ZM1260.34 197.366L1257.1 203.077L1253.16 200.845L1256.4 195.134L1260.34 197.366ZM1257.08 203.122C1251.32 212.773 1243.89 221.577 1235.07 229.227L1232.1 225.806C1240.57 218.458 1247.68 210.021 1253.19 200.8L1257.08 203.122ZM1235.07 229.226C1228.63 234.819 1221.49 239.756 1213.8 243.947L1211.63 239.97C1219.05 235.93 1225.91 231.178 1232.1 225.806L1235.07 229.226ZM1214.57 240.658C1214.61 240.711 1214.64 240.759 1214.66 240.794C1214.68 240.828 1214.7 240.859 1214.71 240.874C1214.71 240.883 1214.72 240.888 1214.72 240.892C1214.72 240.896 1214.72 240.897 1214.72 240.896C1214.72 240.895 1214.71 240.882 1214.7 240.862L1210.99 243.456C1210.95 243.403 1210.92 243.357 1210.9 243.322C1210.88 243.288 1210.86 243.257 1210.85 243.242C1210.84 243.223 1210.84 243.221 1210.84 243.221C1210.84 243.223 1210.85 243.238 1210.86 243.259L1214.57 240.658ZM1214.73 240.908C1217.04 244.397 1219.54 248.144 1221.86 251.64L1218.08 254.143C1215.65 250.479 1213.39 247.078 1210.96 243.411L1214.73 240.908ZM1221.86 251.639L1228.82 262.121L1225.04 264.626L1218.08 254.144L1221.86 251.639ZM1228.82 262.118C1230.49 264.628 1232.16 267.144 1233.82 269.652L1230.04 272.152C1228.38 269.646 1226.71 267.134 1225.05 264.629L1228.82 262.118ZM1233.82 269.654C1234.3 270.387 1234.7 271.157 1234.99 271.962L1230.74 273.527C1230.57 273.069 1230.34 272.61 1230.04 272.151L1233.82 269.654ZM1234.99 271.961C1236 274.697 1235.85 277.666 1234.58 280.298L1230.5 278.327C1231.24 276.791 1231.32 275.099 1230.74 273.528L1234.99 271.961ZM1234.58 280.296C1234.33 280.806 1234.05 281.296 1233.73 281.767L1229.98 279.219C1230.18 278.929 1230.35 278.632 1230.5 278.329L1234.58 280.296ZM1233.72 281.773C1232.58 283.444 1231 284.808 1229.15 285.765L1227.06 281.741C1228.3 281.105 1229.29 280.227 1229.99 279.214L1233.72 281.773ZM1229.15 285.764C1227.46 286.634 1225.6 287.156 1223.68 287.302L1223.33 282.786C1224.66 282.684 1225.94 282.323 1227.06 281.742L1229.15 285.764ZM1223.67 287.303C1222.87 287.362 1222.07 287.355 1221.27 287.284L1221.67 282.773C1222.22 282.822 1222.78 282.827 1223.34 282.786L1223.67 287.303ZM1221.27 287.284C1220.6 287.224 1219.95 287.12 1219.3 286.971L1220.31 282.556C1220.76 282.66 1221.21 282.732 1221.67 282.773L1221.27 287.284ZM1219.29 286.97C1217.66 286.594 1216.12 285.937 1214.76 285.027L1217.27 281.259C1218.16 281.854 1219.19 282.299 1220.31 282.557L1219.29 286.97ZM1214.76 285.027C1213.39 284.117 1212.23 282.967 1211.34 281.63L1215.11 279.127C1215.65 279.936 1216.38 280.664 1217.27 281.259L1214.76 285.027ZM1211.34 281.632C1209.67 279.123 1208.01 276.609 1206.34 274.102L1210.12 271.598C1211.78 274.106 1213.45 276.618 1215.11 279.125L1211.34 281.632ZM1206.34 274.103L1199.38 263.62L1203.16 261.114L1210.12 271.597L1206.34 274.103ZM1199.38 263.618C1197.02 260.055 1194.62 256.454 1192.26 252.886L1196.03 250.383C1198.41 253.973 1200.77 257.52 1203.16 261.115L1199.38 263.618ZM1192.26 252.886C1192.01 252.511 1191.73 252.101 1191.47 251.694L1195.26 249.221C1195.51 249.608 1195.76 249.977 1196.03 250.383L1192.26 252.886ZM1194.12 252.593C1193.75 252.724 1193.38 252.851 1193.01 252.976L1191.57 248.681C1191.91 248.565 1192.26 248.445 1192.61 248.322L1194.12 252.593ZM1193 252.977C1179.69 257.41 1165.25 259.831 1150.17 259.831V255.302C1164.76 255.302 1178.72 252.958 1191.57 248.68L1193 252.977ZM1150.17 259.831C1149.76 259.831 1149.35 259.831 1148.93 259.826L1148.98 255.297C1149.37 255.302 1149.76 255.302 1150.17 255.302V259.831ZM1148.93 259.826C1135.52 259.709 1122.63 257.673 1110.6 254.017L1111.92 249.684C1123.54 253.214 1136 255.184 1148.97 255.297L1148.93 259.826ZM1110.6 254.017C1109.21 253.593 1107.83 253.146 1106.46 252.675L1107.93 248.392C1109.25 248.845 1110.58 249.276 1111.92 249.684L1110.6 254.017ZM1109.09 251.78C1108.82 252.184 1108.61 252.5 1108.37 252.861L1104.57 250.398C1104.81 250.028 1105.09 249.612 1105.31 249.286L1109.09 251.78ZM1108.36 252.881C1105.97 256.476 1103.61 260.023 1101.23 263.613L1097.46 261.111C1099.82 257.543 1102.22 253.941 1104.58 250.378L1108.36 252.881ZM1101.23 263.615L1094.27 274.099L1090.5 271.593L1097.46 261.109L1101.23 263.615ZM1094.27 274.101C1092.6 276.607 1090.93 279.114 1089.27 281.624L1085.5 279.125C1087.16 276.611 1088.83 274.1 1090.5 271.591L1094.27 274.101ZM1089.27 281.626C1087.99 283.557 1086.14 285.087 1083.96 286.075L1082.09 281.951C1083.55 281.287 1084.72 280.293 1085.5 279.123L1089.27 281.626ZM1083.96 286.075C1081.78 287.063 1079.35 287.482 1076.94 287.298L1077.28 282.782C1078.95 282.909 1080.63 282.616 1082.09 281.951L1083.96 286.075ZM1076.94 287.298C1075.02 287.156 1073.14 286.632 1071.46 285.755L1073.55 281.738C1074.67 282.322 1075.95 282.683 1077.28 282.781L1076.94 287.298ZM1071.46 285.758C1069.61 284.801 1068.03 283.438 1066.89 281.767L1070.63 279.208C1071.32 280.221 1072.32 281.098 1073.55 281.735L1071.46 285.758ZM1066.89 281.76C1066.57 281.295 1066.28 280.8 1066.03 280.278L1070.12 278.334C1070.26 278.624 1070.43 278.919 1070.63 279.215L1066.89 281.76ZM1066.04 280.292C1064.77 277.66 1064.61 274.694 1065.62 271.958L1069.87 273.519C1069.29 275.091 1069.37 276.784 1070.12 278.321L1066.04 280.292ZM1065.62 271.939C1065.92 271.159 1066.3 270.39 1066.79 269.646L1070.57 272.147C1070.27 272.593 1070.04 273.057 1069.86 273.538L1065.62 271.939ZM1066.8 269.641C1068.47 267.136 1070.13 264.628 1071.79 262.118L1075.57 264.618C1073.9 267.131 1072.24 269.642 1070.57 272.152L1066.8 269.641ZM1071.79 262.114C1074.12 258.62 1076.44 255.126 1078.76 251.632L1082.53 254.138C1080.21 257.632 1077.89 261.127 1075.57 264.622L1071.79 262.114ZM1078.76 251.634C1079.94 249.844 1081.13 248.055 1082.32 246.266C1083.51 244.478 1084.69 242.69 1085.88 240.901L1089.65 243.404C1088.47 245.194 1087.28 246.983 1086.09 248.771C1084.9 250.56 1083.72 252.348 1082.53 254.136L1078.76 251.634ZM1085.83 240.983C1085.86 240.931 1085.89 240.888 1085.9 240.861C1085.91 240.847 1085.92 240.835 1085.93 240.827C1085.93 240.819 1085.94 240.812 1085.94 240.809C1085.94 240.806 1085.94 240.806 1085.94 240.808C1085.94 240.81 1085.94 240.816 1085.93 240.824C1085.92 240.839 1085.9 240.871 1085.87 240.915L1089.78 243.211C1089.74 243.269 1089.71 243.316 1089.69 243.346C1089.67 243.375 1089.66 243.4 1089.65 243.406C1089.64 243.417 1089.65 243.409 1089.66 243.399C1089.66 243.387 1089.68 243.36 1089.71 243.322L1085.83 240.983ZM1086.75 244.054C1081.88 241.417 1077.24 238.48 1072.85 235.265L1075.52 231.611C1079.75 234.703 1084.22 237.531 1088.91 240.072L1086.75 244.054ZM1072.85 235.264C1065 229.511 1058 222.908 1052.03 215.608L1055.54 212.742C1061.26 219.735 1067.97 226.076 1075.53 231.611L1072.85 235.264ZM1052.03 215.608C1048.78 211.628 1045.85 207.452 1043.26 203.11L1047.15 200.791C1049.62 204.938 1052.43 208.931 1055.54 212.742L1052.03 215.608ZM1043.26 203.112C1041.12 199.524 1040.25 197.887 1039.98 197.121C1039.93 197.002 1039.88 196.839 1039.84 196.651C1039.82 196.528 1039.73 196.101 1039.86 195.589C1039.93 195.299 1040.09 194.871 1040.48 194.49C1040.9 194.085 1041.4 193.895 1041.84 193.847C1042.58 193.769 1043.11 194.069 1043.21 194.123C1043.53 194.297 1043.76 194.517 1043.8 194.558C1043.85 194.603 1043.88 194.642 1043.91 194.67C1043.93 194.685 1043.94 194.698 1043.95 194.708C1043.95 194.714 1043.96 194.719 1043.96 194.723C1043.96 194.725 1043.96 194.727 1043.97 194.729C1043.97 194.73 1043.97 194.731 1043.97 194.732C1043.97 194.732 1043.97 194.733 1043.97 194.733C1043.97 194.734 1043.97 194.735 1042.29 196.25C1040.6 197.765 1040.61 197.765 1040.61 197.766C1040.61 197.766 1040.61 197.767 1040.61 197.767C1040.61 197.768 1040.61 197.769 1040.61 197.77C1040.61 197.771 1040.61 197.773 1040.61 197.774C1040.62 197.777 1040.62 197.78 1040.62 197.782C1040.63 197.787 1040.63 197.792 1040.63 197.797C1040.64 197.805 1040.65 197.816 1040.67 197.831C1040.68 197.843 1040.71 197.872 1040.76 197.907C1040.79 197.935 1040.89 198.016 1041.05 198.101C1041.11 198.136 1041.62 198.426 1042.32 198.351C1042.76 198.304 1043.25 198.119 1043.66 197.722C1044.03 197.35 1044.19 196.934 1044.26 196.661C1044.38 196.183 1044.29 195.809 1044.28 195.761C1044.27 195.699 1044.26 195.655 1044.25 195.632C1044.25 195.608 1044.24 195.594 1044.24 195.593C1044.24 195.592 1044.24 195.599 1044.25 195.615C1044.26 195.631 1044.26 195.654 1044.28 195.684C1044.3 195.744 1044.34 195.828 1044.4 195.939C1044.51 196.161 1044.67 196.47 1044.89 196.89C1045.35 197.731 1046.06 198.973 1047.15 200.789L1043.26 203.112ZM1042.29 193.985H1258.37V198.514H1042.29V193.985ZM1260.62 196.528C1260.6 196.619 1260.6 196.689 1260.59 196.743C1260.58 196.798 1260.58 196.827 1260.58 196.837C1260.58 196.843 1260.58 196.834 1260.58 196.816C1260.58 196.807 1260.58 196.788 1260.58 196.763C1260.58 196.75 1260.58 196.733 1260.59 196.712C1260.59 196.691 1260.59 196.661 1260.58 196.624C1260.58 196.605 1260.58 196.581 1260.58 196.554C1260.58 196.528 1260.58 196.493 1260.57 196.453C1260.57 196.414 1260.56 196.359 1260.55 196.294C1260.55 196.267 1260.53 196.208 1260.53 196.177C1260.52 196.14 1260.5 196.061 1260.48 196.018C1260.47 195.967 1260.43 195.855 1260.4 195.794C1260.37 195.721 1260.28 195.559 1260.23 195.473C1260.16 195.368 1259.98 195.145 1259.86 195.031C1259.71 194.901 1259.34 194.667 1259.12 194.571C1258.87 194.492 1258.35 194.425 1258.09 194.437C1257.86 194.474 1257.44 194.602 1257.27 194.686C1257.13 194.764 1256.9 194.926 1256.81 195.006C1256.73 195.074 1256.61 195.203 1256.56 195.263C1256.52 195.314 1256.45 195.408 1256.43 195.452C1256.4 195.489 1256.36 195.558 1256.34 195.591C1256.3 195.666 1256.27 195.731 1256.25 195.776C1256.23 195.822 1256.21 195.861 1256.2 195.891C1256.19 195.922 1256.18 195.948 1256.18 195.969C1256.16 196.01 1256.15 196.044 1256.15 196.066C1256.14 196.089 1256.13 196.109 1256.13 196.123C1256.12 196.15 1256.12 196.171 1256.12 196.182C1256.11 196.194 1256.11 196.202 1256.11 196.207C1256.11 196.216 1256.11 196.219 1256.11 196.214C1256.11 196.205 1256.11 196.185 1256.12 196.153C1256.13 196.092 1256.14 196.01 1256.16 195.923C1256.17 195.837 1256.18 195.754 1256.19 195.692C1256.19 195.66 1256.2 195.64 1256.2 195.63C1256.2 195.625 1256.2 195.628 1256.2 195.636C1256.2 195.64 1256.19 195.649 1256.19 195.66C1256.19 195.671 1256.19 195.691 1256.19 195.718C1256.19 195.732 1256.19 195.75 1256.19 195.773C1256.19 195.795 1256.19 195.827 1256.19 195.867C1256.19 195.888 1256.19 195.913 1256.19 195.942C1256.19 195.971 1256.19 196.009 1256.2 196.054C1256.2 196.097 1256.21 196.158 1256.22 196.232C1256.23 196.263 1256.25 196.33 1256.25 196.366C1256.26 196.408 1256.29 196.5 1256.31 196.55C1256.33 196.61 1256.38 196.741 1256.42 196.812C1256.46 196.899 1256.58 197.088 1256.65 197.188C1256.75 197.309 1256.99 197.554 1257.15 197.672C1257.35 197.796 1257.8 197.989 1258.05 198.049C1258.31 198.08 1258.81 198.055 1259.05 198.004C1259.24 197.942 1259.57 197.789 1259.71 197.703C1259.81 197.629 1259.99 197.481 1260.06 197.41C1260.12 197.351 1260.22 197.239 1260.26 197.187C1260.29 197.144 1260.34 197.062 1260.37 197.024C1260.39 196.991 1260.42 196.93 1260.44 196.902C1260.48 196.835 1260.5 196.777 1260.52 196.737C1260.54 196.695 1260.55 196.659 1260.56 196.631C1260.58 196.603 1260.58 196.579 1260.59 196.559C1260.6 196.521 1260.61 196.49 1260.62 196.469C1260.63 196.447 1260.63 196.429 1260.63 196.416C1260.64 196.39 1260.65 196.371 1260.65 196.361C1260.65 196.342 1260.65 196.333 1260.65 196.338C1260.65 196.347 1260.65 196.375 1260.64 196.429C1260.63 196.481 1260.61 196.55 1260.6 196.64L1256.14 195.86C1256.15 195.762 1256.17 195.679 1256.18 195.61C1256.19 195.544 1256.21 195.481 1256.22 195.426C1256.22 195.4 1256.23 195.365 1256.24 195.327C1256.24 195.307 1256.25 195.28 1256.26 195.248C1256.26 195.231 1256.27 195.21 1256.28 195.186C1256.28 195.162 1256.29 195.129 1256.31 195.088C1256.31 195.068 1256.32 195.043 1256.33 195.014C1256.35 194.986 1256.36 194.949 1256.38 194.906C1256.4 194.865 1256.42 194.807 1256.46 194.74C1256.48 194.711 1256.51 194.65 1256.53 194.617C1256.56 194.579 1256.61 194.497 1256.65 194.453C1256.69 194.401 1256.78 194.289 1256.84 194.23C1256.91 194.159 1257.09 194.011 1257.19 193.936C1257.33 193.851 1257.66 193.697 1257.85 193.635C1258.09 193.584 1258.59 193.559 1258.85 193.59C1259.1 193.651 1259.56 193.843 1259.75 193.967C1259.91 194.086 1260.16 194.331 1260.26 194.452C1260.33 194.552 1260.44 194.741 1260.49 194.828C1260.52 194.899 1260.57 195.031 1260.6 195.091C1260.61 195.141 1260.64 195.233 1260.65 195.276C1260.66 195.312 1260.67 195.379 1260.68 195.41C1260.69 195.484 1260.7 195.546 1260.7 195.59C1260.71 195.635 1260.71 195.674 1260.71 195.703C1260.72 195.734 1260.72 195.76 1260.72 195.781C1260.72 195.823 1260.72 195.858 1260.72 195.882C1260.72 195.907 1260.71 195.929 1260.71 195.945C1260.71 195.978 1260.71 196.005 1260.71 196.024C1260.71 196.044 1260.71 196.062 1260.7 196.076C1260.7 196.105 1260.7 196.132 1260.7 196.154C1260.69 196.199 1260.68 196.247 1260.68 196.292C1260.67 196.383 1260.65 196.49 1260.64 196.591C1260.62 196.693 1260.6 196.799 1260.59 196.89C1260.58 196.935 1260.57 196.982 1260.57 197.027C1260.56 197.049 1260.56 197.076 1260.55 197.104C1260.55 197.119 1260.54 197.137 1260.54 197.156C1260.54 197.175 1260.53 197.203 1260.52 197.236C1260.52 197.253 1260.51 197.275 1260.5 197.3C1260.5 197.325 1260.49 197.36 1260.47 197.403C1260.46 197.425 1260.45 197.452 1260.44 197.483C1260.43 197.514 1260.42 197.554 1260.4 197.601C1260.38 197.646 1260.35 197.711 1260.3 197.787C1260.28 197.82 1260.24 197.889 1260.22 197.927C1260.19 197.97 1260.12 198.065 1260.08 198.116C1260.03 198.176 1259.91 198.305 1259.84 198.373C1259.74 198.453 1259.51 198.616 1259.38 198.694C1259.2 198.777 1258.79 198.906 1258.56 198.942C1258.29 198.954 1257.77 198.887 1257.52 198.809C1257.3 198.713 1256.93 198.479 1256.78 198.349C1256.67 198.235 1256.48 198.012 1256.41 197.906C1256.36 197.82 1256.27 197.658 1256.24 197.584C1256.22 197.524 1256.17 197.412 1256.16 197.36C1256.15 197.317 1256.12 197.238 1256.11 197.201C1256.11 197.169 1256.1 197.11 1256.09 197.083C1256.08 197.017 1256.07 196.962 1256.07 196.922C1256.06 196.881 1256.06 196.846 1256.06 196.818C1256.06 196.79 1256.06 196.766 1256.06 196.746C1256.06 196.706 1256.06 196.674 1256.06 196.65C1256.06 196.627 1256.06 196.606 1256.06 196.589C1256.06 196.558 1256.06 196.53 1256.06 196.511C1256.06 196.473 1256.07 196.438 1256.07 196.411C1256.08 196.356 1256.08 196.292 1256.09 196.224C1256.1 196.154 1256.11 196.07 1256.12 195.971L1260.62 196.528Z" fill="#FFB8A2" mask="url(#path-34-inside-2_295_1431)"/>
<path d="M1114.98 210.573L1114.98 210.573C1111.38 205.841 1105.03 204.256 1100.93 206.637C1096.99 208.932 1096.16 214.409 1099.74 219.107C1103.35 223.837 1109.69 225.422 1113.79 223.041C1117.73 220.746 1118.56 215.269 1114.98 210.573Z" stroke="#FFB8A2" stroke-width="2.26462"/>
<path d="M1199.63 206.637L1199.63 206.636C1195.53 204.256 1189.19 205.84 1185.58 210.572L1185.58 210.573C1182 215.268 1182.83 220.746 1186.78 223.042L1186.78 223.042C1190.87 225.422 1197.22 223.838 1200.82 219.105L1200.82 219.104C1204.4 214.41 1203.58 208.932 1199.63 206.637Z" stroke="#FFB8A2" stroke-width="2.26462"/>
</svg>
