<svg width="1920" height="370" viewBox="0 0 1920 370" fill="none" xmlns="http://www.w3.org/2000/svg">
<path d="M-0.999919 64.4385L239.096 64.4385L239.096 -175" stroke="#FFB8A2" stroke-width="2.1343" stroke-miterlimit="10"/>
<path d="M119.118 64.5104C185.419 64.5104 239.166 10.9103 239.166 -55.2089C239.166 -121.328 185.419 -174.928 119.118 -174.928C52.8175 -174.928 -0.929688 -121.328 -0.929688 -55.2089C-0.929688 10.9103 52.8175 64.5104 119.118 64.5104Z" stroke="#FFB8A2" stroke-width="2.1343" stroke-miterlimit="10"/>
<path d="M239.166 64.4385L479.262 64.4385L479.262 -175" stroke="#FFB8A2" stroke-width="2.1343" stroke-miterlimit="10"/>
<path d="M359.284 64.5104C425.585 64.5104 479.332 10.9103 479.332 -55.2089C479.332 -121.328 425.585 -174.928 359.284 -174.928C292.984 -174.928 239.236 -121.328 239.236 -55.2089C239.236 10.9103 292.984 64.5104 359.284 64.5104Z" stroke="#FFB8A2" stroke-width="2.1343" stroke-miterlimit="10"/>
<path d="M479.33 64.4385L719.426 64.4385V-175" stroke="#FFB8A2" stroke-width="2.1343" stroke-miterlimit="10"/>
<path d="M599.45 64.5099C665.751 64.5099 719.498 10.9098 719.498 -55.2094C719.498 -121.329 665.751 -174.929 599.45 -174.929C533.15 -174.929 479.402 -121.329 479.402 -55.2094C479.402 10.9098 533.15 64.5099 599.45 64.5099Z" stroke="#FFB8A2" stroke-width="2.1343" stroke-miterlimit="10"/>
<path d="M719.498 64.4385L959.594 64.4385V-175" stroke="#FFB8A2" stroke-width="2.1343" stroke-miterlimit="10"/>
<path d="M839.616 64.5104C905.917 64.5104 959.664 10.9103 959.664 -55.2089C959.664 -121.328 905.917 -174.928 839.616 -174.928C773.316 -174.928 719.568 -121.328 719.568 -55.2089C719.568 10.9103 773.316 64.5104 839.616 64.5104Z" stroke="#FFB8A2" stroke-width="2.1343" stroke-miterlimit="10"/>
<path d="M959.664 64.4385L1199.76 64.4385V-175" stroke="#FFB8A2" stroke-width="2.1343" stroke-miterlimit="10"/>
<path d="M1079.78 64.5099C1146.08 64.5099 1199.83 10.9098 1199.83 -55.2094C1199.83 -121.329 1146.08 -174.929 1079.78 -174.929C1013.48 -174.929 959.734 -121.329 959.734 -55.2094C959.734 10.9098 1013.48 64.5099 1079.78 64.5099Z" stroke="#FFB8A2" stroke-width="2.1343" stroke-miterlimit="10"/>
<path d="M1199.83 64.4385L1439.92 64.4385V-175" stroke="#FFB8A2" stroke-width="2.1343" stroke-miterlimit="10"/>
<path d="M1319.95 64.5099C1386.25 64.5099 1439.99 10.9098 1439.99 -55.2094C1439.99 -121.329 1386.25 -174.929 1319.95 -174.929C1253.65 -174.929 1199.9 -121.329 1199.9 -55.2094C1199.9 10.9098 1253.65 64.5099 1319.95 64.5099Z" stroke="#FFB8A2" stroke-width="2.1343" stroke-miterlimit="10"/>
<path d="M1680.09 64.4385V-175" stroke="#FFB8A2" stroke-width="2.1343" stroke-miterlimit="10"/>
<path d="M1680.19 -175H1680.12V64.4386" stroke="#FFB8A2" stroke-width="2.1343" stroke-miterlimit="10"/>
<mask id="mask0_316_120" style="mask-type:luminance" maskUnits="userSpaceOnUse" x="1439" y="-3" width="243" height="101">
<path d="M1681.91 -2.05836C1681.65 -0.656469 1681.61 -0.38148 1681.91 -2.05836L1678.27 4.3401C1671.95 14.9121 1663.78 24.5695 1654.08 32.9711C1646.98 39.113 1639.12 44.5406 1630.64 49.1514C1630.69 49.2232 1630.73 49.3023 1630.78 49.376C1633.45 53.3849 1636.12 57.3893 1638.79 61.4L1646.6 73.1436C1648.48 75.9527 1650.35 78.769 1652.22 81.5783C1652.65 82.2462 1653.01 82.9344 1653.27 83.6424C1654.16 86.0549 1654.02 88.6657 1652.9 91.0006C1652.68 91.4559 1652.42 91.8969 1652.13 92.3234C1651.1 93.8272 1649.66 95.0827 1647.93 95.9755C1646.34 96.7885 1644.58 97.2829 1642.76 97.4223C1642 97.4779 1641.23 97.472 1640.47 97.4044C1639.84 97.348 1639.21 97.2492 1638.59 97.1078C1637.06 96.7522 1635.61 96.1353 1634.34 95.2922C1633.08 94.4492 1632.01 93.3966 1631.22 92.1949C1629.34 89.3849 1627.47 86.5693 1625.6 83.7602L1617.79 72.0157C1615.12 68.006 1612.45 64.0015 1609.78 59.9917C1609.49 59.5541 1609.2 59.1174 1608.9 58.6734C1608.51 58.8155 1608.11 58.9538 1607.7 59.0886C1593 63.9683 1577.07 66.6373 1560.4 66.6373C1559.94 66.6373 1559.49 66.6373 1559.03 66.6319C1544.22 66.5034 1529.98 64.2594 1516.71 60.2335C1515.18 59.7679 1513.65 59.2759 1512.15 58.7579C1511.88 59.1668 1511.6 59.5766 1511.33 59.9863C1508.67 63.9962 1506 68.0005 1503.33 72.0103L1495.51 83.7557C1493.63 86.5651 1491.77 89.3766 1489.9 92.1904C1488.75 93.9272 1487.05 95.3413 1485.01 96.267C1482.96 97.1928 1480.65 97.5917 1478.36 97.4169C1476.53 97.2823 1474.77 96.7869 1473.19 95.9683C1471.47 95.0753 1470.02 93.8203 1468.98 92.3171C1468.69 91.8912 1468.43 91.4481 1468.22 90.9934C1467.09 88.6587 1466.95 86.0484 1467.84 83.6352C1468.11 82.929 1468.46 82.2387 1468.89 81.572C1470.77 78.7626 1472.64 75.951 1474.51 73.1373C1477.11 69.2221 1479.73 65.3073 1482.34 61.3928C1485 57.383 1487.66 53.3785 1490.33 49.3688C1490.34 49.3347 1490.38 49.3014 1490.4 49.2681C1485.03 46.3674 1479.91 43.1382 1475.08 39.605C1466.42 33.2819 1458.73 26.0305 1452.17 18.0238C1448.59 13.6598 1445.38 9.08357 1442.54 4.32843C1437.63 -3.86584 1439.26 -2.05836 1439.26 -2.05836H1681.91C1682.2 -3.73524 1681.69 -0.358715 1681.91 -2.05836Z" fill="white"/>
</mask>
<g mask="url(#mask0_316_120)">
<path d="M1678.27 4.3403L1680.48 5.59073L1680.47 5.61584L1680.46 5.64062L1678.27 4.3403ZM1630.65 49.1516L1628.56 50.6088L1626.92 48.2827L1629.42 46.9235L1630.65 49.1516ZM1630.78 49.3762L1632.87 47.9233L1632.89 47.9485L1632.9 47.9742L1630.78 49.3762ZM1638.79 61.4002L1636.67 62.8037V62.8022L1638.79 61.4002ZM1646.6 73.1437L1644.49 74.5505L1644.48 74.5473L1646.6 73.1437ZM1652.22 81.5785L1654.34 80.1782V80.18L1652.22 81.5785ZM1652.9 91.0008L1650.61 89.8985V89.8967L1652.9 91.0008ZM1652.13 92.3236L1654.24 93.7511L1654.23 93.757L1652.13 92.3236ZM1642.76 97.4225L1642.95 99.9524L1642.94 99.9529L1642.76 97.4225ZM1638.6 97.108L1638.03 99.5815L1638.02 99.58L1638.6 97.108ZM1631.22 92.1951L1633.33 90.7909L1633.34 90.793L1631.22 92.1951ZM1617.79 72.0159L1615.67 73.4195V73.4181L1617.79 72.0159ZM1608.91 58.6736L1608.06 56.2812L1609.95 55.6171L1611.04 57.2885L1608.91 58.6736ZM1607.7 59.0888L1608.51 61.4944L1608.5 61.4961L1607.7 59.0888ZM1559.04 66.6321L1559.06 64.0951H1559.07L1559.04 66.6321ZM1512.15 58.7581L1510.03 57.3611L1511.11 55.7189L1512.97 56.3591L1512.15 58.7581ZM1511.33 59.9865L1513.47 61.3666V61.3777L1513.45 61.3887L1511.33 59.9865ZM1503.34 72.0105L1505.45 73.4124V73.414L1503.34 72.0105ZM1495.51 83.7559L1497.63 85.1593V85.1622L1495.51 83.7559ZM1489.91 92.1906L1492.02 93.5907V93.5923L1489.91 92.1906ZM1473.2 95.9685L1474.36 93.7153V93.7185L1473.2 95.9685ZM1468.99 92.3173L1466.89 93.7505V93.7427L1468.99 92.3173ZM1468.22 90.9937L1470.51 89.8895V89.8969V89.9042L1468.22 90.9937ZM1467.84 83.6354L1465.46 82.761V82.7503V82.7394L1467.84 83.6354ZM1468.9 81.5722L1466.77 80.1711L1466.78 80.1658L1468.9 81.5722ZM1474.51 73.1375L1472.39 71.7373V71.7327L1474.51 73.1375ZM1482.34 61.393L1484.45 62.7948V62.7963L1482.34 61.393ZM1490.33 49.369L1492.51 50.679L1492.48 50.7255L1492.44 50.7708L1490.33 49.369ZM1490.4 49.2683L1491.61 47.038L1493.93 48.2903L1492.59 50.5548L1490.4 49.2683ZM1442.54 4.32862L1444.72 3.02748V3.02918L1442.54 4.32862ZM1439.26 -2.05816V0.478993H1438.13L1437.37 -0.360773L1439.26 -2.05816ZM1684.41 -1.59826C1684.27 -0.841401 1684.21 -0.527479 1684.22 -0.586409C1684.22 -0.59833 1684.23 -0.623787 1684.23 -0.656321C1684.23 -0.664836 1684.24 -0.768243 1684.24 -0.898852C1684.24 -0.898852 1684.26 -1.19111 1684.17 -1.53657C1684.08 -1.80153 1683.62 -2.57507 1683.14 -2.99198C1682.19 -3.39071 1680.54 -3.1614 1680 -2.79225C1679.8 -2.58784 1679.54 -2.23905 1679.46 -2.11202C1679.43 -2.03516 1679.36 -1.90512 1679.34 -1.85278C1679.3 -1.75397 1679.28 -1.67438 1679.27 -1.64574C1679.25 -1.57862 1679.24 -1.52551 1679.24 -1.5111C1679.22 -1.48869 1679.22 -1.47087 1679.22 -1.46123C1679.21 -1.44177 1679.21 -1.42709 1679.21 -1.42215C1679.2 -1.40575 1679.2 -1.40007 1679.21 -1.42071C1679.21 -1.45232 1679.22 -1.51167 1679.25 -1.60385C1679.28 -1.78597 1679.33 -2.0784 1679.4 -2.49494L1684.41 -1.62138C1684.33 -1.1995 1684.29 -0.897463 1684.24 -0.70333C1684.23 -0.607383 1684.22 -0.53316 1684.21 -0.482532C1684.21 -0.462041 1684.2 -0.428073 1684.19 -0.395795C1684.19 -0.3869 1684.19 -0.369019 1684.18 -0.34715C1684.18 -0.336305 1684.18 -0.317461 1684.17 -0.294225C1684.17 -0.279 1684.15 -0.225256 1684.13 -0.157699C1684.12 -0.128838 1684.1 -0.0490744 1684.05 0.0498711C1684.03 0.102273 1683.98 0.232365 1683.93 0.30926C1683.86 0.43633 1683.6 0.785147 1683.39 0.989563C1682.85 1.35873 1681.21 1.58805 1680.26 1.18931C1679.79 0.772383 1679.33 -0.00117853 1679.24 -0.266171C1679.15 -0.611686 1679.16 -0.904219 1679.16 -0.904219C1679.16 -1.03514 1679.17 -1.13906 1679.17 -1.14828C1679.17 -1.18151 1679.18 -1.20784 1679.18 -1.22084C1679.19 -1.34853 1679.29 -1.87304 1679.4 -2.51807L1684.41 -1.59826ZM1684.12 -0.807735L1680.48 5.59073L1676.06 3.08986L1679.7 -3.3086L1684.12 -0.807735ZM1680.46 5.64062C1673.99 16.4536 1665.65 26.3173 1655.74 34.8881L1652.41 31.0555C1661.93 22.8233 1669.92 13.3708 1676.09 3.03997L1680.46 5.64062ZM1655.74 34.8881C1648.51 41.1534 1640.49 46.6838 1631.86 51.3796L1629.42 46.9235C1637.75 42.3977 1645.46 37.0739 1652.41 31.0555L1655.74 34.8881ZM1632.72 47.6942C1632.77 47.7542 1632.8 47.8073 1632.82 47.8468C1632.85 47.8847 1632.87 47.9202 1632.88 47.9365C1632.89 47.9467 1632.89 47.9522 1632.89 47.957C1632.89 47.9614 1632.89 47.9615 1632.89 47.9615C1632.89 47.9615 1632.88 47.9453 1632.87 47.9233L1628.7 50.8291C1628.66 50.7702 1628.62 50.718 1628.6 50.6787C1628.58 50.6413 1628.56 50.606 1628.55 50.5899C1628.53 50.5682 1628.53 50.5663 1628.53 50.5663C1628.53 50.5663 1628.55 50.5849 1628.56 50.6088L1632.72 47.6942ZM1632.9 47.9742C1635.5 51.8832 1638.3 56.0818 1640.91 59.9982L1636.67 62.8022C1633.94 58.6971 1631.4 54.8871 1628.67 50.7783L1632.9 47.9742ZM1640.91 59.9965L1648.73 71.7401L1644.48 74.5473L1636.67 62.8037L1640.91 59.9965ZM1648.73 71.7369C1650.6 74.5491 1652.48 77.3679 1654.34 80.1782L1650.1 82.9787C1648.23 80.1707 1646.37 77.3566 1644.49 74.5505L1648.73 71.7369ZM1654.34 80.18C1654.88 81.0012 1655.33 81.8634 1655.65 82.7658L1650.88 84.5203C1650.69 84.0064 1650.43 83.4917 1650.1 82.9769L1654.34 80.18ZM1655.65 82.7658C1656.79 85.8306 1656.62 89.1558 1655.19 92.1049L1650.61 89.8967C1651.44 88.1759 1651.53 86.2801 1650.88 84.5203L1655.65 82.7658ZM1655.19 92.1031C1654.91 92.6736 1654.6 93.223 1654.24 93.7511L1650.03 90.8961C1650.25 90.571 1650.44 90.2386 1650.61 89.8985L1655.19 92.1031ZM1654.23 93.757C1652.95 95.6297 1651.17 97.1572 1649.1 98.2294L1646.76 93.7222C1648.14 93.0087 1649.25 92.0251 1650.04 90.8902L1654.23 93.757ZM1649.1 98.2294C1647.21 99.2036 1645.11 99.7878 1642.95 99.9524L1642.56 94.8928C1644.07 94.7785 1645.49 94.3739 1646.76 93.7222L1649.1 98.2294ZM1642.94 99.9529C1642.04 100.018 1641.15 100.011 1640.25 99.9318L1640.7 94.8774C1641.31 94.9328 1641.94 94.9377 1642.57 94.8921L1642.94 99.9529ZM1640.25 99.9318C1639.49 99.8651 1638.76 99.748 1638.03 99.5815L1639.17 94.6345C1639.67 94.7508 1640.19 94.8314 1640.7 94.8774L1640.25 99.9318ZM1638.02 99.58C1636.19 99.1582 1634.46 98.4225 1632.94 97.403L1635.76 93.1818C1636.75 93.8484 1637.92 94.3468 1639.17 94.6361L1638.02 99.58ZM1632.94 97.403C1631.4 96.3833 1630.1 95.0946 1629.1 93.5973L1633.34 90.793C1633.94 91.699 1634.76 92.5154 1635.76 93.1818L1632.94 97.403ZM1629.1 93.5993C1627.22 90.7882 1625.36 87.9718 1623.48 85.1628L1627.73 82.3568C1629.59 85.1662 1631.47 87.9818 1633.33 90.7909L1629.1 93.5993ZM1623.48 85.1628L1615.67 73.4195L1619.91 70.6123L1627.73 82.3568L1623.48 85.1628ZM1615.67 73.4181C1613.02 69.4261 1610.32 65.3913 1607.67 61.3938L1611.9 58.5895C1614.58 62.6115 1617.23 66.5861 1619.91 70.6137L1615.67 73.4181ZM1607.67 61.3938C1607.39 60.9726 1607.08 60.5141 1606.78 60.0588L1611.04 57.2885C1611.32 57.7211 1611.6 58.1353 1611.9 58.5895L1607.67 61.3938ZM1609.76 61.0661C1609.34 61.2125 1608.93 61.3554 1608.51 61.4944L1606.9 56.6832C1607.29 56.5527 1607.67 56.4187 1608.06 56.2812L1609.76 61.0661ZM1608.5 61.4961C1593.55 66.4619 1577.34 69.1746 1560.41 69.1746V64.1003C1576.79 64.1003 1592.47 61.475 1606.9 56.6815L1608.5 61.4961ZM1560.41 69.1746C1559.96 69.1746 1559.48 69.1747 1559.01 69.1691L1559.07 64.0951C1559.51 64.1003 1559.95 64.1003 1560.41 64.1003V69.1746ZM1559.01 69.1691C1543.95 69.0386 1529.48 66.7576 1515.97 62.6612L1517.45 57.8061C1530.5 61.7617 1544.49 63.9687 1559.06 64.0951L1559.01 69.1691ZM1515.97 62.6612C1514.41 62.1869 1512.86 61.6851 1511.32 61.1572L1512.97 56.3591C1514.45 56.8673 1515.95 57.3492 1517.45 57.8061L1515.97 62.6612ZM1514.27 60.1551C1513.97 60.6078 1513.74 60.9611 1513.47 61.3666L1509.2 58.6066C1509.47 58.1925 1509.78 57.7262 1510.03 57.3611L1514.27 60.1551ZM1513.45 61.3887C1510.77 65.4164 1508.12 69.3903 1505.45 73.4124L1501.21 70.6086C1503.86 66.6111 1506.56 62.5763 1509.21 58.5843L1513.45 61.3887ZM1505.45 73.414L1497.63 85.1593L1493.4 82.3524L1501.21 70.6071L1505.45 73.414ZM1497.63 85.1622C1495.76 87.9695 1493.89 90.779 1492.02 93.5907L1487.78 90.7905C1489.65 87.9746 1491.52 85.1609 1493.4 82.3495L1497.63 85.1622ZM1492.02 93.5923C1490.58 95.7558 1488.5 97.4704 1486.05 98.5775L1483.95 93.957C1485.59 93.2127 1486.91 92.0989 1487.78 90.789L1492.02 93.5923ZM1486.05 98.5775C1483.62 99.6844 1480.88 100.153 1478.17 99.947L1478.55 94.887C1480.44 95.03 1482.32 94.7015 1483.95 93.957L1486.05 98.5775ZM1478.17 99.947C1476.02 99.7877 1473.9 99.2017 1472.02 98.2185L1474.36 93.7185C1475.62 94.3725 1477.06 94.7768 1478.55 94.887L1478.17 99.947ZM1472.02 98.2219C1469.95 97.1495 1468.17 95.6223 1466.89 93.7505L1471.09 90.8842C1471.86 92.0186 1472.98 93.0016 1474.36 93.7153L1472.02 98.2219ZM1466.89 93.7427C1466.53 93.2225 1466.2 92.6674 1465.92 92.0831L1470.51 89.9042C1470.67 90.2292 1470.86 90.5603 1471.09 90.8919L1466.89 93.7427ZM1465.93 92.0976C1464.51 89.15 1464.33 85.8259 1465.46 82.761L1470.23 84.5099C1469.58 86.2712 1469.67 88.1678 1470.51 89.8895L1465.93 92.0976ZM1465.46 82.7394C1465.8 81.8659 1466.22 81.005 1466.77 80.1711L1471.02 82.9732C1470.68 83.473 1470.42 83.9924 1470.22 84.5315L1465.46 82.7394ZM1466.78 80.1658C1468.66 77.3586 1470.52 74.549 1472.39 71.7373L1476.63 74.5376C1474.77 77.3534 1472.89 80.1671 1471.02 82.9785L1466.78 80.1658ZM1472.39 71.7327C1475 67.818 1477.61 63.9036 1480.22 59.9895L1484.45 62.7963C1481.84 66.7113 1479.24 70.6267 1476.63 74.5422L1472.39 71.7327ZM1480.22 59.9911C1481.54 57.9854 1482.88 55.9812 1484.21 53.9778C1485.55 51.974 1486.87 49.9712 1488.21 47.9671L1492.44 50.7708C1491.12 52.7766 1489.78 54.7808 1488.45 56.7842C1487.12 58.7879 1485.79 60.7907 1484.45 62.7948L1480.22 59.9911ZM1488.15 48.059C1488.19 47.9998 1488.22 47.952 1488.24 47.9218C1488.26 47.9062 1488.26 47.8929 1488.27 47.8836C1488.27 47.875 1488.28 47.8665 1488.28 47.8639C1488.28 47.8599 1488.28 47.8627 1488.28 47.8627C1488.28 47.8652 1488.28 47.8717 1488.27 47.8806C1488.26 47.8976 1488.23 47.9335 1488.2 47.9819L1492.59 50.5548C1492.55 50.6199 1492.51 50.6724 1492.49 50.7059C1492.47 50.7381 1492.46 50.766 1492.44 50.7727C1492.43 50.7859 1492.44 50.7766 1492.46 50.7653C1492.46 50.752 1492.48 50.721 1492.51 50.679L1488.15 48.059ZM1489.19 51.4987C1483.72 48.5444 1478.51 45.2541 1473.58 41.6521L1476.59 37.5582C1481.33 41.0227 1486.35 44.1909 1491.61 47.038L1489.19 51.4987ZM1473.58 41.6521C1464.76 35.2066 1456.9 27.8081 1450.2 19.6297L1454.14 16.4184C1460.56 24.2534 1468.1 31.3575 1476.59 37.5582L1473.58 41.6521ZM1450.2 19.6297C1446.55 15.1708 1443.26 10.4923 1440.35 5.62807L1444.72 3.02918C1447.49 7.67522 1450.65 12.1494 1454.14 16.4184L1450.2 19.6297ZM1440.35 5.62977C1437.95 1.61009 1436.97 -0.224325 1436.67 -1.08166C1436.61 -1.21491 1436.55 -1.39838 1436.51 -1.60811C1436.49 -1.74685 1436.39 -2.2244 1436.53 -2.79808C1436.61 -3.12373 1436.8 -3.6033 1437.23 -4.02967C1437.7 -4.48368 1438.26 -4.69656 1438.77 -4.75017C1439.59 -4.8378 1440.18 -4.5013 1440.29 -4.44067C1440.65 -4.24578 1440.91 -3.99896 1440.96 -3.95299C1441.01 -3.90338 1441.06 -3.85953 1441.08 -3.82779C1441.1 -3.81141 1441.11 -3.79694 1441.13 -3.78494C1441.13 -3.7789 1441.14 -3.7734 1441.14 -3.7685C1441.14 -3.76606 1441.15 -3.76159 1441.15 -3.76159V-3.75847V-3.75699C1441.15 -3.75699 1441.15 -3.75555 1439.26 -2.05816C1437.37 -0.360775 1437.37 -0.359395 1437.37 -0.359395V-0.358029V-0.355395V-0.350377C1437.39 -0.347162 1437.39 -0.344125 1437.39 -0.341268C1437.4 -0.335599 1437.4 -0.330276 1437.4 -0.325134C1437.41 -0.315869 1437.42 -0.302852 1437.44 -0.286663C1437.45 -0.272591 1437.49 -0.241098 1437.54 -0.200922C1437.58 -0.170606 1437.69 -0.0787524 1437.87 0.0155661C1437.94 0.0554951 1438.51 0.380228 1439.31 0.295547C1439.79 0.243413 1440.34 0.0356752 1440.8 -0.408779C1441.22 -0.825603 1441.39 -1.29122 1441.47 -1.5978C1441.61 -2.13336 1441.51 -2.55229 1441.5 -2.60618C1441.48 -2.67463 1441.47 -2.72452 1441.46 -2.7504C1441.46 -2.77762 1441.45 -2.79358 1441.45 -2.79358C1441.45 -2.79358 1441.45 -2.78718 1441.46 -2.76916C1441.47 -2.75138 1441.48 -2.72609 1441.5 -2.69239C1441.53 -2.62422 1441.56 -2.53066 1441.63 -2.40662C1441.75 -2.15737 1441.93 -1.81155 1442.19 -1.34071C1442.7 -0.398987 1443.51 0.992793 1444.72 3.02748L1440.35 5.62977ZM1439.99 0.478993H1558.94H1681.59H1681.91H1439.26H1439.99ZM1684.44 -1.74603C1684.41 -1.64443 1684.41 -1.56566 1684.4 -1.50606C1684.39 -1.44416 1684.39 -1.41192 1684.39 -1.40005C1684.39 -1.39346 1684.39 -1.4036 1684.39 -1.42385C1684.39 -1.43414 1684.39 -1.45509 1684.39 -1.48289C1684.39 -1.49719 1684.4 -1.5169 1684.4 -1.54057C1684.4 -1.56331 1684.4 -1.59733 1684.4 -1.6389C1684.39 -1.66016 1684.39 -1.6865 1684.39 -1.71676C1684.39 -1.74653 1684.39 -1.78517 1684.38 -1.83027C1684.38 -1.87408 1684.37 -1.93542 1684.36 -2.00827C1684.36 -2.03879 1684.33 -2.10456 1684.33 -2.13962C1684.32 -2.18075 1684.3 -2.27003 1684.28 -2.31796C1684.27 -2.37534 1684.22 -2.50079 1684.19 -2.56844C1684.15 -2.65103 1684.05 -2.83144 1684 -2.92804C1683.92 -3.04651 1683.72 -3.29638 1683.58 -3.42368C1683.41 -3.56942 1683 -3.83186 1682.75 -3.93916C1682.47 -4.02711 1681.89 -4.10207 1681.59 -4.0887C1681.34 -4.04786 1680.86 -3.90405 1680.67 -3.81047C1680.52 -3.72305 1680.26 -3.54104 1680.16 -3.451C1680.08 -3.37532 1679.93 -3.23065 1679.88 -3.16315C1679.83 -3.10674 1679.76 -3.00089 1679.73 -2.95198C1679.7 -2.91048 1679.65 -2.83269 1679.63 -2.79666C1679.58 -2.71164 1679.55 -2.6389 1679.53 -2.5893C1679.51 -2.53765 1679.48 -2.49323 1679.47 -2.45988C1679.46 -2.42584 1679.45 -2.39617 1679.45 -2.37259C1679.43 -2.32656 1679.42 -2.28864 1679.42 -2.26394C1679.4 -2.238 1679.39 -2.21629 1679.39 -2.2006C1679.38 -2.17012 1679.38 -2.14656 1679.38 -2.1344C1679.37 -2.12101 1679.37 -2.11109 1679.37 -2.10597C1679.37 -2.09622 1679.37 -2.09269 1679.37 -2.09811C1679.37 -2.10879 1679.38 -2.13099 1679.38 -2.16616C1679.39 -2.23525 1679.4 -2.32721 1679.43 -2.42401C1679.44 -2.52078 1679.45 -2.61315 1679.46 -2.68298C1679.46 -2.71849 1679.47 -2.74126 1679.47 -2.75255C1679.47 -2.75826 1679.47 -2.75521 1679.47 -2.74593C1679.47 -2.74105 1679.47 -2.73148 1679.46 -2.71846C1679.46 -2.7066 1679.46 -2.68376 1679.46 -2.65397C1679.46 -2.63865 1679.46 -2.61757 1679.46 -2.59229C1679.46 -2.56809 1679.46 -2.53152 1679.46 -2.48679C1679.46 -2.46389 1679.46 -2.43529 1679.46 -2.40235C1679.46 -2.37001 1679.47 -2.32748 1679.47 -2.27766C1679.47 -2.22946 1679.48 -2.16051 1679.51 -2.07828C1679.51 -2.0437 1679.53 -1.96866 1679.53 -1.92839C1679.55 -1.88109 1679.57 -1.77765 1679.6 -1.72178C1679.62 -1.65476 1679.67 -1.50744 1679.72 -1.42776C1679.76 -1.33058 1679.9 -1.11901 1679.98 -1.00665C1680.09 -0.871651 1680.37 -0.597243 1680.54 -0.464348C1680.76 -0.325537 1681.27 -0.110064 1681.55 -0.0422323C1681.84 -0.00738617 1682.41 -0.0355267 1682.67 -0.0926094C1682.89 -0.161731 1683.26 -0.333964 1683.41 -0.429619C1683.53 -0.51285 1683.73 -0.678446 1683.81 -0.758046C1683.87 -0.824102 1683.99 -0.949502 1684.03 -1.00793C1684.06 -1.05672 1684.13 -1.14854 1684.15 -1.19117C1684.18 -1.22739 1684.22 -1.29564 1684.23 -1.32746C1684.28 -1.40287 1684.3 -1.46745 1684.32 -1.51263C1684.35 -1.55941 1684.36 -1.59977 1684.38 -1.63052C1684.39 -1.66183 1684.39 -1.68919 1684.4 -1.71114C1684.41 -1.75398 1684.42 -1.78933 1684.44 -1.81263C1684.45 -1.837 1684.45 -1.85736 1684.46 -1.87209C1684.46 -1.90068 1684.47 -1.92246 1684.47 -1.93316C1684.47 -1.95427 1684.48 -1.96539 1684.47 -1.95935C1684.47 -1.94874 1684.47 -1.91792 1684.46 -1.85724C1684.45 -1.79894 1684.44 -1.72155 1684.41 -1.62138L1679.4 -2.49494C1679.42 -2.60439 1679.44 -2.69714 1679.45 -2.77442C1679.46 -2.84935 1679.48 -2.91958 1679.49 -2.98045C1679.49 -3.01015 1679.51 -3.04961 1679.52 -3.09229C1679.52 -3.11376 1679.53 -3.14464 1679.54 -3.1807C1679.54 -3.19915 1679.55 -3.22285 1679.56 -3.25015C1679.56 -3.27639 1679.57 -3.31428 1679.6 -3.35928C1679.6 -3.3823 1679.61 -3.41064 1679.62 -3.44285C1679.64 -3.47447 1679.65 -3.51563 1679.67 -3.5631C1679.7 -3.60899 1679.72 -3.67416 1679.76 -3.7501C1679.79 -3.78216 1679.82 -3.85065 1679.84 -3.88708C1679.88 -3.92991 1679.93 -4.02191 1679.98 -4.07088C1680.02 -4.12947 1680.12 -4.25501 1680.19 -4.32118C1680.27 -4.40089 1680.47 -4.56659 1680.58 -4.64989C1680.74 -4.74562 1681.11 -4.9179 1681.32 -4.98706C1681.59 -5.04416 1682.16 -5.07232 1682.45 -5.03745C1682.73 -4.9696 1683.25 -4.75409 1683.46 -4.61522C1683.64 -4.48227 1683.92 -4.20777 1684.03 -4.07267C1684.11 -3.96021 1684.23 -3.74851 1684.29 -3.65118C1684.32 -3.57135 1684.38 -3.42385 1684.41 -3.35664C1684.42 -3.30058 1684.46 -3.19693 1684.47 -3.14938C1684.48 -3.10888 1684.49 -3.03359 1684.5 -2.99873C1684.51 -2.91594 1684.53 -2.84634 1684.54 -2.79742C1684.54 -2.74687 1684.54 -2.70353 1684.54 -2.6703C1684.55 -2.63646 1684.55 -2.6069 1684.55 -2.58293C1684.55 -2.53609 1684.55 -2.49707 1684.55 -2.47011C1684.55 -2.44207 1684.55 -2.41792 1684.54 -2.3992C1684.54 -2.36264 1684.54 -2.3318 1684.54 -2.31078C1684.54 -2.28861 1684.54 -2.26873 1684.53 -2.25245C1684.53 -2.2204 1684.53 -2.19027 1684.53 -2.16521C1684.51 -2.11496 1684.5 -2.06145 1684.5 -2.01089C1684.49 -1.90853 1684.47 -1.78951 1684.46 -1.67525C1684.44 -1.56101 1684.41 -1.4423 1684.4 -1.34063C1684.39 -1.29043 1684.38 -1.23723 1684.38 -1.18744C1684.37 -1.16263 1684.37 -1.13259 1684.36 -1.10069C1684.36 -1.08449 1684.35 -1.06459 1684.35 -1.04237C1684.35 -1.0214 1684.33 -0.990172 1684.32 -0.953268C1684.32 -0.934379 1684.31 -0.909765 1684.3 -0.881263C1684.3 -0.853971 1684.29 -0.813786 1684.27 -0.765846C1684.26 -0.741299 1684.26 -0.710747 1684.23 -0.675904C1684.22 -0.641768 1684.21 -0.596617 1684.19 -0.544353C1684.17 -0.494106 1684.13 -0.420835 1684.08 -0.335352C1684.06 -0.299098 1684.01 -0.221089 1683.99 -0.179412C1683.95 -0.130321 1683.87 -0.0242979 1683.83 0.032247C1683.77 0.0998979 1683.64 0.244687 1683.56 0.320465C1683.45 0.410608 1683.19 0.592687 1683.04 0.68017C1682.84 0.773806 1682.38 0.917648 1682.12 0.958495C1681.82 0.971877 1681.25 0.896904 1680.95 0.808921C1680.71 0.701581 1680.29 0.439085 1680.12 0.293274C1680 0.16588 1679.79 -0.084085 1679.71 -0.20268C1679.65 -0.299411 1679.55 -0.479967 1679.52 -0.562738C1679.49 -0.630541 1679.45 -0.756178 1679.43 -0.813786C1679.42 -0.861938 1679.38 -0.951452 1679.38 -0.992849C1679.37 -1.02817 1679.36 -1.09422 1679.35 -1.12505C1679.34 -1.19852 1679.33 -1.26058 1679.33 -1.30519C1679.31 -1.35109 1679.31 -1.39064 1679.31 -1.4214C1679.31 -1.45265 1679.31 -1.48009 1679.31 -1.50255C1679.31 -1.54648 1679.31 -1.58327 1679.31 -1.60917C1679.31 -1.63601 1679.31 -1.65927 1679.31 -1.67755C1679.31 -1.71327 1679.31 -1.74381 1679.31 -1.76536C1679.33 -1.80815 1679.33 -1.84765 1679.33 -1.87787C1679.34 -1.93961 1679.34 -2.01075 1679.35 -2.08693C1679.36 -2.16541 1679.37 -2.25944 1679.38 -2.37029L1684.44 -1.74603Z" fill="#FFB8A2"/>
</g>
<path d="M1520.89 13.9887C1516.85 8.68716 1509.72 6.91124 1505.13 9.57875C1500.69 12.15 1499.76 18.2865 1503.78 23.5494C1507.83 28.8494 1514.95 30.6245 1519.56 27.9569C1523.99 25.3855 1524.91 19.2494 1520.89 13.9887Z" stroke="#FFB8A2" stroke-width="2.51166"/>
<path d="M1615.95 9.57825C1611.34 6.91112 1604.23 8.68603 1600.17 13.9878C1596.15 19.2486 1597.08 25.3861 1601.52 27.9575C1606.11 30.624 1613.24 28.8495 1617.29 23.5471C1621.31 18.2872 1620.38 12.1496 1615.95 9.57825Z" stroke="#FFB8A2" stroke-width="2.51166"/>
<path d="M1680.16 64.4029L1920.26 64.4029V64.4385" stroke="#FFB8A2" stroke-width="2.1343" stroke-miterlimit="10"/>
<path d="M1800.28 64.4743C1866.58 64.4743 1920.33 10.8741 1920.33 -55.245C1920.33 -121.364 1866.58 -174.964 1800.28 -174.964C1733.98 -174.964 1680.23 -121.364 1680.23 -55.245C1680.23 10.8741 1733.98 64.4743 1800.28 64.4743Z" stroke="#FFB8A2" stroke-width="2.1343" stroke-miterlimit="10"/>
<path d="M-0.999919 303.949L239.096 303.949L239.096 64.5106" stroke="#FFB8A2" stroke-width="2.1343" stroke-miterlimit="10"/>
<path d="M119.118 304.021C185.419 304.021 239.166 250.421 239.166 184.302C239.166 118.183 185.419 64.5825 119.118 64.5825C52.8175 64.5825 -0.929688 118.183 -0.929688 184.302C-0.929688 250.421 52.8175 304.021 119.118 304.021Z" stroke="#FFB8A2" stroke-width="2.1343" stroke-miterlimit="10"/>
<path d="M719.426 303.949L479.33 303.949" stroke="#FFB8A2" stroke-width="2.1343" stroke-miterlimit="10"/>
<path d="M959.594 303.949L719.498 303.949" stroke="#FFB8A2" stroke-width="2.1343" stroke-miterlimit="10"/>
<path d="M1199.76 303.949L959.664 303.949" stroke="#FFB8A2" stroke-width="2.1343" stroke-miterlimit="10"/>
<path d="M1439.92 303.949L1199.83 303.949" stroke="#FFB8A2" stroke-width="2.1343" stroke-miterlimit="10"/>
<path d="M1439.99 303.949L1680.09 303.949V64.5106" stroke="#FFB8A2" stroke-width="2.1343" stroke-miterlimit="10"/>
<path d="M1680.16 303.913L1920.26 303.913V303.949" stroke="#FFB8A2" stroke-width="2.1343" stroke-miterlimit="10"/>
<path d="M1800.28 303.985C1866.58 303.985 1920.33 250.385 1920.33 184.266C1920.33 118.147 1866.58 64.5464 1800.28 64.5464C1733.98 64.5464 1680.23 118.147 1680.23 184.266C1680.23 250.385 1733.98 303.985 1800.28 303.985Z" stroke="#FFB8A2" stroke-width="2.1343" stroke-miterlimit="10"/>
<path d="M239.094 543.459H239.025L239.025 304.021" stroke="#FFB8A2" stroke-width="2.1343" stroke-miterlimit="10"/>
<path d="M119.048 543.531C185.348 543.531 239.096 489.931 239.096 423.812C239.096 357.692 185.348 304.092 119.048 304.092C52.7472 304.092 -1 357.692 -1 423.812C-1 489.931 52.7472 543.531 119.048 543.531Z" stroke="#FFB8A2" stroke-width="2.1343" stroke-miterlimit="10"/>
<path d="M479.189 543.46H479.121L479.121 304.021" stroke="#FFB8A2" stroke-width="2.1343" stroke-miterlimit="10"/>
<mask id="mask1_316_120" style="mask-type:luminance" maskUnits="userSpaceOnUse" x="238" y="271" width="243" height="100">
<path d="M480.907 370.518C480.648 369.116 480.615 368.841 480.907 370.518L477.268 364.12C470.946 353.548 462.782 343.89 453.08 335.489C445.983 329.347 438.122 323.919 429.644 319.309C429.689 319.237 429.734 319.158 429.779 319.084C432.451 315.075 435.124 311.071 437.785 307.06L445.601 295.316C447.476 292.507 449.352 289.691 451.216 286.882C451.654 286.214 452.013 285.526 452.271 284.818C453.158 282.405 453.024 279.794 451.901 277.459C451.676 277.004 451.418 276.563 451.126 276.137C450.104 274.633 448.655 273.377 446.926 272.484C445.343 271.671 443.58 271.177 441.76 271.038C440.997 270.982 440.233 270.988 439.47 271.056C438.841 271.112 438.212 271.211 437.594 271.352C436.056 271.708 434.607 272.325 433.338 273.168C432.081 274.011 431.014 275.063 430.216 276.265C428.341 279.075 426.466 281.891 424.602 284.7L416.786 296.444C414.125 300.454 411.452 304.458 408.779 308.468C408.487 308.906 408.195 309.343 407.903 309.787C407.51 309.645 407.106 309.506 406.702 309.371C392.003 304.492 376.068 301.823 359.403 301.823C358.943 301.823 358.494 301.823 358.033 301.828C343.221 301.957 328.982 304.201 315.709 308.226C314.182 308.692 312.655 309.184 311.15 309.702C310.88 309.293 310.6 308.883 310.33 308.474C307.669 304.464 304.996 300.459 302.335 296.45L294.508 284.704C292.632 281.895 290.768 279.083 288.904 276.27C287.748 274.533 286.052 273.119 284.008 272.193C281.964 271.267 279.651 270.868 277.36 271.043C275.53 271.178 273.767 271.673 272.195 272.492C270.465 273.385 269.017 274.64 267.984 276.143C267.692 276.569 267.433 277.012 267.22 277.467C266.086 279.801 265.951 282.412 266.838 284.825C267.108 285.531 267.456 286.221 267.894 286.888C269.769 289.697 271.644 292.509 273.508 295.323C276.114 299.238 278.73 303.153 281.336 307.067C283.997 311.077 286.658 315.081 289.331 319.091C289.342 319.125 289.376 319.159 289.398 319.192C284.031 322.093 278.91 325.322 274.081 328.855C265.423 335.178 257.731 342.429 251.173 350.436C247.591 354.8 244.379 359.376 241.538 364.132C236.631 372.326 238.259 370.518 238.259 370.518H480.907C481.199 372.195 480.693 368.819 480.907 370.518Z" fill="white"/>
</mask>
<g mask="url(#mask1_316_120)">
<path d="M477.27 364.12L479.483 362.869L479.471 362.844L479.46 362.819L477.27 364.12ZM429.646 319.308L427.557 317.851L425.918 320.177L428.422 321.536L429.646 319.308ZM429.781 319.084L431.869 320.537L431.892 320.511L431.903 320.486L429.781 319.084ZM437.787 307.06L435.665 305.656V305.658L437.787 307.06ZM445.603 295.316L443.492 293.91L443.481 293.913L445.603 295.316ZM451.218 286.881L453.34 288.282V288.28L451.218 286.881ZM451.903 277.459L449.612 278.561V278.563L451.903 277.459ZM451.128 276.136L453.239 274.709L453.228 274.703L451.128 276.136ZM441.763 271.037L441.954 268.508L441.942 268.507L441.763 271.037ZM437.596 271.352L437.035 268.878L437.024 268.88L437.596 271.352ZM430.219 276.265L432.33 277.669L432.341 277.667L430.219 276.265ZM416.788 296.444L414.666 295.04V295.042L416.788 296.444ZM407.906 309.786L407.063 312.179L408.95 312.843L410.039 311.171L407.906 309.786ZM406.704 309.371L407.513 306.966L407.501 306.964L406.704 309.371ZM358.035 301.828L358.058 304.365H358.069L358.035 301.828ZM311.152 309.702L309.03 311.099L310.108 312.741L311.972 312.101L311.152 309.702ZM310.332 308.473L312.466 307.093V307.082L312.455 307.071L310.332 308.473ZM302.337 296.449L304.448 295.048V295.046L302.337 296.449ZM294.51 284.704L296.632 283.301V283.298L294.51 284.704ZM288.906 276.269L291.018 274.869V274.868L288.906 276.269ZM272.197 272.491L273.365 274.745V274.741L272.197 272.491ZM267.986 276.143L265.886 274.709V274.717L267.986 276.143ZM267.222 277.466L269.513 278.57V278.563V278.556L267.222 277.466ZM266.84 284.825L264.46 285.699V285.71V285.721L266.84 284.825ZM267.896 286.888L265.774 288.289L265.785 288.294L267.896 286.888ZM273.511 295.322L271.388 296.723V296.727L273.511 295.322ZM281.338 307.067L283.449 305.665V305.664L281.338 307.067ZM289.333 319.091L291.512 317.781L291.478 317.734L291.444 317.689L289.333 319.091ZM289.401 319.192L290.613 321.422L292.927 320.17L291.59 317.905L289.401 319.192ZM241.54 364.131L243.719 365.432V365.431L241.54 364.131ZM238.261 370.518V367.981H237.127L236.375 368.821L238.261 370.518ZM483.413 370.058C483.267 369.301 483.211 368.987 483.222 369.046C483.222 369.058 483.233 369.084 483.233 369.116C483.233 369.125 483.245 369.228 483.245 369.359C483.245 369.359 483.256 369.651 483.166 369.997C483.076 370.261 482.616 371.035 482.144 371.452C481.19 371.851 479.539 371.621 479 371.252C478.798 371.048 478.539 370.699 478.461 370.572C478.427 370.495 478.36 370.365 478.337 370.313C478.304 370.214 478.281 370.134 478.27 370.106C478.247 370.039 478.236 369.985 478.236 369.971C478.225 369.949 478.225 369.931 478.225 369.921C478.214 369.902 478.214 369.887 478.214 369.882C478.202 369.866 478.202 369.86 478.214 369.881C478.214 369.912 478.225 369.972 478.247 370.064C478.281 370.246 478.326 370.538 478.405 370.955L483.413 370.081C483.334 369.659 483.289 369.357 483.245 369.163C483.233 369.067 483.222 368.993 483.211 368.942C483.211 368.922 483.2 368.888 483.188 368.856C483.188 368.847 483.188 368.829 483.177 368.807C483.177 368.796 483.177 368.777 483.166 368.754C483.166 368.739 483.155 368.685 483.132 368.618C483.121 368.589 483.099 368.509 483.054 368.41C483.031 368.358 482.975 368.228 482.93 368.151C482.863 368.024 482.604 367.675 482.391 367.47C481.852 367.101 480.213 366.872 479.258 367.271C478.786 367.688 478.326 368.461 478.236 368.726C478.146 369.072 478.158 369.364 478.158 369.364C478.158 369.495 478.169 369.599 478.169 369.608C478.169 369.641 478.18 369.668 478.18 369.681C478.191 369.808 478.292 370.333 478.405 370.978L483.413 370.058ZM483.121 369.268L479.483 362.869L475.058 365.37L478.697 371.769L483.121 369.268ZM479.46 362.819C472.992 352.006 464.648 342.143 454.744 333.572L451.409 337.404C460.931 345.637 468.916 355.089 475.092 365.42L479.46 362.819ZM454.744 333.572C447.512 327.307 439.494 321.776 430.859 317.08L428.422 321.536C436.754 326.062 444.458 331.386 451.409 337.404L454.744 333.572ZM431.723 320.766C431.768 320.706 431.802 320.653 431.825 320.613C431.847 320.575 431.869 320.54 431.881 320.523C431.892 320.513 431.892 320.508 431.892 320.503C431.892 320.499 431.892 320.498 431.892 320.498C431.892 320.498 431.881 320.515 431.869 320.537L427.703 317.631C427.658 317.69 427.625 317.742 427.602 317.781C427.58 317.819 427.557 317.854 427.546 317.87C427.535 317.892 427.535 317.894 427.535 317.894C427.535 317.894 427.546 317.875 427.557 317.851L431.723 320.766ZM431.903 320.486C434.497 316.577 437.305 312.378 439.91 308.462L435.665 305.658C432.936 309.763 430.398 313.573 427.67 317.682L431.903 320.486ZM439.91 308.463L447.726 296.72L443.481 293.913L435.665 305.656L439.91 308.463ZM447.726 296.723C449.601 293.911 451.476 291.092 453.34 288.282L449.096 285.481C447.232 288.289 445.367 291.103 443.492 293.91L447.726 296.723ZM453.34 288.28C453.879 287.459 454.329 286.597 454.654 285.694L449.882 283.94C449.691 284.454 449.433 284.968 449.096 285.483L453.34 288.28ZM454.654 285.694C455.788 282.629 455.62 279.304 454.194 276.355L449.612 278.563C450.443 280.284 450.533 282.18 449.882 283.94L454.654 285.694ZM454.194 276.357C453.913 275.786 453.599 275.237 453.239 274.709L449.028 277.564C449.253 277.889 449.444 278.221 449.612 278.561L454.194 276.357ZM453.228 274.703C451.948 272.83 450.174 271.303 448.096 270.231L445.76 274.738C447.142 275.451 448.253 276.435 449.039 277.57L453.228 274.703ZM448.096 270.231C446.21 269.256 444.11 268.672 441.954 268.508L441.561 273.567C443.065 273.681 444.491 274.086 445.76 274.738L448.096 270.231ZM441.942 268.507C441.044 268.441 440.146 268.449 439.247 268.528L439.697 273.583C440.314 273.527 440.943 273.522 441.572 273.568L441.942 268.507ZM439.247 268.528C438.495 268.595 437.765 268.712 437.035 268.878L438.169 273.825C438.675 273.709 439.191 273.629 439.697 273.583L439.247 268.528ZM437.024 268.88C435.193 269.302 433.464 270.037 431.937 271.057L434.756 275.278C435.755 274.612 436.923 274.113 438.169 273.824L437.024 268.88ZM431.937 271.057C430.398 272.077 429.096 273.365 428.096 274.863L432.341 277.667C432.936 276.761 433.756 275.945 434.756 275.278L431.937 271.057ZM428.096 274.861C426.221 277.672 424.357 280.488 422.482 283.297L426.726 286.103C428.59 283.294 430.466 280.478 432.33 277.669L428.096 274.861ZM422.482 283.297L414.666 295.04L418.911 297.848L426.726 286.103L422.482 283.297ZM414.666 295.042C412.016 299.034 409.321 303.069 406.67 307.066L410.904 309.871C413.577 305.848 416.227 301.874 418.911 297.846L414.666 295.042ZM406.67 307.066C406.39 307.487 406.075 307.946 405.783 308.401L410.039 311.171C410.32 310.739 410.601 310.325 410.904 309.871L406.67 307.066ZM408.759 307.394C408.344 307.247 407.928 307.105 407.513 306.966L405.896 311.777C406.289 311.907 406.67 312.041 407.063 312.179L408.759 307.394ZM407.501 306.964C392.555 301.998 376.34 299.285 359.405 299.285V304.36C375.789 304.36 391.466 306.985 405.896 311.778L407.501 306.964ZM359.405 299.285C358.956 299.285 358.484 299.285 358.013 299.291L358.069 304.365C358.507 304.36 358.945 304.36 359.405 304.36V299.285ZM358.013 299.291C342.954 299.421 328.479 301.702 314.97 305.799L316.453 310.654C329.501 306.698 343.493 304.491 358.058 304.365L358.013 299.291ZM314.97 305.799C313.409 306.273 311.86 306.775 310.321 307.303L311.972 312.101C313.454 311.593 314.948 311.111 316.453 310.654L314.97 305.799ZM313.274 308.305C312.971 307.852 312.735 307.499 312.466 307.093L308.199 309.853C308.468 310.267 308.783 310.734 309.03 311.099L313.274 308.305ZM312.455 307.071C309.771 303.044 307.121 299.07 304.448 295.048L300.215 297.851C302.865 301.849 305.56 305.884 308.21 309.876L312.455 307.071ZM304.448 295.046L296.632 283.301L292.399 286.108L300.215 297.853L304.448 295.046ZM296.632 283.298C294.757 280.49 292.893 277.681 291.018 274.869L286.784 277.669C288.648 280.485 290.524 283.299 292.399 286.11L296.632 283.298ZM291.018 274.868C289.58 272.704 287.503 270.99 285.055 269.882L282.955 274.503C284.594 275.247 285.908 276.361 286.784 277.671L291.018 274.868ZM285.055 269.882C282.618 268.776 279.878 268.307 277.172 268.513L277.553 273.573C279.44 273.43 281.315 273.758 282.955 274.503L285.055 269.882ZM277.172 268.513C275.015 268.672 272.904 269.258 271.018 270.241L273.365 274.741C274.622 274.087 276.06 273.683 277.553 273.573L277.172 268.513ZM271.018 270.238C268.952 271.31 267.166 272.838 265.886 274.709L270.086 277.576C270.861 276.441 271.983 275.458 273.365 274.745L271.018 270.238ZM265.886 274.717C265.527 275.238 265.201 275.793 264.92 276.377L269.513 278.556C269.67 278.231 269.861 277.9 270.086 277.568L265.886 274.717ZM264.931 276.362C263.505 279.31 263.326 282.634 264.46 285.699L269.232 283.95C268.581 282.189 268.671 280.292 269.513 278.57L264.931 276.362ZM264.46 285.721C264.797 286.594 265.223 287.455 265.774 288.289L270.018 285.487C269.681 284.987 269.423 284.468 269.221 283.928L264.46 285.721ZM265.785 288.294C267.66 291.101 269.524 293.911 271.388 296.723L275.633 293.922C273.769 291.107 271.894 288.293 270.018 285.481L265.785 288.294ZM271.388 296.727C274.005 300.642 276.61 304.556 279.215 308.47L283.449 305.664C280.844 301.749 278.238 297.833 275.633 293.918L271.388 296.727ZM279.215 308.469C280.54 310.475 281.877 312.479 283.213 314.482C284.549 316.486 285.874 318.489 287.211 320.493L291.444 317.689C290.119 315.683 288.783 313.679 287.447 311.676C286.122 309.672 284.785 307.669 283.449 305.665L279.215 308.469ZM287.155 320.401C287.188 320.46 287.222 320.508 287.245 320.538C287.256 320.554 287.256 320.567 287.267 320.576C287.267 320.585 287.278 320.593 287.278 320.596C287.278 320.6 287.278 320.597 287.278 320.597C287.278 320.595 287.278 320.588 287.267 320.579C287.256 320.562 287.233 320.526 287.2 320.478L291.59 317.905C291.545 317.84 291.512 317.788 291.489 317.754C291.467 317.722 291.456 317.694 291.444 317.687C291.433 317.674 291.444 317.683 291.456 317.695C291.456 317.708 291.478 317.739 291.512 317.781L287.155 320.401ZM288.188 316.961C282.719 319.916 277.508 323.206 272.579 326.808L275.588 330.902C280.327 327.437 285.347 324.269 290.613 321.422L288.188 316.961ZM272.579 326.808C263.764 333.253 255.903 340.652 249.199 348.83L253.14 352.042C259.564 344.207 267.099 337.103 275.588 330.902L272.579 326.808ZM249.199 348.83C245.549 353.289 242.259 357.968 239.351 362.832L243.719 365.431C246.493 360.785 249.648 356.311 253.14 352.042L249.199 348.83ZM239.351 362.83C236.947 366.85 235.97 368.684 235.667 369.542C235.611 369.675 235.555 369.858 235.51 370.068C235.488 370.207 235.387 370.684 235.533 371.258C235.611 371.584 235.802 372.063 236.229 372.49C236.7 372.944 237.262 373.157 237.767 373.21C238.587 373.298 239.182 372.961 239.294 372.901C239.654 372.706 239.912 372.459 239.957 372.413C240.013 372.363 240.058 372.319 240.081 372.288C240.103 372.271 240.114 372.257 240.125 372.245C240.125 372.239 240.137 372.233 240.137 372.228C240.137 372.226 240.148 372.222 240.148 372.222V372.218V372.217C240.148 372.217 240.148 372.216 238.261 370.518C236.375 368.821 236.375 368.819 236.375 368.819V368.818V368.815V368.81C236.386 368.807 236.386 368.804 236.386 368.801C236.397 368.796 236.397 368.79 236.397 368.785C236.408 368.776 236.42 368.763 236.442 368.747C236.453 368.733 236.487 368.701 236.543 368.661C236.577 368.631 236.689 368.539 236.869 368.444C236.936 368.404 237.509 368.08 238.306 368.164C238.789 368.217 239.339 368.424 239.8 368.869C240.215 369.286 240.395 369.751 240.474 370.058C240.608 370.593 240.507 371.012 240.496 371.066C240.485 371.135 240.474 371.184 240.462 371.21C240.462 371.238 240.451 371.254 240.451 371.254C240.451 371.254 240.451 371.247 240.462 371.229C240.474 371.211 240.485 371.186 240.496 371.152C240.53 371.084 240.563 370.991 240.631 370.867C240.754 370.617 240.934 370.272 241.192 369.801C241.698 368.859 242.506 367.467 243.719 365.432L239.351 362.83ZM238.994 367.981H357.936H480.594H480.909H238.261H238.994ZM483.435 370.206C483.413 370.104 483.413 370.026 483.402 369.966C483.391 369.904 483.39 369.872 483.39 369.86C483.39 369.853 483.39 369.864 483.39 369.884C483.39 369.894 483.39 369.915 483.39 369.943C483.39 369.957 483.402 369.977 483.402 370.001C483.402 370.023 483.402 370.057 483.402 370.099C483.391 370.12 483.39 370.146 483.39 370.177C483.39 370.206 483.39 370.245 483.379 370.29C483.379 370.334 483.368 370.395 483.357 370.468C483.357 370.499 483.334 370.565 483.334 370.6C483.323 370.641 483.301 370.73 483.278 370.778C483.267 370.835 483.222 370.961 483.188 371.028C483.155 371.111 483.054 371.291 482.997 371.388C482.919 371.506 482.717 371.756 482.582 371.884C482.414 372.029 481.998 372.292 481.751 372.399C481.47 372.487 480.886 372.562 480.594 372.549C480.336 372.508 479.864 372.364 479.674 372.27C479.516 372.183 479.258 372.001 479.157 371.911C479.078 371.835 478.932 371.691 478.876 371.623C478.831 371.567 478.764 371.461 478.73 371.412C478.697 371.37 478.652 371.293 478.629 371.257C478.584 371.172 478.551 371.099 478.528 371.049C478.506 370.998 478.483 370.953 478.472 370.92C478.461 370.886 478.449 370.856 478.449 370.833C478.427 370.787 478.416 370.749 478.416 370.724C478.405 370.698 478.393 370.676 478.393 370.661C478.382 370.63 478.382 370.607 478.382 370.594C478.371 370.581 478.371 370.571 478.371 370.566C478.371 370.556 478.371 370.553 478.371 370.558C478.371 370.569 478.382 370.591 478.382 370.626C478.393 370.695 478.405 370.787 478.427 370.884C478.438 370.981 478.449 371.073 478.461 371.143C478.461 371.178 478.472 371.201 478.472 371.213C478.472 371.218 478.472 371.215 478.472 371.206C478.472 371.201 478.472 371.191 478.461 371.178C478.461 371.167 478.461 371.144 478.461 371.114C478.461 371.099 478.461 371.078 478.461 371.052C478.461 371.028 478.461 370.991 478.461 370.947C478.461 370.924 478.461 370.895 478.461 370.862C478.461 370.83 478.472 370.787 478.472 370.738C478.472 370.689 478.483 370.62 478.506 370.538C478.506 370.504 478.528 370.429 478.528 370.388C478.551 370.341 478.573 370.238 478.595 370.182C478.618 370.115 478.674 369.967 478.719 369.888C478.764 369.791 478.899 369.579 478.977 369.467C479.09 369.332 479.37 369.057 479.539 368.924C479.763 368.785 480.269 368.57 480.549 368.502C480.841 368.467 481.414 368.495 481.672 368.553C481.886 368.622 482.256 368.794 482.414 368.89C482.526 368.973 482.728 369.138 482.807 369.218C482.874 369.284 482.986 369.409 483.031 369.468C483.065 369.517 483.132 369.609 483.155 369.651C483.177 369.687 483.222 369.756 483.233 369.787C483.278 369.863 483.301 369.927 483.323 369.973C483.346 370.019 483.357 370.06 483.379 370.09C483.39 370.122 483.391 370.149 483.402 370.171C483.413 370.214 483.424 370.249 483.435 370.273C483.447 370.297 483.447 370.317 483.458 370.332C483.458 370.361 483.469 370.382 483.469 370.393C483.469 370.414 483.48 370.425 483.469 370.419C483.469 370.409 483.469 370.378 483.458 370.317C483.447 370.259 483.435 370.182 483.413 370.081L478.405 370.955C478.416 371.064 478.438 371.157 478.449 371.234C478.461 371.309 478.483 371.38 478.494 371.44C478.494 371.47 478.506 371.51 478.517 371.552C478.517 371.574 478.528 371.605 478.539 371.641C478.539 371.659 478.551 371.683 478.562 371.71C478.562 371.736 478.573 371.774 478.595 371.819C478.595 371.842 478.607 371.871 478.618 371.903C478.64 371.934 478.652 371.976 478.674 372.023C478.697 372.069 478.719 372.134 478.764 372.21C478.786 372.242 478.82 372.311 478.843 372.347C478.876 372.39 478.932 372.482 478.977 372.531C479.022 372.589 479.123 372.715 479.191 372.781C479.269 372.861 479.471 373.027 479.584 373.11C479.741 373.206 480.111 373.378 480.325 373.447C480.594 373.504 481.156 373.532 481.448 373.497C481.729 373.43 482.245 373.214 482.458 373.075C482.638 372.942 482.919 372.668 483.031 372.533C483.11 372.42 483.233 372.208 483.289 372.111C483.323 372.031 483.379 371.884 483.413 371.817C483.424 371.761 483.458 371.657 483.469 371.609C483.48 371.569 483.492 371.494 483.503 371.459C483.514 371.376 483.525 371.306 483.536 371.257C483.536 371.207 483.536 371.163 483.536 371.13C483.548 371.096 483.548 371.067 483.548 371.043C483.548 370.996 483.548 370.957 483.548 370.93C483.548 370.902 483.548 370.878 483.536 370.859C483.536 370.823 483.536 370.792 483.536 370.771C483.536 370.749 483.536 370.729 483.525 370.712C483.525 370.68 483.525 370.65 483.525 370.625C483.514 370.575 483.503 370.521 483.503 370.471C483.492 370.368 483.469 370.249 483.458 370.135C483.435 370.021 483.413 369.902 483.402 369.801C483.391 369.75 483.379 369.697 483.379 369.647C483.368 369.623 483.368 369.593 483.357 369.561C483.357 369.544 483.346 369.525 483.346 369.502C483.346 369.481 483.334 369.45 483.323 369.413C483.323 369.394 483.312 369.37 483.301 369.341C483.301 369.314 483.289 369.274 483.267 369.226C483.256 369.201 483.256 369.171 483.233 369.136C483.222 369.102 483.211 369.057 483.188 369.004C483.166 368.954 483.132 368.881 483.076 368.795C483.065 368.759 483.009 368.681 482.986 368.639C482.953 368.59 482.874 368.484 482.829 368.428C482.773 368.36 482.638 368.215 482.56 368.139C482.447 368.049 482.189 367.867 482.043 367.78C481.841 367.686 481.38 367.542 481.122 367.501C480.819 367.488 480.246 367.563 479.954 367.651C479.707 367.758 479.292 368.021 479.123 368.167C479 368.294 478.786 368.544 478.708 368.663C478.652 368.759 478.551 368.94 478.517 369.023C478.494 369.091 478.45 369.216 478.427 369.274C478.416 369.322 478.382 369.411 478.382 369.453C478.371 369.488 478.36 369.554 478.348 369.585C478.337 369.658 478.326 369.721 478.326 369.765C478.315 369.811 478.315 369.851 478.315 369.881C478.315 369.913 478.315 369.94 478.315 369.963C478.315 370.006 478.315 370.043 478.315 370.069C478.315 370.096 478.315 370.119 478.315 370.138C478.315 370.173 478.315 370.204 478.315 370.225C478.326 370.268 478.326 370.308 478.326 370.338C478.337 370.4 478.337 370.471 478.348 370.547C478.36 370.625 478.371 370.719 478.382 370.83L483.435 370.206Z" fill="#FFB8A2"/>
</g>
<path d="M319.893 354.471C315.85 359.773 308.719 361.549 304.126 358.881C299.691 356.31 298.759 350.174 302.779 344.911C306.833 339.611 313.952 337.835 318.557 340.503C322.992 343.074 323.913 349.211 319.893 354.471Z" stroke="#FFB8A2" stroke-width="2.51166"/>
<path d="M414.949 358.882C410.345 361.549 403.225 359.774 399.171 354.472C395.151 349.211 396.083 343.074 400.519 340.502C405.112 337.836 412.243 339.61 416.285 344.913C420.305 350.173 419.385 356.31 414.949 358.882Z" stroke="#FFB8A2" stroke-width="2.51166"/>
<path d="M719.285 543.459H719.217V304.021" stroke="#FFB8A2" stroke-width="2.1343" stroke-miterlimit="10"/>
<path d="M599.239 543.531C665.54 543.531 719.287 489.931 719.287 423.812C719.287 357.692 665.54 304.092 599.239 304.092C532.939 304.092 479.191 357.692 479.191 423.812C479.191 489.931 532.939 543.531 599.239 543.531Z" stroke="#FFB8A2" stroke-width="2.1343" stroke-miterlimit="10"/>
<path d="M959.381 543.459H959.313V304.021" stroke="#FFB8A2" stroke-width="2.1343" stroke-miterlimit="10"/>
<path d="M839.335 543.531C905.636 543.531 959.383 489.931 959.383 423.812C959.383 357.692 905.636 304.092 839.335 304.092C773.034 304.092 719.287 357.692 719.287 423.812C719.287 489.931 773.034 543.531 839.335 543.531Z" stroke="#FFB8A2" stroke-width="2.1343" stroke-miterlimit="10"/>
<path d="M1199.48 543.459H1199.41V304.021" stroke="#FFB8A2" stroke-width="2.1343" stroke-miterlimit="10"/>
<path d="M1079.43 543.531C1145.73 543.531 1199.48 489.931 1199.48 423.812C1199.48 357.692 1145.73 304.092 1079.43 304.092C1013.13 304.092 959.383 357.692 959.383 423.812C959.383 489.931 1013.13 543.531 1079.43 543.531Z" stroke="#FFB8A2" stroke-width="2.1343" stroke-miterlimit="10"/>
<path d="M1439.57 543.459H1439.5V304.021" stroke="#FFB8A2" stroke-width="2.1343" stroke-miterlimit="10"/>
<path d="M1319.53 543.531C1385.83 543.531 1439.57 489.931 1439.57 423.812C1439.57 357.692 1385.83 304.092 1319.53 304.092C1253.23 304.092 1199.48 357.692 1199.48 423.812C1199.48 489.931 1253.23 543.531 1319.53 543.531Z" stroke="#FFB8A2" stroke-width="2.1343" stroke-miterlimit="10"/>
<path d="M1679.67 543.459H1679.6V304.021" stroke="#FFB8A2" stroke-width="2.1343" stroke-miterlimit="10"/>
<path d="M1559.62 543.531C1625.92 543.531 1679.67 489.931 1679.67 423.812C1679.67 357.692 1625.92 304.092 1559.62 304.092C1493.32 304.092 1439.57 357.692 1439.57 423.812C1439.57 489.931 1493.32 543.531 1559.62 543.531Z" stroke="#FFB8A2" stroke-width="2.1343" stroke-miterlimit="10"/>
<path d="M1799.72 543.495C1866.02 543.495 1919.77 489.895 1919.77 423.776C1919.77 357.657 1866.02 304.057 1799.72 304.057C1733.42 304.057 1679.67 357.657 1679.67 423.776C1679.67 489.895 1733.42 543.495 1799.72 543.495Z" stroke="#FFB8A2" stroke-width="2.1343" stroke-miterlimit="10"/>
</svg>
