<svg width="186" height="99" viewBox="0 0 186 99" fill="none" xmlns="http://www.w3.org/2000/svg">
<path d="M92.8998 80.8816C110.799 80.8816 125.309 66.3714 125.309 48.4721C125.309 30.5728 110.799 16.0625 92.8998 16.0625C75.0005 16.0625 60.4902 30.5728 60.4902 48.4721C60.4902 66.3714 75.0005 80.8816 92.8998 80.8816Z" stroke="black" stroke-width="2.12522" stroke-linejoin="bevel"/>
<path d="M92.8998 80.8816C110.799 80.8816 125.309 66.3714 125.309 48.4721C125.309 30.5728 110.799 16.0625 92.8998 16.0625C75.0005 16.0625 60.4902 30.5728 60.4902 48.4721C60.4902 66.3714 75.0005 80.8816 92.8998 80.8816Z" stroke="black" stroke-width="2.12522" stroke-linejoin="bevel"/>
<mask id="mask0_925_3544" style="mask-type:luminance" maskUnits="userSpaceOnUse" x="60" y="16" width="66" height="65">
<path d="M92.9003 80.8816C110.8 80.8816 125.31 66.3714 125.31 48.4721C125.31 30.5728 110.8 16.0625 92.9003 16.0625C75.001 16.0625 60.4907 30.5728 60.4907 48.4721C60.4907 66.3714 75.001 80.8816 92.9003 80.8816Z" fill="white"/>
</mask>
<g mask="url(#mask0_925_3544)">
<path fill-rule="evenodd" clip-rule="evenodd" d="M78.6915 27.2431C78.5993 28.8001 78.5688 30.4772 78.3484 32.0927C77.6645 32.212 77.1802 32.6683 77.1793 33.1943C77.18 33.5955 77.464 33.9664 77.9259 34.1696C77.717 34.8996 77.4403 35.5974 77.0656 36.2421C75.5172 38.6156 73.4686 39.6928 72.1915 42.4579C70.6024 45.8984 74.1599 49.2737 75.4009 52.0936V58.3175H74.3383L72.4408 64.2376L74.0347 69.1713L74.1104 75.6227L78.6915 75.6978V75.6987L78.716 75.6983L78.7405 75.6987V75.6978L83.3215 75.6227L83.3973 69.1713L84.9912 64.2376L83.0936 58.3175H82.031V52.0936C83.2721 49.2737 86.8295 45.8984 85.2404 42.4579C83.9633 39.6928 81.9148 38.6156 80.3663 36.2421C79.9917 35.5974 79.7149 34.8996 79.5061 34.1696C79.968 33.9664 80.2519 33.5955 80.2526 33.1943C80.2518 32.6683 79.7675 32.212 79.0835 32.0927C78.8632 30.4771 78.8326 28.8 78.7405 27.2429L78.716 26.873L78.6915 27.2431Z" fill="white" stroke="black" stroke-width="0.775704" stroke-linecap="round" stroke-linejoin="round"/>
<path d="M78.3911 31.7441C78.3772 31.8605 78.3644 31.9772 78.3486 32.093C78.0516 32.1448 77.7926 32.2602 77.5942 32.4172H79.8381C79.6396 32.2602 79.3806 32.1448 79.0837 32.093C79.0679 31.9772 79.0551 31.8605 79.0411 31.7441H78.3911ZM77.507 33.8963C77.6213 34.0045 77.7622 34.0978 77.926 34.1699C77.8876 34.3043 77.846 34.4371 77.8027 34.5692H79.6295C79.5863 34.4371 79.5447 34.3043 79.5062 34.1699C79.67 34.0978 79.8109 34.0045 79.9253 33.8963H77.507ZM77.073 36.2293C77.0705 36.2336 77.0683 36.2381 77.0658 36.2424C76.8717 36.5398 76.6699 36.8168 76.4626 37.0794H80.9696C80.7624 36.8168 80.5605 36.5398 80.3665 36.2424C80.364 36.2381 80.3617 36.2336 80.3592 36.2293H77.073ZM73.4382 48.7407C73.6132 49.0276 73.7913 49.3104 73.9684 49.5908H83.4638C83.6409 49.3104 83.819 49.0276 83.9941 48.7407H73.4382ZM75.0142 51.3183C75.1582 51.5811 75.2892 51.8398 75.4011 52.0939V52.1684H82.0312V52.0939C82.143 51.8398 82.274 51.5811 82.418 51.3183H75.0142ZM78.7255 53.0503C77.5722 53.0503 76.6305 53.992 76.6305 55.1452V57.9065H75.4011V58.3179H74.3385L74.1978 58.7566H77.0224C77.0334 58.7575 77.0445 58.758 77.0556 58.7581H80.3953C80.4052 58.7579 80.4151 58.7574 80.425 58.7566H83.2345L83.0938 58.3179H82.0312V57.9065H80.8204V55.1452C80.8204 53.992 79.8787 53.0503 78.7255 53.0503ZM78.7255 53.9004C79.4224 53.9004 79.9703 54.4483 79.9703 55.1452V57.9065H77.4806V55.1452C77.4806 54.4483 78.0285 53.9004 78.7255 53.9004ZM75.7362 60.3271C74.8203 60.3271 73.989 60.6983 73.3834 61.2975L72.4409 64.238L72.4463 64.2548H84.9859L84.9913 64.238L84.075 61.3791C83.4638 60.7323 82.5995 60.3271 81.6429 60.3271C80.3582 60.3271 79.2515 61.0646 78.6896 62.1304C78.1276 61.0646 77.0209 60.3271 75.7362 60.3271ZM75.7362 61.1772C77.0107 61.1771 78.0443 62.123 78.2043 63.3522H77.6736C77.5165 62.423 76.7082 61.7072 75.7362 61.7072C74.7643 61.7072 73.956 62.423 73.7989 63.3522H73.2682C73.4282 62.123 74.4618 61.1771 75.7362 61.1772ZM81.6429 61.1772C82.9173 61.1772 83.9507 62.123 84.1107 63.3522H83.5803C83.4231 62.423 82.6148 61.7072 81.6429 61.7072C80.671 61.7072 79.8624 62.423 79.7053 63.3522H79.1748C79.3348 62.123 80.3684 61.1771 81.6429 61.1772ZM75.7362 62.5573C76.2655 62.5573 76.702 62.9153 76.8225 63.4047H74.65C74.7705 62.9153 75.2069 62.5573 75.7362 62.5573ZM81.6429 62.5573C82.1722 62.5573 82.6084 62.9153 82.7289 63.4047H80.5564C80.677 62.9153 81.1135 62.5573 81.6429 62.5573ZM73.9568 68.9303L74.0348 69.1716L74.0419 69.7803H83.3904L83.3974 69.1716L83.4754 68.9303H73.9568Z" fill="black"/>
<path fill-rule="evenodd" clip-rule="evenodd" d="M76.9211 36.459C76.8583 36.5503 76.7947 36.6392 76.7305 36.7269C77.5446 40.5176 79.4626 44.6393 82.7384 49.18H83.722C83.7325 49.1631 83.743 49.146 83.7535 49.1291C80.3022 44.4449 78.3401 40.2536 77.5416 36.459H76.9211ZM79.2254 36.459C80.269 39.732 82.1217 43.2492 84.9197 47.0583C85.0632 46.7538 85.191 46.4469 85.2982 46.1379C82.787 42.6499 81.1045 39.4366 80.1191 36.459H79.2254ZM74.9083 38.8067C74.6787 39.0451 74.4493 39.2834 74.2241 39.5279C75.0814 42.527 76.6182 45.7308 78.9521 49.18H79.9827C77.3712 45.4148 75.74 41.975 74.9083 38.8067ZM72.7449 41.43C72.5523 41.7418 72.37 42.0755 72.2012 42.4389C72.998 44.579 74.1328 46.8214 75.6453 49.18H76.6589C74.8475 46.4273 73.5678 43.8514 72.7449 41.43Z" fill="black"/>
</g>
<path d="M92.8998 80.8816C110.799 80.8816 125.309 66.3714 125.309 48.4721C125.309 30.5728 110.799 16.0625 92.8998 16.0625C75.0005 16.0625 60.4902 30.5728 60.4902 48.4721C60.4902 66.3714 75.0005 80.8816 92.8998 80.8816Z" stroke="black" stroke-width="2.12522" stroke-linejoin="bevel"/>
<path fill-rule="evenodd" clip-rule="evenodd" d="M101.363 11.4248C100.236 11.6019 99.7079 12.3775 99.5974 12.9582C99.4956 13.493 99.8737 14.4073 101.014 14.8509C99.0497 16.5971 97.2801 19.0902 97.1822 20.4722C97.0261 22.6759 98.7604 23.3147 99.6892 24.5699V32.2943L93.6006 46.2524V82.7063H102.108H102.124H110.631V46.2524L104.543 32.2943V24.5699C105.472 23.3147 107.206 22.6759 107.05 20.4722C106.952 19.0902 105.182 16.5971 103.218 14.8509C104.582 14.1088 104.606 13.2321 104.527 12.8025C104.448 12.3749 103.916 11.6022 102.869 11.4248L102.116 4.48242L101.363 11.4248Z" fill="white" stroke="black" stroke-width="0.804278" stroke-linejoin="round"/>
<path fill-rule="evenodd" clip-rule="evenodd" d="M101.402 11.0703L101.363 11.4262C100.92 11.5014 100.461 11.6359 100.066 11.8292H104.166C103.771 11.636 103.312 11.5014 102.869 11.4262L102.83 11.0703H101.402ZM99.7137 14.3284C100.067 14.5794 100.521 14.7652 101.014 14.8524C100.928 14.9287 100.843 15.0082 100.758 15.0873H103.474C103.389 15.0082 103.304 14.9287 103.218 14.8524C103.711 14.7652 104.165 14.5794 104.518 14.3284H99.7137ZM99.3313 24.1504C99.4586 24.2847 99.5798 24.4236 99.6892 24.5714V24.9093H104.543V24.5714C104.652 24.4236 104.774 24.2847 104.901 24.1504H99.3313ZM99.6892 27.6959V28.4548H104.543V27.6959H99.6892ZM99.6892 32.1996V32.2957L99.4001 32.9585H101.774V41.4849L99.2064 45.4448L96.1683 40.7597L96.0208 40.7052L95.6701 41.5092L98.426 45.7588H93.8166L93.6006 46.2539V46.5177H110.631V46.2539L110.415 45.7588H105.795L108.557 41.4988L108.197 40.6724L108.074 40.726L105.047 45.3931L102.604 41.6618L102.627 41.5866V32.9585H104.832L104.543 32.2957V32.1996H102.201H99.6892ZM102.133 42.4494L104.3 45.7588H99.987L102.133 42.4494Z" fill="black"/>
<path d="M97.8933 47.7832C95.9047 47.7832 94.2161 48.9208 93.6006 50.5047V53.727C93.6634 53.7225 93.7268 53.7192 93.7906 53.7174C93.8307 53.7163 93.8706 53.7146 93.9111 53.7146C93.9741 53.7146 94.0367 53.7162 94.099 53.7189C94.136 53.7205 94.1726 53.7235 94.2093 53.7261C94.2312 53.7277 94.2534 53.7285 94.2752 53.7304C94.2759 53.7304 94.2766 53.7305 94.2773 53.7306C94.3332 53.7355 94.3887 53.7415 94.4438 53.7486C94.447 53.749 94.4502 53.7492 94.4534 53.7497C94.4537 53.7497 94.4539 53.7499 94.4542 53.7499C94.7484 53.7884 95.0307 53.8577 95.2979 53.9537L95.2997 53.9526C96.6543 54.437 97.6007 55.6119 97.6007 57V58.2519C97.3162 58.2801 97.0394 58.3311 96.7733 58.4038V57.294C96.7733 55.9435 95.5872 54.8357 94.0938 54.7515V54.7513C94.0924 54.7512 94.0907 54.7512 94.0892 54.7511C94.0303 54.7478 93.971 54.7457 93.9111 54.7457C93.8593 54.7457 93.8078 54.7471 93.7567 54.7496C93.7558 54.7496 93.755 54.7495 93.7542 54.7496L93.754 54.7498C93.7025 54.7523 93.6514 54.7562 93.6006 54.7611V55.5278C93.6665 55.5189 93.7333 55.5126 93.8012 55.5094H94.021C95.0891 55.5595 95.9209 56.3292 95.9209 57.294V58.7256C94.6711 59.3383 93.7808 60.4594 93.6006 61.7762V65.6035L93.9925 65.9523H95.8543L96.2489 65.4293C96.1525 65.2193 96.0988 64.9913 96.0988 64.7495V62.5644C96.0988 61.5665 96.9877 60.775 98.1085 60.775C99.2293 60.775 100.118 61.5665 100.118 62.5644V64.7495C100.118 64.9913 100.065 65.2193 99.9683 65.4293L100.363 65.9523H102.224L102.36 65.8321L102.603 66.0483H104.465L104.859 65.5253C104.763 65.3152 104.709 65.0869 104.709 64.8453V62.6602C104.709 61.6623 105.598 60.8708 106.719 60.8708C107.84 60.8708 108.729 61.6623 108.729 62.6602V64.8453C108.729 65.0871 108.675 65.3153 108.579 65.5253L108.973 66.0483H110.631V60.3153C110.196 59.6597 109.562 59.1218 108.799 58.7714V57.3898C108.799 56.4453 109.596 55.6868 110.631 55.6082V54.8469C109.135 54.9288 107.947 56.0377 107.947 57.3898V58.4727C107.68 58.4062 107.403 58.3607 107.119 58.3386V57.0959C107.119 55.8803 107.845 54.8283 108.935 54.2601L108.938 54.2616C109.387 54.0267 109.897 53.8739 110.443 53.8266C110.506 53.8212 110.568 53.8172 110.631 53.8145V50.6469C110.064 48.9891 108.334 47.7832 106.286 47.7832C104.391 47.7832 102.771 48.8171 102.09 50.2848C101.408 48.8171 99.7882 47.7832 97.8933 47.7832ZM97.8933 48.5421C99.9449 48.5421 101.583 50.0008 101.583 51.8274V52.9934C101.298 53.0279 101.021 53.0859 100.755 53.1655V52.1213C100.755 50.7161 99.4715 49.5732 97.8933 49.5732C96.315 49.5732 95.0311 50.7161 95.0311 52.1213V53.0806C94.7639 53.02 94.4872 52.9807 94.2032 52.9646V51.8274C94.2032 50.0008 95.8417 48.5421 97.8933 48.5421ZM106.286 48.5421C108.338 48.5421 109.976 50.0008 109.976 51.8274V53.121C109.689 53.1688 109.413 53.2405 109.148 53.3341V52.1213C109.148 50.7161 107.864 49.5732 106.286 49.5732C104.708 49.5732 103.424 50.7161 103.424 52.1213V53.1067C103.157 53.0397 102.881 52.9935 102.596 52.9713V51.8274C102.596 50.0008 104.235 48.5421 106.286 48.5421ZM97.8933 50.332C99.0141 50.332 99.9031 51.1234 99.9031 52.1213V53.5129C99.0915 53.9394 98.4417 54.5846 98.0546 55.3573C97.6174 54.4846 96.8455 53.7743 95.8834 53.3583V52.1213C95.8834 51.1234 96.7724 50.332 97.8933 50.332ZM106.286 50.332C107.407 50.332 108.296 51.1234 108.296 52.1213V53.735C107.473 54.2298 106.843 54.9605 106.52 55.8172C106.159 54.7723 105.344 53.9053 104.276 53.4086V52.1213C104.276 51.1234 105.165 50.332 106.286 50.332ZM102.198 53.7146C102.264 53.7146 102.33 53.7162 102.395 53.7193C102.395 53.7193 102.395 53.7193 102.395 53.7193C102.397 53.7194 102.4 53.7196 102.402 53.7197C102.465 53.7227 102.527 53.7271 102.589 53.7328C102.974 53.7687 103.34 53.8569 103.68 53.9889L103.682 53.9876C104.986 54.4921 105.888 55.6444 105.888 57V58.3911C105.602 58.4387 105.325 58.5103 105.061 58.6038V57.294C105.061 55.9435 103.875 54.8357 102.381 54.7515V54.7513C102.38 54.7512 102.378 54.7512 102.377 54.7511C102.318 54.7478 102.258 54.7457 102.198 54.7457C102.174 54.7457 102.162 54.7462 102.165 54.7462L102.165 54.7464C100.602 54.7627 99.3363 55.8989 99.3363 57.294V58.3777C99.0697 58.3105 98.7931 58.2643 98.5084 58.2421V57C98.5084 55.7132 99.3221 54.6099 100.52 54.0696L100.522 54.0709C100.978 53.8649 101.486 53.7402 102.028 53.7185L102.029 53.7183C102.076 53.7164 102.125 53.7155 102.173 53.7152C102.197 53.715 102.206 53.7146 102.198 53.7146ZM102.166 55.5061L102.17 55.5094H102.308C103.376 55.5595 104.208 56.3292 104.208 57.294V59.0041C103.384 59.4989 102.753 60.23 102.43 61.0873C102.07 60.0433 101.255 59.1769 100.189 58.68V57.294C100.189 56.3058 101.061 55.5213 102.166 55.5061ZM98.1085 58.985C98.1747 58.985 98.2405 58.9866 98.3057 58.9896C98.3113 58.99 98.3167 58.9905 98.3222 58.9907C98.3818 58.9938 98.4411 58.9977 98.4999 59.0032C98.5016 59.0034 98.5034 59.0036 98.5051 59.0037C98.8885 59.04 99.2531 59.1283 99.5918 59.2601L99.5941 59.2588C100.897 59.7638 101.798 60.9155 101.798 62.2703V65.1934H100.922C100.95 65.0488 100.971 64.9013 100.971 64.7495V62.5643C100.971 61.1591 99.6867 60.016 98.1085 60.016C96.5302 60.016 95.2465 61.1592 95.2465 62.5643V64.7495C95.2465 64.9013 95.2668 65.0488 95.2956 65.1934H94.4186V62.2703C94.4186 60.9491 95.276 59.8206 96.5267 59.2972L96.529 59.2985C96.9859 59.1065 97.4945 58.9961 98.0352 58.9868L98.0354 58.9866C98.0598 58.9862 98.0839 58.985 98.1085 58.985ZM106.719 59.081C106.785 59.081 106.851 59.0826 106.916 59.0856C106.922 59.0859 106.927 59.0865 106.933 59.0867C106.992 59.0897 107.051 59.0936 107.11 59.0991C107.112 59.0993 107.114 59.0997 107.117 59.0999C107.5 59.1362 107.864 59.2244 108.202 59.3561L108.204 59.3548C109.507 59.8597 110.409 61.0113 110.409 62.3661V65.2894H109.532C109.561 65.1447 109.581 64.9972 109.581 64.8453V62.6601C109.581 61.255 108.297 60.1118 106.719 60.1118C105.141 60.1118 103.857 61.255 103.857 62.6601V64.8453C103.857 64.9972 103.877 65.1447 103.906 65.2894H103.029V62.3661C103.029 61.1497 103.756 60.0972 104.847 59.5293L104.85 59.5306C105.299 59.2962 105.809 59.1442 106.355 59.0971L106.356 59.0967C106.475 59.0865 106.596 59.081 106.719 59.081Z" fill="black"/>
<mask id="mask1_925_3544" style="mask-type:luminance" maskUnits="userSpaceOnUse" x="60" y="16" width="66" height="65">
<path d="M92.9003 80.8816C110.8 80.8816 125.31 66.3714 125.31 48.4721C125.31 30.5728 110.8 16.0625 92.9003 16.0625C75.001 16.0625 60.4907 30.5728 60.4907 48.4721C60.4907 66.3714 75.001 80.8816 92.9003 80.8816Z" fill="white"/>
</mask>
<g mask="url(#mask1_925_3544)">
<path fill-rule="evenodd" clip-rule="evenodd" d="M90.9439 45.0595C90.8518 46.6165 90.8212 48.2936 90.6009 49.9091C89.9169 50.0284 89.4327 50.4847 89.4318 51.0107C89.4324 51.4119 89.7164 51.7829 90.1783 51.986C89.9695 52.716 89.6927 53.4138 89.3181 54.0585C87.7696 56.432 85.7211 57.5092 84.444 60.2743C82.8549 63.7148 86.4123 67.0901 87.6534 69.91V76.1339H86.5908L84.6932 82.054L86.2871 86.9877L86.3629 93.4391L90.9439 93.5142V93.5153H90.9684H90.9929V93.5142L95.5739 93.4391L95.6497 86.9877L97.2436 82.054L95.3461 76.1339H94.2835V69.91C95.5245 67.0901 99.0819 63.7148 97.4929 60.2743C96.2157 57.5092 94.1672 56.432 92.6188 54.0585C92.2441 53.4138 91.9674 52.716 91.7585 51.986C92.2204 51.7829 92.5044 51.4119 92.505 51.0107C92.5042 50.4847 92.0199 50.0284 91.336 49.9091C91.1156 48.2935 91.0851 46.6164 90.9929 45.0593L90.9684 44.6895L90.9439 45.0595Z" fill="white" stroke="black" stroke-width="0.775704" stroke-linecap="round" stroke-linejoin="round"/>
<path d="M90.6436 49.5605C90.6296 49.6769 90.6168 49.7936 90.601 49.9094C90.3041 49.9612 90.045 50.0766 89.8466 50.2336H92.0905C91.8921 50.0766 91.633 49.9612 91.3361 49.9094C91.3203 49.7936 91.3075 49.6769 91.2936 49.5605H90.6436ZM89.7594 51.7127C89.8738 51.8209 90.0147 51.9143 90.1785 51.9863C90.14 52.1207 90.0984 52.2535 90.0552 52.3856H91.8819C91.8387 52.2535 91.7971 52.1207 91.7587 51.9863C91.9225 51.9143 92.0633 51.8209 92.1777 51.7127H89.7594ZM89.3255 54.0457C89.323 54.05 89.3207 54.0545 89.3182 54.0588C89.1242 54.3562 88.9223 54.6332 88.7151 54.8958H93.222C93.0148 54.6332 92.8129 54.3562 92.6189 54.0588C92.6164 54.0545 92.6141 54.05 92.6117 54.0457H89.3255ZM85.6906 66.5571C85.8657 66.844 86.0438 67.1268 86.2209 67.4072H95.7163C95.8933 67.1268 96.0715 66.844 96.2465 66.5571H85.6906ZM87.2667 69.1348C87.4106 69.3975 87.5417 69.6562 87.6535 69.9103V69.9848H94.2836V69.9103C94.3954 69.6562 94.5265 69.3975 94.6705 69.1348H87.2667ZM90.9779 70.8667C89.8247 70.8667 88.883 71.8084 88.883 72.9616V75.7229H87.6535V76.1343H86.5909L86.4502 76.573H89.2748C89.2859 76.5739 89.2969 76.5744 89.308 76.5745H92.6478C92.6577 76.5743 92.6676 76.5738 92.6775 76.573H95.4869L95.3462 76.1343H94.2836V75.7229H93.0728V72.9616C93.0728 71.8084 92.1311 70.8667 90.9779 70.8667ZM90.9779 71.7168C91.6748 71.7168 92.2227 72.2647 92.2227 72.9616V75.7229H89.7331V72.9616C89.7331 72.2647 90.281 71.7168 90.9779 71.7168ZM87.9887 78.1435C87.0727 78.1435 86.2414 78.5147 85.6358 79.1139L84.6934 82.0544L84.6988 82.0712H97.2384L97.2438 82.0544L96.3275 79.1955C95.7162 78.5487 94.852 78.1435 93.8953 78.1435C92.6106 78.1435 91.5039 78.881 90.942 79.9468C90.3801 78.881 89.2734 78.1435 87.9887 78.1435ZM87.9887 78.9936C89.2631 78.9935 90.2967 79.9394 90.4568 81.1686H89.9261C89.7689 80.2394 88.9606 79.5236 87.9887 79.5236C87.0168 79.5236 86.2085 80.2394 86.0513 81.1686H85.5206C85.6807 79.9394 86.7143 78.9935 87.9887 78.9936ZM93.8953 78.9936C95.1697 78.9936 96.2031 79.9394 96.3632 81.1686H95.8327C95.6755 80.2394 94.8672 79.5236 93.8953 79.5236C92.9234 79.5236 92.1149 80.2394 91.9577 81.1686H91.4272C91.5873 79.9394 92.6209 78.9935 93.8953 78.9936ZM87.9887 80.3737C88.518 80.3737 88.9544 80.7317 89.075 81.2211H86.9024C87.023 80.7317 87.4594 80.3737 87.9887 80.3737ZM93.8953 80.3737C94.4246 80.3737 94.8609 80.7317 94.9814 81.2211H92.8088C92.9294 80.7317 93.366 80.3737 93.8953 80.3737ZM86.2092 86.7467L86.2873 86.988L86.2943 87.5967H95.6428L95.6499 86.988L95.7279 86.7467H86.2092Z" fill="black"/>
<path fill-rule="evenodd" clip-rule="evenodd" d="M89.1202 54.5039L90.4927 56.7196L89.1381 58.9063L87.5029 56.2663C87.3001 56.4787 87.0973 56.6888 86.8954 56.9L88.6381 59.7132L87.1227 62.1599L85.1604 58.992C84.9896 59.2503 84.826 59.5236 84.6714 59.8167L86.6227 62.967L85.0676 65.4774C85.2188 65.7603 85.3809 66.04 85.547 66.3177L87.1227 63.7741L88.4771 65.9608L87.7691 67.1035H88.7691L88.977 66.7679L89.185 67.1035H90.1849L89.477 65.9608L90.9925 63.5141L92.5081 65.9608L91.8002 67.1035H92.8001L93.0081 66.7679L93.216 67.1035H94.216L93.5081 65.9608L94.8625 63.7741L96.413 66.2775C96.5789 65.999 96.7407 65.7187 96.8912 65.4351L95.3624 62.967L97.2872 59.8597C97.1336 59.565 96.971 59.2898 96.8011 59.0302L94.8625 62.1599L93.347 59.7132L95.0704 56.9309C94.8687 56.7195 94.6658 56.5096 94.463 56.2975L92.847 58.9063L91.4924 56.7196L92.8649 54.5039H91.865L90.9925 55.9125L90.12 54.5039H89.1202ZM90.9925 57.5265L92.3471 59.7134L90.9925 61.9L89.638 59.7134L90.9925 57.5265ZM89.1381 60.5203L90.4927 62.707L88.977 65.1537L87.6226 62.967L89.1381 60.5203ZM92.847 60.5203L94.3625 62.967L93.0081 65.1537L91.4924 62.707L92.847 60.5203Z" fill="black"/>
</g>
<mask id="mask2_925_3544" style="mask-type:luminance" maskUnits="userSpaceOnUse" x="60" y="16" width="66" height="65">
<path d="M92.9003 80.8816C110.8 80.8816 125.31 66.3714 125.31 48.4721C125.31 30.5728 110.8 16.0625 92.9003 16.0625C75.001 16.0625 60.4907 30.5728 60.4907 48.4721C60.4907 66.3714 75.001 80.8816 92.9003 80.8816Z" fill="white"/>
</mask>
<g mask="url(#mask2_925_3544)">
<path fill-rule="evenodd" clip-rule="evenodd" d="M117.206 29.7841C117.113 31.3411 117.083 33.0182 116.863 34.6337C116.179 34.753 115.694 35.2093 115.694 35.7353C115.694 36.1365 115.978 36.5075 116.44 36.7106C116.231 37.4406 115.954 38.1384 115.58 38.7831C114.031 41.1566 111.983 42.2338 110.706 44.9989C109.117 48.4394 112.674 51.8148 113.915 54.6346V60.8586H112.852L110.955 66.7787L112.549 71.7123L112.625 78.1637L117.206 78.2388V78.2397L117.23 78.2393L117.255 78.2397V78.2388L121.836 78.1637L121.911 71.7123L123.505 66.7787L121.608 60.8586H120.545V54.6346C121.786 51.8148 125.344 48.4394 123.755 44.9989C122.477 42.2338 120.429 41.1566 118.88 38.7831C118.506 38.1384 118.229 37.4406 118.02 36.7106C118.482 36.5075 118.766 36.1365 118.767 35.7353C118.766 35.2093 118.282 34.753 117.598 34.6337C117.377 33.0181 117.347 31.341 117.255 29.7839L117.23 29.4141L117.206 29.7841Z" fill="white" stroke="black" stroke-width="0.775704" stroke-linecap="round" stroke-linejoin="round"/>
<path d="M116.905 34.2852C116.891 34.4015 116.878 34.5182 116.862 34.634C116.565 34.6858 116.306 34.8013 116.108 34.9582H118.352C118.153 34.8013 117.894 34.6858 117.597 34.634C117.582 34.5182 117.569 34.4015 117.555 34.2852H116.905ZM116.021 36.4374C116.135 36.5455 116.276 36.6389 116.44 36.7109C116.401 36.8453 116.36 36.9781 116.316 37.1102H118.143C118.1 36.9781 118.058 36.8453 118.02 36.7109C118.184 36.6389 118.325 36.5455 118.439 36.4374H116.021ZM115.587 38.7703C115.584 38.7746 115.582 38.7791 115.579 38.7834C115.385 39.0808 115.184 39.3578 114.976 39.6204H119.483C119.276 39.3578 119.074 39.0808 118.88 38.7834C118.878 38.7791 118.875 38.7746 118.873 38.7703H115.587ZM111.952 51.2817C112.127 51.5686 112.305 51.8514 112.482 52.1318H121.977C122.155 51.8514 122.333 51.5686 122.508 51.2817H111.952ZM113.528 53.8594C113.672 54.1221 113.803 54.3809 113.915 54.6349V54.7094H120.545V54.6349C120.657 54.3809 120.788 54.1221 120.932 53.8594H113.528ZM117.239 55.5913C116.086 55.5913 115.144 56.533 115.144 57.6862V60.4475H113.915V60.8589H112.852L112.711 61.2976H115.536C115.547 61.2985 115.558 61.299 115.569 61.2991H118.909C118.919 61.2989 118.929 61.2985 118.939 61.2976H121.748L121.607 60.8589H120.545V60.4475H119.334V57.6862C119.334 56.533 118.392 55.5913 117.239 55.5913ZM117.239 56.4414C117.936 56.4414 118.484 56.9893 118.484 57.6862V60.4475H115.994V57.6862C115.994 56.9893 116.542 56.4414 117.239 56.4414ZM114.25 62.8681C113.334 62.8681 112.503 63.2393 111.897 63.8385L110.955 66.779L110.96 66.7958H123.5L123.505 66.779L122.589 63.9201C121.977 63.2733 121.113 62.8681 120.157 62.8681C118.872 62.8681 117.765 63.6056 117.203 64.6714C116.641 63.6056 115.535 62.8681 114.25 62.8681ZM114.25 63.7182C115.524 63.7182 116.558 64.664 116.718 65.8932H116.187C116.03 64.964 115.222 64.2482 114.25 64.2482C113.278 64.2482 112.47 64.964 112.313 65.8932H111.782C111.942 64.664 112.975 63.7182 114.25 63.7182ZM120.157 63.7182C121.431 63.7182 122.464 64.664 122.624 65.8932H122.094C121.937 64.964 121.128 64.2482 120.157 64.2482C119.185 64.2482 118.376 64.964 118.219 65.8932H117.688C117.848 64.664 118.882 63.7182 120.157 63.7182ZM114.25 65.0983C114.779 65.0983 115.216 65.4564 115.336 65.9457H113.164C113.284 65.4563 113.721 65.0983 114.25 65.0983ZM120.157 65.0983C120.686 65.0983 121.122 65.4563 121.243 65.9457H119.07C119.191 65.4563 119.627 65.0983 120.157 65.0983ZM112.47 71.4713L112.549 71.7126L112.556 72.3214H121.904L121.911 71.7126L121.989 71.4713H112.47Z" fill="black"/>
<path fill-rule="evenodd" clip-rule="evenodd" d="M115.084 40.6445L112.921 42.8077L112.474 42.3611C112.288 42.5715 112.105 42.7897 111.928 43.0169L112.921 44.0098L115.084 41.8466L117.361 44.1237L119.6 41.8848L121.611 43.8961L122.514 42.9933C122.336 42.7666 122.153 42.549 121.966 42.3389L121.611 42.6938L119.6 40.6825L117.361 42.9215L115.084 40.6445ZM115.084 43.8324L112.921 45.9956L111.123 44.1974C110.977 44.4491 110.837 44.7146 110.706 44.9987C110.644 45.1324 110.591 45.266 110.544 45.3995L110.833 45.1104L112.921 47.1976L115.084 45.0344L117.361 47.3116L119.6 45.0726L121.611 47.0839L123.736 44.9595C123.605 44.6804 123.467 44.4188 123.322 44.1711L121.611 45.8816L119.6 43.8703L117.361 46.1093L115.084 43.8324ZM123.812 46.8683L121.611 49.0694L119.6 47.0582L117.361 49.2971L115.084 47.0202L112.921 49.1834L110.833 47.0959L110.363 47.566C110.413 47.8903 110.494 48.2128 110.598 48.5332L110.833 48.2982L112.921 50.3855L115.084 48.2223L117.361 50.4994L119.6 48.2604L121.611 50.2717L123.812 48.0705L123.957 48.2152C124.049 47.8775 124.112 47.5376 124.14 47.196L123.812 46.8683Z" fill="black"/>
</g>
<path d="M128.599 66.6562H57.2611C55.4312 66.6562 53.9478 68.1397 53.9478 69.9696V85.7487C53.9478 87.5786 55.4312 89.0621 57.2611 89.0621H128.599C130.429 89.0621 131.913 87.5786 131.913 85.7487V69.9696C131.913 68.1397 130.429 66.6562 128.599 66.6562Z" fill="white" stroke="black" stroke-width="2.12522" stroke-linejoin="bevel"/>
<path d="M59.9005 79.3313V81.1569H61.6915C62.1183 81.1569 62.4211 81.2406 62.5999 81.4079C62.7845 81.5694 62.8768 81.7828 62.8768 82.0481C62.8768 82.3077 62.7845 82.5211 62.5999 82.6884C62.4211 82.8499 62.1183 82.9306 61.6915 82.9306H57.8499C57.4231 82.9306 57.1173 82.8499 56.9328 82.6884C56.754 82.5211 56.6646 82.3048 56.6646 82.0395C56.6646 81.7799 56.7568 81.5694 56.9414 81.4079C57.126 81.2406 57.4288 81.1569 57.8499 81.1569H58.1268V74.2179H57.8499C57.4231 74.2179 57.1173 74.1371 56.9328 73.9756C56.754 73.8084 56.6646 73.5921 56.6646 73.3267C56.6646 73.0614 56.754 72.848 56.9328 72.6865C57.1173 72.5192 57.4231 72.4355 57.8499 72.4355L61.9337 72.4442C63.1335 72.4442 64.0824 72.773 64.7803 73.4305C65.484 74.0823 65.8359 74.8783 65.8359 75.8185C65.8359 76.3377 65.7176 76.828 65.4811 77.2894C65.3023 77.6355 65.0024 77.9787 64.5813 78.319C64.166 78.6536 63.7392 78.9074 63.3008 79.0804C62.8682 79.2477 62.2942 79.3313 61.579 79.3313H59.9005ZM59.9005 77.5576H61.5444C62.3173 77.5576 62.9287 77.3846 63.3786 77.0385C63.8343 76.6867 64.0622 76.2656 64.0622 75.7753C64.0622 75.36 63.8776 74.9966 63.5084 74.6851C63.145 74.3736 62.623 74.2179 61.9424 74.2179H59.9005V77.5576Z" fill="black"/>
<path d="M71.1826 75.0754V76.1829C71.9267 75.6465 72.5121 75.2888 72.939 75.11C73.3716 74.9312 73.7754 74.8418 74.1503 74.8418C74.7271 74.8418 75.2866 75.0552 75.8288 75.4821C76.198 75.7705 76.3825 76.0646 76.3825 76.3646C76.3825 76.6184 76.2931 76.8347 76.1143 77.0135C75.9413 77.1865 75.7307 77.2731 75.4827 77.2731C75.2635 77.2731 75.0328 77.1635 74.7905 76.9443C74.5483 76.7251 74.332 76.6155 74.1416 76.6155C73.8936 76.6155 73.5216 76.7712 73.0255 77.0827C72.5352 77.3942 71.9209 77.8614 71.1826 78.4844V81.1579H73.709C74.1359 81.1579 74.4387 81.2415 74.6175 81.4088C74.8021 81.5703 74.8944 81.7837 74.8944 82.0491C74.8944 82.3086 74.8021 82.5221 74.6175 82.6893C74.4387 82.8508 74.1359 82.9316 73.709 82.9316H68.3533C67.9265 82.9316 67.6208 82.8508 67.4362 82.6893C67.2574 82.5221 67.168 82.3057 67.168 82.0404C67.168 81.7808 67.2574 81.5703 67.4362 81.4088C67.6208 81.2415 67.9265 81.1579 68.3533 81.1579H69.4089V76.8491H68.7686C68.3418 76.8491 68.0361 76.7683 67.8515 76.6068C67.6727 76.4396 67.5833 76.2233 67.5833 75.9579C67.5833 75.6984 67.6727 75.4878 67.8515 75.3263C68.0361 75.159 68.3418 75.0754 68.7686 75.0754H71.1826Z" fill="black"/>
<path d="M86.783 79.1506C86.783 79.8312 86.5927 80.4917 86.212 81.1319C85.837 81.7664 85.2746 82.274 84.5248 82.6547C83.7807 83.0296 83.002 83.2171 82.1887 83.2171C81.3811 83.2171 80.6082 83.0325 79.8699 82.6634C79.1316 82.2884 78.5692 81.7808 78.1827 81.1406C77.7963 80.5003 77.603 79.8312 77.603 79.1333C77.603 78.4238 77.7991 77.7287 78.1914 77.0481C78.5836 76.3617 79.146 75.8224 79.8786 75.4301C80.6169 75.0379 81.3869 74.8418 82.1887 74.8418C82.9962 74.8418 83.772 75.0437 84.5161 75.4474C85.266 75.8454 85.8313 76.3848 86.212 77.0654C86.5927 77.7403 86.783 78.4353 86.783 79.1506ZM85.0093 79.1592C85.0093 78.5882 84.8045 78.0633 84.395 77.5845C83.8355 76.9385 83.1 76.6155 82.1887 76.6155C81.3869 76.6155 80.7178 76.8722 80.1814 77.3855C79.6449 77.8989 79.3767 78.493 79.3767 79.1679C79.3767 79.7216 79.6478 80.2408 80.19 80.7253C80.7322 81.204 81.3984 81.4434 82.1887 81.4434C82.9847 81.4434 83.6538 81.204 84.196 80.7253C84.7382 80.2408 85.0093 79.7187 85.0093 79.1592Z" fill="black"/>
<path d="M94.7515 75.6018V75.074H96.828C97.2548 75.074 97.5577 75.1577 97.7365 75.3249C97.9211 75.4864 98.0133 75.6999 98.0133 75.9652C98.0133 76.2248 97.9211 76.4382 97.7365 76.6055C97.5577 76.767 97.2548 76.8477 96.828 76.8477H96.5252V83.3022C96.5252 83.9252 96.3925 84.4674 96.1272 84.9289C95.8676 85.3961 95.4667 85.797 94.9245 86.1315C94.3823 86.4661 93.7709 86.6333 93.0902 86.6333H91.083C90.6561 86.6333 90.3504 86.5497 90.1658 86.3824C89.987 86.2209 89.8976 86.0104 89.8976 85.7508C89.8976 85.4855 89.987 85.2692 90.1658 85.1019C90.3504 84.9404 90.6561 84.8596 91.083 84.8596H93.0383C93.5805 84.8596 94.0016 84.7125 94.3016 84.4184C94.6015 84.1242 94.7515 83.7522 94.7515 83.3022V82.437C94.3592 82.6908 93.9584 82.8812 93.5488 83.0081C93.1451 83.135 92.7297 83.1984 92.3029 83.1984C91.0974 83.1984 90.0879 82.7975 89.2746 81.9958C88.4613 81.1882 88.0547 80.1932 88.0547 79.0108C88.0547 77.8225 88.4613 76.8275 89.2746 76.0258C90.0879 75.2182 91.0974 74.8145 92.3029 74.8145C92.7528 74.8145 93.1797 74.8808 93.5834 75.0135C93.993 75.1404 94.3823 75.3365 94.7515 75.6018ZM94.7429 79.0021C94.7429 78.3503 94.5006 77.785 94.0161 77.3063C93.5373 76.8275 92.9605 76.5881 92.2856 76.5881C91.6108 76.5881 91.0311 76.8275 90.5466 77.3063C90.0678 77.785 89.8284 78.3503 89.8284 79.0021C89.8284 79.6597 90.0678 80.2278 90.5466 80.7066C91.0311 81.1796 91.6108 81.4161 92.2856 81.4161C92.9605 81.4161 93.5373 81.1796 94.0161 80.7066C94.5006 80.2278 94.7429 79.6597 94.7429 79.0021Z" fill="black"/>
<path d="M100.652 75.8705V81.157H101.292C101.719 81.157 102.022 81.2406 102.201 81.4079C102.385 81.5694 102.477 81.7828 102.477 82.0481C102.477 82.3077 102.385 82.5211 102.201 82.6884C102.022 82.8499 101.719 82.9306 101.292 82.9306H98.9646C98.5378 82.9306 98.235 82.8499 98.0562 82.6884C97.8716 82.5211 97.7793 82.3048 97.7793 82.0395C97.7793 81.7799 97.8687 81.5694 98.0475 81.4079C98.2263 81.2406 98.5032 81.157 98.8781 81.157V74.2179C98.5667 74.1891 98.3302 74.0939 98.1686 73.9324C98.0129 73.7709 97.935 73.569 97.935 73.3267C97.935 73.0614 98.0244 72.848 98.2033 72.6865C98.3878 72.5192 98.6936 72.4356 99.1204 72.4356L101.067 72.4442L103.481 77.7826L105.852 72.4355L107.816 72.4442C108.243 72.4442 108.545 72.5249 108.724 72.6865C108.909 72.848 109.001 73.0614 109.001 73.3267C109.001 73.569 108.92 73.7709 108.759 73.9324C108.597 74.0939 108.364 74.1891 108.058 74.2179V81.1569C108.433 81.1569 108.71 81.2406 108.889 81.4079C109.068 81.5751 109.157 81.7886 109.157 82.0481C109.157 82.3077 109.065 82.5211 108.88 82.6884C108.701 82.8499 108.398 82.9306 107.972 82.9306H105.635C105.214 82.9306 104.912 82.8499 104.727 82.6884C104.548 82.5211 104.459 82.3048 104.459 82.0395C104.459 81.7799 104.548 81.5694 104.727 81.4079C104.912 81.2406 105.214 81.1569 105.635 81.1569H106.284V75.8705L104.251 80.4388H102.711L100.652 75.8705Z" fill="#FF0000"/>
<path d="M115.967 77.1519C115.678 76.9731 115.376 76.8404 115.058 76.7539C114.741 76.6616 114.409 76.6155 114.063 76.6155C113.377 76.6155 112.832 76.728 112.428 76.9529C112.249 77.051 112.16 77.1577 112.16 77.2731C112.16 77.4057 112.281 77.5355 112.523 77.6624C112.708 77.7547 113.12 77.8441 113.76 77.9306C114.937 78.0921 115.756 78.2536 116.218 78.4151C116.823 78.6286 117.291 78.9458 117.619 79.3669C117.948 79.788 118.113 80.2321 118.113 80.6993C118.113 81.3338 117.833 81.8645 117.273 82.2913C116.471 82.9085 115.43 83.2171 114.15 83.2171C113.636 83.2171 113.161 83.171 112.722 83.0787C112.29 82.9922 111.892 82.8624 111.528 82.6893C111.442 82.7643 111.349 82.822 111.251 82.8624C111.153 82.9027 111.052 82.9229 110.949 82.9229C110.672 82.9229 110.45 82.8335 110.282 82.6547C110.121 82.4701 110.04 82.1644 110.04 81.7376V81.1406C110.04 80.7137 110.121 80.4109 110.282 80.2321C110.45 80.0475 110.666 79.9552 110.931 79.9552C111.145 79.9552 111.323 80.0158 111.468 80.1369C111.612 80.2523 111.724 80.4542 111.805 80.7426C112.076 80.9733 112.402 81.1492 112.783 81.2704C113.163 81.3857 113.602 81.4434 114.098 81.4434C114.911 81.4434 115.543 81.3165 115.993 81.0627C116.206 80.9358 116.313 80.8032 116.313 80.6647C116.313 80.434 116.16 80.2436 115.854 80.0937C115.549 79.9437 114.917 79.8168 113.959 79.713C112.535 79.563 111.583 79.2746 111.104 78.8478C110.626 78.4267 110.386 77.9076 110.386 77.2904C110.386 76.6559 110.654 76.1281 111.191 75.707C111.918 75.1302 112.869 74.8418 114.046 74.8418C114.456 74.8418 114.848 74.8822 115.223 74.9629C115.603 75.0379 115.967 75.1562 116.313 75.3177C116.422 75.2369 116.523 75.1763 116.616 75.136C116.714 75.0956 116.803 75.0754 116.884 75.0754C117.126 75.0754 117.328 75.1677 117.49 75.3523C117.651 75.5311 117.732 75.8339 117.732 76.2608V76.6934C117.732 77.0798 117.686 77.3423 117.593 77.4807C117.409 77.746 117.158 77.8787 116.841 77.8787C116.627 77.8787 116.44 77.8124 116.278 77.6797C116.117 77.547 116.013 77.3711 115.967 77.1519Z" fill="#FF0000"/>
<path d="M123.217 79.9805V82.9309H121.14C120.714 82.9309 120.408 82.8501 120.223 82.6886C120.044 82.5213 119.955 82.305 119.955 82.0397C119.955 81.7801 120.047 81.5696 120.232 81.4081C120.417 81.2408 120.719 81.1572 121.14 81.1572H121.443V73.4827H121.14C120.714 73.4827 120.408 73.4019 120.223 73.2404C120.044 73.0731 119.955 72.8568 119.955 72.5915C119.955 72.3319 120.044 72.1214 120.223 71.9599C120.408 71.7926 120.714 71.709 121.14 71.709H123.217V77.6876L124.601 76.5715C124.457 76.3235 124.385 76.1216 124.385 75.9659C124.385 75.7005 124.474 75.4871 124.653 75.3256C124.832 75.1583 125.135 75.0747 125.562 75.0747H127.586C128.013 75.0747 128.316 75.1583 128.495 75.3256C128.679 75.4871 128.772 75.7005 128.772 75.9659C128.772 76.2254 128.679 76.4388 128.495 76.6061C128.316 76.7676 128.013 76.8484 127.586 76.8484H127.093L124.939 78.5961L127.837 81.1572H128.356C128.783 81.1572 129.086 81.2408 129.265 81.4081C129.449 81.5696 129.542 81.783 129.542 82.0483C129.542 82.3079 129.449 82.5213 129.265 82.6886C129.086 82.8501 128.783 82.9309 128.356 82.9309H126.314C125.888 82.9309 125.582 82.8501 125.397 82.6886C125.218 82.5213 125.129 82.305 125.129 82.0397C125.129 81.8147 125.227 81.5927 125.423 81.3735L123.546 79.7122L123.217 79.9805Z" fill="#FF0000"/>
</svg>
