<svg width="1445" height="722" viewBox="0 0 1445 722" fill="none" xmlns="http://www.w3.org/2000/svg">
<path d="M2.00008 241.438L242.096 241.438L242.096 1.99983" stroke="#FFB8A2" stroke-width="2.1343" stroke-miterlimit="10"/>
<path d="M122.118 241.51C188.419 241.51 242.166 187.91 242.166 121.791C242.166 55.6719 188.419 2.07178 122.118 2.07178C55.8175 2.07178 2.07031 55.6719 2.07031 121.791C2.07031 187.91 55.8175 241.51 122.118 241.51Z" stroke="#FFB8A2" stroke-width="2.1343" stroke-miterlimit="10"/>
<path d="M242.166 241.438L482.262 241.438L482.262 1.99983" stroke="#FFB8A2" stroke-width="2.1343" stroke-miterlimit="10"/>
<path d="M362.284 241.51C428.585 241.51 482.332 187.91 482.332 121.791C482.332 55.6719 428.585 2.07178 362.284 2.07178C295.984 2.07178 242.236 55.6719 242.236 121.791C242.236 187.91 295.984 241.51 362.284 241.51Z" stroke="#FFB8A2" stroke-width="2.1343" stroke-miterlimit="10"/>
<path d="M482.33 241.438L722.426 241.438V1.99983" stroke="#FFB8A2" stroke-width="2.1343" stroke-miterlimit="10"/>
<path d="M602.45 241.51C668.751 241.51 722.498 187.91 722.498 121.791C722.498 55.6715 668.751 2.07129 602.45 2.07129C536.15 2.07129 482.402 55.6715 482.402 121.791C482.402 187.91 536.15 241.51 602.45 241.51Z" stroke="#FFB8A2" stroke-width="2.1343" stroke-miterlimit="10"/>
<path d="M722.498 241.438L962.594 241.438V1.99983" stroke="#FFB8A2" stroke-width="2.1343" stroke-miterlimit="10"/>
<path d="M842.616 241.51C908.917 241.51 962.664 187.91 962.664 121.791C962.664 55.6719 908.917 2.07178 842.616 2.07178C776.316 2.07178 722.568 55.6719 722.568 121.791C722.568 187.91 776.316 241.51 842.616 241.51Z" stroke="#FFB8A2" stroke-width="2.1343" stroke-miterlimit="10"/>
<path d="M963.426 241.438L1203.52 241.438V1.99983" stroke="#FFB8A2" stroke-width="2.1343" stroke-miterlimit="10"/>
<path d="M1083.54 241.51C1149.84 241.51 1203.59 187.91 1203.59 121.791C1203.59 55.6715 1149.84 2.07129 1083.54 2.07129C1017.24 2.07129 963.496 55.6715 963.496 121.791C963.496 187.91 1017.24 241.51 1083.54 241.51Z" stroke="#FFB8A2" stroke-width="2.1343" stroke-miterlimit="10"/>
<path d="M1203.59 241.403L1443.68 241.403V241.438" stroke="#FFB8A2" stroke-width="2.1343" stroke-miterlimit="10"/>
<path d="M1323.7 241.474C1390 241.474 1443.75 187.874 1443.75 121.755C1443.75 55.6358 1390 2.03564 1323.7 2.03564C1257.4 2.03564 1203.66 55.6358 1203.66 121.755C1203.66 187.874 1257.4 241.474 1323.7 241.474Z" stroke="#FFB8A2" stroke-width="2.1343" stroke-miterlimit="10"/>
<path d="M2.00008 480.949L242.096 480.949L242.096 241.511" stroke="#FFB8A2" stroke-width="2.1343" stroke-miterlimit="10"/>
<path d="M122.118 481.021C188.419 481.021 242.166 427.421 242.166 361.302C242.166 295.183 188.419 241.583 122.118 241.583C55.8175 241.583 2.07031 295.183 2.07031 361.302C2.07031 427.421 55.8175 481.021 122.118 481.021Z" stroke="#FFB8A2" stroke-width="2.1343" stroke-miterlimit="10"/>
<path d="M722.426 480.949L482.33 480.949" stroke="#FFB8A2" stroke-width="2.1343" stroke-miterlimit="10"/>
<path d="M962.594 480.949L722.498 480.949" stroke="#FFB8A2" stroke-width="2.1343" stroke-miterlimit="10"/>
<path d="M963.42 480.949L1203.52 480.949V241.511" stroke="#FFB8A2" stroke-width="2.1343" stroke-miterlimit="10"/>
<path d="M1203.59 480.913L1443.68 480.913V480.949" stroke="#FFB8A2" stroke-width="2.1343" stroke-miterlimit="10"/>
<path d="M1323.7 480.985C1390 480.985 1443.75 427.385 1443.75 361.266C1443.75 295.147 1390 241.546 1323.7 241.546C1257.4 241.546 1203.66 295.147 1203.66 361.266C1203.66 427.385 1257.4 480.985 1323.7 480.985Z" stroke="#FFB8A2" stroke-width="2.1343" stroke-miterlimit="10"/>
<path d="M242.094 720.459H242.025L242.025 481.021" stroke="#FFB8A2" stroke-width="2.1343" stroke-miterlimit="10"/>
<path d="M122.048 720.531C188.348 720.531 242.096 666.931 242.096 600.812C242.096 534.692 188.348 481.092 122.048 481.092C55.7472 481.092 2 534.692 2 600.812C2 666.931 55.7472 720.531 122.048 720.531Z" stroke="#FFB8A2" stroke-width="2.1343" stroke-miterlimit="10"/>
<path d="M722.285 720.459H722.217V481.021" stroke="#FFB8A2" stroke-width="2.1343" stroke-miterlimit="10"/>
<path d="M602.239 720.531C668.54 720.531 722.287 666.931 722.287 600.812C722.287 534.692 668.54 481.092 602.239 481.092C535.939 481.092 482.191 534.692 482.191 600.812C482.191 666.931 535.939 720.531 602.239 720.531Z" stroke="#FFB8A2" stroke-width="2.1343" stroke-miterlimit="10"/>
<path d="M722.285 720.459H722.217V481.021" stroke="#FFB8A2" stroke-width="2.1343" stroke-miterlimit="10"/>
<path d="M602.239 720.531C668.54 720.531 722.287 666.931 722.287 600.812C722.287 534.692 668.54 481.092 602.239 481.092C535.939 481.092 482.191 534.692 482.191 600.812C482.191 666.931 535.939 720.531 602.239 720.531Z" stroke="#FFB8A2" stroke-width="2.1343" stroke-miterlimit="10"/>
<path d="M482.234 481L242.139 481" stroke="#FFB8A2" stroke-width="2.1343" stroke-miterlimit="10"/>
<path d="M482.094 720.51H482.025L482.025 481.072" stroke="#FFB8A2" stroke-width="2.1343" stroke-miterlimit="10"/>
<path d="M362.048 720.582C428.348 720.582 482.096 666.982 482.096 600.862C482.096 534.743 428.348 481.143 362.048 481.143C295.747 481.143 242 534.743 242 600.862C242 666.982 295.747 720.582 362.048 720.582Z" stroke="#FFB8A2" stroke-width="2.1343" stroke-miterlimit="10"/>
<path d="M962.381 720.459H962.313V481.021" stroke="#FFB8A2" stroke-width="2.1343" stroke-miterlimit="10"/>
<path d="M842.335 720.531C908.636 720.531 962.383 666.931 962.383 600.812C962.383 534.692 908.636 481.092 842.335 481.092C776.034 481.092 722.287 534.692 722.287 600.812C722.287 666.931 776.034 720.531 842.335 720.531Z" stroke="#FFB8A2" stroke-width="2.1343" stroke-miterlimit="10"/>
<path d="M962.381 720.459H962.313V481.021" stroke="#FFB8A2" stroke-width="2.1343" stroke-miterlimit="10"/>
<path d="M842.335 720.531C908.636 720.531 962.383 666.931 962.383 600.812C962.383 534.692 908.636 481.092 842.335 481.092C776.034 481.092 722.287 534.692 722.287 600.812C722.287 666.931 776.034 720.531 842.335 720.531Z" stroke="#FFB8A2" stroke-width="2.1343" stroke-miterlimit="10"/>
<path d="M1203.09 720.459H1203.03V481.021" stroke="#FFB8A2" stroke-width="2.1343" stroke-miterlimit="10"/>
<path d="M1083.05 720.531C1149.35 720.531 1203.1 666.931 1203.1 600.812C1203.1 534.692 1149.35 481.092 1083.05 481.092C1016.75 481.092 963 534.692 963 600.812C963 666.931 1016.75 720.531 1083.05 720.531Z" stroke="#FFB8A2" stroke-width="2.1343" stroke-miterlimit="10"/>
<path d="M1323.14 720.495C1389.44 720.495 1443.19 666.895 1443.19 600.776C1443.19 534.657 1389.44 481.057 1323.14 481.057C1256.84 481.057 1203.1 534.657 1203.1 600.776C1203.1 666.895 1256.84 720.495 1323.14 720.495Z" stroke="#FFB8A2" stroke-width="2.1343" stroke-miterlimit="10"/>
</svg>
