<svg width="1574" height="899" viewBox="0 0 1574 899" fill="none" xmlns="http://www.w3.org/2000/svg">
<g opacity="0.5">
<path d="M1.00006 225.371L225.987 225.371L225.987 0.999512L1.00006 0.999512L1.00006 225.371Z" stroke="#E5F0FF" stroke-miterlimit="10"/>
<path d="M113.562 225.438C175.691 225.438 226.056 175.211 226.056 113.252C226.056 51.2937 175.691 1.06641 113.562 1.06641C51.4335 1.06641 1.06836 51.2937 1.06836 113.252C1.06836 175.211 51.4335 225.438 113.562 225.438Z" stroke="#E5F0FF" stroke-miterlimit="10"/>
<path d="M226.056 113.252H1.06836" stroke="#E5F0FF" stroke-miterlimit="10"/>
<path d="M113.561 1.06641V225.438" stroke="#E5F0FF" stroke-miterlimit="10"/>
<path d="M225.556 225.371L450.543 225.371V0.999512L225.556 0.999512L225.556 225.371Z" stroke="#E5F0FF" stroke-miterlimit="10"/>
<path d="M338.118 225.438C400.246 225.438 450.611 175.211 450.611 113.252C450.611 51.2937 400.246 1.06641 338.118 1.06641C275.989 1.06641 225.624 51.2937 225.624 113.252C225.624 175.211 275.989 225.438 338.118 225.438Z" stroke="#E5F0FF" stroke-miterlimit="10"/>
<path d="M450.611 113.252H225.624" stroke="#E5F0FF" stroke-miterlimit="10"/>
<path d="M338.116 1.06641V225.438" stroke="#E5F0FF" stroke-miterlimit="10"/>
<path d="M450.11 225.371L675.098 225.371V0.999512L450.11 0.999512V225.371Z" stroke="#E5F0FF" stroke-miterlimit="10"/>
<path d="M562.672 225.438C624.801 225.438 675.166 175.211 675.166 113.252C675.166 51.2937 624.801 1.06641 562.672 1.06641C500.544 1.06641 450.179 51.2937 450.179 113.252C450.179 175.211 500.544 225.438 562.672 225.438Z" stroke="#E5F0FF" stroke-miterlimit="10"/>
<path d="M675.166 113.252H450.179" stroke="#E5F0FF" stroke-miterlimit="10"/>
<path d="M562.672 1.06641V225.438" stroke="#E5F0FF" stroke-miterlimit="10"/>
<path d="M674.666 225.371L899.653 225.371V0.999512L674.666 0.999512V225.371Z" stroke="#E5F0FF" stroke-miterlimit="10"/>
<path d="M787.161 225.438C849.289 225.438 899.654 175.211 899.654 113.252C899.654 51.2937 849.289 1.06641 787.161 1.06641C725.032 1.06641 674.667 51.2937 674.667 113.252C674.667 175.211 725.032 225.438 787.161 225.438Z" stroke="#E5F0FF" stroke-miterlimit="10"/>
<path d="M899.653 113.252H674.666" stroke="#E5F0FF" stroke-miterlimit="10"/>
<path d="M787.159 1.06641V225.438" stroke="#E5F0FF" stroke-miterlimit="10"/>
<path d="M899.154 225.371L1124.14 225.371V0.999512L899.154 0.999512V225.371Z" stroke="#E5F0FF" stroke-miterlimit="10"/>
<path d="M1011.65 225.438C1073.78 225.438 1124.14 175.211 1124.14 113.252C1124.14 51.2937 1073.78 1.06641 1011.65 1.06641C949.519 1.06641 899.154 51.2937 899.154 113.252C899.154 175.211 949.519 225.438 1011.65 225.438Z" stroke="#E5F0FF" stroke-miterlimit="10"/>
<path d="M1124.14 113.252H899.154" stroke="#E5F0FF" stroke-miterlimit="10"/>
<path d="M1011.65 1.06641V225.438" stroke="#E5F0FF" stroke-miterlimit="10"/>
<path d="M1123.64 225.371L1348.63 225.371V0.999512L1123.64 0.999512V225.371Z" stroke="#E5F0FF" stroke-miterlimit="10"/>
<path d="M1236.14 225.438C1298.26 225.438 1348.63 175.211 1348.63 113.252C1348.63 51.2937 1298.26 1.06641 1236.14 1.06641C1174.01 1.06641 1123.64 51.2937 1123.64 113.252C1123.64 175.211 1174.01 225.438 1236.14 225.438Z" stroke="#E5F0FF" stroke-miterlimit="10"/>
<path d="M1348.63 113.252H1123.64" stroke="#E5F0FF" stroke-miterlimit="10"/>
<path d="M1236.13 1.06641V225.438" stroke="#E5F0FF" stroke-miterlimit="10"/>
<path d="M1348.13 225.371L1573.12 225.371V0.999512L1348.13 0.999512V225.371Z" stroke="#E5F0FF" stroke-miterlimit="10"/>
<path d="M1460.62 225.438C1522.75 225.438 1573.12 175.211 1573.12 113.252C1573.12 51.2937 1522.75 1.06641 1460.62 1.06641C1398.49 1.06641 1348.13 51.2937 1348.13 113.252C1348.13 175.211 1398.49 225.438 1460.62 225.438Z" stroke="#E5F0FF" stroke-miterlimit="10"/>
<path d="M1573.12 113.252H1348.13" stroke="#E5F0FF" stroke-miterlimit="10"/>
<path d="M1460.62 1.06641V225.438" stroke="#E5F0FF" stroke-miterlimit="10"/>
<path d="M1.00006 449.609H225.987L225.987 225.238L1.00006 225.238L1.00006 449.609Z" stroke="#E5F0FF" stroke-miterlimit="10"/>
<path d="M113.562 449.676C175.691 449.676 226.056 399.449 226.056 337.49C226.056 275.532 175.691 225.305 113.562 225.305C51.4335 225.305 1.06836 275.532 1.06836 337.49C1.06836 399.449 51.4335 449.676 113.562 449.676Z" stroke="#E5F0FF" stroke-miterlimit="10"/>
<path d="M226.056 337.49H1.06836" stroke="#E5F0FF" stroke-miterlimit="10"/>
<path d="M113.561 225.305V449.676" stroke="#E5F0FF" stroke-miterlimit="10"/>
<path d="M225.556 449.609H450.543V225.238L225.556 225.238L225.556 449.609Z" stroke="#E5F0FF" stroke-miterlimit="10"/>
<path d="M338.118 449.676C400.246 449.676 450.611 399.449 450.611 337.49C450.611 275.532 400.246 225.305 338.118 225.305C275.989 225.305 225.624 275.532 225.624 337.49C225.624 399.449 275.989 449.676 338.118 449.676Z" stroke="#E5F0FF" stroke-miterlimit="10"/>
<path d="M450.611 337.49H225.624" stroke="#E5F0FF" stroke-miterlimit="10"/>
<path d="M338.116 225.305V449.676" stroke="#E5F0FF" stroke-miterlimit="10"/>
<path d="M450.11 449.609H675.098V225.238L450.11 225.238V449.609Z" stroke="#E5F0FF" stroke-miterlimit="10"/>
<path d="M562.672 449.676C624.801 449.676 675.166 399.449 675.166 337.49C675.166 275.532 624.801 225.305 562.672 225.305C500.544 225.305 450.179 275.532 450.179 337.49C450.179 399.449 500.544 449.676 562.672 449.676Z" stroke="#E5F0FF" stroke-miterlimit="10"/>
<path d="M675.166 337.49H450.179" stroke="#E5F0FF" stroke-miterlimit="10"/>
<path d="M562.672 225.305V449.676" stroke="#E5F0FF" stroke-miterlimit="10"/>
<path d="M674.666 449.609H899.653V225.238L674.666 225.238V449.609Z" stroke="#E5F0FF" stroke-miterlimit="10"/>
<path d="M787.161 449.676C849.289 449.676 899.654 399.449 899.654 337.49C899.654 275.532 849.289 225.305 787.161 225.305C725.032 225.305 674.667 275.532 674.667 337.49C674.667 399.449 725.032 449.676 787.161 449.676Z" stroke="#E5F0FF" stroke-miterlimit="10"/>
<path d="M899.653 337.49H674.666" stroke="#E5F0FF" stroke-miterlimit="10"/>
<path d="M787.159 225.305V449.676" stroke="#E5F0FF" stroke-miterlimit="10"/>
<path d="M899.154 449.609H1124.14V225.238L899.154 225.238V449.609Z" stroke="#E5F0FF" stroke-miterlimit="10"/>
<path d="M1011.65 449.676C1073.78 449.676 1124.14 399.449 1124.14 337.49C1124.14 275.532 1073.78 225.305 1011.65 225.305C949.519 225.305 899.154 275.532 899.154 337.49C899.154 399.449 949.519 449.676 1011.65 449.676Z" stroke="#E5F0FF" stroke-miterlimit="10"/>
<path d="M1124.14 337.49H899.154" stroke="#E5F0FF" stroke-miterlimit="10"/>
<path d="M1011.65 225.305V449.676" stroke="#E5F0FF" stroke-miterlimit="10"/>
<path d="M1123.64 449.609H1348.63V225.238L1123.64 225.238V449.609Z" stroke="#E5F0FF" stroke-miterlimit="10"/>
<path d="M1236.14 449.676C1298.26 449.676 1348.63 399.449 1348.63 337.49C1348.63 275.532 1298.26 225.305 1236.14 225.305C1174.01 225.305 1123.64 275.532 1123.64 337.49C1123.64 399.449 1174.01 449.676 1236.14 449.676Z" stroke="#E5F0FF" stroke-miterlimit="10"/>
<path d="M1348.63 337.49H1123.64" stroke="#E5F0FF" stroke-miterlimit="10"/>
<path d="M1236.13 225.305V449.676" stroke="#E5F0FF" stroke-miterlimit="10"/>
<path d="M1348.13 449.609H1573.12V225.238L1348.13 225.238V449.609Z" stroke="#E5F0FF" stroke-miterlimit="10"/>
<path d="M1460.62 449.676C1522.75 449.676 1573.12 399.449 1573.12 337.49C1573.12 275.532 1522.75 225.305 1460.62 225.305C1398.49 225.305 1348.13 275.532 1348.13 337.49C1348.13 399.449 1398.49 449.676 1460.62 449.676Z" stroke="#E5F0FF" stroke-miterlimit="10"/>
<path d="M1573.12 337.49H1348.13" stroke="#E5F0FF" stroke-miterlimit="10"/>
<path d="M1460.62 225.305V449.676" stroke="#E5F0FF" stroke-miterlimit="10"/>
<path d="M1.00006 673.848H225.987L225.987 449.476H1.00006L1.00006 673.848Z" stroke="#E5F0FF" stroke-miterlimit="10"/>
<path d="M113.562 673.915C175.691 673.915 226.056 623.687 226.056 561.729C226.056 499.77 175.691 449.543 113.562 449.543C51.4335 449.543 1.06836 499.77 1.06836 561.729C1.06836 623.687 51.4335 673.915 113.562 673.915Z" stroke="#E5F0FF" stroke-miterlimit="10"/>
<path d="M226.056 561.729H1.06836" stroke="#E5F0FF" stroke-miterlimit="10"/>
<path d="M113.561 449.543V673.915" stroke="#E5F0FF" stroke-miterlimit="10"/>
<path d="M225.556 673.848H450.543V449.476H225.556L225.556 673.848Z" stroke="#E5F0FF" stroke-miterlimit="10"/>
<path d="M338.118 673.915C400.246 673.915 450.611 623.687 450.611 561.729C450.611 499.77 400.246 449.543 338.118 449.543C275.989 449.543 225.624 499.77 225.624 561.729C225.624 623.687 275.989 673.915 338.118 673.915Z" stroke="#E5F0FF" stroke-miterlimit="10"/>
<path d="M450.611 561.729H225.624" stroke="#E5F0FF" stroke-miterlimit="10"/>
<path d="M338.116 449.543V673.915" stroke="#E5F0FF" stroke-miterlimit="10"/>
<path d="M450.11 673.848H675.098V449.476H450.11V673.848Z" stroke="#E5F0FF" stroke-miterlimit="10"/>
<path d="M562.672 673.915C624.801 673.915 675.166 623.687 675.166 561.729C675.166 499.77 624.801 449.543 562.672 449.543C500.544 449.543 450.179 499.77 450.179 561.729C450.179 623.687 500.544 673.915 562.672 673.915Z" stroke="#E5F0FF" stroke-miterlimit="10"/>
<path d="M675.166 561.729H450.179" stroke="#E5F0FF" stroke-miterlimit="10"/>
<path d="M562.672 449.543V673.915" stroke="#E5F0FF" stroke-miterlimit="10"/>
<path d="M674.666 673.848H899.653V449.476H674.666V673.848Z" stroke="#E5F0FF" stroke-miterlimit="10"/>
<path d="M787.161 673.915C849.289 673.915 899.654 623.687 899.654 561.729C899.654 499.77 849.289 449.543 787.161 449.543C725.032 449.543 674.667 499.77 674.667 561.729C674.667 623.687 725.032 673.915 787.161 673.915Z" stroke="#E5F0FF" stroke-miterlimit="10"/>
<path d="M899.653 561.729H674.666" stroke="#E5F0FF" stroke-miterlimit="10"/>
<path d="M787.159 449.543V673.915" stroke="#E5F0FF" stroke-miterlimit="10"/>
<path d="M899.154 673.848H1124.14V449.476H899.154V673.848Z" stroke="#E5F0FF" stroke-miterlimit="10"/>
<path d="M1011.65 673.915C1073.78 673.915 1124.14 623.687 1124.14 561.729C1124.14 499.77 1073.78 449.543 1011.65 449.543C949.519 449.543 899.154 499.77 899.154 561.729C899.154 623.687 949.519 673.915 1011.65 673.915Z" stroke="#E5F0FF" stroke-miterlimit="10"/>
<path d="M1124.14 561.729H899.154" stroke="#E5F0FF" stroke-miterlimit="10"/>
<path d="M1011.65 449.543V673.915" stroke="#E5F0FF" stroke-miterlimit="10"/>
<path d="M1123.64 673.848H1348.63V449.476H1123.64V673.848Z" stroke="#E5F0FF" stroke-miterlimit="10"/>
<path d="M1236.14 673.915C1298.26 673.915 1348.63 623.687 1348.63 561.729C1348.63 499.77 1298.26 449.543 1236.14 449.543C1174.01 449.543 1123.64 499.77 1123.64 561.729C1123.64 623.687 1174.01 673.915 1236.14 673.915Z" stroke="#E5F0FF" stroke-miterlimit="10"/>
<path d="M1348.63 561.729H1123.64" stroke="#E5F0FF" stroke-miterlimit="10"/>
<path d="M1236.13 449.543V673.915" stroke="#E5F0FF" stroke-miterlimit="10"/>
<path d="M1348.13 673.848H1573.12V449.476H1348.13V673.848Z" stroke="#E5F0FF" stroke-miterlimit="10"/>
<path d="M1460.62 673.915C1522.75 673.915 1573.12 623.687 1573.12 561.729C1573.12 499.77 1522.75 449.543 1460.62 449.543C1398.49 449.543 1348.13 499.77 1348.13 561.729C1348.13 623.687 1398.49 673.915 1460.62 673.915Z" stroke="#E5F0FF" stroke-miterlimit="10"/>
<path d="M1573.12 561.729H1348.13" stroke="#E5F0FF" stroke-miterlimit="10"/>
<path d="M1460.62 449.543V673.915" stroke="#E5F0FF" stroke-miterlimit="10"/>
<path d="M1.00006 898.086H225.987L225.987 673.714H1.00006L1.00006 898.086Z" stroke="#E5F0FF" stroke-miterlimit="10"/>
<path d="M113.562 898.153C175.691 898.153 226.056 847.926 226.056 785.967C226.056 724.009 175.691 673.781 113.562 673.781C51.4335 673.781 1.06836 724.009 1.06836 785.967C1.06836 847.926 51.4335 898.153 113.562 898.153Z" stroke="#E5F0FF" stroke-miterlimit="10"/>
<path d="M226.056 785.967H1.06836" stroke="#E5F0FF" stroke-miterlimit="10"/>
<path d="M113.561 673.781V898.153" stroke="#E5F0FF" stroke-miterlimit="10"/>
<path d="M225.556 898.086H450.543V673.714H225.556L225.556 898.086Z" stroke="#E5F0FF" stroke-miterlimit="10"/>
<path d="M338.118 898.153C400.246 898.153 450.611 847.926 450.611 785.967C450.611 724.009 400.246 673.781 338.118 673.781C275.989 673.781 225.624 724.009 225.624 785.967C225.624 847.926 275.989 898.153 338.118 898.153Z" stroke="#E5F0FF" stroke-miterlimit="10"/>
<path d="M450.611 785.967H225.624" stroke="#E5F0FF" stroke-miterlimit="10"/>
<path d="M338.116 673.781V898.153" stroke="#E5F0FF" stroke-miterlimit="10"/>
<path d="M450.11 898.086H675.098V673.714H450.11V898.086Z" stroke="#E5F0FF" stroke-miterlimit="10"/>
<path d="M562.672 898.153C624.801 898.153 675.166 847.926 675.166 785.967C675.166 724.009 624.801 673.781 562.672 673.781C500.544 673.781 450.179 724.009 450.179 785.967C450.179 847.926 500.544 898.153 562.672 898.153Z" stroke="#E5F0FF" stroke-miterlimit="10"/>
<path d="M675.166 785.967H450.179" stroke="#E5F0FF" stroke-miterlimit="10"/>
<path d="M562.672 673.781V898.153" stroke="#E5F0FF" stroke-miterlimit="10"/>
<path d="M674.666 898.086H899.653V673.714H674.666V898.086Z" stroke="#E5F0FF" stroke-miterlimit="10"/>
<path d="M787.161 898.153C849.289 898.153 899.654 847.926 899.654 785.967C899.654 724.009 849.289 673.781 787.161 673.781C725.032 673.781 674.667 724.009 674.667 785.967C674.667 847.926 725.032 898.153 787.161 898.153Z" stroke="#E5F0FF" stroke-miterlimit="10"/>
<path d="M899.653 785.967H674.666" stroke="#E5F0FF" stroke-miterlimit="10"/>
<path d="M787.159 673.781V898.153" stroke="#E5F0FF" stroke-miterlimit="10"/>
<path d="M899.154 898.086H1124.14V673.714H899.154V898.086Z" stroke="#E5F0FF" stroke-miterlimit="10"/>
<path d="M1011.65 898.153C1073.78 898.153 1124.14 847.926 1124.14 785.967C1124.14 724.009 1073.78 673.781 1011.65 673.781C949.519 673.781 899.154 724.009 899.154 785.967C899.154 847.926 949.519 898.153 1011.65 898.153Z" stroke="#E5F0FF" stroke-miterlimit="10"/>
<path d="M1124.14 785.967H899.154" stroke="#E5F0FF" stroke-miterlimit="10"/>
<path d="M1011.65 673.781V898.153" stroke="#E5F0FF" stroke-miterlimit="10"/>
<path d="M1123.64 898.086H1348.63V673.714H1123.64V898.086Z" stroke="#E5F0FF" stroke-miterlimit="10"/>
<path d="M1236.14 898.153C1298.26 898.153 1348.63 847.926 1348.63 785.967C1348.63 724.009 1298.26 673.781 1236.14 673.781C1174.01 673.781 1123.64 724.009 1123.64 785.967C1123.64 847.926 1174.01 898.153 1236.14 898.153Z" stroke="#E5F0FF" stroke-miterlimit="10"/>
<path d="M1348.63 785.967H1123.64" stroke="#E5F0FF" stroke-miterlimit="10"/>
<path d="M1236.13 673.781V898.153" stroke="#E5F0FF" stroke-miterlimit="10"/>
<path d="M1348.13 898.086H1573.12V673.714H1348.13V898.086Z" stroke="#E5F0FF" stroke-miterlimit="10"/>
<path d="M1460.62 898.153C1522.75 898.153 1573.12 847.926 1573.12 785.967C1573.12 724.009 1522.75 673.781 1460.62 673.781C1398.49 673.781 1348.13 724.009 1348.13 785.967C1348.13 847.926 1398.49 898.153 1460.62 898.153Z" stroke="#E5F0FF" stroke-miterlimit="10"/>
<path d="M1573.12 785.967H1348.13" stroke="#E5F0FF" stroke-miterlimit="10"/>
<path d="M1460.62 673.781V898.153" stroke="#E5F0FF" stroke-miterlimit="10"/>
</g>
</svg>
