<svg width="568" height="365" viewBox="0 0 568 365" fill="none" xmlns="http://www.w3.org/2000/svg">
<g clip-path="url(#clip0_397_428)">
<path d="M0.000387578 52.5703L141.959 52.5703L141.959 -88.9999" stroke="#FFB8A2" stroke-width="1.26193" stroke-miterlimit="10"/>
<path d="M141.959 -89L0 -89L0 52.5702" stroke="#FFB8A2" stroke-width="1.26193" stroke-miterlimit="10"/>
<path d="M71.0203 52.6127C110.221 52.6127 142 20.9211 142 -18.1724C142 -57.266 110.221 -88.9575 71.0203 -88.9575C31.8195 -88.9575 0.0410156 -57.266 0.0410156 -18.1724C0.0410156 20.9211 31.8195 52.6127 71.0203 52.6127Z" stroke="#FFB8A2" stroke-width="1.26193" stroke-miterlimit="10"/>
</g>
<g clip-path="url(#clip1_397_428)">
<path d="M142.002 52.5703L283.961 52.5703V-88.9999" stroke="#FFB8A2" stroke-width="1.26193" stroke-miterlimit="10"/>
<path d="M283.959 -89L142 -89L142 52.5702" stroke="#FFB8A2" stroke-width="1.26193" stroke-miterlimit="10"/>
<path d="M213.02 52.6127C252.221 52.6127 284 20.9211 284 -18.1724C284 -57.266 252.221 -88.9575 213.02 -88.9575C173.82 -88.9575 142.041 -57.266 142.041 -18.1724C142.041 20.9211 173.82 52.6127 213.02 52.6127Z" stroke="#FFB8A2" stroke-width="1.26193" stroke-miterlimit="10"/>
</g>
<g clip-path="url(#clip2_397_428)">
<path d="M284.002 52.5703L425.961 52.5703V-88.9999" stroke="#FFB8A2" stroke-width="1.26193" stroke-miterlimit="10"/>
<path d="M425.959 -89L284 -89V52.5702" stroke="#FFB8A2" stroke-width="1.26193" stroke-miterlimit="10"/>
<path d="M355.02 52.6127C394.221 52.6127 426 20.9211 426 -18.1724C426 -57.266 394.221 -88.9575 355.02 -88.9575C315.82 -88.9575 284.041 -57.266 284.041 -18.1724C284.041 20.9211 315.82 52.6127 355.02 52.6127Z" stroke="#FFB8A2" stroke-width="1.26193" stroke-miterlimit="10"/>
</g>
<g clip-path="url(#clip3_397_428)">
<path d="M426 52.5703L567.959 52.5703V-88.9999" stroke="#FFB8A2" stroke-width="1.26193" stroke-miterlimit="10"/>
<path d="M567.959 -89L426 -89V52.5702" stroke="#FFB8A2" stroke-width="1.26193" stroke-miterlimit="10"/>
<path d="M497.02 52.6127C536.221 52.6127 568 20.9211 568 -18.1724C568 -57.266 536.221 -88.9575 497.02 -88.9575C457.82 -88.9575 426.041 -57.266 426.041 -18.1724C426.041 20.9211 457.82 52.6127 497.02 52.6127Z" stroke="#FFB8A2" stroke-width="1.26193" stroke-miterlimit="10"/>
</g>
<g clip-path="url(#clip4_397_428)">
<path d="M0.000387578 454.183H141.959L141.959 312.613" stroke="#FFB8A2" stroke-width="1.26193" stroke-miterlimit="10"/>
<path d="M141.959 312.613H0L0 454.183" stroke="#FFB8A2" stroke-width="1.26193" stroke-miterlimit="10"/>
<path d="M71.0203 454.225C110.221 454.225 142 422.534 142 383.44C142 344.347 110.221 312.655 71.0203 312.655C31.8195 312.655 0.0410156 344.347 0.0410156 383.44C0.0410156 422.534 31.8195 454.225 71.0203 454.225Z" stroke="#FFB8A2" stroke-width="1.26193" stroke-miterlimit="10"/>
</g>
<g clip-path="url(#clip5_397_428)">
<path d="M142.002 454.183H283.961V312.613" stroke="#FFB8A2" stroke-width="1.26193" stroke-miterlimit="10"/>
<path d="M283.959 312.613H142L142 454.183" stroke="#FFB8A2" stroke-width="1.26193" stroke-miterlimit="10"/>
<path d="M213.02 454.225C252.221 454.225 284 422.534 284 383.44C284 344.347 252.221 312.655 213.02 312.655C173.82 312.655 142.041 344.347 142.041 383.44C142.041 422.534 173.82 454.225 213.02 454.225Z" stroke="#FFB8A2" stroke-width="1.26193" stroke-miterlimit="10"/>
</g>
<g clip-path="url(#clip6_397_428)">
<path d="M284.002 454.183H425.961V312.613" stroke="#FFB8A2" stroke-width="1.26193" stroke-miterlimit="10"/>
<path d="M425.959 312.613H284V454.183" stroke="#FFB8A2" stroke-width="1.26193" stroke-miterlimit="10"/>
<path d="M355.02 454.225C394.221 454.225 426 422.534 426 383.44C426 344.347 394.221 312.655 355.02 312.655C315.82 312.655 284.041 344.347 284.041 383.44C284.041 422.534 315.82 454.225 355.02 454.225Z" stroke="#FFB8A2" stroke-width="1.26193" stroke-miterlimit="10"/>
</g>
<g clip-path="url(#clip7_397_428)">
<path d="M426 454.183H567.959V312.613" stroke="#FFB8A2" stroke-width="1.26193" stroke-miterlimit="10"/>
<path d="M567.959 312.613H426V454.183" stroke="#FFB8A2" stroke-width="1.26193" stroke-miterlimit="10"/>
<path d="M497.02 454.225C536.221 454.225 568 422.534 568 383.44C568 344.347 536.221 312.655 497.02 312.655C457.82 312.655 426.041 344.347 426.041 383.44C426.041 422.534 457.82 454.225 497.02 454.225Z" stroke="#FFB8A2" stroke-width="1.26193" stroke-miterlimit="10"/>
</g>
<defs>
<clipPath id="clip0_397_428">
<rect width="142" height="141.613" fill="white" transform="translate(0 -89)"/>
</clipPath>
<clipPath id="clip1_397_428">
<rect width="142" height="141.613" fill="white" transform="translate(142 -89)"/>
</clipPath>
<clipPath id="clip2_397_428">
<rect width="142" height="141.613" fill="white" transform="translate(284 -89)"/>
</clipPath>
<clipPath id="clip3_397_428">
<rect width="142" height="141.613" fill="white" transform="translate(426 -89)"/>
</clipPath>
<clipPath id="clip4_397_428">
<rect width="142" height="141.613" fill="white" transform="translate(0 312.613)"/>
</clipPath>
<clipPath id="clip5_397_428">
<rect width="142" height="141.613" fill="white" transform="translate(142 312.613)"/>
</clipPath>
<clipPath id="clip6_397_428">
<rect width="142" height="141.613" fill="white" transform="translate(284 312.613)"/>
</clipPath>
<clipPath id="clip7_397_428">
<rect width="142" height="141.613" fill="white" transform="translate(426 312.613)"/>
</clipPath>
</defs>
</svg>
