<svg width="1280" height="1277" viewBox="0 0 1280 1277" fill="none" xmlns="http://www.w3.org/2000/svg">
<g clip-path="url(#clip0_362_500)">
<g clip-path="url(#clip1_362_500)">
<path d="M0.00064231 255.225L255.926 255.225L255.926 0.00025155" stroke="#FFB8A2" stroke-miterlimit="10"/>
<path d="M255.925 0L0 0L0 255.225" stroke="#FFB8A2" stroke-miterlimit="10"/>
<path d="M128.037 255.302C198.709 255.302 255.999 198.167 255.999 127.689C255.999 57.2107 198.709 0.0766602 128.037 0.0766602C57.365 0.0766602 0.0742188 57.2107 0.0742188 127.689C0.0742188 198.167 57.365 255.302 128.037 255.302Z" stroke="#FFB8A2" stroke-miterlimit="10"/>
<path d="M256.001 255.225L511.926 255.225L511.926 0.00025155" stroke="#FFB8A2" stroke-miterlimit="10"/>
<path d="M511.925 0L256 0L256 255.225" stroke="#FFB8A2" stroke-miterlimit="10"/>
<path d="M384.037 255.302C454.709 255.302 511.999 198.167 511.999 127.689C511.999 57.2107 454.709 0.0766602 384.037 0.0766602C313.365 0.0766602 256.074 57.2107 256.074 127.689C256.074 198.167 313.365 255.302 384.037 255.302Z" stroke="#FFB8A2" stroke-miterlimit="10"/>
<path d="M512.001 255.225L767.926 255.225V0.00025155" stroke="#FFB8A2" stroke-miterlimit="10"/>
<path d="M767.925 0L512 0V255.225" stroke="#FFB8A2" stroke-miterlimit="10"/>
<path d="M640.037 255.302C710.709 255.302 767.999 198.167 767.999 127.689C767.999 57.2107 710.709 0.0766602 640.037 0.0766602C569.365 0.0766602 512.074 57.2107 512.074 127.689C512.074 198.167 569.365 255.302 640.037 255.302Z" stroke="#FFB8A2" stroke-miterlimit="10"/>
<path d="M768.001 255.225L1023.93 255.225V0.00025155" stroke="#FFB8A2" stroke-miterlimit="10"/>
<path d="M1023.93 0L768 0V255.225" stroke="#FFB8A2" stroke-miterlimit="10"/>
<path d="M896.037 255.302C966.709 255.302 1024 198.167 1024 127.689C1024 57.2107 966.709 0.0766602 896.037 0.0766602C825.365 0.0766602 768.074 57.2107 768.074 127.689C768.074 198.167 825.365 255.302 896.037 255.302Z" stroke="#FFB8A2" stroke-miterlimit="10"/>
<path d="M1024 255.225L1279.93 255.225V0.00025155" stroke="#FFB8A2" stroke-miterlimit="10"/>
<path d="M1279.93 0L1024 0V255.225" stroke="#FFB8A2" stroke-miterlimit="10"/>
<path d="M1152.04 255.302C1222.71 255.302 1280 198.167 1280 127.689C1280 57.2107 1222.71 0.0766602 1152.04 0.0766602C1081.37 0.0766602 1024.07 57.2107 1024.07 127.689C1024.07 198.167 1081.37 255.302 1152.04 255.302Z" stroke="#FFB8A2" stroke-miterlimit="10"/>
</g>
<g clip-path="url(#clip2_362_500)">
<path d="M0.00064231 510.527L255.926 510.527L255.926 255.302" stroke="#FFB8A2" stroke-miterlimit="10"/>
<path d="M255.925 255.302L0 255.302L0 510.527" stroke="#FFB8A2" stroke-miterlimit="10"/>
<path d="M128.037 510.603C198.709 510.603 255.999 453.469 255.999 382.991C255.999 312.512 198.709 255.378 128.037 255.378C57.365 255.378 0.0742188 312.512 0.0742188 382.991C0.0742188 453.469 57.365 510.603 128.037 510.603Z" stroke="#FFB8A2" stroke-miterlimit="10"/>
<path d="M256.001 510.527L511.926 510.527L511.926 255.302" stroke="#FFB8A2" stroke-miterlimit="10"/>
<path d="M511.925 255.302L256 255.302L256 510.527" stroke="#FFB8A2" stroke-miterlimit="10"/>
<path d="M384.037 510.603C454.709 510.603 511.999 453.469 511.999 382.991C511.999 312.512 454.709 255.378 384.037 255.378C313.365 255.378 256.074 312.512 256.074 382.991C256.074 453.469 313.365 510.603 384.037 510.603Z" stroke="#FFB8A2" stroke-miterlimit="10"/>
<path d="M512.001 510.527L767.926 510.527V255.302" stroke="#FFB8A2" stroke-miterlimit="10"/>
<path d="M767.925 255.302L512 255.302V510.527" stroke="#FFB8A2" stroke-miterlimit="10"/>
<path d="M640.037 510.603C710.709 510.603 767.999 453.469 767.999 382.991C767.999 312.512 710.709 255.378 640.037 255.378C569.365 255.378 512.074 312.512 512.074 382.991C512.074 453.469 569.365 510.603 640.037 510.603Z" stroke="#FFB8A2" stroke-miterlimit="10"/>
<path d="M768.001 510.527L1023.93 510.527V255.302" stroke="#FFB8A2" stroke-miterlimit="10"/>
<path d="M1023.93 255.302L768 255.302V510.527" stroke="#FFB8A2" stroke-miterlimit="10"/>
<path d="M896.037 510.603C966.709 510.603 1024 453.469 1024 382.991C1024 312.512 966.709 255.378 896.037 255.378C825.365 255.378 768.074 312.512 768.074 382.991C768.074 453.469 825.365 510.603 896.037 510.603Z" stroke="#FFB8A2" stroke-miterlimit="10"/>
<path d="M1024 510.527L1279.93 510.527V255.302" stroke="#FFB8A2" stroke-miterlimit="10"/>
<path d="M1279.93 255.302L1024 255.302V510.527" stroke="#FFB8A2" stroke-miterlimit="10"/>
<path d="M1152.04 510.603C1222.71 510.603 1280 453.469 1280 382.991C1280 312.512 1222.71 255.378 1152.04 255.378C1081.37 255.378 1024.07 312.512 1024.07 382.991C1024.07 453.469 1081.37 510.603 1152.04 510.603Z" stroke="#FFB8A2" stroke-miterlimit="10"/>
</g>
<g clip-path="url(#clip3_362_500)">
<path d="M0.00064231 765.828H255.926L255.926 510.603" stroke="#FFB8A2" stroke-miterlimit="10"/>
<path d="M255.925 510.603L0 510.603L0 765.828" stroke="#FFB8A2" stroke-miterlimit="10"/>
<path d="M128.037 765.905C198.709 765.905 255.999 708.771 255.999 638.292C255.999 567.814 198.709 510.68 128.037 510.68C57.365 510.68 0.0742188 567.814 0.0742188 638.292C0.0742188 708.771 57.365 765.905 128.037 765.905Z" stroke="#FFB8A2" stroke-miterlimit="10"/>
<path d="M256.001 765.828H511.926L511.926 510.603" stroke="#FFB8A2" stroke-miterlimit="10"/>
<path d="M511.925 510.603L256 510.603L256 765.828" stroke="#FFB8A2" stroke-miterlimit="10"/>
<path d="M384.037 765.905C454.709 765.905 511.999 708.771 511.999 638.292C511.999 567.814 454.709 510.68 384.037 510.68C313.365 510.68 256.074 567.814 256.074 638.292C256.074 708.771 313.365 765.905 384.037 765.905Z" stroke="#FFB8A2" stroke-miterlimit="10"/>
<path d="M512.001 765.828H767.926V510.603" stroke="#FFB8A2" stroke-miterlimit="10"/>
<path d="M767.925 510.603L512 510.603V765.828" stroke="#FFB8A2" stroke-miterlimit="10"/>
<path d="M640.037 765.905C710.709 765.905 767.999 708.771 767.999 638.292C767.999 567.814 710.709 510.68 640.037 510.68C569.365 510.68 512.074 567.814 512.074 638.292C512.074 708.771 569.365 765.905 640.037 765.905Z" stroke="#FFB8A2" stroke-miterlimit="10"/>
<path d="M768.001 765.828H1023.93V510.603" stroke="#FFB8A2" stroke-miterlimit="10"/>
<path d="M1023.93 510.603L768 510.603V765.828" stroke="#FFB8A2" stroke-miterlimit="10"/>
<path d="M896.037 765.905C966.709 765.905 1024 708.771 1024 638.292C1024 567.814 966.709 510.68 896.037 510.68C825.365 510.68 768.074 567.814 768.074 638.292C768.074 708.771 825.365 765.905 896.037 765.905Z" stroke="#FFB8A2" stroke-miterlimit="10"/>
<path d="M1024 765.828H1279.93V510.603" stroke="#FFB8A2" stroke-miterlimit="10"/>
<path d="M1279.93 510.603L1024 510.603V765.828" stroke="#FFB8A2" stroke-miterlimit="10"/>
<path d="M1152.04 765.905C1222.71 765.905 1280 708.771 1280 638.292C1280 567.814 1222.71 510.68 1152.04 510.68C1081.37 510.68 1024.07 567.814 1024.07 638.292C1024.07 708.771 1081.37 765.905 1152.04 765.905Z" stroke="#FFB8A2" stroke-miterlimit="10"/>
</g>
<g clip-path="url(#clip4_362_500)">
<path d="M0.00064231 1021.13H255.926L255.926 765.905" stroke="#FFB8A2" stroke-miterlimit="10"/>
<path d="M255.925 765.904H0L0 1021.13" stroke="#FFB8A2" stroke-miterlimit="10"/>
<path d="M128.037 1021.21C198.709 1021.21 255.999 964.072 255.999 893.593C255.999 823.115 198.709 765.981 128.037 765.981C57.365 765.981 0.0742188 823.115 0.0742188 893.593C0.0742188 964.072 57.365 1021.21 128.037 1021.21Z" stroke="#FFB8A2" stroke-miterlimit="10"/>
<path d="M256.001 1021.13H511.926L511.926 765.905" stroke="#FFB8A2" stroke-miterlimit="10"/>
<path d="M511.925 765.904H256L256 1021.13" stroke="#FFB8A2" stroke-miterlimit="10"/>
<path d="M384.037 1021.21C454.709 1021.21 511.999 964.072 511.999 893.593C511.999 823.115 454.709 765.981 384.037 765.981C313.365 765.981 256.074 823.115 256.074 893.593C256.074 964.072 313.365 1021.21 384.037 1021.21Z" stroke="#FFB8A2" stroke-miterlimit="10"/>
<path d="M512.001 1021.13H767.926V765.905" stroke="#FFB8A2" stroke-miterlimit="10"/>
<path d="M767.925 765.904H512V1021.13" stroke="#FFB8A2" stroke-miterlimit="10"/>
<path d="M640.037 1021.21C710.709 1021.21 767.999 964.072 767.999 893.593C767.999 823.115 710.709 765.981 640.037 765.981C569.365 765.981 512.074 823.115 512.074 893.593C512.074 964.072 569.365 1021.21 640.037 1021.21Z" stroke="#FFB8A2" stroke-miterlimit="10"/>
<path d="M768.001 1021.13H1023.93V765.905" stroke="#FFB8A2" stroke-miterlimit="10"/>
<path d="M1023.93 765.904H768V1021.13" stroke="#FFB8A2" stroke-miterlimit="10"/>
<path d="M896.037 1021.21C966.709 1021.21 1024 964.072 1024 893.593C1024 823.115 966.709 765.981 896.037 765.981C825.365 765.981 768.074 823.115 768.074 893.593C768.074 964.072 825.365 1021.21 896.037 1021.21Z" stroke="#FFB8A2" stroke-miterlimit="10"/>
<path d="M1024 1021.13H1279.93V765.905" stroke="#FFB8A2" stroke-miterlimit="10"/>
<path d="M1279.93 765.904H1024V1021.13" stroke="#FFB8A2" stroke-miterlimit="10"/>
<path d="M1152.04 1021.21C1222.71 1021.21 1280 964.072 1280 893.593C1280 823.115 1222.71 765.981 1152.04 765.981C1081.37 765.981 1024.07 823.115 1024.07 893.593C1024.07 964.072 1081.37 1021.21 1152.04 1021.21Z" stroke="#FFB8A2" stroke-miterlimit="10"/>
</g>
<g clip-path="url(#clip5_362_500)">
<path d="M0.00064231 1276.43H255.926L255.926 1021.21" stroke="#FFB8A2" stroke-miterlimit="10"/>
<path d="M255.925 1021.21H0L0 1276.43" stroke="#FFB8A2" stroke-miterlimit="10"/>
<path d="M128.037 1276.51C198.709 1276.51 255.999 1219.37 255.999 1148.9C255.999 1078.42 198.709 1021.28 128.037 1021.28C57.365 1021.28 0.0742188 1078.42 0.0742188 1148.9C0.0742188 1219.37 57.365 1276.51 128.037 1276.51Z" stroke="#FFB8A2" stroke-miterlimit="10"/>
<path d="M256.001 1276.43H511.926L511.926 1021.21" stroke="#FFB8A2" stroke-miterlimit="10"/>
<path d="M511.925 1021.21H256L256 1276.43" stroke="#FFB8A2" stroke-miterlimit="10"/>
<path d="M384.037 1276.51C454.709 1276.51 511.999 1219.37 511.999 1148.9C511.999 1078.42 454.709 1021.28 384.037 1021.28C313.365 1021.28 256.074 1078.42 256.074 1148.9C256.074 1219.37 313.365 1276.51 384.037 1276.51Z" stroke="#FFB8A2" stroke-miterlimit="10"/>
<path d="M512.001 1276.43H767.926V1021.21" stroke="#FFB8A2" stroke-miterlimit="10"/>
<path d="M767.925 1021.21H512V1276.43" stroke="#FFB8A2" stroke-miterlimit="10"/>
<path d="M640.037 1276.51C710.709 1276.51 767.999 1219.37 767.999 1148.9C767.999 1078.42 710.709 1021.28 640.037 1021.28C569.365 1021.28 512.074 1078.42 512.074 1148.9C512.074 1219.37 569.365 1276.51 640.037 1276.51Z" stroke="#FFB8A2" stroke-miterlimit="10"/>
<path d="M768.001 1276.43H1023.93V1021.21" stroke="#FFB8A2" stroke-miterlimit="10"/>
<path d="M1023.93 1021.21H768V1276.43" stroke="#FFB8A2" stroke-miterlimit="10"/>
<path d="M896.037 1276.51C966.709 1276.51 1024 1219.37 1024 1148.9C1024 1078.42 966.709 1021.28 896.037 1021.28C825.365 1021.28 768.074 1078.42 768.074 1148.9C768.074 1219.37 825.365 1276.51 896.037 1276.51Z" stroke="#FFB8A2" stroke-miterlimit="10"/>
<path d="M1024 1276.43H1279.93V1021.21" stroke="#FFB8A2" stroke-miterlimit="10"/>
<path d="M1279.93 1021.21H1024V1276.43" stroke="#FFB8A2" stroke-miterlimit="10"/>
<path d="M1152.04 1276.51C1222.71 1276.51 1280 1219.37 1280 1148.9C1280 1078.42 1222.71 1021.28 1152.04 1021.28C1081.37 1021.28 1024.07 1078.42 1024.07 1148.9C1024.07 1219.37 1081.37 1276.51 1152.04 1276.51Z" stroke="#FFB8A2" stroke-miterlimit="10"/>
</g>
</g>
<defs>
<clipPath id="clip0_362_500">
<rect width="1280" height="1276.51" fill="white"/>
</clipPath>
<clipPath id="clip1_362_500">
<rect width="1280" height="255.302" fill="white"/>
</clipPath>
<clipPath id="clip2_362_500">
<rect width="1280" height="255.302" fill="white" transform="translate(0 255.302)"/>
</clipPath>
<clipPath id="clip3_362_500">
<rect width="1280" height="255.302" fill="white" transform="translate(0 510.603)"/>
</clipPath>
<clipPath id="clip4_362_500">
<rect width="1280" height="255.302" fill="white" transform="translate(0 765.904)"/>
</clipPath>
<clipPath id="clip5_362_500">
<rect width="1280" height="255.302" fill="white" transform="translate(0 1021.21)"/>
</clipPath>
</defs>
</svg>
