<svg width="1803" height="901" viewBox="0 0 1803 901" fill="none" xmlns="http://www.w3.org/2000/svg">
<g opacity="0.5">
<g clip-path="url(#clip0_778_77817)">
<path d="M1576.12 225.514L1801.11 225.514V1.14209L1576.12 1.14209V225.514Z" stroke="white" stroke-opacity="0.6" stroke-miterlimit="10"/>
<path d="M1688.61 225.581C1750.74 225.581 1801.11 175.353 1801.11 113.395C1801.11 51.4363 1750.74 1.20898 1688.61 1.20898C1626.49 1.20898 1576.12 51.4363 1576.12 113.395C1576.12 175.353 1626.49 225.581 1688.61 225.581Z" stroke="white" stroke-opacity="0.6" stroke-miterlimit="10"/>
<path d="M1801.11 113.395H1576.12" stroke="white" stroke-opacity="0.6" stroke-miterlimit="10"/>
<path d="M1688.61 1.20898V225.581" stroke="white" stroke-opacity="0.6" stroke-miterlimit="10"/>
<path d="M1351.13 225.514L1576.12 225.514V1.14209L1351.13 1.14209V225.514Z" stroke="white" stroke-opacity="0.6" stroke-miterlimit="10"/>
<path d="M1463.63 225.581C1525.76 225.581 1576.12 175.353 1576.12 113.395C1576.12 51.4363 1525.76 1.20898 1463.63 1.20898C1401.5 1.20898 1351.13 51.4363 1351.13 113.395C1351.13 175.353 1401.5 225.581 1463.63 225.581Z" stroke="white" stroke-opacity="0.6" stroke-miterlimit="10"/>
<path d="M1576.12 113.395H1351.13" stroke="white" stroke-opacity="0.6" stroke-miterlimit="10"/>
<path d="M1463.63 1.20898V225.581" stroke="white" stroke-opacity="0.6" stroke-miterlimit="10"/>
<path d="M1126.15 225.514L1351.13 225.514V1.14209L1126.15 1.14209V225.514Z" stroke="white" stroke-opacity="0.6" stroke-miterlimit="10"/>
<path d="M1238.64 225.581C1300.77 225.581 1351.13 175.353 1351.13 113.395C1351.13 51.4363 1300.77 1.20898 1238.64 1.20898C1176.51 1.20898 1126.15 51.4363 1126.15 113.395C1126.15 175.353 1176.51 225.581 1238.64 225.581Z" stroke="white" stroke-opacity="0.6" stroke-miterlimit="10"/>
<path d="M1351.13 113.395H1126.15" stroke="white" stroke-opacity="0.6" stroke-miterlimit="10"/>
<path d="M1238.64 1.20898V225.581" stroke="white" stroke-opacity="0.6" stroke-miterlimit="10"/>
<path d="M901.159 225.514L1126.15 225.514V1.14209L901.159 1.14209V225.514Z" stroke="white" stroke-opacity="0.6" stroke-miterlimit="10"/>
<path d="M1013.65 225.581C1075.78 225.581 1126.15 175.353 1126.15 113.395C1126.15 51.4363 1075.78 1.20898 1013.65 1.20898C951.524 1.20898 901.159 51.4363 901.159 113.395C901.159 175.353 951.524 225.581 1013.65 225.581Z" stroke="white" stroke-opacity="0.6" stroke-miterlimit="10"/>
<path d="M1126.15 113.395H901.159" stroke="white" stroke-opacity="0.6" stroke-miterlimit="10"/>
<path d="M1013.65 1.20898V225.581" stroke="white" stroke-opacity="0.6" stroke-miterlimit="10"/>
<path d="M676.172 225.514L901.16 225.514V1.14209L676.172 1.14209V225.514Z" stroke="white" stroke-opacity="0.6" stroke-miterlimit="10"/>
<path d="M788.667 225.581C850.796 225.581 901.161 175.353 901.161 113.395C901.161 51.4363 850.796 1.20898 788.667 1.20898C726.539 1.20898 676.174 51.4363 676.174 113.395C676.174 175.353 726.539 225.581 788.667 225.581Z" stroke="white" stroke-opacity="0.6" stroke-miterlimit="10"/>
<path d="M901.16 113.395H676.172" stroke="white" stroke-opacity="0.6" stroke-miterlimit="10"/>
<path d="M788.666 1.20898V225.581" stroke="white" stroke-opacity="0.6" stroke-miterlimit="10"/>
<path d="M451.118 225.514L676.106 225.514V1.14209L451.118 1.14209V225.514Z" stroke="white" stroke-opacity="0.6" stroke-miterlimit="10"/>
<path d="M563.68 225.581C625.809 225.581 676.174 175.353 676.174 113.395C676.174 51.4363 625.809 1.20898 563.68 1.20898C501.552 1.20898 451.186 51.4363 451.186 113.395C451.186 175.353 501.552 225.581 563.68 225.581Z" stroke="white" stroke-opacity="0.6" stroke-miterlimit="10"/>
<path d="M676.174 113.395H451.186" stroke="white" stroke-opacity="0.6" stroke-miterlimit="10"/>
<path d="M563.68 1.20898V225.581" stroke="white" stroke-opacity="0.6" stroke-miterlimit="10"/>
<path d="M226.132 225.514L451.119 225.514V1.14209L226.132 1.14209L226.132 225.514Z" stroke="white" stroke-opacity="0.6" stroke-miterlimit="10"/>
<path d="M338.694 225.581C400.822 225.581 451.187 175.353 451.187 113.395C451.187 51.4363 400.822 1.20898 338.694 1.20898C276.565 1.20898 226.2 51.4363 226.2 113.395C226.2 175.353 276.565 225.581 338.694 225.581Z" stroke="white" stroke-opacity="0.6" stroke-miterlimit="10"/>
<path d="M451.187 113.395H226.2" stroke="white" stroke-opacity="0.6" stroke-miterlimit="10"/>
<path d="M338.693 1.20898V225.581" stroke="white" stroke-opacity="0.6" stroke-miterlimit="10"/>
<path d="M1.14264 225.514L226.13 225.514L226.13 1.14209L1.14264 1.14209L1.14264 225.514Z" stroke="white" stroke-opacity="0.6" stroke-miterlimit="10"/>
<path d="M113.704 225.581C175.833 225.581 226.198 175.353 226.198 113.395C226.198 51.4363 175.833 1.20898 113.704 1.20898C51.5757 1.20898 1.21057 51.4363 1.21057 113.395C1.21057 175.353 51.5757 225.581 113.704 225.581Z" stroke="white" stroke-opacity="0.6" stroke-miterlimit="10"/>
<path d="M226.198 113.395H1.21057" stroke="white" stroke-opacity="0.6" stroke-miterlimit="10"/>
<path d="M113.703 1.20898V225.581" stroke="white" stroke-opacity="0.6" stroke-miterlimit="10"/>
</g>
<path d="M1576.12 450.154H1801.11V225.782L1576.12 225.782V450.154Z" stroke="white" stroke-opacity="0.6" stroke-miterlimit="10"/>
<path d="M1688.61 450.221C1750.74 450.221 1801.11 399.993 1801.11 338.035C1801.11 276.076 1750.74 225.849 1688.61 225.849C1626.49 225.849 1576.12 276.076 1576.12 338.035C1576.12 399.993 1626.49 450.221 1688.61 450.221Z" stroke="white" stroke-opacity="0.6" stroke-miterlimit="10"/>
<path d="M1801.11 338.035H1576.12" stroke="white" stroke-opacity="0.6" stroke-miterlimit="10"/>
<path d="M1688.61 225.849V450.221" stroke="white" stroke-opacity="0.6" stroke-miterlimit="10"/>
<path d="M1351.13 450.154H1576.12V225.782L1351.13 225.782V450.154Z" stroke="white" stroke-opacity="0.6" stroke-miterlimit="10"/>
<path d="M1463.63 450.221C1525.76 450.221 1576.12 399.993 1576.12 338.035C1576.12 276.076 1525.76 225.849 1463.63 225.849C1401.5 225.849 1351.13 276.076 1351.13 338.035C1351.13 399.993 1401.5 450.221 1463.63 450.221Z" stroke="white" stroke-opacity="0.6" stroke-miterlimit="10"/>
<path d="M1576.12 338.035H1351.13" stroke="white" stroke-opacity="0.6" stroke-miterlimit="10"/>
<path d="M1463.63 225.849V450.221" stroke="white" stroke-opacity="0.6" stroke-miterlimit="10"/>
<path d="M1126.15 450.154H1351.13V225.782L1126.15 225.782V450.154Z" stroke="white" stroke-opacity="0.6" stroke-miterlimit="10"/>
<path d="M1238.64 450.221C1300.77 450.221 1351.13 399.993 1351.13 338.035C1351.13 276.076 1300.77 225.849 1238.64 225.849C1176.51 225.849 1126.15 276.076 1126.15 338.035C1126.15 399.993 1176.51 450.221 1238.64 450.221Z" stroke="white" stroke-opacity="0.6" stroke-miterlimit="10"/>
<path d="M1351.13 338.035H1126.15" stroke="white" stroke-opacity="0.6" stroke-miterlimit="10"/>
<path d="M1238.64 225.849V450.221" stroke="white" stroke-opacity="0.6" stroke-miterlimit="10"/>
<path d="M901.159 450.154H1126.15V225.782L901.159 225.782V450.154Z" stroke="white" stroke-opacity="0.6" stroke-miterlimit="10"/>
<path d="M1013.65 450.221C1075.78 450.221 1126.15 399.993 1126.15 338.035C1126.15 276.076 1075.78 225.849 1013.65 225.849C951.524 225.849 901.159 276.076 901.159 338.035C901.159 399.993 951.524 450.221 1013.65 450.221Z" stroke="white" stroke-opacity="0.6" stroke-miterlimit="10"/>
<path d="M1126.15 338.035H901.159" stroke="white" stroke-opacity="0.6" stroke-miterlimit="10"/>
<path d="M1013.65 225.849V450.221" stroke="white" stroke-opacity="0.6" stroke-miterlimit="10"/>
<path d="M676.172 450.154H901.16V225.782L676.172 225.782V450.154Z" stroke="white" stroke-opacity="0.6" stroke-miterlimit="10"/>
<path d="M788.667 450.221C850.796 450.221 901.161 399.993 901.161 338.035C901.161 276.076 850.796 225.849 788.667 225.849C726.539 225.849 676.174 276.076 676.174 338.035C676.174 399.993 726.539 450.221 788.667 450.221Z" stroke="white" stroke-opacity="0.6" stroke-miterlimit="10"/>
<path d="M901.16 338.035H676.172" stroke="white" stroke-opacity="0.6" stroke-miterlimit="10"/>
<path d="M788.666 225.849V450.221" stroke="white" stroke-opacity="0.6" stroke-miterlimit="10"/>
<path d="M451.118 450.154H676.106V225.782L451.118 225.782V450.154Z" stroke="white" stroke-opacity="0.6" stroke-miterlimit="10"/>
<path d="M563.68 450.221C625.809 450.221 676.174 399.993 676.174 338.035C676.174 276.076 625.809 225.849 563.68 225.849C501.552 225.849 451.186 276.076 451.186 338.035C451.186 399.993 501.552 450.221 563.68 450.221Z" stroke="white" stroke-opacity="0.6" stroke-miterlimit="10"/>
<path d="M676.174 338.035H451.186" stroke="white" stroke-opacity="0.6" stroke-miterlimit="10"/>
<path d="M563.68 225.849V450.221" stroke="white" stroke-opacity="0.6" stroke-miterlimit="10"/>
<path d="M226.132 450.154H451.119V225.782L226.132 225.782L226.132 450.154Z" stroke="white" stroke-opacity="0.6" stroke-miterlimit="10"/>
<path d="M338.694 450.221C400.822 450.221 451.187 399.993 451.187 338.035C451.187 276.076 400.822 225.849 338.694 225.849C276.565 225.849 226.2 276.076 226.2 338.035C226.2 399.993 276.565 450.221 338.694 450.221Z" stroke="white" stroke-opacity="0.6" stroke-miterlimit="10"/>
<path d="M451.187 338.035H226.2" stroke="white" stroke-opacity="0.6" stroke-miterlimit="10"/>
<path d="M338.693 225.849V450.221" stroke="white" stroke-opacity="0.6" stroke-miterlimit="10"/>
<path d="M1.14264 450.154H226.13L226.13 225.782L1.14264 225.782L1.14264 450.154Z" stroke="white" stroke-opacity="0.6" stroke-miterlimit="10"/>
<path d="M113.704 450.221C175.833 450.221 226.198 399.993 226.198 338.035C226.198 276.076 175.833 225.849 113.704 225.849C51.5757 225.849 1.21057 276.076 1.21057 338.035C1.21057 399.993 51.5757 450.221 113.704 450.221Z" stroke="white" stroke-opacity="0.6" stroke-miterlimit="10"/>
<path d="M226.198 338.035H1.21057" stroke="white" stroke-opacity="0.6" stroke-miterlimit="10"/>
<path d="M113.703 225.849V450.221" stroke="white" stroke-opacity="0.6" stroke-miterlimit="10"/>
<g clip-path="url(#clip1_778_77817)">
<path d="M1576.12 674.793H1801.11V450.422H1576.12V674.793Z" stroke="white" stroke-opacity="0.6" stroke-miterlimit="10"/>
<path d="M1688.61 674.86C1750.74 674.86 1801.11 624.633 1801.11 562.675C1801.11 500.716 1750.74 450.489 1688.61 450.489C1626.49 450.489 1576.12 500.716 1576.12 562.675C1576.12 624.633 1626.49 674.86 1688.61 674.86Z" stroke="white" stroke-opacity="0.6" stroke-miterlimit="10"/>
<path d="M1801.11 562.674H1576.12" stroke="white" stroke-opacity="0.6" stroke-miterlimit="10"/>
<path d="M1688.61 450.489V674.86" stroke="white" stroke-opacity="0.6" stroke-miterlimit="10"/>
<path d="M1351.13 674.793H1576.12V450.422H1351.13V674.793Z" stroke="white" stroke-opacity="0.6" stroke-miterlimit="10"/>
<path d="M1463.63 674.86C1525.76 674.86 1576.12 624.633 1576.12 562.675C1576.12 500.716 1525.76 450.489 1463.63 450.489C1401.5 450.489 1351.13 500.716 1351.13 562.675C1351.13 624.633 1401.5 674.86 1463.63 674.86Z" stroke="white" stroke-opacity="0.6" stroke-miterlimit="10"/>
<path d="M1576.12 562.674H1351.13" stroke="white" stroke-opacity="0.6" stroke-miterlimit="10"/>
<path d="M1463.63 450.489V674.86" stroke="white" stroke-opacity="0.6" stroke-miterlimit="10"/>
<path d="M1126.15 674.793H1351.13V450.422H1126.15V674.793Z" stroke="white" stroke-opacity="0.6" stroke-miterlimit="10"/>
<path d="M1238.64 674.86C1300.77 674.86 1351.13 624.633 1351.13 562.675C1351.13 500.716 1300.77 450.489 1238.64 450.489C1176.51 450.489 1126.15 500.716 1126.15 562.675C1126.15 624.633 1176.51 674.86 1238.64 674.86Z" stroke="white" stroke-opacity="0.6" stroke-miterlimit="10"/>
<path d="M1351.13 562.674H1126.15" stroke="white" stroke-opacity="0.6" stroke-miterlimit="10"/>
<path d="M1238.64 450.489V674.86" stroke="white" stroke-opacity="0.6" stroke-miterlimit="10"/>
<path d="M901.159 674.793H1126.15V450.422H901.159V674.793Z" stroke="white" stroke-opacity="0.6" stroke-miterlimit="10"/>
<path d="M1013.65 674.86C1075.78 674.86 1126.15 624.633 1126.15 562.675C1126.15 500.716 1075.78 450.489 1013.65 450.489C951.524 450.489 901.159 500.716 901.159 562.675C901.159 624.633 951.524 674.86 1013.65 674.86Z" stroke="white" stroke-opacity="0.6" stroke-miterlimit="10"/>
<path d="M1126.15 562.674H901.159" stroke="white" stroke-opacity="0.6" stroke-miterlimit="10"/>
<path d="M1013.65 450.489V674.86" stroke="white" stroke-opacity="0.6" stroke-miterlimit="10"/>
<path d="M676.172 674.793H901.16V450.422H676.172V674.793Z" stroke="white" stroke-opacity="0.6" stroke-miterlimit="10"/>
<path d="M788.667 674.86C850.796 674.86 901.161 624.633 901.161 562.675C901.161 500.716 850.796 450.489 788.667 450.489C726.539 450.489 676.174 500.716 676.174 562.675C676.174 624.633 726.539 674.86 788.667 674.86Z" stroke="white" stroke-opacity="0.6" stroke-miterlimit="10"/>
<path d="M901.16 562.674H676.172" stroke="white" stroke-opacity="0.6" stroke-miterlimit="10"/>
<path d="M788.666 450.489V674.86" stroke="white" stroke-opacity="0.6" stroke-miterlimit="10"/>
<path d="M451.118 674.793H676.106V450.422H451.118V674.793Z" stroke="white" stroke-opacity="0.6" stroke-miterlimit="10"/>
<path d="M563.68 674.86C625.809 674.86 676.174 624.633 676.174 562.675C676.174 500.716 625.809 450.489 563.68 450.489C501.552 450.489 451.186 500.716 451.186 562.675C451.186 624.633 501.552 674.86 563.68 674.86Z" stroke="white" stroke-opacity="0.6" stroke-miterlimit="10"/>
<path d="M676.174 562.674H451.186" stroke="white" stroke-opacity="0.6" stroke-miterlimit="10"/>
<path d="M563.68 450.489V674.86" stroke="white" stroke-opacity="0.6" stroke-miterlimit="10"/>
<path d="M226.132 674.793H451.119V450.422H226.132L226.132 674.793Z" stroke="white" stroke-opacity="0.6" stroke-miterlimit="10"/>
<path d="M338.694 674.86C400.822 674.86 451.187 624.633 451.187 562.675C451.187 500.716 400.822 450.489 338.694 450.489C276.565 450.489 226.2 500.716 226.2 562.675C226.2 624.633 276.565 674.86 338.694 674.86Z" stroke="white" stroke-opacity="0.6" stroke-miterlimit="10"/>
<path d="M451.187 562.674H226.2" stroke="white" stroke-opacity="0.6" stroke-miterlimit="10"/>
<path d="M338.693 450.489V674.86" stroke="white" stroke-opacity="0.6" stroke-miterlimit="10"/>
<path d="M1.14264 674.793H226.13L226.13 450.422H1.14264L1.14264 674.793Z" stroke="white" stroke-opacity="0.6" stroke-miterlimit="10"/>
<path d="M113.704 674.86C175.833 674.86 226.198 624.633 226.198 562.675C226.198 500.716 175.833 450.489 113.704 450.489C51.5757 450.489 1.21057 500.716 1.21057 562.675C1.21057 624.633 51.5757 674.86 113.704 674.86Z" stroke="white" stroke-opacity="0.6" stroke-miterlimit="10"/>
<path d="M226.198 562.674H1.21057" stroke="white" stroke-opacity="0.6" stroke-miterlimit="10"/>
<path d="M113.703 450.489V674.86" stroke="white" stroke-opacity="0.6" stroke-miterlimit="10"/>
</g>
<path d="M1576.12 899.434H1801.11V675.062H1576.12V899.434Z" stroke="white" stroke-opacity="0.6" stroke-miterlimit="10"/>
<path d="M1688.61 899.5C1750.74 899.5 1801.11 849.273 1801.11 787.315C1801.11 725.356 1750.74 675.129 1688.61 675.129C1626.49 675.129 1576.12 725.356 1576.12 787.315C1576.12 849.273 1626.49 899.5 1688.61 899.5Z" stroke="white" stroke-opacity="0.6" stroke-miterlimit="10"/>
<path d="M1801.11 787.314H1576.12" stroke="white" stroke-opacity="0.6" stroke-miterlimit="10"/>
<path d="M1688.61 675.129V899.5" stroke="white" stroke-opacity="0.6" stroke-miterlimit="10"/>
<path d="M1351.13 899.434H1576.12V675.062H1351.13V899.434Z" stroke="white" stroke-opacity="0.6" stroke-miterlimit="10"/>
<path d="M1463.63 899.5C1525.76 899.5 1576.12 849.273 1576.12 787.315C1576.12 725.356 1525.76 675.129 1463.63 675.129C1401.5 675.129 1351.13 725.356 1351.13 787.315C1351.13 849.273 1401.5 899.5 1463.63 899.5Z" stroke="white" stroke-opacity="0.6" stroke-miterlimit="10"/>
<path d="M1576.12 787.314H1351.13" stroke="white" stroke-opacity="0.6" stroke-miterlimit="10"/>
<path d="M1463.63 675.129V899.5" stroke="white" stroke-opacity="0.6" stroke-miterlimit="10"/>
<path d="M1126.15 899.434H1351.13V675.062H1126.15V899.434Z" stroke="white" stroke-opacity="0.6" stroke-miterlimit="10"/>
<path d="M1238.64 899.5C1300.77 899.5 1351.13 849.273 1351.13 787.315C1351.13 725.356 1300.77 675.129 1238.64 675.129C1176.51 675.129 1126.15 725.356 1126.15 787.315C1126.15 849.273 1176.51 899.5 1238.64 899.5Z" stroke="white" stroke-opacity="0.6" stroke-miterlimit="10"/>
<path d="M1351.13 787.314H1126.15" stroke="white" stroke-opacity="0.6" stroke-miterlimit="10"/>
<path d="M1238.64 675.129V899.5" stroke="white" stroke-opacity="0.6" stroke-miterlimit="10"/>
<path d="M901.159 899.434H1126.15V675.062H901.159V899.434Z" stroke="white" stroke-opacity="0.6" stroke-miterlimit="10"/>
<path d="M1013.65 899.5C1075.78 899.5 1126.15 849.273 1126.15 787.315C1126.15 725.356 1075.78 675.129 1013.65 675.129C951.524 675.129 901.159 725.356 901.159 787.315C901.159 849.273 951.524 899.5 1013.65 899.5Z" stroke="white" stroke-opacity="0.6" stroke-miterlimit="10"/>
<path d="M1126.15 787.314H901.159" stroke="white" stroke-opacity="0.6" stroke-miterlimit="10"/>
<path d="M1013.65 675.129V899.5" stroke="white" stroke-opacity="0.6" stroke-miterlimit="10"/>
<path d="M676.172 899.434H901.16V675.062H676.172V899.434Z" stroke="white" stroke-opacity="0.6" stroke-miterlimit="10"/>
<path d="M788.667 899.5C850.796 899.5 901.161 849.273 901.161 787.315C901.161 725.356 850.796 675.129 788.667 675.129C726.539 675.129 676.174 725.356 676.174 787.315C676.174 849.273 726.539 899.5 788.667 899.5Z" stroke="white" stroke-opacity="0.6" stroke-miterlimit="10"/>
<path d="M901.16 787.314H676.172" stroke="white" stroke-opacity="0.6" stroke-miterlimit="10"/>
<path d="M788.666 675.129V899.5" stroke="white" stroke-opacity="0.6" stroke-miterlimit="10"/>
<path d="M451.118 899.434H676.106V675.062H451.118V899.434Z" stroke="white" stroke-opacity="0.6" stroke-miterlimit="10"/>
<path d="M563.68 899.5C625.809 899.5 676.174 849.273 676.174 787.315C676.174 725.356 625.809 675.129 563.68 675.129C501.552 675.129 451.186 725.356 451.186 787.315C451.186 849.273 501.552 899.5 563.68 899.5Z" stroke="white" stroke-opacity="0.6" stroke-miterlimit="10"/>
<path d="M676.174 787.314H451.186" stroke="white" stroke-opacity="0.6" stroke-miterlimit="10"/>
<path d="M563.68 675.129V899.5" stroke="white" stroke-opacity="0.6" stroke-miterlimit="10"/>
<path d="M226.132 899.434H451.119V675.062H226.132L226.132 899.434Z" stroke="white" stroke-opacity="0.6" stroke-miterlimit="10"/>
<path d="M338.694 899.5C400.822 899.5 451.187 849.273 451.187 787.315C451.187 725.356 400.822 675.129 338.694 675.129C276.565 675.129 226.2 725.356 226.2 787.315C226.2 849.273 276.565 899.5 338.694 899.5Z" stroke="white" stroke-opacity="0.6" stroke-miterlimit="10"/>
<path d="M451.187 787.314H226.2" stroke="white" stroke-opacity="0.6" stroke-miterlimit="10"/>
<path d="M338.693 675.129V899.5" stroke="white" stroke-opacity="0.6" stroke-miterlimit="10"/>
<path d="M1.14264 899.434H226.13L226.13 675.062H1.14264L1.14264 899.434Z" stroke="white" stroke-opacity="0.6" stroke-miterlimit="10"/>
<path d="M113.704 899.5C175.833 899.5 226.198 849.273 226.198 787.315C226.198 725.356 175.833 675.129 113.704 675.129C51.5757 675.129 1.21057 725.356 1.21057 787.315C1.21057 849.273 51.5757 899.5 113.704 899.5Z" stroke="white" stroke-opacity="0.6" stroke-miterlimit="10"/>
<path d="M226.198 787.314H1.21057" stroke="white" stroke-opacity="0.6" stroke-miterlimit="10"/>
<path d="M113.703 675.129V899.5" stroke="white" stroke-opacity="0.6" stroke-miterlimit="10"/>
</g>
<defs>
<clipPath id="clip0_778_77817">
<rect width="1802.32" height="226.72" fill="white"/>
</clipPath>
<clipPath id="clip1_778_77817">
<rect width="1802.32" height="226.72" fill="white" transform="translate(0 449.28)"/>
</clipPath>
</defs>
</svg>
