<svg width="84" height="84" viewBox="0 0 84 84" fill="none" xmlns="http://www.w3.org/2000/svg">
<path d="M58.1253 30.2706C63.766 30.2706 68.3388 25.6981 68.3388 20.0574C68.3388 14.4167 63.766 9.84406 58.1253 9.84406C52.4847 9.84406 47.9121 14.4167 47.9121 20.0574C47.9121 25.6981 52.4847 30.2706 58.1253 30.2706Z" fill="#EE6030"/>
<path d="M26.4906 54.3729C32.1312 54.3729 36.704 49.8002 36.704 44.1595C36.704 38.519 32.1312 33.9463 26.4906 33.9463C20.85 33.9463 16.2773 38.519 16.2773 44.1595C16.2773 49.8002 20.85 54.3729 26.4906 54.3729Z" fill="#EE6030"/>
<path fill-rule="evenodd" clip-rule="evenodd" d="M70.1832 54.2826C70.1832 53.0353 71.1954 52.0229 72.4427 52.0229C73.6901 52.0229 74.7023 53.0353 74.7023 54.2826V66.3335C74.7023 70.91 70.9937 74.6188 66.4172 74.6188H51.3534C50.1061 74.6188 49.0938 73.6065 49.0938 72.3592C49.0938 71.1119 50.1061 70.0996 51.3534 70.0996H66.4172C68.496 70.0996 70.1832 68.4124 70.1832 66.3335V54.2826Z" fill="#EE6030"/>
<path fill-rule="evenodd" clip-rule="evenodd" d="M14.4469 30.1802C14.4469 31.4275 13.4346 32.4399 12.1873 32.4399C10.94 32.4399 9.92773 31.4275 9.92773 30.1802V18.1292C9.92773 13.5528 13.6364 9.84406 18.2129 9.84406H36.2894C37.5369 9.84406 38.549 10.8563 38.549 12.1036C38.549 13.3509 37.5369 14.3632 36.2894 14.3632H18.2129C16.134 14.3632 14.4469 16.0504 14.4469 18.1292V30.1802Z" fill="#EE6030"/>
<path fill-rule="evenodd" clip-rule="evenodd" d="M67.9098 28.9507C72.0252 31.9694 74.7005 36.8411 74.7005 42.3304C74.7005 44.6774 73.2212 46.723 70.5007 48.1299C67.497 49.6847 62.8152 50.516 58.1243 50.516C53.4304 50.516 48.7486 49.6847 45.7447 48.1299C43.0242 46.723 41.5449 44.6774 41.5449 42.3304C41.5449 36.8411 44.2202 31.9694 48.3358 28.9507C50.758 31.614 54.2469 33.283 58.1243 33.283C61.9987 33.283 65.4905 31.614 67.9098 28.9507Z" fill="#EE6030"/>
<path fill-rule="evenodd" clip-rule="evenodd" d="M36.2768 53.0529C40.3922 56.0718 43.0678 60.9435 43.0678 66.4326C43.0678 68.7797 41.5885 70.8254 38.8678 72.2323C35.8641 73.7868 31.1823 74.6184 26.4913 74.6184C21.7975 74.6184 17.1156 73.7868 14.1119 72.2323C11.3914 70.8254 9.91211 68.7797 9.91211 66.4326C9.91211 60.9435 12.5874 56.0718 16.7029 53.0529C19.1252 55.7162 22.6139 57.3854 26.4913 57.3854C30.3658 57.3854 33.8576 55.7162 36.2768 53.0529Z" fill="#EE6030"/>
</svg>
