<svg width="42" height="42" viewBox="0 0 42 42" fill="none" xmlns="http://www.w3.org/2000/svg">
<path d="M14.4882 36.3525C14.3274 36.5134 14.4561 36.5455 14.6169 36.449L14.5847 36.4169L14.4882 36.3525Z" fill="#FFBC00"/>
<path d="M14.3918 36.321C14.3918 36.321 14.4239 36.3211 14.4239 36.2889C14.4561 36.2567 14.2309 36.3532 14.3918 36.321Z" fill="#FFBC00"/>
<path d="M14.4241 36.2888C14.4241 36.2888 14.4241 36.2888 14.3919 36.3209C14.0703 36.3853 14.1024 36.7391 14.4884 36.2888C14.4884 36.2566 14.4884 36.2566 14.4241 36.2888Z" fill="#FFBC00"/>
<path d="M9.21356 28.0547C8.57028 28.4728 9.37438 28.2155 9.21356 28.0547V28.0547Z" fill="#FFBC00"/>
<path d="M7.66971 26.0927C7.66971 26.0605 7.63754 26.0605 7.60538 26.0283C7.50888 26.0605 7.47672 26.1892 7.50889 26.2213C7.50889 26.2535 7.66971 26.1248 7.66971 26.0927Z" fill="#FFBC00"/>
<path d="M12.2046 33.0076C12.2368 32.9755 12.3011 32.9433 12.3333 32.9111C12.2689 32.9433 12.2046 32.9755 12.2046 33.0076Z" fill="#FFBC00"/>
<path d="M16.0323 35.2917C16.1288 35.1309 16.0323 35.1631 15.8715 35.2274C15.775 35.2595 15.9036 35.1952 15.9036 35.1309C15.9036 35.163 15.2925 35.5812 15.4211 35.4204C15.5498 35.2274 15.775 35.0665 15.9679 34.8736C16.1288 34.7449 16.2896 34.4876 16.0966 34.5841C15.9036 34.7449 15.9036 34.8414 15.6785 35.0344C15.582 34.9701 15.9679 34.6806 15.9036 34.6484C15.8714 34.6162 15.7428 34.7127 15.6463 34.8092C15.5498 34.7449 15.9036 34.4876 15.8715 34.4233C15.8393 34.359 15.8071 34.3911 15.8715 34.2946C15.9679 34.1016 15.7106 34.2624 15.5498 34.3911C15.3568 34.5519 15.3247 34.5841 15.2603 34.5198C15.4211 34.3911 15.5498 34.2625 15.7106 34.1338C15.9036 33.973 15.582 34.1338 15.5176 34.166C15.4211 34.166 15.4211 34.0695 15.3568 34.0695C15.3247 34.0695 15.0995 34.1338 15.0995 34.1338C15.0995 34.0695 15.7749 33.3619 15.196 33.7478C15.0352 33.8765 15.0995 33.7478 15.1317 33.6835C15.2282 33.5227 15.0995 33.5548 14.9708 33.5548C14.7135 33.587 14.9065 33.4584 14.9708 33.2332C15.0673 32.9759 14.5849 33.394 14.3919 33.5548C14.4884 33.4905 14.4884 33.4262 14.617 33.2975C14.6814 33.2332 14.7135 33.1689 14.7457 33.1367C14.7779 32.9437 14.6171 32.9116 14.5849 32.7829C14.5527 32.6864 14.5527 32.4934 14.4241 32.4613C14.3276 32.4613 14.0703 32.7507 13.9416 32.8472C14.0381 32.7507 13.9738 32.7508 14.0381 32.6543C14.1024 32.5899 14.1346 32.5256 14.2311 32.4934C14.2954 32.4291 14.1989 32.3969 14.1667 32.3969C14.1989 32.4291 14.0381 32.4291 14.0381 32.4291C13.9738 32.3648 14.0059 32.2361 13.9416 32.204C13.8451 32.1718 13.4913 32.4934 13.5235 32.3004C13.5556 32.1396 13.8451 31.7215 13.6521 31.7215C13.5556 31.7215 13.0732 32.011 13.4913 31.6572C13.427 31.6572 13.3627 31.7215 13.2983 31.7858C13.8773 31.2712 13.427 31.239 13.2662 31.1104C13.234 31.0782 13.041 30.8209 12.848 30.9817C12.7837 30.9496 12.848 30.8852 12.848 30.8531C12.8159 30.7566 12.7515 30.7244 12.6872 30.6601C12.5907 30.5636 12.6229 30.4028 12.5264 30.3384C12.4942 30.3063 12.4621 30.2098 12.3012 30.3384C12.2047 30.4349 12.1082 30.4671 12.0761 30.4349C12.0439 30.4028 12.0439 30.3063 12.1726 30.2098C12.1726 30.1455 12.0439 30.1455 12.0761 30.049C12.0761 30.0168 12.3012 29.7595 12.0761 29.9203C11.9474 30.0168 11.7866 30.0811 11.7544 30.049C11.8188 29.9846 12.0761 29.8238 12.0761 29.8238C12.1404 29.7273 11.7223 29.7917 11.6901 29.7917C11.6258 29.7595 11.658 29.663 11.658 29.5665C11.658 29.5022 11.7866 29.2449 11.4971 29.4057C11.3363 29.5022 11.2077 29.5665 11.0469 29.663C11.1433 29.5343 11.3363 29.3414 11.4006 29.2449C11.4971 29.0519 10.9825 29.5022 10.9182 29.5343C10.8217 29.47 11.4007 29.084 11.5293 28.9232C11.658 28.7624 11.3363 28.8911 11.3042 28.8267C11.272 28.7946 11.272 28.5694 11.1433 28.6659L11.079 28.8267C11.0468 28.7946 10.9825 28.8267 10.886 28.8589C10.8539 28.8911 10.5644 29.0519 10.5644 29.0519C10.5322 29.0197 11.2077 28.5373 11.2398 28.4086C11.3042 28.2478 11.079 28.2156 11.0147 28.1513C10.9182 28.087 10.9825 27.7332 10.5644 27.9583C10.8217 27.7332 10.5 27.6688 10.4679 27.5723C10.4679 27.5402 10.5965 27.315 10.4679 27.4115C10.2749 27.4758 10.1784 27.6688 10.0819 27.7332C9.69596 27.9261 10.4036 27.1864 10.3071 27.2185C10.3071 27.2185 10.0819 27.3472 9.88894 27.4758C9.69595 27.6045 9.50298 27.701 9.53514 27.6688C9.63163 27.5723 10.5965 26.9934 10.2106 27.0256C10.0176 27.0577 10.0819 26.8326 9.79245 26.9291C9.66379 26.9291 9.40648 26.9291 9.47081 26.8004C9.72812 26.6396 9.85677 26.3501 9.5673 26.5431C10.2749 26.125 9.76028 26.0285 9.14917 26.4466C9.27782 26.3179 9.47082 26.1893 9.59947 26.0928C9.76029 25.932 9.66379 25.932 9.63163 25.8676C9.59946 25.8033 9.63162 25.5782 9.34214 25.7712C9.4708 25.6425 9.43865 25.546 9.37432 25.4817C9.27783 25.3852 9.18133 25.4495 8.82753 25.6425C8.7632 25.5782 9.2135 25.353 9.27783 25.2565C9.14918 25.3209 8.98836 25.3852 8.95619 25.3209C9.47082 25.0635 9.27782 24.9992 9.18132 24.9027C9.117 24.8384 8.5059 25.0635 8.31291 25.1279C8.11993 25.1922 7.89477 25.353 7.70179 25.4174C7.54097 25.4817 7.70179 25.353 7.76612 25.3209C7.99127 25.1922 8.28073 25.0957 8.53804 24.9671C8.50588 24.9671 8.98836 24.7741 8.95619 24.7741C8.92403 24.7741 8.85969 24.7741 8.82753 24.7419C8.89186 24.7097 8.92403 24.6776 8.95619 24.6776C8.95619 24.6454 8.92402 24.5811 8.82753 24.6133C8.7632 24.6454 7.89478 25.1279 7.92694 25.0957C7.99127 24.9671 8.66671 24.5489 8.08776 24.7097C7.92694 24.8706 7.60529 24.9671 7.4123 25.1279C7.25148 25.2565 7.89477 25.1279 7.70179 25.2565C7.54097 25.353 7.38015 25.3852 7.21933 25.546C7.02634 25.6425 7.28365 25.6425 7.31582 25.6747C7.38014 25.7712 7.8626 25.5139 8.11992 25.4174C8.28074 25.353 8.47372 25.2565 8.53804 25.2887C8.57021 25.2887 8.6667 25.3852 8.53804 25.4495C8.44155 25.5138 8.21641 25.4817 8.11992 25.5138C7.92693 25.546 7.79828 25.6425 7.6053 25.739C7.92694 25.5782 7.86261 25.739 8.08776 25.7068C8.15209 25.7712 8.02342 25.8033 7.9591 25.8998C7.89477 25.9963 7.99126 26.0285 8.02343 26.0606C8.05559 26.125 7.89477 26.1571 7.79828 26.2536C7.66962 26.3823 7.73395 26.4466 7.70179 26.5109C7.70179 26.5431 7.63747 26.8647 7.83045 26.7361C8.15209 26.5109 8.28074 26.4788 8.28074 26.6396C8.28074 26.7361 7.86262 26.9612 8.15209 26.8969C8.47373 26.8004 7.99126 27.1542 8.2164 27.0577C8.28073 27.0256 8.50588 26.8969 8.69886 26.8004C8.79536 26.7361 8.89186 26.6718 8.98835 26.6396C9.05268 26.6074 9.11701 26.5753 9.11701 26.5753C9.11701 26.6396 8.69888 26.8969 8.57022 26.9612C8.4094 27.0899 8.47372 27.1542 8.28074 27.2829C8.24857 27.2507 8.15209 27.3472 8.15209 27.3472C8.18426 27.3794 8.28075 27.315 8.31291 27.315C8.47373 27.2185 8.53804 27.315 8.53804 27.3472C8.53804 27.3472 8.89186 27.0256 8.89186 27.122C8.89186 27.2829 8.34507 27.508 8.24858 27.6367C8.11992 27.8296 8.47372 27.701 8.69886 27.5723C8.92401 27.4437 8.85969 27.4758 8.92402 27.5402C8.92402 27.508 8.89186 27.701 8.98835 27.6367C9.18133 27.508 9.27782 27.3794 9.18132 27.6045C8.98834 27.8618 8.89185 27.701 8.60238 27.8618C8.73103 27.9261 8.40939 28.087 8.69886 28.0548C8.85968 28.0226 8.79537 28.2799 9.11701 28.0226C8.95619 28.1191 8.92402 28.2156 9.08484 28.1835C9.24566 28.1191 9.40648 28.0226 9.5673 27.9583C9.88894 27.7975 9.43864 28.1513 9.34214 28.2156C9.21349 28.3121 8.79536 28.6338 8.92402 28.6338C9.02051 28.6338 9.30998 28.6016 8.92402 28.8267C9.18133 28.6659 9.88894 28.1835 9.69596 28.5051C9.59947 28.6659 8.98836 29.0197 9.27783 28.9876C9.34216 28.9876 9.69596 28.8267 9.63163 28.9232C9.5673 29.0197 9.37432 29.1484 9.30999 29.2127C9.24566 29.3092 9.43864 29.2127 9.50296 29.2449C9.56729 29.3092 9.76028 29.0841 9.88894 29.0519C10.0498 29.0197 10.0176 29.1484 10.2428 29.0519C10.2749 29.0197 10.6609 28.8911 10.4036 29.0519C10.2749 29.2127 10.2427 29.3414 10.3071 29.4057C10.3714 29.47 10.5322 29.3735 10.5965 29.4057C10.7252 29.4057 9.95326 29.8238 9.88894 29.9525C9.82461 30.0811 10.2427 29.7917 10.3071 29.7595C10.4036 29.7273 10.5644 29.6952 10.4357 29.7917C10.5001 29.7595 10.886 29.4057 10.886 29.4379C10.9182 29.5344 10.2106 30.0168 10.0176 30.1455C10.0819 30.2098 10.4036 29.8881 10.5001 29.9525C10.0498 30.242 10.5001 30.1133 10.4036 30.242C10.3392 30.3385 10.1463 30.4028 10.1784 30.4993C10.2106 30.5314 10.2427 30.4993 10.3071 30.5314C10.4036 30.5314 10.3392 30.6601 10.3714 30.7244L10.5644 30.9174C10.6287 30.8209 10.886 30.6279 11.0147 30.5958C11.1755 30.5636 10.8539 30.8531 10.7895 30.9174C10.5965 31.0782 10.5644 31.239 10.693 31.2069C10.8217 31.1747 10.9182 30.9496 10.9825 30.8531C11.079 30.7566 11.4007 30.8209 11.1433 31.0139C10.6609 31.3999 11.658 30.8531 11.6901 30.8852C11.5936 30.9817 11.272 31.1747 11.3042 31.239C11.3042 31.2712 11.6258 31.3034 11.3685 31.432C11.3685 31.4963 11.6901 31.432 11.4971 31.5607C11.4328 31.625 11.2398 31.8823 11.3685 31.818C11.5615 31.6893 11.8188 31.3034 11.8188 31.239C11.8188 31.2069 12.0439 31.1425 12.0761 31.1425C12.1404 31.1747 11.9153 31.3677 11.851 31.4642C11.7223 31.625 11.5936 31.7537 11.465 31.9145C11.5615 31.8823 11.6901 31.818 11.7866 31.7858C12.1404 31.5607 11.9153 31.7537 11.7866 31.9145C11.4971 32.3326 12.3334 31.9788 11.9153 32.3969C11.8509 32.4613 12.3656 32.1396 12.2369 32.3004C12.2047 32.3326 11.7544 32.7507 11.9796 32.6221C12.1083 32.5578 12.3334 32.3004 12.3977 32.3648C12.4299 32.3969 12.3012 32.5899 12.2691 32.6221C12.2691 32.6221 12.3977 32.3969 12.2047 32.5578C12.0761 32.6864 12.1083 32.8151 12.1404 32.8151C12.1726 32.8151 12.2048 32.9437 12.3334 32.8151C12.4621 32.6864 12.6872 32.4613 12.6229 32.4291C12.6872 32.3648 12.848 32.2361 12.9124 32.204C13.041 32.1396 12.8802 32.3648 12.848 32.4291C12.7194 32.6221 12.5586 32.8472 12.3334 33.0402C12.4299 32.9437 12.5586 32.8472 12.5907 32.8794C12.6229 32.9116 12.3977 33.1045 12.3656 33.1689C12.2691 33.3297 12.4942 33.2975 12.5907 33.2654C12.7515 33.2654 12.848 33.2332 13.041 33.1367C13.1053 33.1046 13.3627 32.9116 13.2983 33.0402C13.234 33.1367 12.7194 33.5227 12.6872 33.5227C12.7515 33.5227 13.1053 33.2975 13.1053 33.2975C13.0732 33.2654 12.9123 33.5227 12.8802 33.5548C12.8802 33.6192 12.9124 33.7157 13.0732 33.5548C13.1697 33.5548 13.3627 33.6192 13.4913 33.4905C13.7165 33.5227 13.427 33.6835 13.2983 33.9408C13.2018 34.1338 13.6521 33.8122 13.5235 33.7157C13.5878 33.78 13.9416 33.6835 14.2311 33.4262C14.0381 33.587 13.8773 33.6835 13.7165 33.8443C13.62 33.9408 13.5556 34.0373 13.4592 34.1338C13.7808 33.8765 13.8451 33.9087 13.9416 34.0373C14.0059 34.1338 13.7808 34.359 13.6843 34.5841C13.8773 34.4233 14.0059 34.6484 14.0703 34.6484C14.1346 34.6806 14.4241 34.4233 14.4241 34.5198C14.4562 34.5841 13.9416 35.4525 14.4562 35.0022C14.4884 35.0344 14.1989 35.4525 14.3919 35.3239C14.617 35.163 14.7135 35.0987 14.9387 35.0022C14.7135 35.163 14.5206 35.3239 14.2954 35.4525L15.0674 35.0987C15.003 35.1309 14.4884 35.5168 14.5206 35.5168C14.6814 35.549 15.1317 35.1309 15.3568 34.9379C15.4211 34.9701 14.9065 35.4204 14.7779 35.5168C14.5527 35.7098 14.8422 35.549 14.7779 35.6777C14.7457 35.742 14.5849 35.8707 14.6814 35.8707C14.7779 35.8707 14.9387 35.742 14.9387 35.8063C14.9387 35.8707 14.9709 35.935 14.9387 35.9993C14.9387 36.0636 14.6814 36.4818 14.81 36.4174C14.7779 36.4174 15.1638 36.128 15.196 36.128C15.5176 35.9028 15.582 35.8385 15.5498 35.9993C15.5498 36.0636 15.7428 35.9028 15.8071 35.8707C15.7428 35.6777 15.9358 35.4203 16.0323 35.2917Z" fill="#FFBC00"/>
<path d="M13.4912 34.0049C13.459 34.037 13.4269 34.0692 13.3625 34.1014C13.4269 34.0692 13.459 34.037 13.4912 34.0049Z" fill="#FFBC00"/>
<path d="M7.15489 24.3876C7.18706 24.3233 7.18706 24.2267 6.96192 24.3554C6.76893 24.4841 6.86541 24.5806 6.92974 24.6127L7.15489 24.4197C7.15489 24.4197 7.18706 24.3876 7.15489 24.3876Z" fill="#FFBC00"/>
<path d="M8.6991 24.1621C8.89208 23.9691 8.50612 24.1621 8.66694 24.0013C8.7956 23.8083 8.28097 23.9048 8.18448 23.8404C8.47396 23.7118 8.47396 23.6474 8.3453 23.6153C8.21665 23.5831 7.9915 23.6796 7.83068 23.7118C8.18449 23.6474 8.73127 23.1007 8.12015 23.4866C7.92717 23.6475 7.895 23.4866 8.05582 23.3901C8.2488 23.2615 8.44179 23.1972 8.37746 23.1007C8.53828 22.8755 7.73419 23.358 7.66986 23.3901C7.54121 23.4545 6.6406 23.7118 6.60844 23.8404C6.57627 23.9369 6.93008 23.8083 6.76926 23.9369C6.70493 24.0012 6.3833 24.1942 6.57628 24.1621C6.7371 24.0977 6.99442 23.9369 7.12307 23.9048C7.21956 23.8726 7.28389 23.8726 7.38038 23.8404C7.15523 23.9369 6.83359 24.1299 7.0909 24.0977C7.21955 24.0656 7.66985 23.9048 7.79851 23.8404L6.96225 24.2264C6.99442 24.2907 7.31605 24.0656 7.41254 24.1299C7.54119 24.1621 7.41254 24.2586 7.41254 24.355C7.41254 24.4515 7.57336 24.5159 7.38038 24.6767C7.34822 24.7089 7.12307 24.9018 7.15523 24.9018C7.12307 24.8697 7.5412 24.6767 7.60553 24.6445C7.66986 24.7089 7.34821 24.8697 7.15523 24.9662C7.31605 24.8697 7.50903 24.8697 7.57336 24.9018C7.66985 24.934 7.73419 24.9019 7.9915 24.7732C8.31314 24.5159 8.53828 24.3229 8.6991 24.1621Z" fill="#FFBC00"/>
<path d="M8.3772 23.0687C8.44153 23.1331 8.47369 22.9401 8.3772 23.0687V23.0687Z" fill="#FFBC00"/>
<path d="M8.15198 22.9724C8.40929 22.7472 7.70168 23.0689 7.54086 23.1332C7.60519 23.101 8.40929 22.7151 8.24847 22.7151C8.08765 22.7151 7.83033 22.9081 7.73383 22.8437C7.70167 22.8116 7.60518 22.7472 7.63735 22.6829C7.63735 22.6507 7.79817 22.6186 7.8625 22.5864C8.11981 22.4577 8.02332 22.3934 7.76601 22.4899C7.95899 22.3613 7.38003 22.5221 7.57301 22.3613C7.70167 22.2648 7.95898 22.2326 8.05547 22.2326C7.99115 22.1361 7.54085 22.2648 7.25137 22.3291C7.47652 22.2004 7.66951 22.1361 7.95899 22.0396C7.73384 22.0718 7.02624 22.2326 6.96191 22.1361C7.18706 22.0718 7.766 21.8466 7.57301 21.7823C7.44436 21.7501 7.15489 22.0718 6.96191 22.0396C6.7046 21.9753 7.54086 21.8145 7.44437 21.7501C7.41221 21.718 7.02623 21.8145 7.25137 21.6858C7.25137 21.6858 7.44436 21.5893 7.47653 21.5893C7.38003 21.5893 7.25139 21.6215 7.12273 21.6537C7.47653 21.525 7.57301 21.4607 7.73383 21.332C7.79816 21.2677 7.66952 21.2999 7.5087 21.332C7.70169 21.2677 7.79817 21.1712 7.79817 21.1069C7.79817 21.0425 7.60518 21.0747 7.47653 21.0747C7.38003 21.0747 7.25138 21.0425 7.21922 20.9782C7.18705 20.946 7.54085 20.8496 7.63735 20.8496C7.57302 20.8174 7.41221 20.8174 7.28355 20.8174C7.21922 20.8174 7.18705 20.8496 7.15489 20.8496C6.67243 20.9461 6.44727 21.1069 5.96481 21.2355C5.45019 21.3964 5.77183 21.4285 5.80399 21.525C5.80399 21.6215 5.64319 21.8466 5.9005 21.8466C6.22214 21.8466 6.35079 21.718 6.51161 21.5893C6.54377 21.6215 7.28355 21.525 7.34788 21.4928C7.18706 21.5572 6.99407 21.5572 6.83325 21.6215C6.73675 21.6536 6.60809 21.7501 6.60809 21.7501C6.47944 21.7823 5.96482 21.8466 6.02915 21.911C6.06131 22.0075 5.77185 22.4577 6.38296 22.2648C6.31863 22.2969 6.38295 22.4256 6.41512 22.4578C6.47945 22.5221 6.18997 22.6186 6.18997 22.7151C6.1578 22.8116 6.18998 22.9081 6.38296 22.9402C6.73677 22.9724 6.22213 23.101 6.28645 23.2297C6.60809 23.101 6.57593 23.0045 6.92973 22.9402C7.05839 22.9081 7.54087 22.8437 7.34788 22.9724C7.05841 23.1654 6.64026 23.1975 6.35079 23.294C6.38295 23.3583 6.38296 23.6157 6.64027 23.5192C6.83325 23.4548 7.38004 23.1654 7.54086 23.1975C7.66951 23.3262 7.92683 23.1654 8.15198 22.9724Z" fill="#FFBC00"/>
<path d="M5.99739 21.0747C5.86873 21.0426 5.67574 21.1391 5.70791 21.2034C5.77223 21.2677 6.02955 21.1391 5.99739 21.0747Z" fill="#FFBC00"/>
<path d="M7.05842 20.4958L7.02627 20.4636C6.83328 20.4315 6.5438 20.6245 7.05842 20.4958Z" fill="#FFBC00"/>
<path d="M6.28682 20.592C6.64062 20.4634 7.05876 20.3025 7.44473 20.206C7.3804 20.1417 7.09093 20.1096 6.86578 20.1417C6.54414 20.1739 6.9301 20.2704 6.83361 20.3025C6.64062 20.3347 6.4798 20.2382 6.67279 20.1417C6.83361 20.0774 7.15526 20.0452 7.28391 19.9487C7.63772 19.5949 6.70495 20.0452 6.60846 20.0131C6.51196 19.9487 7.2839 19.7557 7.31607 19.6593C7.3804 19.5306 7.41256 19.4984 6.99443 19.5949C6.96226 19.4984 7.25174 19.4341 7.31607 19.3376C7.3804 19.2733 7.34824 19.1446 7.0266 19.209C7.57339 19.1125 6.89793 18.8873 7.09092 18.7265C7.09092 18.7265 7.09093 18.7265 7.12309 18.6943C6.93011 18.7265 6.41548 18.8552 6.09384 18.9516C5.83653 18.9838 5.90086 19.0803 5.7722 19.0803C5.70787 19.0803 5.19325 19.209 5.45056 19.209C5.57922 19.209 5.70787 19.1446 5.70787 19.209C5.70787 19.2411 5.74004 19.2733 5.74004 19.3055C5.80437 19.3698 6.15817 19.2733 6.31899 19.3055C6.73712 19.3698 5.54706 19.4341 5.57922 19.4341C5.5149 19.4663 6.02952 19.4984 5.83653 19.5628C5.64355 19.6593 5.28974 19.7236 5.38623 19.8201C5.41839 19.8522 5.70788 19.9487 5.83653 19.8844C5.8687 19.8522 5.67572 19.7879 5.74004 19.7879C5.99736 19.7558 6.06168 19.9809 5.99735 20.0452C5.96519 20.0774 5.86868 20.0774 5.80436 20.0774C5.64354 20.0452 5.67572 20.0774 5.4184 20.1096C5.61139 20.1417 5.83654 20.1096 6.06168 20.1096C5.96519 20.1417 5.28974 20.2704 5.45056 20.3025C5.57922 20.3347 5.83653 20.2704 5.93302 20.3025C5.96518 20.3025 5.80436 20.399 5.7722 20.399C5.61138 20.5598 6.57629 20.2704 5.80436 20.5598C5.48272 20.7207 5.4184 20.8172 5.7722 20.8172C6.126 20.8172 5.35407 21.0745 5.67571 21.0423C6.02952 21.0101 6.60847 20.9136 7.0266 20.8172C7.8307 20.6242 6.51196 20.6242 6.28682 20.592Z" fill="#FFBC00"/>
<path d="M7.09075 18.6943C7.09075 18.6943 7.05859 18.6943 7.05859 18.7265C7.05859 18.7265 7.21941 18.6943 7.09075 18.6943Z" fill="#FFBC00"/>
<path d="M5.48246 16.3464C5.4503 16.2499 5.06433 16.1856 5 16.3142C5.03216 16.3786 5.51462 16.4429 5.48246 16.3464Z" fill="#FFBC00"/>
<path d="M5.19312 15.5107C5.06446 15.6394 5.35394 15.7359 5.35394 15.5429C5.32177 15.5108 5.25745 15.5107 5.19312 15.5107Z" fill="#FFBC00"/>
<path d="M5.90079 18.8875C5.99728 18.8553 6.19027 18.8875 6.22243 18.8553C6.41542 18.7588 5.90078 18.791 6.44756 18.7266C6.64055 18.6945 7.02653 18.5337 6.80138 18.5015C6.64056 18.5015 6.38325 18.5015 6.22243 18.5015C6.41542 18.4693 6.83355 18.4372 6.86571 18.3407C6.86571 18.2764 6.57623 18.1799 6.9622 18.1155C6.73705 18.1477 6.47974 18.1799 6.41541 18.0834C6.5119 18.0834 7.09084 18.019 7.09084 17.9547C7.09084 17.9547 6.64056 17.8904 6.57623 17.8904C6.1581 17.7617 6.99437 17.826 7.02653 17.7617C7.02653 17.7296 6.80137 17.6331 6.7692 17.6331C6.70488 17.6009 6.44758 17.6331 6.31892 17.6331C6.28676 17.5366 6.80138 17.5687 6.86571 17.5687C6.93004 17.5687 6.89788 17.4401 7.02653 17.4079C7.21952 17.3436 7.18735 17.3758 7.02653 17.3114C6.93004 17.2793 6.93004 17.2149 7.02653 17.1506C7.0587 17.1185 7.44465 17.0541 7.25166 17.022C7.15517 17.022 6.80137 17.0541 6.7692 17.022C6.73704 16.9898 6.93003 16.9576 7.05869 16.9255C7.54115 16.8933 6.89787 16.829 6.80138 16.829C6.83354 16.7968 7.15518 16.7646 7.15518 16.7003C7.12301 16.6038 6.96219 16.7003 6.83354 16.6682C6.70488 16.636 7.21951 16.5073 7.21951 16.5073C7.28384 16.4752 7.02653 16.443 6.9622 16.3787C6.80138 16.2822 6.73704 16.2179 6.44756 16.1214C6.31891 16.0892 6.09377 16.0249 6.25459 15.9927C6.41541 15.9605 6.8657 15.9284 6.83354 15.8641C6.83354 15.7676 7.0587 15.7997 7.18735 15.7676C7.54116 15.6711 6.57623 15.5103 7.21951 15.4459C6.89787 15.4459 6.60839 15.3816 6.73705 15.2851C6.83354 15.2208 7.34816 15.2208 7.316 15.1564C7.316 15.0921 6.44758 15.1886 6.38325 15.1886C5.93296 15.1886 5.77214 15.06 5.41833 14.9956C5.12886 14.9313 5.22534 15.2208 5.22534 15.2529C5.2575 15.3816 5.73996 15.2208 5.93295 15.2851C5.83646 15.2529 5.7078 15.2208 5.54698 15.2208C5.73996 15.2208 5.96511 15.2529 6.09377 15.2851C6.31892 15.3494 6.02944 15.3816 5.83646 15.3816C5.57915 15.3816 5.22534 15.4459 5.7078 15.5102C5.86862 15.5424 6.38324 15.5424 6.28674 15.6389C6.22242 15.7032 5.57914 15.6067 5.45049 15.6067C5.22534 15.6067 5.32182 15.7676 5.32182 15.7997C5.35399 15.9605 5.12885 16.0892 5.83646 16.0892C5.61131 16.1535 5.96512 16.1857 5.99728 16.25C5.99728 16.2822 5.64348 16.2822 5.67564 16.3143C5.67564 16.3465 6.54406 16.3465 6.19026 16.5073C6.12593 16.5395 5.77212 16.636 5.64346 16.6038C5.48264 16.5717 5.8043 16.5073 5.83646 16.4752C5.90079 16.4108 5.77213 16.3787 5.61131 16.4108C5.38616 16.4108 5.45049 16.3787 5.45049 16.3143C5.16101 16.3143 5.03235 16.5073 5.32182 16.5073C5.35399 16.6038 5.09668 16.636 5.161 16.7325C5.22533 16.829 5.38616 16.8933 5.7078 16.8611C5.83645 16.829 6.02943 16.7646 6.12592 16.7968C6.22242 16.7968 6.70488 16.9576 6.57623 16.9576C6.31892 16.9576 6.12593 16.9898 5.86862 17.022C5.6113 17.0541 5.48264 17.0863 5.48264 17.1828C5.48264 17.2471 5.19317 17.3114 5.161 17.3758C5.19317 17.2793 7.41249 17.3114 5.54698 17.4079C5.22534 17.4401 5.12884 17.5366 5.32182 17.6009C5.38615 17.6009 5.57915 17.6331 5.73997 17.6331C5.83646 17.6331 5.93295 17.6331 5.99728 17.6331C6.06161 17.6331 6.09377 17.6331 6.09377 17.6331C6.09377 17.6652 5.12884 17.6974 5.161 17.7617C5.38615 17.7296 6.19026 17.6331 6.25459 17.7296C6.31892 17.8261 5.54699 17.8261 5.41833 17.8904C5.354 17.9225 5.41833 17.9869 5.41833 18.019C5.41833 18.0834 5.2575 18.0512 5.22534 18.1155C5.16101 18.1799 5.80428 18.3407 5.80428 18.3407C5.70779 18.3729 5.48265 18.3085 5.38616 18.405C5.32183 18.4372 5.41832 18.4693 5.48264 18.5015C5.57914 18.5337 6.12592 18.5658 6.12592 18.598C6.0616 18.6623 5.57915 18.7266 5.41833 18.791C5.22535 18.8875 5.54699 18.8875 5.73997 18.8875C5.83646 18.9518 5.67564 18.9196 5.90079 18.8875Z" fill="#FFBC00"/>
<path d="M6.25457 15.1881C6.51188 15.2203 6.8657 15.1559 6.70488 15.0916C6.70488 15.0916 6.70486 15.0916 6.6727 15.0594L5.96509 14.9951C6.09374 14.9951 6.19024 15.0273 6.28673 15.0594C6.12591 15.0273 5.61129 15.1559 6.25457 15.1881Z" fill="#FFBC00"/>
<path d="M5.54672 14.6094C5.45023 14.5772 5.09644 14.4807 5.09644 14.5451C5.09644 14.6094 5.57888 14.6737 5.54672 14.6094Z" fill="#FFBC00"/>
<path d="M7.50881 15.0921C7.54097 15.0921 7.25148 14.9956 7.25148 14.9956C7.21931 14.9312 7.38015 14.9312 7.34799 14.8348C7.31582 14.7704 7.21933 14.7061 7.12283 14.6418C7.05851 14.6096 6.83335 14.5774 6.83335 14.5774C6.83335 14.5774 7.25149 14.5774 7.18717 14.5453C7.02635 14.4809 6.64036 14.4166 6.44738 14.3845L5.38597 14.2236C5.38597 14.288 6.12575 14.4488 6.06143 14.481C5.9971 14.5131 5.25733 14.288 5.25733 14.4166C5.86844 14.4488 5.48247 14.5453 5.77194 14.6096C6.02925 14.6739 6.54388 14.6418 6.47955 14.8026C6.44739 14.9313 6.09358 14.7704 5.93276 14.7061C5.73978 14.6418 5.28948 14.7383 5.12866 14.7383C5.12866 14.8026 6.02926 14.9313 6.15791 14.9634C6.44739 14.9956 7.12283 15.0599 7.12283 15.1886C7.12283 15.0921 7.18717 15.0599 7.50881 15.0921Z" fill="#FFBC00"/>
<path d="M7.47673 14.4162C7.5089 14.3519 7.47673 14.2554 7.31591 14.1589C7.15509 14.0946 6.83346 14.0303 6.70481 13.9659C6.60831 13.9338 7.47674 13.9981 7.50891 13.9659C7.57324 13.9338 7.5089 13.8694 7.47673 13.8051C7.4124 13.7086 7.44457 13.6443 7.47673 13.58C7.5089 13.4835 7.76621 13.4835 7.38024 13.2905C7.34808 13.2583 6.22234 12.9367 6.47966 12.9367C6.51182 12.9367 6.83346 13.0653 6.89778 13.0653C7.02644 13.0975 7.15509 13.0975 7.25158 13.0975C7.54106 13.0653 7.60539 12.9367 7.63755 12.808C7.63755 12.7437 7.70188 12.6472 7.57322 12.5829C7.34807 12.4542 7.4124 12.615 7.4124 12.615C7.44456 12.6472 6.99428 12.4542 6.96212 12.4221C6.73697 12.3256 6.41532 12.2291 6.19017 12.1648C5.96502 12.1004 6.15802 12.2613 5.9972 12.2291C5.77205 12.1648 5.67556 12.1648 5.73989 12.2612C5.80421 12.4221 5.83636 12.4864 6.28666 12.615C6.41532 12.6472 6.73697 12.7437 6.64048 12.6472C6.47966 12.5507 6.92995 12.7115 6.96212 12.7115C7.02644 12.7437 7.44457 12.9367 7.31591 12.9367C7.28375 12.9367 7.02644 12.808 6.96212 12.808C6.76913 12.7437 6.54399 12.7115 6.38317 12.7115C6.38317 12.7115 6.2545 12.7437 6.12584 12.7437C5.99718 12.7437 5.86853 12.7437 5.8042 12.6794C5.8042 12.6472 5.96502 12.6472 5.86853 12.5829C5.77204 12.5186 5.4504 12.808 6.02935 12.8402C6.2545 12.9045 6.12585 12.9045 6.22235 12.9689C6.351 13.0653 6.31884 13.001 6.47966 13.0653C6.41533 13.0332 5.93287 13.0653 5.90071 13.0975C5.67556 13.1297 5.73989 13.2583 5.73989 13.3548C5.41825 13.4835 6.31882 13.4835 6.6083 13.58C6.67263 13.6121 6.67264 13.6443 6.64048 13.6443C6.60831 13.6765 6.38316 13.6121 6.35099 13.6121C6.12584 13.58 5.77204 13.5478 5.96502 13.6765C6.12584 13.8051 6.47965 13.9016 6.67263 13.9981C6.67263 14.0946 6.99428 14.1267 7.0586 14.2232C7.09077 14.2554 6.38316 14.0303 6.31884 14.0303C6.12585 13.9981 5.77204 13.9016 5.64338 13.9659C5.48256 14.0303 5.83638 14.1589 6.06153 14.1589C6.19018 14.1589 6.351 14.1268 6.47966 14.1589C6.64048 14.1911 6.57614 14.2232 6.51181 14.2232C6.44748 14.4162 7.4124 14.5127 7.47673 14.4162Z" fill="#FFBC00"/>
<path d="M7.57313 12.1648C7.8626 12.2935 7.155 11.9075 7.57313 12.1648V12.1648Z" fill="#FFBC00"/>
<path d="M7.34792 12.2291C7.41225 12.1969 7.63739 12.3577 7.73388 12.3577C7.8947 12.3577 7.70171 12.2291 7.57306 12.1648C7.41224 12.0683 6.41516 11.5858 6.57598 11.811C6.383 11.7466 6.25433 11.6823 6.2865 11.618C5.99702 11.5215 6.25433 11.9075 6.2865 11.9396C6.44732 12.1326 6.76896 12.3578 7.25142 12.4864C8.11985 12.7437 7.21927 12.3256 7.34792 12.2291Z" fill="#FFBC00"/>
<path d="M8.3772 11.0717C8.50585 11.136 8.50585 11.136 8.53802 11.1039V11.0717C8.44153 11.0074 8.3772 11.0074 8.3772 11.0717Z" fill="#FFBC00"/>
<path d="M8.34503 9.49544L8.31287 9.46326C8.24854 9.39893 8.21636 9.36678 8.21636 9.33462C8.08771 9.20596 7.99122 9.10947 7.95906 9.1738C7.92689 9.23812 8.40936 9.55976 8.50585 9.59192C8.47368 9.62409 8.40936 9.55976 8.34503 9.49544Z" fill="#FFBC00"/>
<path d="M8.34515 9.49578C8.40947 9.56011 8.18433 9.33496 8.18433 9.33496C8.21649 9.36712 8.24865 9.39928 8.28081 9.46361C8.28081 9.46361 8.31298 9.49578 8.34515 9.49578Z" fill="#FFBC00"/>
<path d="M7.57312 8.91661C7.60528 8.85229 7.73395 8.91663 7.76612 8.8523C7.54097 8.56283 7.57312 8.88445 7.57312 8.91661Z" fill="#FFBC00"/>
<path d="M6.44756 11.5865C6.47973 11.49 6.99436 11.683 6.9622 11.5865C6.93003 11.5222 6.76922 11.4256 6.70489 11.3292C6.70489 11.3292 6.64055 11.1683 6.73705 11.2327C6.64055 11.1362 6.51189 11.104 6.35107 11.0397C6.64055 11.1683 6.83354 11.2327 7.12302 11.297C6.9622 11.1683 6.44757 10.8467 6.64056 10.8145C6.76921 10.7824 7.2195 10.9754 7.31599 11.104C7.34816 11.104 7.44466 11.2005 7.44466 11.1683C7.50899 11.1683 7.44465 11.104 7.38033 11.0397C7.316 10.9754 7.12302 10.8145 6.9622 10.7502C6.73705 10.6537 6.47973 10.4929 6.57623 10.3964C6.64055 10.3642 7.09084 10.6216 7.25166 10.6216C7.31599 10.6216 7.21951 10.4607 7.12302 10.3964C6.99436 10.3642 6.83355 10.3321 6.70489 10.2356C6.38325 10.0426 6.5119 9.97829 6.80138 10.1391C6.70489 10.0748 6.54407 9.97827 6.64056 9.94611C6.70489 9.94611 6.96219 10.0748 7.09084 10.1069C7.50897 10.2999 7.92712 10.5251 8.31309 10.7502C8.02361 10.5894 7.7663 10.2999 7.50899 10.1713C7.38033 10.1069 7.21951 10.1069 7.05869 10.0104C6.89787 9.91395 7.18734 9.97829 7.21951 9.97829C7.44465 10.0426 7.99145 10.3642 7.92712 10.2034C7.89495 10.1069 7.25168 9.94612 7.18735 9.91395C6.64056 9.7853 6.96219 9.6888 6.99435 9.62447C7.02652 9.56014 6.86571 9.335 7.02653 9.36716C7.09086 9.36716 7.38032 9.56015 7.47681 9.59231C7.60547 9.65664 8.18442 9.97827 8.21658 9.94611C8.24875 9.91395 7.47683 9.49583 7.50899 9.49583C7.50899 9.49583 7.70197 9.59232 7.60548 9.49583C7.57331 9.4315 7.31601 9.33499 7.18735 9.2385C6.80138 8.91686 7.28384 9.14202 7.50899 9.27067C7.31601 9.14202 6.99437 8.85254 7.34817 9.04552C7.66981 9.20634 8.31308 9.59232 8.60255 9.81747L8.47391 9.59231C8.34525 9.43149 8.21658 9.30284 8.05576 9.10985C7.54114 8.85254 8.31309 9.07769 8.31309 9.10985C8.31309 9.10985 8.18442 9.01336 8.05576 8.94903C7.92711 8.88471 7.86279 8.78821 7.99145 8.82037C8.08794 8.82037 7.86278 8.59523 7.89494 8.53091C7.92711 8.46658 8.21658 8.65956 8.21658 8.62739C8.18442 8.69172 7.38032 7.9841 7.73412 8.11276C7.95927 8.17709 8.44173 8.62739 8.69904 8.78821C8.60255 8.65956 8.50607 8.5309 8.40958 8.40224C8.34525 8.30575 8.21659 8.11276 8.08794 8.01627C8.08794 8.01627 8.05578 8.11276 7.99145 8.11276C7.7663 8.04843 8.05576 7.82329 8.05576 7.82329C8.08793 7.79113 8.15227 7.59815 8.31309 7.82329C8.92421 8.56307 8.28091 7.37299 8.53822 7.46948C8.66688 7.53381 9.05285 7.95195 9.14935 8.0806C9.37449 8.33791 9.76045 8.72387 9.82478 8.91686C9.88911 9.10984 9.79262 8.98119 9.56747 8.75604C9.40665 8.59522 9.18152 8.56306 9.11719 8.49873C9.24585 8.69171 9.47098 8.94903 9.66396 9.14201C9.56747 9.04552 8.66689 8.20925 8.89204 8.49873C9.08502 8.75604 9.40666 9.01336 9.47099 9.20634C9.53531 9.335 9.59964 9.62448 9.24583 9.33501C9.53531 9.56015 9.31017 9.52799 9.14935 9.43149C9.08502 9.39933 8.66689 9.17418 8.89204 9.36716C9.08502 9.52798 9.31017 9.75312 9.14935 9.72096C8.9242 9.68879 9.14935 9.78529 9.11719 9.88178C8.73122 9.72096 8.89203 10.2034 8.82771 10.3321C8.79554 10.3642 8.76339 10.4286 8.63473 10.3642C8.5704 10.3321 8.31309 10.1391 8.31309 10.1391C8.31309 10.1713 8.5704 10.4286 8.63473 10.4929C8.73122 10.6216 8.53823 10.5894 8.40958 10.5894C7.95928 10.3964 8.37742 10.6216 8.47391 10.7502C8.53824 10.8145 8.50607 10.8467 8.47391 10.8789C8.44175 10.911 8.28092 10.7502 8.24876 10.7502C8.21659 10.7502 8.50607 11.0075 8.47391 11.0397C8.37742 11.0719 7.95928 10.9432 7.7663 10.911C7.44466 10.8789 8.12009 11.1362 8.28091 11.2327C8.60255 11.3935 8.08793 11.2648 8.28091 11.4257C7.83062 11.2005 8.24876 11.683 8.08794 11.6186C7.86279 11.5221 7.63764 11.3935 7.44466 11.3935H7.15517C7.38032 11.4578 7.63764 11.5543 7.86279 11.6186C7.89495 11.6186 8.15227 11.683 8.15227 11.7151C8.18443 11.7795 8.1201 11.7473 8.02361 11.7151C7.99144 11.7473 8.05577 11.8438 7.95927 11.8116C7.76629 11.7473 7.70197 11.7151 7.70197 11.8116C7.73413 11.8759 7.89495 11.9725 7.70197 11.9081C7.76629 12.0689 7.6698 11.9403 8.02361 12.1011C7.92711 12.0368 7.86278 12.3263 7.41248 12.0046C7.18733 11.9081 6.99435 11.9081 6.83353 11.7795L6.54407 11.683C6.57623 11.6508 6.57622 11.6508 6.44756 11.5865ZM7.70197 10.7502C7.83062 10.7502 7.5733 10.5894 7.41248 10.4929C7.34815 10.4607 7.25168 10.4286 7.18735 10.3964C7.34817 10.5251 7.50898 10.718 7.70197 10.7502Z" fill="#FFBC00"/>
<path d="M10.0176 7.88777C10.1141 8.01643 10.2427 8.17724 10.307 8.17724C10.3392 8.14507 9.88891 7.66263 10.0176 7.88777Z" fill="#FFBC00"/>
<path d="M10.1461 8.53029C10.114 8.4338 9.98533 8.27297 9.95316 8.14432C9.88884 7.88701 10.0497 8.20864 10.1783 8.33729C10.2426 8.43379 10.5964 8.75543 10.4678 8.49811C10.3391 8.30513 10.114 8.04783 9.98532 7.88701C9.56719 7.59753 9.85667 7.56537 9.88883 7.56537C9.79234 7.46888 9.69586 7.34021 9.59937 7.21155C9.5672 7.17939 9.5672 7.14723 9.53504 7.11507C9.47071 6.98641 9.37422 6.76126 9.27773 6.72909C9.11691 6.66477 9.24556 6.88992 9.37422 7.01858C9.40638 7.05074 9.76018 7.53321 9.56719 7.40455C9.43854 7.30806 9.27772 7.05074 9.14906 6.95425C9.02041 6.85775 9.02041 7.01858 9.05258 7.08291C9.05258 7.24373 8.95608 7.27588 8.89176 7.37237C8.82743 7.53319 9.34205 8.01566 9.53504 8.24081C9.79235 8.49812 10.2748 8.88409 10.1461 8.53029Z" fill="#FFBC00"/>
<path d="M9.50317 7.11588C9.53533 7.14804 9.53533 7.21236 9.5675 7.21236C9.63183 7.34102 9.40667 6.89073 9.50317 7.11588Z" fill="#FFBC00"/>
<path d="M10.8537 6.47233C10.8215 6.31151 10.5642 5.76473 10.5642 5.95772C10.5964 6.08637 10.7893 6.5045 10.8537 6.47233Z" fill="#FFBC00"/>
<path d="M11.2078 6.56885C11.24 6.31154 10.8862 5.76475 10.8219 5.92557C10.7897 6.05423 11.2722 6.89049 11.2078 6.56885Z" fill="#FFBC00"/>
<path d="M11.2078 6.56908C11.2399 6.7299 11.2399 6.37609 11.2078 6.56908V6.56908Z" fill="#FFBC00"/>
<path d="M15.8389 5.57184C15.9998 5.2502 15.9033 4.92855 15.8068 5.28236C15.7425 5.50751 15.7103 5.82915 15.8389 5.57184Z" fill="#FFBC00"/>
<path d="M17.0938 7.9194H17.1259C17.2867 7.79074 17.3189 7.4691 17.0938 7.9194Z" fill="#FFBC00"/>
<path d="M10.5965 8.4665C10.5643 8.37001 10.5 7.98403 10.6929 8.33783C10.8538 8.59515 10.8859 8.43433 10.9181 8.40217C10.9824 8.30567 11.1111 8.27352 11.1111 8.04837C11.1432 7.82322 11.3684 8.08052 11.4649 8.01619C11.5292 7.95187 11.2076 7.24427 11.497 7.6624C11.6257 7.95187 11.69 7.56589 11.7222 7.63022C11.8187 7.88753 12.0117 7.63023 12.076 7.59807C12.1725 7.53374 12.269 7.66239 12.3655 7.59807C12.3333 7.5659 12.2368 7.46941 12.2368 7.34076C12.2047 7.2121 12.3333 7.27643 12.3655 7.24427C12.3976 7.21211 12.3333 7.08344 12.3655 7.05127C12.3976 7.01911 12.4941 7.14776 12.5263 7.30858L12.462 7.34076C12.6228 7.59807 12.6549 7.5659 12.7193 7.43725C12.7836 7.30859 12.8479 7.59806 12.9123 7.53373C13.0088 7.46941 12.9766 7.14776 13.0088 6.98694C13.0409 6.82612 13.1696 7.24427 13.2339 7.34076C13.3947 7.59807 13.4591 7.1156 13.5877 7.21209C13.6842 7.27642 13.6842 7.30859 13.6199 7.01912C13.5877 6.82613 13.7807 7.08345 13.8129 7.08345C13.9415 7.05129 13.9415 6.92263 14.0058 7.40509C14.038 7.56591 14.1023 7.21209 14.1345 7.14776C14.1667 6.82612 14.1023 6.69748 14.231 6.69748C14.3275 6.82613 14.2953 6.56882 14.2632 6.37584C14.2632 6.21502 14.1988 5.37874 14.2953 5.37874C14.3918 5.34658 14.3597 6.11853 14.3597 6.21502C14.3597 6.31151 14.3596 6.82612 14.2953 6.82612C14.2953 7.1156 14.3275 7.63023 14.3918 7.11561C14.4561 7.24426 14.424 7.40509 14.5205 7.40509C14.5526 7.21211 14.6491 7.21209 14.7134 7.21209C14.8099 7.21209 14.8743 7.40508 14.9708 7.21209C15.0029 7.14777 15.0673 7.08344 15.0994 6.95479C15.0994 7.2121 15.0994 7.46941 15.1638 7.53373C15.1638 7.53373 15.1959 7.34075 15.2281 7.14776C15.2602 6.95478 15.2602 6.72963 15.2924 6.6653C15.2602 7.01911 15.2281 7.40508 15.3246 7.43725C15.3889 7.43725 15.5176 7.53375 15.5819 7.24427C15.5819 7.43725 15.614 7.53375 15.6462 7.56591C15.7105 7.63024 15.7105 7.50157 15.7749 7.30858C15.7749 7.30858 15.807 7.59807 15.8392 7.59807C15.8714 7.59807 16.0322 7.21211 16.0643 7.08345C16.0965 7.01912 16.193 6.76181 16.1287 6.76181C16.0643 6.76181 16.0965 6.60099 16.0643 6.60099C16.1608 6.60099 16.2252 6.63315 16.2252 6.8583C16.2252 7.05128 16.0965 7.27643 16.0965 7.40509C16.0965 7.59807 16.2895 7.08345 16.3216 7.01912C16.386 6.89046 16.3538 7.27643 16.3538 7.34076C16.3538 7.63023 16.4503 7.72671 16.6433 7.30858C16.6755 7.24425 16.8363 7.46941 16.7076 7.6624C16.7719 7.56591 16.8684 7.30859 16.9006 7.34076C16.9649 7.34076 16.9328 7.53373 16.9328 7.63022C16.9328 7.79104 17.1258 7.2121 17.1579 7.11561C17.0936 7.24426 17.1901 7.24425 17.0936 7.4694C17.0614 7.53373 16.9006 7.91971 16.9649 7.91971C16.9971 7.88754 17.0293 7.85537 17.0614 7.79104H17.1257C17.1257 7.82321 17.1579 7.79105 17.1901 7.75889C17.3187 7.59807 17.4796 7.34076 17.6404 7.08345C17.7369 6.92263 17.8012 6.69748 17.8655 6.69748C17.769 6.92263 17.6404 7.14777 17.5439 7.37291C17.4795 7.5659 17.5439 7.46942 17.5117 7.56591C17.4796 7.6624 17.3509 7.88754 17.3509 7.91971C17.3509 7.95187 17.4152 7.98403 17.4474 7.91971C17.5117 7.79105 17.576 7.50158 17.6725 7.40509C17.769 7.3086 17.7369 7.50157 17.7047 7.59807C17.576 7.95187 17.4796 7.98403 17.6404 8.01619C17.8334 8.08052 18.0585 7.5659 18.2515 7.11561C18.348 6.85829 18.5088 6.56882 18.6696 6.31151C18.9591 5.76472 18.4445 6.47233 18.4123 6.47233C18.4123 6.47233 18.6375 6.05419 18.6696 5.98987C18.6053 5.9577 18.4766 6.24719 18.3802 6.27935C18.2193 6.37584 18.155 6.24718 17.9942 6.31151C17.9299 6.34367 17.7369 6.47233 17.8334 6.21502C17.8655 6.11853 17.9942 5.79689 18.0585 5.79689C17.9299 5.76473 17.8012 5.66823 17.6404 5.73256C17.5117 5.79689 17.3509 6.31151 17.2544 6.53666C17.3509 6.31151 17.1901 6.44017 17.1579 6.44017C17.1258 6.44017 17.2544 6.08635 17.2544 6.08635C17.3187 5.92553 17.4796 5.21793 17.2544 5.57174C17.1258 5.79689 17.1257 6.0542 17.0614 6.27935C17.0293 6.44017 16.8363 6.60099 16.8684 6.44017C16.8684 6.40801 16.9971 6.18286 16.9649 6.11853C16.9328 6.08637 16.8363 6.24717 16.8363 6.08635C16.8363 5.9577 16.8684 5.86121 16.9006 5.73256C16.8363 5.95771 16.5146 7.24427 16.4181 6.8583C16.386 6.76181 16.8684 5.41092 16.8041 5.41092C16.6755 5.47525 16.5146 6.08636 16.4503 6.21502C16.4825 6.15069 16.5146 5.6039 16.4825 5.57174C16.4181 5.31443 16.386 6.11851 16.4181 6.02202C16.386 6.15068 16.2895 6.08636 16.2573 6.15069C16.2252 6.34367 16.193 6.27935 16.1287 6.27935C16.1287 6.15069 16.2252 5.5074 16.3216 5.70038C16.386 5.47523 16.3538 5.02494 16.2252 5.28225C16.1287 5.47524 16.0643 6.08635 15.9679 6.18284C15.9679 6.18284 15.9678 6.15068 16 6.08635C16 6.02203 16.0322 5.92553 16.0643 5.8612C16.0965 5.70038 16.1287 5.50741 16.0965 5.47525C15.9678 5.41092 15.8714 6.0542 15.8392 6.27935C15.7749 6.27935 15.8714 6.02203 15.807 5.98987C15.7427 5.9577 15.7105 5.95769 15.6784 5.8612C15.6462 5.76471 15.5819 5.63606 15.5497 5.44307C15.5497 5.31442 15.5819 5.1536 15.4854 5.18577C15.4211 5.18577 15.3567 5.31441 15.3246 5.21792C15.3246 5.12143 15.3246 5.08927 15.2924 5.12143C15.1959 5.1536 15.1637 5.28225 15.0994 5.37874C15.0351 5.44307 14.9064 5.70039 14.8743 5.57174C14.8743 5.53957 14.9064 5.21792 14.9064 5.21792C14.8743 5.28225 14.7778 5.79688 14.7778 5.82905C14.7135 5.66823 14.6491 6.02203 14.617 5.92553C14.5848 5.76471 14.5848 5.37875 14.5848 5.18577C14.5848 5.34659 14.5848 5.41091 14.5526 5.50741C14.617 5.28226 14.3275 5.12144 14.3275 5.08928C14.231 5.05711 14.0702 4.83197 14.1667 5.2501C14.1988 5.76472 14.1023 5.44308 14.0702 5.89338C14.0702 5.95771 14.038 6.24719 13.9737 6.11853C13.9415 6.02204 13.9737 5.89338 13.9737 5.79689C13.9415 5.60391 13.845 6.02203 13.8129 5.76471C13.7807 5.57173 13.8129 5.37875 13.7485 5.34659C13.6842 5.31442 13.7164 5.05711 13.5877 5.08928C13.5234 5.21793 13.5234 5.28225 13.4269 5.12143C13.4591 5.31442 13.5234 6.08636 13.5877 6.15069C13.6842 6.27934 13.7485 6.92262 13.6199 6.63315C13.4591 6.05419 13.5877 6.95479 13.4912 6.92263C13.4269 6.92263 13.3947 6.72963 13.3947 6.56881C13.3626 6.3115 13.4591 6.47232 13.4591 6.34366C13.4591 6.3115 13.2339 5.44307 13.2661 5.44307C13.2339 5.44307 13.2982 6.08636 13.2339 5.89338C13.2017 5.76472 13.1696 5.66822 13.1052 5.60389C13.1374 5.79688 12.9766 5.89337 12.9444 5.76471C12.8801 5.60389 12.8801 5.28226 12.7836 5.2501C12.8479 5.50741 12.7193 5.34659 12.7193 5.47525C12.7193 5.57174 12.7836 5.76472 12.8158 5.82905C12.8479 5.82905 12.8479 5.86121 12.8801 5.89338C12.9123 6.08636 12.8801 6.6653 12.8801 6.82612C12.8479 6.63314 12.7514 6.37583 12.6871 6.24717C12.5906 6.27934 12.5585 5.98987 12.5263 5.98987C12.462 5.98987 12.6871 6.98694 12.5585 6.98694C12.6549 6.92261 12.3976 6.11851 12.3011 5.8612C12.1725 5.53956 12.2047 5.79687 12.269 6.02202C12.2047 5.79687 11.9473 5.02495 12.0438 5.57174C12.2047 6.408 11.9473 5.44307 11.9152 5.70038C11.883 6.02202 12.0438 6.24718 12.1403 6.21502C12.2368 6.18285 12.3012 6.82613 12.3333 6.95479C12.2368 6.79397 12.1403 6.63315 12.0438 6.44017C11.9473 6.27935 11.9152 6.0542 11.8187 5.89338C11.7544 5.76472 11.6257 5.66823 11.5935 5.57174L11.7865 6.11853C11.7865 6.11853 11.5935 5.70039 11.5614 5.66823C11.4649 5.53957 11.4649 5.76471 11.497 5.8612C11.4649 5.76471 11.1754 5.70039 11.1433 5.66823C11.2076 6.02203 11.4971 6.40801 11.6257 6.76181C11.6579 6.8583 11.5935 6.89045 11.5614 6.89045C11.5292 6.89045 11.4649 6.69747 11.4327 6.6653C11.2719 6.47232 11.4649 7.01912 11.4649 7.08345C11.4649 7.11561 11.4006 7.24427 11.3684 7.17994C11.3362 7.11561 11.3362 6.82613 11.2397 6.63315C11.2076 6.53665 10.8538 5.98987 10.8538 5.98987C10.8538 6.08636 11.1433 6.82613 11.2076 6.95479C11.2397 7.11561 11.1111 7.01912 11.0146 6.8583C10.9181 6.66531 10.5965 6.08636 10.5321 6.21502C10.5 6.27935 10.5321 6.408 10.4356 6.37584C10.3713 6.34367 10.3392 6.18284 10.3392 6.18284C10.2427 6.11851 10.4356 6.76181 10.4678 6.8583C10.4678 6.92263 10.2105 6.69747 10.1462 6.6653C10.114 6.69747 9.85668 6.44016 10.0497 6.79397C10.1783 7.01911 10.3713 7.27642 10.307 7.37291C10.114 7.1156 9.69586 6.34367 9.72803 6.69748C9.63154 6.79397 10.3391 7.56589 10.3713 7.79104C10.4035 7.82321 9.7602 7.05128 9.7602 7.01912C9.72804 7.11561 10.2748 7.82321 10.3713 8.01619C10.3391 8.17701 10.6608 8.78814 10.5965 8.4665Z" fill="#FFBC00"/>
<path d="M20.4386 8.04776C20.5351 8.01559 20.8246 7.79045 20.7924 7.72612C20.6959 7.69395 20.3743 7.98343 20.4386 8.04776Z" fill="#FFBC00"/>
<path d="M19.4739 9.78509C19.3131 9.84941 19.6669 9.75292 19.4739 9.78509V9.78509Z" fill="#FFBC00"/>
<path d="M18.6373 6.6653C18.573 6.63314 18.2513 7.17994 18.2513 7.24427C18.2513 7.24427 18.5086 7.2121 18.2513 7.43724C18.1548 7.50157 18.2192 7.37292 18.1227 7.50158C17.9297 7.72672 17.801 8.08053 17.7689 8.20919C17.7367 8.37001 17.8654 8.43432 18.0262 8.33783C18.0905 8.30567 18.5086 7.75889 18.4122 8.04837C18.38 8.14486 18.187 8.33783 18.1548 8.43432C18.0905 8.56298 18.187 8.56298 18.2192 8.56298C18.2835 8.59515 18.4122 8.43433 18.5086 8.40216C18.6051 8.37 18.573 8.46649 18.5408 8.56298C18.5408 8.65948 18.5408 9.04544 18.8303 8.7238C18.8624 8.65948 19.2484 8.27351 19.1519 8.4665C19.0554 8.62732 18.8946 8.75597 18.7981 8.88462C18.8625 8.78813 19.1519 8.62731 18.8946 8.98111C18.766 9.14193 19.0233 8.91678 19.0554 8.91678C19.1198 8.94894 18.9268 9.1741 18.9268 9.2706C18.9268 9.30276 19.1841 9.10978 19.1519 9.17411C19.0876 9.30276 18.9911 9.46358 19.0554 9.49575C19.0876 9.52791 19.3127 9.39924 19.3127 9.39924C19.3771 9.4314 19.2806 9.56006 19.3449 9.62439C19.4092 9.65656 19.2806 9.81737 19.4736 9.72088C19.5379 9.72088 19.6022 9.68873 19.6666 9.65657C19.6987 9.65657 19.5701 9.65656 19.6344 9.59224C19.6987 9.49574 19.8274 9.36709 19.9239 9.2706C20.1169 9.07761 20.3098 8.8203 20.5671 8.62732C20.6958 8.49866 20.8566 8.36999 20.8888 8.2735C20.921 8.17701 20.5993 8.43433 20.535 8.4665C20.2777 8.59515 20.6315 8.2735 20.535 8.2735C20.5028 8.2735 20.342 8.37 20.342 8.40216C20.4063 8.30567 20.5671 8.11268 20.5671 8.01619C20.5671 8.01619 20.3742 8.14484 20.1812 8.2735C19.9882 8.40216 19.7631 8.53082 19.7309 8.56298C19.3771 8.69164 19.956 8.30566 19.9239 8.2735C19.9239 8.2735 19.6666 8.43432 19.6022 8.43432C19.5379 8.43432 19.6666 8.30567 19.6987 8.24134C19.8274 8.08052 19.956 7.9197 20.0847 7.75888C20.0204 7.79105 19.5379 8.08053 19.5379 8.04837C19.6666 7.79106 20.149 7.63023 20.2134 7.50158C20.3098 7.34076 19.6344 7.6624 19.9882 7.24427L19.5379 7.75888C19.4414 7.69456 19.8917 7.34076 19.6344 7.40509C19.5057 7.43725 19.4736 7.43724 19.3127 7.63022C19.2484 7.66238 19.1841 7.5659 19.1519 7.53373C19.2806 7.59806 19.6987 7.11561 19.3771 7.24427C19.2806 7.27643 19.4414 7.05128 19.4414 7.01912C19.4092 6.92262 19.2484 7.0191 19.1841 6.98694C19.1519 6.98694 19.3127 6.47233 19.0554 6.76181C18.9911 6.8583 18.7981 7.17993 18.766 7.21209C18.7016 7.27642 18.7338 7.05128 18.6373 7.17994C18.6051 7.2121 18.6051 7.30859 18.5408 7.34076C18.4765 7.40508 18.6695 6.79396 18.7338 6.6653C18.7981 6.69746 18.7016 7.05128 19.0233 6.60099C19.0233 6.56882 18.9268 6.408 18.8946 6.37584C18.8303 6.34367 18.7338 6.37582 18.8625 6.18284C18.8303 6.18284 18.8303 6.15069 18.7338 6.21502C18.4765 6.44016 18.573 6.6653 18.6373 6.6653Z" fill="#FFBC00"/>
<path d="M22.2401 11.7793C22.1115 11.8115 22.2723 11.8115 22.2401 11.7793V11.7793Z" fill="#FFBC00"/>
<path d="M20.9855 8.72392C21.0176 8.78824 20.8247 9.1742 20.696 9.07771C20.8568 8.85256 19.9562 9.39936 20.2135 9.20638C20.3422 9.07772 20.5352 8.94906 20.4708 8.88474C20.4387 8.88474 20.4065 8.85256 20.3422 8.91689C19.9562 9.20637 20.117 9.36719 19.9241 9.56017C19.7954 9.68883 19.4094 9.91399 19.4416 9.97832C19.4738 10.0105 19.5059 10.0748 19.5703 10.0748C19.6346 10.107 19.8597 10.0426 19.7632 10.1713C19.6989 10.2356 19.6667 10.2678 19.8597 10.2035C19.8276 10.1713 19.9884 10.2678 19.8597 10.3C19.8919 10.3 20.1492 10.1713 20.1492 10.1713C20.0849 10.2356 19.7632 10.3321 19.7311 10.4286C19.6989 10.4608 19.924 10.4286 19.9562 10.4286C20.0849 10.4286 20.4387 10.2678 20.2778 10.2356C20.5673 10.0748 20.31 10.3 20.4708 10.2356C20.503 10.2356 20.6317 10.1391 20.7282 10.0748C20.8246 10.0105 20.9211 9.94614 20.9211 9.94614C20.9855 10.0105 20.3743 10.3 20.2457 10.3964C20.117 10.4929 20.0205 10.5894 19.9562 10.6859C19.924 10.7502 19.8597 11.0397 19.8276 11.0397C19.8597 11.0397 20.2457 10.8146 20.31 10.7824C20.3744 10.8467 19.9884 11.0076 19.9562 11.0719C19.924 11.1684 20.1492 11.1041 20.31 11.1041C20.4708 11.0719 20.4387 11.1362 20.2135 11.2005C20.0206 11.2649 20.117 11.3292 20.1492 11.3614C20.1814 11.3935 20.1814 11.49 20.31 11.4579C20.3744 11.4579 20.7282 11.3292 20.5673 11.4257C20.1814 11.6508 20.2135 11.683 20.7603 11.49C20.7925 11.5543 20.4387 11.6187 20.3422 11.683C20.3743 11.7152 20.1492 11.876 20.2135 11.876C20.2779 11.9081 20.9533 11.5865 20.7282 11.8117C20.5995 11.9081 20.3422 11.9403 20.4065 12.0368C20.4387 12.1011 20.7281 12.0046 20.9211 12.0368C20.9533 12.0368 21.4036 12.0046 21.4036 11.9725C21.4358 11.9403 21.4679 11.7473 21.7896 11.683C22.0147 11.6508 21.8539 11.9081 22.1434 11.8117C22.1755 11.876 22.4972 11.7795 22.6901 11.7152C22.5615 11.7473 22.4328 11.7473 22.3364 11.7473C22.5293 11.7473 22.7223 11.5222 22.658 11.49C22.5615 11.3935 22.3363 11.3614 22.1112 11.3614C21.9182 11.3614 21.4679 11.49 21.7252 11.3292C22.0147 11.1684 21.8539 11.1362 21.5966 11.2327C21.7574 11.1684 21.886 11.0397 21.886 10.9754C21.886 11.0397 22.2399 11.0719 22.2077 10.9432C22.2077 10.8789 22.272 10.7824 22.2399 10.7181C22.2077 10.6538 21.2428 11.0397 21.4679 10.8467C21.6609 10.6537 22.5293 10.4929 22.1434 10.3643C22.0147 10.3321 21.7896 10.4929 21.5966 10.5573C21.4036 10.6538 21.3393 10.5894 21.1463 10.7181C21.1141 10.6538 21.5644 10.4608 21.6609 10.4286C21.8217 10.3643 22.0147 10.2999 22.1755 10.2035C22.3042 10.1391 22.1112 10.1391 22.0469 10.1713C21.8217 10.2678 21.5001 10.5251 21.3071 10.4608C21.2428 10.4286 21.2749 10.3643 21.4036 10.2678C21.4358 10.2999 21.9182 10.2035 21.9182 10.107C21.9182 10.107 21.7252 10.107 21.8539 10.0426C22.0147 9.94614 21.9182 9.97832 21.886 9.91399C21.8217 9.84966 22.0469 9.81748 22.0147 9.72099C21.9825 9.68883 21.4679 9.43152 21.3714 9.52802C21.4036 9.49585 21.5323 9.43152 21.5966 9.3672C21.6609 9.30287 21.5644 9.23854 21.5644 9.20638C21.5001 9.14205 21.5966 8.98122 21.5001 8.91689C21.4358 8.88473 21.0176 9.14206 21.1463 9.0134C21.2106 8.94907 21.4036 8.65958 21.1785 8.8204C21.4036 8.62742 21.0498 8.56309 21.1141 8.43443C21.1785 8.24145 20.5673 8.62742 20.4387 8.8204C20.6317 8.65958 20.9855 8.69175 20.9855 8.72392Z" fill="#FFBC00"/>
<path d="M22.9153 11.6504C22.8831 11.6504 22.8509 11.6826 22.7866 11.6826C22.8509 11.6826 22.8831 11.6504 22.9153 11.6504Z" fill="#FFBC00"/>
<path d="M22.3364 12.8084L22.3686 12.8406C22.4651 12.8084 22.5294 12.7762 22.4972 12.7119C22.3364 12.7762 22.3042 12.7762 22.3364 12.8084Z" fill="#FFBC00"/>
<path d="M22.5936 13.2588V13.3231C23.269 13.2588 22.5614 13.0979 22.5936 13.2588Z" fill="#FFBC00"/>
<path d="M20.5031 12.2612C20.471 12.3255 20.471 12.3899 20.5675 12.4542C20.5996 12.4864 20.8891 12.5185 20.6318 12.5507C20.7604 12.5507 20.8891 12.6472 20.7926 12.6472C20.7283 12.6472 20.6318 12.615 20.6318 12.615C20.5031 12.7115 20.5996 12.8402 20.5996 12.9045C20.6318 13.001 20.5353 13.1618 20.9534 13.1618C21.0178 13.1618 20.7926 13.2261 20.6961 13.2261C21.1142 13.2905 20.5675 13.4513 20.6318 13.5478C20.6639 13.6121 21.5645 13.6121 21.9183 13.6443C21.9183 13.6443 21.9505 13.6443 22.0148 13.6443C22.1757 13.6764 22.433 13.6764 22.626 13.6764C22.626 13.6121 22.3365 13.6121 22.24 13.5799C22.0792 13.4834 22.4651 13.5156 22.5616 13.4834C22.6581 13.4513 22.2078 13.3548 22.1435 13.3226C22.0148 13.2583 22.1435 13.2261 22.0792 13.194C22.0792 13.194 21.3072 13.194 21.5645 13.1296C21.661 13.0975 22.2722 13.0331 22.3043 13.0975C22.8511 13.1296 23.0762 13.0975 22.9154 12.9045C22.8833 12.8723 22.7546 12.5507 22.5938 12.5507C22.3365 12.5829 22.4973 12.7437 22.4651 12.808C22.433 12.9367 22.2721 12.9688 22.047 12.9045C21.9183 12.8723 21.7254 13.0975 21.5645 13.0653C21.5002 13.0653 21.7254 12.9366 21.7254 12.9366C21.7897 12.8723 21.661 12.8402 21.661 12.808C21.6932 12.7758 21.9827 12.7758 21.9827 12.6793C21.9827 12.615 21.854 12.6472 21.9505 12.5829C22.0148 12.5507 22.5938 12.3255 22.5616 12.2934C22.5616 12.2934 22.24 12.3255 22.2078 12.3255C22.0148 12.3255 22.0148 12.2934 21.854 12.2934C21.7254 12.2934 21.3072 12.3255 21.2429 12.3255C21.1464 12.2934 21.468 12.1969 21.468 12.1969C21.4359 12.1969 21.0177 12.3255 20.9213 12.3255C20.7926 12.3577 20.664 12.3577 20.5353 12.3577C20.7926 12.2934 21.0821 12.229 21.3072 12.1325C21.3072 12.1325 21.3716 12.1004 21.4359 12.0361C21.5002 12.0039 21.5967 11.9717 21.661 12.0039C21.6932 12.0361 21.5645 12.1004 21.6932 12.1325C21.7897 12.1647 21.9505 12.1647 22.0792 12.1647C22.1435 12.1647 22.8511 12.1004 22.8189 12.0361C22.8189 12.0039 22.2078 12.0682 22.1113 12.1004C22.2078 12.0682 22.7224 11.8431 22.7224 11.7788C22.6903 11.7144 22.1113 11.9074 22.047 11.9074C22.047 11.9396 21.661 11.9396 21.5967 11.9717C21.468 11.9717 20.5353 12.1326 20.5031 12.2612Z" fill="#FFBC00"/>
<path d="M22.0789 13.6123C22.0467 13.6123 22.0146 13.6123 21.9824 13.6123C21.9824 13.6123 22.1754 13.6445 22.0789 13.6123Z" fill="#FFBC00"/>
<path d="M21.468 13.6123C21.3715 13.7409 21.275 13.6766 20.8891 13.7088C20.6317 13.7088 20.7282 13.8053 20.7604 13.8374C20.8247 13.9661 20.7926 14.1912 21.4358 14.2234C21.4358 14.3199 21.1142 14.1912 20.9855 14.2234C20.9855 14.3199 21.5967 14.352 21.7896 14.352C22.0791 14.352 22.2721 14.2555 21.8218 14.2234C21.9826 14.2555 23.1084 14.1591 22.9154 14.0626C22.4651 14.0626 21.5323 14.0304 21.5002 13.8374C21.6288 13.8374 21.7575 13.8374 21.8861 13.8696C22.1434 13.9018 22.4329 13.9339 22.7224 13.9339C23.1727 13.9339 22.1756 13.8053 21.9183 13.8696C22.0791 13.8374 22.4329 13.7409 22.1756 13.7409C21.9826 13.7409 21.7896 13.7409 21.6288 13.6766C21.661 13.6444 21.5002 13.5801 21.468 13.6123Z" fill="#FFBC00"/>
<path d="M22.819 14.7058C23.1085 14.6736 22.8834 14.6093 22.6582 14.5771V14.6415C22.6904 14.6736 22.7869 14.7058 22.819 14.7058Z" fill="#FFBC00"/>
<path d="M14.617 35.0668C14.5527 34.8416 14.4562 34.9381 14.4883 35.1311L14.5205 35.0989L14.617 35.0668Z" fill="#FFBC00"/>
<path d="M14.6812 35.0341C14.6812 35.0663 14.6812 35.0663 14.6812 35.0663C14.7133 35.0984 14.7133 34.8733 14.6812 35.0341Z" fill="#FFBC00"/>
<path d="M14.6814 35.0663C14.6814 35.0663 14.6814 35.0663 14.6814 35.0341C14.7457 34.7125 14.4241 34.5838 14.6814 35.1628C14.6814 35.1628 14.6814 35.1306 14.6814 35.0663Z" fill="#FFBC00"/>
<path d="M23.7836 32.654C23.3977 31.9464 23.5906 32.7827 23.7836 32.654V32.654Z" fill="#FFBC00"/>
<path d="M25.7133 31.2393C25.7455 31.2393 25.7455 31.2071 25.7455 31.175C25.7133 31.0785 25.5847 31.0463 25.5525 31.0785C25.5847 31.0785 25.7133 31.2715 25.7133 31.2393Z" fill="#FFBC00"/>
<path d="M18.4443 34.2949C18.4765 34.3592 18.4765 34.3914 18.5086 34.4557C18.4765 34.3914 18.4443 34.3271 18.4443 34.2949Z" fill="#FFBC00"/>
<path d="M14.9386 36.9321C15.0351 37.0929 15.0672 36.9642 15.0672 36.8356C15.0672 36.7069 15.0994 36.8677 15.1316 36.8999C15.1316 36.8677 14.9708 36.1601 15.0672 36.3209C15.1637 36.5139 15.2281 36.8034 15.3246 37.0607C15.3889 37.2537 15.5497 37.511 15.5497 37.2858C15.4854 37.0607 15.3889 36.9964 15.3246 36.7391C15.421 36.6747 15.5175 37.1572 15.5819 37.125C15.6462 37.0929 15.5819 36.9642 15.5175 36.8034C15.614 36.7391 15.7105 37.1894 15.7748 37.1572C15.8392 37.1572 15.8392 37.125 15.9035 37.2215C16.0322 37.3823 16 37.0929 15.9357 36.8999C15.8713 36.6747 15.8713 36.6104 15.9357 36.5782C16 36.7712 16.0643 36.9642 16.0965 37.1572C16.1608 37.4145 16.1608 37.0607 16.1608 36.9964C16.193 36.9321 16.2895 36.932 16.3216 36.8999C16.3538 36.8999 16.386 36.6426 16.3538 36.6426C16.4181 36.6426 16.7719 37.5753 16.6754 36.8677C16.6111 36.6747 16.7076 36.7712 16.7719 36.8356C16.8684 36.9964 16.9006 36.8677 16.9328 36.7391C17.0292 36.4817 17.0292 36.7069 17.2222 36.8677C17.4152 37.0607 17.2222 36.4496 17.1579 36.1923C17.1901 36.2888 17.2544 36.3209 17.3187 36.5139C17.3509 36.6104 17.3831 36.6747 17.4152 36.6747C17.576 36.7712 17.6725 36.6426 17.8012 36.6426C17.8977 36.6426 18.0907 36.7069 18.155 36.6104C18.1871 36.5461 17.9942 36.1601 17.962 36.0315C17.9942 36.1601 18.0585 36.0958 18.0907 36.1923C18.1228 36.2566 18.155 36.3531 18.1871 36.4174C18.2193 36.5139 18.2836 36.4174 18.2836 36.4174C18.2193 36.4496 18.2836 36.2888 18.3158 36.2888C18.3801 36.2566 18.5088 36.3531 18.5731 36.2566C18.6374 36.1923 18.4766 35.742 18.6053 35.8385C18.7339 35.935 19.0234 36.3531 19.0877 36.1601C19.1199 36.0958 19.0234 35.5168 19.2164 36.0315C19.2164 35.9671 19.2164 35.8706 19.1842 35.8063C19.5059 36.5139 19.6667 36.0958 19.8275 35.9993C19.8597 35.9671 20.1813 35.8706 20.0848 35.6455C20.117 35.6133 20.1813 35.6776 20.2135 35.6776C20.31 35.6776 20.3743 35.6133 20.4386 35.5812C20.5673 35.5168 20.6959 35.5812 20.8246 35.5168C20.8568 35.4847 20.9533 35.4847 20.8889 35.2917C20.8246 35.163 20.8246 35.0665 20.8568 35.0344C20.8889 35.0022 20.9854 35.0344 21.0497 35.163C21.1141 35.1952 21.1462 35.0665 21.2106 35.0987C21.2427 35.0987 21.4357 35.3882 21.3392 35.1309C21.2749 35.0022 21.2427 34.8092 21.3071 34.8092C21.3392 34.8735 21.4357 35.1952 21.4679 35.1952C21.5644 35.2917 21.5965 34.8735 21.5965 34.8092C21.6287 34.7449 21.7252 34.8414 21.8217 34.8414C21.886 34.8736 22.1112 35.0344 22.0147 34.7127C21.9503 34.5197 21.9182 34.3911 21.8538 34.2303C21.9503 34.3589 22.1111 34.5841 22.2076 34.6484C22.3685 34.8092 22.0468 34.166 22.0147 34.1016C22.1112 34.0373 22.3685 34.6806 22.465 34.8092C22.5936 34.97 22.5614 34.6162 22.5936 34.5841C22.6579 34.5519 22.8509 34.6162 22.7866 34.4554L22.7223 34.3268C22.7544 34.2946 22.7544 34.2303 22.7223 34.1338C22.7223 34.1016 22.5936 33.78 22.5936 33.78C22.6258 33.7478 23.0118 34.4876 23.1082 34.5519C23.2369 34.6162 23.3334 34.4233 23.3977 34.3589C23.4942 34.2946 23.848 34.3911 23.655 33.9086C23.8158 34.1981 23.9767 33.8765 24.041 33.8765C24.0732 33.8765 24.2661 34.0051 24.2018 33.9086C24.1696 33.7156 23.9767 33.587 23.9445 33.4905C23.7837 33.1045 24.427 33.8765 24.4591 33.78C24.4591 33.78 24.3626 33.5548 24.234 33.3297C24.1375 33.1045 24.041 32.9115 24.0732 32.9437C24.1697 33.0402 24.6199 34.0694 24.6199 33.6835C24.6199 33.4905 24.8129 33.587 24.7486 33.2653C24.7486 33.1367 24.7808 32.8794 24.9094 32.9437C25.0381 33.201 25.3276 33.3618 25.1667 33.0402C25.5527 33.78 25.6814 33.2332 25.2954 32.6221C25.3919 32.7829 25.5205 32.9759 25.6492 33.1045C25.81 33.2975 25.8422 33.1689 25.8743 33.1367C25.9387 33.1045 26.196 33.1367 26.003 32.8472C26.1317 32.9759 26.2281 32.9437 26.2925 32.8794C26.4211 32.7829 26.3246 32.6864 26.1317 32.3326C26.196 32.2683 26.4211 32.7186 26.5498 32.7829C26.4855 32.6542 26.4211 32.4934 26.4855 32.4612C26.7428 32.9759 26.8393 32.7507 26.9358 32.6864C27.0001 32.6221 26.7428 32.011 26.6784 31.818C26.582 31.625 26.4533 31.3998 26.389 31.239C26.3246 31.0782 26.4533 31.239 26.4855 31.3034C26.6141 31.5285 26.7428 31.818 26.8714 32.0431C26.8714 32.011 27.0644 32.4934 27.0644 32.4291C27.0644 32.3969 27.0644 32.3326 27.0966 32.3004C27.1287 32.3648 27.1609 32.3969 27.1931 32.4291C27.2252 32.4291 27.2896 32.3969 27.2252 32.3004C27.1931 32.2361 26.6784 31.3998 26.6784 31.3998C26.8071 31.4642 27.2896 32.0753 27.0644 31.5285C26.9036 31.3998 26.7749 31.046 26.6141 30.8852C26.4855 30.7244 26.6463 31.3677 26.5176 31.1747C26.4211 31.0139 26.3568 30.853 26.2281 30.6922C26.1316 30.4992 26.1317 30.7566 26.0995 30.7887C26.0352 30.853 26.2603 31.3033 26.389 31.5607C26.4533 31.7215 26.5498 31.9145 26.5176 31.9788C26.5176 32.011 26.4211 32.1075 26.3568 32.011C26.2925 31.9145 26.3246 31.6893 26.2925 31.5928C26.2281 31.3998 26.1638 31.2712 26.0673 31.0782C26.2603 31.3998 26.0673 31.3355 26.1317 31.5607C26.0673 31.625 26.0352 31.4963 25.9387 31.432C25.8422 31.3677 25.81 31.4642 25.7779 31.4963C25.7135 31.5285 25.6814 31.3677 25.5849 31.2712C25.4562 31.1425 25.3919 31.2069 25.3276 31.1747C25.2954 31.1747 24.9738 31.0782 25.1346 31.2712C25.3597 31.5928 25.3597 31.7215 25.2311 31.7215C25.1346 31.7215 24.9094 31.3033 25.0059 31.5928C25.0702 31.9145 24.7486 31.432 24.8451 31.6571C24.8773 31.7215 24.9737 31.9466 25.1024 32.1718C25.1667 32.2683 25.1989 32.3648 25.2632 32.4612C25.2954 32.5256 25.3276 32.5899 25.3276 32.5899C25.2632 32.5899 25.0381 32.1396 24.9416 32.0431C24.8129 31.8823 24.7486 31.9466 24.6199 31.7215C24.6521 31.6893 24.5556 31.5928 24.5556 31.5928C24.5235 31.625 24.5878 31.7215 24.5878 31.7536C24.6843 31.9145 24.5878 31.9788 24.5556 31.9788C24.5556 31.9788 24.8773 32.3648 24.7486 32.3326C24.5878 32.3004 24.3948 31.7536 24.2983 31.6571C24.1375 31.5285 24.234 31.8823 24.3305 32.1075C24.427 32.3326 24.3948 32.2683 24.3305 32.3326C24.3626 32.3326 24.1697 32.2683 24.234 32.3969C24.3626 32.5899 24.4591 32.7186 24.2661 32.5899C24.041 32.3648 24.2018 32.2683 24.0732 31.9788C24.0088 32.1074 23.848 31.7536 23.8802 32.0431C23.9123 32.2039 23.655 32.1074 23.848 32.4612C23.7515 32.2683 23.6872 32.2361 23.7194 32.3969C23.7515 32.5577 23.848 32.7186 23.9123 32.9116C24.0088 33.2332 23.7194 32.7507 23.6872 32.6542C23.5907 32.5256 23.3655 32.0431 23.3334 32.2039C23.3334 32.3004 23.3012 32.5899 23.1404 32.1718C23.2691 32.4613 23.6229 33.2332 23.3656 32.9759C23.2047 32.8472 22.9474 32.2039 22.9474 32.4934C22.9474 32.5256 23.0439 32.9115 22.9796 32.8472C22.9153 32.7829 22.8188 32.5577 22.7223 32.4612C22.6579 32.3969 22.7223 32.5899 22.6579 32.6221C22.5936 32.6542 22.7866 32.9115 22.7866 33.0402C22.8188 33.201 22.6901 33.1367 22.7223 33.3618C22.7223 33.4262 22.8188 33.8121 22.6901 33.5227C22.5614 33.394 22.4328 33.3297 22.3685 33.3618C22.3041 33.394 22.3363 33.5548 22.3363 33.6513C22.3041 33.7478 22.0468 32.9437 21.9503 32.8472C21.8538 32.7507 22.0468 33.2332 22.0468 33.2975C22.079 33.394 22.079 33.5548 22.0147 33.394C22.0468 33.4583 22.272 33.9086 22.272 33.9086C22.1755 33.9086 21.8538 33.1045 21.7574 32.9116C21.693 32.9759 21.9182 33.3297 21.8217 33.394C21.6287 32.9116 21.6609 33.3618 21.5644 33.2653C21.5 33.1689 21.4357 32.9759 21.3714 32.9759C21.3071 32.9759 21.3392 33.0402 21.3392 33.1045C21.3071 33.201 21.2106 33.1045 21.1462 33.1367L20.9211 33.2975C21.0176 33.394 21.1462 33.6835 21.1462 33.8121C21.1462 33.973 20.9211 33.587 20.8889 33.5227C20.7924 33.2975 20.6316 33.2332 20.6316 33.3618C20.6316 33.5227 20.8246 33.6513 20.8889 33.7478C20.9533 33.8443 20.8246 34.1659 20.6959 33.8765C20.4386 33.2975 20.7281 34.4233 20.6959 34.4233C20.6316 34.2946 20.503 33.9408 20.4708 33.973C20.4386 33.973 20.31 34.2624 20.2778 34.0051C20.2135 34.0051 20.2135 34.2946 20.117 34.1016C20.0848 34.0051 19.8918 33.7478 19.924 33.9086C19.9883 34.1338 20.2778 34.4876 20.3743 34.4876C20.4065 34.4876 20.4065 34.7449 20.4065 34.7449C20.3743 34.8092 20.2456 34.5198 20.1813 34.4233C20.0848 34.2624 19.9883 34.0694 19.8597 33.9086C19.8597 34.0051 19.8918 34.1338 19.8918 34.2303C19.9883 34.6162 19.8918 34.3589 19.7632 34.1981C19.4415 33.78 19.5702 34.6806 19.2807 34.1659C19.2486 34.1016 19.3772 34.6806 19.2807 34.4876C19.2486 34.4554 19.0234 33.8765 19.0556 34.1338C19.0877 34.2624 19.2486 34.5841 19.1842 34.6162C19.1521 34.6484 18.9912 34.4554 18.9912 34.3911C18.9912 34.3911 19.1521 34.5841 19.0556 34.3589C18.9912 34.1981 18.8626 34.1659 18.8304 34.1981C18.7983 34.1981 18.7018 34.2303 18.7661 34.3589C18.8626 34.5198 18.9912 34.8092 19.0556 34.7771C19.0877 34.8736 19.1842 35.0665 19.1842 35.1309C19.1842 35.2595 19.0556 35.0665 18.9912 35.0022C18.8626 34.8414 18.7018 34.5841 18.5731 34.2946C18.6053 34.4233 18.6696 34.5841 18.6374 34.5841C18.6053 34.6162 18.4766 34.3268 18.4445 34.2624C18.3158 34.1016 18.2836 34.3268 18.2836 34.4554C18.2515 34.5841 18.2193 34.6806 18.2515 34.9379C18.2836 35.0022 18.348 35.3239 18.2515 35.2274C18.1871 35.163 17.9942 34.5197 17.9942 34.4876C17.962 34.5519 18.0585 34.9379 18.0585 34.97C18.0907 34.97 17.9298 34.7127 17.8977 34.6806C17.8333 34.6484 17.7369 34.6484 17.8333 34.8414C17.8012 34.9379 17.6725 35.0987 17.7369 35.2595C17.6404 35.4525 17.576 35.0987 17.383 34.9057C17.2544 34.7449 17.383 35.2595 17.5117 35.1952C17.4474 35.2274 17.383 35.6133 17.5117 35.9671C17.4474 35.742 17.4152 35.549 17.3187 35.3239C17.2544 35.1952 17.1901 35.0987 17.1579 34.97C17.2866 35.356 17.2222 35.4203 17.0614 35.4525C16.9327 35.4847 16.8363 35.163 16.6754 35.0022C16.7719 35.2274 16.4825 35.2595 16.4503 35.3239C16.4181 35.3882 16.5146 35.7098 16.4503 35.7098C16.386 35.7098 15.7748 34.9057 16 35.549C15.9357 35.549 15.7105 35.1309 15.7427 35.3882C15.7748 35.6455 15.807 35.7741 15.807 35.9993C15.7427 35.742 15.7105 35.4847 15.6462 35.2274L15.6784 36.0636C15.6784 35.9993 15.5497 35.3882 15.5497 35.3882C15.4854 35.5168 15.6462 36.0958 15.7427 36.3853C15.6784 36.4174 15.5175 35.7741 15.4532 35.6455C15.3567 35.356 15.3889 35.6777 15.2924 35.549C15.2602 35.4847 15.1959 35.2917 15.1637 35.3882C15.1316 35.4847 15.1637 35.6777 15.0994 35.6455C15.0672 35.6133 15.0029 35.6133 14.9386 35.5812C14.9064 35.549 14.6169 35.163 14.6169 35.2917C14.6169 35.2595 14.7134 35.742 14.7134 35.7741C14.8099 36.1601 14.8099 36.2566 14.6813 36.1601C14.6169 36.1279 14.6813 36.3531 14.6813 36.4496C14.6813 36.5139 14.8421 36.8356 14.9386 36.9321Z" fill="#FFBC00"/>
<path d="M17.0614 35.1306C17.0614 35.0984 17.0292 35.0341 16.9971 35.002C17.0292 35.0341 17.0614 35.0984 17.0614 35.1306Z" fill="#FFBC00"/>
<path d="M27.3215 30.6925C27.3858 30.7246 27.4823 30.6925 27.3215 30.4995C27.1607 30.3065 27.0964 30.4352 27.0642 30.4673L27.2894 30.6603C27.3215 30.6925 27.3215 30.6925 27.3215 30.6925Z" fill="#FFBC00"/>
<path d="M27.7078 32.204C27.9329 32.3649 27.7078 31.9789 27.9008 32.1397C28.0937 32.2362 27.9651 31.7537 28.0294 31.6251C28.1902 31.8824 28.2546 31.8824 28.2867 31.7537C28.2867 31.6251 28.1902 31.4321 28.1259 31.2391C28.2224 31.5929 28.8657 32.0432 28.3832 31.4964C28.1902 31.3356 28.3511 31.2713 28.4797 31.3999C28.6405 31.5929 28.737 31.7537 28.8335 31.6894C29.0587 31.7859 28.4797 31.1105 28.4476 31.014C28.3511 30.8853 27.9651 30.0491 27.8364 30.0169C27.7399 29.9847 27.9329 30.3064 27.7721 30.1777C27.7078 30.1134 27.4826 29.8561 27.5148 30.0169C27.6113 30.1777 27.8043 30.4028 27.8686 30.5315C27.9008 30.628 27.9329 30.6923 27.9651 30.7567C27.8364 30.5637 27.6113 30.242 27.6756 30.5315C27.7078 30.6602 27.9329 31.1105 27.9973 31.207L27.5148 30.435C27.4505 30.4993 27.7078 30.7567 27.6756 30.8531C27.6434 30.9818 27.547 30.8853 27.4826 30.8853C27.3861 30.9175 27.354 31.0461 27.161 30.8853C27.0967 30.8532 26.9359 30.6602 26.9037 30.6602C26.9359 30.628 27.161 31.0461 27.1932 31.1105C27.1288 31.1748 26.9358 30.8853 26.8394 30.6923C26.9358 30.8531 26.9358 31.014 26.9358 31.1105C26.9037 31.2069 26.9358 31.2713 27.0967 31.5286C27.2896 31.8181 27.547 32.0432 27.7078 32.204Z" fill="#FFBC00"/>
<path d="M28.8014 31.6895C28.7371 31.7538 28.9623 31.7538 28.8014 31.6895V31.6895Z" fill="#FFBC00"/>
<path d="M28.8654 31.4326C29.1227 31.6578 28.7046 30.9823 28.6081 30.8537C28.6403 30.918 29.1871 31.6578 29.1227 31.4648C29.0906 31.304 28.8654 31.0788 28.8976 30.9823C28.9298 30.918 28.9619 30.8537 29.0263 30.8537C29.0584 30.8537 29.1228 31.0145 29.1549 31.0788C29.3157 31.304 29.3801 31.2075 29.2514 30.9502C29.4122 31.111 29.1549 30.5964 29.3479 30.725C29.4444 30.8215 29.5409 31.0788 29.573 31.1753C29.6695 31.0788 29.4444 30.6607 29.2836 30.4034C29.4444 30.5964 29.573 30.7572 29.7339 31.0145C29.6374 30.8215 29.3479 30.1461 29.4122 30.0817C29.5409 30.2747 29.8947 30.7894 29.8947 30.5642C29.8947 30.4355 29.4766 30.2426 29.4766 30.0174C29.4766 29.7279 29.8625 30.4999 29.8947 30.4034C29.9269 30.3712 29.7339 30.0174 29.8947 30.1782C29.8947 30.1782 30.0233 30.339 30.0555 30.3712C30.0233 30.2747 29.959 30.1461 29.8947 30.0496C30.1198 30.3712 30.2163 30.4355 30.3771 30.532C30.4736 30.5964 30.3771 30.4355 30.3128 30.3391C30.4415 30.4999 30.5701 30.5642 30.6345 30.532C30.6988 30.4999 30.6023 30.3069 30.5701 30.2104C30.5701 30.1139 30.538 29.9852 30.5701 29.9531C30.6023 29.9209 30.7953 30.2104 30.8275 30.3069C30.8275 30.2425 30.7953 30.0817 30.7631 29.9531C30.731 29.8888 30.6988 29.8566 30.6988 29.8566C30.4415 29.4385 30.2163 29.2776 29.9268 28.8595C29.6052 28.4414 29.7017 28.7309 29.6052 28.7952C29.5409 28.8273 29.2514 28.7308 29.3479 28.9882C29.4444 29.2776 29.6052 29.3741 29.766 29.5028C29.7339 29.5349 30.0555 30.2104 30.0877 30.2747C29.9912 30.1461 29.9269 29.9531 29.7982 29.8244C29.7339 29.7601 29.6052 29.6314 29.6052 29.6314C29.5409 29.5028 29.3157 29.0525 29.2836 29.1168C29.2192 29.1812 28.7046 28.9882 29.0584 29.535C29.0263 29.4706 28.8976 29.5993 28.8654 29.5993C28.8333 29.6636 28.6403 29.4385 28.576 29.4385C28.4795 29.4385 28.4152 29.4706 28.4152 29.6636C28.4473 30.0174 28.2222 29.5349 28.1257 29.6314C28.3187 29.9209 28.383 29.8566 28.5438 30.2104C28.6081 30.339 28.769 30.7893 28.576 30.6285C28.3187 30.4034 28.2222 29.9852 28.0613 29.6958C28.0292 29.7279 27.7719 29.7923 27.9005 30.0174C27.997 30.2104 28.3508 30.6928 28.383 30.8537C28.4473 31.0467 28.6725 31.2718 28.8654 31.4326Z" fill="#FFBC00"/>
<path d="M30.1843 28.8582C30.1843 28.6974 30.0235 28.601 29.9592 28.6331C29.8949 28.7296 30.12 28.9226 30.1843 28.8582Z" fill="#FFBC00"/>
<path d="M31.085 29.6303L31.1172 29.5982C31.085 29.4052 30.7955 29.2443 31.085 29.6303Z" fill="#FFBC00"/>
<path d="M30.6991 28.9555C30.9564 29.2449 31.2459 29.5344 31.5032 29.856C31.5353 29.7917 31.471 29.5022 31.3424 29.2771C31.1815 29.0198 31.2137 29.3736 31.1815 29.3093C31.085 29.1484 31.1172 28.9876 31.278 29.1163C31.4388 29.2449 31.5675 29.5344 31.7283 29.5666C32.2108 29.7274 31.3745 29.0841 31.4067 28.9876C31.4067 28.8911 31.9535 29.4701 32.05 29.4701C32.2108 29.4701 32.2751 29.4701 31.9856 29.1163C32.05 29.0519 32.243 29.2771 32.3716 29.2771C32.4681 29.2771 32.5646 29.2128 32.3394 28.9555C32.6932 29.4058 32.5967 28.666 32.8219 28.7303C32.8219 28.7303 32.8219 28.7303 32.8541 28.7625C32.7254 28.6338 32.3394 28.2478 32.0821 28.0227C31.8891 27.8297 31.8892 27.894 31.7927 27.8297C31.7605 27.7976 31.4067 27.4116 31.5032 27.6046C31.5675 27.7332 31.6962 27.7976 31.6318 27.8297C31.5997 27.8619 31.5997 27.894 31.5675 27.9262C31.5353 27.9905 31.7926 28.28 31.857 28.4408C32.0178 28.859 31.3745 27.8297 31.3745 27.8619C31.3102 27.7975 31.5353 28.28 31.3745 28.1514C31.1815 28.0227 30.9886 27.7332 30.9242 27.8619C30.9242 27.894 30.9564 28.2157 31.0851 28.28C31.1172 28.3122 31.0851 28.087 31.1494 28.1514C31.278 28.3765 31.1494 28.5052 31.0529 28.473C30.9885 28.4408 30.9564 28.3765 30.9564 28.3122C30.9242 28.1514 30.8921 28.1835 30.7312 27.9905C30.7956 28.1514 30.9242 28.3765 31.0207 28.5695C30.9564 28.473 30.5383 27.9584 30.6026 28.087C30.6348 28.2157 30.7956 28.4408 30.7956 28.5373C30.7956 28.5695 30.6669 28.4408 30.6347 28.4408C30.4418 28.3443 31.0529 29.1163 30.5061 28.5052C30.2488 28.28 30.1201 28.2157 30.2488 28.5373C30.3774 28.8911 29.8628 28.2157 30.0236 28.5373C30.1845 28.8589 30.4739 29.3736 30.7312 29.6952C31.278 30.435 30.7956 29.1806 30.6991 28.9555Z" fill="#FFBC00"/>
<path d="M32.8217 28.7616C32.8217 28.7616 32.7896 28.7617 32.7896 28.7295C32.7896 28.7617 32.9182 28.8581 32.8217 28.7616Z" fill="#FFBC00"/>
<path d="M33.6256 25.9638C33.6578 25.8994 33.4005 25.61 33.304 25.6421C33.2718 25.7065 33.5613 26.0603 33.6256 25.9638Z" fill="#FFBC00"/>
<path d="M33.883 25.1602C33.7222 25.1923 33.9152 25.4175 33.9795 25.2888C33.9473 25.2567 33.9152 25.2245 33.883 25.1602Z" fill="#FFBC00"/>
<path d="M32.0176 27.8623C32.0819 27.9266 32.1784 28.0874 32.2428 28.1196C32.4357 28.2482 32.1141 27.8301 32.4679 28.2482C32.5966 28.4091 32.9504 28.6342 32.8539 28.4091C32.7896 28.2804 32.6287 28.0874 32.5322 27.9266C32.6609 28.0552 32.9504 28.409 33.0147 28.3769C33.079 28.3447 33.0147 28.0231 33.272 28.3126C33.1112 28.1517 32.9504 27.9588 32.9825 27.8623C33.0469 27.9266 33.4328 28.3769 33.4972 28.3126C33.4972 28.3126 33.272 27.8944 33.2399 27.8301C33.079 27.412 33.5615 28.0874 33.6258 28.0874C33.658 28.0874 33.5936 27.8301 33.5936 27.7658C33.5936 27.7014 33.4007 27.5084 33.3042 27.412C33.3685 27.3476 33.658 27.7336 33.7223 27.7979C33.7866 27.8301 33.851 27.7336 33.9474 27.7979C34.1404 27.9266 34.0761 27.8944 34.044 27.7336C34.0118 27.6371 34.0761 27.5728 34.1726 27.6371C34.2048 27.6371 34.5586 27.8623 34.4299 27.7014C34.3656 27.6371 34.1083 27.412 34.1083 27.3476C34.1083 27.2833 34.2691 27.412 34.3656 27.4763C34.7194 27.8301 34.3334 27.2511 34.2691 27.219C34.3334 27.219 34.5586 27.4441 34.6229 27.3476C34.6872 27.2512 34.4621 27.219 34.3977 27.0903C34.3013 26.9938 34.8159 27.219 34.8159 27.219C34.9124 27.2511 34.7194 27.026 34.7194 26.9295C34.6872 26.7365 34.6872 26.64 34.4942 26.3827C34.4299 26.2862 34.3012 26.0932 34.4299 26.1576C34.5907 26.2219 34.9445 26.4792 34.9767 26.4149C35.0089 26.3184 35.2019 26.4792 35.3305 26.5435C35.6843 26.6722 34.9767 25.9646 35.5556 26.2541C35.2983 26.0611 35.1053 25.8681 35.234 25.8359C35.3627 25.8038 35.7808 26.0611 35.813 26.0289C35.8451 25.9646 35.041 25.643 34.9767 25.5786C34.5907 25.3213 34.5264 25.1605 34.2691 24.9032C34.0439 24.7102 34.0118 24.9675 33.9796 24.9997C33.9475 25.1283 34.4299 25.257 34.5586 25.3856C34.4942 25.2891 34.3977 25.2248 34.2691 25.1283C34.4299 25.2248 34.5907 25.3535 34.6872 25.4821C34.8159 25.6429 34.5586 25.5143 34.4299 25.4178C34.2048 25.2891 33.8831 25.1283 34.2369 25.45C34.3656 25.5465 34.7516 25.8681 34.6229 25.9003C34.5264 25.9324 34.0761 25.4821 33.9474 25.3856C33.7545 25.257 33.7545 25.4178 33.7223 25.45C33.658 25.6108 33.4007 25.5465 33.9474 25.9968C33.7223 25.9003 34.0118 26.1576 33.9474 26.2219C33.9474 26.2541 33.658 26.0289 33.658 26.0611C33.6258 26.0932 34.3013 26.6722 33.9153 26.5435C33.851 26.5114 33.5293 26.3506 33.4328 26.2219C33.3363 26.0932 33.5937 26.2541 33.658 26.2541C33.7545 26.2541 33.658 26.1576 33.5615 26.0611C33.4007 25.9003 33.4328 25.9324 33.4972 25.8681C33.272 25.6751 33.079 25.7394 33.3042 25.9324C33.272 25.9967 33.0469 25.8681 33.0469 25.9646C33.0469 26.0611 33.1112 26.2541 33.3685 26.4149C33.4972 26.5114 33.658 26.5757 33.7223 26.6722C33.7866 26.7365 34.0118 27.1868 33.9153 27.0903C33.7545 26.9295 33.5615 26.7687 33.3685 26.64C33.1755 26.4792 33.0469 26.4149 32.9825 26.447C32.9182 26.4792 32.6931 26.3184 32.6287 26.3184C32.7252 26.2862 34.1726 27.9587 32.8539 26.6079C32.6287 26.3827 32.5001 26.3506 32.5966 26.5435C32.6287 26.5757 32.7252 26.7365 32.8539 26.8973C32.9182 26.9617 32.9504 27.0582 33.0147 27.0903C33.0469 27.1546 33.079 27.1868 33.079 27.1868C33.0469 27.219 32.4357 26.4792 32.3714 26.5435C32.5322 26.7044 33.1112 27.2511 33.079 27.3798C33.0469 27.5085 32.5644 26.8973 32.4358 26.833C32.3714 26.8008 32.3714 26.8973 32.3392 26.8973C32.3071 26.9295 32.2106 26.8008 32.1463 26.7687C32.1141 26.7687 32.1463 26.8973 32.2106 27.0582C32.2749 27.219 32.3392 27.3476 32.3392 27.3476C32.2749 27.2833 32.1784 27.0582 32.0498 27.026C31.9855 26.9938 32.0176 27.0903 32.0498 27.1546C32.0819 27.219 32.3714 27.7336 32.3392 27.7336C32.2428 27.7336 31.9211 27.3476 31.7925 27.2511C31.5995 27.1546 31.7603 27.412 31.889 27.5406C31.9533 27.8301 31.8889 27.7014 32.0176 27.8623Z" fill="#FFBC00"/>
<path d="M34.88 25.4818C35.073 25.6105 35.4268 25.7713 35.3303 25.6105C35.3303 25.6105 35.3303 25.6105 35.2981 25.5783L34.687 25.1602C34.7835 25.2245 34.88 25.321 34.9443 25.3853C34.88 25.2888 34.3653 25.128 34.88 25.4818Z" fill="#FFBC00"/>
<path d="M34.5907 24.6455C34.5264 24.5811 34.2369 24.3238 34.2048 24.3882C34.1726 24.4525 34.5586 24.7098 34.5907 24.6455Z" fill="#FFBC00"/>
<path d="M36.0701 25.9645L35.9093 25.7393C35.9093 25.6428 36.0701 25.7071 36.1023 25.6107C36.1023 25.5463 36.0701 25.4177 36.0058 25.3212C35.9736 25.2568 35.7806 25.1282 35.7806 25.1282C35.7806 25.1282 36.1666 25.289 36.1345 25.2569C36.038 25.1282 35.652 24.903 35.5233 24.8066L34.6228 24.2598C34.5906 24.3241 35.2339 24.7422 35.1374 24.7422C35.073 24.7422 34.4619 24.2276 34.4298 24.3241C34.9765 24.6457 34.5906 24.5171 34.8157 24.7101C35.0087 24.9031 35.5233 25.0639 35.3625 25.1925C35.266 25.289 35.0409 24.9674 34.9122 24.8709C34.7514 24.7101 34.3333 24.6136 34.1724 24.5171C34.1403 24.5814 34.8479 25.096 34.9765 25.1925C35.2017 25.3855 35.7806 25.7393 35.7163 25.868C35.7163 25.8036 35.7807 25.8358 36.0701 25.9645Z" fill="#FFBC00"/>
<path d="M36.4243 25.2239C36.4886 25.1596 36.5208 25.0309 36.3921 24.9023C36.2635 24.7736 35.974 24.6128 35.8775 24.5163C35.8132 24.452 36.6173 24.7736 36.6495 24.7415C36.7138 24.7415 36.6816 24.6128 36.6816 24.5485C36.6494 24.452 36.6816 24.3555 36.7459 24.2912C36.8103 24.1947 37.0676 24.2268 36.7459 23.9374C36.7138 23.9052 35.6524 23.3584 35.9418 23.3906C35.974 23.3906 36.2635 23.5835 36.3278 23.6157C36.4565 23.68 36.5851 23.68 36.6816 23.68C36.9711 23.68 37.0998 23.5192 37.1319 23.3906C37.1319 23.3262 37.2284 23.1976 37.0998 23.1011C36.9068 22.9724 36.9389 23.1333 36.9389 23.1654C36.9711 23.1976 36.553 22.9724 36.4886 22.9403C36.2635 22.8438 35.9418 22.7151 35.7167 22.6508C35.4915 22.5865 35.6524 22.7473 35.5237 22.683C35.2986 22.6186 35.2342 22.5865 35.2664 22.683C35.2986 22.8116 35.3629 22.9081 35.7489 23.0689C35.8775 23.1332 36.167 23.2297 36.0705 23.1333C35.9419 23.0368 36.36 23.2297 36.3921 23.2297C36.4565 23.2619 36.8424 23.5192 36.7138 23.5192C36.6816 23.5192 36.4243 23.3584 36.3921 23.3262C36.1992 23.2298 36.0062 23.1976 35.8454 23.1654C35.8454 23.1654 35.7167 23.1654 35.588 23.1654C35.4594 23.1654 35.3307 23.1333 35.2986 23.0368C35.2986 23.0046 35.4594 23.0368 35.3629 22.9403C35.2664 22.8759 34.9448 23.0368 35.4916 23.1976C35.6845 23.2941 35.5881 23.2941 35.6524 23.3584C35.7489 23.4871 35.7167 23.4227 35.8775 23.4871C35.8132 23.4549 35.3307 23.3906 35.2986 23.3584C35.0734 23.3262 35.1056 23.4549 35.0734 23.5514C34.7518 23.5835 35.588 23.8409 35.8454 24.0017C35.9097 24.0338 35.8775 24.066 35.8454 24.0982C35.8132 24.1303 35.6202 24.0017 35.588 23.9695C35.3629 23.8409 35.0734 23.7444 35.2021 23.9052C35.3307 24.066 35.6202 24.259 35.7489 24.452C35.7167 24.5485 35.974 24.6771 36.0062 24.8058C36.0062 24.8379 35.4594 24.3876 35.3951 24.3555C35.2342 24.259 34.9126 24.0338 34.7839 24.0338C34.591 24.0338 34.8804 24.259 35.1056 24.3555C35.2342 24.4198 35.3629 24.452 35.4916 24.5163C35.6202 24.5806 35.5559 24.6128 35.4916 24.6128C35.4594 24.838 36.3278 25.3204 36.4243 25.2239Z" fill="#FFBC00"/>
<path d="M37.0997 22.5867C37.3892 22.7153 36.6816 22.3615 37.0997 22.5867V22.5867Z" fill="#FFBC00"/>
<path d="M36.8746 22.6835C36.9389 22.6191 37.164 22.8121 37.2605 22.8121C37.4214 22.8121 37.2284 22.6513 37.0997 22.6191C36.9389 22.5227 35.9096 22.1045 36.0705 22.2975C35.8775 22.2332 35.7167 22.1688 35.781 22.1045C35.4915 22.008 35.7488 22.3618 35.8132 22.394C35.974 22.587 36.2956 22.8121 36.7781 22.9729C37.6465 23.2624 36.7459 22.78 36.8746 22.6835Z" fill="#FFBC00"/>
<path d="M37.775 21.075C37.9037 21.1072 37.9359 21.075 37.9359 21.0428V20.9785C37.8072 20.9785 37.7429 21.0107 37.775 21.075Z" fill="#FFBC00"/>
<path d="M37.0351 19.4999C37.0351 19.4999 37.003 19.4999 36.9708 19.4999C36.8743 19.4677 36.81 19.4677 36.81 19.4677C36.6492 19.4356 36.4883 19.4034 36.5205 19.4999C36.5205 19.5642 37.0995 19.5642 37.196 19.532C37.2281 19.532 37.0995 19.4999 37.0351 19.4999Z" fill="#FFBC00"/>
<path d="M37.0352 19.499C37.1317 19.499 36.8101 19.4668 36.8101 19.4668C36.8744 19.4668 36.9066 19.499 36.9709 19.499C36.9709 19.499 37.003 19.499 37.0352 19.499Z" fill="#FFBC00"/>
<path d="M36.0703 19.4989C36.0703 19.4345 36.1989 19.4024 36.1989 19.3381C35.8129 19.2416 36.0381 19.4345 36.0703 19.4989Z" fill="#FFBC00"/>
<path d="M35.9416 22.1047C35.9416 22.0082 36.4884 22.169 36.4562 22.0725C36.4241 22.0082 36.2633 21.9117 36.1668 21.8473C36.1668 21.8473 36.0703 21.6865 36.1668 21.7509C36.0381 21.6865 35.9095 21.6544 35.7486 21.6222C36.0703 21.6865 36.2633 21.7187 36.5527 21.7509C36.3598 21.6544 35.813 21.4292 35.9738 21.3649C36.1024 21.3327 36.5527 21.3971 36.6814 21.4935C36.7135 21.4935 36.8422 21.59 36.8422 21.5257C36.9065 21.5257 36.8101 21.4614 36.7779 21.4292C36.6814 21.3649 36.4884 21.2684 36.2954 21.2362C36.0381 21.2041 35.7808 21.1076 35.8451 21.0111C35.9095 20.9468 36.4241 21.0754 36.5527 21.0432C36.6171 21.0432 36.4562 20.9146 36.3597 20.8503C36.1989 20.8503 36.0703 20.8824 35.9416 20.8503C35.5878 20.7538 35.6521 20.6895 35.9738 20.7538C35.8451 20.7216 35.6843 20.6894 35.7486 20.6573C35.813 20.6251 36.1024 20.6573 36.2311 20.6573C36.6814 20.6894 37.1638 20.7538 37.6141 20.8181C37.2925 20.7859 36.9387 20.593 36.6492 20.593C36.5206 20.593 36.3597 20.6251 36.1668 20.593C35.9738 20.5608 36.2954 20.4965 36.3276 20.4965C36.5527 20.4643 37.196 20.5286 37.0674 20.4C37.003 20.3356 36.3276 20.4643 36.2954 20.4643C35.7486 20.5286 36.006 20.3678 35.9738 20.3035C35.9738 20.2391 35.7165 20.1427 35.8773 20.1105C35.9416 20.0783 36.2633 20.1105 36.3919 20.1105C36.5527 20.1105 37.196 20.1105 37.196 20.0462C37.196 20.014 36.3276 20.0462 36.3597 20.014C36.3597 20.014 36.5527 19.9818 36.4562 19.9497C36.3919 19.9175 36.1024 19.9497 35.9738 19.9497C35.4592 19.8854 36.0059 19.821 36.2633 19.821C36.0381 19.821 35.62 19.7567 36.0059 19.7245C36.3597 19.6924 37.0995 19.628 37.4855 19.6602C37.4855 19.6602 37.2603 19.5637 37.2282 19.5637C37.0352 19.4994 36.8422 19.4672 36.5849 19.435C36.0381 19.5315 36.7779 19.2742 36.7779 19.2742C36.7779 19.2742 36.6171 19.3064 36.4884 19.3064C36.3597 19.3064 36.2311 19.3064 36.3597 19.2421C36.4241 19.2099 36.1024 19.1456 36.1024 19.1134C36.0703 19.0491 36.4241 19.0169 36.3919 18.9848C36.4241 19.0491 35.3627 19.0812 35.6843 18.9526C35.8773 18.8561 36.5527 18.7918 36.8422 18.7274C36.6814 18.7274 36.5206 18.6953 36.3597 18.6953C36.2632 18.6953 36.0059 18.6631 35.8773 18.6953C35.8451 18.6953 35.9416 18.7596 35.8773 18.7918C35.6843 18.8883 35.7165 18.5988 35.7165 18.5988C35.7165 18.5666 35.5878 18.438 35.8773 18.4058C36.81 18.3415 35.4913 18.2128 35.7165 18.0842C35.8451 18.0198 36.3919 17.9233 36.5849 17.8912C36.9065 17.8268 37.4533 17.666 37.6785 17.7625C37.8715 17.8268 37.7106 17.859 37.4212 17.9233C37.196 17.9555 37.0352 18.1806 36.9709 18.1485C37.196 18.1806 37.5498 18.1163 37.8071 18.1163C37.6785 18.1485 36.4562 18.3736 36.8422 18.3736C37.1638 18.3736 37.5498 18.3093 37.775 18.3736C37.9358 18.438 38.1609 18.6631 37.7106 18.6631C38.0966 18.5988 37.9036 18.7596 37.7106 18.8239C37.6463 18.8561 37.1638 18.9848 37.4855 18.9848C37.7428 18.9848 38.0644 18.9847 37.9036 19.1134C37.7106 19.2421 37.9679 19.1777 37.9679 19.3064C37.582 19.4672 38.0001 19.821 38.0001 20.014C38.0001 20.0783 38.0001 20.1748 37.8393 20.207C37.775 20.207 37.4212 20.1748 37.4212 20.1748C37.4212 20.207 37.775 20.3035 37.8715 20.3678C38.0001 20.4643 37.8393 20.5286 37.7106 20.593C37.196 20.6251 37.7106 20.6573 37.8393 20.7216C37.9036 20.7538 37.9036 20.8181 37.8715 20.8503C37.8393 20.8824 37.6463 20.8181 37.6141 20.8181C37.582 20.8181 37.9358 21.0111 37.9036 21.0432C37.8071 21.1397 37.389 21.1719 37.196 21.2362C36.8744 21.3327 37.6141 21.3649 37.775 21.3971C38.1288 21.4614 37.582 21.5257 37.8071 21.6222C37.2925 21.5257 37.8393 21.9438 37.6463 21.9117C37.389 21.8795 37.1638 21.783 36.9709 21.8473L36.6814 21.9117C36.9065 21.9438 37.1639 21.976 37.4212 22.0082C37.4855 22.0082 37.7106 22.0082 37.7428 22.0403C37.775 22.1047 37.7106 22.1047 37.582 22.0725C37.582 22.1047 37.6463 22.2333 37.5177 22.2333C37.2925 22.2012 37.2603 22.2011 37.2603 22.2655C37.3247 22.3298 37.4533 22.4263 37.2603 22.362C37.3247 22.555 37.2282 22.3941 37.582 22.555C37.4855 22.5228 37.4212 22.8444 36.9387 22.555C36.6814 22.4906 36.5206 22.4906 36.3597 22.3941L36.0703 22.2976C36.1024 22.1368 36.0703 22.1368 35.9416 22.1047ZM37.003 21.0111C37.0995 20.9468 36.81 20.8824 36.6492 20.8503C36.5527 20.8503 36.4884 20.8503 36.3919 20.8503C36.6171 20.9146 36.81 21.0433 37.003 21.0111Z" fill="#FFBC00"/>
<path d="M36.7458 16.9583C36.9067 16.9261 37.0675 16.8618 37.0997 16.7975C37.0997 16.7332 36.4885 17.0226 36.7458 16.9583Z" fill="#FFBC00"/>
<path d="M37.3891 17.1512C37.2605 17.119 37.0997 17.1834 36.971 17.1512C36.7137 17.0869 37.0675 17.0869 37.2283 17.0225C37.3248 16.9904 37.7751 16.7331 37.4856 16.7974C37.2605 16.8296 36.9388 16.9582 36.7458 17.0225C36.2955 17.312 36.4242 17.0225 36.4242 17.0225C36.3277 17.0869 36.1347 17.119 35.9739 17.1834C35.9096 17.1834 35.8774 17.1834 35.8453 17.1834C35.6844 17.2155 35.4593 17.2477 35.395 17.312C35.2663 17.4085 35.5236 17.3764 35.6844 17.312C35.7488 17.312 36.2955 17.1512 36.1026 17.2477C35.9417 17.3442 35.6523 17.3764 35.5236 17.4728C35.395 17.5693 35.5236 17.5693 35.5879 17.6015C35.7488 17.6337 35.7166 17.7302 35.7809 17.7945C35.8774 17.891 36.5529 17.7302 36.8423 17.6337C37.2283 17.5372 37.8073 17.2155 37.3891 17.1512Z" fill="#FFBC00"/>
<path d="M35.8454 17.1828C35.9098 17.1828 35.9419 17.1828 35.9741 17.1828C36.1028 17.1185 35.6203 17.215 35.8454 17.1828Z" fill="#FFBC00"/>
<path d="M35.459 15.9609C35.2982 15.9931 34.7835 16.3147 34.9765 16.2504C35.1052 16.2183 35.4912 15.9931 35.459 15.9609Z" fill="#FFBC00"/>
<path d="M35.5236 15.6071C35.2984 15.6393 34.7838 16.0574 34.9124 16.0574C35.0411 16.0574 35.8452 15.5106 35.5236 15.6071Z" fill="#FFBC00"/>
<path d="M35.5234 15.6077C35.6842 15.5434 35.3304 15.6077 35.5234 15.6077V15.6077Z" fill="#FFBC00"/>
<path d="M31.9532 13.4203C31.7603 13.7098 31.7602 14.0636 31.9211 13.7098C32.0497 13.4846 32.1141 13.1952 31.9532 13.4203Z" fill="#FFBC00"/>
<path d="M30.4093 11.1357H30.345C30.2485 11.3287 30.345 11.6504 30.4093 11.1357Z" fill="#FFBC00"/>
<path d="M37.4535 16.5724C37.357 16.5403 36.9388 16.5081 37.357 16.4116C37.6465 16.3473 37.4856 16.1865 37.4535 16.1543C37.3891 15.9935 37.2926 15.8327 37.0675 15.7683C36.8423 15.704 37.0997 15.4145 36.971 15.318C36.8745 15.2215 36.1991 15.5753 36.585 15.2537C36.8745 15.0929 36.4242 14.9964 36.5207 14.9642C36.6494 14.8999 36.6172 14.8034 36.5529 14.7069C36.4886 14.6104 36.3599 14.5461 36.3277 14.5139C36.1991 14.4174 36.2956 14.2566 36.1669 14.1601C36.1669 14.1923 36.1026 14.3531 35.9739 14.3853C35.8453 14.4496 35.8453 14.2888 35.8131 14.2566C35.7488 14.2245 35.6844 14.3531 35.6201 14.2888C35.588 14.2566 35.6523 14.128 35.7809 14.0315L35.8774 14.0958C36.0382 13.8385 35.9739 13.7742 35.8131 13.7742C35.6523 13.7742 35.8774 13.5812 35.7809 13.5169C35.6523 13.4204 35.395 13.6455 35.2341 13.6777C35.0733 13.7098 35.3306 13.3882 35.3628 13.2595C35.4271 12.9379 34.9768 13.1631 34.9125 12.9701C34.8482 12.8736 34.8803 12.8414 34.7195 13.0987C34.623 13.2595 34.5909 12.9379 34.5587 12.9057C34.3979 12.8092 34.3336 12.9379 34.5587 12.5198C34.623 12.3911 34.3014 12.5841 34.2692 12.6484C34.0441 12.8736 34.0441 13.0344 33.9154 12.9701C33.8833 12.8093 33.7868 13.0344 33.7225 13.2274C33.6581 13.356 33.24 14.0958 33.1757 14.0636C33.1113 14.0315 33.4973 13.4204 33.5616 13.3239C33.626 13.2274 33.8833 12.8092 33.9154 12.8414C34.0762 12.6163 34.3014 12.1338 33.9798 12.5519C33.9798 12.3911 34.0763 12.2625 33.9798 12.2303C33.8189 12.359 33.7224 12.3268 33.6581 12.2946C33.5295 12.2303 33.5295 12.0373 33.3365 12.166C33.2722 12.1981 33.1757 12.2625 33.1113 12.3911C33.2078 12.166 33.2721 11.8765 33.2078 11.8122C33.2078 11.78 32.9183 12.5198 32.8862 12.6163C33.0148 12.2946 33.1435 11.9408 33.0148 11.8443C32.9183 11.8122 32.7575 11.6835 32.661 11.9408C32.6932 11.7478 32.661 11.6514 32.5967 11.587C32.5002 11.5227 32.5002 11.6513 32.4359 11.8122C32.4359 11.8122 32.4037 11.4905 32.3716 11.4905C32.3072 11.4584 32.1142 11.8765 32.0821 11.973C32.0499 12.0373 31.9213 12.2625 31.9856 12.2946C32.0499 12.2946 32.0178 12.4554 32.0499 12.4554C31.9534 12.4554 31.8891 12.4233 31.8891 12.1981C31.8891 12.0051 32.0177 11.78 32.0177 11.6513C32.0177 11.4584 31.7926 11.973 31.7604 12.0373C31.6961 12.166 31.6961 11.78 31.6961 11.7157C31.6639 11.394 31.5031 11.3297 31.3423 11.78C31.3101 11.8443 31.085 11.6514 31.2136 11.4262C31.1493 11.5227 31.1172 11.78 31.0528 11.78C30.9885 11.78 30.9885 11.587 30.9242 11.4905C30.8599 11.3619 30.8277 11.9408 30.7955 12.0373C30.8277 11.9087 30.7312 11.9087 30.7634 11.6835C30.7634 11.6192 30.8277 11.201 30.7955 11.2332C30.7634 11.2654 30.7312 11.3297 30.7312 11.394H30.6347C30.6347 11.3619 30.6025 11.394 30.5704 11.4262C30.4739 11.6192 30.3774 11.9087 30.3131 12.166C30.2809 12.3268 30.2809 12.5841 30.2166 12.5841C30.2487 12.3268 30.2809 12.0695 30.3131 11.8443C30.3131 11.6513 30.2809 11.7478 30.2487 11.6513C30.2166 11.5548 30.3131 11.2975 30.2487 11.2654C30.2166 11.2654 30.1522 11.2332 30.1201 11.2975C30.0879 11.4262 30.1522 11.7478 30.1201 11.8443C30.0558 11.973 30.0236 11.78 30.0236 11.6835C29.9914 11.2975 30.0879 11.2332 29.8949 11.2654C29.6698 11.2975 29.702 11.8443 29.702 12.3268C29.7341 12.5841 29.7019 12.9379 29.6698 13.2274C29.6054 13.8385 29.7984 12.9701 29.8306 12.9701C29.8306 12.9701 29.7984 13.4525 29.7984 13.5169C29.8628 13.5169 29.8628 13.2274 29.9271 13.1309C30.0236 13.0022 30.1201 13.0666 30.2166 12.9701C30.2487 12.9379 30.4096 12.7449 30.3774 13.0344C30.3774 13.1309 30.3131 13.4847 30.2809 13.4847C30.3774 13.4847 30.506 13.549 30.6025 13.4204C30.699 13.3239 30.7634 12.7771 30.7955 12.5519C30.7634 12.8093 30.8598 12.6484 30.892 12.6484C30.9242 12.6484 30.8598 13.0022 30.8598 13.0022C30.8277 13.163 30.7634 13.9028 30.9242 13.5169C31.0207 13.2917 30.9885 13.0022 31.0207 12.7771C31.0528 12.5841 31.2136 12.4554 31.2136 12.5841C31.2136 12.6163 31.1172 12.8736 31.1493 12.9057C31.1815 12.9379 31.278 12.7449 31.278 12.9379C31.278 13.0666 31.278 13.1631 31.2458 13.2917C31.3101 13.0666 31.5353 11.7478 31.6639 12.1338C31.6961 12.2303 31.278 13.6133 31.3423 13.5812C31.4388 13.5168 31.5996 12.9057 31.6639 12.7449C31.6318 12.8092 31.5996 13.356 31.5996 13.3882C31.6318 13.6455 31.6961 12.8736 31.6639 12.9701C31.6961 12.8414 31.7926 12.9057 31.8248 12.8414C31.8891 12.6484 31.8891 12.7128 31.9534 12.7128C31.9534 12.8414 31.7926 13.4847 31.7283 13.2917C31.664 13.5169 31.6318 13.9672 31.7604 13.7098C31.8569 13.5169 31.9856 12.9057 32.0821 12.8414C32.0821 12.8414 32.0821 12.8736 32.0499 12.9379C32.0178 13.0022 31.9856 13.0987 31.9856 13.163C31.9213 13.3239 31.8891 13.5169 31.9213 13.5169C32.0177 13.5812 32.2107 12.9701 32.2751 12.7449C32.3394 12.7449 32.2107 13.0022 32.2751 13.0344C32.3394 13.0666 32.3716 13.0666 32.3716 13.163C32.4037 13.2595 32.4037 13.4204 32.3716 13.5812C32.3394 13.7098 32.2751 13.8707 32.3394 13.8385C32.3715 13.8385 32.468 13.742 32.468 13.8385C32.4359 13.935 32.4359 13.9672 32.468 13.935C32.5324 13.935 32.6289 13.8063 32.6932 13.742C32.7575 13.6777 32.9827 13.4847 32.9505 13.6134C32.9505 13.6455 32.7897 13.935 32.7897 13.935C32.8219 13.9028 33.1113 13.4525 33.1435 13.3882C33.1113 13.549 33.3365 13.2917 33.3365 13.356C33.3043 13.5169 33.1113 13.8385 33.0148 14.0315C33.0792 13.9028 33.1113 13.8385 33.2078 13.742C33.047 13.9028 33.1757 14.1601 33.1757 14.1923C33.2078 14.2566 33.2078 14.5139 33.3686 14.128C33.6259 13.7098 33.5295 13.9993 33.8189 13.6455C33.8511 13.5812 34.0441 13.3882 34.0119 13.5169C33.9798 13.6134 33.8511 13.7098 33.8189 13.7742C33.7224 13.9672 34.0441 13.6777 33.9154 13.9028C33.8189 14.0636 33.6903 14.1923 33.7225 14.2566C33.7546 14.321 33.5616 14.5139 33.6259 14.5461C33.7224 14.4818 33.7868 14.4496 33.7225 14.5783C33.8511 14.4175 34.3336 13.8385 34.3336 13.7098C34.3336 13.549 34.7195 13.0344 34.623 13.356C34.3336 13.9028 34.8804 13.1309 34.9447 13.2595C34.9768 13.3239 34.8482 13.4525 34.7517 13.5812C34.5909 13.7742 34.623 13.5812 34.5266 13.6777C34.4944 13.7098 34.0119 14.4818 34.0119 14.4496C34.0441 14.4496 34.4622 13.9993 34.3657 14.1923C34.3014 14.2888 34.2371 14.3853 34.2049 14.4818C34.3336 14.321 34.4944 14.3853 34.3979 14.4818C34.2692 14.6104 34.0441 14.8356 34.0762 14.8999C34.2371 14.7069 34.1727 14.8999 34.2692 14.8034C34.3336 14.7391 34.4622 14.6104 34.5266 14.5461C34.5266 14.5139 34.5265 14.4818 34.5587 14.4496C34.7195 14.2888 35.202 13.9993 35.3307 13.935C35.202 14.0636 35.009 14.2888 34.9447 14.3853C35.009 14.4496 34.7839 14.6104 34.816 14.6748C34.8482 14.7391 35.6201 14.0315 35.7166 14.1923C35.5879 14.128 35.009 14.7069 34.816 14.8999C34.5587 15.1572 34.7839 15.0286 34.9768 14.8677C34.816 15.0286 34.2049 15.5432 34.6552 15.2537C35.3628 14.7712 34.5587 15.3824 34.7839 15.318C35.0733 15.2215 35.2663 14.9964 35.1698 14.9321C35.1055 14.8677 35.6844 14.5461 35.7809 14.4818C35.6523 14.6426 35.5558 14.8034 35.395 14.9321C35.2663 15.0607 35.0733 15.1894 34.9447 15.318C34.8482 15.4145 34.7839 15.5432 34.6874 15.6075L35.1377 15.2537C35.1377 15.2537 34.816 15.5754 34.7839 15.6075C34.6552 15.7362 34.8803 15.6397 34.9768 15.6075C34.9125 15.6719 34.8482 15.9292 34.8482 15.9292C35.202 15.7683 35.5236 15.4467 35.8131 15.2537C35.9096 15.1894 35.9418 15.2537 35.9418 15.2859C35.9418 15.318 35.7809 15.4145 35.7488 15.4467C35.588 15.6397 36.0704 15.3824 36.1669 15.3502C36.1991 15.3502 36.3277 15.4145 36.2956 15.4467C36.2312 15.4789 35.9418 15.4789 35.7488 15.6075C35.6523 15.6719 35.1377 16.0257 35.1377 16.0257C35.2341 15.9935 35.9418 15.6718 36.0704 15.5753C36.2312 15.5432 36.1669 15.704 35.9739 15.7683C35.7809 15.8648 35.202 16.1865 35.3307 16.2186C35.395 16.2508 35.5236 16.2186 35.4593 16.283C35.4271 16.3151 35.2663 16.3794 35.2663 16.3794C35.202 16.4759 35.8131 16.283 35.9418 16.283C36.0061 16.283 35.7488 16.5081 35.7166 16.5403C35.7488 16.5724 35.4271 16.7654 35.8131 16.6368C36.0704 16.5403 36.3599 16.4116 36.4242 16.5081C36.1026 16.6368 35.2985 16.8941 35.6201 16.8941C35.6844 16.9906 36.6172 16.5403 36.8423 16.5403C36.9067 16.5403 35.9739 16.9262 35.9096 16.9262C35.9739 16.9584 36.8424 16.6689 37.0353 16.6368C37.1318 16.7332 37.8073 16.6689 37.4535 16.5724Z" fill="#FFBC00"/>
<path d="M27.4823 12.9697C27.4501 13.0662 27.4501 13.42 27.5145 13.42C27.5788 13.42 27.5788 12.9697 27.4823 12.9697Z" fill="#FFBC00"/>
<path d="M26.582 11.2005C26.6141 11.0397 26.5176 11.3935 26.582 11.2005V11.2005Z" fill="#FFBC00"/>
<path d="M29.4446 12.8732C29.5089 12.8732 29.5732 12.2299 29.5411 12.1977C29.5411 12.1977 29.3159 12.3264 29.4446 12.0048C29.4767 11.9083 29.5089 12.0369 29.5411 11.8761C29.6054 11.5866 29.5732 11.2328 29.5089 11.1042C29.4124 10.9434 29.2516 10.9434 29.1551 11.1042C29.0908 11.1685 29.0586 11.8439 28.9621 11.5545C28.9299 11.458 28.9621 11.2007 28.9621 11.072C28.9299 10.9433 28.8334 11.0077 28.8013 11.0077C28.7048 11.0398 28.7048 11.2328 28.6405 11.3293C28.5761 11.4258 28.544 11.2972 28.4796 11.2328C28.4153 11.1363 28.0615 10.8469 28.0615 11.2972C28.0615 11.3615 28.0615 11.9083 28.0294 11.7153C27.965 11.5545 27.9972 11.3293 27.965 11.1685C27.9972 11.265 27.9007 11.6188 27.8042 11.1685C27.772 10.9755 27.772 11.3293 27.7077 11.3293C27.6112 11.3615 27.5791 11.072 27.4826 11.0077C27.4504 10.9755 27.4504 11.3293 27.3861 11.2328C27.2896 11.1042 27.2574 10.9434 27.1288 10.9434C27.0644 10.9434 27.0323 11.2007 27.0323 11.2007C26.9679 11.2328 26.8714 11.1042 26.775 11.1042C26.7106 11.1363 26.6141 10.9433 26.582 11.1685C26.5498 11.2007 26.5498 11.2972 26.5498 11.3936C26.5498 11.4258 26.6141 11.2972 26.6463 11.3936C26.7106 11.5223 26.7428 11.651 26.775 11.8118C26.8393 12.0691 26.9358 12.3907 26.968 12.6802C27.0001 12.8732 27.0323 13.0662 27.0966 13.1627C27.1288 13.2592 27.1288 12.841 27.1288 12.7767C27.1609 12.4872 27.2253 12.9697 27.2574 12.9054C27.2574 12.8732 27.2896 12.7124 27.2574 12.648C27.2896 12.7767 27.3539 13.034 27.4182 13.034C27.4182 13.034 27.4826 12.1334 27.5147 12.0369C27.6434 11.6831 27.5791 12.3907 27.6112 12.3586C27.6112 12.3586 27.6434 12.0691 27.7077 12.0048C27.7399 11.9726 27.7721 12.1334 27.7721 12.1977C27.8042 12.3907 27.8364 12.6159 27.8685 12.8089C27.8685 12.7445 27.9972 12.1656 28.0294 12.1977C28.1259 12.4551 27.9007 12.9375 27.965 13.0662C27.9972 13.227 28.2223 12.5516 28.2545 13.0662V12.3907C28.351 12.3586 28.2545 12.9375 28.3832 12.7445C28.4475 12.648 28.4796 12.6159 28.4796 12.3586C28.5118 12.2942 28.6083 12.3264 28.6405 12.3264C28.4796 12.3586 28.4796 13.0018 28.6405 12.6802C28.6726 12.5837 28.7048 12.8732 28.737 12.9054C28.8013 12.9697 28.8656 12.7767 28.9299 12.7767C28.9621 12.7767 29.0908 13.2913 29.1229 12.9054C29.1229 12.7767 29.1229 12.4229 29.1551 12.3586C29.1873 12.2942 29.2516 12.4872 29.2837 12.3264C29.2837 12.2942 29.2516 12.1977 29.2837 12.1334C29.3159 12.0691 29.4124 12.6802 29.4124 12.8089C29.3481 12.8089 29.2516 12.4551 29.2194 13.0018C29.2194 13.034 29.3802 13.1305 29.4124 13.1305C29.4767 13.1305 29.5411 13.034 29.5089 13.2592C29.5411 13.2592 29.5411 13.2592 29.6054 13.1627C29.6375 13.034 29.5089 12.841 29.4446 12.8732Z" fill="#FFBC00"/>
<path d="M24.009 13.5809C23.9768 13.4523 23.9768 13.6131 24.009 13.5809V13.5809Z" fill="#FFBC00"/>
<path d="M26.7429 13.0656C26.7107 13.0656 26.4534 12.6796 26.582 12.6475C26.6785 12.9048 26.6464 11.8434 26.7107 12.165C26.7428 12.358 26.775 12.5831 26.8393 12.551C26.8715 12.551 26.9037 12.5188 26.9037 12.4223C26.8394 11.9398 26.6464 11.972 26.5499 11.7469C26.4855 11.586 26.4855 11.1357 26.389 11.1357C26.3247 11.1357 26.2604 11.1679 26.1961 11.2001C26.1317 11.2644 26.0674 11.4896 26.0031 11.3609C25.9388 11.2644 25.9387 11.2322 25.9066 11.4574C25.9387 11.4574 25.7779 11.5539 25.8101 11.4252C25.8101 11.4574 25.8101 11.7469 25.8101 11.7469C25.7779 11.6825 25.7779 11.3287 25.7136 11.2644C25.6814 11.2322 25.6171 11.4574 25.6171 11.4895C25.585 11.6182 25.6171 12.0042 25.7136 11.8755C25.7779 12.1972 25.6493 11.8755 25.6493 12.0363C25.6493 12.1328 25.7779 12.551 25.7779 12.5831C25.6814 12.6153 25.6171 11.972 25.5528 11.8112C25.4885 11.6825 25.4241 11.5539 25.3276 11.4574C25.2955 11.3931 24.9417 11.2966 24.9417 11.2644C24.9417 11.2966 25.1025 11.7147 25.1025 11.779C25.006 11.8112 24.9417 11.4252 24.8773 11.3931C24.7809 11.3609 24.7809 11.586 24.7487 11.7469C24.7487 11.9077 24.6844 11.8755 24.6522 11.6504C24.5879 11.4574 24.4914 11.5539 24.4592 11.586C24.427 11.6182 24.2984 11.6182 24.2984 11.7469C24.2984 11.8112 24.3949 12.165 24.2984 12.0042C24.0732 11.586 24.0411 11.6504 24.2341 12.1972C24.1697 12.2293 24.1054 11.8755 24.0411 11.779C24.0089 11.8112 23.8159 11.6182 23.8159 11.6825C23.7838 11.7469 24.1376 12.3901 23.8803 12.1972C23.7516 12.1007 23.7194 11.8112 23.5908 11.9077C23.5265 11.9399 23.6551 12.2293 23.6229 12.4223C23.6229 12.4545 23.7194 12.8726 23.7516 12.9048C23.8159 12.9369 24.0089 12.9691 24.0733 13.2586C24.1376 13.4837 23.8803 13.3229 24.0089 13.6124C23.9768 13.6445 24.1054 13.934 24.1697 14.127C24.1376 13.9983 24.0733 13.9018 24.0733 13.8054C24.1054 13.9983 24.3306 14.1592 24.3306 14.127C24.3949 14.0305 24.3627 13.8053 24.3627 13.5802C24.3627 13.3872 24.2019 12.9691 24.3627 13.1942C24.5235 13.4837 24.5235 13.3229 24.4592 13.0656C24.5235 13.2264 24.6522 13.3872 24.6844 13.3551C24.62 13.3551 24.62 13.6767 24.7165 13.6767C24.7809 13.6767 24.8452 13.7732 24.9095 13.741C24.9417 13.7089 24.6522 12.7118 24.8452 12.9691C25.006 13.1942 25.1025 14.0627 25.2311 13.7089C25.2633 13.6124 25.1668 13.3551 25.1025 13.1621C25.0382 12.9369 25.1025 12.9048 25.006 12.6796C25.0703 12.6474 25.1668 13.1299 25.199 13.2586C25.2312 13.4515 25.2633 13.6445 25.3276 13.8054C25.3598 13.934 25.392 13.7732 25.3598 13.6767C25.2955 13.4194 25.1347 13.0977 25.199 12.9048C25.2312 12.8404 25.2955 12.9048 25.3598 13.0334C25.2955 13.0656 25.3598 13.548 25.4241 13.5802C25.4241 13.5802 25.4563 13.3872 25.4885 13.548C25.5528 13.7089 25.5206 13.6445 25.5849 13.6124C25.6493 13.5802 25.6493 13.8054 25.7136 13.7732C25.7458 13.7732 26.0352 13.3872 25.9709 13.2264C26.0031 13.2907 26.0031 13.4194 26.0352 13.4837C26.0674 13.5802 26.1317 13.5159 26.1639 13.5159C26.2282 13.4837 26.3247 13.6445 26.389 13.5802C26.4212 13.548 26.389 13.0656 26.4534 13.2264C26.4855 13.3229 26.6142 13.6124 26.582 13.3551C26.6464 13.6124 26.8072 13.3872 26.8715 13.4837C26.968 13.6445 26.968 12.9048 26.8715 12.7118C26.968 12.8083 26.775 13.0656 26.7429 13.0656Z" fill="#FFBC00"/>
<path d="M24.234 14.2243C24.234 14.1922 24.2018 14.16 24.1697 14.0957C24.2018 14.16 24.234 14.1922 24.234 14.2243Z" fill="#FFBC00"/>
<path d="M23.1725 13.8704L23.1404 13.9026C23.2047 13.9991 23.269 14.0312 23.269 13.9669C23.2047 13.8382 23.2047 13.8382 23.1725 13.8704Z" fill="#FFBC00"/>
<path d="M22.9473 14.2565C23.2689 14.8355 23.0438 14.1922 22.9473 14.2565V14.2565Z" fill="#FFBC00"/>
<path d="M23.269 11.9404C23.1725 11.9404 23.1082 11.9404 23.0439 12.0691C23.0117 12.1013 23.0439 12.3907 22.9152 12.1656C22.9474 12.2942 22.8509 12.455 22.8187 12.3586C22.7866 12.2942 22.8187 12.1977 22.8509 12.1977C22.6901 12.1012 22.5936 12.2621 22.4971 12.2942C22.4006 12.3586 22.1755 12.3586 22.3363 12.7445C22.3684 12.8089 22.2076 12.648 22.1755 12.5516C22.2719 12.9697 21.8538 12.5837 21.7895 12.6802C21.7573 12.7445 22.2076 13.5165 22.3684 13.8381C22.3684 13.8381 22.3684 13.8381 22.4328 13.9346C22.4971 14.0954 22.6257 14.3206 22.7544 14.4814C22.7866 14.4492 22.6258 14.1919 22.6258 14.1276C22.5936 13.9346 22.7866 14.2884 22.8831 14.3527C22.9474 14.4171 22.8187 13.9989 22.7866 13.9346C22.7544 13.7738 22.8509 13.8703 22.8831 13.8059C22.8831 13.8059 22.5293 13.0983 22.7222 13.3235C22.7866 13.42 23.1082 13.9346 23.0439 13.9668C23.269 14.4814 23.3977 14.6744 23.462 14.4492C23.462 14.4171 23.655 14.2241 23.5907 14.0954C23.462 13.8703 23.4299 14.0632 23.3655 14.0632C23.2369 14.0632 23.1725 13.9346 23.1082 13.7094C23.0761 13.5808 22.8187 13.4843 22.7866 13.3235C22.7866 13.2591 22.9796 13.42 22.9796 13.42C23.0439 13.4521 23.0439 13.3235 23.076 13.3235C23.1082 13.3235 23.2369 13.613 23.3012 13.613C23.3334 13.613 23.3012 13.4843 23.3655 13.5486C23.4299 13.5808 23.7837 14.0954 23.7837 14.0632C23.7837 14.0632 23.655 13.7738 23.655 13.7416C23.5907 13.5808 23.655 13.5486 23.5907 13.3878C23.5585 13.2592 23.4299 12.8732 23.4299 12.8089C23.4299 12.7124 23.5907 13.0018 23.5907 13.0018C23.5907 12.9697 23.3977 12.5837 23.3655 12.4872C23.3012 12.3586 23.3012 12.2621 23.2369 12.1334C23.3334 12.3907 23.462 12.648 23.5907 12.841C23.5907 12.841 23.655 12.9054 23.6872 12.9697C23.7515 13.034 23.7837 13.1305 23.7515 13.1948C23.7193 13.2592 23.655 13.0983 23.655 13.227C23.655 13.3235 23.6872 13.4843 23.7193 13.613C23.7193 13.6773 23.9766 14.3527 24.0088 14.3206C24.041 14.2884 23.8158 13.7416 23.7837 13.6451C23.848 13.7416 24.1375 14.2241 24.1696 14.1919C24.2018 14.1597 23.9445 13.613 23.9123 13.5486C23.8802 13.5808 23.8158 13.1948 23.7837 13.0983C23.6872 12.841 23.3977 11.9404 23.269 11.9404Z" fill="#FFBC00"/>
<path d="M22.4008 13.9344C22.4008 13.9022 22.3686 13.8701 22.3364 13.8379C22.3686 13.8701 22.4651 14.063 22.4008 13.9344Z" fill="#FFBC00"/>
<path d="M22.111 13.4198C21.9502 13.3877 21.9502 13.3233 21.7251 13.0017C21.5642 12.7765 21.5321 12.9374 21.4999 13.0017C21.4034 13.1303 21.1461 13.3233 21.5642 13.8058C21.4999 13.9023 21.3712 13.5485 21.2426 13.4842C21.1783 13.5806 21.5321 14.031 21.6929 14.1596C21.8859 14.3848 22.111 14.4491 21.8216 14.0953C21.918 14.2239 22.69 15.028 22.6257 14.8672C22.3683 14.5134 21.7894 13.7736 21.9502 13.6128C22.0145 13.7093 22.111 13.838 22.1754 13.9345C22.304 14.1596 22.4648 14.4169 22.6257 14.6421C22.883 14.9959 22.4005 14.1596 22.2075 13.9666C22.3362 14.0631 22.5935 14.3204 22.4648 14.0953C22.3683 13.9345 22.2397 13.7736 22.2075 13.6128C22.1753 13.645 22.1432 13.4198 22.111 13.4198Z" fill="#FFBC00"/>
<path d="M22.2078 15.1256C22.4008 15.3186 22.3043 15.1256 22.1435 14.9326L22.1113 14.9648C22.1435 14.997 22.1757 15.0613 22.2078 15.1256Z" fill="#FFBC00"/>
</svg>
