<svg width="24" height="24" viewBox="0 0 24 24" fill="none" xmlns="http://www.w3.org/2000/svg">
<g clip-path="url(#clip0_906_3694)">
<path d="M19.0598 8.5532C18.9489 8.63971 16.9922 9.74889 16.9922 12.2152C16.9922 15.068 19.4821 16.0772 19.5566 16.1022C19.5451 16.1637 19.161 17.4843 18.2438 18.83C17.4259 20.0141 16.5718 21.1963 15.2724 21.1963C13.973 21.1963 13.6386 20.437 12.1385 20.437C10.6767 20.437 10.1569 21.2213 8.96833 21.2213C7.77975 21.2213 6.95042 20.1256 5.99689 18.78C4.89239 17.1998 4 14.745 4 12.4152C4 8.67816 6.41537 6.69624 8.79252 6.69624C10.0556 6.69624 11.1085 7.53053 11.9016 7.53053C12.6564 7.53053 13.8335 6.64626 15.2705 6.64626C15.8151 6.64626 17.7718 6.69624 19.0598 8.5532ZM14.5883 5.06419C15.1826 4.35485 15.603 3.37062 15.603 2.38639C15.603 2.2499 15.5915 2.11149 15.5666 2C14.5997 2.03652 13.4494 2.64782 12.7557 3.45712C12.2111 4.07996 11.7028 5.06419 11.7028 6.06187C11.7028 6.21181 11.7277 6.36175 11.7391 6.40981C11.8003 6.42135 11.8996 6.4348 11.999 6.4348C12.8666 6.4348 13.9577 5.85042 14.5883 5.06419Z" fill="white"/>
</g>
<defs>
<clipPath id="clip0_906_3694">
<rect width="15.5547" height="19.2232" fill="white" transform="translate(4 2)"/>
</clipPath>
</defs>
</svg>
