<svg width="24" height="24" viewBox="0 0 24 24" fill="none" xmlns="http://www.w3.org/2000/svg">
<path d="M19.6342 18.6753H18.3866C17.6838 20.8404 15.6556 22.4094 13.2693 22.4094H8.38114C5.41401 22.4094 2.99982 19.9836 2.99982 17.0018V10.8617C2.99982 10.3814 3.38905 9.99219 3.86931 9.99219H17.7811C18.2614 9.99219 18.6506 10.3814 18.6506 10.8617V12.2153H19.6342C21.4153 12.2153 22.8643 13.6642 22.8643 15.4453C22.8643 17.2264 21.4153 18.6753 19.6342 18.6753ZM19.6342 13.9543H18.6506V16.9363H19.6342C20.4564 16.9363 21.1253 16.2675 21.1253 15.4451C21.1253 14.6229 20.4564 13.9543 19.6342 13.9543Z" fill="white"/>
<path d="M9.63028 4.51384C9.21284 4.0964 9.21284 3.41702 9.63028 2.99959C9.85901 2.77086 9.85901 2.40027 9.63028 2.17154C9.40156 1.94282 9.03096 1.94282 8.80224 2.17154C7.9279 3.04534 7.9279 4.46809 8.80224 5.34188C9.21968 5.75932 9.21968 6.43866 8.80224 6.85614C8.57351 7.08486 8.57351 7.45545 8.80224 7.68418C9.031 7.91294 9.40152 7.91294 9.63028 7.68418C10.5046 6.81039 10.5046 5.38763 9.63028 4.51384Z" fill="white"/>
<path d="M12.3568 5.424C11.9394 5.00656 11.9394 4.32718 12.3568 3.90974C12.5856 3.68102 12.5856 3.31043 12.3568 3.0817C12.1281 2.85297 11.7575 2.85297 11.5288 3.0817C10.6545 3.95549 10.6545 5.37824 11.5288 6.25204C11.9463 6.66947 11.9463 7.34882 11.5288 7.76629C11.3001 7.99502 11.3001 8.36561 11.5288 8.59434C11.6432 8.70872 11.7931 8.76591 11.9428 8.76591C12.0926 8.76591 12.2425 8.70872 12.3568 8.59434C13.2312 7.72054 13.2312 6.29779 12.3568 5.424Z" fill="white"/>
</svg>
