<svg width="24" height="24" viewBox="0 0 24 24" fill="none" xmlns="http://www.w3.org/2000/svg">
<path d="M12 14.793C13.5425 14.793 14.793 13.5425 14.793 12C14.793 10.4575 13.5425 9.20703 12 9.20703C10.4575 9.20703 9.20703 10.4575 9.20703 12C9.20703 13.5425 10.4575 14.793 12 14.793Z" fill="white"/>
<path d="M19.9922 9.42188V14.5781C19.9922 14.6351 20.0148 14.6898 20.0551 14.73C20.0954 14.7703 20.1501 14.793 20.207 14.793H23V9.20703H20.207C20.1501 9.20703 20.0954 9.22967 20.0551 9.26996C20.0148 9.31025 19.9922 9.36489 19.9922 9.42188Z" fill="white"/>
<path d="M11.3555 16.0309C10.3966 15.8777 9.52384 15.3877 8.89374 14.6489C8.26364 13.9102 7.91752 12.971 7.91752 12C7.91752 11.029 8.26364 10.0898 8.89374 9.35105C9.52384 8.61228 10.3966 8.12231 11.3555 7.9691V3.62109H2.50391C2.10505 3.62109 1.72252 3.77954 1.44048 4.06158C1.15845 4.34361 1 4.72614 1 5.125L1 7.91797H3.79297C3.99046 7.91797 4.18603 7.95687 4.36849 8.03245C4.55095 8.10803 4.71674 8.2188 4.85639 8.35845C4.99604 8.4981 5.10682 8.66389 5.1824 8.84635C5.25798 9.02882 5.29688 9.22438 5.29688 9.42188V14.5781C5.29688 14.7756 5.25798 14.9712 5.1824 15.1536C5.10682 15.3361 4.99604 15.5019 4.85639 15.6415C4.71674 15.7812 4.55095 15.892 4.36849 15.9676C4.18603 16.0431 3.99046 16.082 3.79297 16.082H1V18.875C1 19.2739 1.15845 19.6564 1.44048 19.9384C1.72252 20.2205 2.10505 20.3789 2.50391 20.3789H11.3555V16.0309Z" fill="white"/>
<path d="M20.207 16.082C19.8082 16.082 19.4256 15.9236 19.1436 15.6415C18.8616 15.3595 18.7031 14.977 18.7031 14.5781V9.42188C18.7031 9.02301 18.8616 8.64049 19.1436 8.35845C19.4256 8.07642 19.8082 7.91797 20.207 7.91797H23V5.125C23 4.72614 22.8416 4.34361 22.5595 4.06158C22.2775 3.77954 21.895 3.62109 21.4961 3.62109H12.6445V7.9691C13.6034 8.12231 14.4762 8.61228 15.1063 9.35105C15.7364 10.0898 16.0825 11.029 16.0825 12C16.0825 12.971 15.7364 13.9102 15.1063 14.6489C14.4762 15.3877 13.6034 15.8777 12.6445 16.0309V20.3789H21.4961C21.895 20.3789 22.2775 20.2205 22.5595 19.9384C22.8416 19.6564 23 19.2739 23 18.875V16.082H20.207Z" fill="white"/>
<path d="M4.00781 14.5781V9.42188C4.00781 9.36489 3.98518 9.31025 3.94489 9.26996C3.9046 9.22967 3.84995 9.20703 3.79297 9.20703H1V14.793H3.79297C3.84995 14.793 3.9046 14.7703 3.94489 14.73C3.98518 14.6898 4.00781 14.6351 4.00781 14.5781Z" fill="white"/>
</svg>
