<svg width="342" height="290" viewBox="0 0 342 290" fill="none" xmlns="http://www.w3.org/2000/svg">
<path fill-rule="evenodd" clip-rule="evenodd" d="M128.162 0H172.732L297.196 289.772H252.626L128.162 0Z" fill="url(#paint0_linear_238_81)"/>
<path fill-rule="evenodd" clip-rule="evenodd" d="M341.766 261.849H246.708L258.729 289.772H244.488L119.1 0H133.34L145.361 27.9231H341.766V261.849ZM328.82 40.8676H150.91L228.029 218.762L229.508 222.275L240.975 248.904H328.635V40.8676H328.82ZM250.406 222.275H236.351V157.368H252.441L269.27 195.832L285.73 157.368H301.819L302.004 222.46H287.949L287.764 183.442L272.414 217.468H265.571L250.221 184.367V222.275H250.406ZM268.715 90.6115C271.119 91.721 274.633 92.8305 279.257 93.7551C284.25 94.8647 288.319 96.1591 291.463 97.2686C294.607 98.3782 297.381 100.227 299.6 102.816C301.819 105.405 302.929 108.734 302.929 113.172C302.929 116.87 301.819 120.199 299.785 123.343C297.751 126.486 294.607 128.89 290.538 130.554C286.469 132.404 281.291 133.328 275.373 133.328C270.195 133.328 265.201 132.589 260.393 131.294C255.585 129.815 251.701 128.151 248.742 125.931L253.92 114.651C256.694 116.685 260.023 118.35 263.907 119.644C267.791 120.939 271.674 121.493 275.373 121.493C279.627 121.493 282.771 120.939 284.805 119.644C286.839 118.35 287.949 116.685 287.949 114.651C287.949 113.172 287.394 111.877 286.099 110.768C284.805 109.658 283.325 108.919 281.476 108.364C279.627 107.809 277.038 107.069 273.894 106.33C268.9 105.22 264.832 103.926 261.688 102.816C258.544 101.707 255.77 99.6726 253.55 97.0837C251.331 94.4948 250.221 90.9813 250.221 86.7281C250.221 83.0297 251.331 79.5162 253.365 76.5574C255.4 73.4138 258.544 71.0098 262.612 69.3455C266.681 67.4963 271.674 66.5717 277.777 66.5717C281.846 66.5717 285.915 67.1265 289.983 68.0511C293.867 68.9757 297.381 70.455 300.34 72.3043L295.716 83.7694C289.798 80.4408 283.695 78.5916 277.777 78.5916C273.524 78.5916 270.38 79.3313 268.53 80.6257C266.496 81.9202 265.571 83.7694 265.571 85.9884C265.201 87.8377 266.311 89.5019 268.715 90.6115ZM221.926 132.219H206.946V79.5162H186.233V67.3114H242.824V79.5162H221.926V132.219ZM152.019 169.388H117.806V183.442H147.951V195.092H117.806V210.071H153.129V222.091H102.826V157.368H152.019V169.388ZM98.0173 71.3796C103.38 74.1535 107.634 77.8519 110.593 82.8448C113.552 87.6527 115.032 93.3853 115.032 99.8575C115.032 106.33 113.552 112.062 110.593 116.87C107.634 121.678 103.38 125.562 98.0173 128.335C92.6541 131.109 86.3662 132.404 79.3385 132.404H38.6521V67.3114H79.3385C86.3662 67.3114 92.6541 68.6058 98.0173 71.3796ZM53.6321 79.7011V120.014H78.5988C85.0716 120.014 90.2499 118.165 94.1336 114.651C98.0173 110.953 99.8667 106.145 99.8667 99.8575C99.8667 93.7551 98.0173 88.7623 94.1336 85.0638C90.2499 81.3654 85.0716 79.7011 78.5988 79.7011H53.6321ZM58.9953 222.275V169.573H38.0973V157.368H94.6884V169.573H73.9753V222.275H58.9953ZM154.978 118.35H138.149L132.416 132.219H117.066L139.443 82.1051L146.656 98.5631L143.142 106.885H150.17L154.978 118.35ZM194.37 208.406H177.911L172.178 222.275H156.828L178.835 172.717L186.048 189.175L182.719 196.941H189.377L194.37 208.406ZM12.9457 40.8676V248.904H211.939L217.672 261.849H0V27.9231H115.586L121.319 40.8676H12.9457Z" fill="#05090C"/>
<defs>
<linearGradient id="paint0_linear_238_81" x1="148.119" y1="2.66527" x2="273.167" y2="278.166" gradientUnits="userSpaceOnUse">
<stop stop-color="#6254A0"/>
<stop offset="1" stop-color="#E52787"/>
</linearGradient>
</defs>
</svg>
