<svg width="151" height="39" viewBox="0 0 151 39" fill="none" xmlns="http://www.w3.org/2000/svg">
<path d="M19.7123 28.1336L15.5522 30.3883L14.2448 27.5007C12.8581 29.2016 10.7978 30.4278 8.18292 30.4278C3.11157 30.3883 0.457031 26.2349 0.457031 19.7478C0.457031 12.7465 3.58701 8.94918 8.5395 8.94918C10.8771 8.94918 12.6996 9.8194 13.8882 11.4412V1.11719H18.1671V25.0087L19.7123 28.1336ZM13.8882 25.3252V14.3287C12.7788 13.419 11.3921 12.8652 9.9262 12.8652C6.7566 12.8652 4.89446 15.2781 4.89446 19.7874C4.89446 24.1385 6.63774 26.5118 9.84696 26.5118C11.2733 26.5514 12.7392 26.0767 13.8882 25.3252Z" fill="white"/>
<path d="M40.868 20.1434H26.9218C27.1991 23.743 30.0122 26.1163 34.41 26.1163C36.6683 26.1163 39.1247 25.6416 40.7492 24.7714L39.4021 29.1621C38.0154 29.9136 35.6778 30.3883 33.0233 30.3883C26.6841 30.3883 22.4844 26.0768 22.4844 19.5501C22.4844 12.9839 26.486 8.94922 32.8252 8.94922C38.0946 8.94922 41.3831 11.9554 41.3831 16.7812C41.3831 17.8888 41.185 19.1941 40.868 20.1434ZM27.1595 17.1768H37.223C37.0249 14.0914 35.559 12.6279 32.8252 12.6279C29.8537 12.6674 27.7934 14.3683 27.1595 17.1768Z" fill="white"/>
<path d="M51.2489 29.8755L43.2061 9.46484H47.9208L53.1507 23.7444L53.745 25.5244H53.9034L54.4977 23.7444L59.7276 9.46484H64.3631L56.3203 29.8755H51.2489Z" fill="white"/>
<path d="M78.3107 9.50155H87.5421L86.9478 12.7847H77.7164L74.4676 31.1384C73.5563 36.2806 70.1094 38.1793 65.3154 38.1793C63.0966 38.1793 62.0665 37.8629 60.9572 37.6255L60.8779 34.3029C61.9873 34.5006 63.2947 34.6193 65.1173 34.6193C68.0095 34.6193 69.9113 33.4722 70.3471 31.0593L73.5959 12.7451H67.1775L67.7718 9.462H74.1506L74.4676 7.56333C75.3788 2.53978 78.7861 0.601562 83.5405 0.601562C85.7989 0.601562 86.9478 0.918007 87.9383 1.15534L88.0176 4.55711C86.9082 4.28023 85.6008 4.16156 83.7783 4.16156C80.9256 4.16156 79.0239 5.30867 78.588 7.72156L78.3107 9.50155Z" fill="white"/>
<path d="M106.599 20.1434H92.6132C92.8906 23.743 95.7036 26.1163 100.101 26.1163C102.36 26.1163 104.816 25.6416 106.441 24.7714L105.094 29.1621C103.707 29.9136 101.369 30.3883 98.7147 30.3883C92.3755 30.3883 88.1758 26.0768 88.1758 19.5501C88.1758 12.9839 92.1774 8.94922 98.5166 8.94922C103.786 8.94922 107.074 11.9554 107.074 16.7812C107.114 17.8888 106.916 19.1941 106.599 20.1434ZM92.8509 17.1768H102.914C102.716 14.0914 101.25 12.6279 98.5166 12.6279C95.5847 12.6674 93.5245 14.3683 92.8509 17.1768Z" fill="white"/>
<path d="M111.194 28.6454L110.917 24.057C112.74 25.3228 116.068 26.4303 119.515 26.4303C122.169 26.4303 124.071 25.5997 124.071 23.7406C124.071 19.8641 111.353 23.4637 111.353 15.5921C111.353 11.9135 114.126 8.82812 120.703 8.82812C124.744 8.82812 127.795 9.81701 127.795 12.2695C127.795 13.021 127.478 13.6539 127.161 14.2472C125.418 13.4166 122.684 12.8232 120.426 12.8232C117.256 12.8232 115.592 14.0099 115.592 15.3152C115.592 18.7566 128.469 15.7503 128.469 23.4241C128.469 27.7357 124.665 30.3859 119.039 30.3859C115.196 30.3859 112.343 29.1597 111.194 28.6454Z" fill="white"/>
<path d="M150.458 25.5592L149.587 29.5543C148.557 29.9895 146.496 30.4246 144.595 30.4246C139.484 30.4246 137.344 27.7743 137.344 24.0561V13.0597H131.56V9.46014H137.344V3.88281H141.623V9.46014H149.864V13.0597H141.623V22.7112C141.623 25.3615 143.01 26.5481 145.427 26.5481C146.774 26.5481 149.309 26.2317 150.458 25.5592Z" fill="white"/>
</svg>
