<svg width="157" height="42" viewBox="0 0 157 42" fill="none" xmlns="http://www.w3.org/2000/svg">
<g clip-path="url(#clip0_604_69494)">
<path d="M10.8869 10.4673C13.9572 10.4673 16.3153 12.0003 17.2931 13.4026V0H23.3873V32.8457H17.2931V30.3938C16.3153 31.7961 13.9572 33.3269 10.8869 33.3269C4.96958 33.3269 0.432617 28.1161 0.432617 21.8971C0.432617 15.6781 4.96958 10.4673 10.8869 10.4673ZM12.1765 15.9416C8.84072 15.9416 6.57113 18.4828 6.57113 21.8971C6.57113 25.3115 8.84072 27.8527 12.1765 27.8527C15.5123 27.8527 17.7819 25.3115 17.7819 21.8971C17.7819 18.4828 15.5123 15.9416 12.1765 15.9416Z" fill="#9638D2"/>
<path d="M36.8637 10.4678C42.6926 10.4678 47.8091 14.1456 47.8091 21.2421C47.8091 21.7669 47.8091 22.381 47.7206 23.2999H31.0814C31.4375 26.2352 34.0632 27.8553 36.9987 27.8553C39.7571 27.8553 41.7591 26.5858 42.739 25.0964L47.276 28.4258C45.2298 31.3611 41.6263 33.3317 36.9544 33.3317C30.3248 33.3317 25.1641 28.8199 25.1641 21.9019C25.1641 15.4195 30.1014 10.4721 36.8659 10.4721L36.8637 10.4678ZM31.3026 19.2279H41.7126C41.1795 16.6432 38.9541 15.4173 36.6846 15.4173C34.415 15.4173 31.8799 16.5561 31.3004 19.2279H31.3026Z" fill="#9638D2"/>
<path d="M61.2426 10.4678C67.0715 10.4678 72.188 14.1456 72.188 21.2421C72.188 21.7669 72.188 22.381 72.0995 23.2999H55.4603C55.8164 26.2352 58.4422 27.8553 61.3776 27.8553C64.136 27.8553 66.138 26.5858 67.1179 25.0964L71.6549 28.4258C69.6087 31.3611 66.0052 33.3317 61.3333 33.3317C54.7037 33.3317 49.543 28.8199 49.543 21.9019C49.543 15.4195 54.4803 10.4721 61.2449 10.4721L61.2426 10.4678ZM55.6815 19.2279H66.0915C65.5584 16.6432 63.3331 15.4173 61.0635 15.4173C58.7939 15.4173 56.2588 16.5561 55.6793 19.2279H55.6815Z" fill="#9638D2"/>
<path d="M73.7891 10.9483H79.8833V13.4001C80.9075 11.9978 83.2656 10.4648 86.3337 10.4648C92.251 10.4648 96.788 15.6756 96.788 21.8946C96.788 28.1136 92.251 33.3244 86.3337 33.3244C83.2634 33.3244 80.9053 31.7915 79.8833 30.3913V41.9975H73.7891V10.9483ZM84.9999 15.9413C81.6641 15.9413 79.3945 18.4825 79.3945 21.8968C79.3945 25.3112 81.6641 27.8523 84.9999 27.8523C88.3357 27.8523 90.6053 25.3112 90.6053 21.8968C90.6053 18.4825 88.3357 15.9413 84.9999 15.9413Z" fill="#9638D2"/>
<path d="M98.5713 0H104.666V32.8457H98.5713V0Z" fill="#9638D2"/>
<path d="M116.89 10.4678C119.96 10.4678 122.318 12.0007 123.296 13.4031V10.9512H129.39V32.8483H123.296V30.3964C122.318 31.7988 119.96 33.3296 116.89 33.3296C110.973 33.3296 106.436 28.1187 106.436 21.8998C106.436 15.6808 110.975 10.47 116.89 10.47V10.4678ZM118.179 15.9421C114.844 15.9421 112.574 18.4832 112.574 21.8976C112.574 25.3119 114.844 27.8531 118.179 27.8531C121.515 27.8531 123.785 25.3119 123.785 21.8976C123.785 18.4832 121.515 15.9421 118.179 15.9421Z" fill="#9638D2"/>
<path d="M135.834 41.9997L140.506 31.6194L131.162 10.9482H137.836L143.797 25.1391L149.715 10.9482H156.433L142.464 41.9997H135.834Z" fill="#9638D2"/>
</g>
<defs>
<clipPath id="clip0_604_69494">
<rect width="156" height="42" fill="white" transform="translate(0.432617)"/>
</clipPath>
</defs>
</svg>
