<svg width="200" height="35" viewBox="0 0 200 35" fill="none" xmlns="http://www.w3.org/2000/svg">
<g clip-path="url(#clip0_460_60810)">
<path d="M16.8299 25.0422L13.1938 27.0129L12.0511 24.489C10.839 25.9757 9.03828 27.0474 6.75276 27.0474C2.32018 27.0129 0 23.3827 0 17.7127C0 11.5932 2.73573 8.27419 7.06443 8.27419C9.10756 8.27419 10.7005 9.03482 11.7394 10.4523V1.42871H15.4794V22.3109L16.8299 25.0422ZM11.7394 22.5875V12.9762C10.7698 12.181 9.55775 11.6969 8.27645 11.6969C5.50608 11.6969 3.87849 13.8059 3.87849 17.7473C3.87849 21.5503 5.40221 23.6247 8.20717 23.6247C9.45385 23.6593 10.7352 23.2444 11.7394 22.5875Z" fill="#383C48"/>
<path d="M35.3222 18.0586H23.1324C23.3748 21.2048 25.8335 23.2792 29.6774 23.2792C31.6513 23.2792 33.7983 22.8643 35.2181 22.1037L34.0407 25.9413C32.8287 26.5982 30.7855 27.0131 28.4654 27.0131C22.9246 27.0131 19.2539 23.2446 19.2539 17.54C19.2539 11.8009 22.7515 8.27441 28.2922 8.27441C32.8979 8.27441 35.7721 10.902 35.7721 15.1199C35.7721 16.0879 35.5991 17.2289 35.3222 18.0586ZM23.3402 15.4656H32.1361C31.9629 12.7689 30.6816 11.4897 28.2922 11.4897C25.695 11.5243 23.8943 13.0109 23.3402 15.4656Z" fill="#383C48"/>
<path d="M44.3951 26.5634L37.3652 8.72363H41.4861L46.0573 21.2045L46.5768 22.7603H46.7153L47.2348 21.2045L51.8057 8.72363H55.8573L48.8278 26.5634H44.3951Z" fill="#383C48"/>
<path d="M68.0465 8.75844H76.1154L75.5959 11.628H67.5273L64.6876 27.67C63.8911 32.1645 60.8785 33.824 56.688 33.824C54.7488 33.824 53.8486 33.5474 52.8788 33.34L52.8096 30.4358C53.7793 30.6087 54.922 30.7124 56.515 30.7124C59.043 30.7124 60.7052 29.7098 61.0862 27.6008L63.9256 11.5934H58.3157L58.8352 8.72389H64.4106L64.6876 7.06438C65.4841 2.67358 68.4623 0.979492 72.6177 0.979492C74.5916 0.979492 75.5959 1.25608 76.4616 1.46352L76.5308 4.43681C75.5611 4.1948 74.4184 4.09108 72.8254 4.09108C70.3322 4.09108 68.67 5.09369 68.289 7.20266L68.0465 8.75844Z" fill="#383C48"/>
<path d="M92.7726 18.0586H80.5483C80.7908 21.2048 83.2495 23.2792 87.0935 23.2792C89.0671 23.2792 91.2144 22.8643 92.6341 22.1037L91.4566 25.9413C90.2446 26.5982 88.2014 27.0131 85.8815 27.0131C80.3406 27.0131 76.6699 23.2446 76.6699 17.54C76.6699 11.8009 80.1676 8.27441 85.7082 8.27441C90.3139 8.27441 93.188 10.902 93.188 15.1199C93.2228 16.0879 93.0495 17.2289 92.7726 18.0586ZM80.756 15.4656H89.5522C89.3789 12.7689 88.0977 11.4897 85.7082 11.4897C83.1455 11.5243 81.3448 13.0109 80.756 15.4656Z" fill="#383C48"/>
<path d="M96.7894 25.4921L96.5469 21.4815C98.1398 22.5879 101.049 23.556 104.061 23.556C106.382 23.556 108.044 22.8299 108.044 21.205C108.044 17.8168 96.9279 20.963 96.9279 14.0829C96.9279 10.8676 99.3518 8.1709 105.1 8.1709C108.633 8.1709 111.299 9.03522 111.299 11.1788C111.299 11.8356 111.022 12.3888 110.745 12.9074C109.221 12.1814 106.832 11.6628 104.858 11.6628C102.088 11.6628 100.633 12.7 100.633 13.8409C100.633 16.8488 111.888 14.2212 111.888 20.9284C111.888 24.6969 108.563 27.0133 103.646 27.0133C100.287 27.0133 97.7936 25.9415 96.7894 25.4921Z" fill="#383C48"/>
<path d="M131.107 22.7947L130.345 26.2866C129.445 26.6669 127.644 27.0472 125.982 27.0472C121.515 27.0472 119.645 24.7308 119.645 21.4809V11.8696H114.589V8.72344H119.645V3.84863H123.385V8.72344H130.588V11.8696H123.385V20.3054C123.385 22.6219 124.597 23.659 126.709 23.659C127.887 23.659 130.103 23.3825 131.107 22.7947Z" fill="#383C48"/>
<path d="M152.007 25.9036C155.82 25.9036 157.764 23.0002 157.764 16.9967C157.764 10.9932 155.82 8.08984 152.007 8.08984C148.168 8.08984 146.225 10.9932 146.225 16.9967C146.225 23.0002 148.168 25.9036 152.007 25.9036ZM152.007 24.0828C149.546 24.0828 148.267 21.7946 148.267 16.9967C148.267 12.1988 149.546 9.88598 152.007 9.88598C154.418 9.88598 155.697 12.1742 155.697 16.9721C155.697 21.7946 154.418 24.0828 152.007 24.0828ZM162.234 25.5837V12.2234H162.333L162.997 14.3394L165.335 20.5644H165.95L168.213 14.3394L168.853 12.2234H168.951V25.5837H170.871V8.4097H168.755L166.097 16.0863L165.753 17.4396H165.679L165.31 16.0863L162.53 8.4097H160.414V25.5837H162.234ZM179.105 25.9036C183.288 25.9036 184.961 23.5661 184.961 20.958C184.961 17.5872 182.476 16.6522 180.163 15.8403C178.293 15.2252 176.497 14.6101 176.497 12.7647C176.497 10.7963 178.392 10.009 180.385 10.009C181.615 10.009 182.845 10.255 184.026 10.9194C184.199 10.6487 184.395 10.3289 184.395 9.91058C184.395 8.77877 182.378 8.08984 180.237 8.08984C176.448 8.11445 174.529 10.2058 174.529 12.8631C174.529 15.9387 176.965 16.7999 179.228 17.6118C181.148 18.3499 182.944 19.0881 182.944 21.1795C182.944 22.8034 181.689 24.0828 179.007 24.0828C177.162 24.0582 175.464 23.4923 173.938 22.4097L174.111 24.5749C174.849 24.9932 176.448 25.9036 179.105 25.9036ZM192.114 16.7014L198.437 8.4097H196.223L190.121 16.5292V8.4097H188.152V25.5837H190.121V17.1689L196.69 25.5837H199.077L192.114 16.7014Z" fill="#383C48"/>
</g>
<defs>
<clipPath id="clip0_460_60810">
<rect width="200" height="33.0404" fill="white" transform="translate(0 0.979492)"/>
</clipPath>
</defs>
</svg>
