<svg width="401" height="57" viewBox="0 0 401 57" fill="none" xmlns="http://www.w3.org/2000/svg">
<g clip-path="url(#clip0_2001_2)">
<path d="M114.756 6.79607H105.048V15.9065H97.2047V23.8266H105.048V37.3576C105.048 44.8799 109.184 48.9028 116.818 48.9028H124.796V40.3876L119.077 40.3208C116.148 40.2541 114.683 38.8678 114.683 36.162V23.8214H124.791V15.9065H114.756V6.79607Z" fill="black"/>
<path d="M87.4987 -6.10352e-05C83.9063 -6.10352e-05 81.3141 2.44243 81.3141 5.93935C81.3141 9.50297 83.8985 12.0788 87.4987 12.0788C91.0213 12.0788 93.5488 9.51323 93.5488 5.93935C93.5488 2.51427 91.0213 -6.10352e-05 87.4987 -6.10352e-05Z" fill="black"/>
<path d="M26.9945 18.916C24.5083 16.5274 21.1304 15.1138 16.954 15.1138C7.39151 15.1138 0 22.6387 0 32.3392C0 42.1091 7.38117 49.634 16.954 49.634C21.1304 49.634 24.5083 48.2178 26.9945 45.8241V48.9028H36.557V15.9065H26.9945V18.916ZM18.2074 41.383C13.222 41.383 9.49784 37.5551 9.49784 32.3392C9.49784 27.1926 13.222 23.3596 18.2074 23.3596C23.26 23.3596 26.9945 27.1875 26.9945 32.3392C26.9945 37.5551 23.2703 41.383 18.2178 41.383H18.2074Z" fill="black"/>
<path d="M59.4985 37.2373L50.7321 15.9069H40.3607L54.5209 48.9082H54.6553H64.2953H64.4271L78.7216 15.9069H68.3503L59.4985 37.2373Z" fill="black"/>
<path d="M92.4181 15.9069H82.512V48.9082H92.4181V15.9069Z" fill="black"/>
<path d="M270.203 23.3648C274.393 23.3648 277.649 25.8714 278.582 29.7659H287.757C287.224 21.3841 279.644 15.1138 270.071 15.1138C259.899 15.1138 251.921 22.6387 251.921 32.3392C251.921 42.0398 259.899 49.5672 270.071 49.5672C279.634 49.5672 287.224 43.2969 287.757 34.9151H278.507C277.577 38.8071 274.318 41.383 270.195 41.383C265.076 41.383 261.408 37.6193 261.408 32.2751C261.426 27.0592 265.083 23.3648 270.203 23.3648Z" fill="black"/>
<path d="M312.088 15.1137C305.369 15.1137 302.182 18.8748 302.182 18.8748V2.71155H292.41V48.9155H302.118V31.3565C302.118 26.5383 304.976 23.4365 309.354 23.4365C313.541 23.4365 315.735 25.6147 315.735 29.7068V48.9155H325.442V27.9904C325.453 19.9986 320.4 15.1137 312.088 15.1137Z" fill="black"/>
<path d="M146.34 15.1138C135.901 15.1138 127.788 22.6387 127.788 32.3392C127.788 42.1091 135.901 49.634 146.34 49.634C156.845 49.634 164.948 42.1091 164.948 32.3392C164.955 22.6387 156.845 15.1138 146.34 15.1138ZM146.34 41.383C144.547 41.3769 142.797 40.8441 141.309 39.8518C139.821 38.8595 138.662 37.4522 137.979 35.8071C137.296 34.1621 137.119 32.3531 137.47 30.6082C137.821 28.8633 138.684 27.2606 139.952 26.0022C141.219 24.7438 142.833 23.8861 144.591 23.5372C146.348 23.1883 148.171 23.3637 149.828 24.0415C151.485 24.7193 152.903 25.869 153.903 27.3457C154.903 28.8223 155.44 30.5599 155.447 32.3392C155.464 33.5314 155.24 34.7148 154.789 35.8195C154.337 36.9242 153.667 37.9278 152.818 38.7709C151.969 39.6141 150.958 40.2797 149.845 40.7283C148.732 41.177 147.54 41.3996 146.34 41.383Z" fill="black"/>
<path d="M230.509 15.1138C220.468 15.1138 212.624 22.6387 212.624 32.3392C212.624 42.0398 220.468 49.5672 230.509 49.5672C238.82 49.5672 245.734 44.5515 247.53 37.5551H238.484C237.71 38.9397 236.57 40.0888 235.188 40.8793C233.806 41.6698 232.233 42.0719 230.638 42.0424C226.1 42.0424 222.696 39.1843 221.737 34.8587H247.793C247.858 34.0659 247.925 33.209 247.925 32.3495C247.928 22.6387 240.348 15.1138 230.509 15.1138ZM230.64 22.7028C234.623 22.7028 237.673 24.9041 238.983 28.3138H222.184C223.523 24.8913 226.64 22.7028 230.64 22.7028Z" fill="black"/>
<path d="M176.323 37.1497C172.535 37.1497 169.875 39.7153 169.875 43.42C169.875 47.1838 172.535 49.834 176.323 49.834C179.98 49.834 182.64 47.194 182.64 43.42C182.64 39.7333 180.04 37.1497 176.323 37.1497Z" fill="black"/>
<path d="M199.594 6.79607H189.887V15.9065H182.043V23.8266H189.887V37.3576C189.887 44.8799 194.022 48.9028 201.656 48.9028H209.635V40.3876L203.918 40.3208C200.989 40.2541 199.524 38.8678 199.524 36.162V23.8214H209.629V15.9065H199.589L199.594 6.79607Z" fill="black"/>
<path d="M367.295 36.5035C366.738 35.0109 366.484 33.4234 366.549 31.8329C366.613 30.2425 366.995 28.6805 367.672 27.2373C368.348 25.7941 369.306 24.4984 370.49 23.4251C371.674 22.3518 373.061 21.5221 374.57 20.9841C377.595 19.9465 380.91 20.132 383.798 21.5006C386.686 22.8692 388.916 25.3109 390.005 28.2982C391.094 31.2854 390.956 34.5782 389.62 37.4649C388.283 40.3517 385.857 42.6006 382.864 43.7256C381.364 44.2668 379.771 44.5093 378.177 44.4392C376.583 44.3691 375.018 43.9878 373.572 43.3171C372.126 42.6464 370.827 41.6994 369.75 40.5303C368.673 39.3612 367.839 37.9928 367.295 36.5035ZM335.731 42.6609L358.578 40.2467L346.912 50.3116L365.036 48.9338L356.844 57.0001L377.814 54.2421C381.634 53.7597 383.786 53.2774 386.149 52.3794C397.189 48.1744 403.022 36.0416 398.996 24.9428C398.032 22.2975 396.552 19.8668 394.64 17.79C392.729 15.7131 390.424 14.0308 387.856 12.8393C385.289 11.6478 382.511 10.9706 379.68 10.8462C376.849 10.7219 374.021 11.153 371.358 12.1148C369.065 12.9409 367.189 13.9108 363.788 16.0453L346.01 27.2186L357.466 28.1832L335.731 42.6609Z" fill="black"/>
</g>
<defs>
<clipPath id="clip0_2001_2">
<rect width="401" height="57" fill="white"/>
</clipPath>
</defs>
</svg>
