<svg width="150" height="38" viewBox="0 0 150 38" fill="none" xmlns="http://www.w3.org/2000/svg">
<path d="M19.2553 27.532L15.0952 29.7867L13.7877 26.8991C12.401 28.6 10.3408 29.8263 7.72589 29.8263C2.65454 29.7867 0 25.6334 0 19.1463C0 12.1449 3.12998 8.34762 8.08247 8.34762C10.42 8.34762 12.2426 9.21784 13.4312 10.8396V0.515625H17.7101V24.4072L19.2553 27.532ZM13.4312 24.7236V13.7272C12.3218 12.8174 10.9351 12.2636 9.46917 12.2636C6.29957 12.2636 4.43743 14.6765 4.43743 19.1858C4.43743 23.5369 6.18071 25.9103 9.38993 25.9103C10.8162 25.9498 12.2822 25.4752 13.4312 24.7236Z" fill="#393C47"/>
<path d="M40.411 19.5419H26.4648C26.7421 23.1414 29.5551 25.5147 33.9529 25.5147C36.2113 25.5147 38.6677 25.0401 40.2921 24.1699L38.9451 28.5605C37.5584 29.3121 35.2208 29.7867 32.5662 29.7867C26.2271 29.7867 22.0273 25.4752 22.0273 18.9485C22.0273 12.3823 26.029 8.34766 32.3681 8.34766C37.6376 8.34766 40.9261 11.3539 40.9261 16.1796C40.9261 17.2872 40.728 18.5925 40.411 19.5419ZM26.7025 16.5752H36.766C36.5679 13.4899 35.1019 12.0263 32.3681 12.0263C29.3967 12.0659 27.3364 13.7668 26.7025 16.5752Z" fill="#393C47"/>
<path d="M50.7919 29.2739L42.749 8.86328H47.4638L52.6936 23.1428L53.2879 24.9228H53.4464L54.0407 23.1428L59.2705 8.86328H63.9061L55.8632 29.2739H50.7919Z" fill="#393C47"/>
<path d="M77.8537 8.89999H87.0851L86.4908 12.1831H77.2594L74.0105 30.5369C73.0993 35.6791 69.6523 37.5777 64.8583 37.5777C62.6396 37.5777 61.6095 37.2613 60.5001 37.024L60.4209 33.7013C61.5303 33.8991 62.8377 34.0177 64.6602 34.0177C67.5525 34.0177 69.4542 32.8706 69.8901 30.4577L73.1389 12.1435H66.7205L67.3148 8.86044H73.6936L74.0105 6.96177C74.9218 1.93822 78.3291 0 83.0835 0C85.3418 0 86.4908 0.316444 87.4813 0.553777L87.5606 3.95555C86.4512 3.67866 85.1437 3.56 83.3212 3.56C80.4686 3.56 78.5668 4.70711 78.131 7.11999L77.8537 8.89999Z" fill="#393C47"/>
<path d="M106.142 19.5419H92.1562C92.4335 23.1414 95.2465 25.5147 99.6444 25.5147C101.903 25.5147 104.359 25.0401 105.984 24.1699L104.636 28.5605C103.25 29.3121 100.912 29.7867 98.2577 29.7867C91.9185 29.7867 87.7188 25.4752 87.7188 18.9485C87.7188 12.3823 91.7204 8.34766 98.0596 8.34766C103.329 8.34766 106.617 11.3539 106.617 16.1796C106.657 17.2872 106.459 18.5925 106.142 19.5419ZM92.3939 16.5752H102.457C102.259 13.4899 100.793 12.0263 98.0596 12.0263C95.1277 12.0659 93.0674 13.7668 92.3939 16.5752Z" fill="#393C47"/>
<path d="M110.737 28.0439L110.46 23.4554C112.282 24.7212 115.611 25.8288 119.057 25.8288C121.712 25.8288 123.614 24.9981 123.614 23.139C123.614 19.2626 110.896 22.8621 110.896 14.9906C110.896 11.3119 113.669 8.22656 120.246 8.22656C124.287 8.22656 127.338 9.21545 127.338 11.6679C127.338 12.4194 127.021 13.0523 126.704 13.6457C124.961 12.815 122.227 12.2217 119.969 12.2217C116.799 12.2217 115.135 13.4083 115.135 14.7137C115.135 18.155 128.012 15.1488 128.012 22.8225C128.012 27.1341 124.208 29.7843 118.582 29.7843C114.739 29.7843 111.886 28.5581 110.737 28.0439Z" fill="#393C47"/>
<path d="M150.001 24.9577L149.13 28.9528C148.099 29.3879 146.039 29.823 144.137 29.823C139.027 29.823 136.887 27.1728 136.887 23.4546V12.4581H131.103V8.85858H136.887V3.28125H141.166V8.85858H149.407V12.4581H141.166V22.1097C141.166 24.7599 142.553 25.9466 144.97 25.9466C146.317 25.9466 148.852 25.6301 150.001 24.9577Z" fill="#393C47"/>
</svg>
