<svg width="174" height="25" viewBox="0 0 174 25" fill="none" xmlns="http://www.w3.org/2000/svg">
<path d="M12.6976 18.1554L9.95427 19.6422L9.09209 17.738C8.17766 18.8596 6.81907 19.6682 5.09471 19.6682C1.75049 19.6422 0 16.9033 0 12.6255C0 8.0086 2.06401 5.50452 5.32985 5.50452C6.87132 5.50452 8.07315 6.07837 8.85695 7.14782V0.339844H11.6786V16.0947L12.6976 18.1554ZM8.85695 16.3034V9.05197C8.1254 8.45203 7.21097 8.08685 6.24428 8.08685C4.15414 8.08685 2.92619 9.67799 2.92619 12.6516C2.92619 15.5209 4.07576 17.0859 6.19203 17.0859C7.13259 17.112 8.09928 16.799 8.85695 16.3034Z" fill="#393C47"/>
<path d="M26.6482 12.8857H17.4516C17.6345 15.2594 19.4895 16.8245 22.3895 16.8245C23.8787 16.8245 25.4986 16.5114 26.5698 15.9376L25.6815 18.8329C24.7671 19.3285 23.2256 19.6416 21.4751 19.6416C17.2948 19.6416 14.5254 16.7984 14.5254 12.4945C14.5254 8.1645 17.1642 5.50391 21.3445 5.50391C24.8193 5.50391 26.9878 7.48631 26.9878 10.6686C26.9878 11.3989 26.8572 12.2597 26.6482 12.8857ZM17.6083 10.9294H24.2445C24.1139 8.89485 23.1472 7.92974 21.3445 7.92974C19.385 7.95582 18.0264 9.07744 17.6083 10.9294Z" fill="#393C47"/>
<path d="M33.4941 19.3032L28.1904 5.84375H31.2995L34.7482 15.2601L35.1401 16.4339H35.2446L35.6365 15.2601L39.0853 5.84375H42.1421L36.8384 19.3032H33.4941Z" fill="#393C47"/>
<path d="M51.3395 5.86895H57.427L57.0351 8.03394H50.9476L48.8052 20.137C48.2043 23.528 45.9313 24.78 42.7699 24.78C41.3068 24.78 40.6276 24.5713 39.896 24.4148L39.8438 22.2237C40.5753 22.3542 41.4375 22.4324 42.6393 22.4324C44.5466 22.4324 45.8006 21.676 46.088 20.0848L48.2304 8.00785H43.9979L44.3898 5.84286H48.5962L48.8052 4.59082C49.4061 1.27813 51.653 0 54.7882 0C56.2774 0 57.0351 0.208674 57.6883 0.365179L57.7405 2.60842C57.009 2.42583 56.1468 2.34758 54.945 2.34758C53.0639 2.34758 51.8098 3.10402 51.5224 4.69516L51.3395 5.86895Z" fill="#393C47"/>
<path d="M69.9936 12.8857H60.7709C60.9538 15.2594 62.8088 16.8245 65.7089 16.8245C67.1981 16.8245 68.8179 16.5114 69.8891 15.9376L69.0008 18.8329C68.0864 19.3285 66.5449 19.6416 64.7944 19.6416C60.6142 19.6416 57.8447 16.7984 57.8447 12.4945C57.8447 8.1645 60.4835 5.50391 64.6638 5.50391C68.1386 5.50391 70.3072 7.48631 70.3072 10.6686C70.3333 11.3989 70.2027 12.2597 69.9936 12.8857ZM60.9277 10.9294H67.5639C67.4332 8.89485 66.4665 7.92974 64.6638 7.92974C62.7304 7.95582 61.3718 9.07744 60.9277 10.9294Z" fill="#393C47"/>
<path d="M73.0237 18.494L72.8408 15.4682C74.0426 16.3029 76.2373 17.0333 78.5103 17.0333C80.2608 17.0333 81.5149 16.4855 81.5149 15.2595C81.5149 12.7033 73.1282 15.0769 73.1282 9.88618C73.1282 7.46035 74.9571 5.42578 79.2941 5.42578C81.959 5.42578 83.9708 6.07789 83.9708 7.69511C83.9708 8.19071 83.7618 8.60806 83.5528 8.99932C82.4032 8.45155 80.6004 8.06029 79.1112 8.06029C77.0211 8.06029 75.9238 8.84281 75.9238 9.70359C75.9238 11.9729 84.415 9.99052 84.415 15.0509C84.415 17.894 81.9068 19.6417 78.1968 19.6417C75.6625 19.6417 73.7814 18.8331 73.0237 18.494Z" fill="#393C47"/>
<path d="M98.9156 16.4582L98.3408 19.0927C97.6615 19.3796 96.3029 19.6666 95.0488 19.6666C91.6785 19.6666 90.2676 17.9189 90.2676 15.467V8.2156H86.4531V5.84194H90.2676V2.16406H93.0893V5.84194H98.5237V8.2156H93.0893V14.5801C93.0893 16.3278 94.0037 17.1103 95.5975 17.1103C96.4858 17.1103 98.1579 16.9016 98.9156 16.4582Z" fill="#393C47"/>
<path d="M110.403 18.9418C106.837 18.9418 104.738 16.5711 104.738 12.427C104.738 8.31908 107 5.83984 110.457 5.83984C111.923 5.83984 113.171 6.25607 113.171 7.07041C113.171 7.34186 113.045 7.57712 112.864 7.77618C112.321 7.45044 111.543 7.25138 110.493 7.25138C107.923 7.25138 106.24 9.15153 106.24 12.3908C106.24 15.5939 107.815 17.5122 110.565 17.5122C111.615 17.5122 112.52 17.3312 113.334 16.9512L113.117 18.4532C112.339 18.7608 111.398 18.9418 110.403 18.9418Z" fill="#393C47"/>
<path d="M118.902 18.9418C116.079 18.9418 114.65 16.8064 114.65 12.3908C114.65 7.97525 116.079 5.83984 118.902 5.83984C121.707 5.83984 123.137 7.97525 123.137 12.3908C123.137 16.8064 121.707 18.9418 118.902 18.9418ZM118.902 17.6027C120.676 17.6027 121.617 15.9197 121.617 12.3727C121.617 8.84388 120.676 7.1609 118.902 7.1609C117.093 7.1609 116.152 8.86198 116.152 12.3908C116.152 15.9197 117.093 17.6027 118.902 17.6027Z" fill="#393C47"/>
<path d="M128.94 18.9418C126.117 18.9418 124.688 16.8064 124.688 12.3908C124.688 7.97525 126.117 5.83984 128.94 5.83984C131.745 5.83984 133.175 7.97525 133.175 12.3908C133.175 16.8064 131.745 18.9418 128.94 18.9418ZM128.94 17.6027C130.714 17.6027 131.655 15.9197 131.655 12.3727C131.655 8.84388 130.714 7.1609 128.94 7.1609C127.131 7.1609 126.19 8.86198 126.19 12.3908C126.19 15.9197 127.131 17.6027 128.94 17.6027Z" fill="#393C47"/>
<path d="M138.363 12.1737L143.484 18.7065H141.729L136.897 12.5175V18.7065H135.449V6.0751H136.897V12.047L141.385 6.0751H143.014L138.363 12.1737Z" fill="#393C47"/>
<path d="M152.617 6.0751V7.30567H149.722V17.476H152.617V18.7065H145.397V17.476H148.292V7.30567H145.397V6.0751H152.617Z" fill="#393C47"/>
<path d="M163.108 6.0751V7.28757H157.19V11.5222H162.402V12.7166H157.19V17.5122H163.108V18.7065H155.742V6.0751H163.108Z" fill="#393C47"/>
<path d="M168.947 18.9418C166.993 18.9418 165.817 18.2722 165.274 17.9646L165.147 16.3721C166.269 17.1683 167.518 17.5846 168.875 17.6027C170.848 17.6027 171.77 16.6616 171.77 15.4673C171.77 13.929 170.449 13.3861 169.038 12.8432C167.373 12.246 165.581 11.6127 165.581 9.35059C165.581 7.39615 166.993 5.85794 169.78 5.83984C171.354 5.83984 172.838 6.34655 172.838 7.17899C172.838 7.48664 172.693 7.72189 172.567 7.92096C171.698 7.43235 170.793 7.25138 169.888 7.25138C168.423 7.25138 167.029 7.83047 167.029 9.2782C167.029 10.6355 168.35 11.0879 169.726 11.5403C171.427 12.1375 173.254 12.8251 173.254 15.3044C173.254 17.2226 172.024 18.9418 168.947 18.9418Z" fill="#393C47"/>
</svg>
