<svg width="798" height="115" viewBox="0 0 798 115" fill="none" xmlns="http://www.w3.org/2000/svg">
<path d="M59.2507 84.0203L46.6302 90.8603L42.6638 82.1003C38.457 87.2603 32.2068 90.9803 24.274 90.9803C8.889 90.8603 0.835938 78.2603 0.835938 58.5803C0.835938 37.3403 10.3313 25.8203 25.3557 25.8203C32.4472 25.8203 37.9762 28.4603 41.582 33.3803V2.0603H54.5631V74.5403L59.2507 84.0203ZM41.582 75.5003V42.1403C38.2166 39.3803 34.0097 37.7003 29.5625 37.7003C19.9469 37.7003 14.2978 45.0203 14.2978 58.7003C14.2978 71.9003 19.5863 79.1003 29.3221 79.1003C33.6492 79.2203 38.0964 77.7803 41.582 75.5003Z" fill="white"/>
<path d="M123.436 59.7796H81.1279C81.9692 70.6996 90.5031 77.8996 103.845 77.8996C110.696 77.8996 118.148 76.4596 123.076 73.8196L118.989 87.1396C114.782 89.4196 107.691 90.8596 99.6379 90.8596C80.4067 90.8596 67.666 77.7796 67.666 57.9796C67.666 38.0596 79.8057 25.8196 99.0369 25.8196C115.023 25.8196 124.999 34.9396 124.999 49.5796C124.999 52.9396 124.398 56.8996 123.436 59.7796ZM81.849 50.7796H112.379C111.778 41.4196 107.33 36.9796 99.0369 36.9796C90.0223 37.0996 83.7721 42.2596 81.849 50.7796Z" fill="white"/>
<path d="M154.929 89.2994L130.529 27.3794H144.832L160.698 70.6994L162.501 76.0994H162.982L164.785 70.6994L180.651 27.3794H194.713L170.314 89.2994H154.929Z" fill="white"/>
<path d="M237.021 27.5H265.026L263.223 37.46H235.218L225.362 93.14C222.597 108.74 212.14 114.5 197.597 114.5C190.866 114.5 187.741 113.54 184.375 112.82L184.135 102.74C187.5 103.34 191.467 103.7 196.996 103.7C205.77 103.7 211.539 100.22 212.861 92.9L222.717 37.34H203.246L205.049 27.38H224.4L225.362 21.62C228.126 6.38 238.463 0.5 252.886 0.5C259.737 0.5 263.223 1.46 266.228 2.18L266.468 12.5C263.103 11.66 259.136 11.3 253.607 11.3C244.953 11.3 239.184 14.78 237.862 22.1L237.021 27.5Z" fill="white"/>
<path d="M322.84 59.7796H280.411C281.252 70.6996 289.786 77.8996 303.128 77.8996C309.979 77.8996 317.431 76.4596 322.359 73.8196L318.272 87.1396C314.066 89.4196 306.974 90.8596 298.921 90.8596C279.69 90.8596 266.949 77.7796 266.949 57.9796C266.949 38.0596 279.089 25.8196 298.32 25.8196C314.306 25.8196 324.282 34.9396 324.282 49.5796C324.402 52.9396 323.801 56.8996 322.84 59.7796ZM281.132 50.7796H311.662C311.061 41.4196 306.614 36.9796 298.32 36.9796C289.426 37.0996 283.176 42.2596 281.132 50.7796Z" fill="white"/>
<path d="M336.773 85.5797L335.932 71.6597C341.461 75.4997 351.557 78.8597 362.014 78.8597C370.067 78.8597 375.836 76.3397 375.836 70.6997C375.836 58.9397 337.254 69.8597 337.254 45.9797C337.254 34.8197 345.667 25.4597 365.62 25.4597C377.88 25.4597 387.135 28.4597 387.135 35.8997C387.135 38.1797 386.173 40.0997 385.212 41.8997C379.923 39.3797 371.63 37.5797 364.778 37.5797C355.163 37.5797 350.115 41.1797 350.115 45.1397C350.115 55.5797 389.178 46.4597 389.178 69.7397C389.178 82.8197 377.639 90.8597 360.572 90.8597C348.913 90.8597 340.259 87.1397 336.773 85.5797Z" fill="white"/>
<path d="M455.897 76.2188L453.253 88.3388C450.128 89.6588 443.878 90.9788 438.109 90.9788C422.603 90.9788 416.113 82.9388 416.113 71.6588V38.2987H398.564V27.3787H416.113V10.4587H429.094V27.3787H454.095V38.2987H429.094V67.5788C429.094 75.6188 433.301 79.2188 440.633 79.2188C444.719 79.2188 452.412 78.2588 455.897 76.2188Z" fill="white"/>
<path d="M508.746 87.6377C492.345 87.6377 482.688 76.7315 482.688 57.6665C482.688 38.768 493.094 27.3623 508.995 27.3623C515.739 27.3623 521.483 29.2771 521.483 33.0235C521.483 34.2723 520.901 35.3546 520.068 36.2704C517.57 34.7718 513.991 33.8561 509.162 33.8561C497.34 33.8561 489.597 42.5976 489.597 57.5C489.597 72.2358 496.84 81.0606 509.495 81.0606C514.324 81.0606 518.486 80.2281 522.233 78.4798L521.234 85.3898C517.654 86.8051 513.325 87.6377 508.746 87.6377Z" fill="#FFB8A2"/>
<path d="M547.849 87.6377C534.861 87.6377 528.284 77.8138 528.284 57.5C528.284 37.1862 534.861 27.3623 547.849 27.3623C560.753 27.3623 567.33 37.1862 567.33 57.5C567.33 77.8138 560.753 87.6377 547.849 87.6377ZM547.849 81.4769C556.007 81.4769 560.336 73.7344 560.336 57.4167C560.336 41.1823 556.007 33.4398 547.849 33.4398C539.523 33.4398 535.194 41.2656 535.194 57.5C535.194 73.7344 539.523 81.4769 547.849 81.4769Z" fill="#FFB8A2"/>
<path d="M594.028 87.6377C581.04 87.6377 574.463 77.8138 574.463 57.5C574.463 37.1862 581.04 27.3623 594.028 27.3623C606.932 27.3623 613.509 37.1862 613.509 57.5C613.509 77.8138 606.932 87.6377 594.028 87.6377ZM594.028 81.4769C602.187 81.4769 606.516 73.7344 606.516 57.4167C606.516 41.1823 602.187 33.4398 594.028 33.4398C585.703 33.4398 581.373 41.2656 581.373 57.5C581.373 73.7344 585.703 81.4769 594.028 81.4769Z" fill="#FFB8A2"/>
<path d="M637.377 56.5009L660.937 86.5554H652.862L630.633 58.0828V86.5554H623.973V28.4446H630.633V55.9182L651.28 28.4446H658.773L637.377 56.5009Z" fill="#FFB8A2"/>
<path d="M702.954 28.4446V34.1058H689.633V80.8941H702.954V86.5554H669.736V80.8941H683.056V34.1058H669.736V28.4446H702.954Z" fill="#FFB8A2"/>
<path d="M751.215 28.4446V34.0226H723.991V53.5038H747.968V58.9985H723.991V81.0606H751.215V86.5554H717.331V28.4446H751.215Z" fill="#FFB8A2"/>
<path d="M778.079 87.6377C769.088 87.6377 763.676 84.5573 761.179 83.142L760.596 75.8157C765.758 79.4788 771.502 81.3937 777.746 81.4769C786.821 81.4769 791.067 77.1477 791.067 71.653C791.067 64.5765 784.989 62.0789 778.495 59.5813C770.836 56.834 762.594 53.9201 762.594 43.5134C762.594 34.5221 769.088 27.4456 781.909 27.3623C789.152 27.3623 795.979 29.6934 795.979 33.523C795.979 34.9384 795.313 36.0206 794.73 36.9364C790.734 34.6886 786.571 33.8561 782.408 33.8561C775.665 33.8561 769.254 36.5202 769.254 43.1804C769.254 49.4244 775.332 51.5057 781.659 53.5871C789.485 56.3344 797.893 59.4981 797.893 70.9038C797.893 79.7286 792.232 87.6377 778.079 87.6377Z" fill="#FFB8A2"/>
</svg>
