<svg width="128" height="34" viewBox="0 0 128 34" fill="none" xmlns="http://www.w3.org/2000/svg">
<g clip-path="url(#clip0_604_69502)">
<path fill-rule="evenodd" clip-rule="evenodd" d="M31.6357 0.620186H44.5362C53.5734 0.620186 58.5156 5.60485 58.5156 12.792C58.5156 19.9792 53.3531 25.074 44.1747 25.074H39.0292V33.5189H31.6357V0.620186ZM61.2267 17C61.2267 6.83362 69.1343 0 78.0245 0C86.9151 0 94.8395 6.52643 94.8395 17C94.8395 27.4736 87.1348 34 78.0245 34C68.914 34 61.2267 27.149 61.2267 17ZM78.0245 26.9635C72.3763 26.9635 68.801 22.4425 68.801 17C68.801 11.5575 72.3368 7.03069 78.0245 7.03069C83.712 7.03069 87.2482 11.4995 87.2482 17C87.2482 22.5005 83.6781 26.9635 78.0245 26.9635ZM107.232 15.0757L118.81 0.637574H127.492L114.501 16.2291L128 33.5073H118.573L107.232 18.5186V33.5073H99.8377V0.620186H107.232V15.0583V15.0757ZM7.39353 15.0757L18.9893 0.620186H27.6707L14.6797 16.2118L28.1451 33.5073H18.7352L7.39353 18.5186V33.5073H0V0.620186H7.39353V15.0583V15.0757ZM39.0236 7.29731V18.5418H43.4461C48.7611 18.5418 50.9187 16.3334 50.9187 12.7978C50.9187 9.9809 49.1678 7.27992 43.8698 7.27992L39.0236 7.29731Z" fill="#00A460"/>
</g>
<defs>
<clipPath id="clip0_604_69502">
<rect width="128" height="34" fill="white"/>
</clipPath>
</defs>
</svg>
