<svg width="56" height="56" viewBox="0 0 56 56" fill="none" xmlns="http://www.w3.org/2000/svg">
<path d="M52.5 28.0001C52.5014 28.5943 52.3491 29.1787 52.0578 29.6966C51.7664 30.2145 51.3461 30.6481 50.8375 30.9554L19.32 50.236C18.7886 50.5614 18.18 50.7391 17.557 50.7506C16.9341 50.7621 16.3193 50.6072 15.7763 50.3017C15.2384 50.0009 14.7903 49.5623 14.4781 49.031C14.1659 48.4997 14.0009 47.8948 14 47.2785V8.72168C14.0009 8.10543 14.1659 7.50054 14.4781 6.96921C14.7903 6.43788 15.2384 5.9993 15.7763 5.69855C16.3193 5.39307 16.9341 5.23809 17.557 5.24962C18.18 5.26116 18.7886 5.43879 19.32 5.76418L50.8375 25.0448C51.3461 25.3521 51.7664 25.7857 52.0578 26.3036C52.3491 26.8215 52.5014 27.4059 52.5 28.0001Z" fill="white"/>
</svg>
