<svg width="17" height="18" viewBox="0 0 17 18" fill="none" xmlns="http://www.w3.org/2000/svg">
<path d="M9.26465 16.8988C9.30606 17.1887 9.34748 17.1059 9.34748 16.8574H9.30605L9.26465 16.8988Z" fill="#F5BC41"/>
<path d="M9.22314 16.8987C9.22314 16.8987 9.22314 16.8986 9.22314 16.9401C9.18173 17.3128 9.34737 17.5612 9.22314 16.7744C9.22314 16.7744 9.22314 16.8158 9.22314 16.8987Z" fill="#F5BC41"/>
<path d="M4.7924 14.7461C4.29546 15.6157 4.91664 14.7461 4.7924 14.7461V14.7461Z" fill="#F5BC41"/>
<path d="M3.54993 14.4561H3.50851C3.42568 14.5389 3.38428 14.6631 3.38428 14.6631C3.42569 14.6631 3.59135 14.4561 3.54993 14.4561Z" fill="#F5BC41"/>
<path d="M7.15234 16.3194C7.15234 16.2365 7.15236 16.1951 7.19377 16.1123C7.19377 16.1951 7.15234 16.278 7.15234 16.3194Z" fill="#F5BC41"/>
<path d="M9.05747 14.4966C9.01605 14.2895 9.01604 14.4138 9.01604 14.5794C9.01604 14.7451 9.01605 14.538 8.97464 14.4552C8.97464 14.4966 9.05745 15.4491 9.01604 15.1592C8.97463 14.8693 8.93322 14.4966 8.89181 14.1653C8.8504 13.9168 8.80898 13.5441 8.80898 13.834C8.85039 14.1653 8.89181 14.2481 8.89181 14.6208C8.8504 14.6622 8.80899 14.0411 8.76758 14.0825C8.76758 14.0825 8.76757 14.2895 8.80898 14.4966C8.76757 14.538 8.72618 13.9582 8.72618 13.9582C8.68477 13.9582 8.72616 13.9996 8.68475 13.834C8.64334 13.5855 8.64334 13.9582 8.68475 14.2067C8.68475 14.4966 8.68475 14.5794 8.68475 14.6208C8.68475 14.3724 8.64335 14.1239 8.64335 13.8754C8.64335 13.5441 8.60192 13.9997 8.60192 14.0825C8.60192 14.1653 8.56052 14.1239 8.56052 14.1239L8.51912 14.4138C8.47771 14.3724 8.43629 13.0886 8.43629 13.9997C8.43629 14.2895 8.43628 14.0825 8.39486 14.0411C8.35345 13.834 8.35347 13.9582 8.31206 14.0825C8.27065 14.3724 8.27064 14.0825 8.22923 13.7926C8.18782 13.5027 8.18782 14.2895 8.1464 14.6208C8.1464 14.4552 8.1464 14.4138 8.1464 14.1653C8.1464 14.0411 8.1464 13.9582 8.1464 13.9168C8.10499 13.7098 8.06359 13.834 8.02217 13.7926C7.98076 13.7512 7.93936 13.5855 7.89794 13.6684C7.85653 13.7512 7.85653 14.2895 7.81512 14.4552C7.81512 14.2895 7.81512 14.3309 7.81512 14.2067C7.81512 14.1239 7.81511 13.9997 7.85652 13.8754C7.85652 13.7512 7.81512 13.834 7.81512 13.834C7.85653 13.834 7.77369 13.9997 7.77369 13.9997C7.73228 13.9997 7.7323 13.8754 7.69089 13.9168C7.64947 13.9582 7.56663 14.5794 7.56663 14.3724C7.56663 14.1653 7.60805 13.5855 7.52523 13.7512C7.48382 13.834 7.35958 14.538 7.4424 13.834C7.40099 13.9168 7.40098 13.9996 7.35957 14.1239C7.52522 13.13 7.35959 13.5441 7.27677 13.5855C7.27677 13.5855 7.15253 13.5441 7.06971 13.834C7.0283 13.8754 7.06971 13.7512 7.06971 13.7098C7.06971 13.6684 7.02829 13.6684 6.98688 13.7098C6.94547 13.7512 6.94547 13.5441 6.90405 13.5855C6.90405 13.5855 6.86265 13.5441 6.77982 13.7926C6.73841 13.9582 6.69701 14.0825 6.65559 14.0825C6.61418 14.0825 6.65558 13.9996 6.697 13.834C6.697 13.7512 6.61418 13.9168 6.65559 13.7926C6.65559 13.7512 6.77983 13.3371 6.65559 13.6684C6.61418 13.8754 6.53135 14.0411 6.48994 14.0411C6.53135 13.9582 6.65559 13.5441 6.65559 13.5441C6.69701 13.3785 6.48995 13.834 6.44854 13.8754C6.40712 13.9168 6.44854 13.7926 6.44854 13.7098C6.44854 13.6684 6.53135 13.3371 6.36571 13.7098C6.28288 13.9582 6.20005 14.0825 6.11722 14.3309C6.15863 14.1653 6.28287 13.834 6.32428 13.6684C6.4071 13.4199 6.07583 14.2481 6.03442 14.3309C5.99301 14.3309 6.32429 13.5027 6.40711 13.3371C6.48993 13.0886 6.28288 13.4613 6.28288 13.4613C6.24147 13.4613 6.28287 13.2542 6.20005 13.5027L6.07582 13.7512C6.07582 13.7512 6.03441 13.834 5.95159 13.9582C5.91018 13.9997 5.74453 14.4138 5.74453 14.4138C5.70312 14.4138 6.15864 13.4613 6.20005 13.2956C6.24146 13.13 6.11723 13.2956 6.07582 13.2956C6.03441 13.2956 6.07582 13.0058 5.78593 13.5441C5.99299 13.1714 5.78594 13.3785 5.74453 13.3371C5.74453 13.3371 5.82735 13.0472 5.78593 13.2128C5.6617 13.4199 5.53746 13.6684 5.49605 13.7926C5.20617 14.2481 5.78593 13.13 5.70311 13.2128C5.70311 13.2128 5.53746 13.5027 5.37182 13.7512C5.20617 13.9997 5.04052 14.2481 5.08193 14.2067C5.16475 14.0825 5.91017 12.8401 5.6617 13.1714C5.49606 13.3371 5.57888 13.13 5.37182 13.4613C5.28899 13.5441 5.08195 13.7926 5.12336 13.6269C5.33042 13.2957 5.49607 12.9644 5.20619 13.3785C5.82736 12.5088 5.41322 12.8815 4.87487 13.6269C4.99911 13.4199 5.16475 13.2128 5.28899 13.0058C5.45464 12.7573 5.37183 12.8401 5.33042 12.8401C5.289 12.8401 5.37183 12.6745 5.12336 13.0058C5.24759 12.8401 5.2476 12.7987 5.20619 12.7987C5.12336 12.7987 5.04053 12.9229 4.70924 13.3371C4.66783 13.3371 5.08194 12.8401 5.16476 12.7159C5.04052 12.8815 4.87487 13.0058 4.87487 13.0058C5.37181 12.426 5.20618 12.5502 5.12336 12.5502C5.08195 12.5502 4.50218 13.1714 4.29512 13.3371C4.08807 13.5441 3.881 13.7926 3.71535 13.9582C3.5497 14.1239 3.71536 13.9168 3.79818 13.834C4.04665 13.5855 4.29511 13.2957 4.54358 13.0472C4.50217 13.0886 4.99912 12.5917 4.9163 12.6331C4.87489 12.6745 4.83347 12.7159 4.83347 12.6745C4.87488 12.6331 4.91629 12.5502 4.9577 12.5502C4.9577 12.5502 4.95771 12.5088 4.83347 12.6331C4.75065 12.7159 3.96382 13.5855 3.92241 13.6269C4.00523 13.5027 4.66783 12.7573 4.08807 13.2542C3.92242 13.4613 3.59112 13.7512 3.38406 13.9997C3.21842 14.2067 3.83958 13.6684 3.63252 13.9168C3.46688 14.0825 3.30125 14.2481 3.1356 14.4552C2.92854 14.6622 3.21841 14.4552 3.21841 14.4966C3.25982 14.4966 3.71537 13.9997 3.96384 13.7512C4.08807 13.5855 4.29513 13.3785 4.37795 13.3371C4.41936 13.3371 4.46078 13.2957 4.37795 13.4199C4.29513 13.5441 4.08806 13.6684 4.00524 13.7512C3.83959 13.9168 3.71535 14.0825 3.50829 14.2895C3.83959 13.9168 3.75678 14.1239 3.96384 13.9168C4.00525 13.9168 3.881 14.0411 3.79818 14.1653C3.71536 14.2895 3.79817 14.2481 3.83958 14.2481C3.88099 14.2481 3.71535 14.4138 3.63252 14.538C3.50829 14.7451 3.54972 14.7451 3.54972 14.7865C3.54972 14.8279 3.46688 15.1178 3.63252 14.8693C3.9224 14.4552 4.04664 14.3309 4.04664 14.4552C4.04664 14.538 3.67394 14.9935 3.92241 14.7451C4.21229 14.4552 3.79819 15.0764 3.96384 14.8279C4.00525 14.7451 4.21231 14.4966 4.37795 14.2481C4.5436 13.9996 4.70924 13.7512 4.70924 13.7512C4.70924 13.7926 4.33653 14.2895 4.2123 14.4552C4.08806 14.6622 4.12948 14.6622 3.96384 14.9521C3.92242 14.9521 3.83958 15.1178 3.83958 15.1178C3.88099 15.1178 3.96384 14.9935 3.96384 14.9521C4.12948 14.7451 4.12948 14.7865 4.17089 14.7865C4.17089 14.7865 4.46076 14.2481 4.46076 14.3724C4.46076 14.4966 4.00523 15.1178 3.92241 15.242C3.83959 15.4905 4.12948 15.1178 4.29512 14.8279C4.50218 14.538 4.41934 14.6208 4.46076 14.6208C4.46076 14.5794 4.41936 14.7865 4.50218 14.6622C4.66783 14.4138 4.75064 14.2481 4.66781 14.4552C4.50217 14.8279 4.41935 14.7451 4.2123 15.1178C4.33653 15.0349 4.04665 15.4491 4.29512 15.2006C4.41936 15.0349 4.37794 15.2834 4.62641 14.8279C4.50218 15.0349 4.46078 15.1592 4.58501 14.9935C4.70925 14.8279 4.83347 14.6208 4.9577 14.4138C5.20617 14.0411 4.87489 14.6622 4.79207 14.7865C4.70925 14.9521 4.37793 15.5733 4.46076 15.4491C4.54358 15.3662 4.75064 15.1178 4.46076 15.6147C4.66781 15.2834 5.20618 14.2895 5.04053 14.7036C4.95771 14.9107 4.50217 15.6975 4.75064 15.4491C4.79205 15.4076 5.04054 14.9935 4.99913 15.0764C4.95772 15.2006 4.79205 15.4905 4.75064 15.6147C4.70923 15.7389 4.87487 15.4905 4.87487 15.4905C4.91628 15.4905 5.08195 15.1178 5.12336 14.9935C5.24759 14.8279 5.20617 14.9935 5.37182 14.7036C5.41323 14.6622 5.66169 14.2067 5.49605 14.5794C5.41322 14.8279 5.41323 14.9521 5.45465 14.9521C5.49606 14.9521 5.57888 14.7451 5.6617 14.6622C5.74453 14.5794 5.2476 15.5319 5.20619 15.7389C5.16477 15.9046 5.41323 15.2834 5.45465 15.242C5.49606 15.1178 5.6203 14.9521 5.53747 15.1592C5.57889 15.0764 5.82736 14.4552 5.82736 14.4552C5.82736 14.4966 5.41322 15.5319 5.28899 15.7803C5.3304 15.7803 5.53746 15.242 5.57888 15.242C5.33041 15.8632 5.57889 15.4076 5.53747 15.5319C5.49606 15.6561 5.37183 15.9046 5.41324 15.946C5.41324 15.9874 5.45464 15.9046 5.49605 15.8218C5.57887 15.7389 5.53746 15.9046 5.57888 15.9046L5.74453 15.8632C5.78594 15.6975 5.91017 15.3248 5.99299 15.1592C6.07582 14.9935 5.91016 15.5319 5.91016 15.6561C5.82734 15.946 5.82734 16.1116 5.91016 15.9874C5.99299 15.8218 6.03442 15.5733 6.03442 15.4491C6.07583 15.2834 6.28288 15.0349 6.15865 15.4491C5.91018 16.2359 6.44854 14.8693 6.44854 14.8693C6.40712 15.0349 6.24147 15.4905 6.28288 15.4905C6.28288 15.4905 6.48994 15.242 6.36571 15.5733C6.36571 15.6147 6.53136 15.2834 6.44854 15.5319C6.40712 15.6561 6.3657 16.0702 6.40711 15.8632C6.48993 15.5733 6.57277 15.0349 6.57277 14.9521L6.697 14.6622C6.73841 14.6208 6.65558 14.9935 6.61417 15.1592C6.57276 15.4076 6.53135 15.6561 6.48994 15.9046C6.53135 15.7804 6.57276 15.6561 6.61417 15.4905C6.77981 14.9935 6.65559 15.3248 6.65559 15.6147C6.57277 16.2773 6.94546 15.1592 6.82123 15.9046C6.82123 15.9874 6.98687 15.242 6.94546 15.5319C6.94546 15.5733 6.77982 16.3601 6.90405 16.0702C6.94547 15.9046 7.0283 15.4491 7.06971 15.4491C7.06971 15.4491 7.06971 15.7389 7.06971 15.7803C7.06971 15.7803 7.0697 15.4905 7.02828 15.7803C6.98687 15.9874 7.0283 16.1116 7.06971 16.0702C7.06971 16.0702 7.1111 16.1116 7.15251 15.9046C7.19393 15.6561 7.23535 15.2834 7.19394 15.2834C7.19394 15.1592 7.27677 14.9107 7.27677 14.8279C7.31818 14.6622 7.27677 14.9935 7.27677 15.0764C7.27677 15.3248 7.23535 15.6975 7.19394 16.1116C7.23535 15.946 7.27677 15.7389 7.27677 15.7389C7.27677 15.7389 7.23534 16.1116 7.23534 16.1945C7.23534 16.4429 7.31816 16.1945 7.35957 16.0702C7.40098 15.9046 7.44241 15.8218 7.52523 15.5319C7.52523 15.4491 7.60806 15.0349 7.60806 15.2006C7.60806 15.242 7.56663 15.4905 7.56663 15.7389C7.56663 15.8632 7.52523 15.946 7.52523 16.0288C7.52523 16.1116 7.52524 16.1531 7.48383 16.1531C7.52524 16.1116 7.56665 15.5733 7.60806 15.5733C7.60806 15.5733 7.56665 15.946 7.60806 15.9874C7.60806 16.0702 7.64947 16.0702 7.69089 15.8218C7.7323 15.7389 7.81512 15.6147 7.81512 15.3662C7.89794 15.1592 7.85652 15.6147 7.85652 15.946C7.89793 16.1945 7.93936 15.4905 7.89794 15.5319C7.93936 15.4905 8.02216 15.0764 8.06358 14.6208C8.06358 14.9107 8.02217 15.1592 8.02217 15.4905C8.02217 15.6975 8.02217 15.8218 8.02217 15.9874C8.06359 15.4491 8.10499 15.4076 8.1464 15.4491C8.18782 15.4905 8.18782 15.9046 8.22923 16.1531C8.22923 15.8218 8.35345 15.9046 8.39486 15.8632C8.43628 15.7804 8.43629 15.3662 8.43629 15.3662C8.43629 15.4076 8.64333 16.6086 8.60192 15.7389C8.64333 15.7389 8.72618 16.3601 8.72618 16.0288C8.72618 15.6975 8.72618 15.5319 8.72618 15.242C8.72618 15.6147 8.76758 15.9046 8.76758 16.2359C8.76758 15.9046 8.80898 15.5319 8.80898 15.2006C8.80898 15.2834 8.85041 16.1116 8.85041 16.0702C8.89182 15.9046 8.85039 15.1592 8.80898 14.7865C8.85039 14.7451 8.89182 15.6147 8.93324 15.8218C8.97465 16.1945 8.97463 15.7803 9.01604 15.9874C9.05745 16.0702 9.05747 16.3601 9.05747 16.2359C9.05747 16.1531 9.05746 15.8632 9.09887 15.946C9.14028 15.9874 9.14028 16.0288 9.1817 16.0702C9.22311 16.1531 9.34735 16.6914 9.34735 16.5258C9.34735 16.4843 9.26452 15.9046 9.26452 15.9046C9.22311 15.4076 9.1817 15.2834 9.26452 15.4076C9.30594 15.4491 9.26452 15.1592 9.26452 15.0349C9.22311 15.1178 9.09888 14.6622 9.05747 14.4966Z" fill="#F5BC41"/>
<path d="M8.02227 15.9463C8.02227 15.9877 8.02227 16.0705 8.02227 16.1533C7.98086 16.0705 7.98086 15.9877 8.02227 15.9463Z" fill="#F5BC41"/>
<path d="M3.21884 13.5856C3.26025 13.5028 3.26025 13.4614 3.01178 13.7098C2.80473 13.9169 2.88756 13.9169 2.97038 13.9169L3.21884 13.627V13.5856Z" fill="#F5BC41"/>
<path d="M4.75087 12.3849C4.95793 12.1364 4.54382 12.5091 4.75087 12.3021C4.87511 12.095 4.41959 12.5091 4.29536 12.5505C4.58524 12.2607 4.62665 12.2192 4.50241 12.3021C4.37818 12.3849 4.17113 12.5505 3.96407 12.7162C4.29536 12.4677 4.91653 11.7637 4.29536 12.3849C4.0883 12.6334 4.08828 12.5505 4.25393 12.3849C4.5024 12.1778 4.66806 12.0122 4.62664 12.0122C4.79229 11.8051 3.96406 12.592 3.88124 12.6334C3.71559 12.7576 2.80454 13.503 2.72172 13.5858C2.68031 13.6687 3.053 13.3788 2.88735 13.5444C2.80453 13.6272 2.47323 13.9585 2.68029 13.8343C2.84594 13.6687 3.09442 13.4202 3.26006 13.2959C3.3843 13.2131 3.4257 13.1717 3.50852 13.0889C3.26005 13.2959 2.92876 13.6272 3.21864 13.4202C3.34287 13.3374 3.83983 12.9232 3.96407 12.799L3.09441 13.5858C3.13582 13.5858 3.46713 13.2545 3.54995 13.2131C3.67419 13.1717 3.54995 13.2959 3.54995 13.3374C3.54995 13.3788 3.67417 13.3374 3.50852 13.5858C3.46711 13.6272 3.21865 13.9171 3.26006 13.9171C3.26006 13.9171 3.67417 13.503 3.71558 13.4202C3.75699 13.4202 3.46712 13.7515 3.26006 13.9171C3.42571 13.7515 3.59136 13.6272 3.67418 13.5858C3.757 13.5444 3.79842 13.503 4.0883 13.2131C4.29536 12.9232 4.58523 12.592 4.75087 12.3849Z" fill="#F5BC41"/>
<path d="M4.58496 11.9712C4.62637 11.9712 4.7092 11.847 4.58496 11.9712V11.9712Z" fill="#F5BC41"/>
<path d="M4.37794 12.0956C4.66782 11.8057 3.88098 12.4683 3.71534 12.5925C3.79816 12.5097 4.6678 11.7643 4.46074 11.93C4.2951 12.0542 4.00522 12.3027 3.9224 12.3441C3.88098 12.3441 3.79816 12.3441 3.83957 12.3027C3.83957 12.2612 4.00523 12.1784 4.08805 12.0956C4.37793 11.8471 4.29511 11.8885 4.00522 12.0956C4.21228 11.93 3.59111 12.3441 3.79817 12.137C3.9224 12.0128 4.21229 11.8471 4.29511 11.7643C4.2537 11.7643 3.75674 12.0956 3.42545 12.3441C3.67392 12.137 3.88099 11.9714 4.21228 11.7643C3.96381 11.93 3.177 12.4269 3.13559 12.4269C3.38406 12.2612 4.00522 11.8057 3.79817 11.8885C3.67393 11.93 3.30122 12.3027 3.09416 12.3855C2.80428 12.5097 3.75676 11.93 3.67394 11.93C3.63252 11.93 3.21841 12.2198 3.46688 12.0128L3.71534 11.8471C3.5911 11.8885 3.46688 12.0128 3.34265 12.0956C3.75676 11.8057 3.83957 11.7229 4.04663 11.5987C4.12945 11.5158 3.96381 11.6401 3.79817 11.7229C4.00522 11.5987 4.12945 11.4744 4.12945 11.433C4.12945 11.3916 3.92241 11.5572 3.75676 11.5987C3.63253 11.6401 3.50828 11.7229 3.50828 11.6815C3.50828 11.6815 3.881 11.433 3.96382 11.3916C3.881 11.433 3.71535 11.4744 3.54971 11.5572C3.46688 11.5987 3.42545 11.6401 3.42545 11.6401C2.84569 11.9714 2.59722 12.137 2.05887 12.4683C1.47911 12.7996 1.85181 12.6754 1.85181 12.7168C1.85181 12.7582 1.64476 13.0067 1.93464 12.841C2.26593 12.6754 2.43159 12.5097 2.63864 12.3441C2.63864 12.3441 3.50828 11.8885 3.59111 11.8057C3.38405 11.93 3.21839 12.0542 3.01133 12.1784C2.92851 12.2612 2.76287 12.3855 2.76287 12.3855C2.59723 12.4683 2.05889 12.7996 2.1003 12.7996C2.14171 12.841 1.76899 13.2965 2.47299 12.7996C2.39016 12.841 2.473 12.8824 2.51441 12.8824C2.55583 12.8824 2.26594 13.1309 2.22453 13.1723C2.18312 13.2551 2.22451 13.2965 2.39016 13.2137C2.76286 13.0067 2.22452 13.4208 2.26593 13.4622C2.59722 13.1723 2.59723 13.1723 2.96993 12.8824C3.09417 12.7996 3.59111 12.4683 3.38405 12.634C3.09417 12.9238 2.63865 13.2137 2.30736 13.4622C2.34877 13.4622 2.34875 13.6278 2.59722 13.4208C2.80428 13.2551 3.38406 12.7168 3.54971 12.634C3.83959 12.5925 4.12947 12.3441 4.37794 12.0956Z" fill="#F5BC41"/>
<path d="M2.22483 12.3018C2.05918 12.3432 1.85213 12.5088 1.89354 12.5088C1.97636 12.5502 2.26624 12.3018 2.22483 12.3018Z" fill="#F5BC41"/>
<path d="M3.46718 11.4746C2.88742 11.7645 3.21871 11.5574 3.46718 11.4746V11.4746Z" fill="#F5BC41"/>
<path d="M2.55597 11.9299C2.97008 11.6814 3.46703 11.3915 3.88114 11.143C3.83973 11.143 3.50842 11.2673 3.21854 11.3915C2.84584 11.5571 3.25996 11.4329 3.17714 11.4743C2.97008 11.5571 2.80443 11.5986 3.01148 11.4743C3.21854 11.3501 3.59125 11.1844 3.71549 11.1016C4.17102 10.7703 3.0115 11.4329 2.92868 11.4743C2.80445 11.4743 3.7155 11.0188 3.75691 10.9774C3.83974 10.8946 3.88114 10.8531 3.3842 11.1016C3.34279 11.0602 3.67408 10.936 3.79832 10.8531C3.88114 10.8117 3.83973 10.7703 3.46703 10.936C4.12961 10.6461 3.3428 10.8531 3.54986 10.7289C3.54986 10.7289 3.54984 10.7289 3.59126 10.6875C3.3842 10.7703 2.76302 11.0188 2.34891 11.2258C2.01761 11.3501 2.10043 11.3501 1.97619 11.4329C1.89337 11.4743 1.27219 11.7228 1.56207 11.64C1.72772 11.5986 1.85198 11.5157 1.89339 11.5157L1.93479 11.5571C2.01761 11.5571 2.43174 11.3501 2.63879 11.3087C3.13573 11.143 1.72773 11.7228 1.72773 11.6814C1.64491 11.7228 2.26609 11.5157 2.01762 11.64C1.76915 11.7642 1.35504 11.9713 1.47927 11.9713C1.52068 11.9713 1.85197 11.8884 2.01762 11.8056C2.05903 11.7642 1.81057 11.847 1.89339 11.8056C2.18327 11.6814 2.26607 11.7642 2.18325 11.8056C2.14184 11.847 2.0176 11.8884 1.97619 11.8884C1.81054 11.9298 1.81056 11.9713 1.52067 12.0955C1.72773 12.0127 2.01762 11.8884 2.30751 11.8056C2.18327 11.847 1.39643 12.2611 1.56207 12.2197C1.68631 12.1783 2.01761 12.0127 2.14185 11.9713C2.18326 11.9713 1.9762 12.0955 1.93479 12.0955C1.76914 12.2611 2.84585 11.64 1.93479 12.1783C1.56209 12.4268 1.47926 12.5096 1.85196 12.344C2.26608 12.1783 1.35503 12.6753 1.72773 12.5096C2.14185 12.3026 2.80444 11.9298 3.25997 11.6814C4.37808 11.1016 2.88726 11.8056 2.55597 11.9299Z" fill="#F5BC41"/>
<path d="M3.63271 10.6464C3.63271 10.6464 3.59131 10.6464 3.59131 10.6878C3.59131 10.6878 3.75695 10.6049 3.63271 10.6464Z" fill="#F5BC41"/>
<path d="M1.52069 10.2317C1.47928 10.1903 0.98233 10.2731 0.940918 10.356C0.98233 10.356 1.5621 10.2731 1.52069 10.2317Z" fill="#F5BC41"/>
<path d="M1.06503 9.94219C0.940792 10.025 1.3135 9.9836 1.27209 9.94219C1.23067 9.90078 1.14785 9.90078 1.06503 9.94219Z" fill="#F5BC41"/>
<path d="M2.18351 11.267C2.30774 11.2256 2.5148 11.1428 2.59763 11.1014C2.8461 10.9771 2.22493 11.2256 2.88751 10.9357C3.09457 10.8529 3.59151 10.6044 3.30163 10.6873C3.09457 10.7701 2.80468 10.8529 2.59763 10.9357C2.8461 10.8529 3.34305 10.6458 3.38446 10.6044C3.38446 10.563 3.05316 10.6458 3.50869 10.4802C3.21881 10.563 2.88752 10.6873 2.84611 10.6873C2.97035 10.6458 3.67434 10.3974 3.67434 10.3974C3.67434 10.3974 3.09457 10.5216 3.01174 10.563C2.5148 10.6458 3.5087 10.3974 3.55011 10.356C3.55011 10.356 3.26021 10.3974 3.2188 10.3974C3.13598 10.3974 2.8047 10.5216 2.63905 10.563C2.59764 10.5216 3.21882 10.3974 3.34306 10.356C3.42588 10.3145 3.38447 10.3145 3.55011 10.2317C3.79858 10.1489 3.75717 10.1489 3.55011 10.1903C3.42588 10.1903 3.42588 10.1903 3.55011 10.1489C3.59153 10.1075 4.08846 9.98326 3.79857 10.0247C3.67434 10.0661 3.26021 10.1903 3.2188 10.1903C3.17739 10.1903 3.42588 10.1075 3.55011 10.0661C4.17129 9.90043 3.34304 10.0661 3.2188 10.1075C3.26021 10.0661 3.67433 9.98326 3.63292 9.94184C3.59151 9.90043 3.38445 9.98326 3.2188 10.0247C3.05315 10.0661 3.67433 9.85902 3.71575 9.85902C3.79857 9.81761 3.46728 9.90043 3.38446 9.90043C3.1774 9.90043 3.09457 9.90043 2.68045 9.94184C2.51481 9.94184 2.22494 9.98326 2.43199 9.94184C2.59764 9.90043 3.1774 9.7762 3.1774 9.73479C3.13599 9.69337 3.42587 9.65196 3.59152 9.61055C4.04704 9.48632 2.76328 9.65196 3.59152 9.48631C3.1774 9.56914 2.84611 9.61055 2.97034 9.52773C3.09458 9.48632 3.71576 9.36208 3.67434 9.36208C3.63293 9.32067 2.59763 9.56914 2.4734 9.56914C1.89363 9.65196 1.68657 9.65196 1.23105 9.69337C0.858341 9.73478 1.02399 9.81761 1.02399 9.85902C1.10681 9.90043 1.68659 9.73478 1.89365 9.69337C1.76941 9.69337 1.60376 9.73479 1.3967 9.73479C1.64517 9.69337 1.89365 9.65196 2.10071 9.65196C2.39059 9.65196 2.01788 9.69337 1.81082 9.73479C1.47953 9.7762 1.0654 9.90043 1.64516 9.81761C1.85222 9.7762 2.5148 9.69337 2.39057 9.73479C2.30774 9.7762 1.52093 9.90043 1.31387 9.94184C1.02399 9.98326 1.14823 10.0247 1.18964 10.0661C1.23106 10.1489 0.982576 10.2731 1.85222 10.0661C1.56234 10.1489 2.01787 10.0661 2.05928 10.1075C2.05928 10.1075 1.64516 10.1903 1.64516 10.2317C1.64516 10.2317 2.76329 10.0247 2.30776 10.1489C2.22494 10.1903 1.81082 10.3145 1.60376 10.356C1.3967 10.3974 1.7694 10.2731 1.85222 10.2317C1.93504 10.1903 1.76939 10.2317 1.56233 10.2731C1.27245 10.356 1.35528 10.3146 1.35528 10.2731C0.982571 10.356 0.858341 10.4802 1.23105 10.3974C1.27246 10.4388 0.982591 10.5216 1.06541 10.563C1.14824 10.6044 1.39669 10.563 1.76939 10.4388C1.93504 10.3974 2.14212 10.3146 2.30776 10.2731C2.432 10.2317 3.05317 10.1489 2.84611 10.1903C2.55623 10.2731 2.26633 10.356 1.97645 10.4388C1.68657 10.5216 1.52094 10.6044 1.47953 10.6458C1.47953 10.6873 1.14823 10.8115 1.10682 10.8529C1.14823 10.8115 3.88139 10.0661 1.56233 10.7287C1.14822 10.8529 1.02399 10.9357 1.31387 10.8943C1.43811 10.8943 2.30776 10.6458 2.30776 10.6458C2.30776 10.6458 2.22493 10.6873 2.14211 10.6873C2.01787 10.7287 1.89364 10.7701 1.72799 10.8115C1.43811 10.8943 1.14822 11.0185 1.14822 11.0185C1.4381 10.9357 2.39057 10.6044 2.4734 10.6044C2.55622 10.6458 1.60375 10.8943 1.4381 10.9771C1.35528 11.0185 1.4381 11.0185 1.4381 11.06C1.4381 11.1014 1.23106 11.1428 1.18964 11.1842C1.14823 11.2256 1.35529 11.1842 1.52093 11.1428C1.68658 11.1014 1.89365 11.06 1.89365 11.06C1.76941 11.1014 1.47953 11.1842 1.3967 11.267C1.35529 11.3084 1.43811 11.3084 1.52093 11.267C1.60376 11.267 2.30775 11.0185 2.26634 11.06C2.18351 11.1014 1.60375 11.3498 1.4381 11.4327C1.23105 11.5569 1.60376 11.4327 1.81082 11.3498C2.1007 11.3084 1.93504 11.3498 2.18351 11.267Z" fill="#F5BC41"/>
<path d="M2.30731 9.56954C2.5972 9.52813 3.09412 9.44531 2.88706 9.44531C2.88706 9.44531 2.88707 9.44531 2.84566 9.44531L1.9346 9.56954C2.10025 9.52813 2.22447 9.52813 2.39012 9.52813C2.14165 9.52813 1.52049 9.69378 2.30731 9.56954Z" fill="#F5BC41"/>
<path d="M1.35514 9.44531C1.2309 9.44531 0.775391 9.48672 0.775391 9.52813C0.775391 9.56955 1.35514 9.48672 1.35514 9.44531Z" fill="#F5BC41"/>
<path d="M3.88137 9.23792C3.92278 9.23792 3.55008 9.23792 3.55008 9.23792C3.50867 9.23792 3.71571 9.1965 3.63288 9.15509C3.59147 9.15509 3.46724 9.11368 3.30159 9.11368C3.21877 9.11368 2.9289 9.15509 2.9289 9.15509C2.9289 9.15509 3.05313 9.11368 3.17736 9.11368C3.3016 9.11368 3.42583 9.07227 3.38442 9.07227C3.17736 9.07227 2.639 9.15509 2.39053 9.15509L1.02395 9.32074C1.06536 9.36215 2.01784 9.27932 1.93501 9.27932C1.85219 9.32074 0.858311 9.36215 0.899723 9.40356C1.68654 9.27933 1.23101 9.40356 1.5623 9.40356C1.89359 9.36215 2.5562 9.23791 2.51479 9.32074C2.47338 9.36215 2.01784 9.40356 1.81078 9.40356C1.5209 9.40356 1.02395 9.5278 0.816895 9.61062C0.858306 9.65203 1.97642 9.48638 2.18347 9.48638C2.55618 9.44497 3.42584 9.32073 3.46725 9.36215C3.38443 9.32073 3.46725 9.32074 3.88137 9.23792Z" fill="#F5BC41"/>
<path d="M3.71569 8.98961C3.7571 8.9482 3.67427 8.9482 3.4258 8.9482C3.21874 8.9482 2.80464 8.98961 2.639 8.98961C2.51476 8.98961 3.59146 8.86538 3.67429 8.82397C3.75711 8.78256 3.63287 8.78255 3.59146 8.78255C3.50864 8.74114 3.46722 8.74114 3.50863 8.69973C3.50863 8.65832 3.79851 8.61691 3.30157 8.61691C3.21875 8.61691 1.72793 8.65832 2.05922 8.61691C2.10063 8.61691 2.51476 8.61691 2.639 8.61691C2.80464 8.61691 2.97028 8.57549 3.09451 8.57549C3.46722 8.53408 3.46723 8.45126 3.46723 8.40985C3.46723 8.40985 3.50863 8.32703 3.30157 8.32703C3.01169 8.28561 3.09453 8.36844 3.13594 8.36844C3.17735 8.36844 2.55618 8.36844 2.51477 8.36844C2.18347 8.36844 1.76934 8.36844 1.43805 8.36844C1.14817 8.36844 1.39664 8.40985 1.23099 8.40985C0.941108 8.40985 0.816878 8.40985 0.899701 8.45126C1.02394 8.49267 1.14818 8.53408 1.68653 8.53408C1.85218 8.53408 2.2663 8.49267 2.10065 8.49267C1.89359 8.49267 2.47335 8.49267 2.51477 8.49267C2.59759 8.49267 3.17735 8.49267 3.05311 8.53408C3.0117 8.53408 2.63899 8.53408 2.55617 8.53408C2.3077 8.53408 2.01782 8.57549 1.81076 8.57549C1.81076 8.57549 1.68652 8.61691 1.52088 8.61691C1.35523 8.65832 1.18958 8.65832 1.10676 8.65832C1.06535 8.65832 1.2724 8.61691 1.14816 8.61691C1.02393 8.61691 0.734049 8.78255 1.43805 8.69973C1.72793 8.69973 1.6037 8.69973 1.72793 8.74114C1.89358 8.78255 1.85216 8.74114 2.05922 8.74114C1.9764 8.74114 1.39664 8.82396 1.31382 8.86537C1.02394 8.90679 1.14818 8.9482 1.18959 8.98961C0.858294 9.11385 1.935 8.9482 2.30771 8.90679C2.39053 8.90679 2.39051 8.90679 2.39051 8.9482C2.39051 8.9482 2.05923 8.98961 2.01782 8.98961C1.68653 9.03102 1.27241 9.07243 1.52088 9.07243C1.76935 9.07243 2.22488 9.07243 2.51477 9.07243C2.55618 9.11384 2.92888 9.07243 3.05311 9.07243C3.09452 9.07243 2.18347 9.11385 2.10065 9.11385C1.85218 9.11385 1.35522 9.15526 1.23099 9.19667C1.02393 9.27949 1.52088 9.23808 1.81076 9.19667C1.97641 9.15526 2.14205 9.11385 2.34911 9.11385C2.55617 9.07244 2.47335 9.11385 2.43194 9.11385C2.43194 9.19667 3.67428 9.03102 3.71569 8.98961Z" fill="#F5BC41"/>
<path d="M3.01158 8.16098C2.39041 8.11957 3.4257 8.16098 3.01158 8.16098V8.16098Z" fill="#F5BC41"/>
<path d="M2.76286 8.20236C2.80427 8.16095 3.17697 8.20236 3.30121 8.20236C3.46685 8.20236 3.17697 8.16095 3.01132 8.16095C2.80426 8.16095 1.35486 8.03671 1.64474 8.11954C1.35486 8.11954 1.18921 8.11954 1.23062 8.07812C0.816505 8.07812 1.31346 8.20236 1.39628 8.20236C1.68616 8.28518 2.14167 8.3266 2.80426 8.28518C3.96379 8.28518 2.68004 8.24377 2.76286 8.20236Z" fill="#F5BC41"/>
<path d="M3.42581 7.66406C3.59146 7.70547 3.63288 7.70547 3.59147 7.66406C3.46723 7.66406 3.3844 7.66406 3.42581 7.66406Z" fill="#F5BC41"/>
<path d="M2.43209 7.00123C2.43209 7.00123 2.39068 7.00123 2.34926 6.95982C2.22503 6.9184 2.18362 6.9184 2.14221 6.9184C1.93515 6.83558 1.72808 6.79417 1.76949 6.83558C1.76949 6.87699 2.5149 7.04264 2.59772 7.08405C2.68055 7.04264 2.55633 7.00123 2.43209 7.00123Z" fill="#F5BC41"/>
<path d="M2.43189 7.00177C2.51471 7.04318 2.14199 6.91895 2.1834 6.91895C2.22481 6.91895 2.30763 6.96036 2.39046 6.96036C2.34905 6.96036 2.39047 6.96036 2.43189 7.00177Z" fill="#F5BC41"/>
<path d="M1.23066 6.67023C1.23066 6.62881 1.39631 6.67023 1.39631 6.62882C0.982198 6.46317 1.23066 6.62881 1.23066 6.67023Z" fill="#F5BC41"/>
<path d="M1.39676 8.03744C1.35535 7.99603 2.10076 7.99603 2.01794 7.99603C1.93511 7.95461 1.72805 7.95462 1.60382 7.9132C1.60382 7.9132 1.43816 7.83038 1.56239 7.87179C1.39675 7.83038 1.2311 7.83038 1.02405 7.83038C1.43816 7.87179 1.68663 7.87179 2.05934 7.87179C1.81087 7.83038 1.06546 7.74756 1.2311 7.70615C1.35534 7.66473 1.97651 7.74756 2.18357 7.78897C2.22498 7.78897 2.39063 7.83038 2.39063 7.78897C2.47345 7.78897 2.34922 7.74756 2.2664 7.74756C2.14216 7.70615 1.85228 7.66473 1.64522 7.62332C1.31393 7.58191 0.941223 7.5405 1.02405 7.49909C1.06546 7.45768 1.76946 7.5405 1.93511 7.5405C2.01793 7.5405 1.81087 7.45768 1.64522 7.45768C1.47957 7.45768 1.27252 7.45767 1.10687 7.41626C0.651346 7.33344 0.73416 7.29203 1.14828 7.37485C0.98263 7.33344 0.775592 7.29203 0.858415 7.29203C0.941238 7.29203 1.31394 7.33344 1.47959 7.33344C2.05935 7.41626 2.68052 7.49909 3.26029 7.58191C2.84617 7.5405 2.39064 7.37485 2.01794 7.33344C1.85229 7.29203 1.64522 7.29203 1.43816 7.25062C1.18969 7.20921 1.56241 7.2092 1.60382 7.2092C1.8937 7.25062 2.72193 7.37485 2.55628 7.29203C2.47346 7.25062 1.64522 7.16779 1.56239 7.16779C0.858395 7.12638 1.14828 7.04356 1.14828 7.04356C1.14828 7.00215 0.816988 6.91932 1.02405 6.91932C1.10687 6.91932 1.521 7.00215 1.68665 7.04356C1.89371 7.08497 2.72194 7.25062 2.72194 7.2092C2.72194 7.2092 2.63911 7.2092 2.55628 7.16779C2.47346 7.12638 2.3078 7.12638 2.18357 7.08497C2.05933 7.04356 1.93511 7.04356 1.81088 7.00215C1.72805 7.00215 1.64522 6.96073 1.64522 6.96073C1.64522 6.96073 1.89369 7.00215 1.76945 6.96073C1.68663 6.91932 1.31394 6.87791 1.1897 6.8365C0.568528 6.67085 1.27251 6.79509 1.56239 6.8365C1.27251 6.75368 0.734165 6.62944 1.2311 6.71227C1.68663 6.79509 2.6391 7.00215 3.09463 7.12638L2.80474 7.00215C2.55627 6.91932 2.30782 6.8365 2.01794 6.75368C1.31394 6.58803 2.2664 6.75368 2.2664 6.75368C2.2664 6.75368 1.43817 6.54662 1.72805 6.58803C1.81087 6.58803 1.43816 6.4638 1.43816 6.42238C1.43816 6.38097 1.85228 6.50521 1.85228 6.50521C1.85228 6.54662 0.568518 6.1325 1.02405 6.17391C1.27252 6.21532 2.10075 6.50521 2.47345 6.58803C2.2664 6.50521 2.10076 6.42238 1.89371 6.33956C1.76947 6.29815 1.47958 6.17391 1.31393 6.09109C1.27252 6.09109 1.35535 6.1325 1.27253 6.1325C1.02406 6.09109 1.10687 5.96685 1.10687 5.96685C1.10687 5.92544 1.02404 5.80121 1.35533 5.96685C2.47345 6.46379 0.98265 5.67697 1.27253 5.71838C1.43818 5.7598 2.10076 6.04968 2.30782 6.1325C2.72194 6.29815 3.3431 6.54662 3.59157 6.71227C3.79863 6.8365 3.63299 6.75368 3.26029 6.58803C3.01182 6.46379 2.72193 6.4638 2.63911 6.42238C2.88758 6.54662 3.30168 6.71227 3.63298 6.8365C3.46733 6.75368 1.97652 6.21533 2.43205 6.42238C2.80476 6.58803 3.30169 6.75368 3.50875 6.87791C3.67439 6.96074 3.92287 7.12638 3.38452 6.91932C3.84004 7.08497 3.59158 7.00215 3.34311 6.96073C3.26029 6.91932 2.63911 6.79509 3.05323 6.91932C3.34311 7.00215 3.75723 7.16779 3.55017 7.12638C3.3017 7.08497 3.59156 7.16779 3.63298 7.2092C3.13604 7.12638 3.63298 7.33344 3.63298 7.37485C3.63298 7.37485 3.63298 7.41626 3.42592 7.37485C3.38451 7.37485 3.26029 7.33344 3.13606 7.33344C3.01182 7.33344 2.929 7.29203 2.929 7.29203C2.929 7.29203 3.38452 7.41626 3.46734 7.45768C3.63299 7.49909 3.42593 7.49909 3.26029 7.49909C2.63911 7.41626 3.26027 7.49909 3.42592 7.5405C3.50874 7.58191 3.50875 7.58191 3.50875 7.58191C3.46733 7.58191 3.21887 7.5405 3.17746 7.5405C3.13605 7.5405 3.63299 7.66473 3.59157 7.66473C3.50875 7.66473 2.97041 7.62332 2.72194 7.62332C2.30782 7.62332 3.26029 7.70615 3.46734 7.74756C3.92287 7.78897 3.26029 7.78897 3.55017 7.83038C2.88759 7.74756 3.63298 7.9132 3.42592 7.9132C3.09462 7.87179 2.80475 7.83038 2.55628 7.87179L2.22499 7.9132C2.51488 7.9132 2.88758 7.95462 3.17746 7.95462C3.26028 7.95462 3.55016 7.95462 3.59157 7.95462C3.6744 7.95462 3.59156 7.95462 3.42592 7.95462C3.42592 7.95462 3.55016 7.99603 3.38452 7.99603C3.09463 7.99603 3.05323 7.99603 3.05323 7.99603C3.13605 7.99603 3.3431 8.03744 3.09463 8.03744C3.21886 8.07885 3.09464 8.03744 3.55017 8.07885C3.38453 8.07885 3.42593 8.16167 2.76334 8.07885C2.43205 8.07885 2.22498 8.07885 1.97651 8.03744H1.60382C1.60382 8.03744 1.60382 8.03744 1.39676 8.03744ZM2.47345 7.58191C2.59769 7.58191 2.22499 7.49909 2.01794 7.49909C1.8937 7.49909 1.81087 7.45768 1.72805 7.45768C1.97652 7.49909 2.22498 7.58191 2.47345 7.58191Z" fill="#F5BC41"/>
<path d="M2.88708 6.13199C3.05272 6.21482 3.30121 6.33905 3.34262 6.33905C3.34262 6.29764 2.55578 5.96635 2.88708 6.13199Z" fill="#F5BC41"/>
<path d="M3.50842 6.54576C3.38419 6.46294 3.17714 6.38012 3.05291 6.29729C2.80444 6.13165 3.17714 6.33871 3.38419 6.46294C3.50843 6.54576 4.0882 6.75282 3.75691 6.58717C3.50844 6.46294 3.09432 6.25588 2.84585 6.13165C2.22467 5.92459 2.47315 5.92459 2.51456 5.92459C2.39032 5.84176 2.18325 5.75894 1.97619 5.67612C1.93478 5.63471 1.89337 5.63471 1.85196 5.5933C1.68631 5.51047 1.43785 5.34482 1.31361 5.30341C1.10655 5.262 1.39644 5.42765 1.6035 5.51047C1.64491 5.55188 2.34891 5.88318 2.10044 5.80035C1.89338 5.71753 1.56207 5.55188 1.35501 5.46906C1.14795 5.38624 1.27219 5.51047 1.35501 5.55188C1.47925 5.67612 1.39643 5.67612 1.43784 5.75894C1.47925 5.84176 2.3489 6.21447 2.68019 6.3387C3.13572 6.50435 3.88113 6.79423 3.50842 6.54576Z" fill="#F5BC41"/>
<path d="M1.8108 5.55195C1.85221 5.59336 1.89362 5.59337 1.93503 5.63478C2.10067 5.7176 1.56233 5.38631 1.8108 5.55195Z" fill="#F5BC41"/>
<path d="M2.26584 5.05482C2.10019 4.93058 1.4376 4.51646 1.64466 4.68211C1.7689 4.76493 2.26584 5.09623 2.26584 5.05482Z" fill="#F5BC41"/>
<path d="M2.59767 5.13791C2.39061 4.93086 1.68661 4.51674 1.76943 4.64098C1.89367 4.7238 2.92896 5.38638 2.59767 5.13791Z" fill="#F5BC41"/>
<path d="M2.59737 5.13854C2.47313 4.97289 2.76302 5.26277 2.59737 5.13854V5.13854Z" fill="#F5BC41"/>
<path d="M3.63273 3.10942C3.42568 2.73672 3.09439 2.44683 3.38427 2.86095C3.54992 3.10942 3.79838 3.3993 3.63273 3.10942Z" fill="#F5BC41"/>
<path d="M5.62056 4.68251C5.28926 4.10275 5.53773 4.43404 5.62056 4.68251V4.68251Z" fill="#F5BC41"/>
<path d="M3.7982 6.54631C3.71538 6.5049 3.30127 6.21502 3.7568 6.46349C4.0881 6.62913 4.00526 6.54631 4.00526 6.54631C4.00526 6.5049 4.00525 6.46349 3.83961 6.29784C3.67396 6.13219 4.04666 6.33925 4.04666 6.25643C4.00525 6.21502 3.21845 5.67667 3.7568 6.00796C4.0881 6.21502 3.79821 5.92514 3.88103 6.00796C4.17091 6.21502 4.04666 6.00796 4.04666 5.96654C4.04666 5.92513 4.21232 6.00796 4.21232 5.92513C4.17091 5.92513 4.04667 5.84231 3.92243 5.71808C3.7982 5.63525 3.92243 5.63525 3.92243 5.63525C3.92243 5.59384 3.7568 5.51102 3.7568 5.46961C3.7568 5.42819 3.92243 5.55243 4.04666 5.67666V5.71808C4.37796 5.92513 4.37796 5.92514 4.25372 5.8009C4.1709 5.67667 4.46079 5.92513 4.41938 5.88372C4.41938 5.84231 4.0881 5.55243 3.96386 5.38678C3.83963 5.26255 4.25374 5.59384 4.37798 5.67666C4.66786 5.88372 4.25374 5.42819 4.37798 5.51102C4.4608 5.55243 4.46079 5.55243 4.21232 5.30396C4.04667 5.13831 4.29514 5.30396 4.33655 5.30396C4.37796 5.26255 4.25372 5.13831 4.66784 5.55243C4.83349 5.67666 4.5436 5.34537 4.46078 5.26255C4.21231 4.97267 4.08809 4.84843 4.08809 4.80702C4.25374 4.93125 4.00525 4.68278 3.83961 4.51714C3.71537 4.3929 2.96997 3.60608 2.96997 3.56467C2.96997 3.52326 3.63255 4.22726 3.71538 4.35149C3.7982 4.43432 4.25373 4.93125 4.21232 4.93125C4.46079 5.22113 4.91632 5.67667 4.50221 5.17973C4.62644 5.30396 4.79209 5.42819 4.79209 5.42819C4.62645 5.22114 4.66784 5.22114 4.66784 5.17973C4.70925 5.13831 4.8749 5.30396 4.75067 5.0969C4.70926 5.01408 4.66784 4.93125 4.54361 4.80702C4.75067 5.05549 4.99914 5.30396 5.04055 5.34537C5.04055 5.34537 4.41937 4.55855 4.33655 4.47573C4.62643 4.80702 4.95773 5.22114 4.95773 5.17973C4.99914 5.17973 5.08197 5.17972 4.8335 4.88984C4.99914 5.05549 5.08197 5.13831 5.12338 5.17973C5.16479 5.22114 5.08197 5.0969 4.91632 4.88984C4.91632 4.88984 4.95773 4.93125 5.04055 5.01408C5.12338 5.0969 5.16478 5.13831 5.16478 5.13831C5.16478 5.13831 4.87492 4.68279 4.79209 4.55855C4.75068 4.47573 4.58502 4.18584 4.54361 4.22726C4.54361 4.26867 4.41938 4.10302 4.41938 4.10302C4.41938 4.06161 4.46079 4.06161 4.62644 4.26867C4.79208 4.43431 4.91632 4.7242 5.04055 4.84843C5.16479 5.01408 4.79208 4.43432 4.75067 4.35149C4.66784 4.18585 4.95774 4.55855 4.99915 4.64137C5.24762 4.93125 5.33045 4.97267 4.99915 4.43431C4.95774 4.35149 5.12337 4.47572 5.28901 4.72419C5.20619 4.59996 5.04055 4.31008 5.04055 4.26867C5.04055 4.22726 5.2062 4.43431 5.24761 4.51714C5.37185 4.64137 4.95772 4.0202 4.8749 3.89596C4.95772 4.06161 4.95774 3.97879 5.12338 4.26867C5.16479 4.35149 5.45468 4.80702 5.41327 4.76561C5.41327 4.7242 5.37185 4.64137 5.33044 4.55855V4.51714C5.37185 4.55855 5.33044 4.47573 5.33044 4.47573C5.20621 4.22726 5.04054 3.89596 4.8749 3.56467C4.79207 3.35761 4.58503 3.10914 4.62644 3.06773C4.79208 3.35761 4.95772 3.64749 5.08196 3.93738C5.20619 4.14443 5.1648 4.0202 5.20621 4.14443C5.28903 4.22726 5.41326 4.55855 5.45467 4.59996C5.45467 4.59996 5.49608 4.64137 5.45467 4.51714C5.37185 4.35149 5.16479 4.06161 5.12338 3.89596C5.04056 3.73031 5.2062 3.93737 5.24761 4.06161C5.49608 4.47573 5.49609 4.55855 5.5375 4.51714C5.57891 4.43431 5.24762 3.81314 4.91632 3.23338C4.75068 2.94349 4.54362 2.57079 4.37798 2.19808C4.00527 1.49409 4.46078 2.52938 4.46078 2.52938C4.46078 2.52938 4.37797 2.40514 4.29515 2.23949C4.21233 2.07385 4.12949 1.94961 4.12949 1.9082C4.12949 1.94961 4.29514 2.28091 4.33655 2.40514C4.37796 2.6122 4.29514 2.57079 4.33655 2.69503C4.33655 2.77785 4.41937 3.02632 4.25372 2.69503C4.1709 2.57079 3.96386 2.19808 3.96386 2.15667C3.92245 2.19808 3.83962 2.19808 3.88103 2.36373C3.92244 2.52938 4.29513 3.10914 4.46078 3.35761C4.29513 3.06773 4.37798 3.27479 4.37798 3.3162C4.37798 3.35761 4.12949 2.94349 4.12949 2.94349C4.00526 2.73644 3.46691 1.99102 3.71538 2.44655C3.88102 2.73643 4.08808 2.98491 4.25372 3.23338C4.37796 3.44043 4.46079 3.64749 4.33655 3.52326C4.29514 3.48185 4.12949 3.19196 4.12949 3.15055C4.08808 3.15055 4.21233 3.35761 4.08809 3.19196C4.00527 3.06773 3.92244 2.98491 3.7982 2.81926C3.96385 3.06773 4.91632 4.47573 4.62644 4.18584C4.54361 4.10302 3.54974 2.52938 3.54974 2.6122C3.59116 2.73644 4.04667 3.39902 4.12949 3.56467C4.08808 3.48185 3.67396 2.9435 3.63255 2.90208C3.42549 2.69503 4.04668 3.44043 3.96386 3.35761C4.04668 3.48185 4.00525 3.48185 4.04666 3.56467C4.21231 3.77173 4.12949 3.73032 4.12949 3.73032C4.00526 3.60608 3.50833 2.94349 3.67397 3.06773C3.50833 2.81926 3.13563 2.40514 3.34269 2.73644C3.46692 2.94349 3.96384 3.60608 4.04666 3.73032C4.04666 3.73032 3.92244 3.56467 3.7982 3.35761C3.67397 3.15055 3.50832 2.98491 3.50832 2.98491C3.42549 2.98491 3.92243 3.64749 4.12949 3.89596C4.12949 3.93737 3.92244 3.64749 3.88103 3.64749C3.83962 3.64749 3.83963 3.64749 3.7568 3.60608C3.67398 3.52326 3.54973 3.44043 3.38409 3.27479C3.25985 3.15055 3.13563 2.98491 3.13563 3.02632C3.13563 3.06773 3.21845 3.19197 3.13563 3.10914C3.0528 3.02632 3.01139 2.98491 3.0528 3.02632C3.0528 3.06773 3.13561 3.23338 3.21843 3.35761C3.25984 3.44043 3.46692 3.73032 3.34269 3.64749C3.30127 3.60608 3.0528 3.27479 3.0528 3.27479C3.09421 3.3162 3.50833 3.89596 3.54974 3.89596C3.3841 3.77173 3.67397 4.10302 3.59115 4.06161C3.4255 3.93737 3.13563 3.56467 2.92857 3.35761C3.0528 3.52326 3.0942 3.56467 3.21843 3.6889C3.05278 3.44043 2.80432 3.35761 2.76291 3.35761C2.68009 3.35761 2.43162 3.19196 2.84574 3.56467C3.30127 4.0202 2.96997 3.77173 3.38409 4.18584C3.4255 4.26867 3.67398 4.51714 3.54974 4.43431C3.42551 4.35149 3.34268 4.22726 3.25986 4.14443C3.0528 3.97879 3.4255 4.3929 3.17703 4.14443C2.96997 3.97879 2.84573 3.81314 2.80431 3.77173C2.7629 3.77173 2.51445 3.52326 2.51445 3.56467C2.59728 3.6889 2.63867 3.77173 2.47303 3.64749C2.63867 3.81314 3.34268 4.51714 3.46692 4.55855C3.63256 4.64137 4.21232 5.22114 3.92243 4.97267C3.34267 4.47573 4.21232 5.26255 4.12949 5.26255C4.08808 5.26255 3.92245 5.0969 3.7568 4.97267C3.50833 4.76561 3.71538 4.84843 3.59115 4.72419C3.59115 4.72419 3.34269 4.51714 3.13563 4.31008C3.01139 4.22725 2.92856 4.10302 2.84574 4.06161C2.76292 3.97879 2.72151 3.93738 2.72151 3.93738C2.72151 3.93738 3.30126 4.51714 3.0942 4.35149C2.96997 4.26867 2.88715 4.18584 2.76291 4.10302C2.96997 4.26867 2.96998 4.3929 2.84574 4.26867C2.68009 4.10302 2.39022 3.85455 2.30739 3.81314C2.55586 4.0202 2.34879 3.89596 2.47303 4.0202C2.55585 4.10302 2.76292 4.26867 2.84574 4.31008C2.84574 4.31008 2.88716 4.31008 2.92857 4.35149C3.13563 4.51714 3.63257 5.01408 3.7568 5.17973C3.59116 5.01408 3.30127 4.80702 3.13563 4.68278C3.13563 4.7242 2.84573 4.47573 2.80431 4.47573C2.7629 4.47573 3.7982 5.34537 3.71538 5.34537C3.71538 5.26255 2.84573 4.59996 2.59726 4.3929C2.22455 4.10302 2.47304 4.35149 2.72151 4.51714C2.47304 4.35149 1.6862 3.68891 2.18314 4.14443C3.01137 4.84843 2.01751 4.06161 2.22457 4.26867C2.47304 4.55855 2.80431 4.7242 2.80431 4.68278C2.80431 4.64137 3.46691 5.17972 3.59115 5.30396C3.38409 5.17972 3.17703 5.05549 2.96997 4.88984C2.76291 4.7242 2.55585 4.59996 2.3488 4.43431C2.18315 4.35149 2.05891 4.26867 1.93468 4.18584L2.55585 4.64137C2.55585 4.64137 2.05892 4.31008 2.01751 4.26867C1.81045 4.14443 2.05891 4.35149 2.14174 4.43431C2.05891 4.35149 1.76902 4.31008 1.76902 4.31008C2.14173 4.59996 2.63867 4.88984 3.01137 5.17973C3.13561 5.26255 3.0942 5.30396 3.0942 5.30396C3.05279 5.30396 2.88714 5.17972 2.80431 5.13831C2.51443 4.97266 3.13561 5.42819 3.21843 5.46961C3.25984 5.51102 3.30127 5.59384 3.25986 5.55243C3.17703 5.51102 2.92855 5.30396 2.68008 5.0969C2.55585 5.01408 1.89326 4.59996 1.85185 4.59996C1.93467 4.68278 2.80433 5.26255 2.92857 5.34537C3.09422 5.4696 2.92857 5.38678 2.72151 5.26255C2.47304 5.0969 1.76903 4.68279 1.85185 4.76561C1.89326 4.80702 2.0175 4.93125 1.93468 4.88984C1.89327 4.88984 1.72763 4.76561 1.68622 4.76561C1.56198 4.7242 2.26597 5.17972 2.3488 5.26255C2.39021 5.30396 2.0175 5.13831 1.93468 5.13831C1.93468 5.13831 1.52055 4.97267 1.97608 5.22114C2.26596 5.38678 2.63868 5.59384 2.63868 5.63525C2.26598 5.42819 1.31351 4.88984 1.60339 5.13831C1.60339 5.22113 2.80431 5.75949 3.01137 5.92513C3.05278 5.96655 1.89326 5.38678 1.85185 5.34537C1.89326 5.42819 2.92856 5.92514 3.17703 6.04937C3.38409 6.33925 4.1295 6.75337 3.7982 6.54631Z" fill="#F5BC41"/>
<path d="M5.66214 1.86718C5.62072 1.74294 5.49649 1.28741 5.45508 1.32882C5.45508 1.32882 5.66214 1.90859 5.66214 1.86718Z" fill="#F5BC41"/>
<path d="M6.69701 4.01973C6.6556 3.81268 6.73842 4.22679 6.69701 4.01973V4.01973Z" fill="#F5BC41"/>
<path d="M4.7921 2.44639C4.7921 2.4878 5.12338 3.23321 5.16479 3.23321C5.16479 3.23321 5.16479 3.02616 5.28902 3.39886C5.33043 3.5231 5.24762 3.39886 5.33045 3.56451C5.49609 3.8958 5.70314 4.30992 5.78597 4.43415C5.9102 4.5998 5.95162 4.55839 5.86879 4.35133C5.82738 4.26851 5.49608 3.48169 5.70314 3.81298C5.78596 3.93721 5.8688 4.2271 5.95162 4.35133C6.03445 4.51698 6.03445 4.43415 6.03445 4.39274C6.03445 4.35133 5.95161 4.10286 5.9102 3.97863C5.86878 3.85439 5.95161 3.97862 5.99302 4.06145C6.03444 4.14427 6.28291 4.43415 6.07585 3.8958C6.03444 3.81298 5.78596 3.15039 5.9102 3.35745C5.99302 3.56451 6.07586 3.81298 6.15868 4.02004C6.11727 3.8958 5.99302 3.48169 6.20008 3.97863C6.28291 4.2271 6.15868 3.81298 6.15868 3.77157C6.20009 3.73016 6.32433 4.10286 6.36574 4.14427C6.40715 4.18568 6.24149 3.77157 6.32431 3.85439C6.40714 4.02004 6.48996 4.2271 6.53137 4.18568L6.44857 3.85439C6.44857 3.81298 6.53139 3.97863 6.5728 3.93721C6.5728 3.8958 6.69702 4.14427 6.6142 3.85439C6.6142 3.81298 6.5728 3.73016 6.5728 3.60592C6.5728 3.56451 6.57278 3.68874 6.53137 3.60592C6.48996 3.44027 6.40714 3.27463 6.32431 3.06757C6.20008 2.77769 6.07586 2.36357 5.95162 1.99086C5.8688 1.74239 5.78598 1.53534 5.74456 1.4111C5.70315 1.28687 5.82738 1.82522 5.86879 1.90804C5.95162 2.28075 5.74456 1.65957 5.74456 1.78381C5.74456 1.82522 5.78598 2.03228 5.82739 2.07369C5.74457 1.94945 5.66175 1.61816 5.62033 1.61816C5.62033 1.61816 5.91021 2.73627 5.95162 2.86051C6.03445 3.31604 5.78597 2.44639 5.78597 2.44639C5.78597 2.44639 5.82739 2.52922 5.82739 2.65345C5.8688 2.73627 5.86879 2.86051 5.86879 2.90192C5.86879 2.94333 5.78598 2.77769 5.74456 2.65345C5.66174 2.40498 5.5375 2.15651 5.45468 1.90804C5.45468 1.99087 5.66174 2.69486 5.66174 2.65345C5.49609 2.36357 5.37186 1.74239 5.33045 1.61816C5.24762 1.4111 5.41326 2.28075 5.16479 1.65957L5.49608 2.44639C5.45467 2.4878 5.24761 1.82522 5.28902 2.07369C5.28902 2.19792 5.33044 2.23934 5.45468 2.57063C5.49609 2.65345 5.41328 2.61204 5.41328 2.65345C5.45469 2.57063 5.12338 1.82522 5.24762 2.23933C5.28903 2.36357 5.12337 2.03228 5.08196 1.99086C4.99914 1.94945 5.08197 2.15651 5.04056 2.19792C5.04056 2.19792 4.70926 1.65957 4.8749 2.1151C4.95773 2.28075 5.12338 2.65345 5.16479 2.73628C5.2062 2.8191 5.04057 2.61204 5.12339 2.77769C5.1648 2.8191 5.20621 2.90192 5.24762 3.02616C5.28903 3.10898 4.87492 2.40498 4.7921 2.28075C4.83351 2.23934 5.08197 2.65345 4.75067 2.03228C4.75067 1.99086 4.58504 1.94945 4.58504 1.94945C4.58504 1.99087 4.58502 2.07369 4.46079 1.82522C4.46079 1.86663 4.41938 1.82522 4.46079 1.94945C4.62643 2.32216 4.7921 2.4878 4.7921 2.44639Z" fill="#F5BC41"/>
<path d="M7.52539 1.57715C7.5668 1.57715 7.5668 1.78421 7.52539 1.57715V1.57715Z" fill="#F5BC41"/>
<path d="M6.03451 1.74276C6.07592 1.74276 6.28298 2.19829 6.24156 2.28112C6.11733 1.94982 6.4486 3.275 6.32437 2.90229C6.24154 2.69523 6.15872 2.36394 6.11731 2.40535C6.11731 2.40535 6.0759 2.44676 6.11731 2.571C6.28295 3.15076 6.36579 3.10935 6.49002 3.39923C6.57285 3.60629 6.69707 4.14464 6.73848 4.14464C6.77989 4.14464 6.77991 4.10323 6.77991 4.06182C6.77991 4.0204 6.73849 3.68911 6.82131 3.89617C6.86272 4.0204 6.90413 4.06182 6.82131 3.81335C6.82131 3.81335 6.86274 3.73052 6.86274 3.85476C6.86274 3.81335 6.77991 3.44064 6.77991 3.44064C6.82132 3.52346 6.90413 3.97899 6.94554 4.06182C6.94554 4.10323 6.94554 3.85476 6.94554 3.81335C6.94554 3.6477 6.82131 3.15076 6.82131 3.31641C6.73849 2.90229 6.86272 3.31641 6.82131 3.10935C6.82131 3.06794 6.77989 2.90229 6.73848 2.73664C6.69707 2.571 6.65568 2.44676 6.65568 2.44676C6.69709 2.40535 6.86273 3.23358 6.90414 3.44064C6.94555 3.6477 7.02839 3.81335 7.0698 3.89617C7.11121 3.97899 7.23543 4.18605 7.23543 4.18605C7.23543 4.14464 7.11121 3.60629 7.0698 3.48205C7.11121 3.44064 7.19402 3.97899 7.23543 4.02041C7.27684 4.06182 7.23543 3.81335 7.23543 3.60629C7.23543 3.39923 7.23544 3.44064 7.27686 3.73053C7.31827 3.979 7.35966 3.89617 7.35966 3.89617C7.35966 3.89617 7.40109 3.93758 7.40109 3.73053C7.40109 3.6477 7.31825 3.19217 7.35966 3.39923C7.48389 3.97899 7.48389 3.93758 7.35966 3.19217C7.40107 3.15076 7.4425 3.6477 7.48391 3.77194C7.48391 3.77194 7.56672 4.06182 7.56672 3.97899C7.56672 3.93758 7.40108 2.98511 7.52532 3.35782C7.56673 3.52347 7.60813 3.89617 7.64954 3.85476C7.69096 3.81335 7.60814 3.44064 7.60814 3.23358C7.60814 3.19217 7.56672 2.61241 7.56672 2.571C7.5253 2.52959 7.4425 2.40535 7.40109 1.99123C7.35967 1.70135 7.4839 1.99123 7.44249 1.61853C7.4839 1.61853 7.40107 1.163 7.35966 0.91453C7.35966 1.08018 7.40109 1.24582 7.40109 1.37006C7.40109 1.12159 7.27686 0.831707 7.27686 0.873119C7.23544 0.955942 7.23543 1.24582 7.23543 1.53571C7.23543 1.78418 7.31825 2.36394 7.23543 2.03264C7.15261 1.61853 7.15262 1.82559 7.19403 2.15688C7.15262 1.94982 7.0698 1.70135 7.0698 1.70135C7.11121 1.70135 7.11119 1.32865 7.02837 1.28724C6.98696 1.28724 6.94555 1.12159 6.90414 1.163C6.86273 1.20441 7.1112 2.48817 6.98697 2.15688C6.90415 1.867 6.77991 0.748884 6.69708 1.12159C6.69708 1.24582 6.7799 1.57712 6.82131 1.867C6.86272 2.15688 6.86273 2.19829 6.90414 2.48818C6.86273 2.52959 6.77989 1.867 6.73848 1.74276C6.69707 1.49429 6.65567 1.24582 6.61425 1.03877C6.57284 0.87312 6.57284 1.08018 6.61425 1.20441C6.65567 1.5357 6.82132 1.99123 6.77991 2.19829C6.77991 2.28111 6.73849 2.15688 6.69708 2.03264C6.73849 2.03264 6.61426 1.41147 6.57285 1.32865C6.57285 1.32865 6.57284 1.5357 6.53142 1.37006C6.49001 1.163 6.49003 1.24582 6.44862 1.28724C6.40721 1.32865 6.36579 1.03877 6.36579 1.03877C6.32438 1.03877 6.24155 1.49429 6.28297 1.65994C6.24155 1.57712 6.24155 1.41147 6.20014 1.32865C6.15872 1.20441 6.11731 1.28724 6.11731 1.28724C6.0759 1.32865 5.99309 1.12159 5.95168 1.20441C5.95168 1.24582 6.0759 1.867 5.99308 1.65994C5.95167 1.53571 5.78602 1.163 5.86885 1.49429C5.74461 1.163 5.74461 1.45288 5.66179 1.32865C5.53755 1.12159 5.78601 2.07406 5.91025 2.28112C6.03448 2.07406 6.03451 1.70135 6.03451 1.74276Z" fill="#F5BC41"/>
<path d="M7.44287 0.707031C7.44287 0.748443 7.44289 0.789855 7.4843 0.872679C7.44289 0.831267 7.44287 0.748443 7.44287 0.707031Z" fill="#F5BC41"/>
<path d="M8.02238 1.66005C8.02238 1.49441 7.98096 1.41158 7.98096 1.49441C7.98096 1.66005 7.98097 1.66005 8.02238 1.66005Z" fill="#F5BC41"/>
<path d="M8.18795 1.32782C8.10513 1.36923 8.14654 0.499589 8.18795 1.32782V1.32782Z" fill="#F5BC41"/>
<path d="M7.81543 3.89556C7.85684 3.93697 7.85684 3.97838 7.89826 3.85415C7.89826 3.81274 7.89825 3.48145 7.93966 3.77133C7.93966 3.60568 7.98106 3.48145 7.98106 3.56427C7.98106 3.64709 7.98106 3.77133 7.98106 3.72992C8.02247 3.89556 8.0639 3.81274 8.10531 3.81274C8.14673 3.81274 8.22953 3.89556 8.18812 3.39862C8.18812 3.3158 8.22954 3.60568 8.22954 3.72992C8.22954 3.23298 8.35377 3.89556 8.35377 3.81274C8.39519 3.77133 8.35377 2.6118 8.35377 2.15627C8.35377 2.15627 8.35377 2.11486 8.35377 2.03204C8.35377 1.82498 8.35377 1.49369 8.35377 1.24522C8.31236 1.24522 8.35378 1.61792 8.31237 1.74216C8.27096 1.94921 8.27095 1.45227 8.27095 1.32804C8.27095 1.2038 8.22954 1.78357 8.22954 1.82498C8.22954 1.99062 8.18812 1.82498 8.18812 1.9078C8.18812 1.9078 8.18812 2.15627 8.18812 2.36333C8.18812 2.57039 8.18812 2.73604 8.18812 2.57039C8.18812 2.44615 8.1053 1.65933 8.14672 1.61792C8.14672 0.913921 8.10531 0.624042 8.02249 0.8311C8.02249 0.872512 7.85684 0.996745 7.89826 1.16239C7.93967 1.49368 7.98107 1.32804 8.02249 1.32804C8.0639 1.41086 8.10531 1.57651 8.10531 1.9078C8.10531 2.07345 8.18812 2.32192 8.18812 2.57039C8.18812 2.65321 8.10531 2.36333 8.10531 2.36333C8.0639 2.28051 8.06389 2.44615 8.06389 2.40474C8.02248 2.36333 8.02247 1.99063 7.98106 1.94921C7.93965 1.94921 7.98107 2.07345 7.93966 1.99063C7.89825 1.9078 7.774 1.12098 7.774 1.16239C7.774 1.16239 7.81543 1.57651 7.81543 1.61792C7.81543 1.86639 7.81543 1.82498 7.81543 2.07345C7.81543 2.2391 7.85683 2.77745 7.85683 2.86027C7.85683 2.9845 7.774 2.52898 7.774 2.57039C7.774 2.6118 7.85683 3.15015 7.85683 3.27439C7.85683 3.44003 7.85684 3.60568 7.89826 3.77133C7.85684 3.44003 7.81541 3.02592 7.774 2.77745C7.774 2.77745 7.7326 2.69462 7.7326 2.57039C7.69119 2.44615 7.6912 2.32192 7.6912 2.28051C7.6912 2.2391 7.7326 2.40474 7.7326 2.28051C7.7326 2.15627 7.7326 1.99063 7.7326 1.78357C7.7326 1.70074 7.64977 0.789688 7.64977 0.8311C7.64977 0.8311 7.6912 1.61792 7.6912 1.74216C7.64979 1.61792 7.52554 0.913922 7.52554 0.913922C7.48413 0.913922 7.60837 1.70074 7.60837 1.78357C7.60837 1.78357 7.64977 2.28051 7.64977 2.36333C7.64977 2.6118 7.77402 3.81274 7.81543 3.89556Z" fill="#F5BC41"/>
<path d="M8.35352 2.03257C8.35352 2.07398 8.35352 2.1154 8.35352 2.15681C8.35352 2.15681 8.39493 1.86692 8.35352 2.03257Z" fill="#F5BC41"/>
<path d="M8.39508 2.81923C8.43649 2.94346 8.43651 3.02629 8.43651 3.56464C8.43651 3.89593 8.47792 3.7717 8.51934 3.73029C8.56075 3.64746 8.68498 3.68887 8.64356 2.81923C8.68498 2.77782 8.64355 3.23334 8.68497 3.39899C8.72638 3.35758 8.72639 2.61217 8.72639 2.3637C8.72639 1.99099 8.64355 1.74252 8.68497 2.32229C8.68497 2.11523 8.60215 0.665821 8.56074 0.914291C8.56074 1.49405 8.60216 2.69499 8.51934 2.7364C8.51934 2.57076 8.51934 2.40511 8.51934 2.23946C8.51934 1.90817 8.51934 1.53547 8.51934 1.16276C8.51934 0.582997 8.47792 1.86676 8.51934 2.19805C8.47792 1.99099 8.43651 1.53547 8.43651 1.86676C8.43651 2.11523 8.43651 2.3637 8.43651 2.57076C8.39509 2.57076 8.35367 2.77782 8.39508 2.81923Z" fill="#F5BC41"/>
<path d="M8.80898 0.996885C8.76757 0.665591 8.76758 0.914061 8.76758 1.20394H8.80898C8.80898 1.12112 8.80898 1.0383 8.80898 0.996885Z" fill="#F5BC41"/>
<path d="M7.98134 13.4202C8.02275 13.1303 7.98135 13.2131 7.93994 13.4616L7.98134 13.4202Z" fill="#F5BC41"/>
<path d="M8.0227 13.4209C8.0227 13.4623 8.0227 13.4623 8.0227 13.4623C7.98129 13.5037 8.06411 13.2552 8.0227 13.4209Z" fill="#F5BC41"/>
<path d="M7.98134 13.4614C7.98134 13.4614 7.98134 13.4614 7.98134 13.42C8.10558 13.0473 8.06418 12.7988 7.93994 13.5442C7.98135 13.5856 7.98134 13.5442 7.98134 13.4614Z" fill="#F5BC41"/>
<path d="M11.6256 14.2073C11.17 13.2548 11.5841 14.2901 11.6256 14.2073V14.2073Z" fill="#F5BC41"/>
<path d="M12.1637 13.2969C12.1637 13.2969 12.1637 13.2969 12.1637 13.2555C12.0809 13.1727 11.998 13.0898 11.998 13.0898C11.998 13.0898 12.1637 13.2969 12.1637 13.2969Z" fill="#F5BC41"/>
<path d="M7.44287 15.8226C7.44287 16.0296 7.48429 15.9468 7.5257 15.7397C7.56711 15.6155 7.5257 15.7812 7.5257 15.864C7.5257 15.8226 7.73277 14.9115 7.69136 15.16C7.64994 15.4499 7.60852 15.8226 7.5257 16.1539C7.48429 16.4023 7.48429 16.775 7.5257 16.5266C7.56711 16.2367 7.56712 16.1125 7.60853 15.7397C7.64994 15.6983 7.56712 16.3195 7.60853 16.2781C7.64994 16.2781 7.64994 16.071 7.69136 15.864C7.73277 15.864 7.64994 16.4023 7.69136 16.4023C7.73277 16.4437 7.73276 16.3609 7.73276 16.5266C7.73276 16.775 7.81558 16.4023 7.85699 16.1539C7.8984 15.864 7.8984 15.7812 7.93982 15.7812C7.8984 16.0296 7.85699 16.2781 7.85699 16.5266C7.81558 16.8579 7.93982 16.4437 7.93982 16.3609C7.98123 16.2781 8.02264 16.3609 8.02264 16.3195L8.10547 16.0296C8.10547 16.071 8.06404 17.3548 8.18828 16.4437C8.22969 16.1539 8.2297 16.3609 8.2297 16.4023C8.2297 16.6094 8.27112 16.4852 8.31253 16.3609C8.39535 16.071 8.35392 16.3609 8.39533 16.6508C8.43675 16.9407 8.47818 16.1539 8.51959 15.8226C8.51959 15.9882 8.51959 16.0296 8.51959 16.2781C8.51959 16.4023 8.51959 16.4852 8.51959 16.5266C8.561 16.7336 8.64382 16.6094 8.72665 16.6508C8.76806 16.6922 8.85087 16.8579 8.89228 16.775C8.93369 16.6922 8.89228 16.1539 8.89228 15.9882C8.89228 16.1539 8.93371 16.1124 8.93371 16.2367C8.93371 16.3195 8.93371 16.4437 8.93371 16.568C8.93371 16.6922 8.97511 16.6094 8.97511 16.6094C8.9337 16.6094 9.01651 16.4437 9.01651 16.4437C9.05792 16.4023 9.09935 16.568 9.14076 16.5266C9.18218 16.4852 9.14074 15.864 9.22357 16.0296C9.26498 16.1953 9.38921 16.8164 9.43063 16.6094C9.47204 16.5266 9.43063 15.8226 9.51345 16.4852C9.51345 16.4023 9.51345 16.3195 9.51345 16.1953C9.59628 17.1892 9.76192 16.775 9.84474 16.6922C9.88615 16.6922 10.0518 16.6922 10.0104 16.3609C10.0518 16.3195 10.0518 16.4437 10.0932 16.4437C10.1346 16.4852 10.176 16.4437 10.2175 16.4023C10.3003 16.3609 10.3831 16.5266 10.4245 16.4437C10.4245 16.4437 10.5073 16.4437 10.4659 16.1953C10.4245 16.0296 10.4245 15.9054 10.4245 15.9054C10.4659 15.9054 10.5073 15.9468 10.5487 16.1539C10.5902 16.1953 10.5902 16.071 10.6316 16.1539C10.6316 16.1953 10.7972 16.6094 10.7144 16.2367C10.673 16.0296 10.6316 15.8226 10.673 15.8226C10.7144 15.9054 10.7972 16.3195 10.7972 16.3195C10.8386 16.4852 10.8386 15.9468 10.8386 15.9054C10.8386 15.8226 10.9215 15.9882 10.9629 16.0296C11.0043 16.071 11.1699 16.3609 11.0457 15.9468C11.0043 15.6983 10.9629 15.5327 10.88 15.2842C10.9629 15.4499 11.0871 15.7812 11.1285 15.9054C11.2528 16.1539 10.9629 15.2842 10.9215 15.2014C10.9629 15.16 11.2113 16.0296 11.2942 16.1953C11.4184 16.4437 11.3356 16.0296 11.3356 15.9882C11.377 15.9468 11.5012 16.1124 11.4184 15.9054L11.4598 15.8226C11.4598 15.7812 11.4598 15.7397 11.4184 15.6155C11.4184 15.5741 11.2527 15.16 11.2527 15.16C11.2527 15.16 11.6254 16.1539 11.7083 16.2367C11.8325 16.3609 11.8325 16.1539 11.8739 16.1124C11.9153 16.071 12.1638 16.2781 11.9568 15.6983C12.1638 16.071 12.1638 15.7812 12.2052 15.7812C12.2052 15.7812 12.4123 16.0296 12.3294 15.864C12.2466 15.6569 12.081 15.4085 12.0396 15.2842C11.8325 14.7873 12.4951 15.864 12.4537 15.7812C12.4537 15.7812 12.288 15.4913 12.1638 15.2014C12.0396 14.9115 11.9153 14.663 11.9568 14.7459C12.0396 14.8701 12.7022 16.1539 12.5779 15.7397C12.4951 15.4913 12.6607 15.6569 12.5365 15.3256C12.4951 15.2014 12.4123 14.9115 12.5365 15.0357C12.7436 15.367 12.992 15.6155 12.7436 15.2014C13.2819 16.1125 13.1991 15.5327 12.6608 14.7873C12.785 14.9943 12.9506 15.2014 13.1163 15.4085C13.2819 15.6569 13.2819 15.5327 13.2819 15.4913C13.3233 15.4499 13.489 15.5327 13.2405 15.2014C13.4062 15.367 13.4476 15.367 13.489 15.3256C13.5304 15.2428 13.4062 15.1186 13.1163 14.7045C13.1163 14.663 13.5304 15.16 13.6132 15.2428C13.489 15.0772 13.3647 14.9115 13.4062 14.8701C13.8617 15.4913 13.8203 15.2428 13.8617 15.16C13.9031 15.1186 13.3647 14.4146 13.2405 14.2075C13.0749 14.0005 12.8678 13.752 12.7022 13.5449C12.5779 13.3793 12.7436 13.5863 12.8264 13.6277C13.0749 13.8762 13.2819 14.2075 13.489 14.456C13.4476 14.4146 13.8617 14.9529 13.8617 14.9115C13.8617 14.8701 13.8203 14.7873 13.8203 14.7873C13.8617 14.8701 13.9031 14.9115 13.9445 14.9115C13.9859 14.9115 13.9859 14.9115 13.9031 14.7873C13.8203 14.7045 12.992 13.752 13.0334 13.7934C13.1577 13.8762 13.8617 14.6216 13.3647 14.0005C13.1577 13.8348 12.8678 13.4621 12.6608 13.255C12.4951 13.0894 12.992 13.752 12.7436 13.5035C12.5779 13.3379 12.4537 13.1308 12.288 12.9652C12.1224 12.7581 12.288 13.0066 12.288 13.048C12.288 13.0894 12.7022 13.6278 12.9092 13.8762C13.0335 14.0419 13.1991 14.2903 13.2405 14.3317C13.2405 14.3732 13.2405 14.456 13.1577 14.3317C13.0749 14.2075 12.9506 14.0005 12.9092 13.8762C12.785 13.6692 12.6608 13.5449 12.4537 13.2965C12.7436 13.6692 12.6193 13.5449 12.7436 13.7934C12.7436 13.8348 12.6607 13.7106 12.5365 13.5863C12.4537 13.5035 12.4537 13.5863 12.4537 13.5863C12.4537 13.5863 12.3294 13.4207 12.2052 13.2965C12.0396 13.1308 12.0396 13.1722 11.9982 13.1308C11.9567 13.1308 11.7497 12.9238 11.9153 13.1722C12.2052 13.5863 12.288 13.7106 12.2052 13.6692C12.1224 13.6278 11.7911 13.1308 11.9982 13.4621C12.2052 13.8348 11.7497 13.2136 11.9153 13.4621C11.9567 13.5449 12.1224 13.8348 12.288 14.0833C12.3709 14.2075 12.4537 14.3318 12.4951 14.4146C12.5365 14.4974 12.5779 14.5802 12.5779 14.5802C12.5365 14.5802 12.2052 14.0419 12.081 13.8762C11.9153 13.6692 11.9153 13.7106 11.7497 13.4207C11.7497 13.4207 11.6669 13.255 11.6255 13.255C11.6255 13.255 11.7083 13.4207 11.7083 13.4621C11.8325 13.6692 11.7911 13.6692 11.7911 13.6692C11.7911 13.6692 12.1638 14.1661 12.0396 14.1247C11.9153 14.0419 11.584 13.3793 11.5012 13.255C11.3356 13.048 11.5426 13.4621 11.7083 13.752C11.8739 14.0419 11.8325 13.959 11.7911 14.0005C11.7911 14.0005 11.6669 13.8762 11.7497 14.0419C11.8739 14.2903 11.9982 14.456 11.8325 14.2903C11.6255 13.959 11.6669 13.9176 11.4598 13.5449C11.4598 13.6692 11.2527 13.2136 11.377 13.5449C11.4598 13.7106 11.2942 13.5449 11.5426 14.0005C11.4184 13.752 11.377 13.7106 11.4598 13.8762C11.5426 14.0833 11.6669 14.2903 11.7497 14.4974C11.9153 14.9115 11.584 14.2903 11.5426 14.1247C11.4598 13.959 11.1285 13.3379 11.1699 13.4621C11.2113 13.5449 11.2942 13.8762 11.0457 13.3793C11.2113 13.7106 11.6669 14.7459 11.4184 14.3732C11.2942 14.1661 10.9629 13.3379 11.0457 13.6692C11.0457 13.7106 11.2113 14.2075 11.1699 14.0833C11.0871 13.959 11.0043 13.6692 10.9215 13.5449C10.88 13.4207 10.9629 13.7106 10.9629 13.7106C10.9629 13.752 11.1285 14.0833 11.1285 14.2075C11.1699 14.4146 11.0871 14.2903 11.1699 14.5802C11.1699 14.6216 11.3356 15.1186 11.1699 14.7459C11.0457 14.5388 10.9629 14.4146 10.9629 14.456C10.9215 14.4974 11.0043 14.7045 11.0043 14.7873C11.0043 14.9115 10.7144 13.8762 10.6316 13.6692C10.5488 13.5035 10.7558 14.1247 10.7972 14.2075C10.8386 14.3318 10.8801 14.4974 10.7972 14.3317C10.8386 14.4146 11.0457 15.0357 11.0457 15.0357C11.0043 14.9943 10.673 13.959 10.5902 13.6692C10.5488 13.7106 10.7558 14.2489 10.7144 14.2903C10.5073 13.6278 10.6316 14.1661 10.5487 14.0419C10.5073 13.9176 10.4245 13.6692 10.4245 13.6277C10.3831 13.6277 10.4245 13.7106 10.4245 13.752C10.4245 13.8762 10.3417 13.7106 10.3417 13.7106L10.2589 13.7934C10.3003 13.959 10.4245 14.3317 10.4245 14.4974C10.4245 14.7045 10.3003 14.1661 10.2589 14.0419C10.176 13.752 10.0932 13.5863 10.1346 13.752C10.1346 13.9176 10.2589 14.1661 10.3003 14.2903C10.3417 14.456 10.3003 14.7459 10.2175 14.3317C10.0518 13.5449 10.2589 14.9943 10.2589 14.9943C10.2174 14.8287 10.1346 14.3317 10.0932 14.3317C10.0932 14.3317 10.0518 14.6216 10.0104 14.2903C9.96899 14.2489 10.0104 14.6216 9.92757 14.3732C9.88616 14.2489 9.80333 13.8762 9.84474 14.0419C9.88615 14.3317 10.0518 14.8701 10.0932 14.9115L10.1346 15.2428C10.1346 15.2842 10.0518 14.9115 10.0104 14.7873C9.96899 14.5388 9.88615 14.2903 9.84474 14.0419C9.84474 14.1661 9.84476 14.3317 9.88617 14.456C9.92758 14.9943 9.88615 14.6216 9.84474 14.3732C9.72051 13.752 9.76192 14.8701 9.63768 14.1247C9.63768 14.0419 9.6791 14.7873 9.63768 14.4974C9.63768 14.456 9.51347 13.6692 9.55488 13.959C9.55488 14.1247 9.63769 14.5802 9.59628 14.6216C9.59628 14.6216 9.51345 14.3317 9.51345 14.2903C9.51345 14.2903 9.59629 14.5802 9.55488 14.2903C9.51347 14.0833 9.47205 14.0005 9.47205 14.0005C9.47205 14.0005 9.43063 13.959 9.43063 14.1661C9.47204 14.4146 9.51345 14.7873 9.51345 14.7873C9.51345 14.9115 9.55488 15.16 9.55488 15.2842C9.55488 15.4499 9.51346 15.16 9.47205 15.0357C9.43064 14.7873 9.38923 14.4146 9.34782 14.0005C9.34782 14.1661 9.38923 14.3732 9.34782 14.3732C9.34782 14.3732 9.3064 14.0005 9.3064 13.9176C9.26498 13.6692 9.26498 13.959 9.22357 14.0833C9.18216 14.2489 9.18217 14.3318 9.18217 14.6216C9.18217 14.7045 9.18218 15.1186 9.14076 14.9529C9.14076 14.9115 9.14076 14.663 9.14076 14.4146C9.14076 14.1661 9.14076 13.959 9.14076 13.959C9.14076 14.0005 9.14075 14.5388 9.09934 14.5802C9.09934 14.5802 9.05794 14.2075 9.05794 14.1661C9.05794 14.0833 9.01651 14.0833 9.01651 14.3317C9.01651 14.4146 8.93371 14.5802 8.93371 14.7873C8.85088 14.9943 8.89229 14.5388 8.85088 14.2489C8.80947 14.0005 8.80947 14.7045 8.85088 14.663C8.80947 14.7045 8.72665 15.1186 8.72665 15.5741C8.72665 15.2842 8.76805 15.0357 8.76805 14.7045C8.76805 14.4974 8.76805 14.3732 8.76805 14.2075C8.76805 14.7459 8.72664 14.7873 8.64382 14.7459C8.60241 14.7045 8.60239 14.2903 8.60239 14.0419C8.60239 14.3732 8.47816 14.2903 8.47816 14.3317C8.43675 14.4146 8.39533 14.8287 8.39533 14.7873C8.35392 14.7459 8.35393 13.5449 8.2711 14.4146C8.22969 14.4146 8.27111 13.7934 8.2297 14.0833C8.18829 14.4146 8.14687 14.5802 8.06405 14.8701C8.10546 14.5388 8.18829 14.2075 8.2297 13.8762C8.14688 14.2075 8.06406 14.5802 8.02264 14.9115C8.02264 14.8701 8.06406 14.663 8.10547 14.456C8.14688 14.2489 8.18828 14.0419 8.18828 14.0419C8.10545 14.1661 8.02263 14.9529 7.98122 15.3256C7.93981 15.3256 8.06406 14.4974 8.10547 14.2903C8.14688 13.9176 8.06405 14.3317 8.06405 14.1247C8.06405 14.0419 8.10546 13.752 8.06405 13.8762C8.02263 13.959 7.98122 14.2489 7.98122 14.1661C7.98122 14.1247 7.93982 14.0833 7.93982 14.0005C7.93982 13.9176 7.98123 13.3379 7.93982 13.5035C7.93982 13.5449 7.81559 14.0833 7.81559 14.1247C7.73276 14.6216 7.69134 14.7045 7.64993 14.5802C7.64993 14.5388 7.56711 14.8287 7.5257 14.9115C7.5257 15.2014 7.48428 15.6155 7.44287 15.8226Z" fill="#F5BC41"/>
<path d="M12.9094 13.1307C12.9922 13.1721 13.0337 13.1721 12.7852 12.9236C12.5781 12.7166 12.5781 12.7994 12.5781 12.8408L12.868 13.0893C12.9094 13.1307 12.9094 13.1307 12.9094 13.1307Z" fill="#F5BC41"/>
<path d="M14.1101 14.6632C14.3586 14.8703 13.9859 14.4562 14.2343 14.6218C14.4414 14.7461 14.0687 14.2491 14.0273 14.1249C14.3172 14.4148 14.3586 14.4148 14.3172 14.2905C14.2344 14.1663 14.0273 13.9592 13.9031 13.7936C14.1929 14.1249 14.9797 14.6218 14.2757 14.0835C14.0273 13.9178 14.1101 13.8764 14.3172 14.0006C14.5656 14.2077 14.7727 14.3733 14.7727 14.2905C15.0212 14.4148 14.1101 13.7108 14.0273 13.6279C13.8616 13.5037 13.0334 12.6755 12.9092 12.6341C12.8263 12.5926 13.1991 12.9239 12.992 12.7583C12.9092 12.6755 12.5365 12.3856 12.7021 12.5512C12.8678 12.7169 13.1576 12.9653 13.2819 13.0896C13.3647 13.1724 13.4475 13.2552 13.5303 13.3381C13.2819 13.131 12.9506 12.7997 13.1576 13.0482C13.2819 13.1724 13.696 13.6279 13.8202 13.7522L12.9506 12.9239C12.9506 12.9653 13.3233 13.2552 13.3647 13.3381C13.4061 13.4623 13.2819 13.3381 13.2405 13.3381C13.199 13.3381 13.2405 13.4623 13.0334 13.2966C12.992 13.2552 12.7021 13.0068 12.7021 13.0482C12.7021 13.0482 12.7849 13.131 12.9092 13.2552C13.0334 13.3795 13.1576 13.5037 13.1576 13.5451C13.1576 13.5865 12.8678 13.2552 12.6607 13.0896C12.8264 13.2552 12.9506 13.4209 12.992 13.5037C13.0334 13.5865 13.0748 13.6693 13.3647 13.9178C13.5717 14.2491 13.9031 14.4976 14.1101 14.6632Z" fill="#F5BC41"/>
<path d="M14.6899 14.332C14.6899 14.3734 14.8556 14.3734 14.6899 14.332V14.332Z" fill="#F5BC41"/>
<path d="M14.5657 14.0832C14.9384 14.2903 14.1516 13.6691 13.9859 13.5035C14.0688 13.5863 14.9798 14.2903 14.8142 14.1246C14.6899 14.0004 14.3587 13.7519 14.3172 13.6691C14.3172 13.6277 14.2758 13.5449 14.3586 13.5863C14.4001 13.5863 14.5243 13.7105 14.6071 13.7933C14.897 14.0004 14.8556 13.9176 14.6071 13.7105C14.8556 13.8762 14.2758 13.3792 14.5243 13.5035C14.6899 13.5863 14.9384 13.8347 15.0212 13.9176C15.0212 13.8347 14.5657 13.462 14.2344 13.2136C14.5243 13.4206 14.7313 13.5449 15.0212 13.7519C14.8142 13.5863 14.0688 12.9651 14.0688 12.9237C14.3172 13.0893 14.9798 13.5449 14.8142 13.3792C14.7313 13.2964 14.2344 13.0893 14.0688 12.9237C13.8617 12.7166 14.7313 13.3378 14.6899 13.2964C14.6899 13.255 14.2758 12.9651 14.5243 13.1308L14.7728 13.2964C14.6899 13.2136 14.5243 13.1308 14.4 13.0479C14.8142 13.2964 14.9384 13.3792 15.1869 13.462C15.3111 13.5035 15.1455 13.3792 14.9798 13.2964C15.1869 13.4206 15.3525 13.5035 15.3939 13.462C15.4353 13.4206 15.2283 13.2964 15.104 13.2136C15.0212 13.1308 14.897 13.0479 14.897 13.0065C14.897 12.9651 15.3111 13.2136 15.3939 13.255C15.3525 13.1722 15.1869 13.0893 15.0626 12.9651C14.9798 12.9237 14.9384 12.8823 14.9384 12.8823C14.4001 12.551 14.1102 12.4268 13.5304 12.1369C12.9506 11.8056 13.2405 12.0126 13.1991 12.054C13.1577 12.054 12.8678 11.9712 13.1577 12.1369C13.489 12.3853 13.6547 12.4682 13.9031 12.5924C13.9031 12.5924 13.9445 12.6338 14.0274 12.6752C14.1102 12.7166 14.193 12.7995 14.3172 12.8823C14.5243 13.0479 14.7313 13.1722 14.7728 13.2136C14.6071 13.0893 14.4 12.9651 14.193 12.8409C14.1102 12.758 13.9031 12.6752 13.9031 12.6752C13.7375 12.5924 13.2405 12.2197 13.2405 12.2611C13.2405 12.3025 12.7022 12.0955 13.4062 12.551C13.3234 12.5096 13.3234 12.551 13.3234 12.5924C13.3234 12.6338 13.0335 12.4268 12.9921 12.4268C12.9092 12.4268 12.9092 12.4268 13.0335 12.5924C13.3233 12.8823 12.785 12.4682 12.785 12.5096C13.1163 12.758 13.1577 12.758 13.489 13.0893C13.6132 13.1722 14.0688 13.6277 13.8203 13.462C13.4476 13.2136 13.0749 12.8409 12.785 12.5924C12.785 12.6338 12.6608 12.5924 12.8678 12.8409C13.0749 13.0479 13.696 13.5035 13.7789 13.6691C13.9859 13.6691 14.2758 13.8762 14.5657 14.0832Z" fill="#F5BC41"/>
<path d="M13.6961 12.0538C13.5718 11.9709 13.3647 11.8467 13.3647 11.8881C13.3647 11.9295 13.6961 12.0952 13.6961 12.0538Z" fill="#F5BC41"/>
<path d="M15.1041 12.6339C14.5243 12.344 14.897 12.4269 15.1041 12.6339V12.6339Z" fill="#F5BC41"/>
<path d="M14.2343 12.1364C14.6484 12.3434 15.1868 12.5505 15.6423 12.7576C15.6009 12.7162 15.311 12.4677 15.0625 12.3434C14.6898 12.1778 15.0626 12.4263 14.9383 12.3849C14.7313 12.2606 14.607 12.1364 14.8555 12.2192C15.104 12.302 15.4352 12.5091 15.6009 12.5091C16.1807 12.5919 14.8969 12.1778 14.8555 12.1364C14.7727 12.0536 15.7251 12.4263 15.808 12.4263C15.9322 12.4263 16.015 12.4263 15.4767 12.1778C15.4767 12.1364 15.808 12.2606 15.9736 12.2606C16.0564 12.2606 16.0978 12.1778 15.6837 12.0536C16.3877 12.302 15.6837 11.8465 15.9322 11.8465C15.9322 11.8465 15.9322 11.8465 15.9736 11.8465C15.7666 11.7637 15.1039 11.598 14.6898 11.4738C14.3585 11.3496 14.4 11.4324 14.2757 11.391C14.1929 11.3496 13.5717 11.1425 13.8202 11.2667C13.9858 11.3496 14.1515 11.3496 14.1515 11.391C14.1515 11.391 14.1515 11.4324 14.1929 11.4324C14.2343 11.4738 14.6898 11.6395 14.8969 11.7223C15.3938 11.9707 13.9444 11.3496 13.9858 11.391C13.903 11.3496 14.4828 11.6394 14.2343 11.5566C13.9444 11.4738 13.5303 11.3082 13.6131 11.391C13.6131 11.391 13.9444 11.598 14.1101 11.6394C14.1515 11.6394 13.9444 11.5152 14.0273 11.5566C14.3171 11.6809 14.3171 11.7637 14.1929 11.7637C14.1515 11.7637 14.0272 11.6809 13.9858 11.6809C13.8202 11.598 13.8202 11.598 13.5303 11.4738C13.7374 11.5566 14.0272 11.7223 14.2757 11.8465C14.1515 11.8051 13.3647 11.4324 13.4889 11.5152C13.6131 11.598 13.9444 11.7223 14.0273 11.8051C14.0687 11.8465 13.8616 11.7223 13.8202 11.7223C13.5717 11.6395 14.7312 12.1778 13.7788 11.7637C13.3647 11.598 13.2404 11.5566 13.6131 11.7637C13.9858 12.0122 13.0334 11.5152 13.4061 11.7223C13.8202 11.9707 14.4414 12.3434 14.8969 12.5919C15.8494 13.2131 14.4828 12.302 14.2343 12.1364Z" fill="#F5BC41"/>
<path d="M15.932 11.8887H15.8906C15.8906 11.8887 16.0563 11.9301 15.932 11.8887Z" fill="#F5BC41"/>
<path d="M14.3586 10.3148C14.3586 10.2734 13.8616 10.1906 13.7788 10.232C13.7788 10.2734 14.3586 10.3562 14.3586 10.3148Z" fill="#F5BC41"/>
<path d="M13.9446 9.94238C13.7789 9.98379 14.193 10.0252 14.1516 9.98379C14.1102 9.98379 14.0274 9.98379 13.9446 9.94238Z" fill="#F5BC41"/>
<path d="M14.4412 11.4331C14.5655 11.4745 14.7725 11.5573 14.8553 11.5573C15.1452 11.5987 14.4826 11.3917 15.1866 11.5987C15.4351 11.6815 15.9735 11.7644 15.6836 11.6401C15.4765 11.5573 15.1866 11.4745 14.9796 11.3917C15.228 11.4745 15.7664 11.6401 15.8078 11.5987C15.8492 11.5573 15.5179 11.3917 15.9735 11.5159C15.6836 11.4331 15.3523 11.3503 15.3109 11.3088C15.4351 11.3503 16.1805 11.5573 16.1805 11.5159C16.1805 11.5159 16.0563 11.4745 15.8906 11.3917C15.725 11.3503 15.6008 11.2674 15.5594 11.2674C15.0624 11.0604 16.0977 11.3503 16.1391 11.3503C16.1805 11.3503 15.8906 11.226 15.8492 11.1846C15.7664 11.1432 15.4351 11.0604 15.2695 11.0604C15.2695 11.019 15.8906 11.1846 15.9735 11.1846C16.0563 11.1846 16.0563 11.1432 16.2219 11.1432C16.4704 11.1846 16.429 11.1846 16.2633 11.1018C16.1391 11.0604 16.1391 11.019 16.3048 11.019C16.3462 11.019 16.8431 11.0604 16.5946 11.019C16.4704 10.9775 16.0149 10.9361 15.9735 10.8947C15.9321 10.8533 16.1805 10.8947 16.3462 10.9361C16.9673 11.019 16.1391 10.8533 16.0563 10.8119C16.0977 10.8119 16.5118 10.8533 16.5118 10.8119C16.5118 10.7705 16.2633 10.7705 16.0977 10.7291C15.9321 10.6877 16.5946 10.7291 16.636 10.7291C16.7189 10.7291 16.3876 10.6463 16.3048 10.6048C16.1391 10.522 16.0149 10.4806 15.6422 10.3978C15.4765 10.3564 15.1866 10.315 15.3937 10.315C15.6008 10.315 16.1391 10.3564 16.1391 10.315C16.1391 10.2735 16.3876 10.315 16.5946 10.2736C17.0502 10.2321 15.8078 10.0665 16.636 10.1079C16.2219 10.0665 15.8492 10.0251 16.0149 9.98367C16.1391 9.94225 16.7603 9.98367 16.7603 9.94226C16.7603 9.90085 15.6422 9.94226 15.5594 9.94226C14.9796 9.90085 14.7725 9.85943 14.317 9.81802C13.9443 9.77661 14.0685 9.90084 14.1099 9.90084C14.1514 9.94226 14.7725 9.90085 15.021 9.94226C14.8967 9.94226 14.7311 9.90084 14.5241 9.90084C14.7725 9.90084 15.0624 9.94226 15.228 9.94226C15.5179 9.98367 15.1452 9.98367 14.9382 9.98367C14.6069 9.98367 14.1513 9.98367 14.7725 10.0251C14.9796 10.0251 15.6422 10.1079 15.5179 10.1493C15.4351 10.1907 14.6483 10.0665 14.4412 10.0665C14.1513 10.0251 14.2756 10.1079 14.2756 10.1493C14.317 10.2321 14.0271 10.2321 14.9382 10.3564C14.6483 10.3564 15.1038 10.3978 15.1038 10.4392L14.6897 10.3978C14.6897 10.3978 15.8078 10.5634 15.3523 10.5634C15.2695 10.5634 14.8139 10.522 14.6483 10.4806C14.4412 10.4392 14.8553 10.4806 14.8967 10.4806C14.9796 10.4806 14.8139 10.4392 14.6069 10.3978C14.317 10.3564 14.3998 10.3564 14.3998 10.315C14.0271 10.2735 13.8615 10.315 14.2342 10.3564C14.2342 10.3978 13.9443 10.3564 14.0271 10.3978C14.0685 10.4392 14.317 10.522 14.6897 10.5634C14.8553 10.6048 15.1038 10.6048 15.228 10.6048C15.3523 10.6463 15.9321 10.8119 15.7664 10.7705C15.4351 10.7291 15.1866 10.6877 14.8553 10.6463C14.5241 10.6048 14.3584 10.5634 14.3584 10.6048C14.317 10.6463 13.9857 10.5634 13.9443 10.6048C14.0271 10.5634 16.7603 11.1846 14.3998 10.7291C13.9857 10.6463 13.8615 10.6463 14.1099 10.7291C14.2342 10.7705 15.1038 10.9775 15.1038 10.9775C15.1038 10.9775 15.021 10.9775 14.9382 10.9361C14.8139 10.8947 14.6897 10.8947 14.5241 10.8533C14.2342 10.7705 13.9443 10.7291 13.9443 10.7291C14.2342 10.8119 15.228 11.019 15.3109 11.0604C15.3937 11.1432 14.3998 10.8533 14.2342 10.8533C14.1513 10.8533 14.2342 10.8947 14.1927 10.8947C14.1927 10.8947 13.9857 10.8533 13.9029 10.8533C13.8615 10.8533 14.0271 10.9361 14.1927 10.9775C14.3584 11.0604 14.5655 11.1432 14.5655 11.1432C14.4412 11.1018 14.1928 11.019 14.0271 10.9775C13.9443 10.9775 14.0685 11.019 14.1099 11.0604C14.1928 11.1018 14.8968 11.3503 14.8553 11.3503C14.7725 11.3503 14.1513 11.1432 13.9443 11.1018C13.6958 11.0604 14.0685 11.1846 14.2756 11.2674C14.317 11.3917 14.1513 11.3503 14.4412 11.4331Z" fill="#F5BC41"/>
<path d="M15.2696 9.9002C15.6009 9.9002 16.0564 9.90021 15.8493 9.8588C15.8493 9.8588 15.8493 9.8588 15.8079 9.8588L14.8555 9.81738C15.0211 9.81738 15.1453 9.8588 15.311 9.8588C15.1039 9.81739 14.4414 9.85879 15.2696 9.9002Z" fill="#F5BC41"/>
<path d="M14.3171 9.6102C14.1928 9.6102 13.7373 9.56879 13.7373 9.6102C13.7373 9.6102 14.3585 9.65161 14.3171 9.6102Z" fill="#F5BC41"/>
<path d="M16.8848 9.85922C16.9262 9.85922 16.5535 9.81781 16.5535 9.81781C16.5121 9.7764 16.7191 9.7764 16.6777 9.73499C16.6363 9.69357 16.5121 9.65216 16.3464 9.65216C16.2636 9.65216 15.9737 9.61075 15.9737 9.61075C15.9737 9.61075 16.0979 9.61075 16.2222 9.61075C16.3464 9.61075 16.4707 9.61075 16.4292 9.61075C16.2222 9.56934 15.6838 9.56934 15.4354 9.56934H14.0688C14.0688 9.61075 15.0627 9.61075 14.9798 9.65216C14.897 9.65216 13.9031 9.61075 13.9445 9.65216C14.7314 9.65216 14.2758 9.69357 14.6071 9.73499C14.9384 9.7764 15.601 9.73499 15.5596 9.81781C15.5182 9.85922 15.0627 9.81781 14.8556 9.77639C14.5657 9.73498 14.0688 9.77639 13.8203 9.77639C13.8203 9.81781 14.9798 9.85922 15.1869 9.90063C15.5596 9.94204 16.4292 9.94204 16.4706 10.0249C16.3878 9.85922 16.4292 9.85922 16.8848 9.85922Z" fill="#F5BC41"/>
<path d="M16.719 9.44524C16.7605 9.40383 16.6776 9.36242 16.4706 9.32101C16.2635 9.27959 15.8494 9.321 15.6837 9.27959C15.5595 9.27959 16.6362 9.19677 16.719 9.19677C16.8019 9.15536 16.6776 9.15536 16.6362 9.11395C16.5534 9.07254 16.512 9.03112 16.5534 8.98971C16.5534 8.9483 16.8847 8.86547 16.3463 8.86547C16.2635 8.86547 14.7727 8.90689 15.104 8.86547C15.1454 8.86547 15.5595 8.86547 15.6837 8.86547C15.8494 8.86547 16.015 8.82407 16.1393 8.82407C16.4706 8.74124 16.512 8.65842 16.4706 8.61701C16.4706 8.5756 16.512 8.53418 16.3049 8.53418C16.015 8.53418 16.1393 8.57559 16.1393 8.57559C16.1807 8.57559 15.5595 8.61701 15.5181 8.61701C15.1868 8.65842 14.7727 8.65842 14.4414 8.69983C14.1515 8.74124 14.4414 8.74124 14.2343 8.74124C13.9445 8.78265 13.8202 8.78265 13.9445 8.82407C14.0687 8.86548 14.1929 8.86547 14.7313 8.86547C14.8969 8.86547 15.311 8.82407 15.1454 8.82407C14.9383 8.82407 15.5181 8.78265 15.5595 8.78265C15.6423 8.78265 16.2221 8.78265 16.0979 8.82407C16.0565 8.82407 15.6837 8.82407 15.6009 8.82407C15.3525 8.82407 15.0626 8.86548 14.8555 8.90689C14.8555 8.90689 14.7313 8.9483 14.5656 8.98971C14.4 9.03112 14.2343 9.03112 14.1515 9.03112C14.1101 9.03112 14.3171 8.98971 14.1929 8.98971C14.0687 8.98971 13.7788 9.11394 14.4828 9.07253C14.7727 9.07253 14.6485 9.07254 14.7727 9.11395C14.9383 9.15536 14.8969 9.11395 15.104 9.11395C15.0212 9.11395 14.4414 9.19677 14.3586 9.19677C14.0687 9.23818 14.1929 9.27959 14.2343 9.32101C13.903 9.40383 15.0212 9.32101 15.3525 9.32101C15.4353 9.32101 15.4353 9.36241 15.4353 9.36241C15.4353 9.36241 15.104 9.36241 15.0626 9.36241C14.7313 9.36241 14.3172 9.40383 14.5656 9.44524C14.8141 9.48665 15.2696 9.48665 15.5181 9.52806C15.5595 9.56948 15.9322 9.56947 16.0564 9.61089C16.0979 9.61089 15.1868 9.56947 15.104 9.56947C14.8555 9.56947 14.3586 9.56947 14.2343 9.56947C14.0273 9.61088 14.5242 9.6523 14.8141 9.61089C14.9797 9.61089 15.1454 9.56947 15.3525 9.56947C15.5595 9.56947 15.4767 9.61089 15.4353 9.61089C15.4353 9.52806 16.6776 9.52806 16.719 9.44524Z" fill="#F5BC41"/>
<path d="M16.015 8.24399C15.3938 8.24399 16.4291 8.20258 16.015 8.24399V8.24399Z" fill="#F5BC41"/>
<path d="M15.7668 8.32697C15.8082 8.28555 16.1809 8.28555 16.3051 8.28555C16.4708 8.24414 16.1809 8.24414 16.0152 8.24414C15.8082 8.24414 14.3588 8.36838 14.6487 8.40979C14.4002 8.4512 14.1931 8.4512 14.2345 8.40979C13.8204 8.4512 14.3173 8.49261 14.4002 8.49261C14.69 8.53402 15.1456 8.53402 15.8082 8.4512C16.9677 8.36838 15.6839 8.40979 15.7668 8.32697Z" fill="#F5BC41"/>
<path d="M16.305 7.45685C16.4706 7.41544 16.512 7.41543 16.4706 7.41543V7.37402C16.3049 7.37402 16.2221 7.41544 16.305 7.45685Z" fill="#F5BC41"/>
<path d="M15.0625 7.00137C15.0625 7.00137 15.021 7.00137 14.9796 7.00137C14.8554 7.04278 14.814 7.04279 14.7726 7.04279C14.5655 7.0842 14.3584 7.12561 14.3999 7.16702C14.4413 7.16702 15.1453 7.00137 15.2281 6.95996C15.2695 6.95996 15.1453 6.95996 15.0625 7.00137Z" fill="#F5BC41"/>
<path d="M15.0628 7.00183C15.1871 6.96042 14.7729 7.04324 14.7729 7.04324C14.8558 7.04324 14.8972 7.00183 14.98 7.00183C14.98 7.00183 15.0214 7.00183 15.0628 7.00183Z" fill="#F5BC41"/>
<path d="M13.8614 7.33322C13.82 7.33322 14.027 7.2504 13.9856 7.20898C13.5301 7.29181 13.82 7.29181 13.8614 7.33322Z" fill="#F5BC41"/>
<path d="M14.3998 8.36849C14.3584 8.32708 15.1038 8.24426 14.9796 8.20284C14.8968 8.20284 14.6483 8.20284 14.5655 8.20284C14.5655 8.20284 14.3998 8.16143 14.5241 8.16143C14.3584 8.16143 14.1928 8.20284 13.9857 8.20284C14.3998 8.16143 14.6483 8.12002 15.021 8.0372C14.7725 8.0372 13.9857 8.12002 14.1928 8.0372C14.317 7.99579 14.9382 7.87155 15.1452 7.87155C15.1867 7.87155 15.3523 7.87155 15.3523 7.83014C15.4351 7.78873 15.2695 7.78873 15.228 7.83014C15.1038 7.83014 14.8139 7.83014 14.5655 7.87155C14.2342 7.91297 13.8615 7.95438 13.9443 7.91296C13.9857 7.87155 14.6483 7.78873 14.8554 7.70591C14.9382 7.66449 14.7311 7.66449 14.5655 7.70591C14.3998 7.74732 14.2342 7.78873 14.0271 7.83014C13.5716 7.91296 13.6544 7.87155 14.0685 7.78873C13.9029 7.83014 13.6958 7.83014 13.7372 7.83014C13.8201 7.78873 14.1928 7.70591 14.3584 7.70591C14.9382 7.58167 15.5179 7.45744 16.0977 7.3332C15.6836 7.41602 15.1866 7.45744 14.8554 7.54026C14.6897 7.58167 14.4826 7.66449 14.2756 7.70591C14.0271 7.74732 14.3998 7.62308 14.4412 7.62308C14.7311 7.54026 15.5179 7.37461 15.3523 7.3332C15.2695 7.3332 14.4412 7.58167 14.3998 7.58167C13.7372 7.78873 13.9857 7.62308 13.9857 7.62308C13.9443 7.58167 13.6544 7.62308 13.8201 7.58167C13.9029 7.54026 14.317 7.45743 14.4412 7.41602C14.6483 7.37461 15.4351 7.16755 15.4351 7.12614C15.4351 7.12614 15.3523 7.12614 15.2695 7.16755C15.1866 7.20896 15.021 7.20897 14.8968 7.25038C14.7725 7.29179 14.6483 7.3332 14.5241 7.3332C14.4412 7.37461 14.3584 7.37461 14.3584 7.37461C14.3584 7.37461 14.6069 7.29179 14.4412 7.3332C14.3584 7.3332 14.0271 7.45744 13.8615 7.49885C13.2403 7.62308 13.9029 7.45743 14.1928 7.37461C13.9029 7.45743 13.3645 7.58167 13.8615 7.41602C14.317 7.29179 15.2281 7.00191 15.6836 6.91908C15.6836 6.91908 15.3937 6.96049 15.3523 6.96049C15.1038 7.00191 14.8554 7.04332 14.5655 7.12614C13.9029 7.37461 14.7725 7.00191 14.7725 7.00191C14.7725 7.00191 13.9443 7.29179 14.2342 7.16755C14.317 7.12614 13.9029 7.20896 13.9029 7.20896L14.2756 7.04332C14.317 7.04332 12.9918 7.45744 13.4059 7.29179C13.6544 7.16755 14.4412 6.91908 14.8554 6.79485C14.6483 6.83626 14.4412 6.87767 14.2756 6.96049C14.1513 7.00191 13.8615 7.08473 13.6544 7.12614C13.613 7.12614 13.7372 7.12614 13.6544 7.16755C13.4059 7.29179 13.4473 7.16755 13.4473 7.16755C13.4473 7.16755 13.2817 7.12614 13.6544 7.04332C14.8139 6.67062 13.1989 7.08473 13.4473 6.96049C13.5716 6.87767 14.2756 6.6292 14.4826 6.54638C14.8968 6.38073 15.5179 6.13226 15.8078 6.09085C16.0563 6.04944 15.8492 6.13226 15.4765 6.2565C15.2281 6.33932 15.021 6.50497 14.8968 6.54638C15.1866 6.46355 15.6008 6.33932 15.932 6.21509C15.7664 6.29791 14.2756 6.83626 14.7311 6.67061C15.1038 6.54638 15.6008 6.38073 15.8492 6.33932C16.0563 6.29791 16.3462 6.33932 15.8078 6.50497C16.2633 6.33932 16.0149 6.50497 15.8078 6.58779C15.725 6.6292 15.1452 6.83626 15.5594 6.75344C15.8907 6.67061 16.2634 6.54638 16.0977 6.67061C15.8906 6.79485 16.1805 6.67061 16.2219 6.75344C15.7664 6.96049 16.3462 6.9605 16.3462 7.04332C16.3462 7.08473 16.3876 7.12614 16.1805 7.16755C16.1391 7.16755 16.0149 7.20897 15.8906 7.25038C15.7664 7.29179 15.6836 7.29179 15.6836 7.29179C15.6836 7.29179 16.1805 7.25038 16.2633 7.25038C16.429 7.25038 16.2634 7.3332 16.0977 7.41602C15.4765 7.58167 16.0977 7.45743 16.2633 7.41602C16.3462 7.41602 16.3876 7.45744 16.3462 7.45744C16.3048 7.49885 16.0563 7.49885 16.0149 7.54026C15.9735 7.54026 16.4704 7.49885 16.429 7.54026C16.3462 7.62308 15.8078 7.74732 15.6008 7.83014C15.2281 7.95437 16.1391 7.74732 16.3462 7.70591C16.8017 7.62308 16.1391 7.83014 16.4704 7.78873C15.8078 7.91296 16.5947 7.91296 16.3876 7.95438C16.0563 7.99579 15.7664 8.0372 15.5179 8.12002L15.1866 8.24426C15.4765 8.20284 15.8078 8.12002 16.0977 8.07861C16.1391 8.07861 16.4704 7.99579 16.5118 7.99579C16.5946 7.99579 16.5118 8.0372 16.3462 8.0372C16.3462 8.0372 16.4704 8.07861 16.3462 8.12002C16.0977 8.16143 16.0149 8.16143 16.0563 8.20284C16.1391 8.20284 16.3462 8.20284 16.0977 8.24426C16.2634 8.28567 16.0977 8.28567 16.5532 8.24426C16.3876 8.24426 16.4704 8.40991 15.7664 8.40991C15.4351 8.45132 15.2281 8.49273 14.9796 8.49273L14.6069 8.53414C14.6069 8.32708 14.6069 8.32708 14.3998 8.36849ZM15.3523 7.62308C15.4765 7.58167 15.1038 7.62308 14.8968 7.66449C14.7725 7.66449 14.6897 7.70591 14.6069 7.74732C14.8139 7.70591 15.1038 7.7059 15.3523 7.62308Z" fill="#F5BC41"/>
<path d="M14.7726 5.88421C14.9797 5.80139 15.1867 5.71857 15.2281 5.63574C15.1867 5.63574 14.4413 6.00845 14.7726 5.88421Z" fill="#F5BC41"/>
<path d="M15.5182 5.75897C15.3939 5.80039 15.1454 5.88321 15.0212 5.92462C14.7313 5.96603 15.1455 5.8418 15.3525 5.75897C15.4768 5.71756 16.0151 5.38627 15.6838 5.55192C15.4353 5.63474 15.0212 5.8418 14.7728 5.96603C14.2344 6.29733 14.3586 6.09027 14.4 6.09027C14.2758 6.17309 14.0688 6.25591 13.8617 6.33874C13.8203 6.38015 13.7789 6.38015 13.7375 6.38015C13.5718 6.46297 13.2819 6.5458 13.1991 6.62862C13.0335 6.75286 13.3233 6.62862 13.5718 6.50438C13.6132 6.46297 14.3172 6.17309 14.1102 6.29733C13.9445 6.38015 13.5718 6.5458 13.3647 6.62862C13.1991 6.71144 13.3233 6.67003 13.4476 6.67003C13.6132 6.62862 13.5718 6.71144 13.6546 6.71144C13.7789 6.71144 14.6071 6.38015 14.9384 6.25592C15.2697 6.00745 15.9737 5.63474 15.5182 5.75897Z" fill="#F5BC41"/>
<path d="M13.6548 6.33897C13.6962 6.29756 13.779 6.29756 13.779 6.29756C13.9447 6.21474 13.3649 6.46321 13.6548 6.33897Z" fill="#F5BC41"/>
<path d="M13.5306 5.80078C13.3236 5.8836 12.661 6.29772 12.9095 6.17348C13.0751 6.09066 13.572 5.80078 13.5306 5.80078Z" fill="#F5BC41"/>
<path d="M13.7373 5.5109C13.4889 5.63514 12.7849 6.09067 12.9091 6.04926C13.0747 6.00785 14.11 5.34526 13.7373 5.5109Z" fill="#F5BC41"/>
<path d="M13.7375 5.51121C13.5304 5.59404 13.9446 5.42839 13.7375 5.51121V5.51121Z" fill="#F5BC41"/>
<path d="M12.0809 4.5588C11.791 4.84868 11.5425 5.22139 11.8738 4.84868C12.0809 4.60021 12.3294 4.31033 12.0809 4.5588Z" fill="#F5BC41"/>
<path d="M12.7852 2.07324C12.4125 2.65301 12.5781 2.2803 12.7852 2.07324V2.07324Z" fill="#F5BC41"/>
<path d="M15.6425 5.38657C15.5182 5.42799 15.0627 5.51081 15.5597 5.34516C15.891 5.17951 15.7667 5.17951 15.7253 5.1381C15.6425 5.09669 15.6011 5.01387 15.394 5.05528C15.1456 5.09669 15.5182 4.84822 15.4354 4.80681C15.3526 4.7654 14.5244 5.26234 15.0627 4.88963C15.4354 4.68257 14.9799 4.7654 15.0627 4.72398C15.394 4.55834 15.1041 4.51693 15.0627 4.47552C14.9799 4.4341 15.1456 4.30987 15.0627 4.26846C15.0213 4.30987 14.8971 4.4341 14.7728 4.51693C14.6486 4.59975 14.69 4.47552 14.69 4.47552C14.6486 4.47552 14.5244 4.59975 14.483 4.55834C14.4415 4.55834 14.6072 4.4341 14.7728 4.30987L14.8142 4.35128C15.1041 4.10281 15.0627 4.0614 14.8971 4.10281C14.7314 4.14422 15.0627 3.93716 14.9799 3.89575C14.8971 3.85434 14.5658 4.10281 14.4001 4.18564C14.2345 4.26846 14.6486 3.93716 14.7314 3.81293C14.9799 3.52305 14.4415 3.85434 14.483 3.68869C14.5244 3.60587 14.5244 3.56446 14.2759 3.81293C14.1103 3.97858 14.2759 3.68869 14.2759 3.68869C14.1931 3.64728 14.0689 3.77152 14.5244 3.31599C14.69 3.19176 14.2759 3.44022 14.2345 3.48163C13.9446 3.7301 13.8204 3.85434 13.7376 3.85434C13.8204 3.68869 13.6133 3.93716 13.4063 4.10281C13.282 4.22705 12.4952 4.97246 12.4538 4.97246C12.4124 4.97246 13.1164 4.30987 13.2406 4.22705C13.3234 4.14422 13.8204 3.6887 13.8204 3.73011C14.1103 3.48164 14.5658 3.02611 14.0688 3.44022C14.1517 3.27458 14.3173 3.15034 14.2759 3.15034C14.0688 3.31599 14.0274 3.27458 14.0274 3.23317C13.986 3.19175 14.1103 2.9847 13.9032 3.10893C13.8204 3.15034 13.7376 3.19176 13.6133 3.31599C13.8204 3.06752 14.0688 2.81905 14.0688 2.73623C14.0688 2.73623 14.0274 2.77764 13.9446 2.86046C13.8618 2.94328 13.779 3.02611 13.6962 3.10893C13.5305 3.31599 13.3234 3.52305 13.282 3.56446C13.5719 3.23317 13.9032 2.86046 13.8618 2.81905C13.8204 2.77764 13.8204 2.6534 13.5719 2.94329C13.7375 2.77764 13.779 2.6534 13.779 2.61199C13.779 2.52917 13.6961 2.6534 13.5305 2.86046C13.5305 2.86046 13.7376 2.52917 13.6962 2.52917C13.6962 2.48776 13.282 2.90187 13.1992 3.02611C13.1578 3.06752 12.9093 3.3574 12.9507 3.3574C12.9921 3.3574 12.8679 3.52305 12.8679 3.52305C12.8265 3.52305 12.7851 3.48164 12.9507 3.23317C13.075 3.02611 13.3234 2.81905 13.4063 2.6534C13.5305 2.44634 13.075 2.98469 12.9921 3.06752C12.8679 3.19175 13.1164 2.81905 13.1578 2.73623C13.3648 2.40493 13.3234 2.32211 12.9507 2.77764C12.8679 2.86046 12.9093 2.61199 13.1164 2.40493C13.0336 2.48776 12.8265 2.77764 12.7851 2.77764C12.7437 2.77764 12.8679 2.57058 12.9093 2.44634C12.9507 2.2807 12.578 2.90187 12.4952 3.02611C12.6194 2.86046 12.5366 2.90187 12.7023 2.61199C12.7437 2.52917 13.075 2.11505 12.9921 2.11505C12.9507 2.15646 12.9093 2.19788 12.8679 2.2807H12.8265C12.8679 2.23929 12.7851 2.2807 12.7851 2.32211C12.6194 2.52917 12.371 2.86046 12.1639 3.10893C12.0397 3.27458 11.874 3.56446 11.8326 3.56446C11.9983 3.27458 12.2053 3.02611 12.371 2.73623C12.4952 2.52917 12.4124 2.61199 12.4538 2.52917C12.4952 2.40493 12.7023 2.15646 12.7023 2.07364C12.7023 2.07364 12.6608 1.99082 12.6194 2.11505C12.5366 2.2807 12.371 2.61199 12.2467 2.73623C12.1225 2.86046 12.2467 2.6534 12.2881 2.52917C12.4952 2.11505 12.578 2.03223 12.4952 2.03223C12.371 2.03223 12.0397 2.6534 11.7498 3.19175C11.5842 3.48164 11.3771 3.85434 11.17 4.18564C10.7559 4.88963 11.3771 3.93717 11.3771 3.93717C11.3771 3.93717 11.2943 4.0614 11.2115 4.22705C11.1286 4.35128 11.0458 4.51693 11.0044 4.55834C11.0458 4.55834 11.2114 4.22705 11.2943 4.14422C11.4185 4.01999 11.4185 4.10281 11.5427 3.97858C11.5842 3.93717 11.7912 3.73011 11.5841 4.0614C11.5013 4.18563 11.2529 4.55834 11.2529 4.55834C11.2943 4.55834 11.2943 4.64116 11.4599 4.51693C11.5841 4.39269 11.9568 3.85434 12.1225 3.60587C11.9154 3.85434 12.0811 3.7301 12.1225 3.68869C12.1639 3.68869 11.874 4.0614 11.874 4.0614C11.7498 4.26846 11.2114 5.01387 11.5427 4.59975C11.7498 4.35128 11.9154 4.0614 12.0811 3.81293C12.2053 3.60587 12.4124 3.48164 12.2881 3.60587C12.2467 3.64728 12.0397 3.89575 12.0397 3.93717C12.0397 3.97858 12.2053 3.77152 12.0811 3.97858C11.9983 4.10281 11.9154 4.22705 11.7912 4.35128C11.9983 4.10281 12.9921 2.73623 12.7851 3.15034C12.7437 3.23317 11.5842 4.68257 11.6256 4.68257C11.7084 4.59975 12.2467 3.97858 12.371 3.81293C12.2882 3.89575 11.9154 4.4341 11.874 4.47552C11.7084 4.72399 12.2881 3.93716 12.2053 4.01999C12.3296 3.89575 12.3296 3.93716 12.371 3.89575C12.5366 3.68869 12.4952 3.77152 12.5366 3.77152C12.4124 3.89575 11.9154 4.55834 11.9983 4.39269C11.7912 4.64116 11.4599 5.09669 11.7498 4.80681C11.9154 4.59975 12.4124 3.97857 12.5366 3.89575C12.5366 3.89575 12.4124 4.0614 12.2467 4.22705C12.0811 4.39269 11.9569 4.59975 11.9569 4.59975C11.9569 4.64116 12.4952 4.01999 12.7023 3.81293C12.7437 3.81293 12.4952 4.0614 12.4952 4.10281C12.4952 4.14422 12.5366 4.14422 12.4538 4.22705C12.4124 4.30987 12.3296 4.47552 12.1639 4.64116C12.0397 4.7654 11.9154 4.93104 11.9569 4.88963C11.9983 4.88963 12.1225 4.7654 12.0397 4.88963C11.9569 4.97246 11.9154 5.01387 11.9569 4.97246C11.9983 4.97246 12.1225 4.84822 12.2467 4.7654C12.3296 4.72399 12.6194 4.47552 12.4952 4.59975C12.4538 4.64116 12.1639 4.93104 12.1639 4.93104C12.2053 4.88963 12.7437 4.43411 12.7437 4.39269C12.6194 4.55834 12.9507 4.26846 12.8679 4.35128C12.7437 4.51693 12.371 4.84822 12.2053 5.01387C12.3296 4.88963 12.4124 4.80681 12.5366 4.72398C12.3295 4.93104 12.2053 5.1381 12.2053 5.1381C12.2053 5.17951 12.0397 5.42798 12.4124 5.05528C12.8679 4.59975 12.6194 4.93105 13.075 4.55834C13.1578 4.51693 13.4063 4.26846 13.3234 4.39269C13.2406 4.47552 13.075 4.59975 13.0336 4.64116C12.8265 4.80681 13.282 4.47551 13.0336 4.72398C12.8265 4.88963 12.6609 5.05528 12.6609 5.09669C12.6609 5.1381 12.371 5.34516 12.4124 5.34516C12.5366 5.26234 12.6194 5.22093 12.4538 5.34516C12.6609 5.17951 13.4063 4.55834 13.4891 4.47552C13.6133 4.35128 14.2345 3.81293 13.9446 4.10281C13.4063 4.64116 14.2759 3.85434 14.2759 3.93717C14.2759 3.97858 14.0688 4.14422 13.9446 4.26846C13.6961 4.47552 13.8204 4.30987 13.6962 4.4341C13.6962 4.4341 13.4477 4.64116 13.2406 4.84822C13.1164 4.93104 13.0335 5.05528 12.9507 5.09669C12.8679 5.17951 12.8265 5.22093 12.8265 5.22093C12.8265 5.22093 13.4891 4.72399 13.282 4.88963C13.1578 5.01387 13.075 5.09669 12.9921 5.17952C13.1992 5.01387 13.282 5.01387 13.1578 5.1381C12.9921 5.30375 12.6608 5.51081 12.6194 5.59363C12.8679 5.38657 12.7023 5.55222 12.8679 5.42799C12.9507 5.34516 13.1578 5.22093 13.2406 5.1381C13.2406 5.1381 13.282 5.09669 13.3234 5.05528C13.5305 4.88963 14.1103 4.51693 14.3173 4.39269C14.1103 4.51693 13.8204 4.7654 13.6962 4.88963C13.7376 4.88963 13.4477 5.1381 13.4063 5.1381C13.4063 5.17951 14.483 4.39269 14.483 4.47552C14.4001 4.47552 13.5305 5.09669 13.2406 5.30375C12.8679 5.55222 13.1578 5.38657 13.4063 5.22093C13.1578 5.38657 12.3296 6.00775 12.9093 5.63504C13.8204 5.01387 12.7851 5.75928 13.0336 5.63504C13.3648 5.4694 13.6547 5.22093 13.6133 5.22093C13.5719 5.22093 14.3173 4.7654 14.4416 4.68257C14.2759 4.84822 14.0688 4.97246 13.8618 5.1381C13.6547 5.30375 13.4063 5.42799 13.2406 5.59363C13.075 5.71787 12.9507 5.80069 12.8679 5.88351L13.4891 5.4694C13.4891 5.4694 12.9921 5.80069 12.9507 5.8421C12.7851 5.96634 13.0335 5.8421 13.1578 5.75928C13.0335 5.8421 12.9093 6.00775 12.8679 6.00775C13.282 5.75928 13.7376 5.42799 14.1517 5.22093C14.2759 5.1381 14.2759 5.17952 14.2759 5.17952C14.2759 5.17952 14.0688 5.30375 13.986 5.34516C13.7375 5.55222 14.3587 5.17951 14.483 5.1381C14.5244 5.09669 14.6486 5.1381 14.5658 5.17952C14.483 5.22093 14.1931 5.34516 13.9032 5.51081C13.779 5.59363 13.1164 6.00775 13.075 6.00775C13.1992 5.92493 14.0689 5.4694 14.2345 5.38657C14.4416 5.30375 14.2759 5.42798 14.0688 5.55222C13.8204 5.67645 13.075 6.13198 13.2406 6.09057C13.282 6.09057 13.4477 6.00775 13.3648 6.09057C13.3234 6.13198 13.1164 6.21481 13.1164 6.21481C13.0336 6.29763 13.779 5.92492 13.9032 5.88351C13.986 5.8421 13.6133 6.09057 13.5719 6.13198C13.5719 6.13198 13.1992 6.38045 13.6547 6.13198C13.986 5.96634 14.3173 5.80069 14.4001 5.8421C14.0274 6.00775 13.0335 6.50469 13.3648 6.38045C13.4063 6.42186 14.6072 5.80069 14.8557 5.71787C14.8971 5.71787 13.7376 6.25622 13.6962 6.25622C13.779 6.25622 14.8143 5.75928 15.0627 5.67645C15.2698 5.59363 16.0566 5.30375 15.6425 5.38657Z" fill="#F5BC41"/>
<path d="M10.4659 3.73047C10.4245 3.8547 10.2175 4.26882 10.2589 4.26882L10.4659 3.73047Z" fill="#F5BC41"/>
<path d="M10.9631 1.41134C10.8389 1.61839 11.0873 1.20428 10.9631 1.41134V1.41134Z" fill="#F5BC41"/>
<path d="M11.2114 3.89606C11.2528 3.89606 11.6669 3.19207 11.6669 3.15065C11.6669 3.15065 11.5013 3.27489 11.7498 2.9436C11.8326 2.81936 11.7498 2.98501 11.874 2.81936C12.0811 2.48807 12.2881 2.07395 12.3295 1.9083C12.3709 1.70125 12.2881 1.70125 12.1639 1.86689C12.0811 1.94972 11.667 2.69513 11.8326 2.32242C11.874 2.19819 12.0396 1.9083 12.1225 1.78407C12.2053 1.61842 12.1225 1.65983 12.0811 1.70125C12.0397 1.70125 11.9154 1.94971 11.8326 2.03254C11.7498 2.11536 11.7912 1.99113 11.8326 1.86689C11.8326 1.78407 11.8326 1.36995 11.6255 1.86689C11.5841 1.94972 11.2942 2.57089 11.3771 2.36383C11.4599 2.15677 11.5841 1.9083 11.6669 1.70125C11.6255 1.82548 11.3771 2.19819 11.5841 1.70125C11.6669 1.45278 11.5013 1.86689 11.4599 1.86689C11.4185 1.86689 11.5427 1.49419 11.5427 1.45278C11.5427 1.41136 11.3771 1.82548 11.3771 1.70125C11.4185 1.5356 11.4599 1.32854 11.4185 1.32854C11.4185 1.32854 11.3771 1.41136 11.3357 1.45278C11.2942 1.5356 11.2528 1.57701 11.2528 1.57701C11.2114 1.57701 11.2528 1.41136 11.17 1.41136C11.1286 1.41136 11.17 1.2043 11.0458 1.41136C11.0044 1.45277 10.963 1.5356 10.9215 1.65983C10.9215 1.70125 11.0044 1.57701 10.9629 1.70125C10.9215 1.86689 10.8801 2.03254 10.8387 2.2396C10.7559 2.57089 10.6317 2.98501 10.5074 3.3163C10.4246 3.52336 10.3418 3.77183 10.3004 3.89606C10.259 4.0203 10.466 3.52336 10.5074 3.44053C10.6731 3.10924 10.466 3.68901 10.5074 3.60618C10.5074 3.56477 10.6317 3.35771 10.6317 3.3163C10.5902 3.44054 10.466 3.77183 10.466 3.81324C10.466 3.81324 10.963 2.77795 11.0044 2.65371C11.2528 2.2396 10.8387 3.06783 10.8801 3.06783C10.8801 3.06783 10.9215 2.98501 10.9629 2.90218C11.0044 2.81936 11.0458 2.73654 11.0872 2.69513C11.1286 2.65371 11.0458 2.86077 11.0044 2.9436C10.9215 3.19207 10.7973 3.44053 10.7145 3.689C10.7559 3.60618 11.1286 2.98501 11.0872 3.02642C10.9629 3.35771 10.6317 3.85465 10.5903 4.0203C10.5074 4.22736 10.9629 3.48195 10.6731 4.10312L11.0458 3.3163C11.0872 3.3163 10.7559 3.93748 10.9215 3.73042C11.0044 3.60618 11.0458 3.56477 11.17 3.3163C11.2114 3.23348 11.2528 3.3163 11.2528 3.3163C11.17 3.3163 10.7973 4.06171 11.0458 3.73042C11.1286 3.64759 10.9629 3.97889 10.9629 3.97889C10.9629 4.06171 11.0872 3.85465 11.1286 3.85465C11.1286 3.85465 10.8801 4.43442 11.1286 4.0203C11.2114 3.89606 11.4185 3.48195 11.4599 3.39912C11.5013 3.3163 11.4185 3.56477 11.5427 3.39912C11.5841 3.35771 11.6255 3.23348 11.6669 3.15065C11.7084 3.06783 11.3771 3.81324 11.2942 3.93748C11.2528 3.93748 11.4599 3.52336 11.1286 4.10312C11.1286 4.14453 11.1286 4.26877 11.1286 4.26877C11.17 4.26877 11.2114 4.18595 11.0872 4.43442C11.1286 4.43442 11.0872 4.43442 11.17 4.35159C11.2114 4.10312 11.2528 3.89606 11.2114 3.89606Z" fill="#F5BC41"/>
<path d="M9.09912 3.23321C9.09912 3.27462 9.14053 3.06756 9.09912 3.23321V3.23321Z" fill="#F5BC41"/>
<path d="M10.1759 3.64744C10.1759 3.60603 10.2587 3.1091 10.3001 3.1091C10.2173 3.44039 10.6729 2.19804 10.59 2.57074C10.5072 2.7778 10.4244 3.10909 10.4658 3.06768C10.4658 3.06768 10.5072 3.06768 10.5486 2.90204C10.7557 2.32227 10.6728 2.32227 10.7557 1.99098C10.7971 1.78392 11.0041 1.24557 10.9627 1.20416C10.9213 1.16274 10.8799 1.20416 10.8385 1.24557C10.7971 1.28698 10.6728 1.57686 10.6728 1.3698C10.6728 1.24557 10.7143 1.20416 10.59 1.45263C10.59 1.45263 10.5072 1.53545 10.5486 1.3698C10.5486 1.41121 10.4244 1.74251 10.4244 1.74251C10.4244 1.65969 10.59 1.20416 10.59 1.12133C10.59 1.07992 10.4658 1.28698 10.4658 1.32839C10.383 1.45263 10.2587 1.94957 10.3415 1.82533C10.2173 2.23945 10.3001 1.82533 10.2587 1.99098C10.2587 2.03239 10.2173 2.19804 10.1759 2.36368C10.1345 2.52933 10.0931 2.65356 10.0931 2.65356C10.0517 2.65356 10.3001 1.86674 10.3415 1.65969C10.383 1.45263 10.383 1.28698 10.4244 1.16274C10.4244 1.07992 10.3415 0.831451 10.3415 0.790039C10.3415 0.831451 10.2173 1.3698 10.2173 1.49404C10.1759 1.49404 10.3001 0.997098 10.2587 0.955686C10.2173 0.872863 10.1345 1.12133 10.0931 1.32839C10.0103 1.53545 10.0103 1.45263 10.0931 1.16274C10.1345 0.914275 10.0517 0.997097 10.0517 0.997097C10.0517 0.997097 9.96884 0.955687 9.92743 1.12133C9.88602 1.20416 9.80319 1.65969 9.8446 1.45263C9.88601 0.872865 9.88603 0.914277 9.7618 1.65969C9.72039 1.65969 9.8446 1.20416 9.8446 1.07992C9.80319 1.07992 9.8032 0.790042 9.8032 0.831453C9.76179 0.872865 9.67896 1.82533 9.63754 1.45263C9.63754 1.24557 9.72037 0.914275 9.63754 0.955686C9.59613 0.955686 9.55474 1.3698 9.47191 1.57686C9.47191 1.61827 9.34768 2.15662 9.34768 2.19804C9.34768 2.23945 9.43051 2.36368 9.34768 2.7778C9.30627 3.06768 9.26484 2.7778 9.22343 3.15051C9.22343 3.15051 9.14062 3.60603 9.14062 3.8545C9.14062 3.68886 9.18202 3.52321 9.22343 3.39898C9.18202 3.64745 9.18202 3.93733 9.22343 3.89591C9.26484 3.81309 9.34767 3.52321 9.38908 3.27474C9.4305 3.02627 9.55473 2.44651 9.51331 2.81921C9.4719 3.23333 9.51332 3.02627 9.59614 2.69498C9.55473 2.90204 9.55474 3.15051 9.55474 3.15051C9.51333 3.15051 9.4305 3.52321 9.47191 3.56462C9.47191 3.56462 9.4719 3.73027 9.51331 3.73027C9.55473 3.73027 9.80321 2.4051 9.7618 2.7778C9.72039 3.10909 9.47191 4.1858 9.59614 3.81309C9.63755 3.68886 9.72039 3.35756 9.7618 3.1091C9.80321 2.81921 9.84461 2.81921 9.92743 2.48792C9.96884 2.48792 9.80321 3.10909 9.7618 3.23333C9.72039 3.44039 9.63755 3.73027 9.59614 3.93733C9.55473 4.10298 9.63754 3.89592 9.63754 3.77168C9.72037 3.4818 9.80321 2.98486 9.88603 2.7778C9.92744 2.69498 9.92744 2.81921 9.88603 2.98486C9.84462 2.98486 9.67897 3.60603 9.67897 3.64744C9.67897 3.64744 9.76178 3.44039 9.72037 3.60603C9.67896 3.81309 9.67896 3.73027 9.72037 3.73027C9.76178 3.73027 9.67897 3.97874 9.67897 3.97874C9.67897 3.97874 9.76179 3.89592 9.8032 3.77168C9.88602 3.64745 9.92745 3.52321 9.96886 3.44039C9.96886 3.52321 9.88603 3.68886 9.88603 3.77168C9.84462 3.89592 9.88602 3.8545 9.92743 3.81309C9.96884 3.81309 9.92745 4.02015 9.96886 3.93733C10.0103 3.89592 10.1759 3.31615 10.1345 3.52321C10.0931 3.64745 10.0103 4.02015 10.1345 3.68886C10.0103 4.02015 10.1759 3.77168 10.1759 3.93733C10.1345 4.1858 10.4658 3.27474 10.5486 3.02627C10.3415 3.39897 10.1759 3.64744 10.1759 3.64744Z" fill="#F5BC41"/>
<path d="M8.9751 4.14416C8.9751 4.10275 8.97509 4.01993 9.0165 3.97852C9.0165 4.01993 9.01651 4.06134 8.9751 4.14416Z" fill="#F5BC41"/>
<path d="M8.60229 3.39884C8.56087 4.26849 8.6437 3.35743 8.60229 3.39884V3.39884Z" fill="#F5BC41"/>
<path d="M9.34769 0.914657C9.30628 0.873245 9.26484 0.831833 9.22343 0.914657C9.22343 0.956068 9.09922 1.28736 9.14063 0.956068C9.09922 1.12171 9.01639 1.24595 9.0578 1.12171C9.0578 1.03889 9.0992 0.914656 9.0992 0.956068C9.05779 0.790421 8.97498 0.873246 8.93357 0.873246C8.89216 0.873246 8.76792 0.749011 8.72651 1.28736C8.72651 1.37019 8.6851 1.0803 8.72651 0.956068C8.64369 1.45301 8.60228 0.790422 8.51945 0.873246C8.47804 0.914657 8.47803 2.07418 8.47803 2.52971C8.47803 2.52971 8.47803 2.57112 8.47803 2.65395C8.47803 2.861 8.47803 3.1923 8.47803 3.44077C8.47803 3.44077 8.47804 3.06806 8.51945 2.94383C8.56087 2.73677 8.56086 3.23371 8.56086 3.35795C8.56086 3.48218 8.60227 2.90242 8.64368 2.861C8.6851 2.69536 8.68509 2.86101 8.68509 2.77818C8.68509 2.77818 8.6851 2.52971 8.72651 2.32265C8.72651 2.1156 8.76791 1.94995 8.76791 2.1156C8.76791 2.23983 8.72651 3.02665 8.72651 3.06806C8.6851 3.77206 8.6851 4.06194 8.72651 3.85488C8.72651 3.81347 8.85074 3.68924 8.85074 3.52359C8.89215 3.1923 8.80932 3.35795 8.80932 3.31653C8.7679 3.23371 8.7679 3.02665 8.80932 2.73677C8.85073 2.57112 8.7679 2.28124 8.80932 2.07418C8.80932 1.99136 8.85074 2.28124 8.85074 2.32265C8.85074 2.40548 8.89214 2.23983 8.89214 2.28124C8.89214 2.32265 8.85073 2.69536 8.89214 2.73677C8.89214 2.73677 8.93357 2.61254 8.93357 2.69536C8.93357 2.77818 8.93357 3.565 8.93357 3.52359C8.93357 3.52359 8.97497 3.10947 8.97497 3.06806C9.01638 2.861 9.01639 2.861 9.0578 2.61253C9.09921 2.44689 9.14062 1.90854 9.18203 1.82571C9.22344 1.70148 9.18203 2.15701 9.18203 2.1156C9.18203 2.07418 9.22345 1.53583 9.26486 1.4116C9.30627 1.24595 9.30628 1.0803 9.34769 0.914657C9.30628 1.24595 9.26486 1.66007 9.26486 1.90854C9.26486 1.90854 9.26486 1.99136 9.26486 2.1156C9.26486 2.23983 9.26484 2.36406 9.22343 2.40548C9.18202 2.44689 9.22344 2.23983 9.18203 2.40548C9.14062 2.52971 9.0992 2.69536 9.0992 2.90242C9.0992 2.98524 8.97496 3.8963 9.01637 3.85488C9.01637 3.85488 9.01637 3.81347 9.01637 3.73065C9.01637 3.64783 9.0578 3.565 9.0578 3.44077C9.09921 3.23371 9.0992 3.02665 9.0992 2.94383C9.0992 3.10948 9.0578 3.81347 9.0578 3.77206C9.0578 3.77206 9.14062 2.98524 9.18203 2.90242C9.18203 2.90242 9.26486 2.40548 9.26486 2.32265C9.22345 2.19842 9.43051 0.99748 9.34769 0.914657Z" fill="#F5BC41"/>
<path d="M8.47833 1.9079C8.43691 1.78366 8.43692 1.70084 8.43692 1.16248C8.43692 0.831192 8.39551 0.955426 8.3541 0.996838C8.27127 1.07966 8.14703 1.07966 8.18844 1.9079C8.14703 1.94931 8.14704 1.49378 8.14704 1.32813C8.10563 1.36954 8.14703 2.11495 8.18844 2.36342C8.22985 2.73613 8.27128 2.9846 8.22987 2.40483C8.22987 2.61189 8.3541 4.0613 8.3541 3.81283C8.31268 3.23307 8.27127 2.03213 8.3541 1.99072C8.3541 2.15636 8.3541 2.32201 8.3541 2.48766C8.3541 2.81895 8.3541 3.19166 8.3541 3.56436C8.3541 4.14413 8.3541 2.86036 8.3541 2.52907C8.39551 2.73613 8.43692 3.19166 8.43692 2.86036C8.43692 2.61189 8.43692 2.36342 8.43692 2.15637C8.47834 2.19778 8.51974 1.94931 8.47833 1.9079Z" fill="#F5BC41"/>
<path d="M8.18848 3.77151C8.22989 4.1028 8.22989 3.85433 8.18848 3.56445C8.18848 3.60586 8.18848 3.68869 8.18848 3.77151Z" fill="#F5BC41"/>
</svg>
