<svg width="24" height="24" viewBox="0 0 24 24" fill="none" xmlns="http://www.w3.org/2000/svg">
<path d="M12.3383 1.89274C11.551 1.89639 10.7992 1.96353 10.1376 2.08058C8.18874 2.42485 7.8349 3.14544 7.8349 4.47431V6.22936H12.4403V6.81437H7.8349H6.10653C4.76807 6.81437 3.59607 7.61879 3.22948 9.14906C2.80663 10.9031 2.78788 11.9977 3.22948 13.8292C3.55685 15.1925 4.33866 16.1639 5.67712 16.1639H7.26057V14.06C7.26057 12.54 8.57578 11.1993 10.1376 11.1993H14.7377C16.0181 11.1993 17.0404 10.1451 17.0404 8.85924V4.47431C17.0404 3.22634 15.9875 2.28887 14.7377 2.08058C13.9465 1.9489 13.1256 1.88908 12.3383 1.89274ZM9.84776 3.30428C10.3235 3.30428 10.7119 3.69907 10.7119 4.18449C10.7119 4.66819 10.3235 5.05933 9.84776 5.05933C9.37034 5.05933 8.98357 4.66819 8.98357 4.18449C8.98357 3.69907 9.37034 3.30428 9.84776 3.30428Z" fill="white"/>
<path d="M17.6167 6.8125V8.85737C17.6167 10.4427 16.2725 11.7771 14.7397 11.7771H10.1396C8.87959 11.7771 7.83691 12.8554 7.83691 14.1171V18.5021C7.83691 19.75 8.92222 20.4841 10.1396 20.8421C11.5974 21.2707 12.9954 21.3482 14.7397 20.8421C15.8991 20.5064 17.0424 19.8309 17.0424 18.5021V16.747H12.4423V16.162H17.0424H19.3451C20.6836 16.162 21.1823 15.2285 21.6478 13.8273C22.1286 12.3848 22.1082 10.9976 21.6478 9.14719C21.317 7.81487 20.6853 6.8125 19.3451 6.8125H17.6167ZM15.0295 17.917C15.5069 17.917 15.8937 18.3082 15.8937 18.7919C15.8937 19.2773 15.5069 19.6721 15.0295 19.6721C14.5538 19.6721 14.1653 19.2773 14.1653 18.7919C14.1653 18.3082 14.5538 17.917 15.0295 17.917Z" fill="white"/>
</svg>
