<?xml version="1.0" encoding="utf-8"?>
<!-- Generator: Adobe Illustrator 27.6.1, SVG Export Plug-In . SVG Version: 6.00 Build 0)  -->
<svg version="1.1" id="Layer_1" xmlns="http://www.w3.org/2000/svg" xmlns:xlink="http://www.w3.org/1999/xlink" x="0px" y="0px"
	 viewBox="0 0 1458 533.3" style="enable-background:new 0 0 1458 533.3;" xml:space="preserve">
<style type="text/css">
	.st0{fill:#0077FF;}
	.st1{fill-rule:evenodd;clip-rule:evenodd;fill:#FFFFFF;}
</style>
<path class="st0" d="M52.7,422.1c25.1,25.2,65.4,25.2,146.1,25.2h14.3c80.7,0,121.1,0,146.1-25.2c25.1-25.2,25.1-65.7,25.1-146.7
	v-14.3c0-81,0-121.5-25.1-146.7c-25.1-25.2-65.4-25.2-146.1-25.2h-14.3c-80.7,0-121.1,0-146.1,25.2c-25.1,25.2-25.1,65.7-25.1,146.7
	v14.3C27.7,356.4,27.7,396.9,52.7,422.1z"/>
<path class="st1" d="M303,327.2l-24.1-6c-2.9-0.8-5-3.5-5.1-6.5l-3-89c-0.9-11.8-9.6-21.2-18.7-23.9c-0.5-0.2-1.1,0.1-1.4,0.5
	c-0.3,0.4-0.2,1.1,0.2,1.4c2.2,1.7,8.4,7.4,8.4,17.3l0,116.4c0,11.2-10.6,19.5-21.5,16.7l-24.5-6.1c-2.7-1-4.6-3.5-4.7-6.4l-3-89
	c-0.9-11.8-9.6-21.2-18.7-23.9c-0.5-0.2-1.1,0.1-1.4,0.5c-0.3,0.4-0.2,1.1,0.2,1.4c2.2,1.7,8.4,7.5,8.4,17.3l0,97l0,0v19.4
	c0,11.2-10.6,19.5-21.5,16.7l-69.1-17.3c-9.6-2.4-16.3-11-16.3-20.9V226c0-11.2,10.6-19.5,21.5-16.7l43.6,10.9v-21
	c0-11.2,10.6-19.5,21.5-16.7l43.6,10.9v-21c0-11.2,10.6-19.5,21.5-16.7l69.1,17.3c9.6,2.4,16.3,11,16.3,20.9v116.6
	C324.5,321.7,313.9,329.9,303,327.2z"/>
<path d="M585.1,294.9c26.8-6.9,44.4-27.6,44.4-54.8c0-33.5-26.5-57.1-63.8-57.1h-66.3v180.5H530v-66.3h21.7l47.4,66.3h36
	L585.1,294.9z M565.7,211.2c19.1,0,32.4,11.8,32.4,28.9S584.8,269,565.7,269H530v-57.9H565.7z"/>
<path d="M703.9,366.1c16.1,0,30.9-8.4,39.3-22.5l5.9,20H771V230.4h-29.3v77.1c0,18.9-12.5,32.3-29.6,32.3
	c-16.8,0-28.6-13.3-28.6-32.3v-77.1h-29.3v80.4C654.2,342.8,675.6,366.1,703.9,366.1z"/>
<path d="M864.6,366.1c33.9,0,62-19.5,62-51.7c0-36.1-29.3-46.6-54.6-55.3c-19.6-6.7-36.7-12.8-36.7-28.9c0-14.1,13-21.5,28.3-21.5
	c16.1,0,27.5,8.4,33.9,22.8l29.1-4.9c-9.2-28.2-32.4-46.1-64-46.1c-32.6,0-58.7,18.9-58.7,51.2c0,36.4,29.3,46.3,54.6,54.8
	c19.4,6.4,36.7,12.5,36.7,28.9c0,14.3-13,22.5-30.4,22.5c-19.9,0-30.6-9.5-40-26.6l-29.6,5.1C803.9,346.9,831.5,366.1,864.6,366.1z"
	/>
<path d="M1006.4,337.9c-9.9,0-14.8-4.9-14.8-14.8V256h39.5v-25.6h-39.5V192h-21.9l-7.4,38.4h-21.7V256h21.7V323
	c0,26.1,15.1,40.4,44.1,40.4h24.7l2.6-25.6H1006.4z"/>
<path d="M1117.5,366.1c41.6,0,70.9-28.7,70.9-69.1c0-40.4-29.3-69.1-70.9-69.1c-41.6,0-70.9,28.7-70.9,69.1
	C1046.6,337.4,1075.9,366.1,1117.5,366.1z M1117.5,339.2c-24,0-40.3-17.2-40.3-42.2c0-25.1,16.3-42.2,40.3-42.2
	c24,0,40.3,17.2,40.3,42.2C1157.8,322,1141.4,339.2,1117.5,339.2z"/>
<path d="M1243.2,363.5v-78.6c0-16.9,8.2-26.4,26-26.4h16.8l-2.6-28.2h-5.6c-15.6,0-27.5,4.4-36.5,19.2l-5.6-19.2h-21.9v133.1H1243.2
	z"/>
<path d="M1430.4,295.4c0-38.4-28.6-67.6-68.9-67.6c-40.3,0-68.9,28.9-68.9,69.1c0,40.2,28.6,69.1,68.9,69.1
	c27.6,0,53.6-13.1,63.5-38.4l-27.5-4.6c-6.4,9.5-18.6,16.1-34.2,16.1c-22.4,0-37.2-13.8-40-34.3h106.6
	C1430.1,302.1,1430.4,299,1430.4,295.4z M1361.5,253.4c18.4,0,32.1,11.8,37,28.4H1325C1329.9,264.7,1343.6,253.4,1361.5,253.4z"/>
</svg>
