<svg width="76" height="76" viewBox="0 0 76 76" fill="none" xmlns="http://www.w3.org/2000/svg">
<path d="M75.5884 28.9061C75.0978 27.3222 73.7517 26.1975 72.159 26.0475L50.5248 23.9979L41.9698 3.10364C41.3391 1.57238 39.9025 0.581177 38.3065 0.581177C36.7102 0.581177 35.2736 1.57238 34.6429 3.10723L26.0882 23.9979L4.45042 26.0475C2.86059 26.201 1.51779 27.3222 1.02428 28.9061C0.530736 30.49 0.986511 32.2271 2.1892 33.322L18.5421 48.2874L13.72 70.4526C13.3672 72.0824 13.9734 73.7671 15.2693 74.7446C15.9658 75.2697 16.7808 75.537 17.6024 75.537C18.3111 75.537 19.0139 75.3376 19.6448 74.9437L38.3065 63.3054L56.9611 74.9437C58.3263 75.8008 60.047 75.7226 61.3401 74.7446C62.6366 73.764 63.2421 72.0789 62.8894 70.4526L58.0672 48.2874L74.4201 33.325C75.6228 32.2271 76.082 30.4927 75.5884 28.9061Z" fill="#EE6030"/>
</svg>
