<svg width="76" height="76" viewBox="0 0 76 76" fill="none" xmlns="http://www.w3.org/2000/svg">
<path d="M31.1202 23.4572C14.1682 23.4572 0.230594 35.1147 0.230594 49.4444C0.230594 55.1724 2.45243 60.9937 6.52683 65.5056L0.773155 72.0806C0.207057 72.7283 0.0697244 73.6483 0.42798 74.4332C0.784024 75.218 1.56457 75.7221 2.42657 75.7221H33.3162C45.8327 75.7221 62.0099 64.9441 62.0099 49.4444C62.0099 35.1147 48.0723 23.4572 31.1202 23.4572ZM17.7982 53.4696C15.377 53.4696 13.4064 51.4987 13.4064 49.0776C13.4064 46.6564 15.3771 44.6857 17.7982 44.6857C20.2192 44.6857 22.19 46.6566 22.19 49.0776C22.1902 51.4987 20.2193 53.4696 17.7982 53.4696ZM31.1202 53.4696C28.6991 53.4696 26.7284 51.4987 26.7284 49.0776C26.7284 46.6564 28.6993 44.6857 31.1202 44.6857C33.5412 44.6857 35.5121 46.6566 35.5121 49.0776C35.5121 51.4987 33.5413 53.4696 31.1202 53.4696ZM44.4423 53.4696C42.0212 53.4696 40.0505 51.4987 40.0505 49.0776C40.0505 46.6564 42.0213 44.6857 44.4423 44.6857C46.8634 44.6857 48.8341 46.6566 48.8341 49.0776C48.8341 51.4987 46.8635 53.4696 44.4423 53.4696Z" fill="#EE6030"/>
<path d="M74.6551 45.4511L69.4849 39.4187C73.1755 35.2542 75.185 30.1758 75.185 24.9219C75.1848 11.6025 62.378 0.766235 46.6376 0.766235C32.4038 0.766235 20.311 9.63658 18.1758 21.1819C22.1474 19.8324 26.6013 19.0652 31.1195 19.0652C50.3497 19.0652 66.1488 32.4969 66.3797 49.0776H72.989C74.8648 49.0777 75.8721 46.8688 74.6551 45.4511Z" fill="#EE6030"/>
</svg>
