<svg width="72" height="72" viewBox="0 0 72 72" fill="none" xmlns="http://www.w3.org/2000/svg">
<g clip-path="url(#clip0_331_1842)">
<rect x="0.439453" y="0.477539" width="71.1409" height="71.1409" rx="10.6711" fill="white"/>
<path fill-rule="evenodd" clip-rule="evenodd" d="M51.7285 18.7101C52.2188 18.5037 52.7553 18.4326 53.2824 18.504C53.8094 18.5754 54.3077 18.7868 54.7253 19.1161C55.1429 19.4454 55.4647 19.8807 55.657 20.3765C55.8494 20.8724 55.9053 21.4108 55.819 21.9356L51.3199 49.2255C50.8835 51.8578 47.9952 53.3674 45.581 52.0562C43.5616 50.9592 40.5622 49.2691 37.8644 47.5056C36.5155 46.6228 32.3834 43.7961 32.8912 41.7846C33.3277 40.0647 40.2706 33.6018 44.2381 29.7593C45.7953 28.2497 45.0851 27.3789 43.2462 28.7675C38.6797 32.2152 31.3479 37.4581 28.9238 38.934C26.7854 40.2353 25.6705 40.4575 24.3375 40.2353C21.9055 39.8306 19.65 39.2038 17.8091 38.44C15.3215 37.4085 15.4425 33.9886 17.8071 32.9928L51.7285 18.7101Z" fill="#EE6030"/>
</g>
<defs>
<clipPath id="clip0_331_1842">
<rect width="71.1409" height="71.1409" fill="white" transform="translate(0.439453 0.477539)"/>
</clipPath>
</defs>
</svg>
