<svg width="216" height="63" viewBox="0 0 216 63" fill="none" xmlns="http://www.w3.org/2000/svg">
<g clip-path="url(#clip0_603_69464)">
<path d="M30.6041 21.5146C27.8942 21.5146 24.9025 22.2708 22.3707 23.9473L24.4872 27.2903C26.1388 26.2357 28.2799 25.7083 30.1244 25.7083C32.3546 25.7083 33.8875 27.1062 33.8875 28.8822V29.5687C31.6722 28.9867 30.1194 28.7628 28.1316 28.9121C24.1558 29.2155 21.001 31.5188 21.001 35.7225C21.001 39.2147 24.0421 42.1797 27.8398 42.1797C30.1343 42.1797 32.5474 41.1001 33.8875 39.3092V41.727H38.8077V29.4294C38.8077 24.4746 35.7418 21.5146 30.5991 21.5146H30.6041ZM33.8875 35.2449C33.8875 35.2449 32.132 37.8715 28.631 37.8715C26.653 37.8715 25.4069 36.7224 25.4069 35.2698C25.4069 32.9316 28.7101 31.6034 33.8875 33.0809V35.2449Z" fill="#1D1D1B"/>
<path d="M87.0801 26.3703V22.0224H80.7308V16.5801H75.3803V22.0224H71.1475V26.3703H75.3803V34.8522C75.3803 39.23 77.5611 42.1502 83.1093 42.1502C85.918 42.1502 88.0147 40.8368 88.0147 40.8368L85.4482 36.8421C84.1625 37.3496 83.0203 37.3894 82.6247 37.3197C81.5417 37.1356 80.7308 36.4143 80.7308 34.514V26.3604H87.0801V26.3703Z" fill="#1D1D1B"/>
<path d="M134.527 26.3703V22.0224H128.178V16.5801H122.828V22.0224H118.595V26.3703H122.828V34.8522C122.828 39.23 125.008 42.1502 130.557 42.1502C133.365 42.1502 135.462 40.8368 135.462 40.8368L132.895 36.8421C131.61 37.3496 130.468 37.3894 130.072 37.3197C128.989 37.1356 128.178 36.4143 128.178 34.514V26.3604H134.527V26.3703Z" fill="#1D1D1B"/>
<path d="M69.0164 16.2467C69.0164 18.162 67.4686 19.7141 65.5697 19.7141C63.6709 19.7141 62.1182 18.162 62.1182 16.2467C62.1182 14.3314 63.661 12.7793 65.5697 12.7793C67.4785 12.7793 69.0164 14.3364 69.0164 16.2467Z" fill="#1D1D1B"/>
<path d="M68.245 22.0225H62.8896V41.7472H68.245V22.0225Z" fill="#1D1D1B"/>
<path d="M55.2448 22.0225L50.0031 36.3745L44.7664 22.0225H39.416L46.6208 41.7472H48.0449H51.9613H53.3855L60.5903 22.0225H55.2448Z" fill="#1D1D1B"/>
<path d="M98.419 21.5146C92.6235 21.5146 87.9209 26.1461 87.9209 31.8472C87.9209 37.5482 92.6235 42.1797 98.419 42.1797C104.214 42.1797 108.922 37.5532 108.922 31.8472C108.922 26.1411 104.214 21.5146 98.419 21.5146ZM98.419 37.2348C95.4372 37.2348 93.0191 34.8569 93.0191 31.9218C93.0191 28.9867 95.4372 26.6088 98.419 26.6088C101.401 26.6088 103.819 28.9867 103.819 31.9218C103.819 34.8569 101.406 37.2348 98.419 37.2348Z" fill="#1D1D1B"/>
<path d="M118.372 38.7174C118.372 40.6327 116.824 42.1848 114.925 42.1848C113.026 42.1848 111.474 40.6327 111.474 38.7174C111.474 36.8021 113.016 35.25 114.925 35.25C116.834 35.25 118.372 36.8071 118.372 38.7174Z" fill="#1D1D1B"/>
<path d="M154 32.7873C154.079 32.1406 154.153 31.5088 154.153 30.9019C154.153 25.2904 150.647 21.5195 145.43 21.5195C139.536 21.5195 135.422 25.7679 135.422 31.852C135.422 37.9361 139.867 42.1845 145.994 42.1845C148.892 42.1845 151.903 41.105 153.857 39.3639L153.975 39.2594L151.567 35.4637C149.935 36.787 148.116 37.5431 146.33 37.5431C143.289 37.5431 141.138 35.8418 140.782 32.9664H153.975L153.995 32.7873H154ZM140.921 29.2602C141.43 26.9768 143.096 25.7083 145.312 25.7083C147.394 25.7083 148.838 27.0415 148.951 29.2602H140.916H140.921Z" fill="#1D1D1B"/>
<path d="M172.648 35.1304C171.154 36.593 169.132 37.5381 167.273 37.5381C163.47 37.5381 161.477 34.7274 161.477 31.8122C161.477 28.4543 163.851 26.161 167.124 26.161C168.865 26.161 170.576 26.937 171.817 28.1906L174.507 24.584L174.403 24.4695C172.707 22.6239 169.889 21.5195 166.862 21.5195C160.691 21.5195 156.216 25.8674 156.216 31.852C156.216 37.8366 160.696 42.1845 166.862 42.1845C169.983 42.1845 173.073 40.9508 174.927 38.9709L175.026 38.8664L172.648 35.1304Z" fill="#1D1D1B"/>
<path d="M177.049 12.7744H182.34V23.291C183.537 22.4105 185.178 21.515 187.418 21.515C192.531 21.515 194.999 24.2561 194.999 30.3999V41.7422H189.708V30.6585C189.663 27.5891 188.561 26.5494 186.019 26.5494C184.659 26.5494 183.26 27.2907 182.34 28.8428V41.7373H177.049V12.7744Z" fill="#1D1D1B"/>
</g>
<defs>
<clipPath id="clip0_603_69464">
<rect width="216" height="62" fill="white" transform="translate(0 0.849609)"/>
</clipPath>
</defs>
</svg>
