<svg width="73" height="72" viewBox="0 0 73 72" fill="none" xmlns="http://www.w3.org/2000/svg">
<g clip-path="url(#clip0_331_1840)">
<rect x="0.873047" y="0.477539" width="71.1409" height="71.1409" rx="10.6711" fill="white"/>
<path d="M60.1715 24.8073C60.5534 25.8586 59.3079 28.2734 56.435 32.0516C56.0364 32.5772 55.4967 33.2754 54.8159 34.146C54.1516 34.9838 53.6949 35.5751 53.4458 35.9201C53.1967 36.2651 52.9435 36.6716 52.6861 37.1398C52.4287 37.608 52.329 37.9529 52.3872 38.1747C52.4453 38.3965 52.5532 38.6798 52.711 39.0248C52.8687 39.3698 53.1386 39.7229 53.5205 40.0843C53.9025 40.4457 54.3758 40.881 54.9404 41.3903C55.0068 41.4231 55.0483 41.456 55.065 41.4888C57.4065 43.6407 58.9924 45.4559 59.8227 46.9343C59.8725 47.0165 59.9265 47.1191 59.9846 47.2424C60.0428 47.3656 60.1009 47.5832 60.159 47.8953C60.2171 48.2074 60.213 48.4867 60.1465 48.7331C60.0801 48.9795 59.8725 49.2054 59.5238 49.4107C59.1751 49.616 58.6852 49.7187 58.0541 49.7187L51.6772 49.8173C51.2787 49.8994 50.8137 49.8583 50.2823 49.6941C49.7509 49.5298 49.3191 49.3491 48.987 49.152L48.4888 48.8563C47.9906 48.5113 47.4094 47.9857 46.7451 47.2793C46.0808 46.573 45.5121 45.9364 45.0388 45.3697C44.5655 44.803 44.059 44.3266 43.5193 43.9405C42.9796 43.5545 42.5104 43.4272 42.1119 43.5586C42.0621 43.575 41.9956 43.6038 41.9126 43.6449C41.8296 43.6859 41.6884 43.805 41.4891 44.0021C41.2899 44.1993 41.1113 44.4416 40.9536 44.729C40.7958 45.0165 40.6547 45.4436 40.5301 46.0103C40.4056 46.5771 40.3516 47.2136 40.3682 47.92C40.3682 48.1664 40.3391 48.3922 40.281 48.5976C40.2229 48.8029 40.1606 48.9549 40.0942 49.0534L39.9945 49.1766C39.6956 49.4887 39.2556 49.6694 38.6743 49.7187H35.8097C34.6306 49.7844 33.4184 49.6489 32.1729 49.3121C30.9274 48.9754 29.8355 48.5401 28.8972 48.0062C27.959 47.4723 27.1037 46.9302 26.3315 46.3799C25.5593 45.8296 24.974 45.3574 24.5754 44.9631L23.9527 44.3717C23.7866 44.2075 23.5583 43.9611 23.2676 43.6325C22.977 43.304 22.3833 42.5566 21.4866 41.3903C20.5898 40.2239 19.7097 38.9837 18.8462 37.6696C17.9826 36.3554 16.9655 34.6224 15.7947 32.4704C14.624 30.3185 13.5404 28.0845 12.544 25.7683C12.4444 25.5054 12.3945 25.2837 12.3945 25.103C12.3945 24.9223 12.4194 24.7909 12.4693 24.7087L12.5689 24.5609C12.818 24.2488 13.2913 24.0927 13.9888 24.0927L20.814 24.0434C21.0133 24.0763 21.2043 24.1297 21.387 24.2036C21.5696 24.2775 21.7025 24.3473 21.7855 24.413L21.9101 24.487C22.1758 24.6677 22.375 24.9305 22.5079 25.2755C22.84 26.0968 23.222 26.9469 23.6537 27.8257C24.0855 28.7046 24.4259 29.374 24.675 29.8339L25.0736 30.5485C25.5552 31.5341 26.0202 32.3883 26.4685 33.1111C26.9169 33.8339 27.3196 34.3965 27.6767 34.799C28.0337 35.2014 28.3783 35.5176 28.7104 35.7476C29.0426 35.9776 29.3249 36.0926 29.5574 36.0926C29.7898 36.0926 30.014 36.0515 30.2299 35.9694C30.2631 35.953 30.3047 35.9119 30.3545 35.8462C30.4043 35.7805 30.5039 35.5998 30.6534 35.3041C30.8028 35.0084 30.9149 34.6224 30.9897 34.146C31.0644 33.6696 31.1433 33.0043 31.2263 32.1501C31.3093 31.2959 31.3093 30.2692 31.2263 29.0701C31.1931 28.413 31.1184 27.8134 31.0021 27.2713C30.8859 26.7292 30.7696 26.3514 30.6534 26.1379L30.5039 25.8422C30.0888 25.2837 29.383 24.9305 28.3866 24.7826C28.1707 24.7498 28.2122 24.5527 28.5111 24.1913C28.7769 23.8792 29.0924 23.6328 29.4577 23.4521C30.3379 23.025 32.3223 22.8278 35.4112 22.8607C36.7729 22.8771 37.8938 22.9839 38.774 23.181C39.1061 23.2632 39.3843 23.374 39.6084 23.5137C39.8326 23.6533 40.0028 23.8504 40.1191 24.105C40.2353 24.3597 40.3225 24.6225 40.3806 24.8935C40.4388 25.1646 40.4678 25.5383 40.4678 26.0147C40.4678 26.491 40.4595 26.9428 40.4429 27.3699C40.4263 27.797 40.4056 28.376 40.3806 29.107C40.3557 29.838 40.3433 30.5156 40.3433 31.1399C40.3433 31.3206 40.335 31.6655 40.3184 32.1748C40.3018 32.684 40.2976 33.0782 40.3059 33.3575C40.3142 33.6368 40.3433 33.9694 40.3931 34.3554C40.4429 34.7415 40.5384 35.0618 40.6796 35.3164C40.8207 35.571 41.0075 35.7723 41.24 35.9201C41.3729 35.953 41.514 35.9858 41.6635 36.0187C41.813 36.0515 42.0288 35.9612 42.3112 35.7476C42.5935 35.5341 42.909 35.2507 43.2577 34.8975C43.6065 34.5443 44.0382 33.994 44.553 33.2466C45.0678 32.4992 45.6325 31.6162 46.2469 30.5978C47.2433 28.8894 48.1317 27.0413 48.9122 25.0537C48.9787 24.8894 49.0617 24.7457 49.1613 24.6225C49.261 24.4993 49.3523 24.413 49.4353 24.3638L49.535 24.2898L49.6595 24.2282L49.9834 24.1543L50.4816 24.142L57.6556 24.0927C58.3032 24.0106 58.8346 24.0311 59.2498 24.1543C59.665 24.2775 59.9224 24.413 60.022 24.5609L60.1715 24.8073Z" fill="#EE6030"/>
</g>
<defs>
<clipPath id="clip0_331_1840">
<rect width="71.1409" height="71.1409" fill="white" transform="translate(0.873047 0.477539)"/>
</clipPath>
</defs>
</svg>
