<svg width="13" height="13" viewBox="0 0 13 13" fill="none" xmlns="http://www.w3.org/2000/svg">
<path d="M12.9093 4.61568C12.8276 4.36278 12.6033 4.1832 12.3379 4.15926L8.73334 3.83198L7.30796 0.495782C7.20287 0.251285 6.96351 0.0930176 6.69759 0.0930176C6.43163 0.0930176 6.19227 0.251285 6.08718 0.496355L4.66184 3.83198L1.05665 4.15926C0.791764 4.18376 0.568034 4.36278 0.485807 4.61568C0.403576 4.86858 0.479515 5.14595 0.679901 5.32078L3.40454 7.71032L2.60111 11.2495C2.54233 11.5097 2.64333 11.7787 2.85924 11.9348C2.97529 12.0186 3.11109 12.0613 3.24798 12.0613C3.36605 12.0613 3.48315 12.0294 3.58827 11.9666L6.69759 10.1083L9.80573 11.9666C10.0332 12.1034 10.3199 12.0909 10.5353 11.9348C10.7514 11.7782 10.8523 11.5091 10.7935 11.2495L9.99003 7.71032L12.7147 5.32126C12.915 5.14595 12.9916 4.86903 12.9093 4.61568Z" fill="white"/>
</svg>
