<svg width="24" height="24" viewBox="0 0 24 24" fill="none" xmlns="http://www.w3.org/2000/svg">
<g clip-path="url(#clip0_906_3828)">
<path fill-rule="evenodd" clip-rule="evenodd" d="M9.4917 3.3557C7.75215 3.86243 6.2057 4.8817 5.05412 6.28052C3.90254 7.67934 3.19929 9.39277 3.03613 11.1973H7.15042C7.39025 8.4513 8.1864 5.78287 9.49042 3.35441L9.4917 3.3557ZM7.15042 12.8044H3.03613C3.19896 14.609 3.9019 16.3226 5.05325 17.7216C6.20461 19.1207 7.75091 20.1402 9.49042 20.6473C8.1864 18.2188 7.39025 15.5504 7.15042 12.8044ZM11.5527 20.9906C9.99388 18.5183 9.03816 15.7141 8.7627 12.8044H15.2363C14.9608 15.7141 14.0051 18.5183 12.4463 20.9906C12.1486 21.0054 11.8504 21.0054 11.5527 20.9906ZM14.5098 20.646C16.2492 20.139 17.7953 19.1197 18.9467 17.7209C20.098 16.3221 20.8011 14.6088 20.9641 12.8044H16.8498C16.61 15.5504 15.8139 18.2188 14.5098 20.6473V20.646ZM16.8498 11.1973H20.9641C20.8013 9.3927 20.0984 7.67911 18.947 6.28005C17.7957 4.881 16.2494 3.86145 14.5098 3.35441C15.8139 5.78287 16.61 8.4513 16.8498 11.1973ZM11.5527 3.01113C11.8508 2.99629 12.1495 2.99629 12.4476 3.01113C14.0059 5.48354 14.9612 8.28769 15.2363 11.1973H8.76399C9.04299 8.2697 10.0008 5.46299 11.5527 3.01113Z" fill="white"/>
</g>
<defs>
<clipPath id="clip0_906_3828">
<rect width="18" height="18" fill="white" transform="translate(3 3)"/>
</clipPath>
</defs>
</svg>
