<svg width="24" height="24" viewBox="0 0 24 24" fill="none" xmlns="http://www.w3.org/2000/svg">
<path d="M19.9598 15.4694H19.3309C19.3133 15.4694 19.2961 15.4648 19.2808 15.456C19.2656 15.4472 19.2529 15.4346 19.2441 15.4193C19.2354 15.404 19.2308 15.3867 19.2308 15.3692C19.2308 15.3516 19.2355 15.3343 19.2444 15.3191L19.4626 14.9411C19.4919 14.8905 19.5073 14.833 19.5073 14.7744C19.5073 14.7159 19.4919 14.6583 19.4626 14.6077L18.5178 12.9696L17.0728 15.4688H16.5936C16.576 15.4689 16.5587 15.4642 16.5435 15.4554C16.5282 15.4466 16.5156 15.434 16.5068 15.4187C16.498 15.4035 16.4934 15.3862 16.4935 15.3686C16.4935 15.351 16.4982 15.3337 16.507 15.3185L18.0954 12.5689C18.1247 12.5182 18.1401 12.4607 18.1401 12.4021C18.1401 12.3436 18.1247 12.2861 18.0954 12.2354L17.1506 10.5973L11.6648 20.0894L11.4156 19.6582C11.392 19.6177 11.3795 19.5717 11.3795 19.5248C11.3795 19.4779 11.392 19.4319 11.4156 19.3914L16.7282 10.2024C16.7575 10.1518 16.7729 10.0943 16.7729 10.0357C16.7729 9.97716 16.7575 9.91964 16.7282 9.86897L15.7834 8.2309L10.2958 17.7218L10.0472 17.2906C10.0236 17.2501 10.0112 17.2041 10.0112 17.1572C10.0112 17.1103 10.0236 17.0643 10.0472 17.0238L15.361 7.8325C15.3903 7.78183 15.4057 7.72431 15.4057 7.66577C15.4057 7.60722 15.3903 7.54971 15.361 7.49904L14.4156 5.8598L8.86134 15.4694H8.38513C8.36753 15.4694 8.35024 15.4648 8.335 15.456C8.31976 15.4472 8.30711 15.4346 8.29832 15.4193C8.28954 15.404 8.28494 15.3867 8.28498 15.3692C8.28502 15.3516 8.2897 15.3343 8.29855 15.3191L13.9932 5.46373C14.0223 5.413 14.0377 5.35551 14.0377 5.297C14.0377 5.23849 14.0223 5.181 13.9932 5.13027L13.0478 3.4922L6.12401 15.4694H5.64487C5.62728 15.4694 5.60998 15.4648 5.59474 15.456C5.5795 15.4472 5.56685 15.4346 5.55807 15.4193C5.54928 15.404 5.54468 15.3867 5.54472 15.3692C5.54476 15.3516 5.54944 15.3343 5.55829 15.3191L12.626 3.09204C12.6553 3.04137 12.6707 2.98386 12.6707 2.92531C12.6707 2.86676 12.6553 2.80925 12.626 2.75858L11.68 1.12109L2.35938 17.2725H7.9528L11.6654 23.6931L15.3785 17.2725H21.0006L19.9598 15.4694Z" fill="white"/>
</svg>
