<svg width="30" height="24" viewBox="0 0 30 24" fill="none" xmlns="http://www.w3.org/2000/svg">
<path fill-rule="evenodd" clip-rule="evenodd" d="M27.0629 19.0853L27.0563 19.0434C27.0504 19.0062 27.0445 18.9692 27.0383 18.9322C26.9864 18.6166 26.9218 18.3048 26.8467 17.9972C26.7149 17.4598 26.5491 16.9353 26.3512 16.4274C26.184 15.9973 25.9935 15.5788 25.7822 15.1732C25.5104 14.6524 25.2038 14.1525 24.8652 13.677C24.45 13.0943 23.9862 12.5484 23.4799 12.0454C23.2674 11.834 23.0475 11.63 22.8205 11.4345C22.3287 11.0099 21.8034 10.6233 21.25 10.2777C21.2524 10.2737 21.2547 10.2696 21.2569 10.2655C21.2592 10.2613 21.2614 10.2572 21.2638 10.2532C21.3906 10.0342 21.5176 9.81528 21.6445 9.59639C21.7715 9.3775 21.8984 9.15861 22.0252 8.93958L22.769 7.65658C22.9474 7.34962 23.1255 7.04202 23.3029 6.73506C23.3451 6.66214 23.3783 6.58679 23.4034 6.50961C23.4728 6.29454 23.4758 6.06845 23.4202 5.85827C23.406 5.80622 23.3888 5.75536 23.3679 5.70574C23.347 5.65608 23.3227 5.60769 23.2951 5.56113C23.2002 5.40184 23.0647 5.26335 22.8944 5.16224C22.7439 5.07281 22.5756 5.01949 22.403 5.00418C22.3306 4.99806 22.2578 4.99865 22.1854 5.00601C22.1256 5.01213 22.0662 5.02319 22.0072 5.0385C21.7974 5.09424 21.6025 5.20943 21.4509 5.37608C21.3964 5.43612 21.3471 5.50232 21.3049 5.5752C21.1283 5.87954 20.9517 6.1845 20.7755 6.48885L20.7728 6.49354L20.771 6.49673L20.0272 7.77972C19.9004 7.99877 19.7735 8.21766 19.6465 8.43655C19.5196 8.65544 19.3926 8.87433 19.2658 9.09338L19.2392 9.13932C19.2203 9.17183 19.2013 9.20445 19.1826 9.23736L19.1676 9.23138C19.1342 9.21804 19.101 9.20479 19.0676 9.19199C17.6696 8.65894 16.1529 8.36732 14.5675 8.36732C14.5242 8.36732 14.4812 8.36732 14.4376 8.36792C13.028 8.382 11.6737 8.62709 10.4102 9.06702C10.2642 9.11787 10.1197 9.17179 9.97632 9.22817L9.94514 9.17446C9.92951 9.14763 9.91388 9.1208 9.89865 9.09397C9.77189 8.87494 9.64495 8.65606 9.518 8.43719C9.39105 8.21829 9.26409 7.99938 9.13731 7.78032L8.39352 6.49732C8.21504 6.19036 8.03694 5.8828 7.85958 5.57584C7.81701 5.50292 7.7681 5.43675 7.71358 5.37671C7.56199 5.21003 7.36708 5.09484 7.15724 5.03909C7.09824 5.02378 7.03887 5.01277 6.97875 5.00665C6.90669 4.99929 6.83388 4.99865 6.76145 5.00478C6.58894 5.01949 6.42054 5.07281 6.26969 5.16287C6.09943 5.26395 5.96501 5.40244 5.86942 5.56172C5.84179 5.60829 5.81714 5.65671 5.79661 5.70634C5.7757 5.75596 5.75778 5.80682 5.74434 5.8589C5.6887 6.06905 5.69169 6.29513 5.76076 6.5102C5.78615 6.58742 5.81901 6.66277 5.86121 6.73569C6.03969 7.04266 6.21779 7.35022 6.39515 7.65718C6.63117 8.0637 6.86685 8.47022 7.10251 8.8767L7.13931 8.94018C7.26606 9.15918 7.39289 9.37803 7.51972 9.59688C7.64661 9.81581 7.77349 10.0347 7.90028 10.2538C7.90121 10.2557 7.90233 10.2575 7.90345 10.2593C7.90457 10.2612 7.90569 10.263 7.90662 10.2648C7.39508 10.5829 6.90856 10.9352 6.44929 11.3205C6.17411 11.5515 5.909 11.7935 5.6551 12.0466C5.14916 12.5496 4.68578 13.0955 4.26982 13.6782C3.93079 14.1537 3.62386 14.653 3.35278 15.1745C3.14145 15.5801 2.95102 15.9985 2.78374 16.4287C2.58585 16.9366 2.42006 17.461 2.28825 17.9984C2.2132 18.306 2.14935 18.6172 2.09671 18.9334C2.08896 18.9793 2.08182 19.0256 2.07474 19.0716L2.07244 19.0865C2.04406 19.2698 2.02016 19.4542 2 19.6398H27.1331C27.113 19.4542 27.0891 19.2698 27.0611 19.0865L27.0629 19.0853ZM21.1052 16.1617C21.6081 15.8269 21.6813 15.0524 21.2683 14.4318C20.8557 13.8111 20.1134 13.5794 19.6109 13.9142C19.1079 14.249 19.0347 15.0235 19.4477 15.6441C19.8603 16.2648 20.6026 16.4965 21.1052 16.1617ZM9.5471 13.9197C10.0501 14.2545 10.1232 15.029 9.71028 15.6496C9.29768 16.2703 8.55538 16.502 8.05243 16.1672C7.54985 15.8324 7.47667 15.0579 7.88926 14.4372C8.30223 13.8166 9.04415 13.5849 9.5471 13.9197Z" fill="white"/>
</svg>
