<?xml version="1.0" encoding="utf-8"?>
<!-- Generator: Adobe Illustrator 27.6.1, SVG Export Plug-In . SVG Version: 6.00 Build 0)  -->
<svg version="1.1" id="Layer_1" xmlns="http://www.w3.org/2000/svg" xmlns:xlink="http://www.w3.org/1999/xlink" x="0px" y="0px"
	 viewBox="0 0 998.51 301.48" style="enable-background:new 0 0 998.51 301.48;" xml:space="preserve">
<style type="text/css">
	.st0{clip-path:url(#SVGID_00000087387686013320304390000015369050308731302804_);fill:#E20013;}
	
		.st1{clip-path:url(#SVGID_00000087387686013320304390000015369050308731302804_);fill-rule:evenodd;clip-rule:evenodd;fill:#1A1A18;}
	
		.st2{clip-path:url(#SVGID_00000087387686013320304390000015369050308731302804_);fill-rule:evenodd;clip-rule:evenodd;fill:#EC1C24;}
</style>
<g>
	<defs>
		<rect id="SVGID_1_" x="-31.38" y="-192.05" width="1066" height="727"/>
	</defs>
	<clipPath id="SVGID_00000078765642455518447600000014464905578477037750_">
		<use xlink:href="#SVGID_1_"  style="overflow:visible;"/>
	</clipPath>
	<path style="clip-path:url(#SVGID_00000078765642455518447600000014464905578477037750_);fill:#E20013;" d="M936.43,232.2v14.49
		h-2.9c-2.76,0-4.45-1.21-4.45-4.99v-4.65c0-3.37,1.15-4.85,3.78-4.85H936.43z M928.34,272.65c0.4-1.21,0.67-1.96,0.67-5.8v-7.42
		c0-4.38,1.48-6,4.85-6h2.56v19.21h7.42v-47.19h-11.19c-7.68,0-10.99,3.57-10.99,10.85v3.71c0,4.85,1.55,8.02,4.85,9.57
		c-3.71,1.55-4.92,5.12-4.92,10.04v7.28c0,2.29-0.07,3.98-0.81,5.73H928.34z M905.08,251.01l3.03-11.59v33.23h6.67v-47.19h-8.16
		l-6.07,19.48l-2.7,10.38v-29.86h-6.61v47.19h7.62L905.08,251.01z M867.8,252.42h8.43v20.22h7.55v-47.19h-7.55v20.22h-8.43v-20.22
		h-7.42v47.19h7.42V252.42z M840.9,232.2h12.81v-6.74h-20.22v47.19h20.22v-6.74H840.9v-13.82h10.18v-6.74H840.9V232.2z
		 M810.23,232.2h6.27v33.84h-9.71c1.21-1.15,1.89-2.7,2.09-6.27L810.23,232.2z M827.29,278.98v-12.94h-3.24v-40.58h-20.76
		l-1.69,34.45c-0.13,2.76-0.54,4.52-1.82,6.13h-2.9v12.94h7.21v-6.34h15.84v6.34H827.29z M777.06,225.46h-7.35v19.08l-8.76-19.08
		h-7.42l9.17,19.35l-9.17,27.84h7.62l6.74-20.97l1.82,3.64v17.33h7.35v-17.33l1.82-3.57l6.74,20.9h7.62l-9.1-28.04l9.1-19.15h-7.42
		l-8.76,19.08V225.46z M726.3,261.32c0,7.55,3.98,11.86,11.26,11.86s11.26-4.31,11.26-11.86v-24.54c0-7.55-3.98-11.86-11.26-11.86
		s-11.26,4.31-11.26,11.86V261.32z M733.72,236.31c0-3.37,1.48-4.65,3.84-4.65s3.84,1.28,3.84,4.65v25.48
		c0,3.37-1.48,4.65-3.84,4.65s-3.84-1.28-3.84-4.65V236.31z M708.44,232.2c2.63,0,3.78,1.48,3.78,4.85v2.63
		c0,3.78-1.69,4.99-4.45,4.99h-2.9V232.2H708.44z M708.17,251.41c3.37,0,4.79,1.35,4.79,5.73v4.11c0,3.51-1.35,4.65-3.84,4.65h-4.25
		v-14.49H708.17z M708.64,225.46h-11.19v47.19h11.66c7.42,0,11.26-3.91,11.26-11.19v-3.84c0-4.99-1.55-8.56-5.53-10.11
		c3.3-1.55,4.79-4.65,4.79-9.51v-1.69C719.63,229.03,716.33,225.46,708.64,225.46z M657.47,232.2v14.49h-2.9
		c-2.76,0-4.45-1.21-4.45-4.99v-4.65c0-3.37,1.15-4.85,3.78-4.85H657.47z M649.39,272.65c0.4-1.21,0.67-1.96,0.67-5.8v-7.42
		c0-4.38,1.48-6,4.85-6h2.56v19.21h7.42v-47.19H653.7c-7.69,0-10.99,3.57-10.99,10.85v3.71c0,4.85,1.55,8.02,4.85,9.57
		c-3.71,1.55-4.92,5.12-4.92,10.04v7.28c0,2.29-0.07,3.98-0.81,5.73H649.39z M626.13,251.01l3.03-11.59v33.23h6.67v-47.19h-8.16
		l-6.07,19.48l-2.7,10.38v-29.86h-6.61v47.19h7.62L626.13,251.01z M583.99,225.46h-10.31v47.19h6.47v-33.37l5.53,33.37h7.01
		l5.12-33.84v33.84h7.01v-47.19h-10.31l-5.06,33.5L583.99,225.46z M554.27,232.2h12.81v-6.74h-20.22v47.19h20.22v-6.74h-12.81
		v-13.82h10.18v-6.74h-10.18V232.2z M523.59,232.2h6.27v33.84h-9.71c1.21-1.15,1.89-2.7,2.09-6.27L523.59,232.2z M540.65,278.98
		v-12.94h-3.24v-40.58h-20.76l-1.69,34.45c-0.13,2.76-0.54,4.52-1.82,6.13h-2.9v12.94h7.21v-6.34h15.84v6.34H540.65z M492.99,233.82
		l3.57,23.86h-7.15L492.99,233.82z M498.78,225.46h-10.85l-7.55,47.19h6.81l1.28-8.56h9.1l1.28,8.56h7.48L498.78,225.46z
		 M469.26,272.65h7.62l-10.31-26.16l10.31-21.03h-7.42l-9.71,20.56v-20.56h-7.42v47.19h7.42v-14.49l2.29-4.31L469.26,272.65z
		 M433.46,233.82l3.57,23.86h-7.15L433.46,233.82z M439.26,225.46h-10.85l-7.55,47.19h6.81l1.28-8.56h9.1l1.28,8.56h7.48
		L439.26,225.46z M382.83,232.2v14.49h-2.9c-2.76,0-4.45-1.21-4.45-4.99v-4.65c0-3.37,1.15-4.85,3.78-4.85H382.83z M374.75,272.65
		c0.4-1.21,0.67-1.96,0.67-5.8v-7.42c0-4.38,1.48-6,4.85-6h2.56v19.21h7.42v-47.19h-11.19c-7.68,0-10.99,3.57-10.99,10.85v3.71
		c0,4.85,1.55,8.02,4.85,9.57c-3.71,1.55-4.92,5.12-4.92,10.04v7.28c0,2.29-0.07,3.98-0.81,5.73H374.75z M349.67,233.82l3.57,23.86
		h-7.15L349.67,233.82z M355.47,225.46h-10.85l-7.55,47.19h6.81l1.28-8.56h9.1l1.28,8.56h7.48L355.47,225.46z M315.56,252.42h8.43
		v20.22h7.55v-47.19h-7.55v20.22h-8.43v-20.22h-7.42v47.19h7.42V252.42z M287.04,265.91v-15.98h3.51c2.36,0,3.64,1.08,3.64,4.45
		v7.08c0,3.37-1.28,4.45-3.64,4.45H287.04z M290.55,272.65c7.42,0,11.06-4.11,11.06-11.66v-6.13c0-7.55-3.64-11.66-11.06-11.66
		h-3.51v-17.73h-7.42v47.19H290.55z M245.11,272.71h1.15c7.42,0,10.52-3.37,10.79-12l0.81-28.52h6.47v40.45h7.55v-47.19h-20.97
		l-1.21,35.66c-0.14,4.38-1.21,4.85-4.58,4.85V272.71z M228.32,233.82l3.57,23.86h-7.15L228.32,233.82z M234.12,225.46h-10.85
		l-7.55,47.19h6.81l1.28-8.56h9.1l1.28,8.56h7.48L234.12,225.46z M201.09,232.2c2.36,0,3.64,1.08,3.64,4.45v7.08
		c0,3.37-1.28,4.45-3.64,4.45h-3.51V232.2H201.09z M201.09,225.46h-10.92v47.19h7.42v-17.73h3.51c7.42,0,11.06-4.11,11.06-11.66
		v-6.13C212.15,229.57,208.51,225.46,201.09,225.46z M170.69,232.2h12.81v-6.74h-20.22v47.19h20.22v-6.74h-12.81v-13.82h10.18v-6.74
		h-10.18V232.2z M140.01,232.2h6.27v33.84h-9.71c1.21-1.15,1.89-2.7,2.09-6.27L140.01,232.2z M157.07,278.98v-12.94h-3.24v-40.58
		h-20.76l-1.69,34.45c-0.13,2.76-0.54,4.52-1.82,6.13h-2.9v12.94h7.21v-6.34h15.84v6.34H157.07z M108.8,232.2h12.81v-6.74h-20.22
		v47.19h20.22v-6.74H108.8v-13.82h10.18v-6.74H108.8V232.2z M73.21,260.85h-2.76c-2.36,0-3.71-1.35-3.71-4.72v-13.82
		c0-3.37,1.35-4.65,3.71-4.65h2.76V260.85z M83.25,237.66c2.36,0,3.71,1.28,3.71,4.65v13.82c0,3.37-1.35,4.72-3.71,4.72h-2.76
		v-23.19H83.25z M73.21,272.65h7.28v-5.33h2.76c7.42,0,11.06-4.11,11.06-11.66v-12.88c0-7.55-3.64-11.66-11.06-11.66h-2.76v-5.66
		h-7.28v5.66h-2.76c-7.42,0-11.06,4.11-11.06,11.66v12.88c0,7.55,3.64,11.66,11.06,11.66h2.76V272.65z"/>
	
		<polygon style="clip-path:url(#SVGID_00000078765642455518447600000014464905578477037750_);fill-rule:evenodd;clip-rule:evenodd;fill:#1A1A18;" points="
		244.67,197.19 354.26,197.19 354.26,172.38 276.83,172.38 276.83,158.33 350.8,158.33 350.8,133.66 276.83,133.66 276.83,119.46 
		354.26,119.46 354.26,94.65 244.67,94.65 	"/>
	
		<polygon style="clip-path:url(#SVGID_00000078765642455518447600000014464905578477037750_);fill-rule:evenodd;clip-rule:evenodd;fill:#1A1A18;" points="
		529.58,121.18 573.35,121.18 573.35,197.19 605.61,197.19 605.61,121.18 649.23,121.18 649.23,94.64 529.58,94.64 	"/>
	
		<path style="clip-path:url(#SVGID_00000078765642455518447600000014464905578477037750_);fill-rule:evenodd;clip-rule:evenodd;fill:#1A1A18;" d="
		M707.95,146.81c0-25.8,1.72-25.94,36.62-25.94c34.76,0,34.9,0.14,34.9,25.94c0,25.66-0.14,25.8-35.04,25.8
		C709.67,172.61,707.95,172.47,707.95,146.81 M809.95,146.81c0-48.48-1.66-52.17-65.51-52.17c-64.13,0-66.95,3.69-66.95,52.17
		c0,48.62,2.82,52.03,66.95,52.03C808.28,198.84,809.95,195.15,809.95,146.81z"/>
	
		<path style="clip-path:url(#SVGID_00000078765642455518447600000014464905578477037750_);fill-rule:evenodd;clip-rule:evenodd;fill:#1A1A18;" d="
		M868.66,145.56v-24.38h46.36c6.51,0,11.63,2.44,11.63,12.19c0,9.75-5.13,12.19-11.63,12.19H868.66z M838.19,94.64v102.55h30.47
		v-25.1h46.36c30.05,0,42.1-3.87,42.1-38.72c0-35.14-12.05-38.72-42.1-38.72H838.19z"/>
	
		<path style="clip-path:url(#SVGID_00000078765642455518447600000014464905578477037750_);fill-rule:evenodd;clip-rule:evenodd;fill:#1A1A18;" d="
		M87.6,91.26h77.14c6.22,0,10.37,2.34,10.37,9.38c0,6.84-4.15,9.38-10.37,9.38H87.6V91.26z M46.1,57.47v139.65h129.01
		c29.42,0,41.5-10.16,41.5-38.67c0-16.99-6.22-27.34-18.67-33.01c7.36-3.52,13.77-13.09,13.77-28.52c0-36.91-21.5-39.45-41.49-39.45
		H46.1z M87.6,141.26h75.44c7.17,0,12.07,1.95,12.07,11.52c0,6.84-4.91,10.55-12.07,10.55H87.6V141.26z"/>
	
		<polygon style="clip-path:url(#SVGID_00000078765642455518447600000014464905578477037750_);fill-rule:evenodd;clip-rule:evenodd;fill:#1A1A18;" points="
		360.68,66.3 382.52,66.3 382.52,94.63 382.51,94.63 382.52,161.76 413.76,161.8 413.79,156.98 430.05,157.26 469.62,197.19 
		515.25,197.19 455.92,143.55 507.89,94.64 465.22,94.64 428.91,130.64 413.72,130.64 413.72,101.52 413.73,101.52 413.73,66.3 
		435.57,66.3 398.13,11.91 	"/>
	
		<rect x="382.51" y="165.76" style="clip-path:url(#SVGID_00000078765642455518447600000014464905578477037750_);fill-rule:evenodd;clip-rule:evenodd;fill:#EC1C24;" width="31.21" height="31.43"/>
</g>
</svg>
