<svg width="269" height="88" viewBox="0 0 269 88" fill="none" xmlns="http://www.w3.org/2000/svg">
<rect y="0.717285" width="85.3376" height="87" rx="6" fill="#2F6DB3"/>
<g clip-path="url(#clip0_642_82)">
<path d="M42.2489 15.0522H42.7241L43.1993 15.0916L43.6349 15.1702L44.1101 15.2488L44.4996 15.3191C44.5303 15.3246 44.5604 15.3327 44.5898 15.3433L44.9813 15.4847L45.4169 15.6026L45.8129 15.7598L46.2485 15.9564L46.6445 16.1529L47.0009 16.3888L47.3969 16.6246L47.7533 16.8605L48.1098 17.1357L48.4266 17.4108L48.7434 17.7253L49.0602 18.0398L49.3374 18.3936L49.6146 18.708L49.8918 19.0618L50.1294 19.4549L50.3274 19.848L50.5254 20.2411L50.7234 20.6342L50.8818 21.0273L51.0402 21.4597L51.159 21.8921L51.2382 22.3245L51.3174 22.7962L51.3966 23.2286L51.4362 23.7004V24.1721V24.6438L51.3966 25.1155L51.3174 25.5479L51.2382 26.0196L51.159 26.452L51.0402 26.8844L50.8818 27.3168L50.7234 27.7099L50.5254 28.1424L50.3274 28.5354L50.1294 28.8892L49.8918 29.2823L49.6146 29.6361L49.3374 29.9899L49.0602 30.3044L48.7434 30.6189L48.4266 30.9333L48.1098 31.2085L47.7533 31.4837L47.3969 31.7588L47.0009 31.9947L46.6445 32.1912L46.2485 32.3878L45.8129 32.5843L45.4169 32.7416L44.9813 32.8988L44.5457 33.0167L44.1101 33.0954L43.6349 33.174L43.1993 33.2526L42.7241 33.2919H42.2489H41.7737L41.2984 33.2526L40.8628 33.174L40.3876 33.0954L39.952 33.0167L39.5164 32.8988L39.0808 32.7416L38.6848 32.5843L38.2888 32.3878L37.8928 32.1912L37.4968 31.9947L37.1008 31.7588L36.7444 31.4837L36.4276 31.2085L36.0712 30.9333L35.7544 30.6189L35.4376 30.3044L35.1604 29.9899L34.8832 29.6361L34.6455 29.2823L34.4079 28.8892L34.1703 28.5354L33.9723 28.1424L33.7743 27.7099L33.6159 27.3168L33.4971 26.8844L33.3551 26.4966C33.3442 26.467 33.3359 26.4364 33.3302 26.4053L33.2595 26.0196L33.1803 25.5479L33.1011 25.1155L33.0615 24.6438V24.1721V23.7004L33.1011 23.2286L33.1803 22.7962L33.2595 22.3245L33.3302 21.9388C33.3359 21.9077 33.3442 21.8772 33.3551 21.8475L33.4971 21.4597L33.6159 21.0273L33.7743 20.6342L33.9723 20.2411L34.1703 19.848L34.4079 19.4549L34.6455 19.0618L34.8832 18.708L35.1604 18.3936L35.4376 18.0398L35.7544 17.7253L36.0712 17.4108L36.4276 17.1357L36.7444 16.8605L37.1008 16.6246L37.4968 16.3888L37.8928 16.1529L38.2888 15.9564L38.6848 15.7598L39.0808 15.6026L39.5164 15.4847L39.9079 15.3433C39.9373 15.3327 39.9675 15.3246 39.9982 15.3191L40.3876 15.2488L40.8628 15.1702L41.2984 15.0916L41.7737 15.0522H42.2489ZM42.2489 16.9391H41.8925L41.4965 16.9784L41.14 17.0177L40.7836 17.0963L40.0708 17.2536L39.754 17.3715L39.4372 17.5288L39.0808 17.6467L38.803 17.7845C38.7771 17.7974 38.7521 17.8123 38.7285 17.8291L38.4868 18.0005L38.17 18.197L37.8928 18.3936L37.6156 18.5901L37.3384 18.826L37.1008 19.0618L36.8632 19.2977L36.6256 19.5729L36.4276 19.848L36.2296 20.1232L36.0316 20.4377L35.8592 20.6772C35.8421 20.7009 35.827 20.7259 35.8138 20.752L35.6931 20.9918C35.6811 21.0154 35.6709 21.0399 35.6625 21.065L35.569 21.3434C35.5606 21.3685 35.5504 21.393 35.5385 21.4166L35.398 21.6956L35.2792 22.01L35.2 22.3638L35.1208 22.7176L35.0416 23.0714L35.002 23.4252L34.9624 23.8183V24.1721V24.5652L35.002 24.919L35.0416 25.2727L35.1208 25.6265L35.2792 26.3341L35.398 26.6486L35.5564 27.0024L35.6752 27.3168L35.8336 27.6313L36.0316 27.9458L36.2296 28.221L36.4276 28.4961L36.6256 28.7713L36.8632 29.0465L37.1008 29.2823L37.3384 29.5182L37.6156 29.754L37.8928 29.9899L38.1345 30.1612C38.1581 30.178 38.1831 30.1929 38.209 30.2058L38.4478 30.3243C38.4738 30.3372 38.4987 30.3521 38.5223 30.3689L38.7285 30.515C38.7521 30.5318 38.7771 30.5467 38.803 30.5596L39.0808 30.6975L39.4372 30.8547L39.754 30.9726L40.0708 31.0906L40.4272 31.1692L40.7836 31.2478L41.14 31.3264L41.4965 31.3657L41.8925 31.405H42.2489H42.6449L43.0013 31.3657L43.3577 31.3264L43.7141 31.2478L44.4269 31.0906L44.7437 30.9726L45.1001 30.8547L45.4169 30.6975L45.7337 30.5402L46.0505 30.3437L46.3277 30.1865L46.6049 29.9899L46.8821 29.754L47.1593 29.5182L47.3969 29.2823L47.6345 29.0465L47.8721 28.7713L48.1098 28.4961L48.3078 28.221L48.4662 27.9458L48.6642 27.6313L48.8226 27.3168L48.9631 27.0379C48.975 27.0143 48.9852 26.9898 48.9936 26.9646L49.0998 26.6486L49.2186 26.3341L49.2978 25.9803L49.377 25.6265L49.4562 25.2727L49.4958 24.919L49.5354 24.5652V24.1721V23.8183L49.4958 23.4252L49.4562 23.0714L49.377 22.7176L49.2186 22.01L49.0998 21.6956L48.981 21.3811L48.8226 21.0273L48.6839 20.752C48.6708 20.7259 48.6556 20.7009 48.6385 20.6772L48.4918 20.4733C48.4747 20.4496 48.4596 20.4246 48.4464 20.3985L48.3275 20.1624C48.3144 20.1363 48.2992 20.1113 48.2821 20.0876L48.1098 19.848L47.8721 19.5729L47.6345 19.2977L47.3969 19.0618L47.1593 18.826L46.8821 18.5901L46.6049 18.3936L46.3277 18.197L46.0505 18.0005L45.7337 17.8039L45.4169 17.6467L45.1001 17.5288L44.7437 17.3715L44.4269 17.2536L44.0705 17.175L43.7141 17.0963L43.3577 17.0177L43.0013 16.9784L42.6449 16.9391H42.2489Z" fill="white" stroke="white" stroke-width="0.222894"/>
<path d="M42.9663 41.0009C43.2219 41.2126 43.3698 41.5272 43.3698 41.8592V70.7768C43.3698 71.3 42.9457 71.724 42.4226 71.724H42.1069L41.7517 71.7641L41.4359 71.8442L41.1597 71.9242L40.8439 72.0043L40.5677 72.0844C40.1809 72.256 39.7302 72.194 39.4044 71.9241L28.9338 63.2499C28.6782 63.0382 28.5303 62.7236 28.5303 62.3917V45.9796V31.4137C28.5303 30.4704 29.6292 29.9537 30.3557 30.5554L42.9663 41.0009ZM41.4754 42.7795C41.4754 42.4479 41.3277 42.1335 41.0726 41.9218L31.3377 33.8449C30.9746 33.5435 30.4247 33.8018 30.4247 34.2737V61.4706C30.4247 61.8026 30.5727 62.1173 30.8285 62.3291L39.8468 69.7945C40.1256 70.0253 40.4991 70.1064 40.8485 70.0119L40.8834 70.0024L41.1348 69.9296C41.1513 69.9248 41.1683 69.9212 41.1854 69.9191C41.3511 69.8981 41.4754 69.757 41.4754 69.59V42.7795Z" fill="white" stroke="white" stroke-width="0.222894"/>
<path d="M43.7728 41.9218C43.5177 42.1335 43.37 42.4479 43.37 42.7795V69.2395C43.37 69.6124 43.6351 69.9327 44.0015 70.0024L44.2246 70.0348C44.2599 70.0399 44.2945 70.0488 44.3279 70.0615C44.492 70.124 44.677 70.0932 44.812 69.9809L54.0186 62.329C54.2734 62.1173 54.4207 61.8032 54.4207 61.4719V34.2737C54.4207 33.8018 53.8708 33.5435 53.5077 33.8449L43.7728 41.9218ZM41.4756 41.8592C41.4756 41.5272 41.6235 41.2126 41.8791 41.0009L54.4897 30.5554C55.2162 29.9537 56.3151 30.4704 56.3151 31.4137V45.9796V62.3917C56.3151 62.7236 56.1672 63.0382 55.9116 63.2499L45.3468 72.0021C45.0798 72.2233 44.7089 72.2698 44.3956 72.1215C44.3435 72.0968 44.289 72.0772 44.2331 72.0631L44.0015 72.0043L43.6857 71.9242L43.4095 71.8442L43.0937 71.7641L42.778 71.724H42.4228C41.8997 71.724 41.4756 71.3 41.4756 70.7768V41.8592Z" fill="white" stroke="white" stroke-width="0.222894"/>
<path d="M24.3452 26.3208C24.869 26.3208 25.2934 26.746 25.2924 27.2698L25.2548 46.6601V66.2082C25.2548 66.7014 25.5789 67.1359 26.0516 67.2765L38.0655 70.8487C38.5753 71.0003 38.8651 71.5371 38.7123 72.0465C38.56 72.5542 38.0254 72.8428 37.5174 72.6917L24.1571 68.7179C23.6844 68.5773 23.3604 68.1428 23.3604 67.6496V47.3808L23.398 27.2662C23.399 26.7438 23.8228 26.3208 24.3452 26.3208Z" fill="white" stroke="white" stroke-width="0.222894"/>
<path d="M19.0185 40.8149C19.5416 40.8149 19.9657 41.239 19.9657 41.7621V71.0903C19.9657 71.7058 20.4647 72.2048 21.0802 72.2048H36.6859C37.2166 72.2048 37.6468 72.635 37.6468 73.1657C37.6468 73.6964 37.2166 74.1266 36.6859 74.1266H19.1858C18.5703 74.1266 18.0713 73.6277 18.0713 73.0121V57.4708V41.7621C18.0713 41.239 18.4954 40.8149 19.0185 40.8149Z" fill="white" stroke="white" stroke-width="0.222894"/>
<path d="M60.4986 26.3208C61.0218 26.3208 61.4459 26.7449 61.4459 27.268V47.3808L61.4838 67.648C61.4847 68.1419 61.1604 68.5775 60.687 68.7183L47.3283 72.6917C46.8202 72.8428 46.2857 72.5542 46.1334 72.0465C45.9805 71.5371 46.2704 71.0003 46.7802 70.8487L58.7925 67.2769C59.2659 67.1362 59.5903 66.7005 59.5893 66.2065L59.5514 46.6601V27.268C59.5514 26.7449 59.9755 26.3208 60.4986 26.3208Z" fill="white" stroke="white" stroke-width="0.222894"/>
<path d="M65.8266 40.8149C66.3497 40.8149 66.7738 41.239 66.7738 41.7621V57.4708V73.0121C66.7738 73.6277 66.2748 74.1266 65.6593 74.1266H48.1592C47.6285 74.1266 47.1982 73.6964 47.1982 73.1657C47.1982 72.635 47.6285 72.2048 48.1592 72.2048H63.7649C64.3804 72.2048 64.8794 71.7058 64.8794 71.0903V41.7621C64.8794 41.239 65.3035 40.8149 65.8266 40.8149Z" fill="white" stroke="white" stroke-width="0.222894"/>
<path d="M50.3154 76.8489C50.3154 77.3796 49.8851 77.8099 49.3544 77.8099H48.2768C47.7461 77.8099 47.3159 77.3796 47.3159 76.8489V76.6087L47.2764 76.3285V76.0882L47.2577 75.9553C47.2439 75.8573 47.2214 75.7606 47.1905 75.6666L47.158 75.5677L47.0791 75.3275L46.9212 74.847L46.8423 74.6469L46.7239 74.4066L46.6055 74.2064L46.4476 74.0062L46.3292 73.8061L46.1713 73.6059L46.0135 73.4057L45.8556 73.2455L45.6034 72.9897C45.5349 72.9201 45.4604 72.8568 45.3808 72.8002L45.1057 72.6049L44.6716 72.3647L44.369 72.1972C44.2815 72.1488 44.1898 72.1083 44.0951 72.0763L43.7639 71.9643L43.2903 71.8442L42.7772 71.7641L42.3942 71.7342C42.3076 71.7275 42.2206 71.7275 42.1341 71.7342L41.7511 71.7641L41.5143 71.8041L41.238 71.8442L41.1322 71.8621C41.045 71.8768 40.9591 71.8985 40.8754 71.9268L40.7644 71.9643L40.4662 72.0651C40.3496 72.1046 40.2377 72.1568 40.1326 72.2208L40.0935 72.2446L39.8566 72.3647L39.6593 72.4848L39.462 72.6049L39.2646 72.7651L39.0673 72.8852L39.0142 72.9283C38.9183 73.0061 38.8314 73.0942 38.755 73.1912L38.7121 73.2455L38.4594 73.5019C38.3912 73.5711 38.3292 73.6461 38.274 73.726L38.0806 74.0062L37.8438 74.4066L37.6768 74.7172C37.6304 74.8036 37.5916 74.8939 37.561 74.9871L37.4492 75.3275L37.3308 75.808L37.2518 76.3285L37.2124 76.8489C37.2124 77.3796 36.7822 77.8099 36.2515 77.8099H35.1738C34.6431 77.8099 34.2129 77.3796 34.2129 76.8489V76.5164C34.2129 76.1693 34.4942 75.888 34.8412 75.888H35.0742C35.2585 75.888 35.4138 75.7506 35.4364 75.5677L35.5153 75.2474L35.6732 74.6469L35.91 74.0463L36.0284 73.766L36.0993 73.598C36.1309 73.5233 36.1679 73.4509 36.21 73.3815L36.4625 72.9653L36.6598 72.685L36.8572 72.4448L37.0545 72.2045L37.2518 72.0043L37.3527 71.8815C37.4169 71.8034 37.488 71.7313 37.5652 71.666L37.686 71.5639L37.9228 71.3637L38.0677 71.2412C38.1289 71.1895 38.1937 71.1422 38.2617 71.0998L38.6726 70.8432L38.9489 70.6831L39.2252 70.5229L39.5014 70.4028L39.7777 70.2827L39.9297 70.2166C40.0124 70.1807 40.0979 70.1514 40.1853 70.1293L40.3697 70.0825L40.6855 70.0024L41.0012 69.9224L41.6327 69.8423L42.2641 69.8022L42.9351 69.8423L43.2508 69.8823L43.5665 69.9224L43.8823 70.0024L44.1585 70.0825L44.3429 70.1293C44.4303 70.1514 44.5158 70.1807 44.5985 70.2166L44.7505 70.2827L45.3425 70.5229L45.6188 70.6831L45.8556 70.8432L46.1319 71.0034L46.3687 71.1635L46.6055 71.3637L46.8423 71.5639L47.2764 72.0043L47.3972 72.1064C47.4744 72.1717 47.5455 72.2438 47.6097 72.322L47.7106 72.4448L48.0658 72.9653L48.3183 73.3815C48.3604 73.4509 48.3973 73.5233 48.4289 73.598L48.4999 73.766L48.5924 73.9303C48.6359 74.0075 48.6732 74.088 48.7039 74.1711L48.7762 74.3666L48.8551 74.6469L48.9735 74.9672L49.0524 75.2474L49.0763 75.3769C49.1311 75.6731 49.3894 75.888 49.6907 75.888C50.0357 75.888 50.3154 76.1677 50.3154 76.5127V76.8489Z" fill="white" stroke="white" stroke-width="0.222894"/>
</g>
<path d="M108.772 20.342C108.037 20.342 107.366 20.2196 106.759 19.9747C106.153 19.7298 105.636 19.3679 105.21 18.8887C104.784 18.399 104.454 17.7975 104.22 17.0841C103.986 16.3601 103.869 15.5244 103.869 14.5768C103.869 13.6292 103.986 12.7988 104.22 12.0855C104.454 11.3615 104.784 10.7599 105.21 10.2808C105.636 9.79107 106.153 9.42376 106.759 9.17889C107.366 8.93401 108.037 8.81157 108.772 8.81157C109.506 8.81157 110.177 8.93401 110.784 9.17889C111.391 9.42376 111.907 9.79107 112.333 10.2808C112.759 10.7599 113.089 11.3615 113.323 12.0855C113.557 12.7988 113.675 13.6292 113.675 14.5768C113.675 15.5244 113.557 16.3601 113.323 17.0841C113.089 17.7975 112.759 18.399 112.333 18.8887C111.907 19.3679 111.391 19.7298 110.784 19.9747C110.177 20.2196 109.506 20.342 108.772 20.342ZM108.772 18.1861C109.506 18.1861 110.076 17.9465 110.48 17.4674C110.896 16.9883 111.103 16.3016 111.103 15.4073V13.7464C111.103 12.852 110.896 12.1653 110.48 11.6862C110.076 11.2071 109.506 10.9675 108.772 10.9675C108.037 10.9675 107.462 11.2071 107.047 11.6862C106.642 12.1653 106.44 12.852 106.44 13.7464V15.4073C106.44 16.3016 106.642 16.9883 107.047 17.4674C107.462 17.9465 108.037 18.1861 108.772 18.1861ZM115.413 11.7661H117.968L120.076 15.1996H120.14L122.248 11.7661H124.804V20.1504H122.504V14.7046H122.456L121.817 15.8704L120.108 18.6492L118.4 15.8704L117.761 14.7046H117.713V20.1504H115.413V11.7661ZM130.227 20.342C129.599 20.342 129.04 20.2409 128.55 20.0386C128.06 19.8257 127.65 19.5329 127.32 19.1602C126.99 18.777 126.74 18.3138 126.57 17.7708C126.399 17.2278 126.314 16.621 126.314 15.9502C126.314 15.2795 126.399 14.6779 126.57 14.1456C126.74 13.6026 126.99 13.1395 127.32 12.7562C127.65 12.3729 128.06 12.0801 128.55 11.8778C129.04 11.6756 129.599 11.5744 130.227 11.5744C131.079 11.5744 131.787 11.7661 132.351 12.1493C132.926 12.5326 133.336 13.0703 133.581 13.7623L131.664 14.5928C131.59 14.2734 131.435 14.0019 131.201 13.7783C130.967 13.5547 130.642 13.4429 130.227 13.4429C129.748 13.4429 129.386 13.6026 129.141 13.922C128.896 14.2308 128.774 14.6513 128.774 15.1837V16.7487C128.774 17.2811 128.896 17.7016 129.141 18.0104C129.386 18.3191 129.748 18.4735 130.227 18.4735C130.653 18.4735 130.988 18.3617 131.233 18.1381C131.488 17.9039 131.675 17.6005 131.792 17.2278L133.628 18.0264C133.352 18.8249 132.92 19.4104 132.335 19.7831C131.76 20.1557 131.057 20.342 130.227 20.342ZM134.932 11.7661H137.295V14.9761H138.509L139.611 12.9319C139.835 12.5167 140.085 12.2185 140.362 12.0375C140.649 11.8566 141.016 11.7661 141.463 11.7661H142.438V13.6026H141.591L140.873 14.9441C140.724 15.2209 140.574 15.4179 140.425 15.535C140.287 15.6521 140.122 15.7373 139.93 15.7905V15.8704C140.111 15.913 140.276 15.9875 140.425 16.094C140.585 16.2004 140.729 16.3708 140.857 16.605L141.799 18.3138H142.661V20.1504H141.559C141.112 20.1504 140.75 20.0599 140.473 19.8789C140.197 19.6979 139.936 19.3891 139.691 18.9526L138.509 16.8126H137.295V20.1504H134.932V11.7661ZM144.207 11.7661H146.523V15.1358L146.316 17.0841H146.363L147.338 15.2955L149.669 11.7661H151.777V20.1504H149.462V16.7807L149.669 14.8323H149.621L148.647 16.621L146.316 20.1504H144.207V11.7661ZM153.826 11.7661H156.142V15.1358L155.934 17.0841H155.982L156.957 15.2955L159.288 11.7661H161.396V20.1504H159.081V16.7807L159.288 14.8323H159.24L158.266 16.621L155.934 20.1504H153.826V11.7661ZM157.627 10.9037C156.925 10.9037 156.355 10.7493 155.918 10.4405C155.482 10.1318 155.141 9.68993 154.896 9.115L154.561 8.30053L156.398 7.61381L156.909 9.2268C156.972 9.25874 157.074 9.28535 157.212 9.30665C157.35 9.32794 157.489 9.33859 157.627 9.33859C157.766 9.33859 157.904 9.32794 158.042 9.30665C158.181 9.28535 158.282 9.25874 158.346 9.2268L158.857 7.61381L160.694 8.30053L160.358 9.115C160.113 9.68993 159.773 10.1318 159.336 10.4405C158.9 10.7493 158.33 10.9037 157.627 10.9037ZM104.172 30.7661H109.842V32.6026H106.536V39.1504H104.172V30.7661ZM114.386 39.342C113.768 39.342 113.214 39.2409 112.725 39.0386C112.246 38.8363 111.836 38.5435 111.495 38.1602C111.165 37.777 110.909 37.3138 110.728 36.7708C110.547 36.2278 110.457 35.621 110.457 34.9502C110.457 34.2795 110.547 33.6726 110.728 33.1296C110.909 32.5867 111.165 32.1288 111.495 31.7562C111.836 31.3729 112.246 31.0801 112.725 30.8778C113.214 30.6756 113.768 30.5744 114.386 30.5744C115.003 30.5744 115.551 30.6756 116.03 30.8778C116.52 31.0801 116.93 31.3729 117.26 31.7562C117.601 32.1288 117.862 32.5867 118.043 33.1296C118.224 33.6726 118.314 34.2795 118.314 34.9502C118.314 35.621 118.224 36.2278 118.043 36.7708C117.862 37.3138 117.601 37.777 117.26 38.1602C116.93 38.5435 116.52 38.8363 116.03 39.0386C115.551 39.2409 115.003 39.342 114.386 39.342ZM114.386 37.4735C114.854 37.4735 115.216 37.3298 115.472 37.0423C115.727 36.7549 115.855 36.345 115.855 35.8126V34.1038C115.855 33.5715 115.727 33.1616 115.472 32.8741C115.216 32.5867 114.854 32.4429 114.386 32.4429C113.917 32.4429 113.555 32.5867 113.3 32.8741C113.044 33.1616 112.916 33.5715 112.916 34.1038V35.8126C112.916 36.345 113.044 36.7549 113.3 37.0423C113.555 37.3298 113.917 37.4735 114.386 37.4735ZM123.224 39.342C122.596 39.342 122.037 39.2409 121.547 39.0386C121.058 38.8257 120.648 38.5329 120.318 38.1602C119.988 37.777 119.737 37.3138 119.567 36.7708C119.397 36.2278 119.312 35.621 119.312 34.9502C119.312 34.2795 119.397 33.6779 119.567 33.1456C119.737 32.6026 119.988 32.1395 120.318 31.7562C120.648 31.3729 121.058 31.0801 121.547 30.8778C122.037 30.6756 122.596 30.5744 123.224 30.5744C124.076 30.5744 124.784 30.7661 125.348 31.1493C125.923 31.5326 126.333 32.0703 126.578 32.7623L124.662 33.5928C124.587 33.2734 124.433 33.0019 124.198 32.7783C123.964 32.5547 123.64 32.4429 123.224 32.4429C122.745 32.4429 122.383 32.6026 122.138 32.922C121.893 33.2308 121.771 33.6513 121.771 34.1837V35.7487C121.771 36.2811 121.893 36.7016 122.138 37.0104C122.383 37.3191 122.745 37.4735 123.224 37.4735C123.65 37.4735 123.986 37.3617 124.23 37.1381C124.486 36.9039 124.672 36.6005 124.789 36.2278L126.626 37.0264C126.349 37.8249 125.918 38.4104 125.332 38.7831C124.757 39.1557 124.055 39.342 123.224 39.342ZM133.056 30.7661H135.259L132.033 40.444C131.821 41.0934 131.517 41.5725 131.123 41.8813C130.74 42.19 130.186 42.3444 129.462 42.3444H127.993V40.5079H129.574L129.862 39.5816L126.923 30.7661H129.271L130.5 34.6787L131.107 37.1062H131.203L131.826 34.6787L133.056 30.7661ZM134.968 37.3138H136.07C136.209 37.1115 136.331 36.8826 136.437 36.6271C136.544 36.3716 136.629 36.0788 136.693 35.7487C136.768 35.408 136.821 35.0248 136.853 34.5989C136.885 34.173 136.901 33.6886 136.901 33.1456V30.7661H143.64V37.3138H145.077V41.3862H142.937V39.1504H137.108V41.3862H134.968V37.3138ZM141.276 37.3138V32.6026H139.168V33.2734C139.168 34.4232 139.105 35.3122 138.977 35.9404C138.86 36.5579 138.716 37.0157 138.546 37.3138H141.276ZM152.459 39.1504C152.033 39.1504 151.676 39.0173 151.389 38.7511C151.112 38.485 150.936 38.1283 150.862 37.6811H150.766C150.638 38.2241 150.356 38.6393 149.92 38.9268C149.483 39.2036 148.945 39.342 148.307 39.342C147.465 39.342 146.821 39.1185 146.374 38.6713C145.927 38.2241 145.703 37.6332 145.703 36.8986C145.703 36.0149 146.023 35.3601 146.662 34.9343C147.311 34.4977 148.189 34.2795 149.297 34.2795H150.622V33.7525C150.622 33.3479 150.516 33.0285 150.303 32.7943C150.09 32.5494 149.733 32.4269 149.233 32.4269C148.764 32.4269 148.392 32.5281 148.115 32.7304C147.838 32.9327 147.609 33.1616 147.428 33.4171L146.023 32.1714C146.364 31.671 146.789 31.2824 147.3 31.0056C147.822 30.7181 148.525 30.5744 149.409 30.5744C150.601 30.5744 151.495 30.8353 152.091 31.3569C152.688 31.8786 152.986 32.6399 152.986 33.6407V37.3138H153.768V39.1504H152.459ZM149.185 37.6971C149.579 37.6971 149.914 37.6119 150.191 37.4416C150.479 37.2712 150.622 36.9944 150.622 36.6111V35.621H149.472C148.546 35.621 148.083 35.9351 148.083 36.5632V36.8028C148.083 37.1115 148.179 37.3404 148.37 37.4895C148.562 37.6279 148.834 37.6971 149.185 37.6971ZM155.195 30.7661H157.559V32.1714H157.639C157.756 31.703 158.022 31.3197 158.437 31.0216C158.863 30.7235 159.347 30.5744 159.89 30.5744C160.955 30.5744 161.759 30.947 162.302 31.6923C162.845 32.4376 163.116 33.5236 163.116 34.9502C163.116 36.3769 162.845 37.4682 162.302 38.2241C161.759 38.9694 160.955 39.342 159.89 39.342C159.613 39.342 159.353 39.2994 159.108 39.2143C158.863 39.1397 158.639 39.0333 158.437 38.8949C158.245 38.7458 158.08 38.5755 157.942 38.3838C157.804 38.1815 157.702 37.9686 157.639 37.745H157.559V42.3444H155.195V30.7661ZM159.108 37.4256C159.555 37.4256 159.922 37.2712 160.21 36.9625C160.508 36.6431 160.657 36.2172 160.657 35.6849V34.2316C160.657 33.6992 160.508 33.2787 160.21 32.9699C159.922 32.6505 159.555 32.4908 159.108 32.4908C158.661 32.4908 158.288 32.6026 157.99 32.8262C157.702 33.0391 157.559 33.3372 157.559 33.7205V36.1959C157.559 36.5792 157.702 36.8826 157.99 37.1062C158.288 37.3191 158.661 37.4256 159.108 37.4256ZM168.137 39.342C167.509 39.342 166.95 39.2409 166.46 39.0386C165.971 38.8257 165.561 38.5329 165.231 38.1602C164.901 37.777 164.65 37.3138 164.48 36.7708C164.31 36.2278 164.225 35.621 164.225 34.9502C164.225 34.2795 164.31 33.6779 164.48 33.1456C164.65 32.6026 164.901 32.1395 165.231 31.7562C165.561 31.3729 165.971 31.0801 166.46 30.8778C166.95 30.6756 167.509 30.5744 168.137 30.5744C168.989 30.5744 169.697 30.7661 170.261 31.1493C170.836 31.5326 171.246 32.0703 171.491 32.7623L169.575 33.5928C169.5 33.2734 169.346 33.0019 169.111 32.7783C168.877 32.5547 168.552 32.4429 168.137 32.4429C167.658 32.4429 167.296 32.6026 167.051 32.922C166.806 33.2308 166.684 33.6513 166.684 34.1837V35.7487C166.684 36.2811 166.806 36.7016 167.051 37.0104C167.296 37.3191 167.658 37.4735 168.137 37.4735C168.563 37.4735 168.899 37.3617 169.143 37.1381C169.399 36.9039 169.585 36.6005 169.702 36.2278L171.539 37.0264C171.262 37.8249 170.831 38.4104 170.245 38.7831C169.67 39.1557 168.968 39.342 168.137 39.342ZM174.612 32.6026H172.184V30.7661H179.403V32.6026H176.975V39.1504H174.612V32.6026ZM180.667 30.7661H185.443C186.209 30.7661 186.795 30.9577 187.199 31.341C187.604 31.7243 187.806 32.2353 187.806 32.8741C187.806 33.4171 187.662 33.8376 187.375 34.1358C187.087 34.4339 186.64 34.6255 186.033 34.7107V34.7905C187.428 34.9183 188.126 35.5624 188.126 36.7229C188.126 37.4682 187.891 38.0591 187.423 38.4956C186.954 38.9321 186.305 39.1504 185.475 39.1504H180.667V30.7661ZM185.043 37.4735C185.256 37.4735 185.427 37.415 185.554 37.2979C185.682 37.1807 185.746 37.0157 185.746 36.8028V36.3077C185.746 36.0948 185.682 35.9297 185.554 35.8126C185.427 35.6849 185.256 35.621 185.043 35.621H182.967V37.4735H185.043ZM184.756 34.2156C184.969 34.2156 185.134 34.1571 185.251 34.0399C185.368 33.9228 185.427 33.7578 185.427 33.5449V33.1137C185.427 32.9007 185.368 32.7357 185.251 32.6186C185.134 32.5015 184.969 32.4429 184.756 32.4429H182.967V34.2156H184.756ZM193.207 39.342C192.568 39.342 191.998 39.2409 191.498 39.0386C190.998 38.8257 190.572 38.5329 190.22 38.1602C189.88 37.777 189.619 37.3138 189.438 36.7708C189.267 36.2278 189.182 35.621 189.182 34.9502C189.182 34.2901 189.267 33.6939 189.438 33.1616C189.608 32.6186 189.858 32.1555 190.188 31.7722C190.529 31.3889 190.944 31.0961 191.434 30.8938C191.924 30.6809 192.483 30.5744 193.111 30.5744C193.803 30.5744 194.394 30.6915 194.884 30.9258C195.384 31.16 195.789 31.4741 196.097 31.868C196.417 32.2619 196.646 32.7197 196.784 33.2414C196.933 33.7525 197.008 34.2901 197.008 34.8544V35.5571H191.626V35.6849C191.626 36.2385 191.775 36.6803 192.073 37.0104C192.371 37.3298 192.839 37.4895 193.478 37.4895C193.968 37.4895 194.367 37.3937 194.676 37.202C194.985 36.9997 195.272 36.7602 195.538 36.4834L196.72 37.9526C196.348 38.3891 195.858 38.7298 195.251 38.9747C194.655 39.2196 193.973 39.342 193.207 39.342ZM193.159 32.3152C192.68 32.3152 192.302 32.4749 192.025 32.7943C191.759 33.103 191.626 33.5182 191.626 34.0399V34.1677H194.564V34.024C194.564 33.5129 194.447 33.103 194.213 32.7943C193.989 32.4749 193.638 32.3152 193.159 32.3152ZM198.517 30.7661H200.881V33.9761H203.724V30.7661H206.087V39.1504H203.724V35.8126H200.881V39.1504H198.517V30.7661ZM208.136 30.7661H210.5V33.9761H213.342V30.7661H215.706V39.1504H213.342V35.8126H210.5V39.1504H208.136V30.7661ZM217.755 30.7661H220.119V33.2574H222.147C222.551 33.2574 222.929 33.3213 223.281 33.449C223.632 33.5768 223.936 33.7684 224.191 34.024C224.457 34.2688 224.665 34.5723 224.814 34.9343C224.963 35.2963 225.037 35.7168 225.037 36.1959C225.037 36.675 224.963 37.1009 224.814 37.4735C224.665 37.8355 224.457 38.1443 224.191 38.3998C223.936 38.6447 223.632 38.831 223.281 38.9587C222.929 39.0865 222.551 39.1504 222.147 39.1504H217.755V30.7661ZM221.636 37.4735C221.945 37.4735 222.189 37.3937 222.37 37.234C222.562 37.0636 222.658 36.8241 222.658 36.5153V35.8925C222.658 35.5837 222.562 35.3495 222.37 35.1898C222.189 35.0194 221.945 34.9343 221.636 34.9343H220.119V37.4735H221.636ZM226.107 30.7661H228.471V39.1504H226.107V30.7661ZM230.509 30.7661H232.824V34.1358L232.617 36.0841H232.665L233.639 34.2955L235.971 30.7661H238.079V39.1504H235.763V35.7807L235.971 33.8323H235.923L234.948 35.621L232.617 39.1504H230.509V30.7661ZM234.31 29.9037C233.607 29.9037 233.037 29.7493 232.601 29.4405C232.164 29.1318 231.824 28.6899 231.579 28.115L231.243 27.3005L233.08 26.6138L233.591 28.2268C233.655 28.2587 233.756 28.2854 233.894 28.3066C234.033 28.3279 234.171 28.3386 234.31 28.3386C234.448 28.3386 234.586 28.3279 234.725 28.3066C234.863 28.2854 234.964 28.2587 235.028 28.2268L235.539 26.6138L237.376 27.3005L237.041 28.115C236.796 28.6899 236.455 29.1318 236.018 29.4405C235.582 29.7493 235.012 29.9037 234.31 29.9037ZM104.172 49.7661H111.503V58.1504H109.139V51.6026H106.536V58.1504H104.172V49.7661ZM117.039 58.342C116.4 58.342 115.831 58.2409 115.33 58.0386C114.83 57.8257 114.404 57.5329 114.053 57.1602C113.712 56.777 113.451 56.3138 113.27 55.7708C113.1 55.2278 113.015 54.621 113.015 53.9502C113.015 53.2901 113.1 52.6939 113.27 52.1616C113.44 51.6186 113.691 51.1555 114.021 50.7722C114.361 50.3889 114.777 50.0961 115.266 49.8938C115.756 49.6809 116.315 49.5744 116.943 49.5744C117.635 49.5744 118.226 49.6915 118.716 49.9258C119.216 50.16 119.621 50.4741 119.93 50.868C120.249 51.2619 120.478 51.7197 120.616 52.2414C120.765 52.7525 120.84 53.2901 120.84 53.8544V54.5571H115.458V54.6849C115.458 55.2385 115.607 55.6803 115.905 56.0104C116.203 56.3298 116.672 56.4895 117.311 56.4895C117.8 56.4895 118.2 56.3937 118.508 56.202C118.817 55.9997 119.105 55.7602 119.371 55.4834L120.553 56.9526C120.18 57.3891 119.69 57.7298 119.083 57.9747C118.487 58.2196 117.806 58.342 117.039 58.342ZM116.991 51.3152C116.512 51.3152 116.134 51.4749 115.857 51.7943C115.591 52.103 115.458 52.5182 115.458 53.0399V53.1677H118.397V53.024C118.397 52.5129 118.279 52.103 118.045 51.7943C117.822 51.4749 117.47 51.3152 116.991 51.3152ZM121.407 56.3138H122.509C122.648 56.1115 122.77 55.8826 122.877 55.6271C122.983 55.3716 123.068 55.0788 123.132 54.7487C123.207 54.408 123.26 54.0248 123.292 53.5989C123.324 53.173 123.34 52.6886 123.34 52.1456V49.7661H130.079V56.3138H131.516V60.3862H129.376V58.1504H123.547V60.3862H121.407V56.3138ZM127.716 56.3138V51.6026H125.607V52.2734C125.607 53.4232 125.544 54.3122 125.416 54.9404C125.299 55.5579 125.155 56.0157 124.985 56.3138H127.716ZM138.898 58.1504C138.472 58.1504 138.115 58.0173 137.828 57.7511C137.551 57.485 137.375 57.1283 137.301 56.6811H137.205C137.077 57.2241 136.795 57.6393 136.359 57.9268C135.922 58.2036 135.384 58.342 134.746 58.342C133.905 58.342 133.26 58.1185 132.813 57.6713C132.366 57.2241 132.143 56.6332 132.143 55.8986C132.143 55.0149 132.462 54.3601 133.101 53.9343C133.75 53.4977 134.629 53.2795 135.736 53.2795H137.061V52.7525C137.061 52.3479 136.955 52.0285 136.742 51.7943C136.529 51.5494 136.172 51.4269 135.672 51.4269C135.203 51.4269 134.831 51.5281 134.554 51.7304C134.277 51.9327 134.048 52.1616 133.867 52.4171L132.462 51.1714C132.803 50.671 133.228 50.2824 133.74 50.0056C134.261 49.7181 134.964 49.5744 135.848 49.5744C137.04 49.5744 137.934 49.8353 138.531 50.3569C139.127 50.8786 139.425 51.6399 139.425 52.6407V56.3138H140.207V58.1504H138.898ZM135.624 56.6971C136.018 56.6971 136.353 56.6119 136.63 56.4416C136.918 56.2712 137.061 55.9944 137.061 55.6111V54.621H135.911C134.985 54.621 134.522 54.9351 134.522 55.5632V55.8028C134.522 56.1115 134.618 56.3404 134.81 56.4895C135.001 56.6279 135.273 56.6971 135.624 56.6971ZM141.634 49.7661H147.304V51.6026H143.998V58.1504H141.634V49.7661ZM151.847 58.342C151.23 58.342 150.676 58.2409 150.187 58.0386C149.707 57.8363 149.298 57.5435 148.957 57.1602C148.627 56.777 148.371 56.3138 148.19 55.7708C148.009 55.2278 147.919 54.621 147.919 53.9502C147.919 53.2795 148.009 52.6726 148.19 52.1296C148.371 51.5867 148.627 51.1288 148.957 50.7562C149.298 50.3729 149.707 50.0801 150.187 49.8778C150.676 49.6756 151.23 49.5744 151.847 49.5744C152.465 49.5744 153.013 49.6756 153.492 49.8778C153.982 50.0801 154.392 50.3729 154.722 50.7562C155.063 51.1288 155.324 51.5867 155.505 52.1296C155.686 52.6726 155.776 53.2795 155.776 53.9502C155.776 54.621 155.686 55.2278 155.505 55.7708C155.324 56.3138 155.063 56.777 154.722 57.1602C154.392 57.5435 153.982 57.8363 153.492 58.0386C153.013 58.2409 152.465 58.342 151.847 58.342ZM151.847 56.4735C152.316 56.4735 152.678 56.3298 152.933 56.0423C153.189 55.7549 153.317 55.345 153.317 54.8126V53.1038C153.317 52.5715 153.189 52.1616 152.933 51.8741C152.678 51.5867 152.316 51.4429 151.847 51.4429C151.379 51.4429 151.017 51.5867 150.761 51.8741C150.506 52.1616 150.378 52.5715 150.378 53.1038V54.8126C150.378 55.345 150.506 55.7549 150.761 56.0423C151.017 56.3298 151.379 56.4735 151.847 56.4735ZM157.301 49.7661H162.97V51.6026H159.664V58.1504H157.301V49.7661ZM164.237 49.7661H166.553V53.1358L166.345 55.0841H166.393L167.367 53.2955L169.699 49.7661H171.807V58.1504H169.491V54.7807L169.699 52.8323H169.651L168.677 54.621L166.345 58.1504H164.237V49.7661ZM178.519 54.589H178.439C178.248 54.9297 177.971 55.2012 177.609 55.4035C177.257 55.5952 176.81 55.691 176.267 55.691C175.32 55.691 174.628 55.4461 174.191 54.9564C173.765 54.4666 173.552 53.716 173.552 52.7046V49.7661H175.916V52.5928C175.916 53.008 176.012 53.3114 176.203 53.5031C176.406 53.6841 176.73 53.7746 177.178 53.7746C177.625 53.7746 177.96 53.6947 178.184 53.535C178.407 53.3753 178.519 53.173 178.519 52.9281V49.7661H180.883V58.1504H178.519V54.589ZM186.426 58.342C185.788 58.342 185.218 58.2409 184.718 58.0386C184.217 57.8257 183.791 57.5329 183.44 57.1602C183.099 56.777 182.838 56.3138 182.657 55.7708C182.487 55.2278 182.402 54.621 182.402 53.9502C182.402 53.2901 182.487 52.6939 182.657 52.1616C182.828 51.6186 183.078 51.1555 183.408 50.7722C183.749 50.3889 184.164 50.0961 184.654 49.8938C185.143 49.6809 185.702 49.5744 186.331 49.5744C187.023 49.5744 187.613 49.6915 188.103 49.9258C188.604 50.16 189.008 50.4741 189.317 50.868C189.636 51.2619 189.865 51.7197 190.004 52.2414C190.153 52.7525 190.227 53.2901 190.227 53.8544V54.5571H184.845V54.6849C184.845 55.2385 184.994 55.6803 185.292 56.0104C185.591 56.3298 186.059 56.4895 186.698 56.4895C187.188 56.4895 187.587 56.3937 187.896 56.202C188.204 55.9997 188.492 55.7602 188.758 55.4834L189.94 56.9526C189.567 57.3891 189.077 57.7298 188.471 57.9747C187.874 58.2196 187.193 58.342 186.426 58.342ZM186.378 51.3152C185.899 51.3152 185.521 51.4749 185.245 51.7943C184.978 52.103 184.845 52.5182 184.845 53.0399V53.1677H187.784V53.024C187.784 52.5129 187.667 52.103 187.432 51.7943C187.209 51.4749 186.858 51.3152 186.378 51.3152ZM195.122 58.342C194.494 58.342 193.935 58.2409 193.446 58.0386C192.956 57.8257 192.546 57.5329 192.216 57.1602C191.886 56.777 191.636 56.3138 191.465 55.7708C191.295 55.2278 191.21 54.621 191.21 53.9502C191.21 53.2795 191.295 52.6779 191.465 52.1456C191.636 51.6026 191.886 51.1395 192.216 50.7562C192.546 50.3729 192.956 50.0801 193.446 49.8778C193.935 49.6756 194.494 49.5744 195.122 49.5744C195.974 49.5744 196.682 49.7661 197.247 50.1493C197.821 50.5326 198.231 51.0703 198.476 51.7623L196.56 52.5928C196.485 52.2734 196.331 52.0019 196.097 51.7783C195.862 51.5547 195.538 51.4429 195.122 51.4429C194.643 51.4429 194.281 51.6026 194.037 51.922C193.792 52.2308 193.669 52.6513 193.669 53.1837V54.7487C193.669 55.2811 193.792 55.7016 194.037 56.0104C194.281 56.3191 194.643 56.4735 195.122 56.4735C195.548 56.4735 195.884 56.3617 196.129 56.1381C196.384 55.9039 196.57 55.6005 196.688 55.2278L198.524 56.0264C198.247 56.8249 197.816 57.4104 197.231 57.7831C196.656 58.1557 195.953 58.342 195.122 58.342ZM199.827 49.7661H202.191V52.9761H203.405L204.507 50.9319C204.73 50.5167 204.98 50.2185 205.257 50.0375C205.545 49.8566 205.912 49.7661 206.359 49.7661H207.333V51.6026H206.487L205.768 52.9441C205.619 53.2209 205.47 53.4179 205.321 53.535C205.183 53.6521 205.018 53.7373 204.826 53.7905V53.8704C205.007 53.913 205.172 53.9875 205.321 54.094C205.481 54.2004 205.624 54.3708 205.752 54.605L206.694 56.3138H207.557V58.1504H206.455C206.008 58.1504 205.646 58.0599 205.369 57.8789C205.092 57.6979 204.831 57.3891 204.586 56.9526L203.405 54.8126H202.191V58.1504H199.827V49.7661ZM209.103 49.7661H211.419V53.1358L211.211 55.0841H211.259L212.233 53.2955L214.565 49.7661H216.673V58.1504H214.357V54.7807L214.565 52.8323H214.517L213.543 54.621L211.211 58.1504H209.103V49.7661ZM218.722 49.7661H221.038V53.1358L220.83 55.0841H220.878L221.852 53.2955L224.184 49.7661H226.292V58.1504H223.976V54.7807L224.184 52.8323H224.136L223.162 54.621L220.83 58.1504H218.722V49.7661ZM222.523 48.9037C221.82 48.9037 221.251 48.7493 220.814 48.4405C220.378 48.1318 220.037 47.6899 219.792 47.115L219.457 46.3005L221.293 45.6138L221.804 47.2268C221.868 47.2587 221.969 47.2854 222.108 47.3066C222.246 47.3279 222.385 47.3386 222.523 47.3386C222.661 47.3386 222.8 47.3279 222.938 47.3066C223.077 47.2854 223.178 47.2587 223.242 47.2268L223.753 45.6138L225.589 46.3005L225.254 47.115C225.009 47.6899 224.668 48.1318 224.232 48.4405C223.795 48.7493 223.226 48.9037 222.523 48.9037ZM109.299 68.7661H111.503L108.277 78.444C108.064 79.0934 107.76 79.5725 107.366 79.8813C106.983 80.19 106.429 80.3444 105.705 80.3444H104.236V78.5079H105.817L106.105 77.5816L103.166 68.7661H105.514L106.743 72.6787L107.35 75.1062H107.446L108.069 72.6787L109.299 68.7661ZM112.543 68.7661H114.907V71.9761H117.75V68.7661H120.113V77.1504H117.75V73.8126H114.907V77.1504H112.543V68.7661ZM122.162 68.7661H124.478V72.1358L124.27 74.0841H124.318L125.293 72.2955L127.624 68.7661H129.732V77.1504H127.417V73.7807L127.624 71.8323H127.576L126.602 73.621L124.27 77.1504H122.162V68.7661ZM131.781 68.7661H136.556C137.323 68.7661 137.909 68.9577 138.313 69.341C138.718 69.7243 138.92 70.2353 138.92 70.8741C138.92 71.4171 138.776 71.8376 138.489 72.1358C138.201 72.4339 137.754 72.6255 137.147 72.7107V72.7905C138.542 72.9183 139.239 73.5624 139.239 74.7229C139.239 75.4682 139.005 76.0591 138.537 76.4956C138.068 76.9321 137.419 77.1504 136.588 77.1504H131.781V68.7661ZM136.157 75.4735C136.37 75.4735 136.54 75.415 136.668 75.2979C136.796 75.1807 136.86 75.0157 136.86 74.8028V74.3077C136.86 74.0948 136.796 73.9297 136.668 73.8126C136.54 73.6849 136.37 73.621 136.157 73.621H134.081V75.4735H136.157ZM135.87 72.2156C136.083 72.2156 136.248 72.1571 136.365 72.0399C136.482 71.9228 136.54 71.7578 136.54 71.5449V71.1137C136.54 70.9007 136.482 70.7357 136.365 70.6186C136.248 70.5015 136.083 70.4429 135.87 70.4429H134.081V72.2156H135.87ZM144.321 77.342C143.682 77.342 143.112 77.2409 142.612 77.0386C142.111 76.8257 141.686 76.5329 141.334 76.1602C140.994 75.777 140.733 75.3138 140.552 74.7708C140.381 74.2278 140.296 73.621 140.296 72.9502C140.296 72.2901 140.381 71.6939 140.552 71.1616C140.722 70.6186 140.972 70.1555 141.302 69.7722C141.643 69.3889 142.058 69.0961 142.548 68.8938C143.038 68.6809 143.597 68.5744 144.225 68.5744C144.917 68.5744 145.508 68.6915 145.997 68.9258C146.498 69.16 146.902 69.4741 147.211 69.868C147.531 70.2619 147.76 70.7197 147.898 71.2414C148.047 71.7525 148.122 72.2901 148.122 72.8544V73.5571H142.74V73.6849C142.74 74.2385 142.889 74.6803 143.187 75.0104C143.485 75.3298 143.953 75.4895 144.592 75.4895C145.082 75.4895 145.481 75.3937 145.79 75.202C146.099 74.9997 146.386 74.7602 146.652 74.4834L147.834 75.9526C147.461 76.3891 146.972 76.7298 146.365 76.9747C145.769 77.2196 145.087 77.342 144.321 77.342ZM144.273 70.3152C143.794 70.3152 143.416 70.4749 143.139 70.7943C142.873 71.103 142.74 71.5182 142.74 72.0399V72.1677H145.678V72.024C145.678 71.5129 145.561 71.103 145.327 70.7943C145.103 70.4749 144.752 70.3152 144.273 70.3152ZM149.631 68.7661H151.995V70.1714H152.075C152.192 69.703 152.458 69.3197 152.873 69.0216C153.299 68.7235 153.783 68.5744 154.326 68.5744C155.391 68.5744 156.195 68.947 156.738 69.6923C157.281 70.4376 157.552 71.5236 157.552 72.9502C157.552 74.3769 157.281 75.4682 156.738 76.2241C156.195 76.9694 155.391 77.342 154.326 77.342C154.049 77.342 153.789 77.2994 153.544 77.2143C153.299 77.1397 153.075 77.0333 152.873 76.8949C152.681 76.7458 152.516 76.5755 152.378 76.3838C152.24 76.1815 152.138 75.9686 152.075 75.745H151.995V80.3444H149.631V68.7661ZM153.544 75.4256C153.991 75.4256 154.358 75.2712 154.646 74.9625C154.944 74.6431 155.093 74.2172 155.093 73.6849V72.2316C155.093 71.6992 154.944 71.2787 154.646 70.9699C154.358 70.6505 153.991 70.4908 153.544 70.4908C153.097 70.4908 152.724 70.6026 152.426 70.8262C152.138 71.0391 151.995 71.3372 151.995 71.7205V74.1959C151.995 74.5792 152.138 74.8826 152.426 75.1062C152.724 75.3191 153.097 75.4256 153.544 75.4256ZM162.573 77.342C161.945 77.342 161.386 77.2409 160.896 77.0386C160.407 76.8257 159.997 76.5329 159.667 76.1602C159.337 75.777 159.086 75.3138 158.916 74.7708C158.746 74.2278 158.661 73.621 158.661 72.9502C158.661 72.2795 158.746 71.6779 158.916 71.1456C159.086 70.6026 159.337 70.1395 159.667 69.7562C159.997 69.3729 160.407 69.0801 160.896 68.8778C161.386 68.6756 161.945 68.5744 162.573 68.5744C163.425 68.5744 164.133 68.7661 164.697 69.1493C165.272 69.5326 165.682 70.0703 165.927 70.7623L164.011 71.5928C163.936 71.2734 163.782 71.0019 163.547 70.7783C163.313 70.5547 162.989 70.4429 162.573 70.4429C162.094 70.4429 161.732 70.6026 161.487 70.922C161.242 71.2308 161.12 71.6513 161.12 72.1837V73.7487C161.12 74.2811 161.242 74.7016 161.487 75.0104C161.732 75.3191 162.094 75.4735 162.573 75.4735C162.999 75.4735 163.335 75.3617 163.579 75.1381C163.835 74.9039 164.021 74.6005 164.138 74.2278L165.975 75.0264C165.698 75.8249 165.267 76.4104 164.681 76.7831C164.106 77.1557 163.404 77.342 162.573 77.342ZM167.278 68.7661H169.594V72.1358L169.386 74.0841H169.434L170.408 72.2955L172.74 68.7661H174.848V77.1504H172.532V73.7807L172.74 71.8323H172.692L171.718 73.621L169.386 77.1504H167.278V68.7661ZM178.542 70.6026H176.114V68.7661H183.333V70.6026H180.906V77.1504H178.542V70.6026ZM188.017 77.342C187.378 77.342 186.809 77.2409 186.308 77.0386C185.808 76.8257 185.382 76.5329 185.031 76.1602C184.69 75.777 184.429 75.3138 184.248 74.7708C184.078 74.2278 183.993 73.621 183.993 72.9502C183.993 72.2901 184.078 71.6939 184.248 71.1616C184.419 70.6186 184.669 70.1555 184.999 69.7722C185.339 69.3889 185.755 69.0961 186.244 68.8938C186.734 68.6809 187.293 68.5744 187.921 68.5744C188.613 68.5744 189.204 68.6915 189.694 68.9258C190.194 69.16 190.599 69.4741 190.908 69.868C191.227 70.2619 191.456 70.7197 191.594 71.2414C191.743 71.7525 191.818 72.2901 191.818 72.8544V73.5571H186.436V73.6849C186.436 74.2385 186.585 74.6803 186.883 75.0104C187.181 75.3298 187.65 75.4895 188.289 75.4895C188.778 75.4895 189.178 75.3937 189.486 75.202C189.795 74.9997 190.083 74.7602 190.349 74.4834L191.531 75.9526C191.158 76.3891 190.668 76.7298 190.061 76.9747C189.465 77.2196 188.784 77.342 188.017 77.342ZM187.969 70.3152C187.49 70.3152 187.112 70.4749 186.835 70.7943C186.569 71.103 186.436 71.5182 186.436 72.0399V72.1677H189.375V72.024C189.375 71.5129 189.257 71.103 189.023 70.7943C188.8 70.4749 188.448 70.3152 187.969 70.3152ZM194.895 70.6026H192.467V68.7661H199.686V70.6026H197.258V77.1504H194.895V70.6026Z" fill="#2F6DB3"/>
<defs>
<clipPath id="clip0_642_82">
<rect width="48.9348" height="63.4171" fill="white" transform="translate(18.0713 14.71)"/>
</clipPath>
</defs>
</svg>
